<svg id="Layer_1" data-name="Layer 1" xmlns="http://www.w3.org/2000/svg" viewBox="0 0 1200 1200"><defs><style>.cls-1{fill:#e6e7e8;}</style></defs><path class="cls-1" d="M525,506.25A56.25,56.25,0,1,1,468.75,450,56.24,56.24,0,0,1,525,506.25Z"/><path class="cls-1" d="M375,337.5a75,75,0,0,0-75,75v375a75,75,0,0,0,75,75H825a75,75,0,0,0,75-75v-375a75,75,0,0,0-75-75ZM825,375a37.5,37.5,0,0,1,37.5,37.5V656.25l-141.64-73a18.73,18.73,0,0,0-21.63,3.48L560.1,725.85,460.35,659.4a18.74,18.74,0,0,0-23.62,2.33L337.5,750V412.5A37.5,37.5,0,0,1,375,375Z"/></svg>