<svg xmlns="http://www.w3.org/2000/svg" viewBox="0 0 480 480"><defs><style>.cls-1{isolation:isolate;}.cls-2{fill:#fff;}.cls-3{fill:#bcac95;opacity:0.68;}.cls-10,.cls-11,.cls-14,.cls-15,.cls-16,.cls-17,.cls-18,.cls-20,.cls-3,.cls-5{mix-blend-mode:multiply;}.cls-4,.cls-5{fill:#8e5229;}.cls-4{stroke:#e29661;stroke-linecap:round;stroke-miterlimit:10;stroke-width:3.16px;}.cls-20,.cls-5{opacity:0.57;}.cls-14,.cls-18,.cls-6{fill:#55772b;}.cls-15,.cls-16,.cls-17,.cls-7{fill:#719007;}.cls-8{fill:#e55c5c;}.cls-10,.cls-9{fill:#c23838;}.cls-10{opacity:0.58;}.cls-12{fill:#e29661;}.cls-13{fill:#2d5e2d;}.cls-14{opacity:0.42;}.cls-15{opacity:0.53;}.cls-16{opacity:0.56;}.cls-17{opacity:0.55;}.cls-18{opacity:0.41;}.cls-19,.cls-20{fill:#bf7949;}</style></defs><g class="cls-1"><g id="Layer_1" data-name="Layer 1"><rect class="cls-2" width="480" height="480"/><ellipse class="cls-3" cx="240" cy="391.12" rx="110.13" ry="23.88"/><ellipse class="cls-4" cx="240.44" cy="279.4" rx="62.19" ry="12.84"/><path class="cls-5" d="M291.16,285.05c-7,2.18-14.33,3.15-21.55,3.92a267.08,267.08,0,0,1-28,1.36q-3.17,0-6.33-.06c-7.63-.16-15.25-.54-22.83-1.38q-5.58-.61-11.1-1.6c-5.71-1-12.28-1.59-17.31-4.75a32.07,32.07,0,0,1,8.87-4c13.17-4.09,27.11-4.88,40.89-5.08,18.52-.27,37.26.49,55.08,5.53a19.07,19.07,0,0,1,6.24,2.68c.47.35,1,.94.69,1.46a1.31,1.31,0,0,1-.76.53C293.78,284.18,292.47,284.64,291.16,285.05Z"/><path class="cls-6" d="M216.44,250.29c-4.18-12.37-7.71-24.81-6.66-38,1-12.92,6.87-25.82,17.35-33.44s25.81-8.9,36.39-1.41,14.41,21.56,13.21,34.36-6.64,24.76-11.56,36.64a105,105,0,0,0-8,41.56c0,.59-15.94.8-17.25.76-3.57-.1-7.81.27-11.28-.5-1.72-.38-1.22-.06-1.53-1.82-.25-1.42-.37-2.88-.62-4.31C224.49,272.47,220.2,261.42,216.44,250.29Z"/><path class="cls-7" d="M198.18,201.42c-6-4.41-12.26-8.43-17.54-14-8.32-8.74-14.56-19.62-16.64-31.59-1.29-7.4-1-15.23,2-22.12s8.87-12.72,16.14-14.62,15.77.66,20,6.88c2.45,3.6,3.35,8,3.94,12.34a112.84,112.84,0,0,1,.65,24.3c-.81,9.85-2.79,20.39,1.8,29.15,3.33,6.35,8.37,9.6,6,17.31-.52,1.66-1.59,3.7-3.31,3.43a3.69,3.69,0,0,1-2-1.45A68.06,68.06,0,0,0,198.18,201.42Z"/><path class="cls-7" d="M236.79,155a27.94,27.94,0,0,1-.78-6.72c.1-6.54-.52-13.12-.2-19.7a108.54,108.54,0,0,1,9.54-39.77c2.2-4.8,4.8-9.48,8.51-13.23,6.91-7,18.76-9.83,26.95-3.28,5,4,7.5,10.27,8.53,16.53,2.15,13.09-1.47,26.39-5.65,39-2.91,8.78-6.16,17.55-11.25,25.27-4.83,7.34-11.2,13.56-16,20.9-2.93,4.45-11.11,13.63-14.7,4.86-1.3-3.17-.56-8.19-1.43-11.68C239.25,163.06,237.71,159.1,236.79,155Z"/><path class="cls-7" d="M295.84,203.87c2.65-6.46,4.79-13.16,8.14-19.29s8.13-11.76,14.54-14.54,14.6-2.12,19.48,2.87c4.55,4.65,5.35,11.81,4.8,18.29A58.62,58.62,0,0,1,321,231.78,65.39,65.39,0,0,1,291,244.42c-2.62.4-30.3-2-28.61,4.29-1.62-6.08,1.52-12.31,4.57-17.83a3.37,3.37,0,0,1,1-1.27,3.63,3.63,0,0,1,1.79-.44C284.75,228,290.82,216.14,295.84,203.87Z"/><path class="cls-7" d="M193.88,267.77c-10.56-7.95-16.54-22.39-13.7-35.89a20.18,20.18,0,0,1,4.47-9.59,11.16,11.16,0,0,1,9.54-3.83c5.51.79,8.95,6.3,11.14,11.42s4,10.65,6.81,15.57,6.91,9.38,12.27,11.23a6.86,6.86,0,0,1,2.62,1.26c.74.7,4.05,10.46,3.14,10.9a46.78,46.78,0,0,1-14.71,4.84A29.44,29.44,0,0,1,193.88,267.77Z"/><path class="cls-6" d="M213.82,111.64a31.15,31.15,0,0,1-2.1-9.44,19.88,19.88,0,0,1,3.67-13.13A11.56,11.56,0,0,1,223,84.12c6-.76,11.15,4.92,12.76,10.78s.9,12.09,1.76,18.11c.62,4.35,2.06,8.54,2.71,12.89s.41,9.06-2.05,12.7c-1.42-3.19-1.82-6-4.6-8.49s-6.18-3.75-9.25-5.46C219.53,122,215.93,117,213.82,111.64Z"/><path class="cls-8" d="M277.83,167c0-3.41-.26-6.87-.32-10.17a.45.45,0,0,1,.12-.39.42.42,0,0,1,.33,0,1.66,1.66,0,0,1,.92.59,9.71,9.71,0,0,1,.45-7.37,18.16,18.16,0,0,1,1,3.15,6.77,6.77,0,0,1,2.84-5.95,1.92,1.92,0,0,1,.63,1.51,4.78,4.78,0,0,1,1.81-2.46,2.28,2.28,0,0,1,2.85.28c.9,1.08.23,2.74.58,4.11a5.45,5.45,0,0,1,3.15-2.07.5.5,0,0,1,.45.06.45.45,0,0,1,.08.36,2.7,2.7,0,0,1-.45,1.26,4.17,4.17,0,0,1,1.88-1,1,1,0,0,1,.63,0c.4.17.47.71.49,1.15l.09,2.72c.52.16,1-.28,1.44-.63,1.3-1.06,3.44-1.42,4.57-.18a3.23,3.23,0,0,1-.05,3.87,2.93,2.93,0,0,1,2.14-.09,2,2,0,0,1-.45,1.29c.38.24.83.35,1.23.56a1.27,1.27,0,0,1,.79,1c0,1.07-1.85,1.39-1.85,2.46a1.17,1.17,0,0,0,.84,1,6.24,6.24,0,0,0,1.37.24,2.46,2.46,0,0,1,1.92,1.1c.35.67,0,1.72-.79,1.77a1.88,1.88,0,0,1,2,1.85,2.57,2.57,0,0,1-1.72,2.3,2.87,2.87,0,0,1,1.45,2.27,2.29,2.29,0,0,1-1.4,2.22,5.42,5.42,0,0,1-2,.21,20.32,20.32,0,0,1-2.42.18c.48.42,1.19,1.51.47,2.07a1.69,1.69,0,0,1-1.17.23,10.73,10.73,0,0,1-1.87-.31q1.13.72,2.22,1.47c.21.14.43.42.27.61a.48.48,0,0,1-.37.1,9.51,9.51,0,0,1-3.29-.8,17.3,17.3,0,0,0-2.42-1.07,7.08,7.08,0,0,0-2.43-.12c-3.32.28-6.36,2.14-9.34,3.48-3.66,1.64-7.6,2.78-10.84,5.15l-1.07-1s1.94-3.11,2.12-3.49a41.89,41.89,0,0,0,1.78-4.41A29.06,29.06,0,0,0,277.83,167Z"/><path class="cls-9" d="M277.83,167c0-3.41-.26-6.87-.32-10.17a.45.45,0,0,1,.12-.39.42.42,0,0,1,.33,0,1.66,1.66,0,0,1,.92.59,6.41,6.41,0,0,1-.33-3.79c.33-.15.63.28.76.62.45,1.26.91,2.51,1.36,3.76a7,7,0,0,1,2.37-5.07c.35-.3.91-.56,1.24-.24a1,1,0,0,1,.21.65,28.58,28.58,0,0,1-.34,5.69,19.43,19.43,0,0,1,2.69-4.42c.42-.52,1.13-1.06,1.68-.68a6,6,0,0,1-.15,3.09,10.86,10.86,0,0,1,2.71-1.9A32.73,32.73,0,0,1,290,159.4a13.94,13.94,0,0,1,4.18-3.28c1-.45,2.38-.57,3.1.28a2.15,2.15,0,0,1,.37,1.86,5.67,5.67,0,0,1-.85,1.77,31.62,31.62,0,0,1-3,3.92,10.89,10.89,0,0,0,2.8-1.13,3.54,3.54,0,0,1,2.92-.26,4.3,4.3,0,0,1-1.69,2.4,9.34,9.34,0,0,1,3.28-.38c.29.61-.23,1.28-.72,1.76l-2.1,2c1.46-.57,3.24-1.1,4.49-.15-.24,1-1.23,1.62-2.13,2.13,1.14-.22,2.43-.4,3.33.32a.69.69,0,0,1,.3.5.7.7,0,0,1-.39.5,5.4,5.4,0,0,1-2.18.88,2.76,2.76,0,0,1,2.77.61l-.72.33a1,1,0,0,1,.55.52l-1.67.32c.32.55,1,1.44.31,2a1.69,1.69,0,0,1-1.17.23,10.73,10.73,0,0,1-1.87-.31q1.13.72,2.22,1.47c.21.14.43.42.27.61a.48.48,0,0,1-.37.1,9.51,9.51,0,0,1-3.29-.8,17.3,17.3,0,0,0-2.42-1.07,7.08,7.08,0,0,0-2.43-.12c-3.32.28-6.36,2.14-9.34,3.48-3.66,1.64-7.6,2.78-10.84,5.15l-1.07-1s1.94-3.11,2.12-3.49a41.89,41.89,0,0,0,1.78-4.41A29.06,29.06,0,0,0,277.83,167Z"/><path class="cls-10" d="M277.83,167c0-2.23-.3-4.44-.21-6.67a25.14,25.14,0,0,1,1.89,6.41c.61-1.46,1.22-2.93,2-4.33.11-.21.26-.44.49-.48s.56.26.68.56c.62,1.52,0,3.22-.59,4.75a17.7,17.7,0,0,1,2.74-2.93c.54-.46,1.36-.9,1.9-.44a1.42,1.42,0,0,1,.4,1c.18,2.66-1.46,5.06-3,7.22,2.26-.44,4.07-2.52,6.37-2.46a18.7,18.7,0,0,1-2.72,3,23.9,23.9,0,0,1,5.84-1.1c.13.36-.25.69-.59.88l-3.81,2.18c2.34-.58,4.78-1.16,7.13-.62l-4.12,1.72c1.05-.43,3.51-.25,4.31.64-2.14.1-4.18,0-6.2.92s-3.81,1.82-5.73,2.68c-3.66,1.64-7.6,2.78-10.84,5.15l-1.07-1s1.94-3.11,2.12-3.49a41.89,41.89,0,0,0,1.78-4.41A29.06,29.06,0,0,0,277.83,167Z"/><g class="cls-11"><path class="cls-12" d="M274.86,181.48c6.56-7.95,13.92-16.55,20.76-24.25a192.7,192.7,0,0,1-20.76,24.25Z"/></g><g class="cls-11"><path class="cls-12" d="M276.22,179.21c4-7.29,8.66-15.13,13.18-22.09a146.26,146.26,0,0,1-13.18,22.09Z"/></g><g class="cls-11"><path class="cls-12" d="M276.78,177.09a165.08,165.08,0,0,1,10-20.71,162.35,162.35,0,0,1-10,20.71Z"/></g><g class="cls-11"><path class="cls-12" d="M277,174.81c1.69-5.81,3.33-12.17,4.67-18.08A46.55,46.55,0,0,1,277,174.81Z"/></g><g class="cls-11"><path class="cls-12" d="M278.83,166.69a34.74,34.74,0,0,1,.09-9.11,20.45,20.45,0,0,1-.09,9.11Z"/></g><g class="cls-11"><path class="cls-12" d="M276.44,181.06c5.14-5.72,9.85-11.83,16.69-15.65-2.93,2.44-5.8,4.94-8.48,7.65s-5.12,5.72-8.21,8Z"/></g><g class="cls-11"><path class="cls-12" d="M277.74,181A60.55,60.55,0,0,1,298,166.51,155.33,155.33,0,0,0,277.74,181Z"/></g><g class="cls-11"><path class="cls-12" d="M275.78,182.41a59.93,59.93,0,0,1,22.74-11.84,139.85,139.85,0,0,0-22.74,11.84Z"/></g><g class="cls-11"><path class="cls-12" d="M278.7,181.55A39.66,39.66,0,0,1,300,173.94a77.09,77.09,0,0,0-21.28,7.61Z"/></g><path class="cls-13" d="M277.06,184a42.26,42.26,0,0,1-4,2.63c-1.08.67-2.28,2-3.52,2.17-.36.06-.78.22-.82.58,0,.12,0,.26-.07.35s-.3,0-.43-.06a2.1,2.1,0,0,1-.53-2.6c.55-1,1.77-1.55,2.48-2.41a28.11,28.11,0,0,0,2.54-3.1,15.63,15.63,0,0,0,2.52-9.52c-.07-.66-.11-1.48.45-1.82a3.85,3.85,0,0,1,1.28,1.83,1.94,1.94,0,0,1,.06-1.6,2.62,2.62,0,0,1,.88,2.69,2.25,2.25,0,0,1,.38-1.49,4.21,4.21,0,0,1,0,3.46,30.23,30.23,0,0,1-2.12,5c1.77-2.43,3.64-5,6.33-6.29a1.52,1.52,0,0,1-.74,1.53,4.06,4.06,0,0,1,2.92-.89,1.88,1.88,0,0,1-1.2,1.21,3.75,3.75,0,0,1,2.2-.16.62.62,0,0,1,.46.29c.11.28-.18.54-.43.7L278.63,181c2.4-.54,4.48-2.39,6.94-2.36.27,0,.62.14.57.4s-.21.24-.36.29l-1.68.63a2.53,2.53,0,0,1,1.21.28c.17.09.35.26.29.44s-.28.23-.47.24A14.83,14.83,0,0,0,277.06,184Z"/><path class="cls-2" d="M247.08,88.64a6.79,6.79,0,0,1-7.52.49,9.82,9.82,0,0,0,7.52-.49Z"/><path class="cls-2" d="M240.81,93.24c3-1.73,5.24-5.33,3.61-8.73,2.26,3.19-.28,7.57-3.61,8.73Z"/><path class="cls-2" d="M238.25,144.58a6.79,6.79,0,0,1-7.52.49,9.82,9.82,0,0,0,7.52-.49Z"/><path class="cls-2" d="M232,149.18c3-1.73,5.24-5.33,3.61-8.73,2.26,3.19-.28,7.57-3.61,8.73Z"/><path class="cls-2" d="M281.57,103.34a6.77,6.77,0,0,1,.7-7.5,9.84,9.84,0,0,0-.7,7.5Z"/><path class="cls-2" d="M278,96.43c1.23,3.24,4.43,6,8,4.95-3.5,1.72-7.42-1.48-8-4.95Z"/><path class="cls-2" d="M230.88,91.29a6.77,6.77,0,0,1,.7-7.5,9.84,9.84,0,0,0-.7,7.5Z"/><path class="cls-2" d="M227.33,84.37c1.23,3.24,4.43,6,8,4.95-3.5,1.72-7.42-1.48-8-4.95Z"/><path class="cls-2" d="M206.18,151.23a6.77,6.77,0,0,1,.7-7.5,9.79,9.79,0,0,0-.7,7.5Z"/><path class="cls-2" d="M202.63,144.32c1.23,3.24,4.43,6,8,5-3.5,1.72-7.42-1.48-8-5Z"/><path class="cls-2" d="M208.67,202.14a6.77,6.77,0,0,1,.7-7.5,9.8,9.8,0,0,0-.7,7.5Z"/><path class="cls-2" d="M205.12,195.23c1.23,3.24,4.43,6,8,5-3.5,1.72-7.43-1.48-8-5Z"/><path class="cls-2" d="M265.65,67a12.66,12.66,0,0,0,6.92,6,9,9,0,0,1-6.92-6Z"/><path class="cls-2" d="M267,73a16,16,0,0,0,4.31-8A10.3,10.3,0,0,1,267,73Z"/><path class="cls-2" d="M268.58,65.66c.16,1.3.37,3.11.61,4.37.24,1.45.56,2.88.91,4.32l-.08,0c.8-.22.81-.17,0,.13a19,19,0,0,1-1.48-8.77Z"/><path class="cls-2" d="M264.77,70.72a47.85,47.85,0,0,1,8.69-1,47.85,47.85,0,0,1-8.69,1Z"/><path class="cls-2" d="M257.77,95.07a12.75,12.75,0,0,0,6.91,6,9,9,0,0,1-6.91-6Z"/><path class="cls-2" d="M259.1,101a15.93,15.93,0,0,0,4.31-8,10.27,10.27,0,0,1-4.31,8Z"/><path class="cls-2" d="M260.7,93.73c.16,1.3.37,3.1.6,4.37.25,1.45.57,2.88.92,4.31l-.08,0c.8-.22.81-.18,0,.12a18.89,18.89,0,0,1-1.48-8.76Z"/><path class="cls-2" d="M256.89,98.78a47.84,47.84,0,0,1,8.69-1,47.17,47.17,0,0,1-8.69,1Z"/><path class="cls-2" d="M244.47,205.38a12.73,12.73,0,0,0,6.91,6,9,9,0,0,1-6.91-6Z"/><path class="cls-2" d="M245.8,211.36a16,16,0,0,0,4.31-8,10.28,10.28,0,0,1-4.31,8Z"/><path class="cls-2" d="M247.4,204c.16,1.3.37,3.11.6,4.38.25,1.44.57,2.88.92,4.31l-.08,0c.8-.22.81-.18,0,.12A18.91,18.91,0,0,1,247.4,204Z"/><path class="cls-2" d="M243.59,209.1a48.75,48.75,0,0,1,8.69-1,47.85,47.85,0,0,1-8.69,1Z"/><path class="cls-2" d="M292.74,222.79a12.6,12.6,0,0,0,6.91,6,9,9,0,0,1-6.91-6Z"/><path class="cls-2" d="M294.06,228.77a15.85,15.85,0,0,0,4.31-8,10.3,10.3,0,0,1-4.31,8Z"/><path class="cls-2" d="M295.67,221.45c.16,1.3.36,3.11.6,4.38.24,1.44.56,2.87.91,4.31l-.08,0c.8-.22.82-.17,0,.13a18.82,18.82,0,0,1-1.47-8.77Z"/><path class="cls-2" d="M291.85,226.51a48.06,48.06,0,0,1,8.69-1,47.85,47.85,0,0,1-8.69,1Z"/><path class="cls-2" d="M194.51,219a12.7,12.7,0,0,0,6.91,6,9,9,0,0,1-6.91-6Z"/><path class="cls-2" d="M195.83,224.93a15.81,15.81,0,0,0,4.31-8,10.23,10.23,0,0,1-4.31,8Z"/><path class="cls-2" d="M197.44,217.61c.16,1.3.36,3.11.6,4.38.24,1.44.56,2.87.92,4.31l-.09,0c.8-.23.82-.18,0,.12a18.8,18.8,0,0,1-1.47-8.77Z"/><path class="cls-2" d="M193.62,222.67a48.06,48.06,0,0,1,8.69-1,47.85,47.85,0,0,1-8.69,1Z"/><path class="cls-2" d="M242.5,248a12.74,12.74,0,0,0,6.92,6,9,9,0,0,1-6.92-6Z"/><path class="cls-2" d="M243.83,254a15.77,15.77,0,0,0,4.31-8,10.28,10.28,0,0,1-4.31,8Z"/><path class="cls-2" d="M245.44,246.66c.16,1.3.36,3.11.6,4.38.24,1.45.56,2.88.91,4.31l-.08,0c.8-.22.82-.18,0,.12a18.78,18.78,0,0,1-1.47-8.77Z"/><path class="cls-2" d="M241.62,251.72a48,48,0,0,1,8.69-1,48.74,48.74,0,0,1-8.69,1Z"/><path class="cls-2" d="M199,252.69a12.68,12.68,0,0,0,6.91,6,9,9,0,0,1-6.91-6Z"/><path class="cls-2" d="M200.34,258.67a15.85,15.85,0,0,0,4.31-8,10.24,10.24,0,0,1-4.31,8Z"/><path class="cls-2" d="M202,251.35c.16,1.3.36,3.11.6,4.37.24,1.45.56,2.88.92,4.31l-.09,0c.8-.22.82-.18,0,.13a18.82,18.82,0,0,1-1.47-8.77Z"/><path class="cls-2" d="M198.13,256.41a48.06,48.06,0,0,1,8.69-1,47.85,47.85,0,0,1-8.69,1Z"/><path class="cls-2" d="M244.16,136.35a12.72,12.72,0,0,0,6.92,6,9.06,9.06,0,0,1-6.92-6Z"/><path class="cls-2" d="M245.49,142.33a15.81,15.81,0,0,0,4.31-8,10.28,10.28,0,0,1-4.31,8Z"/><path class="cls-2" d="M247.1,135c.16,1.3.36,3.11.6,4.38.24,1.44.56,2.87.91,4.31l-.08,0c.8-.23.82-.18,0,.12A18.78,18.78,0,0,1,247.1,135Z"/><path class="cls-2" d="M243.28,140.07a48.06,48.06,0,0,1,8.69-1,47.85,47.85,0,0,1-8.69,1Z"/><path class="cls-2" d="M226.79,96.91a12.67,12.67,0,0,0,6.91,6,9,9,0,0,1-6.91-6Z"/><path class="cls-2" d="M228.11,102.89a15.85,15.85,0,0,0,4.31-8,10.24,10.24,0,0,1-4.31,8Z"/><path class="cls-2" d="M229.72,95.57c.16,1.3.37,3.11.6,4.37.25,1.45.57,2.88.92,4.31l-.09,0c.81-.22.82-.18,0,.13a19,19,0,0,1-1.48-8.77Z"/><path class="cls-2" d="M225.91,100.63a47.85,47.85,0,0,1,8.69-1,48.06,48.06,0,0,1-8.69,1Z"/><path class="cls-2" d="M189.61,122.42a12.74,12.74,0,0,0,6.92,6,9,9,0,0,1-6.92-6Z"/><path class="cls-2" d="M190.94,128.39a15.88,15.88,0,0,0,4.31-8,10.28,10.28,0,0,1-4.31,8Z"/><path class="cls-2" d="M192.54,121.07c.16,1.3.37,3.11.61,4.38.24,1.44.56,2.88.91,4.31l-.08,0c.8-.22.82-.18,0,.12a18.91,18.91,0,0,1-1.48-8.77Z"/><path class="cls-2" d="M188.73,126.13a48.86,48.86,0,0,1,8.69-1,47.85,47.85,0,0,1-8.69,1Z"/><path class="cls-2" d="M262.22,132.16a12.68,12.68,0,0,0,6.91,6,9,9,0,0,1-6.91-6Z"/><path class="cls-2" d="M263.54,138.13a15.78,15.78,0,0,0,4.31-8,10.21,10.21,0,0,1-4.31,8Z"/><path class="cls-2" d="M265.15,130.82c.16,1.3.36,3.1.6,4.37.25,1.45.56,2.88.92,4.31l-.09,0c.81-.22.82-.18,0,.13a18.82,18.82,0,0,1-1.47-8.77Z"/><path class="cls-2" d="M261.33,135.87a48,48,0,0,1,8.69-1,47,47,0,0,1-8.69,1Z"/><path class="cls-2" d="M235.81,187.65a12.67,12.67,0,0,0,6.91,6,9,9,0,0,1-6.91-6Z"/><path class="cls-2" d="M237.14,193.63a16,16,0,0,0,4.31-8,10.3,10.3,0,0,1-4.31,8Z"/><path class="cls-2" d="M238.74,186.31c.16,1.3.37,3.11.6,4.37.25,1.45.57,2.88.92,4.31l-.08,0c.8-.22.81-.18,0,.13a19,19,0,0,1-1.48-8.77Z"/><path class="cls-2" d="M234.93,191.37a47.85,47.85,0,0,1,8.69-1,48.06,48.06,0,0,1-8.69,1Z"/><path class="cls-2" d="M287.55,210.53a12.73,12.73,0,0,0,6.91,6,9,9,0,0,1-6.91-6Z"/><path class="cls-2" d="M288.88,216.51a16,16,0,0,0,4.31-8,10.28,10.28,0,0,1-4.31,8Z"/><path class="cls-2" d="M290.48,209.19c.16,1.3.37,3.11.6,4.38.25,1.44.57,2.88.92,4.31l-.08,0c.8-.22.81-.18,0,.12a18.91,18.91,0,0,1-1.48-8.77Z"/><path class="cls-2" d="M286.67,214.25a48.75,48.75,0,0,1,8.69-1,48.06,48.06,0,0,1-8.69,1Z"/><path class="cls-2" d="M274.17,233.43a12.75,12.75,0,0,0,6.91,6,9,9,0,0,1-6.91-6Z"/><path class="cls-2" d="M275.5,239.4a15.93,15.93,0,0,0,4.31-8,10.27,10.27,0,0,1-4.31,8Z"/><path class="cls-2" d="M277.1,232.09c.16,1.3.37,3.1.6,4.37.25,1.45.57,2.88.92,4.31l-.08,0c.8-.22.81-.18,0,.12a18.89,18.89,0,0,1-1.48-8.76Z"/><path class="cls-2" d="M273.29,237.14a47.84,47.84,0,0,1,8.69-1,47.17,47.17,0,0,1-8.69,1Z"/><path class="cls-2" d="M303.17,237.38a12.71,12.71,0,0,0,6.91,6,9,9,0,0,1-6.91-6Z"/><path class="cls-2" d="M304.5,243.35a15.93,15.93,0,0,0,4.31-8,10.27,10.27,0,0,1-4.31,8Z"/><path class="cls-2" d="M306.1,236c.16,1.3.37,3.1.6,4.37.25,1.45.57,2.88.92,4.31l-.08,0c.8-.22.81-.18,0,.13A19,19,0,0,1,306.1,236Z"/><path class="cls-2" d="M302.29,241.1a47,47,0,0,1,8.69-1,48.06,48.06,0,0,1-8.69,1Z"/><path class="cls-2" d="M202.48,176a12.75,12.75,0,0,0,6.91,6,9,9,0,0,1-6.91-6Z"/><path class="cls-2" d="M203.81,182a15.87,15.87,0,0,0,4.3-8,10.25,10.25,0,0,1-4.3,8Z"/><path class="cls-2" d="M205.41,174.69c.16,1.3.37,3.11.6,4.38.25,1.44.57,2.88.92,4.31l-.09,0c.81-.22.82-.18,0,.12a18.91,18.91,0,0,1-1.48-8.77Z"/><path class="cls-2" d="M201.6,179.75a48.75,48.75,0,0,1,8.69-1,48.06,48.06,0,0,1-8.69,1Z"/><path class="cls-2" d="M239.13,226.74a12.74,12.74,0,0,0,6.92,6,9,9,0,0,1-6.92-6Z"/><path class="cls-2" d="M240.46,232.71a15.85,15.85,0,0,0,4.31-8,10.27,10.27,0,0,1-4.31,8Z"/><path class="cls-2" d="M242.06,225.4c.16,1.29.37,3.1.61,4.37.24,1.45.56,2.88.91,4.31l-.08,0c.8-.22.81-.18,0,.12a18.89,18.89,0,0,1-1.48-8.76Z"/><path class="cls-2" d="M238.25,230.45a47.84,47.84,0,0,1,8.69-1,47,47,0,0,1-8.69,1Z"/><path class="cls-2" d="M178.51,226.58a12.75,12.75,0,0,0,6.91,6,9,9,0,0,1-6.91-6Z"/><path class="cls-2" d="M179.84,232.55a15.87,15.87,0,0,0,4.3-8,10.25,10.25,0,0,1-4.3,8Z"/><path class="cls-2" d="M181.44,225.23c.16,1.3.37,3.11.6,4.38.25,1.45.57,2.88.92,4.31l-.09,0c.81-.22.82-.18,0,.12a18.91,18.91,0,0,1-1.48-8.77Z"/><path class="cls-2" d="M177.63,230.29a47.84,47.84,0,0,1,8.69-1,49,49,0,0,1-8.69,1Z"/><path class="cls-2" d="M319.3,183.83a12.66,12.66,0,0,0,6.91,6,9,9,0,0,1-6.91-6Z"/><path class="cls-2" d="M320.62,189.81a15.81,15.81,0,0,0,4.31-8,10.28,10.28,0,0,1-4.31,8Z"/><path class="cls-2" d="M322.23,182.49c.16,1.3.36,3.11.6,4.38.24,1.44.56,2.87.91,4.31l-.08,0c.8-.23.82-.18,0,.12a18.8,18.8,0,0,1-1.47-8.77Z"/><path class="cls-2" d="M318.41,187.55a48.06,48.06,0,0,1,8.69-1,47.85,47.85,0,0,1-8.69,1Z"/><path class="cls-2" d="M213.1,250.08a12.75,12.75,0,0,0,6.91,6,9,9,0,0,1-6.91-6Z"/><path class="cls-2" d="M214.43,256.05a15.92,15.92,0,0,0,4.31-8,10.28,10.28,0,0,1-4.31,8Z"/><path class="cls-2" d="M216,248.74c.16,1.29.37,3.1.6,4.37.25,1.45.57,2.88.92,4.31l-.09,0c.81-.22.82-.18,0,.12a18.89,18.89,0,0,1-1.48-8.76Z"/><path class="cls-2" d="M212.22,253.79a47.84,47.84,0,0,1,8.69-1,49,49,0,0,1-8.69,1Z"/><path class="cls-2" d="M256,76.51a10.26,10.26,0,0,1-2.29,12.36A12.09,12.09,0,0,0,256,76.51Z"/><path class="cls-2" d="M251,82.62c3.55.57,7.52,1.35,10.56-1.09-2.68,2.92-7.19,2.21-10.56,1.09Z"/><path class="cls-2" d="M253.27,79.83a14.82,14.82,0,0,1,5.28,6.75,39.21,39.21,0,0,0-5.28-6.75Z"/><path class="cls-2" d="M251.18,87c2.31-2.13,6.93-6.43,9.22-8.58A48.42,48.42,0,0,1,251.18,87Z"/><path class="cls-2" d="M162.86,140.27a10.28,10.28,0,0,1-2.3,12.37,12.11,12.11,0,0,0,2.3-12.37Z"/><path class="cls-2" d="M157.82,146.38c3.54.57,7.52,1.36,10.56-1.08-2.68,2.91-7.2,2.21-10.56,1.08Z"/><path class="cls-2" d="M160.13,143.59a14.82,14.82,0,0,1,5.27,6.76,39.22,39.22,0,0,0-5.27-6.76Z"/><path class="cls-2" d="M158,150.77c2.31-2.13,6.94-6.44,9.22-8.59a48.48,48.48,0,0,1-9.22,8.59Z"/><path class="cls-2" d="M229.81,203.21a10.29,10.29,0,0,1-2.29,12.37,12.11,12.11,0,0,0,2.29-12.37Z"/><path class="cls-2" d="M224.77,209.32c3.54.57,7.52,1.36,10.56-1.08-2.68,2.91-7.2,2.21-10.56,1.08Z"/><path class="cls-2" d="M227.08,206.53a14.82,14.82,0,0,1,5.27,6.76,39.22,39.22,0,0,0-5.27-6.76Z"/><path class="cls-2" d="M225,213.71c2.3-2.13,6.93-6.44,9.22-8.59a48.78,48.78,0,0,1-9.22,8.59Z"/><path class="cls-2" d="M196.09,158.51a10.29,10.29,0,0,1-2.29,12.37,12.11,12.11,0,0,0,2.29-12.37Z"/><path class="cls-2" d="M191.05,164.62c3.54.57,7.52,1.36,10.56-1.08-2.68,2.91-7.2,2.21-10.56,1.08Z"/><path class="cls-2" d="M193.36,161.83a14.88,14.88,0,0,1,5.28,6.75,39.6,39.6,0,0,0-5.28-6.75Z"/><path class="cls-2" d="M191.27,169c2.3-2.14,6.93-6.44,9.22-8.59a49.1,49.1,0,0,1-9.22,8.59Z"/><path class="cls-2" d="M260.5,253.45a10.29,10.29,0,0,1-2.3,12.37,12.13,12.13,0,0,0,2.3-12.37Z"/><path class="cls-2" d="M255.45,259.56c3.55.57,7.52,1.36,10.56-1.08-2.67,2.92-7.19,2.21-10.56,1.08Z"/><path class="cls-2" d="M257.76,256.77a14.84,14.84,0,0,1,5.28,6.76,39.67,39.67,0,0,0-5.28-6.76Z"/><path class="cls-2" d="M255.67,264c2.31-2.13,6.93-6.44,9.22-8.59a48.48,48.48,0,0,1-9.22,8.59Z"/><path class="cls-2" d="M213.86,83.87a10.28,10.28,0,0,1-2.3,12.37,12.11,12.11,0,0,0,2.3-12.37Z"/><path class="cls-2" d="M208.82,90c3.54.57,7.52,1.36,10.56-1.08-2.68,2.91-7.2,2.21-10.56,1.08Z"/><path class="cls-2" d="M211.13,87.19A14.82,14.82,0,0,1,216.4,94a39.22,39.22,0,0,0-5.27-6.76Z"/><path class="cls-2" d="M209,94.37c2.31-2.13,6.94-6.44,9.22-8.59A48.48,48.48,0,0,1,209,94.37Z"/><path class="cls-2" d="M266,145.26a10.29,10.29,0,0,1-2.29,12.37A12.11,12.11,0,0,0,266,145.26Z"/><path class="cls-2" d="M260.93,151.37c3.54.57,7.52,1.36,10.56-1.08-2.68,2.92-7.2,2.21-10.56,1.08Z"/><path class="cls-2" d="M263.24,148.58a14.91,14.91,0,0,1,5.28,6.76,39.67,39.67,0,0,0-5.28-6.76Z"/><path class="cls-2" d="M261.15,155.76c2.3-2.13,6.93-6.44,9.22-8.59a48.78,48.78,0,0,1-9.22,8.59Z"/><path class="cls-2" d="M268.7,103.05a10.29,10.29,0,0,1-2.29,12.37,12.11,12.11,0,0,0,2.29-12.37Z"/><path class="cls-2" d="M263.66,109.16c3.54.57,7.52,1.36,10.56-1.08-2.68,2.92-7.2,2.21-10.56,1.08Z"/><path class="cls-2" d="M266,106.37a14.82,14.82,0,0,1,5.27,6.76,39.61,39.61,0,0,0-5.27-6.76Z"/><path class="cls-2" d="M263.88,113.55c2.3-2.13,6.93-6.44,9.22-8.59a48.78,48.78,0,0,1-9.22,8.59Z"/><path class="cls-2" d="M227.24,169.91a12.06,12.06,0,0,1-2.67,14.36,13.87,13.87,0,0,0,2.67-14.36Z"/><path class="cls-2" d="M221.38,177c4.1.7,8.77,1.61,12.27-1.26-3.14,3.35-8.35,2.52-12.27,1.26Z"/><path class="cls-2" d="M224.07,173.77a18,18,0,0,1,6.12,7.84,40.75,40.75,0,0,0-6.12-7.84Z"/><path class="cls-2" d="M221.63,182.1c3.62-3.29,7.18-6.6,10.71-10a59.92,59.92,0,0,1-10.71,10Z"/><path class="cls-2" d="M348,191.46a12,12,0,0,1-4-14.06,13.88,13.88,0,0,0,4,14.06Z"/><path class="cls-2" d="M350.13,182.51c-4,1.18-8.57,2.43-10.44,6.55,1.33-4.39,6.37-5.95,10.44-6.55Z"/><path class="cls-2" d="M349.16,186.6a17.93,17.93,0,0,1-9-4.33,40.48,40.48,0,0,0,9,4.33Z"/><path class="cls-2" d="M347.66,178.05c-1.8,4.55-3.52,9.09-5.2,13.68a60.38,60.38,0,0,1,5.2-13.68Z"/><path class="cls-2" d="M207.77,271a12.06,12.06,0,0,1,13.28,6.1,13.88,13.88,0,0,0-13.28-6.1Z"/><path class="cls-2" d="M213.22,278.38c1.69-3.81,3.71-8.11,1.78-12.21,2.48,3.87.41,8.71-1.78,12.21Z"/><path class="cls-2" d="M210.73,275a18.05,18.05,0,0,1,9.11-4,41.15,41.15,0,0,0-9.11,4Z"/><path class="cls-2" d="M218.22,279.38c-2.3-4.32-4.64-8.57-7.05-12.83a60.46,60.46,0,0,1,7.05,12.83Z"/><path class="cls-2" d="M302,185.65A12.06,12.06,0,0,1,299.29,200,13.89,13.89,0,0,0,302,185.65Z"/><path class="cls-2" d="M296.1,192.74c4.1.71,8.77,1.62,12.27-1.26-3.14,3.35-8.35,2.53-12.27,1.26Z"/><path class="cls-2" d="M298.78,189.5a18,18,0,0,1,6.13,7.85,40.87,40.87,0,0,0-6.13-7.85Z"/><path class="cls-2" d="M296.35,197.84c3.62-3.29,7.17-6.6,10.71-10a60.34,60.34,0,0,1-10.71,10Z"/><path class="cls-2" d="M174.49,185.11a8.53,8.53,0,0,1,9.68,4.24,10.36,10.36,0,0,0-9.68-4.24Z"/><path class="cls-2" d="M178.53,190.4c1.1-2.81,2.5-5.87,1.13-8.84,1.92,2.73.47,6.33-1.13,8.84Z"/><path class="cls-2" d="M176.69,188a11.81,11.81,0,0,1,6.53-3,40.3,40.3,0,0,0-6.53,3Z"/><path class="cls-2" d="M182.16,191.06c-1.79-3.06-3.53-6.09-5.27-9.18a37.41,37.41,0,0,1,5.27,9.18Z"/><path class="cls-2" d="M326.27,173.07a8.52,8.52,0,0,1,9.68,4.24,10.37,10.37,0,0,0-9.68-4.24Z"/><path class="cls-2" d="M330.31,178.36c1.1-2.81,2.49-5.87,1.12-8.84,1.92,2.73.48,6.33-1.12,8.84Z"/><path class="cls-2" d="M328.46,175.94a11.81,11.81,0,0,1,6.53-3,39.47,39.47,0,0,0-6.53,3Z"/><path class="cls-2" d="M333.93,179c-1.78-3.06-3.53-6.09-5.26-9.18a37.06,37.06,0,0,1,5.26,9.18Z"/><path class="cls-2" d="M220.27,220.12a12.07,12.07,0,0,1-2.67,14.37,13.91,13.91,0,0,0,2.67-14.37Z"/><path class="cls-2" d="M214.41,227.22c4.1.71,8.76,1.62,12.27-1.26-3.14,3.35-8.35,2.52-12.27,1.26Z"/><path class="cls-2" d="M217.09,224a18,18,0,0,1,6.13,7.85,40.87,40.87,0,0,0-6.13-7.85Z"/><path class="cls-2" d="M214.66,232.32c3.62-3.29,7.17-6.6,10.71-10a60.69,60.69,0,0,1-10.71,10Z"/><path class="cls-2" d="M238.45,262.37a12,12,0,0,1-2.66,14.36,13.89,13.89,0,0,0,2.66-14.36Z"/><path class="cls-2" d="M232.6,269.47c4.1.71,8.76,1.61,12.26-1.26-3.14,3.35-8.34,2.52-12.26,1.26Z"/><path class="cls-2" d="M235.28,266.23a18,18,0,0,1,6.13,7.84,40.8,40.8,0,0,0-6.13-7.84Z"/><path class="cls-2" d="M232.85,274.56c3.62-3.28,7.17-6.59,10.71-10a60.61,60.61,0,0,1-10.71,10Z"/><path class="cls-2" d="M251.06,153.44a10.27,10.27,0,0,1-2.29,12.36,12.09,12.09,0,0,0,2.29-12.36Z"/><path class="cls-2" d="M246,159.55c3.54.57,7.52,1.35,10.56-1.09-2.68,2.92-7.2,2.21-10.56,1.09Z"/><path class="cls-2" d="M248.33,156.76a14.88,14.88,0,0,1,5.28,6.75,39.21,39.21,0,0,0-5.28-6.75Z"/><path class="cls-2" d="M246.24,163.93c2.3-2.13,6.93-6.43,9.22-8.58a48.72,48.72,0,0,1-9.22,8.58Z"/><path class="cls-2" d="M273.89,89.29a8.4,8.4,0,0,1-5.23-8.05,10.87,10.87,0,0,0,5.23,8.05Z"/><path class="cls-2" d="M268.92,90.72a21.58,21.58,0,0,0,4.77-10.37,14.59,14.59,0,0,1-4.77,10.37Z"/><path class="cls-2" d="M267,86.4a18.46,18.46,0,0,0,10.89.1A12.81,12.81,0,0,1,267,86.4Z"/><path class="cls-2" d="M189.13,146.69a8.38,8.38,0,0,1-5.23-8,10.85,10.85,0,0,0,5.23,8Z"/><path class="cls-2" d="M184.16,148.12a21.59,21.59,0,0,0,4.77-10.36,14.55,14.55,0,0,1-4.77,10.36Z"/><path class="cls-2" d="M182.23,143.81a18.54,18.54,0,0,0,10.89.09,12.84,12.84,0,0,1-10.89-.09Z"/><path class="cls-2" d="M227.71,122a8.4,8.4,0,0,1-1.62,9.46,10.86,10.86,0,0,0,1.62-9.46Z"/><path class="cls-2" d="M232.33,124.31a21.53,21.53,0,0,0-10.54,4.38,14.6,14.6,0,0,1,10.54-4.38Z"/><path class="cls-2" d="M230.82,128.79a18.54,18.54,0,0,0-7.93-7.46,12.85,12.85,0,0,1,7.93,7.46Z"/><path class="cls-2" d="M245.25,124.91a8.38,8.38,0,0,1-5.23-8,10.83,10.83,0,0,0,5.23,8Z"/><path class="cls-2" d="M240.28,126.34A21.54,21.54,0,0,0,245.05,116a14.55,14.55,0,0,1-4.77,10.36Z"/><path class="cls-2" d="M238.35,122a18.62,18.62,0,0,0,10.89.1,12.88,12.88,0,0,1-10.89-.1Z"/><path class="cls-2" d="M220,198.32a8.38,8.38,0,0,1-5.23-8,10.83,10.83,0,0,0,5.23,8Z"/><path class="cls-2" d="M215.05,199.75a21.54,21.54,0,0,0,4.77-10.36,14.55,14.55,0,0,1-4.77,10.36Z"/><path class="cls-2" d="M213.12,195.44a18.62,18.62,0,0,0,10.89.1,12.88,12.88,0,0,1-10.89-.1Z"/><path class="cls-2" d="M309.53,209.27a8.4,8.4,0,0,1-5.22-8,10.87,10.87,0,0,0,5.22,8Z"/><path class="cls-2" d="M304.56,210.7a21.69,21.69,0,0,0,4.78-10.37,14.56,14.56,0,0,1-4.78,10.37Z"/><path class="cls-2" d="M302.63,206.39a18.54,18.54,0,0,0,10.89.09,12.84,12.84,0,0,1-10.89-.09Z"/><path class="cls-2" d="M259.36,233.7a8.38,8.38,0,0,1-5.23-8,10.83,10.83,0,0,0,5.23,8Z"/><path class="cls-2" d="M254.39,235.14a21.62,21.62,0,0,0,4.77-10.37,14.55,14.55,0,0,1-4.77,10.37Z"/><path class="cls-2" d="M252.46,230.82a18.62,18.62,0,0,0,10.89.1,12.88,12.88,0,0,1-10.89-.1Z"/><path class="cls-2" d="M286.5,128.65a11.49,11.49,0,0,1-7-10.73,13.92,13.92,0,0,0,7,10.73Z"/><path class="cls-2" d="M279.86,130.56a27.07,27.07,0,0,0,6.37-13.83,20.19,20.19,0,0,1-6.37,13.83Z"/><path class="cls-2" d="M277.28,124.8a23.39,23.39,0,0,0,14.54.13,17.8,17.8,0,0,1-14.54-.13Z"/><path class="cls-2" d="M231.93,251.28a11.5,11.5,0,0,1-7-10.73,13.93,13.93,0,0,0,7,10.73Z"/><path class="cls-2" d="M225.3,253.19a27.07,27.07,0,0,0,6.37-13.83,20.24,20.24,0,0,1-6.37,13.83Z"/><path class="cls-2" d="M222.72,247.43a23.39,23.39,0,0,0,14.54.13,17.8,17.8,0,0,1-14.54-.13Z"/><path class="cls-2" d="M332,222.61a11.52,11.52,0,0,1-7-10.73,14,14,0,0,0,7,10.73Z"/><path class="cls-2" d="M325.34,224.52a27.24,27.24,0,0,0,6.37-13.83,20.28,20.28,0,0,1-6.37,13.83Z"/><path class="cls-2" d="M322.76,218.76a23.35,23.35,0,0,0,14.53.13,17.78,17.78,0,0,1-14.53-.13Z"/><path class="cls-2" d="M250.53,106.28a8.42,8.42,0,0,1-5.23-8,10.93,10.93,0,0,0,5.23,8Z"/><path class="cls-2" d="M245.56,107.71a21.69,21.69,0,0,0,4.78-10.37,14.58,14.58,0,0,1-4.78,10.37Z"/><path class="cls-2" d="M243.63,103.4a18.54,18.54,0,0,0,10.89.09,12.84,12.84,0,0,1-10.89-.09Z"/><path class="cls-2" d="M219.71,110a8.39,8.39,0,0,1-5.23-8,10.87,10.87,0,0,0,5.23,8Z"/><path class="cls-2" d="M214.74,111.46a21.58,21.58,0,0,0,4.77-10.37,14.57,14.57,0,0,1-4.77,10.37Z"/><path class="cls-2" d="M212.81,107.15a18.54,18.54,0,0,0,10.89.09,12.84,12.84,0,0,1-10.89-.09Z"/><path class="cls-2" d="M178.45,126.78a8.37,8.37,0,0,1-5.23-8,10.83,10.83,0,0,0,5.23,8Z"/><path class="cls-2" d="M173.48,128.22a21.58,21.58,0,0,0,4.77-10.37,14.59,14.59,0,0,1-4.77,10.37Z"/><path class="cls-2" d="M171.55,123.9a18.54,18.54,0,0,0,10.89.1,12.81,12.81,0,0,1-10.89-.1Z"/><path class="cls-2" d="M182,164a8.38,8.38,0,0,1-5.23-8,10.83,10.83,0,0,0,5.23,8Z"/><path class="cls-2" d="M177,165.45a21.62,21.62,0,0,0,4.77-10.37A14.63,14.63,0,0,1,177,165.45Z"/><path class="cls-2" d="M175.05,161.13a18.62,18.62,0,0,0,10.89.1,12.88,12.88,0,0,1-10.89-.1Z"/><path class="cls-2" d="M280.29,81.08a6.77,6.77,0,0,1,.7-7.5,9.84,9.84,0,0,0-.7,7.5Z"/><path class="cls-2" d="M276.74,74.16c1.23,3.25,4.43,6,8.05,5-3.51,1.71-7.43-1.48-8.05-5Z"/><path class="cls-2" d="M275.41,146a6.79,6.79,0,0,1,6.68-3.49,9.78,9.78,0,0,0-6.68,3.49Z"/><path class="cls-2" d="M279.28,139.24c-2,2.8-2.64,7,.23,9.44-3.35-2-2.81-7-.23-9.44Z"/><path class="cls-2" d="M259.57,170.6a6.79,6.79,0,0,1,6.68-3.5,9.8,9.8,0,0,0-6.68,3.5Z"/><path class="cls-2" d="M263.44,163.85c-2.05,2.8-2.64,7,.23,9.45-3.35-2-2.81-7-.23-9.45Z"/><path class="cls-2" d="M252.07,193.39a10.44,10.44,0,0,1,9.8-5.14,13.38,13.38,0,0,0-9.8,5.14Z"/><path class="cls-2" d="M257.75,183.48c-3.13,4-4,10.43.34,13.87-4.81-3-4-10.21-.34-13.87Z"/><path class="cls-2" d="M179.15,254c1.51-3.17,6.68-3.73,5.79-8,2.16,4.4-3.41,5.72-5.79,8Z"/><path class="cls-2" d="M178.34,246.31a7.79,7.79,0,0,1,4.16,2.13,5.2,5.2,0,0,1,.18,6.09,3.2,3.2,0,0,1-1.27.93c2-1.61,1.76-4.63.49-6.57-.89-1.17-2.31-1.78-3.56-2.58Z"/><path class="cls-2" d="M274.84,209.46a10.45,10.45,0,0,1,6.13-9.22,13.42,13.42,0,0,0-6.13,9.22Z"/><path class="cls-2" d="M275.06,198c-.84,5,1.52,11.06,7,12-5.68-.37-8.42-7-7-12Z"/><path class="cls-2" d="M287.42,90.77a6.76,6.76,0,0,1,6.67-3.49,9.78,9.78,0,0,0-6.67,3.49Z"/><path class="cls-2" d="M291.28,84c-2,2.79-2.63,7,.23,9.44-3.35-2-2.8-7-.23-9.44Z"/><path class="cls-2" d="M168.46,170.86a16.72,16.72,0,0,0-6.11-6.41,10.38,10.38,0,0,1,6.11,6.41Z"/><path class="cls-2" d="M165.52,162.71c1.78,2.53,2.67,8.09-1.43,8.78,3.73-1.25,2.6-6,1.43-8.78Z"/><path class="cls-2" d="M201,202.24a16.58,16.58,0,0,0-8.43-2.72,10.32,10.32,0,0,1,8.43,2.72Z"/><path class="cls-2" d="M194.48,196.47c2.77,1.38,6.2,5.84,2.93,8.4,2.68-2.88-.56-6.5-2.93-8.4Z"/><path class="cls-2" d="M229.43,115.46a6.78,6.78,0,0,1,6.67-3.5,9.75,9.75,0,0,0-6.67,3.5Z"/><path class="cls-2" d="M233.3,108.71c-2.05,2.8-2.64,7,.23,9.45-3.35-2-2.81-7-.23-9.45Z"/><path class="cls-2" d="M260.73,120.58a6.78,6.78,0,0,1-7.52-.34,9.81,9.81,0,0,0,7.52.34Z"/><path class="cls-2" d="M254,124.46c3.18-1.39,5.8-4.72,4.55-8.28,1.89,3.42-1.11,7.49-4.55,8.28Z"/><path class="cls-2" d="M212.36,220.44a6.77,6.77,0,0,1-7.53-.33,9.79,9.79,0,0,0,7.53.33Z"/><path class="cls-2" d="M205.63,224.33c3.17-1.39,5.79-4.72,4.54-8.28,1.89,3.42-1.11,7.49-4.54,8.28Z"/><path class="cls-2" d="M311.44,227.77a6.78,6.78,0,0,1,1.64-7.36,9.81,9.81,0,0,0-1.64,7.36Z"/><path class="cls-2" d="M308.79,220.46c.81,3.37,3.63,6.53,7.36,5.92-3.69,1.27-7.19-2.4-7.36-5.92Z"/><path class="cls-2" d="M196.05,242.06a6.78,6.78,0,0,1,1.64-7.36,9.81,9.81,0,0,0-1.64,7.36Z"/><path class="cls-2" d="M193.4,234.75c.81,3.37,3.63,6.53,7.36,5.92-3.7,1.27-7.19-2.4-7.36-5.92Z"/><path class="cls-2" d="M322.4,202.7a6.77,6.77,0,0,1,7.44-1.14,9.8,9.8,0,0,0-7.44,1.14Z"/><path class="cls-2" d="M328.24,197.58c-2.85,2-4.76,5.76-2.84,9-2.52-3-.38-7.56,2.84-9Z"/><path class="cls-2" d="M318.29,172.25a6.79,6.79,0,0,1-7.53-.33,9.83,9.83,0,0,0,7.53.33Z"/><path class="cls-2" d="M311.55,176.13c3.18-1.38,5.8-4.71,4.55-8.27,1.89,3.41-1.11,7.49-4.55,8.27Z"/><path class="cls-2" d="M262.48,215a6.77,6.77,0,0,1,2.81-7,9.78,9.78,0,0,0-2.81,7Z"/><path class="cls-2" d="M261.05,207.39c.25,3.46,2.52,7,6.3,7-3.85.65-6.7-3.53-6.3-7Z"/><path class="cls-2" d="M340,206.74a6.8,6.8,0,0,1,2.82-7,9.84,9.84,0,0,0-2.82,7Z"/><path class="cls-2" d="M338.52,199.1c.26,3.46,2.53,7,6.3,7-3.84.65-6.69-3.54-6.3-7Z"/><path class="cls-2" d="M192.73,265.31a6.79,6.79,0,0,1,1,7.47,9.81,9.81,0,0,0-1-7.47Z"/><path class="cls-2" d="M197.77,271.23c-1.93-2.87-5.69-4.84-9-3,3-2.48,7.57-.27,9,3Z"/><path class="cls-2" d="M192.32,185.2a6.78,6.78,0,0,1,2.81-7,9.83,9.83,0,0,0-2.81,7Z"/><path class="cls-2" d="M190.89,177.57c.25,3.45,2.53,7,6.3,7-3.85.65-6.7-3.53-6.3-7Z"/><path class="cls-14" d="M229.6,242.84a33.89,33.89,0,0,1-3.81-9.42c-1.93-9.28,2.28-18.71,7.32-26.73a1.83,1.83,0,0,0,.41-1.43c-.17-.54-.77-.79-1.31-1q-2.86-1-5.76-1.83a39.87,39.87,0,0,1,25.94-24.55c19.27-5.64,25.77,18.93,24.39,33.64-1.2,12.8-6.64,24.76-11.56,36.64a105,105,0,0,0-8,41.56c0-.38-22.74,5-22.7-5.65,0-2.6,1.2-5,2-7.49a31.32,31.32,0,0,0-.36-21.41C234.5,250.86,231.86,246.91,229.6,242.84Z"/><path class="cls-15" d="M203.15,196.93l-1.29-1.16c-5.33-4.71-11.11-9-15.65-14.52a60.91,60.91,0,0,1-8.81-15.37A54,54,0,0,1,173,149.29c-.76-10.22,4.45-24.62,15.7-27.15a13.78,13.78,0,0,1,11.3,2.54c4.21,3.27,5.44,8.66,6.13,13.67a112.85,112.85,0,0,1,.65,24.3c-.81,9.85-2.79,20.39,1.8,29.15,3.33,6.35,8.37,9.6,6,17.31-.09.28-.46,2.08-.69,2-.95-.12-1.24-2.9-1.59-3.65a22.55,22.55,0,0,0-3-4.35A58.17,58.17,0,0,0,203.15,196.93Z"/><path class="cls-16" d="M245.82,160.49c.24-2.78.27-5.54.32-8.44.36-21.23,2.69-42.84,11-62.57a39.1,39.1,0,0,1,5.74-10.13,17.28,17.28,0,0,1,9.69-6.14c9.81-1.91,15.41,7.4,16.77,15.68,2.15,13.09-1.47,26.4-5.65,39-2.91,8.78-6.16,17.55-11.25,25.27-4.83,7.34-11.2,13.56-16,20.9a27.94,27.94,0,0,1-5.19,6c-2.63,2.23-6.59,2.56-5-2.09,1.51-4.38-1.84-8.48-1-12.87C245.5,163.52,245.69,162,245.82,160.49Z"/><path class="cls-17" d="M304.82,205.63a96,96,0,0,1,7.31-15.72c1.37-2.28,3.11-4.65,5.69-5.25a3,3,0,0,0,1.36-.48,2.68,2.68,0,0,0,.68-1.59c1.4-6.72,10.42-12.55,16.9-8.8,5.69,3.28,6.53,11.66,6,17.44A58.62,58.62,0,0,1,321,231.81,65.39,65.39,0,0,1,291,244.45c-9,1.39-20-2.6-28.35,2.13,1.37-4.75,5.93-7.87,10.5-9.78,3.21-1.33,6.58-2.26,9.76-3.69,2.7-1.2,4.83-3.11,7.28-4.75a30.44,30.44,0,0,0,8.24-7.75c2.35-3.42,3.67-7.42,5-11.33C303.92,208.06,304.36,206.84,304.82,205.63Z"/><path class="cls-16" d="M200.29,260.63a23.07,23.07,0,0,1-3.46-3.31,42.51,42.51,0,0,1-10.06-26.21c-.08-3.14.25-6.45,2-9.05,6.09-9,14,1.85,16.48,7.65,2.23,5.21,4,10.65,6.81,15.56s6.91,9.39,12.27,11.24a6.86,6.86,0,0,1,2.62,1.26c1.87,1.78,3.3,6.51.9,8.37a7.85,7.85,0,0,1-4.55,1.25C215.51,267.7,206.61,265.56,200.29,260.63Z"/><path class="cls-18" d="M218.33,108.72c-.17-.51-.33-1-.48-1.55-1.42-5.1-1.91-12.11.47-17a9.86,9.86,0,0,1,4.56-4.68c6.3-2.91,11.41,4.08,12.87,9.4,1.61,5.86.89,12.09,1.75,18.11.63,4.35,2.07,8.54,2.72,12.89a24.73,24.73,0,0,1,.22,5.83,16.11,16.11,0,0,1-.33,2.8c-.22.82-1.21,2-1.24,2.78a11.72,11.72,0,0,0-3.69-9.54c-2.37-2.36-5.33-4-7.92-6.07A28.43,28.43,0,0,1,218.33,108.72Z"/><path class="cls-19" d="M301.85,382.61s-5.37,16.13-59.35,16.13c-57.08,0-64.25-16.13-64.25-16.13-25.59-40.23-24.11-71,0-99.87,0,0,9.16,10.16,62.19,11.1,50.69.9,63.07-12.06,63.07-12.06C327.69,315.59,323.33,349.33,301.85,382.61Z"/><path class="cls-12" d="M289.82,374c.57-.9,1.08-.74,1,.33-.58.91-1.08.73-1-.33Z"/><path class="cls-12" d="M301.84,356.68a2.16,2.16,0,0,1,0,3.34,2.16,2.16,0,0,1,0-3.34Z"/><path class="cls-12" d="M237.07,368.36a4,4,0,0,1-2.67,4,4,4,0,0,1,2.67-4Z"/><path class="cls-12" d="M210.69,385.39a7.7,7.7,0,0,1-6.68,1.67,7.74,7.74,0,0,1,6.68-1.67Z"/><path class="cls-12" d="M191.33,385.06c-.62.84-1,.67-.67-.34.62-.85,1-.67.67.34Z"/><path class="cls-12" d="M176.24,362a4.23,4.23,0,0,1-1.68-4.67,4.25,4.25,0,0,1,1.68,4.67Z"/><path class="cls-12" d="M167.92,344.35a134.25,134.25,0,0,0,30.68,32,41.07,41.07,0,0,0,13.08,6.78c-10-1.62-18.19-8.56-25.54-15.11a89.88,89.88,0,0,1-18.22-23.68Z"/><path class="cls-12" d="M184.43,351.53c16.8,14.39,35.82,27.85,58.14,31.35a72.16,72.16,0,0,0,9.54.92,59.71,59.71,0,0,1-9.64-.15c-22.74-2.35-42.47-16.11-58-32.12Z"/><path class="cls-12" d="M218.43,361.24a216.49,216.49,0,0,0,32.63,12,66.11,66.11,0,0,1-32.63-12Z"/><path class="cls-12" d="M184,323.58c8.24,6.19,17.49,12.46,26.28,17.84A64.15,64.15,0,0,1,184,323.58Z"/><path class="cls-12" d="M198,314a234.54,234.54,0,0,0,38.76,21.34A93,93,0,0,1,198,314Z"/><path class="cls-12" d="M251.13,320.89a171,171,0,0,0,41,14.92,80.29,80.29,0,0,1-41-14.92Z"/><path class="cls-12" d="M279.51,318.2c8.5,3.11,17.87,6,26.65,8.24a50.35,50.35,0,0,1-26.65-8.24Z"/><path class="cls-12" d="M292.54,302.15c5.54,1.61,11,2.92,16.64,4a21.12,21.12,0,0,1-16.64-4Z"/><path class="cls-12" d="M235.73,301.92a34.69,34.69,0,0,1,13.36,6.68,34.35,34.35,0,0,1-13.36-6.68Z"/><path class="cls-12" d="M174.3,299.92A18.8,18.8,0,0,1,183,306.6a18.78,18.78,0,0,1-8.68-6.68Z"/><path class="cls-12" d="M164.62,317.28a15.09,15.09,0,0,1,7.68,6,15,15,0,0,1-7.68-6Z"/><path class="cls-12" d="M272.47,362.66c8.36,2.61,16.94,5.71,25,9.07a67.36,67.36,0,0,1-25-9.07Z"/><path class="cls-12" d="M297.52,359.64a57.91,57.91,0,0,1,12,3.2,15.52,15.52,0,0,1-12-3.2Z"/><path class="cls-12" d="M309.18,348a4,4,0,0,1,4.67,1,4,4,0,0,1-4.67-1Z"/><path class="cls-12" d="M272.12,387.73a1.71,1.71,0,0,1,2.34,1.67,1.71,1.71,0,0,1-2.34-1.67Z"/><path class="cls-12" d="M223.4,388.69a9.78,9.78,0,0,1,6.68,4,9.73,9.73,0,0,1-6.68-4Z"/><path class="cls-12" d="M192.64,383.11a10.85,10.85,0,0,1,4.32-.78,2.46,2.46,0,0,1-4.32.78Z"/><path class="cls-12" d="M207,299.33a7.1,7.1,0,0,1,6,2.64,7.07,7.07,0,0,1-6-2.64Z"/><path class="cls-12" d="M240.07,321a1.33,1.33,0,0,1,2,1.34,1.33,1.33,0,0,1-2-1.34Z"/><path class="cls-12" d="M262.77,307.93a1.43,1.43,0,0,1,2.34-1,1.43,1.43,0,0,1-2.34,1Z"/><path class="cls-12" d="M272.79,299.59a1.12,1.12,0,0,1,1.67,1.33,1.12,1.12,0,0,1-1.67-1.33Z"/><path class="cls-12" d="M260.44,343a5.8,5.8,0,0,1,4.34,4,5.8,5.8,0,0,1-4.34-4Z"/><path class="cls-12" d="M223,352a1.2,1.2,0,0,1,1,2,1.2,1.2,0,0,1-1-2Z"/><path class="cls-12" d="M203,352a1.42,1.42,0,0,1-2.33-1,1.42,1.42,0,0,1,2.33,1Z"/><path class="cls-12" d="M179.64,338.32c.14,1.12-.74,1.65-1.67,1-.13-1.13.75-1.65,1.67-1Z"/><path class="cls-12" d="M185,312.29a6.24,6.24,0,0,1,1.63-5,4,4,0,0,1-1.63,5Z"/><path class="cls-12" d="M183.32,293.32c-.4,1-1.27,1-1.67,0,.39-1,1.26-1,1.67,0Z"/><path class="cls-12" d="M262.44,359.35c.76.79.43,1.47-.67,1.33-.77-.79-.42-1.47.67-1.33Z"/><path class="cls-12" d="M280.44,345.35c1-.46,1.49.06,1,1-1,.48-1.49-.05-1-1Z"/><path class="cls-12" d="M293.82,340.66a5.51,5.51,0,0,1,3.32-2,2.16,2.16,0,0,1-3.32,2Z"/><path class="cls-12" d="M304.21,330.32a2.78,2.78,0,0,1,2-3.34,2.77,2.77,0,0,1-2,3.34Z"/><path class="cls-12" d="M218.32,311.6a9.44,9.44,0,0,1-.27,6.68,6.08,6.08,0,0,1,.27-6.68Z"/><path class="cls-12" d="M231.67,348.14a.57.57,0,0,1,.84.09.85.85,0,0,1-.32,1.38.57.57,0,0,1-.8-.28.47.47,0,0,0-.07-.59.87.87,0,0,0-.15-.09c.2,0,.48,0,.5-.51Z"/><path class="cls-12" d="M181,374.37c.84.62.67,1-.34.67-.84-.62-.66-1,.34-.67Z"/><path class="cls-12" d="M253.07,392.42c1-.58,1.65-.06,1.34,1-.94.59-1.64.06-1.34-1Z"/><path class="cls-12" d="M277.8,375c1-.49,1.49,0,1,1-1,.49-1.49,0-1-1Z"/><path class="cls-12" d="M295.49,345c.58-.92,1.27-.75,1.34.34-.58.92-1.26.75-1.34-.34Z"/><path class="cls-12" d="M289.84,310.32a2.25,2.25,0,0,1-3,1.7,2.25,2.25,0,0,1,3-1.7Z"/><path class="cls-12" d="M297.47,295.58c-.93-.61-.76-1.48.34-1.67.93.6.76,1.47-.34,1.67Z"/><path class="cls-12" d="M310.17,315.64a2.14,2.14,0,0,1,2.65,2,2.14,2.14,0,0,1-2.65-2Z"/><path class="cls-12" d="M247.12,336.32a4.9,4.9,0,0,1-.67,5.34,4.9,4.9,0,0,1,.67-5.34Z"/><path class="cls-12" d="M197.34,326a5.44,5.44,0,0,1-4.34,3.68,5.41,5.41,0,0,1,4.34-3.68Z"/><path class="cls-12" d="M171,329.64a2.26,2.26,0,0,1-3.67,1,3.6,3.6,0,0,1,3.67-1Z"/><path class="cls-12" d="M166.62,335a8.43,8.43,0,0,1,3.36,4,3.45,3.45,0,0,1-3.36-4Z"/><path class="cls-12" d="M220.71,303.59a1.69,1.69,0,0,1,2.67,1,1.69,1.69,0,0,1-2.67-1Z"/><path class="cls-12" d="M258.77,362a48.56,48.56,0,0,1,6.68,16.36A48.15,48.15,0,0,1,258.77,362Z"/><path class="cls-12" d="M268.78,380.74c1.09-.23,2.29-.42,3.33-.65s2.22-.52,3.32-.75a4.34,4.34,0,0,1-6.65,1.4Z"/><path class="cls-20" d="M290.52,391.39c-2.22,0-6,2.41-8.31,3a99.83,99.83,0,0,1-10,2.12,181.88,181.88,0,0,1-29.4,2.06c-57.09,0-64.26-16.14-64.26-16.14-25.59-40.22-24.11-71,0-99.87,0,0,9.16,10.17,62.19,11.11,15,.27,30.4-.36,45-4.09,5-1.27,14.81-3.41,18-8,1.32,2.2,2.53,4.48,3.78,6.72-15.22,11.72-34.22,17.36-53,21.22-13.05,2.67-26.29,4.61-39.61,4.7,5.68,23.93,16.65,47,35.74,63.22C261,386.23,277,391.52,290.52,391.39Z"/></g></g></svg>