<svg id="Layer_1" data-name="Layer 1" xmlns="http://www.w3.org/2000/svg" viewBox="0 0 480 480"><defs><style>.cls-1{fill:#fff;}.cls-2{fill:#ffeedc;}.cls-3{fill:#383a34;}.cls-4{fill:#8e6e57;}.cls-5{fill:#ba8b61;}.cls-6{fill:#644e2e;}.cls-7{fill:#adb83e;}.cls-8{fill:#93a038;}.cls-9{fill:#748920;}.cls-10{fill:#90a43d;}.cls-11{fill:#8ea33a;}.cls-12{fill:#62772f;}.cls-13{fill:#758a23;}.cls-14{fill:#45571f;}.cls-15{fill:#8ea33b;}</style></defs><rect class="cls-1" width="480" height="480"/><path class="cls-2" d="M329.49,150.79c-31.1-35.47-72.1-34.24-111.87-25.67-47,10.12-82,52-91.29,103.75-5.7,31.81,1,67.55,21.45,91,20.13,23,50.66,31.43,79.15,29.46,47.7-3.29,100.39-21.25,120-73.57,14.67-39.19,11.53-89.23-15-122.07C331.13,152.7,330.32,151.74,329.49,150.79Z"/><path class="cls-3" d="M248.87,103.14q1.45,6.77,2.92,13.54c2.94,13.31,5.7,26.65,8.52,40q4.51,21.19,9,42.4c2.22,10.64,4.5,21.3,6.55,31.94.41,2.11.94,4.26,1.41,6.39.19.87.47,2,.29,2.15-.55.41-.92,1.56-1.74.71a6.77,6.77,0,0,1-1-2.77l-7.23-35c-1.11-5.35-2.08-10.74-3.26-16-2.13-9.61-4.11-19.24-6.18-28.85-3.28-15.28-6.75-30.51-9.93-45.81-2.13-10.24-4.24-20.49-6.46-30.72l-1.34-6.14-.64-2.9-.17-.76-.18-.75-.16.82-.15.71q-3.58,17-7.18,34-3.3,15.69-6.8,31.37c-2.3,10.24-4.59,20.6-6.53,30.93a37.52,37.52,0,0,0-.75,3.71v0l-.12.86,0,0c-1,4.1-1.71,8.23-2.59,12.34-1.82,8.55-3.48,17.07-5.52,25.64-1,4.17-2,8.68-2.87,13.21-.7,3.64-1.85,8-2.42,11.56-.7,4.42-1.13,4.13-1.71,4.84-.22.27-.31,0-.38-.38-.17-1-.05-3-.65-2.62-.34.2.19-2.08.43-3.28,4-20.3,8.49-40.54,12.84-60.8l8.82-41.54c2.9-13.52,6-27,8.74-40.53q1.2-5.79,2.43-11.54c1.07-4.85,2.12-9.69,3.18-14.52l.44,0c.31-.05.61-.11.92-.18.45.11.89.24,1.33.39q2.32,11.11,4.66,22.24c1.07,5.18,2.14,10.41,3.38,15.55Z"/><path class="cls-4" d="M282.44,238.35c0,.9.05,1.8,0,2.69-.23,3.18-.07,6.36-.21,9.53-.17,4-.13,8.08-.12,12.13a50.1,50.1,0,0,1-.35,6.24c0,.09,0,.19,0,.29-.08,1.53-.14,3.07-.24,4.61-.08,1.21-.2,2.42-.31,3.64-.14,1.5-.31,3-.45,4.49a51.25,51.25,0,0,1-1.05,6.64,14.21,14.21,0,0,0-.26,1.61,13.65,13.65,0,0,1-.51,2,47,47,0,0,1-7.48,15.09,32.5,32.5,0,0,1-4.36,4.87,16.86,16.86,0,0,1-3.36,2.4,45.1,45.1,0,0,1-4.58,2.24,15.83,15.83,0,0,1-4.28,1c-1.66.19-3.32.35-5,.52a11.25,11.25,0,0,1-1.16.05c-2,0-4,0-6-.05s-4.23-.06-6.35-.16-4.48-.22-6.72-.39a48.62,48.62,0,0,1-7.48-1.23,26.79,26.79,0,0,1-4.57-1.48,18.69,18.69,0,0,1-5.39-3.66,38.7,38.7,0,0,1-8.65-12.15,61.5,61.5,0,0,1-4.28-13.74c-.28-1.45-.46-2.91-.66-4.37s-.35-2.67-.52-4c-.09-.7-.11-1.4-.19-2.1-.14-1.25-.16-2.5-.26-3.75-.27-3.58-.15-7.18-.21-10.77-.06-3-.06-6-.22-9-.18-3.66-.2-7.32-.11-11a14,14,0,0,1,.56-3.7c.23,0,.33.13.45.29a3.89,3.89,0,0,0,.84,1.05,21.3,21.3,0,0,0,2.71,1.81,39.34,39.34,0,0,0,8.2,3c1.35.38,2.75.59,4.13.85a49.35,49.35,0,0,0,6.74.89,1.58,1.58,0,0,1,.38,0,5.93,5.93,0,0,0,2,.15c.68,0,1.33.19,2,.19h19.07a3.86,3.86,0,0,0,1-.08,3.74,3.74,0,0,1,1-.1,22.06,22.06,0,0,0,3.15-.26c1.37-.13,2.75-.18,4.11-.33.83-.09,1.67-.13,2.48-.25,1.18-.17,2.36-.19,3.54-.28a27.6,27.6,0,0,1,3.64-.26.9.9,0,0,0,.28,0c.71-.22,1.46-.14,2.18-.3,1-.23,2.09-.31,3.12-.51,1.76-.33,3.51-.71,5.26-1.06a28.44,28.44,0,0,0,5.36-1.5,5.49,5.49,0,0,0,2.74-1.84C282.16,238.34,282.31,238.34,282.44,238.35Z"/><path class="cls-5" d="M210.9,233.54a2,2,0,0,0-.39.07Z"/><path class="cls-5" d="M260.71,243.75a4.86,4.86,0,0,0-.6.06Z"/><path class="cls-5" d="M281.27,235.71a7.9,7.9,0,0,0-2.78-1.18l.37-.06a9.21,9.21,0,0,1-2.56-.59c-1.17-.25-2.35-.45-3.54-.63-2.37-.36-4.77-.6-7.16-.83-3.85-.35-7.74-.59-11.53-.72-2.55-.09-5-.23-7.43-.23h0l-.57,0c-4,0-8-.08-12,0-2.5.07-5.21.16-7.76.26-2.92.12-5.7.29-8.44.57-.5.05-1,.11-1.62.14a77.52,77.52,0,0,0-7.92.92,43.53,43.53,0,0,0-5.68,1.06,18.66,18.66,0,0,0-2.67.84l-.68.3-.35.19-.23.13-.26.18a2.53,2.53,0,0,0-1.2,1.94,2.58,2.58,0,0,0,1.09,2l.25.2c.09.07.14.09.19.14l.34.21.66.36a21.85,21.85,0,0,0,2.6,1.06,52.66,52.66,0,0,0,8.42,2,19.11,19.11,0,0,1,2.3.39,52.22,52.22,0,0,0,5.6.83c3.13.3,6.61.72,9.9.88l.27,0c2.2.72,5.36.23,7.64.25A191.47,191.47,0,0,0,256,246c8.28-.8,16.56-1.63,24.11-5.4a3.91,3.91,0,0,0,2.3-2.18v0A2.71,2.71,0,0,0,281.27,235.71Zm-73.06-2.32-.43.07A2.38,2.38,0,0,1,208.21,233.39Zm48.17,12.5h0Zm5.61-.58a6.5,6.5,0,0,1,.66-.08Zm16.79-7.49v0c-.25.9-1.21,1.45-2.1,1.87-6.91,3.25-14.48,4-22.06,4.65-6,.54-11.84.41-17.81.39-2.08,0-5,.41-7-.22l-.24,0c-3-.14-6.2-.5-9.06-.76a46.66,46.66,0,0,1-5.12-.72,19.93,19.93,0,0,0-2.11-.33,50.86,50.86,0,0,1-7.7-1.76,18.8,18.8,0,0,1-2.38-.92l-.61-.31-.3-.18-.18-.12-.22-.17a1.91,1.91,0,0,1,.09-3.41l.24-.15.21-.12.32-.16.63-.26a19.59,19.59,0,0,1,2.43-.72,44.23,44.23,0,0,1,5.2-.92c2.43-.36,4.86-.66,7.25-.78.55,0,1-.08,1.48-.13,2.51-.24,5.06-.38,7.72-.48,2.34-.1,4.82-.17,7.1-.23,3.7-.1,7.37-.05,11,0l.52,0h0c2.26,0,4.47.13,6.8.2,3.47.12,7,.32,10.55.62,2.19.19,4.38.41,6.55.72,1.09.15,2.17.32,3.24.54a9.11,9.11,0,0,0,2.34.51l-.34.05a7.43,7.43,0,0,1,2.54,1A2.27,2.27,0,0,1,278.78,237.82Z"/><path class="cls-5" d="M256.38,245.89h0Z"/><path class="cls-5" d="M254.93,244.05h0Z"/><path class="cls-4" d="M202.43,239.25l.32-.16a5.59,5.59,0,0,1,.63-.26,19.67,19.67,0,0,1,2.43-.73,42.16,42.16,0,0,1,5.2-.91c2.43-.37,4.86-.66,7.25-.79.55,0,1-.08,1.48-.13,2.51-.24,5.06-.38,7.72-.48,2.34-.09,4.82-.17,7.1-.23,3.7-.09,7.37,0,11,0l.52,0h0c2.26,0,4.47.12,6.8.19,3.47.12,7,.33,10.55.62,2.19.2,4.38.41,6.55.72q1.64.22,3.24.54a9.11,9.11,0,0,0,2.34.51l-.34.05a7.71,7.71,0,0,1,2.49,1,2.41,2.41,0,0,0,1.08-1.31v0a2.27,2.27,0,0,0-1-2.28,7.43,7.43,0,0,0-2.54-1l.34-.05a9.11,9.11,0,0,1-2.34-.51c-1.07-.22-2.15-.39-3.24-.54-2.17-.31-4.36-.53-6.55-.72-3.53-.3-7.08-.5-10.55-.62-2.33-.07-4.54-.2-6.8-.2h0l-.52,0c-3.65,0-7.32-.07-11,0-2.28.06-4.76.13-7.1.23-2.66.1-5.21.24-7.72.48-.46,0-.93.1-1.48.13-2.39.12-4.82.42-7.25.78a44.23,44.23,0,0,0-5.2.92,19.59,19.59,0,0,0-2.43.72l-.63.26-.32.16-.21.12-.24.15a1.91,1.91,0,0,0-.09,3.41l.22.17h0l.1-.07Z"/><path class="cls-6" d="M202.59,239.73l.61.31a18.8,18.8,0,0,0,2.38.92,50.86,50.86,0,0,0,7.7,1.76,19.93,19.93,0,0,1,2.11.33,46.66,46.66,0,0,0,5.12.72c2.86.26,6.05.62,9.06.76l.24,0c2,.63,4.91.21,7,.22,6,0,11.85.15,17.81-.39,7.58-.69,15.15-1.4,22.06-4.65a6.75,6.75,0,0,0,1-.56,7.71,7.71,0,0,0-2.49-1l.34-.05a9.11,9.11,0,0,1-2.34-.51q-1.6-.31-3.24-.54c-2.17-.31-4.36-.52-6.55-.72-3.53-.29-7.08-.5-10.55-.62-2.33-.07-4.54-.2-6.8-.19h0l-.52,0c-3.65,0-7.32-.07-11,0-2.28.06-4.76.14-7.1.23-2.66.1-5.21.24-7.72.48-.46,0-.93.1-1.48.13-2.39.13-4.82.42-7.25.79a42.16,42.16,0,0,0-5.2.91,19.67,19.67,0,0,0-2.43.73,5.59,5.59,0,0,0-.63.26l-.32.16-.21.11-.1.07c.07.06.12.08.17.12Z"/><path class="cls-7" d="M147.51,318.75a1.08,1.08,0,0,0,.7-1,19.74,19.74,0,0,0,0-4.48,14,14,0,0,1-.1-1.59,2.3,2.3,0,0,0,1.17-2.26c0-.43,0-.85,0-1.28h0c.09-.12.25-.23.25-.34a9.61,9.61,0,0,0,0-2.34c-.3-1.24-.16-2.52-.48-3.76a27.56,27.56,0,0,1-.43-2.89c-.16-1.15-.4-2.3-.45-3.46a43,43,0,0,1,.52-8.89,17.82,17.82,0,0,1,1.76-5.55,24.59,24.59,0,0,1,2.66-4.2,15.45,15.45,0,0,1,5.17-4.23l.4-.19a30.94,30.94,0,0,1,7.81-1.78c1.22-.13,2.4-.36,3.6-.6a17.41,17.41,0,0,1,3.59-.62,1.61,1.61,0,0,0,1.28-.61l1.12,0a1.19,1.19,0,0,0,.15.4c.33.43.53.41.78-.07a2.51,2.51,0,0,1,.8-1,.43.43,0,0,0,.72.14,13.81,13.81,0,0,1,3.21-1.73,25.56,25.56,0,0,1,9.25-1.86c1.62,0,3.23,0,4.85,0a3.71,3.71,0,0,1,1.16.07,6.21,6.21,0,0,0,2.18.22c1.07,0,2.15,0,3.23,0a14.86,14.86,0,0,0,5.87-1,14.57,14.57,0,0,0,6.81-4.59,21.51,21.51,0,0,0,3-4.86c.65-1.58,1.15-3.22,1.72-4.83a23.13,23.13,0,0,0,1-5.58c.1-1,.33-2,.36-3,0-.44.32-.57.7-.6.3.43.5,1,1.08,1.08a15.4,15.4,0,0,0-.31,2,39.26,39.26,0,0,1-.52,3.9,28.08,28.08,0,0,1-1.55,5.48,24.47,24.47,0,0,1-4,7.46,13.3,13.3,0,0,1-3.56,3.25,20,20,0,0,1-3.26,1.66,17.93,17.93,0,0,1-7,1.39c-1.46-.08-2.93,0-4.4,0a3.7,3.7,0,0,1-1.16-.09,6.09,6.09,0,0,0-1.89-.2c-1.42,0-2.84,0-4.26,0A20,20,0,0,0,186,267a20.45,20.45,0,0,0-5.61,2.11c-.29.16-.64.27-.75.65-.59.31-1.3.29-1.89.71l1.47,2.54c.28.5.39.59.93.44a11.49,11.49,0,0,1,3.2-.32,3.31,3.31,0,0,1,3.14,2,8.08,8.08,0,0,1,.51,1.53,9.53,9.53,0,0,0,1.2,2.66,3,3,0,0,0,2.38,1.49,11,11,0,0,1,8.33,4.6,4.3,4.3,0,0,0,1.8,1.47l2.66,1.22a10.38,10.38,0,0,0,2.11.92l2.76.36a35.14,35.14,0,0,1,5.92,1.05,21.76,21.76,0,0,0,5.22.72c.52,0,.73-.17.76-.66s0-.69,0-1c0-2-.1-4-.14-6,0-2.79-.06-5.58-.11-8.37,0-.48.11-1-.25-1.41a12.55,12.55,0,0,1,2.9-1.41,31.18,31.18,0,0,1,.18,4.1,43.43,43.43,0,0,0,2,13.3,50.63,50.63,0,0,0,2.29,6.2,33.74,33.74,0,0,0,3.11,5.65c1,1.45,2,2.93,3,4.34a47.26,47.26,0,0,1,5.25,9.49,50,50,0,0,1,2.86,8.16,21.24,21.24,0,0,1,.74,6.25c0,.34,0,.68,0,1a7.69,7.69,0,0,0-.33,2.29,26.61,26.61,0,0,1-.26,5.64,1.63,1.63,0,0,0,0,.44c0,.44,0,.88.06,1.32a31,31,0,0,0,.46,5.09l-.09.11.19.16a.59.59,0,0,1,.27.58c-.1.1-.25.19-.28.3a7.92,7.92,0,0,1-.3,1.51c-.12.28.13.53.21.79-.17.23-.31.54-.54.67a7.1,7.1,0,0,0-2.08,2,21.61,21.61,0,0,0-3.09,5.15,161.4,161.4,0,0,0-6.4,16.43c-1,3.33-1.8,6.72-2.59,10.1a30.82,30.82,0,0,0-1,5.05,8.78,8.78,0,0,0,1.63,6c.2.28.41.56.58.85a.85.85,0,0,1-.25,1.28.84.84,0,0,1-1.18-.2,7.21,7.21,0,0,1-.72-.93,21.77,21.77,0,0,1-2.52-4.8c-1.07-2.95-2.15-5.89-3.2-8.85a30.56,30.56,0,0,1-1.52-7.32,80.49,80.49,0,0,1-.36-10.87,17.69,17.69,0,0,1,2.83-9.3c1-1.43,1.74-3,2.58-4.45a8.84,8.84,0,0,1,6.81-4.57c.67.08,1.27-.33,1.94-.32a16.62,16.62,0,0,1,3.79.28c.52.12,1.06.19,1.58.29s.65,0,.56-.5-.16-.77-.23-1.15a41.2,41.2,0,0,1-.75-6.54,8.47,8.47,0,0,0,0-1.89,12.74,12.74,0,0,1-.23-3.19c0-1.42,0-2.83,0-4.24-.11-1.12-.21-2.24-.33-3.36a18.55,18.55,0,0,0-1.26-5,47.45,47.45,0,0,0-2.14-4.5c-2.14-4-4.3-7.91-6.08-12a10.78,10.78,0,0,0-.69-1.3,43.43,43.43,0,0,1-4-8.48,6,6,0,0,0-.67-1.61c-.46,0-.67.38-1,.59A3.6,3.6,0,0,1,219,293a33.78,33.78,0,0,1-6.78-1.18,39.62,39.62,0,0,0-4.35-.63c-.77-.13-1.54-.23-2.31-.35s-1.39-.18-2-.59a15.76,15.76,0,0,1-3.61-1.6,8.05,8.05,0,0,0-1.14-.66,52.17,52.17,0,0,1-6.41-3.58,11.52,11.52,0,0,0-1.31-.67,6.7,6.7,0,0,0-5.69-.09,23,23,0,0,0-3.89,2.06,69.33,69.33,0,0,0-9.86,7.89c-1.73,1.67-3.38,3.41-5.08,5.11a4.61,4.61,0,0,0-1,1.57,2.75,2.75,0,0,1-.6,1.16.39.39,0,0,0-.61-.12,5.32,5.32,0,0,0-1,1.24,15.53,15.53,0,0,0-3.35,5.65c-.09,0-.24-.1-.26-.07a6.76,6.76,0,0,0-.46.72,58.13,58.13,0,0,0-4.34,11c-.34,1.17-.69,2.33-1,3.5-.84,3.06-1.81,6.08-2.39,9.2a31.89,31.89,0,0,0-.75,6.07,2.52,2.52,0,0,1,0,.73,16.12,16.12,0,0,0-.26,4.38,4.68,4.68,0,0,0,.21,2,1.08,1.08,0,0,1-.05.86c-.14.31-.29.63-.71.65a.86.86,0,0,1-.86-.44,6.59,6.59,0,0,1-.64-1.79c-.24-1-.43-2-.65-3a21.2,21.2,0,0,1-.53-4c-.06-2.64,0-5.29,0-7.93a2.85,2.85,0,0,1,.07-1,6.47,6.47,0,0,0,.2-2.62c-.05-.95.37-1.82.32-2.76a7.91,7.91,0,0,1,.21-2.32,8.75,8.75,0,0,0,.06-2.05C148.09,318.93,147.81,318.82,147.51,318.75Zm23.24-43.23,0,0c-.22.43-.47.85-.66,1.3a16.58,16.58,0,0,1-5.06,6.74,24.62,24.62,0,0,0-3.53,3.32,23.83,23.83,0,0,0-3.69,6.16,23.56,23.56,0,0,1-4.35,6.76,13.38,13.38,0,0,0-3.15,5.42,2.83,2.83,0,0,0-.18,1.29.58.58,0,0,0,.17.36c.14.11.28,0,.39-.11a32.83,32.83,0,0,0,3.63-3.64A90.52,90.52,0,0,0,164,289.62c1.4-2.41,2.79-4.84,4.39-7.13.39-.56.75-1.14,1.12-1.7a34.24,34.24,0,0,0,2.86-2.66,3.55,3.55,0,0,0,.85-1.15c.14,0,.31,0,.42-.06,1.25-.84,2.5-1.67,3.82-2.4a.42.42,0,0,0,.16-.62,11,11,0,0,0-1.7-2.7.9.9,0,0,0-.75-.38,1.49,1.49,0,0,0-.66-.74.41.41,0,0,0-.39,0c-.18.15-.28.39-.46.55a8.6,8.6,0,0,0-2.54,3.93c0,.12-.19.2-.3.3C171,275.11,170.92,275.32,170.75,275.52Z"/><path class="cls-8" d="M222.51,272.25a12.55,12.55,0,0,0-2.9,1.41l-1.32.62a30.93,30.93,0,0,1-11.58,2.7H205a.86.86,0,0,0-.65.24.14.14,0,0,1-.19.08l-1.89,0a17.94,17.94,0,0,1-3.93-.44,22.71,22.71,0,0,1-7.58-3.05l-4.09-2.59a10.44,10.44,0,0,0-4-1.47,13.8,13.8,0,0,0-3.08,0c.11-.38.46-.49.75-.65A20.45,20.45,0,0,1,186,267a20,20,0,0,1,5.06-.61c1.42.05,2.84,0,4.26,0a6.09,6.09,0,0,1,1.89.2,3.7,3.7,0,0,0,1.16.09c1.47,0,2.94-.05,4.4,0a17.93,17.93,0,0,0,7-1.39,20,20,0,0,0,3.26-1.66,13.3,13.3,0,0,0,3.56-3.25,24.47,24.47,0,0,0,4-7.46,28.08,28.08,0,0,0,1.55-5.48,39.26,39.26,0,0,0,.52-3.9,15.4,15.4,0,0,1,.31-2,21.48,21.48,0,0,1,3.94,1.08c.2.07.41.28.67,0a14.83,14.83,0,0,0-5.19-5A5,5,0,0,0,219,236.1a.4.4,0,0,0,.1.46,11.74,11.74,0,0,1,1.68,2,2.56,2.56,0,0,0,.65.57,3.52,3.52,0,0,0,.36,1.35c-.38,0-.68.16-.7.6,0,1-.26,2-.36,3a23.13,23.13,0,0,1-1,5.58c-.57,1.61-1.07,3.25-1.72,4.83a21.51,21.51,0,0,1-3,4.86,14.57,14.57,0,0,1-6.81,4.59,14.86,14.86,0,0,1-5.87,1c-1.08-.06-2.16,0-3.23,0a6.21,6.21,0,0,1-2.18-.22,3.71,3.71,0,0,0-1.16-.07c-1.62,0-3.23,0-4.85,0a25.56,25.56,0,0,0-9.25,1.86,13.81,13.81,0,0,0-3.21,1.73.43.43,0,0,1-.72-.14v-.39c.62-.21.88-.77,1.19-1.27a6.62,6.62,0,0,0,.56-.47,38.06,38.06,0,0,1,7-6c2.39-1.61,4.78-3.23,7.2-4.82a24.61,24.61,0,0,0,5.93-5.45,23.87,23.87,0,0,0,3.53-5.9c.14-.36.38-.71.13-1.13a4.06,4.06,0,0,0-1.38.8q-5.66,3.85-11,8.07a72.48,72.48,0,0,0-8.63,8,36.34,36.34,0,0,0-3.92,5.14,1.92,1.92,0,0,0-.51,1.18,2,2,0,0,0-.93,1.48c-.43.41-.52,1-.88,1.48l-1.12,0-.93-1.14,0-.8.7-1.28a5,5,0,0,0,.78-1.81c.44-.1.58-.51.79-.82a38.56,38.56,0,0,1,3.25-4.36,74.57,74.57,0,0,1,11-10.15c4-3.06,8.07-6.07,12.34-8.77a1.53,1.53,0,0,0,.93-1.65,5,5,0,0,1,0-1,1.49,1.49,0,0,0,.17-1,4.66,4.66,0,0,1,.1-1.14,4.49,4.49,0,0,0,.17-1.85l0-.13c.83-.25,1-.51.66-1.19q-2.58-5.19-5.17-10.36a2.68,2.68,0,0,0-.27-.34,22.12,22.12,0,0,1,.41-3.14c.69.22.89.86,1.2,1.4.6,1.06,1.18,2.14,1.76,3.22,1.39,2.58,2.8,5.15,4.17,7.74.33.64.73,1,1.47.92l.59,0a4.37,4.37,0,0,0,.67.29,17.53,17.53,0,0,1,4.09,1.59,2.52,2.52,0,0,0,2.23.22,11.91,11.91,0,0,1,5.44.91c.8.33,1.57.76,2.35,1.15a6.3,6.3,0,0,0,.55.48,19.55,19.55,0,0,1,6,6.59,17.41,17.41,0,0,0,1.17,1.68h0c.09.78.43,1.32,1.3,1.36.08,0,.15.11.22.17-.23.34,0,.66,0,1a1.34,1.34,0,0,1-.57,1.41c-.38.22-.37.49-.24.86,2,5.73.77,11-2.41,15.93a26.4,26.4,0,0,1-6,6.19C223.43,271.25,222.8,271.58,222.51,272.25Z"/><path class="cls-8" d="M147.51,318.75c.3.07.58.18.58.55a8.75,8.75,0,0,1-.06,2.05,7.91,7.91,0,0,0-.21,2.32c.05.94-.37,1.81-.32,2.76a6.47,6.47,0,0,1-.2,2.62,2.85,2.85,0,0,0-.07,1c0,2.64,0,5.29,0,7.93a21.2,21.2,0,0,0,.53,4c.22,1,.41,2,.65,3a6.59,6.59,0,0,0,.64,1.79.86.86,0,0,0,.86.44c.42,0,.57-.34.71-.65a1.08,1.08,0,0,0,.05-.86,4.68,4.68,0,0,1-.21-2,16.12,16.12,0,0,1,.26-4.38,2.52,2.52,0,0,0,0-.73,31.89,31.89,0,0,1,.75-6.07c.58-3.12,1.55-6.14,2.39-9.2.32-1.17.67-2.33,1-3.5,1.45.56,2.75,1.44,4.24,1.88.3-.4.17-.8.17-1.17,0-1.66,0-3.32,0-5a31.77,31.77,0,0,1,.69-7.41,15.53,15.53,0,0,1,3.35-5.65,5.32,5.32,0,0,1,1-1.24.39.39,0,0,1,.61.12c-.16.46-.31.93-.49,1.38A32.59,32.59,0,0,0,162,315.53c0,1.91,0,3.82,0,5.73,0,.14,0,.31.2.33a.36.36,0,0,0,.27-.07,14.32,14.32,0,0,0,1-1c.43-.47.82-1,1.24-1.46a10.08,10.08,0,0,1,9.18-3.2,7.11,7.11,0,0,1,2.09.68,12.5,12.5,0,0,1,2.5,1.53c4.94,4,7.46,9.05,7.13,15.5a26.61,26.61,0,0,1-3.41,11.28,50.42,50.42,0,0,1-6.27,8.87,40.78,40.78,0,0,1-4.3,4.42,58.07,58.07,0,0,0-6.22,6.23c-.19-.06-.42-.08-.46-.31-.13-.72-.25-1.44-.35-2.16-.13-1-.18-2-.35-3-.32-1.82-.65-3.64-.88-5.47a38.19,38.19,0,0,1-.55-5.22,1.27,1.27,0,0,0,0-.44,8.39,8.39,0,0,1-.25-2.91c0-1.22,0-2.45,0-3.67a3.54,3.54,0,0,0,0-1,10.14,10.14,0,0,1-.24-3.2c0-1.17,0-2.35,0-3.53a5.16,5.16,0,0,0-.16-1.45,3.18,3.18,0,0,1-.12-1.15c.17-2.31-.43-4.58-.32-6.88a2.26,2.26,0,0,0-.09-.57,1.43,1.43,0,0,0-1.23-1.24c-.48-.11-.83.15-.68.62a12.2,12.2,0,0,1,.25,3.35,3.14,3.14,0,0,0,.09,1,6.35,6.35,0,0,1,.2,2,13.74,13.74,0,0,0,.07,2.49,12.91,12.91,0,0,1,.22,2.76c0,1.38,0,2.75,0,4.12a3.43,3.43,0,0,0,.07,1.16,7.07,7.07,0,0,1,.21,2.33c0,1.32,0,2.64,0,4a3.72,3.72,0,0,0,.09,1.16A5.07,5.07,0,0,1,161,349a24.46,24.46,0,0,0,.4,3.92c.2,1.78.62,3.54.84,5.33.1.81.2,1.64.34,2.45a19.61,19.61,0,0,1,.48,4.64,1.53,1.53,0,0,1-.76-.43,20,20,0,0,0-5.05-2.95c-1-.44-2-.91-3.08-1.37a21.32,21.32,0,0,1-9.56-8.62,35.62,35.62,0,0,1-4.26-10.11,31.78,31.78,0,0,1-1-9.31,24.68,24.68,0,0,1,1.54-7.45,13.44,13.44,0,0,1,2.14-3.82A6.52,6.52,0,0,1,147.51,318.75Z"/><path class="cls-8" d="M233.16,245.45c-.07-.06-.14-.16-.22-.17-.87,0-1.21-.58-1.3-1.36.1-.1.26-.18.3-.3a8.42,8.42,0,0,0,.61-3.13c.44-.34.41-.87.53-1.33a45,45,0,0,1,1.89-5.53,6.46,6.46,0,0,1,2.64-3.4c.12-.07.19-.22.28-.33a2.88,2.88,0,0,0,2.38-1.56,5.34,5.34,0,0,0,2-1.68,1,1,0,0,0,.74-.34l1.31-1.44,1.88-.59c.37-.1.74-.17,1.1-.3.85-.32,1.8-.16,2.62-.57l7.06,0a6.47,6.47,0,0,1,1.17.05,2.89,2.89,0,0,0,3-1.41c.12-.15.21-.33.32-.48a15.44,15.44,0,0,0,2.24-6.14c.11-.56.26-1.13.33-1.71.07-.07.18-.12.2-.2a24.14,24.14,0,0,0,1-5.19c.13-.06.34-.09.37-.18a18.28,18.28,0,0,0,1-3.78,2.82,2.82,0,0,0,.63-1.46q.93-3.09,1.81-6.19c.89-3.1,1.76-6.21,2.65-9.31a25.57,25.57,0,0,1,1.13-3.47,21.54,21.54,0,0,0,1.39-4.32,3.15,3.15,0,0,0-.17-2.42,6.75,6.75,0,0,0-.25-1.72,8.33,8.33,0,0,1-.37-2.59c0-.76,0-.76-.91-1a1.65,1.65,0,0,1,.39-.17.81.81,0,0,0,.8-.7c.15-.66.37-1.3.58-1.95a8.57,8.57,0,0,1,4.37-5,9.85,9.85,0,0,0,1.8-.92,10.24,10.24,0,0,0,1.43-.26,17.42,17.42,0,0,1,5.47-.69c.93.05,1.86,0,2.78,0a4.26,4.26,0,0,1,.88,0c1.66.38,3.33.69,4.94,1.23a38.47,38.47,0,0,1,7.61,3.69,7.22,7.22,0,0,0,2.3,1.2,6,6,0,0,0,1.24,1c1.17.81,2.35,1.6,3.48,2.47a15.32,15.32,0,0,1,4.93,5.92c0,.13.19.21.28.32a6.7,6.7,0,0,0,.15,1.16c.32,1.07.6,2.16.89,3.25q1.15,4.31,2.29,8.64a4.79,4.79,0,0,1,.2,1,25.29,25.29,0,0,0,.85,5c.51,1.89,1.1,3.75,1.66,5.62s1.22,4,1.82,6a1.27,1.27,0,0,1-.16,1.38c-.11-.27-.24-.54-.33-.81a25.26,25.26,0,0,0-2.71-5.52,40.51,40.51,0,0,0-4.45-5.41c-.95-1.06-2-2-3-3a22.55,22.55,0,0,1-2.31-2.84,77.07,77.07,0,0,1-4.29-7.49c-.78-1.36-1.41-2.79-2.23-4.14a36.51,36.51,0,0,0-3.58-5,24.65,24.65,0,0,0-5.88-5,14,14,0,0,0-7.89-2.31,8.43,8.43,0,0,0-4.76,1.64,12.72,12.72,0,0,0-2.59,2.59,15,15,0,0,0-2.82,7.89,7.6,7.6,0,0,1-.5.89,15.9,15.9,0,0,0-2.6,5.69q-2.65,9.51-5.52,18.95a11.38,11.38,0,0,0-.8,3.55,2.8,2.8,0,0,0-.59,1.46c-.59,2.27-1.14,4.55-1.76,6.82a12.92,12.92,0,0,1-3,5.66,3.82,3.82,0,0,1-2.2,1.36,30,30,0,0,1-3.91-.09,31,31,0,0,0-3.32-.17,2.11,2.11,0,0,0-1.11.28c-.6.05-1.24-.21-1.78.26a25.57,25.57,0,0,0-2.75.37c-.4.17-.8.33-1.19.52a1.88,1.88,0,0,0-1.18,1.2,6.74,6.74,0,0,0-2.65,2.2,1.81,1.81,0,0,0-1.15,1,20.89,20.89,0,0,0-2.75,1.29,11.74,11.74,0,0,0-1.71,3.2,49.43,49.43,0,0,0-2.56,9.41C233.62,245,233.55,245.34,233.16,245.45Z"/><path class="cls-9" d="M241.42,339.13a1.63,1.63,0,0,1,0-.44,26.61,26.61,0,0,0,.26-5.64,7.69,7.69,0,0,1,.33-2.29,38.7,38.7,0,0,1,6,3.95,19.19,19.19,0,0,0,2.48,1.81,4,4,0,0,1,.7.54,86.54,86.54,0,0,1,9,8.9,76.52,76.52,0,0,1,5.63,7.9c1.58,2.48,3.17,5,4.55,7.56a34,34,0,0,1,3.79,18.18,61.65,61.65,0,0,1-1.06,7.42c-.25,1.35-.5,2.7-.67,4.06a15.58,15.58,0,0,0,.61,6.54,5.73,5.73,0,0,0,.8,1.72.82.82,0,0,1-.05,1.19,1,1,0,0,1-1.33.07,2.67,2.67,0,0,1-.44-.39,77.65,77.65,0,0,1-6.81-7.9,29.31,29.31,0,0,1-4.45-9.06,19.09,19.09,0,0,1-.73-4.93c0-2.69,0-5.39.15-8.08a43.88,43.88,0,0,0-.58-10.11,25,25,0,0,0-5.76-11.74,13.9,13.9,0,0,0-2-2.05c-.39.45-.73.87-1.09,1.25a7.87,7.87,0,0,1-5.22,2.71,4,4,0,0,1-3.13-.95c-.15-.13-.31-.24-.47-.36s-.33-.51-.21-.79a7.92,7.92,0,0,0,.3-1.51c0-.11.18-.2.28-.3l.41.6c1.08,1.59,1.91,1.81,3.77,1.31a6.86,6.86,0,0,0,3.82-3,.44.44,0,0,0-.1-.64,35.13,35.13,0,0,0-8.09-5.5A.85.85,0,0,0,241.42,339.13Z"/><path class="cls-10" d="M258.47,248.44a7,7,0,0,0-2-2.95.83.83,0,0,0-.74-.29h-1.11a1.21,1.21,0,0,1-.47-1.4,1.52,1.52,0,0,1,1-1l1-.32a2,2,0,0,0,1.42.48c.4,0,.45-.56.8-.73l.26-.1a1.72,1.72,0,0,1-.11.42,1.14,1.14,0,0,0,.38,1.65,8.5,8.5,0,0,1,1.64,2c.44.7.85,1.41,1.23,2.15,1.23,2.43,2.43,4.88,3.66,7.31a6.52,6.52,0,0,1,1.16,2.48c.89,2.07,1.83,4.12,2.68,6.2a23.54,23.54,0,0,1,1.95,10c0,.14,0,.29,0,.44a1.92,1.92,0,0,0,1.05,1.8,4.24,4.24,0,0,0,1.79.61c.73.07,1.47.12,2.2.13a52.18,52.18,0,0,0,11.08-1.09,5.05,5.05,0,0,0,1.83-.51,5.73,5.73,0,0,0,1.16-.13c1.18-.29,2.38-.47,3.55-.78a10.46,10.46,0,0,0,2.41-.58,6.32,6.32,0,0,0,.87,0c1.58-.28,3.15-.58,4.73-.85a23.24,23.24,0,0,0,10.64-5.16,1.14,1.14,0,0,0,.48-.7,3.21,3.21,0,0,0,1.61-.56,9.55,9.55,0,0,1,3.08-1.18c-.09.67-.79.77-1.15,1.21s-.71.77-.61,1.37c-.81.22-1.62.45-1.79,1.45a.56.56,0,0,0-.78,0,32.87,32.87,0,0,1-3.74,2.55,19,19,0,0,1-5.07,2.19c-2.4.65-4.86,1-7.3,1.45a4.44,4.44,0,0,0-1.94.56c-.19-.22-.4-.19-.65-.1-1.3.41-2.61.79-3.9,1.21-.34.11-.9-.05-.95.48s.61.55,1,.69a10.7,10.7,0,0,1,3.07,1.6,42.26,42.26,0,0,1-3.05,3.85c.2.32.47.22.69.28,1.1.28,1.16.3,1.71-.54a11.74,11.74,0,0,1,1.57-1.73,2.07,2.07,0,0,1,1.27-.68,4.62,4.62,0,0,1,3.36.73,12.22,12.22,0,0,1,2.45,2.09c.34.42.63.87,1,1.26a19.77,19.77,0,0,1,2.64,3.85,25.8,25.8,0,0,1,3,8.66,12,12,0,0,1,.35,2.16c0,2.6,0,5.19,0,7.79a2,2,0,0,1-.44-1.07,8.77,8.77,0,0,0-1.54-3c-.39-.5-.76-1-1.16-1.52a62.41,62.41,0,0,1-6.06-9.5,13.63,13.63,0,0,1-1.09-3,10.22,10.22,0,0,0-1.16-3.15,5.81,5.81,0,0,0-2-2.09,3.52,3.52,0,0,0-2.4,1.69,16.31,16.31,0,0,1-1.75,4.48,29.27,29.27,0,0,0-1.68,3.42,82.91,82.91,0,0,1-4.89,10.19,65.57,65.57,0,0,1-5.87,8.25,10.81,10.81,0,0,1-2.51,2.26,2.94,2.94,0,0,1-4.51-1.32c-.7-1.56-1.29-3.17-1.9-4.77a51.71,51.71,0,0,1-2.59-8.72,43,43,0,0,1-.71-6,40.36,40.36,0,0,1,.24-8.51c.31-1.83.69-3.65,1-5.48a40.09,40.09,0,0,0,.72-5.68,22,22,0,0,0-1.73-9.17c-.84-2-1.74-4-2.63-6.06a2.51,2.51,0,0,0-.32-.48c-.29-.77-.52-1.57-.88-2.3-1.23-2.54-2.51-5-3.77-7.57A1.34,1.34,0,0,0,258.47,248.44Zm11.15,44.32c.05.69.11,1.37.17,2.05a74.11,74.11,0,0,0,1.4,8.1c.39,1.87.82,3.72,1.37,5.56a17.93,17.93,0,0,0,1.17,3c.54,1,.87,1.1,1.78.3a8.8,8.8,0,0,0,1.09-1.19,45.81,45.81,0,0,0,4.21-6.54c2.23-4,4.41-8,6.61-12,.61-1.12,1.25-2.22,1.85-3.34a2.21,2.21,0,0,0,.27-2,1.14,1.14,0,0,1,.08-1.13,1.94,1.94,0,0,0,.07-2.07,7.67,7.67,0,0,0-1.29-2.12c-.18-.23-.4-.43-.56-.68a1.26,1.26,0,0,1,.31-1.81,3.6,3.6,0,0,1,.66-.3c.13-.06.27-.11.39-.18s.07-.11.05-.13-.13-.16-.18-.15c-1.56.41-3.12.82-4.67,1.26a39.86,39.86,0,0,1-7.52,1.23,12.86,12.86,0,0,1-5.06-.7c-.68-.21-.87-.07-1,.63,0,.25-.05.49-.08.73-.28,2.78-.57,5.55-.85,8.33A22.46,22.46,0,0,0,269.62,292.76Z"/><path class="cls-11" d="M320.31,263.94c.4.24.74.05,1.11-.11a29,29,0,0,1,5.45-1.72,16.56,16.56,0,0,1,6-.33,13.26,13.26,0,0,1,6.37,2.84,20,20,0,0,1,6,8.19,36.26,36.26,0,0,1,2,7.8c.21,1.31.36,2.62.45,3.94a19.88,19.88,0,0,1-2.06,10.69,46.36,46.36,0,0,1-5,7.44,42.3,42.3,0,0,1-7.76,7.6,25,25,0,0,1-6.25,3.51c-1.15.43-2.28.88-3.42,1.34l-3.94,1.61a1.43,1.43,0,0,1,.08-.43,33.71,33.71,0,0,1,4.41-6,5.13,5.13,0,0,1,1-.89,18.87,18.87,0,0,0,3.38-3.24,28.68,28.68,0,0,0,4-6.64c.77-1.69,1.46-3.41,2.15-5.13a27,27,0,0,0,2.1-9.8,8.12,8.12,0,0,1,.17-1.3,8.07,8.07,0,0,0,0-3.21,10.17,10.17,0,0,1-.18-1.74,6.91,6.91,0,0,0,0-1,13.7,13.7,0,0,0-3.79-7.29,19.52,19.52,0,0,0-8.22-4.9,6.44,6.44,0,0,0-1.57-.26,19,19,0,0,0-3.2.26c.09-.16.14-.37.28-.48A1.36,1.36,0,0,0,320.31,263.94Z"/><path class="cls-8" d="M152.79,260.2a.71.71,0,0,1-.35-1,1.32,1.32,0,0,1,.29-.5,38.22,38.22,0,0,1,3-3c.11.19.29.3.48.18.63-.37,1.25-.76,1.87-1.16,1-.66,2-1.36,3.07-2a43.11,43.11,0,0,0,7.77-5.94c1.85-1.81,3.87-3.44,5.67-5.32a13.46,13.46,0,0,1,2.25-1.87,38.77,38.77,0,0,1,4.7-3,1.13,1.13,0,0,0,.36-.24.68.68,0,0,0,.18-.37c0-.18-.15-.24-.29-.27a29.62,29.62,0,0,1-6.47-2.28c-.62-.29-1.28-.47-1.92-.7a73.47,73.47,0,0,1-7-4.54,21.74,21.74,0,0,1-6-6.56,9.44,9.44,0,0,1-1.53-4.84,11.85,11.85,0,0,0-.13-1.31,1.75,1.75,0,0,1,.49-1.28s.1,0,.14,0l4-2a7.5,7.5,0,0,1,5.56-.45,15.68,15.68,0,0,1,3.12,1.26,7.89,7.89,0,0,0,3.53.86c.58,0,1.17,0,1.76,0a1.51,1.51,0,0,1,1.48.95c.74,1.49,1.52,3,2.36,4.38a37,37,0,0,0,3.8,5c1.33,1.55,2.79,3,4.17,4.51.79.86,1.59,1.72,2.3,2.65a60.91,60.91,0,0,0,5.15,6c.31.31.62.62.92.94a1,1,0,0,1,.26.67,2.65,2.65,0,0,1-.57-.15,21.11,21.11,0,0,0-3.69-1.41,9.43,9.43,0,0,0-3.16-.51,12.64,12.64,0,0,1-3.06-.23,4.69,4.69,0,0,0-3,.46,40.94,40.94,0,0,0-10.28,7.2c-1.55,1.42-3,2.94-4.58,4.33a54.69,54.69,0,0,1-5.65,4.42,99.93,99.93,0,0,1-9.46,5.86A3.68,3.68,0,0,0,152.79,260.2Z"/><path class="cls-8" d="M200,217.78a22.12,22.12,0,0,0-.41,3.14l-1.08,5.84a11.69,11.69,0,0,1-.29,2.75,3.46,3.46,0,0,0,0,1.16c0,.53.17.67.74.68a13.79,13.79,0,0,0,4.05-.32l1.38,1.78,0,.13c-1.85-.39-3.65.31-5.48.25-.19,0-.31.23-.23.45.38,1,.76,2,1.16,3a3.21,3.21,0,0,1,.46,1.51c-.44,0-.69-.29-1-.54-.88-.72-1.39-1.77-2.23-2.51-1.22-1.08-2.07-2.48-3.25-3.58a4.07,4.07,0,0,1-.33-.48c-1.08-1.32-2.08-2.73-3.27-3.94-1.92-1.95-3.72-4-5.45-6.11a29.62,29.62,0,0,1-1.86-2.62c-.57-.86-1.11-1.73-1.59-2.63a5.29,5.29,0,0,1-1-2.55,10.6,10.6,0,0,0,.95-.65,4.66,4.66,0,0,0,1.67-1.93,6.08,6.08,0,0,0,1.2-1.28,19.56,19.56,0,0,1,1.53-2,23.38,23.38,0,0,1,4.68-4.2,6.63,6.63,0,0,0,.82-.31c.65-.36.71-.6.39-1.32-.16-.35-.35-.7-.52-1.05-.68-1.46-1.43-2.9-2-4.4a19.91,19.91,0,0,0-2.37-4.19,27.26,27.26,0,0,1-1.93-2.39c-.11-.2-.37-.32-.56-.47l-.9-.75a25.83,25.83,0,0,0-4.3-3A26.82,26.82,0,0,0,173,182.9c-.84-.23-1.68-.51-2.55-.66a24.31,24.31,0,0,0-5.51-.62,1.93,1.93,0,0,1-.72-.08,4.47,4.47,0,0,0-1.74-.2h-8.68a3.46,3.46,0,0,0-1,0,14.26,14.26,0,0,1-3.8.26,5.86,5.86,0,0,0-1.46.08,7,7,0,0,1-2,.21,8.24,8.24,0,0,0-2,.21,1.8,1.8,0,0,1-1.81-.2,2.5,2.5,0,0,1,1.37-.32,5,5,0,0,0,.87,0c2.13-.45,4.28-.8,6.4-1.29a17.92,17.92,0,0,1,4-.76l8.38,0a4.72,4.72,0,0,1,1.31.07,8,8,0,0,0,2.33.23,7.59,7.59,0,0,1,1.17,0c1,.17,2,.32,3,.56,1.7.42,3.41.85,5.08,1.37a27.28,27.28,0,0,1,4.39,2,25,25,0,0,1,4.68,3.26,21.65,21.65,0,0,1,5.44,7.21c.79,1.69,1.52,3.39,2.28,5.09a1.67,1.67,0,0,0,.77,1c-.06.24-.13.47-.17.71-.18.94,0,1,.86,1a5.8,5.8,0,0,1,5.31,2.79,8,8,0,0,1,1.36,3.21,2.47,2.47,0,0,0,.3,1.12c-.08,1.82-.13,3.65-.36,5.47a3.64,3.64,0,0,0,.09.72.69.69,0,0,0-.29.47C200.13,216.55,200,217.17,200,217.78Z"/><path class="cls-8" d="M317.55,315.16c.25-.48.48-1,.75-1.42a15.9,15.9,0,0,0,1.93-5.95,37.42,37.42,0,0,0,.11-8.33c-.34-3.79-.65-7.59-.88-11.39-.12-2,0-4.1,0-6.15,0-.63-.06-1.27-.08-1.9,0-2.33.07-4.66,0-7a8.41,8.41,0,0,0-1.05-4.16,1.31,1.31,0,0,0-1.29-.75,25.18,25.18,0,0,1,2.54-1.05,7.81,7.81,0,0,1,5,0,18,18,0,0,1,5.13,2.79,14.49,14.49,0,0,1,2.87,2.93,11.7,11.7,0,0,1,2.16,6.57,26.64,26.64,0,0,1,0,4.64c-.17,1.1-.08,2.22-.29,3.34a35.84,35.84,0,0,1-1.09,4.69,62.82,62.82,0,0,1-3.71,8.6,21,21,0,0,1-5.18,6.81,22.89,22.89,0,0,0-5.2,5.93c-.36.64-.8,1.23-1.22,1.83C317.87,315.39,317.69,315.37,317.55,315.16Z"/><path class="cls-9" d="M203.53,290.21c.59.41,1.34.33,2,.59,0,2.4,0,4.8-.1,7.2a68.53,68.53,0,0,1-2.84,19,64.23,64.23,0,0,1-3.15,8.07q-1.72,3.66-3.47,7.3a59.14,59.14,0,0,0-2.95,7.2,26.4,26.4,0,0,0-.95,12.48q.85,5.39,2.09,10.67a33.47,33.47,0,0,1,.76,9.2,18.38,18.38,0,0,1-1,5,8.34,8.34,0,0,1-1.63,2.94,6.17,6.17,0,0,1-2.91,1.91,5,5,0,0,1-3.31-.11c-.32-.13-.62-.3-.93-.43-.54-.24-.65-.24-1,.19a22.83,22.83,0,0,0-2.83,3.74c-.61,1.07-1.18,2.15-1.78,3.22a6.54,6.54,0,0,0-.35,5.81c.25.64.5,1.27.81,1.89a17.64,17.64,0,0,1,1.68,6.65c.06,1,.18,1.95.33,2.92a10,10,0,0,0,2.18,4.91.49.49,0,0,1-.54.08c-.37-.22-.74-.48-1.12-.69a20.63,20.63,0,0,1-6.79-6.15,10.51,10.51,0,0,1-1.68-3.24c-.65-2.15-1.24-4.31-1.81-6.48a9,9,0,0,1-.26-2.91,11.34,11.34,0,0,1,.28-1.73,16.62,16.62,0,0,1,1.6-4.39c.94-1.77,2-3.48,3-5.2a24.26,24.26,0,0,1,3.51-4.68c.83-.83,1.56-1.75,2.32-2.64a7.48,7.48,0,0,0,.79-1.06,3.78,3.78,0,0,0,.81-1.85h0a.37.37,0,0,0,.3-.35,2.93,2.93,0,0,1,1.65-1.14,2.58,2.58,0,0,1,3.38,2.27,8.77,8.77,0,0,1-1,4.95c-.58,1-1.26,2-1.9,3-.19.29-.41.55-.6.84s-.06.45.2.58a3.31,3.31,0,0,0,2.83.22,5,5,0,0,0,2.76-2.71,12.69,12.69,0,0,0,1-3.37,25.91,25.91,0,0,0-.15-9.21c-.43-2.26-1-4.5-1.44-6.75a80.39,80.39,0,0,1-1.29-8.42,26,26,0,0,1,1.25-10.29,63.56,63.56,0,0,1,3.47-8.41c1.28-2.7,2.59-5.39,3.81-8.11a56.72,56.72,0,0,0,4.72-18.26,121.09,121.09,0,0,0,.47-12.34C203.67,291.48,203.58,290.85,203.53,290.21Z"/><path class="cls-9" d="M211.33,137a5.44,5.44,0,0,1-.51-1.81,1.6,1.6,0,0,1,0-.72,1,1,0,0,1,1.25-.68,1,1,0,0,1,.67.52c-.12.21,0,.2.15.2h0c0,.3-.06.61.42.47l0,0c-.39.47-.16.92.06,1.36,1.55,3,2.62,6.21,4,9.27,1,2.13,1.75,4.35,2.71,6.48,1.23,2.77,2.26,5.62,3.24,8.48a76.69,76.69,0,0,1,2.43,8.13c.16.72.49,1.24,1.33,1.28a6.39,6.39,0,0,1,.85.17,12.73,12.73,0,0,1,4.24,1.47,7.72,7.72,0,0,1-3,.61.77.77,0,0,0-.83.67.89.89,0,0,0,.44,1,5.07,5.07,0,0,0,.94.36c.7.2,1.4.37,2.1.56a51.48,51.48,0,0,0,5.08,1.23.84.84,0,0,1,.59.37,11.46,11.46,0,0,1,.37,6.78,40.52,40.52,0,0,1-1.66,5.47,8.39,8.39,0,0,0-.53,5,6.12,6.12,0,0,1-3.62-2,1.54,1.54,0,0,1-.23-.37c-.46-.92-1-1.82-1.36-2.77a22.59,22.59,0,0,0-2.76-5.15,17.46,17.46,0,0,0-4.3-4.36,13.72,13.72,0,0,0-3.72-1.68,24.34,24.34,0,0,0-7.75-1.26,23.92,23.92,0,0,0-4.19.54,55.89,55.89,0,0,0-8.42,2.43c-2.09.8-4.21,1.54-6.32,2.3a7.19,7.19,0,0,1-1.77-2.65c.06-.08.11-.18.19-.22,1.87-.94,3.7-2,5.64-2.75.5-.2,1-.35,1.27-.9a1.45,1.45,0,0,0,1.11-.17c2.32-.88,4.64-1.77,7-2.59a17.08,17.08,0,0,1,3.79-1,.72.72,0,0,0,.52-.36,3.57,3.57,0,0,0,1.45-.11,8.67,8.67,0,0,1,2-.41,32.5,32.5,0,0,1,4.52-.33,1.57,1.57,0,0,0,.72,0,6.9,6.9,0,0,1,2.47-.23c.54,0,1.08,0,1.62,0s.62-.19.49-.64c-.3-1-.64-2-.91-3.08a101.9,101.9,0,0,0-3.83-11.07c-1-2.74-2.28-5.4-3.42-8.1-.91-2.16-1.77-4.34-2.69-6.5-.49-1.17-1-2.31-1.58-3.46-.07-.15-.19-.2-.29,0A1.38,1.38,0,0,0,211.33,137Z"/><path class="cls-9" d="M322,219a19.27,19.27,0,0,1-3.05-1c-2.82-.94-5.62-1.92-8.51-2.62a9.12,9.12,0,0,0-1.14-.21c-.16,0-.24.14-.29.28a16.09,16.09,0,0,0-3.72-2.26,23.15,23.15,0,0,0-5.07-1.22,3.8,3.8,0,0,0-1.3.08c-.38.09-.76.14-1.14.2a10.21,10.21,0,0,0-5.06,2,7.74,7.74,0,0,1-1,.61,8.55,8.55,0,0,0-2.3.26,39.49,39.49,0,0,0-5.52,1.79.77.77,0,0,0-.49.65c-.21-.11-.38-.31-.66-.15s-.63.27-.93.44a21.45,21.45,0,0,0-4.76,4.88,4.89,4.89,0,0,0-2.13,2.74h0l-.25.15a13,13,0,0,0-1.6,2.09,73.11,73.11,0,0,0-4.46,8.09,16.65,16.65,0,0,0-1.48,3.1,1.08,1.08,0,0,1-.48.69,1.21,1.21,0,0,1-1.16-1.18,15.56,15.56,0,0,0,1.13-2.93c.37-.2.47-.59.64-.93.64-1.24,1.27-2.49,1.9-3.73.34-.61.7-1.22,1-1.83.11-.2.27-.4.1-.65a11.24,11.24,0,0,0,2.33-3.37s-.05-.07-.09-.1a5.46,5.46,0,0,0,1.34-1.33,47.43,47.43,0,0,1,6.32-6.74,7.09,7.09,0,0,0,1.43-2.19c.08-.13,0-.37-.07-.56a1.78,1.78,0,0,0,1.27-.89,21.19,21.19,0,0,1,1.71-2.17,29,29,0,0,1,4.67-4.18,1.79,1.79,0,0,0,1-1.37c.26.09.5.3.8.07a8.2,8.2,0,0,1,.76-.43,22.77,22.77,0,0,1,9.06-3,18.39,18.39,0,0,1,6.36.39,8.37,8.37,0,0,1,1.15.18,30.37,30.37,0,0,1,5.54,2.18c.47.25,1,.36,1.33.85a3.08,3.08,0,0,0,.56,1.49Z"/><path class="cls-12" d="M232.26,171.62a12.73,12.73,0,0,0-4.24-1.47,6.39,6.39,0,0,0-.85-.17c-.84,0-1.17-.56-1.33-1.28a76.69,76.69,0,0,0-2.43-8.13c-1-2.86-2-5.71-3.24-8.48-1-2.13-1.74-4.35-2.71-6.48-1.4-3.06-2.47-6.27-4-9.27-.22-.44-.45-.89-.06-1.36.78.73,1.56,1.48,2.35,2.2a81.58,81.58,0,0,0,8.44,6.61c1.85,1.28,3.69,2.58,5.42,4A26.56,26.56,0,0,1,239.15,164a22.11,22.11,0,0,1,.08,5.86,5.43,5.43,0,0,1-2.32.72C235.37,171,233.81,171.29,232.26,171.62Z"/><path class="cls-9" d="M186.66,414.92a14.08,14.08,0,0,1-6.49-.81c-6-2.28-10.75-6-13.8-11.68a21.91,21.91,0,0,1-2.7-10.56,40.07,40.07,0,0,1,2.11-13,26.33,26.33,0,0,1,6.67-10.08,11.81,11.81,0,0,1,3.76-2.51,6,6,0,0,1,3.29-.53,4.51,4.51,0,0,1,3.61,2.44,2.15,2.15,0,0,1-.51,1.49,44.52,44.52,0,0,1-3.37,4,19.3,19.3,0,0,0-2.84,3.52c-1,1.71-2,3.48-3.06,5.16a25.91,25.91,0,0,0-2.59,5.73,15.32,15.32,0,0,0-.54,3,6.64,6.64,0,0,0,.05,2,61.74,61.74,0,0,0,1.85,7.07,19.67,19.67,0,0,0,.87,2.32,22.41,22.41,0,0,0,2.5,3.77,18.5,18.5,0,0,0,4.3,3.94c1.48,1,3.07,1.89,4.62,2.81A6.35,6.35,0,0,1,186.66,414.92Z"/><path class="cls-8" d="M191.36,178.69a7.19,7.19,0,0,0,1.77,2.65,1.45,1.45,0,0,0,.89,1.49,3.45,3.45,0,0,0,.17,1.27c.37,1.14.69,2.3,1,3.44a2.25,2.25,0,0,0,0,.58,15.92,15.92,0,0,1,.27,4.3c0,.68-.06,1.37-.13,2.05a15.55,15.55,0,0,1-2.24,6,1.67,1.67,0,0,1-.77-1c-.76-1.7-1.49-3.4-2.28-5.09a21.65,21.65,0,0,0-5.44-7.21,25,25,0,0,0-4.68-3.26,27.28,27.28,0,0,0-4.39-2c-1.67-.52-3.38-1-5.08-1.37-1-.24-2-.39-3-.56a7.59,7.59,0,0,0-1.17,0,8,8,0,0,1-2.33-.23,4.72,4.72,0,0,0-1.31-.07l-8.38,0,.49-.43c2.12-.76,4.25-1.46,6.33-2.3,2.59-1,5.13-2.17,7.67-3.29a5.7,5.7,0,0,0,2.09-1,13.15,13.15,0,0,0,1.86-.18,14.85,14.85,0,0,1,3.7-.42c.67.05,1.35,0,2,0a2.64,2.64,0,0,1,1.12.14,1.17,1.17,0,0,0,1.21-.14,1.15,1.15,0,0,0,.91.61,14.74,14.74,0,0,1,6.07,3,1.12,1.12,0,0,0,.66.26A19.59,19.59,0,0,0,191.36,178.69Z"/><path class="cls-11" d="M174,266.76c0,.27,0,.53,0,.8l-4.74.75c-1.39.22-2.77.55-4.17.69a27.61,27.61,0,0,0-5.84,1.24,17.07,17.07,0,0,0-7.9,5.85,26.66,26.66,0,0,0-3.27,5.7,11.17,11.17,0,0,0-.87,2.79c-.24,1.39-.45,2.78-.64,4.17s-.17,2.82-.22,4.24c0,.63,0,1.27,0,1.9a24.27,24.27,0,0,0,.52,4.34,1,1,0,0,1-.15,1c-1-2.47-2-4.9-2.85-7.4a26.82,26.82,0,0,1,.65-19.64,21,21,0,0,1,1.65-3.11,54.46,54.46,0,0,1,5-6.53,12.84,12.84,0,0,1,5.56-3.69,20.75,20.75,0,0,1,6.31-1.25,9.7,9.7,0,0,1,7.38,2.68c.29.28.46.79,1,.68h0c0,.58.12.65.59.6h0c-.06.14-.11.29,0,.37s.16,0,.25-.06h0c-.07.06-.19.14-.18.17.14.43.23.9.77,1v0A7.73,7.73,0,0,0,174,266.76Z"/><path class="cls-8" d="M291.74,214.88a7.74,7.74,0,0,0,1-.61,10.21,10.21,0,0,1,5.06-2c.38-.06.76-.11,1.14-.2a3.8,3.8,0,0,1,1.3-.08,23.15,23.15,0,0,1,5.07,1.22,16.09,16.09,0,0,1,3.72,2.26l1.53.94a1.17,1.17,0,0,0,.46.88,18.22,18.22,0,0,1,2.08,2.63c1.59,2.28,2.91,4.73,4.38,7.08a44.9,44.9,0,0,1,2.33,4.39,14.13,14.13,0,0,1,1,2.69,16.52,16.52,0,0,1,1.17,4.37,28.1,28.1,0,0,1-.05,9.33c-.54,3.32-1.14,6.63-1.71,9.95-.1.58-.19,1.17-.84,1.43,0-.44,0-.88-.05-1.32-.12-4,.25-7.93-.27-11.89a19.29,19.29,0,0,0-1-4.4,36.08,36.08,0,0,0-3.24-6.89,25.43,25.43,0,0,0-3.81-5,39,39,0,0,0-2.85-2.76,46.27,46.27,0,0,0-4.32-3,33.3,33.3,0,0,0-8.22-3.44,37.56,37.56,0,0,0-4.16-.78,2.53,2.53,0,0,0-2.12.23l-.3-.28a2.87,2.87,0,0,1,.55-1.88,10.37,10.37,0,0,1,1.36-1.66A1.94,1.94,0,0,0,291.74,214.88Z"/><path class="cls-8" d="M232.26,171.62c1.55-.33,3.11-.65,4.65-1a5.43,5.43,0,0,0,2.32-.72,2.61,2.61,0,0,0,1.44-.07A33.89,33.89,0,0,1,251,169.6a17.75,17.75,0,0,1,5.35,1.39c.47,0,.79.35,1.21.48a9,9,0,0,1,3.62,2.15,1.37,1.37,0,0,0,1.07.38,4,4,0,0,0,1,1.73,11.41,11.41,0,0,1,2,4,13.11,13.11,0,0,1,.26,3,2.89,2.89,0,0,1-.41,1.38c-.35.7-.73,1.38-1.05,2.09a9.44,9.44,0,0,0-.91,3.65,8.11,8.11,0,0,0,.41,2.14,1.75,1.75,0,0,1,0,1.13.93.93,0,0,0,.14,1.09,3.45,3.45,0,0,0-.16,1.43c.33,2.31.64,4.62,1,6.94a56.22,56.22,0,0,1,.78,5.64,24.14,24.14,0,0,1-1,5.19c0,.08-.13.13-.2.2-.35-.29-.26-.7-.27-1.08a19.57,19.57,0,0,0-.1-2.77,10.66,10.66,0,0,1-.21-2,25.23,25.23,0,0,0-.78-6c-.07-.36,0-.8-.36-1.06a6.11,6.11,0,0,0-.1-1.43,8.26,8.26,0,0,1-.23-2.42,6.23,6.23,0,0,1-.3-2.31.92.92,0,0,0-.29-.93c0-.42.15-.89-.33-1.18a2,2,0,0,0,0-1.15,33.66,33.66,0,0,1-.66-3.85c0-.14-.13-.26-.19-.38a5.76,5.76,0,0,0-1.77-3.88c-.53-.51-1-1.07-1.56-1.55a10.68,10.68,0,0,0-6.45-2.74c-.36-.5-.94-.45-1.45-.56l-10.22-2a1.84,1.84,0,0,0-1.16,0,.84.84,0,0,0-.59-.37,51.48,51.48,0,0,1-5.08-1.23c-.7-.19-1.4-.36-2.1-.56a5.07,5.07,0,0,1-.94-.36.89.89,0,0,1-.44-1,.77.77,0,0,1,.83-.67A7.72,7.72,0,0,0,232.26,171.62Z"/><path class="cls-9" d="M152.79,260.2a3.68,3.68,0,0,1,1.62-1.22,99.93,99.93,0,0,0,9.46-5.86,54.69,54.69,0,0,0,5.65-4.42c1.59-1.39,3-2.91,4.58-4.33a40.94,40.94,0,0,1,10.28-7.2,4.69,4.69,0,0,1,3-.46,12.64,12.64,0,0,0,3.06.23,9.43,9.43,0,0,1,3.16.51,21.11,21.11,0,0,1,3.69,1.41,2.65,2.65,0,0,0,.57.15l.43.36c-1.39.82-2.8,1.6-4.16,2.45a87.6,87.6,0,0,0-7.2,5,40.81,40.81,0,0,1-10.32,5.75c-2.14.81-4.32,1.52-6.48,2.28l-2.51.76a14.82,14.82,0,0,1-2.91.89,66.22,66.22,0,0,0-9.49,3.31c-.49.2-1,.41-1.49.57A.75.75,0,0,1,152.79,260.2Z"/><path class="cls-12" d="M327.59,204.59a35.42,35.42,0,0,1,7.17,3.67,6.67,6.67,0,0,0,.64.37A27.43,27.43,0,0,1,347.14,220a43,43,0,0,1,3.19,7.09,32.77,32.77,0,0,1,1.38,7.35c.06.63.11,1.27.13,1.91a5.09,5.09,0,0,1-.13,1.16.81.81,0,0,1-.73.63.85.85,0,0,1-.9-.36,4.09,4.09,0,0,1-.44-.92,23,23,0,0,0-3.61-6.69,61.26,61.26,0,0,0-4.21-5.28,93.22,93.22,0,0,0-6.86-7.06,28.56,28.56,0,0,0-9.69-5.68c-.51-.17-1-.38-1.5-.58a1,1,0,0,1,.27-.79,11.52,11.52,0,0,0,3.25-5.57C327.36,205,327.37,204.75,327.59,204.59Z"/><path class="cls-13" d="M141.63,181.93a1.8,1.8,0,0,0,1.81.2,8.24,8.24,0,0,1,2-.21,7,7,0,0,0,2-.21,5.86,5.86,0,0,1,1.46-.08,14.26,14.26,0,0,0,3.8-.26,3.46,3.46,0,0,1,1,0h8.68a4.47,4.47,0,0,1,1.74.2,1.93,1.93,0,0,0,.72.08,24.31,24.31,0,0,1,5.51.62c.87.15,1.71.43,2.55.66a26.82,26.82,0,0,1,5.85,2.32,25.83,25.83,0,0,1,4.3,3l.9.75c.19.15.45.27.56.47a27.26,27.26,0,0,0,1.93,2.39,19.91,19.91,0,0,1,2.37,4.19c.59,1.5,1.34,2.94,2,4.4.17.35.36.7.52,1.05.32.72.26,1-.39,1.32a6.63,6.63,0,0,1-.82.31,5.65,5.65,0,0,0-2.1-3.86c.16-.42-.19-.62-.39-.86a27.26,27.26,0,0,0-7.38-6A57.66,57.66,0,0,0,165.54,187a3.5,3.5,0,0,0-.73,0,27.6,27.6,0,0,0-6.38-1.17c-1.25-.15-2.5-.34-3.75-.45-1.74-.15-3.48-.25-5.22-.37l-2-.06a17.51,17.51,0,0,1-2.6-.2,9.34,9.34,0,0,0-2.89,0,8,8,0,0,1-1.87.19,1.75,1.75,0,0,0-1.41.59c0-.23,0-.51-.34-.48-1.27.1-2.53.22-3.79.27a14.51,14.51,0,0,1-4.21-.34,2.3,2.3,0,0,1-1.05-.48c-.31-.27-.53-.58-.28-1a5.42,5.42,0,0,0,1.46-.08c1.08-.35,2.24-.08,3.31-.5,1.9.13,3.77-.44,5.68-.31A2,2,0,0,0,141,182Z"/><path class="cls-9" d="M320.31,263.94a1.36,1.36,0,0,1-.42.73c-.14.11-.19.32-.28.48a5,5,0,0,0-2,.68,9.55,9.55,0,0,0-3.08,1.18,3.21,3.21,0,0,1-1.61.56,134.76,134.76,0,0,1-5.66-12.35,1.48,1.48,0,0,1,.52-.95,1.12,1.12,0,0,0,.41-.84,2,2,0,0,0-.58-1.78c-.1-.28-.19-.55-.29-.82-.39-1.05-.83-2.08-1.17-3.15-.46-1.43-.79-2.91-1.27-4.33a16.46,16.46,0,0,0-4.12-6.63,26.92,26.92,0,0,0-3.32-2.62c-.28-.2-.6-.33-.72-.68a8.63,8.63,0,0,0,1-.1,10.59,10.59,0,0,1,5.15.4c.07.07.14.18.21.19a2.68,2.68,0,0,1,1.72,1c1.34,1.37,2.69,2.7,4,4.05a6.15,6.15,0,0,1,.69.76c1,1.45,2.07,2.82,3,4.33a39.27,39.27,0,0,1,3.48,7.71c.41,1.19.71,2.43,1.05,3.64.08.29.3.36.55.41a5.91,5.91,0,0,0,.3,2.28,1.65,1.65,0,0,0,1.45,1.24C319.66,260.85,320,262.4,320.31,263.94Z"/><path class="cls-14" d="M327.59,204.59c-.22.16-.23.4-.3.63a11.52,11.52,0,0,1-3.25,5.57,1,1,0,0,0-.27.79l-.37-.07c-.21-.28-.48-.15-.74-.09a34.54,34.54,0,0,1-3-2.55c-.33-.34-.63-.77-1.2-.75a8.92,8.92,0,0,0-3.22-2.45c-.31-.49-.86-.6-1.33-.85a30.37,30.37,0,0,0-5.54-2.18,8.37,8.37,0,0,0-1.15-.18c.13-1,.25-1.92.37-2.88l.58.43a10.88,10.88,0,0,0,5.35,2.73c1.39.22,2.73.6,4.1.9a5.91,5.91,0,0,1,3.4,3.62c.25.69.57,1.35.85,2a2.48,2.48,0,0,0,.62,1,.67.67,0,0,0,1-.05,1.27,1.27,0,0,0,.16-1.38q-.9-3-1.82-6c-.56-1.87-1.15-3.73-1.66-5.62a25.29,25.29,0,0,1-.85-5,4.79,4.79,0,0,0-.2-1q-1.14-4.33-2.29-8.64c-.29-1.09-.57-2.18-.89-3.25a6.7,6.7,0,0,1-.15-1.16c.2-.61.39-1.21.59-1.81a5.23,5.23,0,0,1,.35-1,1.08,1.08,0,0,1,1.63-.36,3.13,3.13,0,0,1,.69.76,96.6,96.6,0,0,1,7,11.69,22.63,22.63,0,0,1,2.25,11.66A44.62,44.62,0,0,1,327.59,204.59Z"/><path class="cls-12" d="M211.33,137a1.38,1.38,0,0,1,.08-.29c.1-.17.22-.12.29,0,.54,1.15,1.09,2.29,1.58,3.46.92,2.16,1.78,4.34,2.69,6.5,1.14,2.7,2.37,5.36,3.42,8.1a101.9,101.9,0,0,1,3.83,11.07c.27,1,.61,2,.91,3.08.13.45,0,.62-.49.64s-1.08,0-1.62,0a6.9,6.9,0,0,0-2.47.23,1.57,1.57,0,0,1-.72,0,32.5,32.5,0,0,0-4.52.33,8.67,8.67,0,0,0-2,.41,3.57,3.57,0,0,1-1.45.11c-.05-.19-.06-.4-.24-.53a22.54,22.54,0,0,1-.73-7.71,45.19,45.19,0,0,1,1.33-8.25c.37-1.62.72-3.25,1-4.89a24.18,24.18,0,0,0-.43-9.91A11.33,11.33,0,0,1,211.33,137Z"/><path class="cls-9" d="M261.07,235.12a44.92,44.92,0,0,0,4.37-6.88,23,23,0,0,0,2-5c.18-.63.06-1.26.22-1.88a.56.56,0,0,0,.5-.45,22.42,22.42,0,0,1,1.07-3.18c.42-1.13.7-2.32,1-3.48a2.31,2.31,0,0,0,.65-1c.75-1.54,1.65-3,2.54-4.46.78-1.29,1.49-2.63,2.3-3.91a1.77,1.77,0,0,0,.15-1.53.83.83,0,0,0,.93-.52,18.7,18.7,0,0,1,1.28-2.43,1.49,1.49,0,0,0,.07-1.75c.5.18.92.4,1.4-.2a7.52,7.52,0,0,1,2.71-2,23.44,23.44,0,0,1,5.37-1.93c2.24-.52,4.5-.94,6.74-1.47,1.85-.45,3.68-1,5.52-1.5a4.59,4.59,0,0,1,2.37,2.16,25,25,0,0,1-5.63,3.43c-3,1.41-5.91,2.84-8.78,4.44l-1,.59c-.23.14-.07.34-.07.52-.42.09-.87,0-1.27.24s-1,.59-1.5.9a52,52,0,0,0-4.55,3.38,2.25,2.25,0,0,0-1.07,1.51c-.41-.08-.62.22-.85.46a49.25,49.25,0,0,0-6.24,8.14,8.21,8.21,0,0,0-.56,1.2,16,16,0,0,0-1.22,5.1c-.17-.05-.38-.18-.46.09s-.15.67-.25,1a31.06,31.06,0,0,1-2.77,5.93,3.28,3.28,0,0,0-.79,2.28l0,.13-.13,0a.65.65,0,0,0-.45.46,12.6,12.6,0,0,0-1.7,2.75A4.35,4.35,0,0,1,261.07,235.12Z"/><path class="cls-15" d="M301.42,281.41a22.26,22.26,0,0,1,9.86.9,9.68,9.68,0,0,1,6.4,5.83,10.12,10.12,0,0,1,.72,4.17,12.71,12.71,0,0,1-.81,4.17,19.79,19.79,0,0,1-3,5.37,27.9,27.9,0,0,0-3.61,5.52,3.56,3.56,0,0,1-.43.59c0-1.95-.07-3.91,0-5.86a22.86,22.86,0,0,0-.79-6.06,27.7,27.7,0,0,0-7.15-13c-.32-.29-.62-.62-.93-.93A1,1,0,0,1,301.42,281.41Z"/><path class="cls-14" d="M320.84,234.05a14.13,14.13,0,0,0-1-2.69,44.9,44.9,0,0,0-2.33-4.39c-1.47-2.35-2.79-4.8-4.38-7.08a18.22,18.22,0,0,0-2.08-2.63,1.17,1.17,0,0,1-.46-.88,19.6,19.6,0,0,1,7.73,3.36,24.46,24.46,0,0,1,4.83,4.48c.75.9,1.46,1.84,2.17,2.77s1.56,2.13,2.36,3.19a55.82,55.82,0,0,0,10.64,11.07,16.68,16.68,0,0,1,1.56,1.34.87.87,0,0,1,.19,1.19.93.93,0,0,1-1.15.38,11.3,11.3,0,0,1-1.35-.56c-1.73-.8-3.44-1.64-5.18-2.42a37.29,37.29,0,0,1-6.57-3.85l-4-3C321.49,234.18,321.24,233.92,320.84,234.05Z"/><path class="cls-14" d="M270.25,214.24c-.34,1.16-.62,2.35-1,3.48a22.42,22.42,0,0,0-1.07,3.18.56.56,0,0,1-.5.45l0-4.36c0-2.38-.13-4.75-.36-7.12a11.38,11.38,0,0,1,.8-3.55q2.88-9.44,5.52-18.95a15.9,15.9,0,0,1,2.6-5.69,7.6,7.6,0,0,0,.5-.89l.55-.06a15.77,15.77,0,0,1,1.63,3.26,13.27,13.27,0,0,1,.21,9.15,27.51,27.51,0,0,1-1.4,3.37c-.63,1.3-.62,1.31.51,2.18a1.49,1.49,0,0,1-.07,1.75,18.7,18.7,0,0,0-1.28,2.43.83.83,0,0,1-.93.52l-.79-2c-.15.07-.27.08-.32.15-1.48,2.13-3.06,4.19-4.71,6.2a1.33,1.33,0,0,0-.25,1.23A26.6,26.6,0,0,1,270.25,214.24Z"/><path class="cls-9" d="M305.89,168.37a7.22,7.22,0,0,1-2.3-1.2,38.47,38.47,0,0,0-7.61-3.69c-1.61-.54-3.28-.85-4.94-1.23a4.26,4.26,0,0,0-.88,0c-.92,0-1.85,0-2.78,0a17.42,17.42,0,0,0-5.47.69,10.24,10.24,0,0,1-1.43.26A25.34,25.34,0,0,0,272,161.6c-.44,0-.88,0-1.32,0a.9.9,0,0,1-.76-.79.81.81,0,0,1,.42-.87,3.29,3.29,0,0,1,1.36-.5A92.23,92.23,0,0,0,286,156.73a31.83,31.83,0,0,1,4.33-.84,11.7,11.7,0,0,1,8.22,2,18.36,18.36,0,0,1,7.11,9.47C305.75,167.7,305.81,168,305.89,168.37Z"/><path class="cls-9" d="M144.88,230a1.16,1.16,0,0,0-.13-.87h0a.25.25,0,0,1-.17-.21,8.18,8.18,0,0,0-.13-1.3c-.36-1.26-.7-2.52-1-3.8a24.27,24.27,0,0,1-.63-3.57,28.89,28.89,0,0,1-.35-4.35,2.06,2.06,0,0,0-.1-.86,4.21,4.21,0,0,1-.17-1.45v-6a35.85,35.85,0,0,0-.49-5.66c.53.17.74.65,1,1.06a24.91,24.91,0,0,1,2.17,5.26,16.76,16.76,0,0,1,.9,5.16c.52,1.6,0,3.31.56,4.91a32.23,32.23,0,0,0,.61,5.36,28.73,28.73,0,0,0,2.88,8.4,23.36,23.36,0,0,0,4.3,6.06,1.21,1.21,0,0,1,.47.88,2.88,2.88,0,0,1-1.67-.36,6.18,6.18,0,0,0-1.84-.81l-.3-.28a19.28,19.28,0,0,1-2.05-1.88c-.76-.61-1-1.67-2-2.16a22.81,22.81,0,0,0-1.94,2,29.61,29.61,0,0,0-3.77,6.25,26.55,26.55,0,0,0-1.7,6c-.2,1.06-.21,2.14-.38,3.19a18.45,18.45,0,0,0-.21,2.77c0,2.5,0,5,0,7.5a11.43,11.43,0,0,0,0,1.17c0,.28.28.38.53.42a7.55,7.55,0,0,1,0,1.9,2.76,2.76,0,0,1-.17.7.88.88,0,0,1-.87.65.87.87,0,0,1-.87-.67,5.49,5.49,0,0,1-.36-1.7s.1-.08.09-.1l-.14-.18h0c0-.27,0-.54,0-.81a.61.61,0,0,0,.28-.76,4.8,4.8,0,0,1-.2-1.88q0-3.44,0-6.89a4.67,4.67,0,0,1,.11-1.3,5.75,5.75,0,0,0,.18-1.59,9,9,0,0,1,.05-1.17c.16-1,.32-2,.56-3a29,29,0,0,1,2-5.95,31.11,31.11,0,0,1,5.13-7.42c.84-.94,1.21-1,.12-2.46Z"/><path class="cls-12" d="M144.88,230l.16.24c1.09,1.46.72,1.52-.12,2.46a31.11,31.11,0,0,0-5.13,7.42,29,29,0,0,0-2,5.95c-.24,1-.4,2-.56,3a9,9,0,0,0-.05,1.17,5.75,5.75,0,0,1-.18,1.59,4.67,4.67,0,0,0-.11,1.3q0,3.45,0,6.89a4.8,4.8,0,0,0,.2,1.88.61.61,0,0,1-.28.76.31.31,0,0,0-.23,0l0-.07s0-.08,0-.1-.08-.09-.11-.14l-.17-.44c.05-.19,0-.35-.17-.44-.85-1.82-1.68-3.65-2.56-5.46a19.73,19.73,0,0,1-1.89-7.65,13.69,13.69,0,0,1,.24-3.07,22.5,22.5,0,0,1,5.27-11,11.77,11.77,0,0,1,5.63-3.82C143.53,230.21,144.21,230.11,144.88,230Z"/><path class="cls-13" d="M268.8,245.86c0-.51-.05-1-.08-1.52-.31-.24-.26-.57-.25-.89a9.78,9.78,0,0,1-1.79-3.85,1.21,1.21,0,0,1-1.16-1.18c-.33,0-.51-.26-.73-.45l-1.85-1.63a4.26,4.26,0,0,1-1.87-1.22c-.67-.12-1.33-.29-2-.35a3.82,3.82,0,0,0-3.32,1.17,13.46,13.46,0,0,0-2.65,3.84c-.62,1.39-1.17,2.8-1.74,4.2a4.48,4.48,0,0,0-.22.71c.58,0,1.17-.06,1.75-.06a42,42,0,0,1,1.86-4.17,19.15,19.15,0,0,1,1.29-2.13,4.27,4.27,0,0,1,1.78-1.5.84.84,0,0,1,1,.09c.18.16.35.34.52.51s.11.47.18.69a2.92,2.92,0,0,1-.09,2.23,6.58,6.58,0,0,1-.84,1.8,1.72,1.72,0,0,1-.11.42,1.14,1.14,0,0,0,.38,1.65,8.5,8.5,0,0,1,1.64,2c.44.7.85,1.41,1.23,2.15,1.23,2.43,2.43,4.88,3.66,7.31a3.21,3.21,0,0,0,.74,1.24,9.23,9.23,0,0,0,2.36-4.61A15.45,15.45,0,0,0,268.8,245.86Z"/><path class="cls-9" d="M173.42,232.83c.64.23,1.3.41,1.92.7a29.62,29.62,0,0,0,6.47,2.28c.14,0,.31.09.29.27a.68.68,0,0,1-.18.37,1.13,1.13,0,0,1-.36.24,38.77,38.77,0,0,0-4.7,3,13.46,13.46,0,0,0-2.25,1.87c-1.8,1.88-3.82,3.51-5.67,5.32a43.11,43.11,0,0,1-7.77,5.94c-1,.64-2,1.34-3.07,2-.62.4-1.24.79-1.87,1.16-.19.12-.37,0-.48-.18,1.14-1.24,2.27-2.47,3.4-3.72.29-.32.54-.67.81-1,.76-.88,1.53-1.75,2.28-2.65.34-.41.64-.86.94-1.3a.48.48,0,0,0-.12-.75c-1.57-1.16-3.15-2.32-4.67-3.53a19.49,19.49,0,0,1-3.51-3.52c.52,0,1.11.2,1.53-.32a1.36,1.36,0,0,1,.75.41,53,53,0,0,0,5.36,4.43,13,13,0,0,0,1.6,1,.59.59,0,0,0,.79-.15,3.42,3.42,0,0,0,.85-1.49c.41-.22.54-.68.8-1a12,12,0,0,1,.79-1,5.5,5.5,0,0,0,1.22-1.82,7.55,7.55,0,0,1,1.22-2Z"/><path class="cls-14" d="M262.27,174a1.37,1.37,0,0,1-1.07-.38,9,9,0,0,0-3.62-2.15c-.42-.13-.74-.5-1.21-.48a1.38,1.38,0,0,0-.23-1.11c-.86-1.81-1.69-3.63-2.57-5.43-1.38-2.81-2.79-5.61-4.17-8.41a12.72,12.72,0,0,1-.64-1.48,1.14,1.14,0,0,1,.24-1.36,1.11,1.11,0,0,1,1.47.16,6.22,6.22,0,0,1,.75.7c4.59,5,9.62,9.48,14.5,14.15,1.38,1.32,2.72,2.67,4.08,4-1.17.22-2.36.37-3.51.68A27.78,27.78,0,0,0,262.27,174Z"/><path class="cls-12" d="M139.26,262.84c-.25,0-.5-.14-.53-.42a11.43,11.43,0,0,1,0-1.17c0-2.5,0-5,0-7.5a18.45,18.45,0,0,1,.21-2.77c.17-1,.18-2.13.38-3.19a26.55,26.55,0,0,1,1.7-6,29.61,29.61,0,0,1,3.77-6.25,22.81,22.81,0,0,1,1.94-2c1,.49,1.28,1.55,2,2.16a19.28,19.28,0,0,0,2.05,1.88,1.56,1.56,0,0,0-.19.39,25,25,0,0,1-3.82,7.57c-.76,1.08-1.54,2.15-2.31,3.22a29.55,29.55,0,0,0-3.82,7.08,19.08,19.08,0,0,0-1.24,5.72C139.37,262,139.31,262.41,139.26,262.84Z"/><path class="cls-7" d="M317.61,265.83a5,5,0,0,1,2-.68,19,19,0,0,1,3.2-.26,6.44,6.44,0,0,1,1.57.26,19.52,19.52,0,0,1,8.22,4.9,13.7,13.7,0,0,1,3.79,7.29,6.91,6.91,0,0,1,0,1,10.17,10.17,0,0,0,.18,1.74,8.07,8.07,0,0,1,0,3.21,8.12,8.12,0,0,0-.17,1.3,27,27,0,0,1-2.1,9.8c-.69,1.72-1.38,3.44-2.15,5.13a28.68,28.68,0,0,1-4,6.64,18.87,18.87,0,0,1-3.38,3.24,5.13,5.13,0,0,0-1,.89,33.71,33.71,0,0,0-4.41,6,1.43,1.43,0,0,0-.08.43,1.89,1.89,0,0,1-1.13.55A1,1,0,0,1,317,316a1.39,1.39,0,0,1,.54-.83c.14.21.32.23.46,0,.42-.6.86-1.19,1.22-1.83a22.89,22.89,0,0,1,5.2-5.93,21,21,0,0,0,5.18-6.81,62.82,62.82,0,0,0,3.71-8.6,35.84,35.84,0,0,0,1.09-4.69c.21-1.12.12-2.24.29-3.34a26.64,26.64,0,0,0,0-4.64,11.7,11.7,0,0,0-2.16-6.57,14.49,14.49,0,0,0-2.87-2.93,18,18,0,0,0-5.13-2.79,7.81,7.81,0,0,0-5,0,25.18,25.18,0,0,0-2.54,1.05,1.6,1.6,0,0,1-1.14.29c-.1-.6.28-1,.61-1.37S317.52,266.5,317.61,265.83Z"/><path class="cls-12" d="M138.65,185.44a1.75,1.75,0,0,1,1.41-.59,8,8,0,0,0,1.87-.19,9.34,9.34,0,0,1,2.89,0,17.51,17.51,0,0,0,2.6.2l2,.06c-.13.21-.24.43-.37.63a18.77,18.77,0,0,0-3.2,8.51,21.74,21.74,0,0,0-.14,5.81,2.08,2.08,0,0,0-.3,1.19,16.58,16.58,0,0,1-2-1.86c-.29-.26-.55-.54-1-.48l-.81,0c-.86-1.68-1.75-3.36-2.59-5a16.61,16.61,0,0,1-1.39-4.13A4.6,4.6,0,0,1,138.65,185.44Z"/><path class="cls-7" d="M146.71,300.2a1,1,0,0,0,.15-1,24.27,24.27,0,0,1-.52-4.34c0-.63,0-1.27,0-1.9,0-1.42,0-2.82.22-4.24s.4-2.78.64-4.17a11.17,11.17,0,0,1,.87-2.79,26.66,26.66,0,0,1,3.27-5.7,17.07,17.07,0,0,1,7.9-5.85,27.61,27.61,0,0,1,5.84-1.24c1.4-.14,2.78-.47,4.17-.69l4.74-.75.93,1.14a1.61,1.61,0,0,1-1.28.61,17.41,17.41,0,0,0-3.59.62c-1.2.24-2.38.47-3.6.6a30.94,30.94,0,0,0-7.81,1.78l-.4.19a15.45,15.45,0,0,0-5.17,4.23,24.59,24.59,0,0,0-2.66,4.2,17.82,17.82,0,0,0-1.76,5.55,43,43,0,0,0-.52,8.89c.05,1.16.29,2.31.45,3.46a27.56,27.56,0,0,0,.43,2.89c.32,1.24.18,2.52.48,3.76a9.61,9.61,0,0,1,0,2.34c0,.11-.16.22-.25.34,0-.33-.31-.47-.52-.67a1.54,1.54,0,0,1-.55-1.14,14.77,14.77,0,0,0-.86-3.94C147.12,301.67,146.92,300.93,146.71,300.2Z"/><path class="cls-8" d="M186.66,414.92a6.35,6.35,0,0,0-2.27-1.81c-1.55-.92-3.14-1.77-4.62-2.81a18.5,18.5,0,0,1-4.3-3.94,22.41,22.41,0,0,1-2.5-3.77,19.67,19.67,0,0,1-.87-2.32,61.74,61.74,0,0,1-1.85-7.07,6.64,6.64,0,0,1-.05-2,15.32,15.32,0,0,1,.54-3,25.91,25.91,0,0,1,2.59-5.73c1.07-1.68,2-3.45,3.06-5.16a19.3,19.3,0,0,1,2.84-3.52,44.52,44.52,0,0,0,3.37-4,2.15,2.15,0,0,0,.51-1.49c.37.29.41.75.58,1.15s.35.27.59.27a3.78,3.78,0,0,1-.81,1.85,7.48,7.48,0,0,1-.79,1.06c-.76.89-1.49,1.81-2.32,2.64a24.26,24.26,0,0,0-3.51,4.68c-1,1.72-2.07,3.43-3,5.2a16.62,16.62,0,0,0-1.6,4.39,11.34,11.34,0,0,0-.28,1.73,9,9,0,0,0,.26,2.91c.57,2.17,1.16,4.33,1.81,6.48a10.51,10.51,0,0,0,1.68,3.24A20.63,20.63,0,0,0,182.5,410c.38.21.75.47,1.12.69a.49.49,0,0,0,.54-.08l2.39,1.94a9.85,9.85,0,0,1,.77.68,1,1,0,0,1,.34,1.06A.88.88,0,0,1,186.66,414.92Z"/><path class="cls-8" d="M319.34,259.31a1.65,1.65,0,0,1-1.45-1.24,5.91,5.91,0,0,1-.3-2.28c-.1-3.12.2-6.24-.24-9.36a24.82,24.82,0,0,0-.8-3.85,37.5,37.5,0,0,0-2.94-6.53,25.42,25.42,0,0,0-4.16-5.62,30.7,30.7,0,0,0-5.58-4.46,29.61,29.61,0,0,0-9.52-4,11.33,11.33,0,0,0-4.17-.54,1.11,1.11,0,0,1-.54-.91.84.84,0,0,0-.29-.61,2.53,2.53,0,0,1,2.12-.23,37.56,37.56,0,0,1,4.16.78,33.3,33.3,0,0,1,8.22,3.44,46.27,46.27,0,0,1,4.32,3,39,39,0,0,1,2.85,2.76,25.43,25.43,0,0,1,3.81,5,36.08,36.08,0,0,1,3.24,6.89,19.29,19.29,0,0,1,1,4.4c.52,4,.15,7.93.27,11.89,0,.44,0,.88.05,1.32A.13.13,0,0,1,319.34,259.31Z"/><path class="cls-9" d="M178.43,171.91c-.68,0-1.36.05-2,0a14.85,14.85,0,0,0-3.7.42,13.15,13.15,0,0,1-1.86.18,6.79,6.79,0,0,1,1.43-3.77,14.11,14.11,0,0,1,4.1-3.71,20.67,20.67,0,0,1,4.94-2.15l1.27-.38a12.12,12.12,0,0,0,5.21-2,2.67,2.67,0,0,0,1.14-.54l1.22-.72a.28.28,0,0,1,.14.36,3,3,0,0,1-.87,1.16c-2.29,2.2-4.41,4.57-6.85,6.62A22.24,22.24,0,0,0,178.43,171.91Z"/><path class="cls-8" d="M163.1,365.32a19.61,19.61,0,0,0-.48-4.64c-.14-.81-.24-1.64-.34-2.45-.22-1.79-.64-3.55-.84-5.33A24.46,24.46,0,0,1,161,349a5.07,5.07,0,0,0-.18-1.89,3.72,3.72,0,0,1-.09-1.16c0-1.33,0-2.65,0-4a7.07,7.07,0,0,0-.21-2.33,3.43,3.43,0,0,1-.07-1.16c0-1.37,0-2.74,0-4.12a12.91,12.91,0,0,0-.22-2.76,13.74,13.74,0,0,1-.07-2.49,6.35,6.35,0,0,0-.2-2,3.14,3.14,0,0,1-.09-1,12.2,12.2,0,0,0-.25-3.35c-.15-.47.2-.73.68-.62a1.43,1.43,0,0,1,1.23,1.24,2.26,2.26,0,0,1,.09.57c-.11,2.3.49,4.57.32,6.88a3.18,3.18,0,0,0,.12,1.15,5.16,5.16,0,0,1,.16,1.45c0,1.18,0,2.36,0,3.53a10.14,10.14,0,0,0,.24,3.2,3.54,3.54,0,0,1,0,1c0,1.22,0,2.45,0,3.67a8.39,8.39,0,0,0,.25,2.91,1.27,1.27,0,0,1,0,.44,38.19,38.19,0,0,0,.55,5.22c.23,1.83.56,3.65.88,5.47.17,1,.22,2,.35,3,.1.72.22,1.44.35,2.16,0,.23.27.25.46.31-.44.75-1,1.34-1.94,1.18C163.33,365.51,163.22,365.39,163.1,365.32Z"/><path class="cls-8" d="M141.67,198.7l.81,0a2.08,2.08,0,0,0,.38,1.09,43.31,43.31,0,0,1,2.33,4.23,27.84,27.84,0,0,1,2.07,6.38c.22,1,.06,2.07.32,3,.41,1.58,0,3.24.51,4.78a26.15,26.15,0,0,0,.59,4.92,30.55,30.55,0,0,0,2.31,7.22,40.19,40.19,0,0,0,3.45,5.61,2.4,2.4,0,0,0,1.54,1.27,4.4,4.4,0,0,0,.43,1.71c-.42.52-1,.27-1.53.32l-.29-.29a1.21,1.21,0,0,0-.47-.88,23.36,23.36,0,0,1-4.3-6.06,28.73,28.73,0,0,1-2.88-8.4,32.23,32.23,0,0,1-.61-5.36c-.53-1.6,0-3.31-.56-4.91a16.76,16.76,0,0,0-.9-5.16A24.91,24.91,0,0,0,142.7,203c-.22-.41-.43-.89-1-1.06-.11-.56-.23-1.12-.34-1.69A2.08,2.08,0,0,1,141.67,198.7Z"/><path class="cls-14" d="M191.36,178.69a19.59,19.59,0,0,1-3-2.94c.41-.55.83-1.09,1.21-1.65a10,10,0,0,0,1.71-4.9,14.59,14.59,0,0,0-.45-3.59,6.9,6.9,0,0,1-.36-2.29A23.6,23.6,0,0,1,198.25,174a7.54,7.54,0,0,1,.21.85c-.25.55-.77.7-1.27.9-1.94.79-3.77,1.81-5.64,2.75C191.47,178.51,191.42,178.61,191.36,178.69Z"/><path class="cls-9" d="M262.27,174a27.78,27.78,0,0,1,4-1.1c1.15-.31,2.34-.46,3.51-.68a11.53,11.53,0,0,1,2.74-.32c.89.21.95.21.91,1a8.33,8.33,0,0,0,.37,2.59,6.75,6.75,0,0,1,.25,1.72,1.3,1.3,0,0,0-.41.11c-1.65,1.1-3.28,2.21-4.92,3.32l-3.21,2.21a13.11,13.11,0,0,0-.26-3,11.41,11.41,0,0,0-2-4A4,4,0,0,1,262.27,174Z"/><path class="cls-9" d="M240.9,244.78l1.53-.05a4.15,4.15,0,0,0,.41-1.15,1.28,1.28,0,0,0,0-1,2.74,2.74,0,0,1-.22-1.71c0-.88.12-1.76.17-2.64,0-.37.17-.7.25-1.39.1,2.22.19,4.07.27,5.91,0,.39.05.79.05,1.18,0,.19,0,.47-.09.56a1.58,1.58,0,0,0-.22.23c.9,0,1.8,0,2.7.07-.2-3.76-.36-7.52-.61-11.27-.13-2-.41-4-.62-6a6.74,6.74,0,0,0-2.65,2.2l-.66,4.67c0,.78-.07,1.55-.1,2.33s-.11,1.73-.19,2.59a48.18,48.18,0,0,0-.08,5.1A.78.78,0,0,0,240.9,244.78Z"/><path class="cls-9" d="M190.51,163.32a6.9,6.9,0,0,0,.36,2.29,14.59,14.59,0,0,1,.45,3.59,10,10,0,0,1-1.71,4.9c-.38.56-.8,1.1-1.21,1.65a1.12,1.12,0,0,1-.66-.26,14.74,14.74,0,0,0-6.07-3,1.15,1.15,0,0,1-.91-.61,10.8,10.8,0,0,1,.76-.89c1.37-1.31,2.66-2.72,4.15-3.92,1.24-1,2.3-2.26,3.45-3.39a3.71,3.71,0,0,1,1.11-.94Z"/><path class="cls-14" d="M154.59,239l.29.29a19.49,19.49,0,0,0,3.51,3.52c1.52,1.21,3.1,2.37,4.67,3.53a.48.48,0,0,1,.12.75c-.3.44-.6.89-.94,1.3-.75.9-1.52,1.77-2.28,2.65-.52-.37-1-.74-1.54-1.1a18.75,18.75,0,0,1-6.37-7.87,9.13,9.13,0,0,1-1-4.24,6.18,6.18,0,0,1,1.84.81A2.88,2.88,0,0,0,154.59,239Z"/><path class="cls-9" d="M237.56,328c0,1.41,0,2.82,0,4.24a12.74,12.74,0,0,0,.23,3.19,8.47,8.47,0,0,1,0,1.89l-1.45-.65c-.69-.28-.71-.28-1.06.27a22.81,22.81,0,0,0-1.93,3.74,7.34,7.34,0,0,0-.51,4.26c-.67,0-1.27.4-1.94.32a2.29,2.29,0,0,0,.06-.58,9.57,9.57,0,0,1,.85-5,26.59,26.59,0,0,1,1.53-3c.19-.33.36-.67.53-1-.23-.49-.68-.64-1-.92a6.57,6.57,0,0,1-1.79-2.1,3,3,0,0,1,.51-3.66,4.46,4.46,0,0,1,3.89-1.29C236.21,327.77,236.88,327.88,237.56,328Z"/><path class="cls-7" d="M301.42,281.41a1,1,0,0,0,.26.67c.31.31.61.64.93.93a27.7,27.7,0,0,1,7.15,13,22.86,22.86,0,0,1,.79,6.06c-.06,1.95,0,3.91,0,5.86a.83.83,0,0,1-.29.62c-.6.57-1,.48-1.54-.33,0-2.6,0-5.19,0-7.79a12,12,0,0,0-.35-2.16,25.8,25.8,0,0,0-3-8.66,19.77,19.77,0,0,0-2.64-3.85c-.36-.39-.65-.84-1-1.26a12.22,12.22,0,0,0-2.45-2.09,4.62,4.62,0,0,0-3.36-.73,2.07,2.07,0,0,0-1.27.68,11.74,11.74,0,0,0-1.57,1.73c-.55.84-.61.82-1.71.54-.22-.06-.49,0-.69-.28a42.26,42.26,0,0,0,3.05-3.85l.52,0a12.41,12.41,0,0,0,5,.92Z"/><path class="cls-13" d="M258.47,248.44a1.34,1.34,0,0,1,.65.75c1.26,2.52,2.54,5,3.77,7.57.36.73.59,1.53.88,2.3a9.18,9.18,0,0,1-3.78,1,26,26,0,0,1-4.23.32,2.93,2.93,0,0,1-1.28-.25,1.08,1.08,0,0,1-.55-1.47,6.62,6.62,0,0,1,.5-.9,30.16,30.16,0,0,0,3.77-8.69A5.52,5.52,0,0,1,258.47,248.44Z"/><path class="cls-14" d="M142.23,207.57v6a4.21,4.21,0,0,0,.17,1.45,2.06,2.06,0,0,1,.1.86,28.89,28.89,0,0,0,.35,4.35,24.27,24.27,0,0,0,.63,3.57c.28,1.28.62,2.54,1,3.8a8.18,8.18,0,0,1,.13,1.3,11.37,11.37,0,0,1-2.35-2.19,9.82,9.82,0,0,1-2.07-5.82,30,30,0,0,1,1.34-11.41A6,6,0,0,1,142.23,207.57Z"/><path class="cls-9" d="M318.46,208.12c.57,0,.87.41,1.2.75a34.54,34.54,0,0,0,3,2.55.21.21,0,0,0,.19.19c0,.44.42.65.68.92,2,2.1,3.75,4.39,5.56,6.63a3.36,3.36,0,0,1,.41.6.9.9,0,0,1-.7,1.31,2.17,2.17,0,0,1-1-.12l-3.17-1.13a.23.23,0,0,0-.3-.18h0a1.12,1.12,0,0,0-.18-.69q-1.38-2.49-2.74-5c-.33-.6-.69-1.17-1-1.78A26.68,26.68,0,0,1,318.46,208.12Z"/><path class="cls-12" d="M249.44,244.79a72,72,0,0,1,2.22-8.67c.23-.7.4-1.41.6-2.12a1,1,0,0,1-1.19-.62c-.21-.42-.33-.93-.85-1.13l0,.5a5.49,5.49,0,0,1-.4,2,84.21,84.21,0,0,0-2.35,9.09c-.07.33-.12.66-.17,1h1.59Z"/><path class="cls-12" d="M251.4,225.19a2.11,2.11,0,0,1,1.11-.28,31,31,0,0,1,3.32.17,30,30,0,0,0,3.91.09,3.6,3.6,0,0,1-.26.52,43.76,43.76,0,0,1-6.6,7.46,3.52,3.52,0,0,1-.89-1.64,14.09,14.09,0,0,1-.59-3.41C251.35,227.14,251.39,226.16,251.4,225.19Z"/><path class="cls-14" d="M240.13,243.81c0,.33.07.66.11,1l.66,0a.78.78,0,0,1-.08-.35,48.18,48.18,0,0,1,.08-5.1c.08-.86.16-1.73.19-2.59s.07-1.55.1-2.33c-.16-1.21-.33-2.42-.49-3.63a20.29,20.29,0,0,0-2.76,1.28c.39.23.42.64.48,1,.38,2.47.76,4.93,1.15,7.4C239.75,241.59,240,242.69,240.13,243.81Z"/><path class="cls-9" d="M315.85,268.41a1.6,1.6,0,0,0,1.14-.29,1.31,1.31,0,0,1,1.29.75,8.41,8.41,0,0,1,1.05,4.16c.09,2.33,0,4.66,0,7a3.65,3.65,0,0,1-.36-.44c-1.79-3.17-3.41-6.42-4.93-9.72C314.23,268.86,315,268.63,315.85,268.41Z"/><path class="cls-14" d="M187.79,160.51a12.12,12.12,0,0,1-5.21,2q-.71-3.12-1.39-6.26a12.08,12.08,0,0,1-.25-1.58,1,1,0,0,1,.54-1,1,1,0,0,1,1.19.26,8.11,8.11,0,0,1,.72.92C184.78,156.81,186.23,158.7,187.79,160.51Z"/><path class="cls-8" d="M190.23,162.77a3.71,3.71,0,0,0-1.11.94c-1.15,1.13-2.21,2.38-3.45,3.39-1.49,1.2-2.78,2.61-4.15,3.92a10.8,10.8,0,0,0-.76.89,1.17,1.17,0,0,1-1.21.14,2.64,2.64,0,0,0-1.12-.14,22.24,22.24,0,0,1,4.14-4.52c2.44-2,4.56-4.42,6.85-6.62a3,3,0,0,0,.87-1.16.28.28,0,0,0-.14-.36,2.6,2.6,0,0,1,1.3-.91.84.84,0,0,1,.94.24.9.9,0,0,1,0,1.09,2.52,2.52,0,0,1-.53.5,5.9,5.9,0,0,0-1.52,1.78l-.12.33Z"/><path class="cls-7" d="M318.46,208.12a26.68,26.68,0,0,0,2,4.07c.3.61.66,1.18,1,1.78q1.37,2.49,2.74,5a1.12,1.12,0,0,1,.18.69A6.44,6.44,0,0,1,322,219l-6.21-11.79a3.08,3.08,0,0,1-.56-1.49A8.92,8.92,0,0,1,318.46,208.12Z"/><path class="cls-12" d="M154.75,179.1l-.49.43a17.92,17.92,0,0,0-4,.76c-2.12.49-4.27.84-6.4,1.29a5,5,0,0,1-.87,0,24.63,24.63,0,0,1,5.87-3.16c.89-.38,1.83-.65,2.73-1,.73-.27,1.44-.58,2.16-.87a6.19,6.19,0,0,1,.81-.32.84.84,0,0,1,.9.33.8.8,0,0,1,0,1c-.24.36-.52.7-.79,1A.35.35,0,0,0,154.75,179.1Z"/><path class="cls-14" d="M167.6,255.65l2.51-.76a10,10,0,0,0,1.12,2.68,33.18,33.18,0,0,0,4.26,6.1,5,5,0,0,1-.78,1.81c-.48-.54-.94-1.09-1.43-1.61-.16-.16-.34-.08-.44.12v0c.11-.08.3-.13.22-.31-.17-.38-.33-.78-.81-.88h0c0-.24,0-.44-.3-.31h0c.19-.34-.06-.5-.26-.69s-.23,0-.33.09h0c.06-.06.18-.14.17-.2a1,1,0,0,0-.17-.39,28.22,28.22,0,0,1-2.89-5.32C168.32,255.52,168,255.57,167.6,255.65Z"/><path class="cls-9" d="M251.4,225.19c0,1-.05,1.95,0,2.91a14.09,14.09,0,0,0,.59,3.41,3.52,3.52,0,0,0,.89,1.64,2.28,2.28,0,0,1-.62.85,1,1,0,0,1-1.19-.62c-.21-.42-.33-.93-.85-1.13l0,0L250,232l-.12-.42a7.66,7.66,0,0,0-.08-2.44,6.18,6.18,0,0,1-.18-1.71c0-.67,0-1.34,0-2C250.16,225,250.8,225.24,251.4,225.19Z"/><path class="cls-9" d="M294.28,280.5l-.52,0a10.7,10.7,0,0,0-3.07-1.6c-.35-.14-1,0-1-.69s.61-.37.95-.48c1.29-.42,2.6-.8,3.9-1.21.25-.09.46-.12.65.1A25.46,25.46,0,0,0,294.28,280.5Z"/><path class="cls-14" d="M259.29,237.43c.06.23.11.47.18.69a2.92,2.92,0,0,1-.09,2.23,6.58,6.58,0,0,1-.84,1.8l-.26.1c-.35.17-.4.77-.8.73a2,2,0,0,1-1.42-.48A53.65,53.65,0,0,1,259.29,237.43Z"/><path class="cls-12" d="M249.62,225.45c0,.67,0,1.34,0,2a6.18,6.18,0,0,0,.18,1.71,7.66,7.66,0,0,1,.08,2.44l-.15,0q-1.43-2.91-2.87-5.82A25.57,25.57,0,0,1,249.62,225.45Z"/><path class="cls-9" d="M292.88,286.62a3.52,3.52,0,0,1,2.4-1.69.83.83,0,0,0,.07.7c.2.34.39.68.56,1a.86.86,0,0,1-.17,1,1,1,0,0,1-.94.28,2.21,2.21,0,0,1-.9-.46C293.53,287.19,293.31,286.77,292.88,286.62Z"/><path class="cls-8" d="M141,182a2,2,0,0,1-1.61.53c-1.91-.13-3.78.44-5.68.31-1.07.42-2.23.15-3.31.5a5.42,5.42,0,0,1-1.46.08c0-.5.39-.67.75-.77a4.45,4.45,0,0,1,1.15-.11c2.43,0,4.85-.1,7.27-.29A12.79,12.79,0,0,1,141,182Z"/><path class="cls-7" d="M149.28,308.15c0,.43,0,.85,0,1.28a2.3,2.3,0,0,1-1.17,2.26C147.55,310,147.73,309.4,149.28,308.15Z"/><path class="cls-9" d="M210.62,170.17c.18.13.19.34.24.53a.72.72,0,0,1-.52.36C210.65,170.83,210.61,170.49,210.62,170.17Z"/><path class="cls-10" d="M136.62,262.6a.31.31,0,0,1,.23,0c0,.27,0,.54,0,.81A.94.94,0,0,1,136.62,262.6Z"/><path class="cls-10" d="M322.85,211.61a.21.21,0,0,1-.19-.19c.26-.06.53-.19.74.09Z"/><path class="cls-10" d="M136.18,261.41c.2.09.22.25.17.44A.37.37,0,0,1,136.18,261.41Z"/><path class="cls-9" d="M249.74,231.64l.15,0,.12.42v.12l-.06,0Z"/><path class="cls-9" d="M250.22,232.25l0,.5a.64.64,0,0,1-.22-.55l.06,0a.37.37,0,0,0,.18.08Z"/><path class="cls-12" d="M213.33,134.94c-.48.14-.44-.17-.42-.47A.61.61,0,0,1,213.33,134.94Z"/><path class="cls-14" d="M144.76,229.1h0Z"/><path class="cls-7" d="M190.23,162.28l.12-.33A.28.28,0,0,1,190.23,162.28Z"/><path class="cls-12" d="M136.91,263.44l.14.18s-.05.07-.09.1Z"/><path class="cls-10" d="M136.52,262.29s.08.09.11.14,0,.06,0,.1l-.13-.15A.28.28,0,0,1,136.52,262.29Z"/><path class="cls-7" d="M324.32,219.64a.23.23,0,0,1,.3.18C324.46,219.84,324.36,219.8,324.32,219.64Z"/><path class="cls-12" d="M212.92,134.48c-.14,0-.27,0-.15-.2A.19.19,0,0,1,212.92,134.48Z"/><path class="cls-8" d="M184.57,369.29a.37.37,0,0,1-.3.35A.38.38,0,0,1,184.57,369.29Z"/><path class="cls-13" d="M169.85,279.55l.69-2.94c.09-.37.15-.75.23-1.12l0,0a.76.76,0,0,0,.1-.65c.11-.1.27-.18.3-.3a8.6,8.6,0,0,1,2.54-3.93c.18-.16.28-.4.46-.55a.41.41,0,0,1,.39,0,1.49,1.49,0,0,1,.66.74L173.25,277a3.55,3.55,0,0,1-.85,1.15,34.24,34.24,0,0,1-2.86,2.66l.18-.89A.31.31,0,0,0,169.85,279.55Z"/><path class="cls-9" d="M203.33,288.1a6.93,6.93,0,0,0,.06-1c-.38-3.28-.76-6.55-1.15-9.83l1.89,0c.32,2.9.64,5.8,1,8.69a14.15,14.15,0,0,0,.33,3A10.38,10.38,0,0,1,203.33,288.1Z"/><path class="cls-9" d="M241.94,345.54a.39.39,0,0,1,.1.27l-.19-.16Z"/><path class="cls-14" d="M232.55,240.49a8.42,8.42,0,0,1-.61,3.13c0,.12-.2.2-.3.3h0a55.65,55.65,0,0,0-2.39-7.69,5,5,0,0,0-1-1.94,2.75,2.75,0,0,1-.35-1,5.76,5.76,0,0,0-.82-1.88,3.89,3.89,0,0,0-.46.41,37.1,37.1,0,0,0-2.68,3.3c-.78-.39-1.55-.82-2.35-1.15a11.91,11.91,0,0,0-5.44-.91,9.39,9.39,0,0,0-.75-1.9c-.29-.77-.63-1.53-.89-2.32a3.75,3.75,0,0,1,.51-3.35c.19-.28.41-.54.63-.81.74-.9,1.49-1.8,2.22-2.72a7.54,7.54,0,0,1,2-1.86,3,3,0,0,0,.45-.35c-.94-1.07-1.92-1.75-6.61-4.56a12.39,12.39,0,0,1,1-3l1.83-3.65a80.41,80.41,0,0,0,3.49-7.54,3.08,3.08,0,0,1,.41-.58l.39,0c-.24.47.24.81.22,1.25a46.71,46.71,0,0,0,.24,5.42,22.8,22.8,0,0,0,2,8.08c.54,1.2,1.17,2.37,1.68,3.58a2.78,2.78,0,0,0,1.82,1.69,11.68,11.68,0,0,1,1-.91,2.35,2.35,0,0,1,3.18.4,3.27,3.27,0,0,1,.71,1.43,5.36,5.36,0,0,1-.23,2.89,11.89,11.89,0,0,1-2.16,4.14A2.11,2.11,0,0,0,229,231c.08.18.12.37.2.55A72.51,72.51,0,0,1,232.55,240.49Z"/><path class="cls-12" d="M205.26,223.24a18.43,18.43,0,0,0,1.26,2.61l2.62,5.17-.59,0c-.74.1-1.14-.28-1.47-.92-1.37-2.59-2.78-5.16-4.17-7.74-.58-1.08-1.16-2.16-1.76-3.22-.31-.54-.51-1.18-1.2-1.4.09-.61.18-1.23.26-1.84a.69.69,0,0,1,.29-.47c.5.62.62,1.47,1.17,2.06l0,0,.09.07,0,.12c.28.55.58,1.09.84,1.66a9.19,9.19,0,0,0,2.28,3.3A2.78,2.78,0,0,1,205.26,223.24Z"/><path class="cls-9" d="M203.84,236.9a4.65,4.65,0,0,0-1.92.61c-.49.21-1,.45-1.44.68a.73.73,0,0,0-.29-.07,3.21,3.21,0,0,0-.46-1.51c-.4-1-.78-2-1.16-3-.08-.22,0-.46.23-.45,1.83.06,3.63-.64,5.48-.25a4.49,4.49,0,0,1-.17,1.85,4.66,4.66,0,0,0-.1,1.14A1.49,1.49,0,0,1,203.84,236.9Z"/><path class="cls-14" d="M222.3,237.56c-.28.52-.57,1-.86,1.54a2.56,2.56,0,0,1-.65-.57,11.74,11.74,0,0,0-1.68-2,.4.4,0,0,1-.1-.46A5,5,0,0,1,222.3,237.56Z"/><path class="cls-14" d="M177.85,265.77l1.11.63c-.31.5-.57,1.06-1.19,1.27l-.85-.42A2,2,0,0,1,177.85,265.77Z"/><path class="cls-9" d="M206.71,277a5.39,5.39,0,0,1-2.39.23A.86.86,0,0,1,205,277Z"/><path class="cls-9" d="M220.88,200.51l-.39,0a3.13,3.13,0,0,1,.24-1.13c.68-2.09,1.35-4.18,2-6.28a33.48,33.48,0,0,0,1.6-9.62c0-.34,0-.69.3-.93a4.51,4.51,0,0,1,1.36,1.32A29.6,29.6,0,0,1,229.3,190a9.54,9.54,0,0,0,2.63,3.8,7.59,7.59,0,0,0,4.77,2h0a.38.38,0,0,0,.24.34,19.07,19.07,0,0,1,2.11,4.18,63.6,63.6,0,0,1,3.21,11.43c.38,1.81.66,3.66,1,5.49a.33.33,0,0,0,.16.19c.12.06.2,0,.22-.11s0-.09,0-.14c.85-4.72,1.69-9.44,2.55-14.16a1.29,1.29,0,0,0-.18-1c-.23-.38-.49-.74-.74-1.1a35.91,35.91,0,0,1-2.39-3.7,9.32,9.32,0,0,1-.79-7.25,19.06,19.06,0,0,1,8.33-11,10.68,10.68,0,0,1,6.45,2.74c.55.48,1,1,1.56,1.55a5.76,5.76,0,0,1,1.77,3.88,54.45,54.45,0,0,0-6.64,6.42,51.44,51.44,0,0,0-5.08,7.18c-.17.29-.42.64-.38.93a11.83,11.83,0,0,1-.3,2.46c0,.19.09.26.23.31a12.15,12.15,0,0,0-.72,1.9c-.28,1.28-.45,2.58-.66,3.88s-.45,2.88-.72,4.31a34,34,0,0,0-.81,5.49,19.64,19.64,0,0,0-.83,4.87L243,226.32a1,1,0,0,1-.74.34l-.6-3.91c-.67-4.18-1.34-8.37-2.28-12.51a13.45,13.45,0,0,0-.55-1.66,8.9,8.9,0,0,0-.19-1.15A34.49,34.49,0,0,0,235,199c-.21-.33-.43-.66-.66-1a1,1,0,0,0-.72-.47,12.84,12.84,0,0,0-3.5.14,23.14,23.14,0,0,0-3.91,1.65,8.73,8.73,0,0,1-3.89,1.14.82.82,0,0,0-.75.37Z"/><path class="cls-14" d="M221.59,200.85a.82.82,0,0,1,.75-.37,8.73,8.73,0,0,0,3.89-1.14,23.14,23.14,0,0,1,3.91-1.65,12.84,12.84,0,0,1,3.5-.14,1,1,0,0,1,.72.47c.23.31.45.64.66,1a34.49,34.49,0,0,1,3.63,8.44,8.9,8.9,0,0,1,.19,1.15,35.42,35.42,0,0,1-.68,6.42c-.51,2.46.15,4.77.83,7.07a6.49,6.49,0,0,1,.48,1.8,9.34,9.34,0,0,0,.33,2.17c.18.76.32,1.53.47,2.3a2.88,2.88,0,0,1-2.38,1.56c-.51-2.44-1-4.89-1.56-7.32-.79-3.49-1-3.87-3.76-6.22-1.45-1.26-2.85-2.56-4.19-3.92a18.66,18.66,0,0,1-3.41-4.58C223.81,205.54,222.71,203.19,221.59,200.85Z"/><path class="cls-12" d="M262,196.93a8.26,8.26,0,0,0,.23,2.42,6.11,6.11,0,0,1,.1,1.43,10,10,0,0,0,.23,3.44,17.85,17.85,0,0,0,.91,3.61,10.66,10.66,0,0,0,.21,2,19.57,19.57,0,0,1,.1,2.77c0,.38-.08.79.27,1.08-.07.58-.22,1.15-.33,1.71a15.44,15.44,0,0,1-2.24,6.14c-.11.15-.2.33-.32.48a2.89,2.89,0,0,1-3,1.41,6.47,6.47,0,0,0-1.17-.05c-.3-.34-.71-.27-1.09-.27-1,0-2.06,0-3.09,0-.69,0-.84-.21-.82-.91a3.79,3.79,0,0,1,.05-.58c.23-1,.46-2,.71-3a83.73,83.73,0,0,1,3-9c1-2.5,2-5,3-7.46.7-1.61,1.55-3.16,2.34-4.74A.86.86,0,0,1,262,196.93Z"/><path class="cls-12" d="M245.15,220a34,34,0,0,1,.81-5.49c.27-1.43.48-2.87.72-4.31s.38-2.6.66-3.88a12.15,12.15,0,0,1,.72-1.9,21.85,21.85,0,0,1,4.77-5.33c2.7-2.24,5.48-4.4,8.23-6.59.48.29.3.76.33,1.18-.15.12-.35.21-.44.37-.57,1-1.11,1.95-1.64,2.95-1.28,2.37-2.31,4.86-3.35,7.33q-2.37,5.61-4.22,11.41c-.39,1.2-.69,2.43-1,3.67s-.49,2.68-.83,4c-.82.41-1.77.25-2.62.57-.36.13-.73.2-1.1.3-.08-.37-.15-.75-.24-1.11Z"/><path class="cls-14" d="M265.53,182.82l3.21-2.21c1.64-1.11,3.27-2.22,4.92-3.32a1.3,1.3,0,0,1,.41-.11,3.15,3.15,0,0,1,.17,2.42,21.54,21.54,0,0,1-1.39,4.32,25.57,25.57,0,0,0-1.13,3.47c-.89,3.1-1.76,6.21-2.65,9.31q-.88,3.11-1.81,6.19a2.82,2.82,0,0,1-.63,1.46,3,3,0,0,1-.17-.56,87.38,87.38,0,0,0-2.13-9.43c-.14-.51-.15-.51-.63-.06a.93.93,0,0,1-.14-1.09,1.75,1.75,0,0,0,0-1.13,8.11,8.11,0,0,1-.41-2.14,9.44,9.44,0,0,1,.91-3.65c.32-.71.7-1.39,1.05-2.09A2.89,2.89,0,0,0,265.53,182.82Z"/><path class="cls-7" d="M277.22,180.73l-.55.06a15,15,0,0,1,2.82-7.89,12.72,12.72,0,0,1,2.59-2.59,8.43,8.43,0,0,1,4.76-1.64,14,14,0,0,1,7.89,2.31,24.65,24.65,0,0,1,5.88,5,36.51,36.51,0,0,1,3.58,5c.82,1.35,1.45,2.78,2.23,4.14a77.07,77.07,0,0,0,4.29,7.49,22.55,22.55,0,0,0,2.31,2.84c1,1,2.06,2,3,3a40.51,40.51,0,0,1,4.45,5.41,25.26,25.26,0,0,1,2.71,5.52c.09.27.22.54.33.81a.67.67,0,0,1-1,.05,2.48,2.48,0,0,1-.62-1c-.28-.68-.6-1.34-.85-2a5.91,5.91,0,0,0-3.4-3.62,1.47,1.47,0,0,0-.4-1.06c-1.31-1.38-2.59-2.79-3.9-4.18-.57-.6-1.16-1.19-1.76-1.76a20.24,20.24,0,0,1-2.31-2.83,53.33,53.33,0,0,1-3.57-6.05c-1-1.78-1.91-3.63-2.89-5.43a30.17,30.17,0,0,0-3.74-5.23,23.76,23.76,0,0,0-5.34-4.54,14.83,14.83,0,0,0-5.88-2.09,7.48,7.48,0,0,0-4.06,1,2.41,2.41,0,0,0-.75.46,12,12,0,0,0-2.61,2.95,7.55,7.55,0,0,0-1.34,4L277.59,180A1,1,0,0,0,277.22,180.73Z"/><path class="cls-9" d="M249.92,223.42c.34-1.32.51-2.68.83-4s.6-2.47,1-3.67q1.84-5.79,4.22-11.41c1-2.47,2.07-5,3.35-7.33.53-1,1.07-2,1.64-2.95.09-.16.29-.25.44-.37a.92.92,0,0,1,.29.93,6.23,6.23,0,0,0,.3,2.31.86.86,0,0,0-.83.5c-.79,1.58-1.64,3.13-2.34,4.74-1.06,2.46-2.05,5-3,7.46a83.73,83.73,0,0,0-3,9c-.25,1-.48,2-.71,3a3.79,3.79,0,0,0-.05.58c0,.7.13.89.82.91,1,0,2.06,0,3.09,0,.38,0,.79-.07,1.09.27Z"/><path class="cls-9" d="M298.16,263.72a23.93,23.93,0,0,1-1.29,8.64c-.21.65-.45,1.29-.67,1.94a10.46,10.46,0,0,1-2.41.58c-1.17.31-2.37.49-3.55.78a5.73,5.73,0,0,1-1.16.13c-.16-2-.3-4.09-.29-6.15a31.27,31.27,0,0,0-.39-5.55c.1-.27.15-.59.58-.39,1.38.66,2.92.57,4.37.89a1.22,1.22,0,0,0,.57,0,33.13,33.13,0,0,0,3.53-.76A3.21,3.21,0,0,1,298.16,263.72Z"/><path class="cls-14" d="M145.45,201.06a2.08,2.08,0,0,1,.3-1.19,3.08,3.08,0,0,0,.38-.43,55.22,55.22,0,0,1,7.47-8.62c1.43-1.4,2.82-2.84,4.23-4.27a1.8,1.8,0,0,0,.6-.81,27.6,27.6,0,0,1,6.38,1.17,60.89,60.89,0,0,1-1.56,14.43c-.35,2-.78,3.92-1.32,5.84q-1.22,3.62-2.68,7.12a1.75,1.75,0,0,0-.49,1.28l-1.31,2.52a1.08,1.08,0,0,1-.47-.54c-.18-.45-.35-.92-.57-1.35a37.32,37.32,0,0,0-3.75-6.12c-1.22-1.52-2.35-3.12-3.56-4.64S146.67,202.52,145.45,201.06Z"/><path class="cls-7" d="M177.4,213.94l2.79-.78a5.29,5.29,0,0,0,1,2.55c.48.9,1,1.77,1.59,2.63a29.62,29.62,0,0,0,1.86,2.62c1.73,2.11,3.53,4.16,5.45,6.11,1.19,1.21,2.19,2.62,3.27,3.94a4.07,4.07,0,0,0,.33.48c1.18,1.1,2,2.5,3.25,3.58.84.74,1.35,1.79,2.23,2.51.3.25.55.57,1,.54a.73.73,0,0,1,.29.07c-.13,1.81-.53,2-2.21,1.18l-.43-.36a1,1,0,0,0-.26-.67c-.3-.32-.61-.63-.92-.94a60.91,60.91,0,0,1-5.15-6c-.71-.93-1.51-1.79-2.3-2.65-1.38-1.51-2.84-3-4.17-4.51a37,37,0,0,1-3.8-5c-.84-1.42-1.62-2.89-2.36-4.38A1.51,1.51,0,0,0,177.4,213.94Z"/><path class="cls-12" d="M182.81,210.58c-3.88-.86-7.79-1.49-11.72-2.07-3.05-.46-6.1-.89-9.16-1.33.54-1.92,1-3.87,1.32-5.84.19.34.47.26.77.19,2.6-.7,5.19-1.43,7.8-2.09a41.18,41.18,0,0,1,8.82-1.41,17.86,17.86,0,0,1,7.48,1.24,5.65,5.65,0,0,1,2.1,3.86,23.38,23.38,0,0,0-4.68,4.2,19.56,19.56,0,0,0-1.53,2A6.08,6.08,0,0,1,182.81,210.58Z"/><path class="cls-9" d="M198.46,226.76a12.73,12.73,0,0,1,4.48,4.27,13.79,13.79,0,0,1-4.05.32c-.57,0-.71-.15-.74-.68a3.46,3.46,0,0,1,0-1.16A11.69,11.69,0,0,0,198.46,226.76Z"/><path class="cls-8" d="M235.8,193.69a9.13,9.13,0,0,1,.9,2.05,7.59,7.59,0,0,1-4.77-2,9.54,9.54,0,0,1-2.63-3.8,29.6,29.6,0,0,0-3.32-6.17,4.51,4.51,0,0,0-1.36-1.32c0-.39,0-.78,0-1.16a1.07,1.07,0,0,0-1.5-1l-.55.14c-.84-.39-1.65-.87-2.53-1.18a35.27,35.27,0,0,0-7.29-1.45,3.93,3.93,0,0,0-1,.1,8.6,8.6,0,0,1-.86.15,23.77,23.77,0,0,0-6.16,1.14c-3.33,1-6.59,2.18-9.83,3.43a5.82,5.82,0,0,1-.85.18,1.45,1.45,0,0,1-.89-1.49c2.11-.76,4.23-1.5,6.32-2.3a55.89,55.89,0,0,1,8.42-2.43,23.92,23.92,0,0,1,4.19-.54,24.34,24.34,0,0,1,7.75,1.26,13.72,13.72,0,0,1,3.72,1.68,17.46,17.46,0,0,1,4.3,4.36,22.59,22.59,0,0,1,2.76,5.15c.37.95.9,1.85,1.36,2.77a1.54,1.54,0,0,0,.23.37A6.12,6.12,0,0,0,235.8,193.69Z"/><path class="cls-12" d="M268.64,235.81c-.13,1.6-.27,3.2-.4,4.8.21.15.35,0,.46-.14,2.87-4,6.57-7.2,10.34-10.31,1.39-1.14,2.74-2.34,4.17-3.43a3.43,3.43,0,0,0,1.46-3.3c0-.29,0-.58-.07-.88a10,10,0,0,1,4.87-.11.65.65,0,0,0,.77-.21.89.89,0,0,1,.35.67,1.31,1.31,0,0,1-.17.24,41.44,41.44,0,0,1-7,5.84c-.4.28-.82.54-1.19.85-1.7,1.4-3.41,2.8-5.08,4.24a42.57,42.57,0,0,0-6.24,6.42,5,5,0,0,0-1.28,1.76,5.42,5.42,0,0,1-1.19,1.2,9.78,9.78,0,0,1-1.79-3.85,1.08,1.08,0,0,0,.48-.69A16.65,16.65,0,0,1,268.64,235.81Z"/><path class="cls-12" d="M281.59,214.06a47,47,0,0,1-3.19-5.27,2.25,2.25,0,0,1,1.07-1.51A52,52,0,0,1,284,203.9c.5-.31,1-.58,1.5-.9s.85-.15,1.27-.24a10.08,10.08,0,0,1,3.45,2.69,1.79,1.79,0,0,1-1,1.37,29,29,0,0,0-4.67,4.18,21.19,21.19,0,0,0-1.71,2.17A1.78,1.78,0,0,1,281.59,214.06Z"/><path class="cls-14" d="M290.24,222.23a.65.65,0,0,1-.77.21,10,10,0,0,0-4.87.11,36.57,36.57,0,0,0-8.29,2.52,2.56,2.56,0,0,1-1.36.42,4.89,4.89,0,0,1,2.13-2.74l2.49-.82,4.71-1.48a16.18,16.18,0,0,1,4.77-.86l.3.28a.84.84,0,0,1,.29.61,1.11,1.11,0,0,0,.54.91Z"/><path class="cls-12" d="M289.05,219.59a16.18,16.18,0,0,0-4.77.86c-.28-1-.57-1.92-.85-2.87a.77.77,0,0,1,.49-.65,39.49,39.49,0,0,1,5.52-1.79,8.55,8.55,0,0,1,2.3-.26,1.94,1.94,0,0,1-.78,1.17,10.37,10.37,0,0,0-1.36,1.66A2.87,2.87,0,0,0,289.05,219.59Z"/><path class="cls-14" d="M269.53,223.69c-.06.92-.13,1.84-.18,2.77a.3.3,0,0,0,.13.21.32.32,0,0,0,.27,0c.47-.35.91-.73,1.4-1.06a4.19,4.19,0,0,1,1.42-.7s.1.09.09.1a11.24,11.24,0,0,1-2.33,3.37,1.7,1.7,0,0,1-.31.29,1.73,1.73,0,0,0-.83,2.19c-.63,1.24-1.26,2.49-1.9,3.73-.17.34-.27.73-.64.93,0-.43,0-.86,0-1.29s.07-.86.12-1.29a3.8,3.8,0,0,0,0-1.37L265.26,233a3.28,3.28,0,0,1,.79-2.28,31.06,31.06,0,0,0,2.77-5.93c.1-.32.14-.66.25-1S269.36,223.64,269.53,223.69Z"/><path class="cls-14" d="M275,225.48l-.25.15Z"/><path class="cls-9" d="M194,182.83a5.82,5.82,0,0,0,.85-.18c3.24-1.25,6.5-2.44,9.83-3.43a23.77,23.77,0,0,1,6.16-1.14,8.6,8.6,0,0,0,.86-.15,3.93,3.93,0,0,1,1-.1,35.27,35.27,0,0,1,7.29,1.45c.88.31,1.69.79,2.53,1.18,0,.87-.71,1.37-1.15,2a49.27,49.27,0,0,1-3.83,4.59,2.74,2.74,0,0,1-.64.59,7,7,0,0,0-1.76,1.53,27.27,27.27,0,0,1-3.22,2.76c-1-1.22-2.13-2.27-3.22-3.38a29.7,29.7,0,0,1-2.36-1.43,11.72,11.72,0,0,0-7.72-.65l-.57.16c-.31.11-.63.22-.94.35a5.88,5.88,0,0,1-1.93.56c-.33-1.14-.65-2.3-1-3.44A3.45,3.45,0,0,1,194,182.83Z"/><path class="cls-14" d="M195.21,187.54a5.88,5.88,0,0,0,1.93-.56c.31-.13.63-.24.94-.35-.59,1.48-1.18,3-1.79,4.44a3.12,3.12,0,0,1-.81,1.35,15.92,15.92,0,0,0-.27-4.3A2.25,2.25,0,0,1,195.21,187.54Z"/><path class="cls-7" d="M263.45,207.83a17.85,17.85,0,0,1-.91-3.61,10,10,0,0,1-.23-3.44c.37.26.29.7.36,1.06A25.23,25.23,0,0,1,263.45,207.83Z"/><path class="cls-8" d="M298.16,263.72a3.21,3.21,0,0,0-.71.09,33.13,33.13,0,0,1-3.53.76,1.22,1.22,0,0,1-.57,0c-1.45-.32-3-.23-4.37-.89-.43-.2-.48.12-.58.39-.28-.38-.38-.83-.86-1.13a16.23,16.23,0,0,1-5.28-5.4c-1-1.65-2-3.37-2.95-5.06a50.16,50.16,0,0,0-3.66-5.66,7.07,7.07,0,0,0-1.44-1.45,3.59,3.59,0,0,0-3.33-.57,6.26,6.26,0,0,0-2.08,1c0-.51-.05-1-.08-1.52a4.29,4.29,0,0,0,1.42-.35,29,29,0,0,1,7.29-1.39,27.39,27.39,0,0,1,6.58.18,19.28,19.28,0,0,1,5.41,1.71c2.23,1.12,4.48,2.2,6.63,3.45,1.06.62,2.18,1.13,3.2,1.79,1.56,1,3.21,1.85,4.86,2.71a8.81,8.81,0,0,0,4.08,1,1.12,1.12,0,0,1-.41.84,1.48,1.48,0,0,0-.52.95.75.75,0,0,0-.59.37c-.31.49-.65,1-1,1.46a16.87,16.87,0,0,1-6.75,6.06A1.65,1.65,0,0,0,298.16,263.72Z"/><path class="cls-8" d="M269.66,242.25a5,5,0,0,1,1.28-1.76,2,2,0,0,0,1-.63c1.08-1,2.15-2,3.24-3a17.91,17.91,0,0,1,8.49-4.39,29.5,29.5,0,0,1,6.56-.58,12.89,12.89,0,0,1,5.13,1.08,6.24,6.24,0,0,0,1.39.44c.12.35.44.48.72.68a26.92,26.92,0,0,1,3.32,2.62,16.46,16.46,0,0,1,4.12,6.63c.48,1.42.81,2.9,1.27,4.33.34,1.07.78,2.1,1.17,3.15.1.27.19.54.29.82a11.54,11.54,0,0,1-3.34-1.07c-1.49-.84-3-1.66-4.46-2.53q-4.41-2.62-9-4.94a22.53,22.53,0,0,0-6.39-2.06,12.06,12.06,0,0,0-2.61-.28,57.58,57.58,0,0,0-6.15.24,39.47,39.47,0,0,0-4.86,1A3.76,3.76,0,0,1,269.66,242.25Z"/><path class="cls-8" d="M290.24,222.23l-.06-.84a11.33,11.33,0,0,1,4.17.54,29.61,29.61,0,0,1,9.52,4,30.7,30.7,0,0,1,5.58,4.46,25.42,25.42,0,0,1,4.16,5.62,37.5,37.5,0,0,1,2.94,6.53,24.82,24.82,0,0,1,.8,3.85c.44,3.12.14,6.24.24,9.36-.25,0-.47-.12-.55-.41-.34-1.21-.64-2.45-1.05-3.64a39.27,39.27,0,0,0-3.48-7.71c-.9-1.51-2-2.88-3-4.33a6.15,6.15,0,0,0-.69-.76c-1.35-1.35-2.7-2.68-4-4.05a2.68,2.68,0,0,0-1.72-1c-.07,0-.14-.12-.21-.19.3-.31-.06-.43-.2-.54-2.47-1.73-4.75-3.72-7.13-5.57a36.2,36.2,0,0,1-3.59-3.19,10.4,10.4,0,0,0-1.37-1.52A.89.89,0,0,0,290.24,222.23Z"/><path class="cls-7" d="M269.66,242.25a3.76,3.76,0,0,0,1.14-.25,39.47,39.47,0,0,1,4.86-1,57.58,57.58,0,0,1,6.15-.24,12.06,12.06,0,0,1,2.61.28,22.53,22.53,0,0,1,6.39,2.06q4.59,2.31,9,4.94c1.47.87,3,1.69,4.46,2.53a11.54,11.54,0,0,0,3.34,1.07,2,2,0,0,1,.58,1.78,8.81,8.81,0,0,1-4.08-1c-1.65-.86-3.3-1.7-4.86-2.71-1-.66-2.14-1.17-3.2-1.79-2.15-1.25-4.4-2.33-6.63-3.45a19.28,19.28,0,0,0-5.41-1.71,27.39,27.39,0,0,0-6.58-.18,29,29,0,0,0-7.29,1.39,4.29,4.29,0,0,1-1.42.35c-.31-.24-.26-.57-.25-.89A5.42,5.42,0,0,0,269.66,242.25Z"/><path class="cls-8" d="M307.59,199.58q-2.43-2.72-4.87-5.42a3.25,3.25,0,0,0-.44-.38,4.59,4.59,0,0,0-2.37-2.16c.07-.41-.22-.63-.45-.87a60.77,60.77,0,0,1-4.58-5.55c-.32-.43-.66-.84-1-1.26a12.76,12.76,0,0,0-4.61-3.56,21.35,21.35,0,0,0-6.16-1.83,7.61,7.61,0,0,0-4,.3,7.55,7.55,0,0,1,1.34-4,12,12,0,0,1,2.61-2.95,2.41,2.41,0,0,1,.75-.46,7.48,7.48,0,0,1,4.06-1,14.83,14.83,0,0,1,5.88,2.09,23.76,23.76,0,0,1,5.34,4.54,30.17,30.17,0,0,1,3.74,5.23c1,1.8,1.87,3.65,2.89,5.43a53.33,53.33,0,0,0,3.57,6.05,20.24,20.24,0,0,0,2.31,2.83c.6.57,1.19,1.16,1.76,1.76,1.31,1.39,2.59,2.8,3.9,4.18a1.47,1.47,0,0,1,.4,1.06c-1.37-.3-2.71-.68-4.1-.9a10.88,10.88,0,0,1-5.35-2.73Z"/><path class="cls-14" d="M265.09,233.13a.85.85,0,0,1-.45.46A.65.65,0,0,1,265.09,233.13Z"/><path class="cls-14" d="M159,229a9.12,9.12,0,0,1,.86,2.15,72.14,72.14,0,0,0,5.89,12,3.42,3.42,0,0,1-.85,1.49.59.59,0,0,1-.79.15,13,13,0,0,1-1.6-1,53,53,0,0,1-5.36-4.43,1.36,1.36,0,0,0-.75-.41,4.4,4.4,0,0,1-.43-1.71,1,1,0,0,0,.47-.53c.34-.69.74-1.36,1-2.07A18.47,18.47,0,0,0,159,229Z"/><path class="cls-9" d="M159,229a18.47,18.47,0,0,1-1.53,5.69c-.29.71-.69,1.38-1,2.07a1,1,0,0,1-.47.53,2.4,2.4,0,0,1-1.54-1.27,40.19,40.19,0,0,1-3.45-5.61,30.55,30.55,0,0,1-2.31-7.22,26.15,26.15,0,0,1-.59-4.92c-.55-1.54-.1-3.2-.51-4.78-.26-1-.1-2-.32-3a27.84,27.84,0,0,0-2.07-6.38,43.31,43.31,0,0,0-2.33-4.23,2.08,2.08,0,0,1-.38-1.09c.44-.06.7.22,1,.48a16.58,16.58,0,0,0,2,1.86c1.22,1.46,2.46,2.9,3.65,4.39s2.34,3.12,3.56,4.64a37.32,37.32,0,0,1,3.75,6.12c.22.43.39.9.57,1.35a1.08,1.08,0,0,0,.47.54,3.86,3.86,0,0,0,.28,1.42A23.52,23.52,0,0,1,159,229Z"/><path class="cls-12" d="M250.2,232.23a.37.37,0,0,1-.18-.08V232Z"/><path class="cls-15" d="M169.85,279.55a.31.31,0,0,1-.13.35A.27.27,0,0,1,169.85,279.55Z"/><path class="cls-8" d="M212,191.93a27.27,27.27,0,0,0,3.22-2.76,7,7,0,0,1,1.76-1.53,2.74,2.74,0,0,0,.64-.59,49.27,49.27,0,0,0,3.83-4.59c.44-.63,1.11-1.13,1.15-2l.55-.14a1.07,1.07,0,0,1,1.5,1c0,.38,0,.77,0,1.16-.32.24-.3.59-.3.93a33.48,33.48,0,0,1-1.6,9.62c-.64,2.1-1.31,4.19-2,6.28a3.13,3.13,0,0,0-.24,1.13,3.08,3.08,0,0,0-.41.58,80.41,80.41,0,0,1-3.49,7.54l-1.83,3.65a12.39,12.39,0,0,0-1,3,23.71,23.71,0,0,0-1.14,5.27c-.11.82-.18,1.65-.21,2.48a9.73,9.73,0,0,0,.38,3.75.93.93,0,0,1-.41,1.14.63.63,0,0,1-.92,0c-.91-1.29-2.31-1.91-3.57-2.73-.9-.59-1.74-1.25-2.6-1.88a2.78,2.78,0,0,0-.42-.58,9.19,9.19,0,0,1-2.28-3.3c-.26-.57-.56-1.11-.84-1.66a1.46,1.46,0,0,1-.07-.19l0,0c-.19-1.15-.41-2.29-.57-3.45a1.37,1.37,0,0,1,.35-1.47.66.66,0,0,0,.1-.82c-.64-.76-.45-1.65-.52-2.5.21-1,.41-2,.61-3a16.61,16.61,0,0,1,2.56-6c.3-.44.55-.91.83-1.36l.15-.3-.06,0a3.38,3.38,0,0,0,1.48-1.37,12.67,12.67,0,0,1,2.15-2.18A19.38,19.38,0,0,0,212,191.93Z"/><path class="cls-8" d="M236.69,195.73a.29.29,0,0,1,.24.34A.38.38,0,0,1,236.69,195.73Z"/><path class="cls-14" d="M212,191.93a19.38,19.38,0,0,1-3.2,3.2,12.67,12.67,0,0,0-2.15,2.18,3.38,3.38,0,0,1-1.48,1.37,10.11,10.11,0,0,1,.49-2.88c.31-1.28.7-2.54,1-3.82s.58-2.77.87-4.15a2.91,2.91,0,0,1,1.25.72C209.82,189.66,211,190.71,212,191.93Z"/><path class="cls-14" d="M205.18,198.65l-.15.3C205,198.81,205,198.67,205.18,198.65Z"/><path class="cls-3" d="M240.74,177.43c0,2.34,0,4.68,0,7,.09,6.89,0,13.78,0,20.67,0,7.3,0,14.61,0,21.91-.05,5.5-.05,11-.27,16.49,0,1.08,0,2.21,0,3.31,0,.45,0,1.05-.16,1.09-.62.15-1.23.67-1.85.17a2,2,0,0,1-.35-1.47c.08-6,.15-12.05.25-18.07,0-2.76.22-5.53.17-8.27-.08-5,0-10,0-14.92,0-7.9-.23-15.8-.13-23.7.06-5.29.13-10.58.1-15.87,0-3.79-.08-7.58-.09-11.37,0-5.88,0-11.77-.09-17.65,0-5.4,0-10.81.09-16.23s.18-10.67-.09-16a8.76,8.76,0,0,0,0-1.92v0l-.07-.44v0c.12-2.13-.05-4.25-.05-6.38,0-4.41-.17-8.8,0-13.26.1-2.16.13-4.5,0-6.83-.07-1.88.14-4.14-.05-6-.24-2.26.25-2.16.66-2.58.16-.15.3,0,.45.15.38.48.67,1.46,1.18,1.23.3-.14.26,1.05.27,1.67.3,10.46.19,20.94.16,31.41,0,7.16.08,14.32.07,21.48,0,7-.17,14-.07,21q.09,6.25,0,12.44c-.1,4.28-.1,8.57-.15,12.85,0,2.67-.08,5.37.05,8Z"/></svg>