<svg id="Layer_1" data-name="Layer 1" xmlns="http://www.w3.org/2000/svg" viewBox="0 0 480 480"><defs><style>.cls-1{fill:#fff;}.cls-2{fill:#eaeaea;}.cls-3{fill:#383a34;}.cls-4{fill:#ffeedc;}.cls-5{fill:#8e6e57;}.cls-6{fill:#ba8b61;}.cls-7{fill:#644e2e;}.cls-8{fill:#dbd8bf;}.cls-9{fill:#3a575e;}.cls-10{fill:#304951;}.cls-11{fill:#497075;}.cls-12{fill:#405c64;}.cls-13{fill:#4e7f82;}.cls-14{fill:#406661;}</style></defs><rect class="cls-1" width="480" height="480"/><path class="cls-2" d="M319.79,393.68a14.36,14.36,0,0,0-4.81-2.13l0-.29a8.15,8.15,0,0,1-3.12-.64,15,15,0,0,0-1.63-.49c-2-.41-4.11-.79-6.76-1.19-4.73-.72-9.56-1.2-13.67-1.59-7.25-.65-14.64-1.11-22-1.37l-4.19-.17c-3.41-.14-6.64-.26-10-.27h0l-.27,0-.73,0-3.76,0c-6.26,0-12.74-.09-19.18.08-5,.14-10.11.31-14.78.51-6.32.26-11.44.6-16.09,1.07l-.53.06c-.8.08-1.62.17-2.54.22a147.21,147.21,0,0,0-15.1,1.74,84.74,84.74,0,0,0-10.88,2,40.17,40.17,0,0,0-5.11,1.61c-.44.18-.88.38-1.33.6l-.16.08-.53.28-.44.26-.37.25-.13.1a5.12,5.12,0,0,0-2.45,4,5.23,5.23,0,0,0,2.22,4.13l.47.37a3.32,3.32,0,0,0,.28.2l.1.07c.2.14.39.25.58.37l.08,0c.38.23.78.45,1.28.7a41.37,41.37,0,0,0,5,2,99,99,0,0,0,16.1,3.91l.42.06a37.44,37.44,0,0,1,3.93.68,93.74,93.74,0,0,0,10.71,1.59l4.33.44c4.79.49,9.74,1,14.53,1.24l.42,0A20.37,20.37,0,0,0,226,415c1.5,0,3-.08,4.46-.15s2.75-.14,3.94-.14l5,0c10.48.07,21.32.15,32.08-.89,15.46-1.49,31.45-3,46-10.32,1.94-1,4-2.25,4.56-4.37l0-.09C322.59,397,321.29,394.84,319.79,393.68ZM300.73,390Zm-48.13-3.32Zm-.52,0Zm-81.72,15.25ZM321.73,399Z"/><path class="cls-3" d="M281.51,387.87l0,0a2.68,2.68,0,0,0-1.12-2.6,7.8,7.8,0,0,0-2.73-1.16l.37-.05a9.3,9.3,0,0,1-2.52-.59c-1.15-.24-2.31-.44-3.47-.61-2.34-.35-4.69-.6-7-.82-3.78-.34-7.6-.57-11.33-.7-2.5-.09-4.87-.23-7.3-.23h0l-.56,0c-3.91,0-7.85-.08-11.82,0-2.46.06-5.12.15-7.62.26-2.87.11-5.61.27-8.29.55-.5.05-1,.11-1.59.14-2.57.15-5.19.49-7.79.9a44,44,0,0,0-5.58,1,19.78,19.78,0,0,0-2.62.83l-.67.3c-.11.06-.23.11-.34.18l-.23.13-.25.18a2.46,2.46,0,0,0-1.18,1.9c0,.77,0,4.26,0,5a2.53,2.53,0,0,0,1.07,2l.25.19a1.5,1.5,0,0,0,.19.14l.32.2c.22.14.44.25.65.36a21.24,21.24,0,0,0,2.56,1.05,51.55,51.55,0,0,0,8.27,2,21.06,21.06,0,0,1,2.26.39,48.5,48.5,0,0,0,5.5.81c3.07.3,6.49.71,9.72.87l.27,0c2.16.72,5.27.24,7.5.25a187.68,187.68,0,0,0,19.12-.44c8.14-.78,16.27-1.6,23.69-5.3a3.81,3.81,0,0,0,2.25-2.14l0,0C281.76,391.88,281.28,388.75,281.51,387.87Z"/><path class="cls-4" d="M322.24,158.64c-27.28-31.12-63.25-30-98.13-22.53-41.22,8.88-72,45.64-80.08,91-5,27.9.84,59.25,18.81,79.82,17.66,20.2,44.45,27.57,69.43,25.85,41.85-2.89,88.07-18.64,105.26-64.54,12.87-34.38,10.12-78.27-13.16-107.09C323.68,160.31,323,159.47,322.24,158.64Z"/><path class="cls-5" d="M290.31,296.69c0,1.06.06,2.12,0,3.17-.27,3.72-.09,7.45-.25,11.17-.2,4.74-.15,9.48-.14,14.23a57.68,57.68,0,0,1-.41,7.31,2,2,0,0,0,0,.34c-.1,1.81-.17,3.61-.29,5.41-.09,1.43-.23,2.85-.36,4.27-.17,1.76-.36,3.52-.53,5.27a61.61,61.61,0,0,1-1.23,7.79c-.14.62-.23,1.25-.31,1.89a15.85,15.85,0,0,1-.59,2.4,55.27,55.27,0,0,1-8.77,17.71,38.47,38.47,0,0,1-5.12,5.7,19.86,19.86,0,0,1-3.94,2.83A55.49,55.49,0,0,1,263,388.8a18.57,18.57,0,0,1-5,1.21c-1.94.22-3.88.41-5.83.61-.45,0-.9.05-1.35.05-2.34,0-4.67.05-7-.05-2.49-.11-5-.07-7.45-.19-2.63-.12-5.26-.26-7.89-.46a58.24,58.24,0,0,1-8.78-1.44,30.4,30.4,0,0,1-5.35-1.74A22,22,0,0,1,208,382.5a45.69,45.69,0,0,1-10.15-14.25,72.42,72.42,0,0,1-5-16.12c-.33-1.7-.54-3.42-.78-5.13s-.41-3.13-.6-4.69c-.11-.83-.14-1.65-.23-2.48-.16-1.45-.19-2.92-.3-4.39-.32-4.21-.18-8.42-.26-12.64-.06-3.5-.06-7-.24-10.49-.22-4.29-.24-8.58-.13-12.87a16,16,0,0,1,.65-4.34c.27,0,.39.15.53.35a4.46,4.46,0,0,0,1,1.22,27.12,27.12,0,0,0,3.18,2.13,47.23,47.23,0,0,0,9.62,3.53c1.59.44,3.22.69,4.84,1a58.65,58.65,0,0,0,7.91,1,1.68,1.68,0,0,1,.45,0,6.66,6.66,0,0,0,2.35.17c.8,0,1.56.23,2.35.23h22.37a4.63,4.63,0,0,0,1.12-.09,4.35,4.35,0,0,1,1.24-.12,27,27,0,0,0,3.7-.3c1.6-.15,3.21-.22,4.82-.39,1-.1,1.95-.15,2.91-.29,1.37-.2,2.76-.23,4.14-.34a35.9,35.9,0,0,1,4.27-.3.74.74,0,0,0,.33-.05c.84-.26,1.71-.16,2.56-.35,1.21-.26,2.45-.36,3.66-.59,2.06-.39,4.12-.84,6.17-1.25a33.25,33.25,0,0,0,6.28-1.75,6.48,6.48,0,0,0,3.22-2.17C290,296.68,290.16,296.69,290.31,296.69Z"/><path class="cls-6" d="M206.4,291.06a2.81,2.81,0,0,0-.47.07Z"/><path class="cls-6" d="M264.82,303a5,5,0,0,0-.7.08Z"/><path class="cls-6" d="M288.94,293.6a9.3,9.3,0,0,0-3.27-1.38l.45-.07c-.84.12-2.16-.52-3-.7-1.37-.29-2.76-.52-4.15-.73-2.79-.42-5.6-.72-8.41-1-4.51-.41-9.07-.69-13.52-.84-3-.11-5.82-.28-8.71-.27h0l-.66,0c-4.68,0-9.38-.09-14.13,0-2.93.08-6.11.19-9.1.31-3.42.14-6.69.34-9.9.67-.59.06-1.2.13-1.9.17a90.55,90.55,0,0,0-9.29,1.07,51.55,51.55,0,0,0-6.67,1.24,24.92,24.92,0,0,0-3.12,1c-.26.11-.53.22-.8.36l-.41.21-.27.16-.3.21a2.92,2.92,0,0,0-1.41,2.27,3,3,0,0,0,1.28,2.37l.29.23.22.16.4.25c.25.15.51.29.77.42a24.49,24.49,0,0,0,3,1.25,62.31,62.31,0,0,0,9.88,2.4,25,25,0,0,1,2.7.45,55.64,55.64,0,0,0,6.57,1c3.66.36,7.75.84,11.61,1l.31,0c2.58.86,6.29.28,9,.3,7.66,0,15.19.21,22.84-.53,9.71-.94,19.42-1.91,28.28-6.33,1.14-.57,2.37-1.32,2.69-2.55l0-.05A3.19,3.19,0,0,0,288.94,293.6Zm-85.7-2.73-.51.09A4.17,4.17,0,0,1,203.24,290.87Zm56.5,14.67h0Zm6.59-.68a6.17,6.17,0,0,1,.76-.09ZM286,296.07v.05c-.3,1.06-1.42,1.7-2.47,2.19-8.1,3.81-17,4.65-25.87,5.46-7,.64-13.89.48-20.89.45-2.45,0-5.84.49-8.2-.25l-.29,0c-3.53-.16-7.27-.58-10.62-.89a54,54,0,0,1-6-.84c-1.27-.26-1.76-.3-2.47-.39a57.76,57.76,0,0,1-9-2.07,22.79,22.79,0,0,1-2.79-1.07c-.24-.11-.47-.23-.71-.37l-.36-.21-.2-.14-.27-.2a2.57,2.57,0,0,1-1.17-2,2.5,2.5,0,0,1,1.29-2l.27-.18.25-.14.38-.19c.24-.11.49-.21.73-.3a23.11,23.11,0,0,1,2.86-.85,49.9,49.9,0,0,1,6.1-1.07c2.84-.43,5.69-.78,8.5-.93.64,0,1.2-.09,1.74-.15,2.93-.28,5.92-.44,9.06-.57,2.73-.1,5.64-.19,8.32-.26,4.34-.11,8.64-.06,12.92,0l.61,0h0c2.65,0,5.24.15,8,.23,4.07.14,8.24.38,12.37.73,2.57.23,5.14.48,7.7.84,1.27.18,2.54.38,3.79.63a10.64,10.64,0,0,0,2.75.61l-.4,0a9,9,0,0,1,3,1.19A2.68,2.68,0,0,1,286,296.07Z"/><path class="cls-6" d="M259.74,305.54h0Z"/><path class="cls-6" d="M258,303.38h0Z"/><path class="cls-5" d="M196.46,297.75l.38-.19.73-.31a25,25,0,0,1,2.86-.85,51.89,51.89,0,0,1,6.1-1.07c2.84-.42,5.69-.77,8.5-.92.64,0,1.2-.1,1.74-.15,2.93-.28,5.92-.45,9.06-.57,2.73-.1,5.64-.2,8.32-.27,4.34-.11,8.64-.05,12.92,0l.61,0h0c2.65,0,5.24.14,8,.23,4.07.14,8.24.38,12.37.73,2.57.22,5.14.48,7.7.84,1.27.18,2.54.38,3.79.63a10.22,10.22,0,0,0,2.75.6l-.4.06a9,9,0,0,1,2.92,1.15,2.88,2.88,0,0,0,1.27-1.54v-.05a2.68,2.68,0,0,0-1.22-2.67,9,9,0,0,0-3-1.19l.4,0a10.64,10.64,0,0,1-2.75-.61c-1.25-.25-2.52-.45-3.79-.63-2.56-.36-5.13-.61-7.7-.84-4.13-.35-8.3-.59-12.37-.73-2.73-.08-5.32-.23-8-.23h0l-.61,0c-4.28,0-8.58-.08-12.92,0-2.68.07-5.59.16-8.32.26-3.14.13-6.13.29-9.06.57-.54.06-1.1.12-1.74.15-2.81.15-5.66.5-8.5.93a49.9,49.9,0,0,0-6.1,1.07,23.11,23.11,0,0,0-2.86.85c-.24.09-.49.19-.73.3l-.38.19-.25.14-.27.18a2.5,2.5,0,0,0-1.29,2,2.57,2.57,0,0,0,1.17,2l.27.2h0l.12-.08Z"/><path class="cls-7" d="M196.65,298.31c.24.14.47.26.71.37a22.79,22.79,0,0,0,2.79,1.07,57.76,57.76,0,0,0,9,2.07c.71.09,1.2.13,2.47.39a54,54,0,0,0,6,.84c3.35.31,7.09.73,10.62.89l.29,0c2.36.74,5.75.24,8.2.25,7,0,13.89.19,20.89-.45,8.88-.81,17.77-1.65,25.87-5.46a9.27,9.27,0,0,0,1.2-.65,9,9,0,0,0-2.92-1.15l.4-.06a10.22,10.22,0,0,1-2.75-.6c-1.25-.25-2.52-.45-3.79-.63-2.56-.36-5.13-.62-7.7-.84-4.13-.35-8.3-.59-12.37-.73-2.73-.09-5.32-.24-8-.23h0l-.61,0c-4.28,0-8.58-.08-12.92,0-2.68.07-5.59.17-8.32.27-3.14.12-6.13.29-9.06.57-.54.05-1.1.12-1.74.15-2.81.15-5.66.5-8.5.92a51.89,51.89,0,0,0-6.1,1.07,25,25,0,0,0-2.86.85l-.73.31-.38.19-.25.13-.12.08.2.14Z"/><path class="cls-8" d="M213.62,320.21a190.66,190.66,0,0,0,20.28,1.12c5-.08,10.06-.29,15.06-.66s10.09-.9,15.1-1.59c4.85-.67,9.66-1.5,14.45-2.45,1.63-.32,3.26-.67,4.88-1,2.17-.47,4.32-1,6.47-1.49q0-1.49.09-3c.05-1,.06-2.06.07-3.09-2.26.54-4.53,1-6.81,1.52q-2.68.59-5.39,1.14c-3.08.63-6.17,1.25-9.28,1.75-3.58.59-7.18,1.06-10.8,1.48q-2.75.32-5.5.56c-2.68.24-5.36.45-8.05.59s-5.5.25-8.25.29c-3.39,0-6.78.08-10.17-.13-7.52-.46-15-1.32-22.49-2.49A133.4,133.4,0,0,1,190.19,310c0,.79.06,1.59.1,2.39.06,1.24.1,2.48.13,3.73.44.12.88.24,1.32.34A194.92,194.92,0,0,0,213.62,320.21Z"/><path class="cls-8" d="M233.9,352.25c5-.08,10.06-.29,15.06-.66s10.09-.9,15.1-1.59c4.85-.67,9.66-1.5,14.45-2.45,1.63-.32,3.26-.67,4.88-1s3.39-.75,5.07-1.15l.27-2.67c.11-1.16.21-2.32.3-3.49-1.93.45-3.88.87-5.82,1.28q-2.68.58-5.39,1.14c-3.08.63-6.17,1.25-9.28,1.75-3.58.59-7.18,1.06-10.8,1.48q-2.75.31-5.5.56c-2.68.24-5.36.45-8.05.59s-5.5.25-8.25.29c-3.39,0-6.78.08-10.17-.13-7.52-.46-15-1.32-22.49-2.49q-6.09-1-12.08-2.48c0,.41.06.81.12,1.22.19,1.56.38,3.13.6,4.69,0,.12,0,.23.05.34a187.55,187.55,0,0,0,41.93,4.79Z"/><path class="cls-8" d="M268.54,374.31c-3.58.58-7.18,1.06-10.8,1.47q-2.75.32-5.5.57c-2.68.24-5.36.44-8.05.58s-5.5.25-8.25.29c-3.39,0-6.78.08-10.17-.13-7.52-.46-15-1.32-22.49-2.49l-2.39-.4a45.53,45.53,0,0,0,5.44,6.89c2.43.37,4.87.69,7.29,1a188.06,188.06,0,0,0,20.28,1.12c5-.08,10.06-.28,15.06-.65s10.09-.91,15.1-1.6c4.16-.57,8.29-1.27,12.4-2.06.29-.36.57-.71.84-1.08a61,61,0,0,0,3.83-5.92l-3.31.7C274.74,373.18,271.65,373.8,268.54,374.31Z"/><path class="cls-8" d="M198,332c4.78.95,9.6,1.78,14.45,2.45q7.51,1,15.1,1.59c5,.37,10,.58,15.05.66a190.85,190.85,0,0,0,20.29-1.12,194.36,194.36,0,0,0,21.87-3.71,33.41,33.41,0,0,0,4.91-1.57c.13-1.65.18-3.3.18-5,0-.31,0-.61,0-.92a129.75,129.75,0,0,1-16.61,3.72c-7.47,1.17-15,2-22.49,2.49-3.39.21-6.79.17-10.17.13-2.76,0-5.5-.14-8.25-.29s-5.37-.35-8.05-.59q-2.76-.24-5.51-.56c-3.61-.42-7.21-.89-10.79-1.48-3.11-.5-6.2-1.12-9.28-1.75q-2.7-.56-5.39-1.14l-2.71-.58c0,2,0,4,0,6.06l2.5.55C194.7,331.37,196.33,331.72,198,332Z"/><path class="cls-8" d="M250.7,362.07c-3.39.21-6.79.17-10.17.12-2.76,0-5.5-.13-8.25-.28s-5.37-.35-8.05-.59q-2.76-.24-5.51-.56c-3.61-.42-7.21-.89-10.79-1.48-3.11-.51-6.2-1.12-9.28-1.75l-5-1.06q.81,3.28,1.92,6.47l2.41.5c4.78.94,9.6,1.78,14.45,2.45q7.51,1,15.1,1.59t15.05.65a188.34,188.34,0,0,0,42.16-4.83l.35-.08c.36-1,.7-2.09,1-3.16a15.56,15.56,0,0,0,.59-2.4c0-.32.08-.64.13-1a134.69,134.69,0,0,1-13.6,2.87C265.72,360.75,258.22,361.61,250.7,362.07Z"/><path class="cls-9" d="M239.61,134.41a27.49,27.49,0,0,1,1.34,5.21c.9,4.2,1.71,8.43,2.55,12.64.06.34.07.69.1,1a4,4,0,0,0-1.91.79c-1.4.84-2.81,1.64-4.22,2.46-2.95,1.74-5.83,3.59-8.76,5.37a5.49,5.49,0,0,1-2.52,1.12,6,6,0,0,1-2.9-1.09c-.16-.09-.28-.23-.43-.31a22.54,22.54,0,0,0-3.78-1.79,4.47,4.47,0,0,0-2.73,0,8.26,8.26,0,0,0-2.11,1.19,21.93,21.93,0,0,0-3.38,3c-.37.36-.69.81-1.28.83q-1.2-5.23-2.39-10.47a2.75,2.75,0,0,0,1.37-1c1.43-1.53,2.92-3,4.22-4.63,1.17-1.46,2.62-1.55,4.23-1.35a5.78,5.78,0,0,1,1.33.39,4.08,4.08,0,0,0,3.52-.28,40.72,40.72,0,0,0,5.92-4C231.78,140.58,235.67,137.46,239.61,134.41Z"/><path class="cls-9" d="M248.77,176.12a7,7,0,0,1,.51,2.38,93,93,0,0,1,1.59,14.79c0,.7,0,1.4-.06,2.1-1.12.48-2.27.89-3.35,1.46s-2,.67-2.83-.46a1.1,1.1,0,0,0-.28-.2,1.56,1.56,0,0,0-1.95-.05l-1.71,1.21c-1.45,1.06-2.87,2.17-4.35,3.19a3.87,3.87,0,0,1-4.43.29,4,4,0,0,0-4.44.26,19.79,19.79,0,0,0-2.55,1.83c-.82.73-1.77,1.31-2.64,2a1.69,1.69,0,0,1-1.14.32L218.53,198a.39.39,0,0,0-.2-.47l-.07-.36a1.32,1.32,0,0,0,.64-.57c.87-1.52,1.79-3,2.6-4.55,1.5-2.9,2.92-5.85,4.41-8.76.63-1.22,1-1.33,2.23-.78.21.09.38.26.59.37a37.43,37.43,0,0,1,3.74,2.25,3.81,3.81,0,0,0,3.8.51c1.57-.62,3.15-1.21,4.7-1.9a9,9,0,0,0,3.14-2.45c.65-.75,1.24-1.54,1.84-2.33A14.27,14.27,0,0,1,248.77,176.12Z"/><path class="cls-9" d="M204.68,143.82a40.48,40.48,0,0,1-1.11-6c-.56-3.79-1-7.59-1.29-11.41a31.33,31.33,0,0,1-.16-5,3.88,3.88,0,0,1,.57.4c1.48,1.48,3,2.93,4.61,4.27a4.44,4.44,0,0,0,3.46,1.3,4.61,4.61,0,0,0,1.63-.58,84.53,84.53,0,0,0,7.75-4.7c1.17-.82,2.16-1.17,3.46-.38,1.1.67,2,.35,2.91-.62,1.62-1.76,3.36-3.4,5.06-5.09.4-.4.75-.92,1.42-.92,1.22,2.69,2.17,5.48,3.18,8.26a10.63,10.63,0,0,1,.76,2.48.41.41,0,0,0,.2.48l.06.36c-2.55,1.81-5.13,3.6-7.65,5.45-1.77,1.31-3.47,2.72-5.21,4.06-1.38,1.06-2.79,2.08-4.16,3.14a2.69,2.69,0,0,1-3.24.2,14.46,14.46,0,0,0-3.18-1.43,4,4,0,0,0-3,.23,6.36,6.36,0,0,0-1.68,1.24C207.6,141,206.13,142.4,204.68,143.82Z"/><path class="cls-9" d="M215.54,189.78a97.76,97.76,0,0,1-3.26-11,34.5,34.5,0,0,1-1.15-5.79,8,8,0,0,0,2.54-2.35,52.11,52.11,0,0,1,4.45-4.7,2,2,0,0,1,2.82-.29c1.17.76,2.3,1.58,3.45,2.37.81.56,1.62,1.14,2.45,1.67a2.7,2.7,0,0,0,2.83.18,27.45,27.45,0,0,0,2.64-1.37c2.66-1.69,5.28-3.42,7.92-5.13q2.19-1.44,4.4-2.85a2.41,2.41,0,0,1,.66-.2,13.41,13.41,0,0,1,.86,3.17,49.63,49.63,0,0,1,1.35,6.27,1.93,1.93,0,0,0-.85.58,38.47,38.47,0,0,0-3.88,4.48,4.48,4.48,0,0,1-2.18,1.65,20.07,20.07,0,0,0-2.07.92c-1.63.78-3.21,1.64-4.9,2.29a3.91,3.91,0,0,1-3,0,34.21,34.21,0,0,0-4.42-1.59,2.53,2.53,0,0,0-2.56.61,11.11,11.11,0,0,0-1.77,1.93c-1.78,2.72-3.73,5.33-5.34,8.17A2.68,2.68,0,0,1,215.54,189.78Z"/><path class="cls-9" d="M223.51,94.4c.19.29.4.56.57.86q3,5.49,5.53,11.17a5,5,0,0,1,.22.65,1.93,1.93,0,0,1-1.1,1.85,17.22,17.22,0,0,0-1.61,1.33c-1,.83-2,1.61-3,2.44a1.52,1.52,0,0,1-1.9.28,2.44,2.44,0,0,0-2.64.22c-.3.19-.6.36-.89.56-1.75,1.16-3.51,2.3-5.24,3.49a5.55,5.55,0,0,1-3.8,1,2,2,0,0,1-1.11-.42c-1.26-1-2.56-2-3.78-3.1a31.07,31.07,0,0,0-2.74-2.14.86.86,0,0,1-.09-.34q.16-4.35.34-8.72l2.6,1a4.77,4.77,0,0,0,4.2-.15c.62-.34,1.22-.7,1.82-1a63.7,63.7,0,0,0,6.21-4.5c1.2-.92,2.32-2,3.57-2.79C221.6,95.48,222.3,94.5,223.51,94.4Z"/><path class="cls-9" d="M226.36,225.91c-.31-1.41-.62-2.82-1-4.22-.61-2.64-1.23-5.29-1.84-7.93a4.38,4.38,0,0,1,0-.52,1.89,1.89,0,0,1,.31-.6,45,45,0,0,0,3.71-3.18,2.56,2.56,0,0,1,.58-.39c.57-.34.75-.33,1.24.08.68.56,1.36,1.1,2,1.66a1.35,1.35,0,0,0,1.47.24,5.11,5.11,0,0,0,.48-.22,43.13,43.13,0,0,0,5.83-3.51c.8-.58,1.62-1.13,2.46-1.66a2.05,2.05,0,0,1,1.82-.3,5.25,5.25,0,0,0,5.2-1.17,4.71,4.71,0,0,1,2.16-1.41c0,.81.06,1.63.06,2.44q0,4.38-.06,8.76c0,.58-.06,1.16-.09,1.75a15.46,15.46,0,0,0-2.36,1.46c-.67.37-1.31.77-2,1.15a1.05,1.05,0,0,1-1.41-.24,11.69,11.69,0,0,0-1.14-1.09,1.73,1.73,0,0,0-2.52.1,4.3,4.3,0,0,0-.64.82c-.5.72-1,1.44-1.45,2.18a19.86,19.86,0,0,1-3.1,3.56,1.2,1.2,0,0,1-1.57.24,14.72,14.72,0,0,0-2.25-.95,3.23,3.23,0,0,0-3.8.9A9.74,9.74,0,0,1,226.36,225.91Z"/><path class="cls-9" d="M239.88,300.3a2.53,2.53,0,0,1,.12.23s0,.08,0,.12a2.61,2.61,0,0,0,.3,1.42.26.26,0,0,1,.07.3,1.93,1.93,0,0,0,.22,1.08.28.28,0,0,1,.11.36c0,.18,0,.35.06.53l1,0a1.41,1.41,0,0,1,0-.29c0-.17,0-.38.22-.38a.56.56,0,0,1,.39.26c.07.15.12.29.19.44l.77,0c2.33-.06,4.66-.17,7-.19a39.93,39.93,0,0,0,.59-4.76q.35-4.71.4-9.42c0-3.5.12-7,0-10.48-1.53.53-3,1.1-4.58,1.57-4.48,1.4-3.39,1.07-7.07-.38-.22-.09-.42-.21-.63-.3a1.81,1.81,0,0,0-2.21.42c-.34.38-.67.82-1.28.8a3.94,3.94,0,0,0,.05.69l2.56,9.85a.29.29,0,0,1,.13.38,2.69,2.69,0,0,0,.34,1.42.23.23,0,0,1,0,.28,1.86,1.86,0,0,0,.12,1.07.57.57,0,0,1,.24.65l.56,2.52a.29.29,0,0,1,.1.37A2.88,2.88,0,0,0,239.88,300.3Z"/><path class="cls-10" d="M204.68,143.82c1.45-1.42,2.92-2.83,4.36-4.26a6.36,6.36,0,0,1,1.68-1.24,4,4,0,0,1,3-.23,14.46,14.46,0,0,1,3.18,1.43,2.69,2.69,0,0,0,3.24-.2c1.37-1.06,2.78-2.08,4.16-3.14,1.74-1.34,3.44-2.75,5.21-4.06,2.52-1.85,5.1-3.64,7.65-5.45a17.32,17.32,0,0,1,1.27,3.58,22.67,22.67,0,0,1,1.15,4.16c-3.94,3.05-7.83,6.17-11.83,9.14a40.72,40.72,0,0,1-5.92,4,4.08,4.08,0,0,1-3.52.28,5.78,5.78,0,0,0-1.33-.39c-1.61-.2-3.06-.11-4.23,1.35-1.3,1.63-2.79,3.1-4.22,4.63a2.75,2.75,0,0,1-1.37,1c-.94-3-1.6-6-2.27-9.07A3.78,3.78,0,0,1,204.68,143.82Z"/><path class="cls-9" d="M250.83,223.12c.13,3.2.28,6.41.4,9.62.08,2.45.12,4.9.17,7.36,0,.28-.07.57-.1.86a13.76,13.76,0,0,0-1.55.22c-2.15.52-4.22,1.28-6.39,1.72a5,5,0,0,1-2.9-.17c-.38-.15-.75-.31-1.13-.48a5.68,5.68,0,0,0-5.35.36,3.65,3.65,0,0,0-.61.34c-.76.63-1.77.89-2.45,1.65-.26.29-.65.24-1,.25q-1.1-5.52-2.17-11.06a4.91,4.91,0,0,1,0-.86,27.43,27.43,0,0,0,2.51-2.87,1.48,1.48,0,0,1,1.84-.53,4.12,4.12,0,0,1,.58.38l2.48,1.63a1.38,1.38,0,0,0,1.64,0,7.46,7.46,0,0,0,2.36-2,42.74,42.74,0,0,0,2.69-4.07,11.24,11.24,0,0,1,.77-1.17c.36-.51.67-.47,1,.11a22.28,22.28,0,0,0,1.22,1.92c.92,1.22,1.82,1.23,2.87.07A2.68,2.68,0,0,0,248,226,13.8,13.8,0,0,1,250.83,223.12Z"/><path class="cls-10" d="M202.05,112.61a31.07,31.07,0,0,1,2.74,2.14c1.22,1.08,2.52,2.06,3.78,3.1a2,2,0,0,0,1.11.42,5.55,5.55,0,0,0,3.8-1c1.73-1.19,3.49-2.33,5.24-3.49.29-.2.59-.37.89-.56a2.44,2.44,0,0,1,2.64-.22,1.52,1.52,0,0,0,1.9-.28c1-.83,2-1.61,3-2.44a17.22,17.22,0,0,1,1.61-1.33,1.93,1.93,0,0,0,1.1-1.85,5.89,5.89,0,0,1,.86,1.87,63.81,63.81,0,0,1,2.3,6.14c-.67,0-1,.52-1.42.92-1.7,1.69-3.44,3.33-5.06,5.09-.89,1-1.81,1.29-2.91.62-1.3-.79-2.29-.44-3.46.38a84.53,84.53,0,0,1-7.75,4.7,4.61,4.61,0,0,1-1.63.58,4.44,4.44,0,0,1-3.46-1.3c-1.62-1.34-3.13-2.79-4.61-4.27a3.88,3.88,0,0,0-.57-.4,10.74,10.74,0,0,1-.19-1.37q-.06-3-.06-6.07A2.87,2.87,0,0,1,202.05,112.61Z"/><path class="cls-10" d="M245.29,160.32a2.41,2.41,0,0,0-.66.2q-2.2,1.41-4.4,2.85c-2.64,1.71-5.26,3.44-7.92,5.13a27.45,27.45,0,0,1-2.64,1.37,2.7,2.7,0,0,1-2.83-.18c-.83-.53-1.64-1.11-2.45-1.67-1.15-.79-2.28-1.61-3.45-2.37a2,2,0,0,0-2.82.29,52.11,52.11,0,0,0-4.45,4.7,8,8,0,0,1-2.54,2.35,14.32,14.32,0,0,1-.69-3.18c-.3-1.64-.58-3.28-.86-4.92.59,0,.91-.47,1.28-.83a21.93,21.93,0,0,1,3.38-3,8.26,8.26,0,0,1,2.11-1.19,4.47,4.47,0,0,1,2.73,0,22.54,22.54,0,0,1,3.78,1.79c.15.08.27.22.43.31a6,6,0,0,0,2.9,1.09,5.49,5.49,0,0,0,2.52-1.12c2.93-1.78,5.81-3.63,8.76-5.37,1.41-.82,2.82-1.62,4.22-2.46a4,4,0,0,1,1.91-.79,39.35,39.35,0,0,1,1.3,5A5.86,5.86,0,0,1,245.29,160.32Z"/><path class="cls-9" d="M301,223.11a4.39,4.39,0,0,1-.31,1.52q-1.07,3.76-2.15,7.52a5.51,5.51,0,0,1-.36.78,7.33,7.33,0,0,0-1.05,0c-1.54.27-3.08.57-4.61.87a25.41,25.41,0,0,1-5.9.52,3.08,3.08,0,0,1-2.05-.84c-.42-.41-.85-.8-1.24-1.24a7.61,7.61,0,0,0-2.06-1.61c-1.17-.67-2.4-1.24-3.81-.6a7.28,7.28,0,0,1-1.18.3c-.27.06-.43-.1-.59-.28a14.42,14.42,0,0,1,.74-3c.74-2.49,1.52-5,2.28-7.46a.3.3,0,0,0,.16-.36h0c1-.32,2.09-.69,3.16-.95a2.79,2.79,0,0,1,2.86.85c.24.25.43.55.66.81a27,27,0,0,1,2.11,3.18,2.27,2.27,0,0,0,1.74,1,5,5,0,0,0,1.39,0c1.65-.27,3.3-.56,4.95-.86,1.48-.27,3-.57,4.43-.84C300.71,222.35,301,222.65,301,223.11Z"/><path class="cls-10" d="M250.81,202.78a4.71,4.71,0,0,0-2.16,1.41,5.25,5.25,0,0,1-5.2,1.17,2.05,2.05,0,0,0-1.82.3c-.84.53-1.66,1.08-2.46,1.66a43.13,43.13,0,0,1-5.83,3.51,5.11,5.11,0,0,1-.48.22,1.35,1.35,0,0,1-1.47-.24c-.66-.56-1.34-1.1-2-1.66-.49-.41-.67-.42-1.24-.08a2.56,2.56,0,0,0-.58.39,45,45,0,0,1-3.71,3.18,1.89,1.89,0,0,0-.31.6l-.85-2.83c-.51-1.73-1-3.45-1.54-5.18a1.69,1.69,0,0,0,1.14-.32c.87-.68,1.82-1.26,2.64-2a19.79,19.79,0,0,1,2.55-1.83,4,4,0,0,1,4.44-.26,3.87,3.87,0,0,0,4.43-.29c1.48-1,2.9-2.13,4.35-3.19l1.71-1.21a1.56,1.56,0,0,1,1.95.05,1.1,1.1,0,0,1,.28.2c.79,1.13,1.72,1.05,2.83.46s2.23-1,3.35-1.46A67.47,67.47,0,0,1,250.81,202.78Z"/><path class="cls-10" d="M215.54,189.78a2.68,2.68,0,0,0,1-1c1.61-2.84,3.56-5.45,5.34-8.17a11.11,11.11,0,0,1,1.77-1.93,2.53,2.53,0,0,1,2.56-.61,34.21,34.21,0,0,1,4.42,1.59,3.91,3.91,0,0,0,3,0c1.69-.65,3.27-1.51,4.9-2.29a20.07,20.07,0,0,1,2.07-.92,4.48,4.48,0,0,0,2.18-1.65,38.47,38.47,0,0,1,3.88-4.48,1.93,1.93,0,0,1,.85-.58,32.73,32.73,0,0,1,1.27,6.36A14.27,14.27,0,0,0,246,179c-.6.79-1.19,1.58-1.84,2.33a9,9,0,0,1-3.14,2.45c-1.55.69-3.13,1.28-4.7,1.9a3.81,3.81,0,0,1-3.8-.51,37.43,37.43,0,0,0-3.74-2.25c-.21-.11-.38-.28-.59-.37-1.2-.55-1.6-.44-2.23.78-1.49,2.91-2.91,5.86-4.41,8.76-.81,1.55-1.73,3-2.6,4.55a1.32,1.32,0,0,1-.64.57,1.37,1.37,0,0,1-.41-.73C217.05,194.22,216.15,192.05,215.54,189.78Z"/><path class="cls-9" d="M212.22,76.89q3.67,5.43,7.34,10.87a.92.92,0,0,1,.11.33,2.27,2.27,0,0,1-.43.53c-2.29,1.51-4.4,3.25-6.6,4.86a68.19,68.19,0,0,1-6.48,4.45,2.19,2.19,0,0,1-2.45,0c-.4-.25-.81-.47-1.21-.71,0-.63-.06-1.26-.07-1.89,0-3.58,0-7.17,0-10.75,0-.57.06-1.15.09-1.72a4.09,4.09,0,0,0,3.21-1,38.88,38.88,0,0,0,3.64-2.9,30.62,30.62,0,0,1,2.39-2A1.47,1.47,0,0,1,212.22,76.89Z"/><path class="cls-9" d="M302.18,207.71a11.38,11.38,0,0,1,.29,3.24,27.76,27.76,0,0,1-.2,5.83,6.75,6.75,0,0,0-2,.38c-2.4.4-4.78.88-7.17,1.3-1.87.33-3.6.2-4.77-1.6a11.76,11.76,0,0,0-.72-1,6.14,6.14,0,0,0-3.33-2.4,4.87,4.87,0,0,0-2.57,0c-.49.15-.57-.24-.67-.58a14.53,14.53,0,0,1,1-2.79,70,70,0,0,1,3.32-7.33c.78-.22,1.55-.45,2.34-.65a1.74,1.74,0,0,1,2,.69c.5.7,1,1.44,1.43,2.18a10.78,10.78,0,0,0,1.85,2.51A1.63,1.63,0,0,0,294,208a39.42,39.42,0,0,0,4.87-.11A21.47,21.47,0,0,1,302.18,207.71Z"/><path class="cls-9" d="M251.43,248c.18,2.91,0,5.83,0,8.74a3.26,3.26,0,0,1-.16,1.38,5.18,5.18,0,0,0-1.35.3c-1.43.47-2.87.93-4.33,1.31a5.1,5.1,0,0,1-3.72-.26,18.45,18.45,0,0,0-2.26-.92,5.93,5.93,0,0,0-5.79.68c-.69.52-1.47.92-2.21,1.38-.06-.34-.14-.68-.17-1-.23-3.16-.46-6.31-.7-9.47,1.84-.9,3.69-1.77,5.49-2.72a2.84,2.84,0,0,1,3.14.09c.63.41,1.29.79,1.9,1.23a3.85,3.85,0,0,0,2.3.69,15.47,15.47,0,0,0,4.28-.71A16.32,16.32,0,0,1,251.43,248Z"/><path class="cls-9" d="M295.43,241.34a63.58,63.58,0,0,1-2.56,6.69,5.5,5.5,0,0,1-1.94.74c-.8.11-1.57.41-2.37.53a36,36,0,0,1-6.38.84c-2.73-.06-2.73,0-5.13-1.32a6,6,0,0,1-.61-.35,5.78,5.78,0,0,0-3.76-1.16,77.13,77.13,0,0,1,1.16-8.44,56.83,56.83,0,0,1,5.13-3l.16-.07a.88.88,0,0,1,.83.11c.23.18.44.38.66.58a21.1,21.1,0,0,1,3.27,3.85,3.59,3.59,0,0,0,3.23,1.7,25.37,25.37,0,0,0,6-.87c.62-.16,1.26-.16,1.88-.33C295.29,240.81,295.36,241.12,295.43,241.34Z"/><path class="cls-9" d="M233.87,275.74a68,68,0,0,1-1.54-7.59,8,8,0,0,1-.05-1.2c1.3-1.07,2.68-2,4.07-3a2.59,2.59,0,0,1,2.93-.2,16.8,16.8,0,0,1,2.23,1.36,3.79,3.79,0,0,0,3.62.5c2.12-.65,4.05-1.74,6.1-2.56,0,.46.09.92.08,1.37,0,3.29-.06,6.57-.09,9.85a5.3,5.3,0,0,1-1.66.49c-1.61.47-3.22,1-4.85,1.37a6.72,6.72,0,0,1-4.75-.26c-.56-.28-1.23-.34-1.82-.57a3.69,3.69,0,0,0-3.63.43C234.28,275.93,234.08,275.83,233.87,275.74Z"/><path class="cls-10" d="M250.83,223.12A13.8,13.8,0,0,0,248,226a2.68,2.68,0,0,1-.31.42c-1.05,1.16-1.95,1.15-2.87-.07a22.28,22.28,0,0,1-1.22-1.92c-.37-.58-.68-.62-1-.11a11.24,11.24,0,0,0-.77,1.17,42.74,42.74,0,0,1-2.69,4.07,7.46,7.46,0,0,1-2.36,2,1.38,1.38,0,0,1-1.64,0l-2.48-1.63a4.12,4.12,0,0,0-.58-.38,1.48,1.48,0,0,0-1.84.53,27.43,27.43,0,0,1-2.51,2.87,28.75,28.75,0,0,1-1-4.67,7.45,7.45,0,0,1-.37-2.35,9.74,9.74,0,0,0,2.15-2,3.23,3.23,0,0,1,3.8-.9,14.72,14.72,0,0,1,2.25.95,1.2,1.2,0,0,0,1.57-.24,19.86,19.86,0,0,0,3.1-3.56c.45-.74,1-1.46,1.45-2.18a4.3,4.3,0,0,1,.64-.82,1.73,1.73,0,0,1,2.52-.1A11.69,11.69,0,0,1,245,218.1a1.05,1.05,0,0,0,1.41.24c.66-.38,1.3-.78,2-1.15a15.46,15.46,0,0,1,2.36-1.46A70,70,0,0,1,250.83,223.12Z"/><path class="cls-9" d="M269.79,264.82a31.39,31.39,0,0,1,.72-4.08c.48-2.72,1-5.44,1.49-8.16a2.88,2.88,0,0,1,3.09.34c.82.55,1.67,1.05,2.45,1.64a5.71,5.71,0,0,0,2.36,1.06,20.35,20.35,0,0,0,8.08.19c.5-.09,1-.23,1.47.23a51.19,51.19,0,0,1-2.4,5.21,75.34,75.34,0,0,1-3.61,6.75,5.54,5.54,0,0,1-1.88-.25c-2.24-.82-4.48-1.64-6.77-2.31-1.42-.43-2.89-.94-4.42-.31C270.13,265.22,269.94,265,269.79,264.82Z"/><path class="cls-10" d="M202.5,97.2c.4.24.81.46,1.21.71a2.19,2.19,0,0,0,2.45,0,68.19,68.19,0,0,0,6.48-4.45c2.2-1.61,4.31-3.35,6.6-4.86a2.27,2.27,0,0,0,.43-.53,39.8,39.8,0,0,1,3.84,6.31c-1.21.1-1.91,1.08-2.81,1.68-1.25.84-2.37,1.87-3.57,2.79a63.7,63.7,0,0,1-6.21,4.5c-.6.35-1.2.71-1.82,1a4.77,4.77,0,0,1-4.2.15l-2.6-1A61.23,61.23,0,0,1,202.5,97.2Z"/><path class="cls-10" d="M295.43,241.34c-.07-.22-.14-.53-.41-.46-.62.17-1.26.17-1.88.33a25.37,25.37,0,0,1-6,.87,3.59,3.59,0,0,1-3.23-1.7,21.1,21.1,0,0,0-3.27-3.85c-.22-.2-.43-.4-.66-.58a.88.88,0,0,0-.83-.11l-.16.07a56.83,56.83,0,0,0-5.13,3,62.48,62.48,0,0,1,1.79-8.66c0-.05.07-.09.1-.13.16.18.32.34.59.28a7.28,7.28,0,0,0,1.18-.3c1.41-.64,2.64-.07,3.81.6a7.61,7.61,0,0,1,2.06,1.61c.39.44.82.83,1.24,1.24a3.08,3.08,0,0,0,2.05.84,25.41,25.41,0,0,0,5.9-.52c1.53-.3,3.07-.6,4.61-.87a7.33,7.33,0,0,1,1.05,0,8.66,8.66,0,0,1-.69,2.51A51.06,51.06,0,0,1,295.43,241.34Zm-6.91-3.85h-1.75a1.42,1.42,0,0,0-1.31.73c-.77,1.21-.49,2.07.86,2.57a2.26,2.26,0,0,0,1,.17c1-.12,2.06-.3,3.08-.49.2,0,.55-.31.53-.37-.17-.54.26-1,.1-1.55-.25-.87-.4-1-1.3-1.06Z"/><path class="cls-9" d="M288.42,196.53c.5-1,1-2.06,1.52-3.09q1.33-2.7,2.69-5.41a.6.6,0,0,0,.35-.64v0a4.16,4.16,0,0,0,1.72-.2,1.51,1.51,0,0,1,1.48.22,3.82,3.82,0,0,1,1.06,1.13,5,5,0,0,0,4,2.36c0,1.63,0,3.26.06,4.9a47.84,47.84,0,0,0,.27,5.07,13.58,13.58,0,0,1,.05,1.57,10.63,10.63,0,0,0-3.27.31,5.77,5.77,0,0,1-1,.06,2.53,2.53,0,0,1-2.61-1.31c-.74-1.11-1.54-2.16-2.35-3.22a2.61,2.61,0,0,0-2.08-1.09c-.46,0-.93,0-1.39,0S288.49,196.82,288.42,196.53Z"/><path class="cls-10" d="M281,212.9c.1.34.18.73.67.58a4.87,4.87,0,0,1,2.57,0,6.14,6.14,0,0,1,3.33,2.4,11.76,11.76,0,0,1,.72,1c1.17,1.8,2.9,1.93,4.77,1.6,2.39-.42,4.77-.9,7.17-1.3a6.75,6.75,0,0,1,2-.38,26.27,26.27,0,0,1-1.23,6.33c-.08-.46-.33-.76-.83-.67-1.48.27-2.95.57-4.43.84-1.65.3-3.3.59-4.95.86a5,5,0,0,1-1.39,0,2.27,2.27,0,0,1-1.74-1,27,27,0,0,0-2.11-3.18c-.23-.26-.42-.56-.66-.81a2.79,2.79,0,0,0-2.86-.85c-1.07.26-2.11.63-3.16.95A31.52,31.52,0,0,1,281,212.9Zm12.07,9.5c.65,0,1.1,0,1.38-.5a1.11,1.11,0,0,1,.51-.45c.51-.2,1.15-.24,1.2-1-.48-.27-1-.1-1.51-.14a2.66,2.66,0,0,0-.69,0c-.16,0-.43.08-.45.18-.16.61-.76.85-1.05,1.34a.29.29,0,0,0,.12.43A2,2,0,0,0,293.07,222.4Z"/><path class="cls-9" d="M280.31,273.83,276.05,282a5.07,5.07,0,0,1-2-.28c-1-.37-2.1-.66-3.16-.93a5.15,5.15,0,0,0-3.72.26,4.34,4.34,0,0,1-.82.25,6.52,6.52,0,0,1,.32-2.23c.63-2.88,1.28-5.77,1.93-8.65a3.07,3.07,0,0,1,2.37-.25,27.11,27.11,0,0,1,6.64,2c.73.35,1.49.65,2.24,1A.83.83,0,0,1,280.31,273.83Z"/><path class="cls-10" d="M251.43,248a16.32,16.32,0,0,0-3.58.7,15.47,15.47,0,0,1-4.28.71,3.85,3.85,0,0,1-2.3-.69c-.61-.44-1.27-.82-1.9-1.23a2.84,2.84,0,0,0-3.14-.09c-1.8,1-3.65,1.82-5.49,2.72l-.81-5.29c.34,0,.73,0,1-.25.68-.76,1.69-1,2.45-1.65a3.65,3.65,0,0,1,.61-.34,5.68,5.68,0,0,1,5.35-.36c.38.17.75.33,1.13.48a5,5,0,0,0,2.9.17c2.17-.44,4.24-1.2,6.39-1.72a13.76,13.76,0,0,1,1.55-.22,2.13,2.13,0,0,1,0,1.45c-1.39-.23-2.58.51-3.87.76-.26.05-.36.26-.42.49a17.91,17.91,0,0,0-.49,2.71c-.14,1.15,0,1.25,1.14,1l3.71-.77A2.89,2.89,0,0,1,251.43,248Z"/><path class="cls-9" d="M265.2,303.24h.18q.87-.12,1.74-.3a60.07,60.07,0,0,1,4.13-11,23.48,23.48,0,0,0,1.66-3.64,20.77,20.77,0,0,0-4.63-1.33,2.51,2.51,0,0,0-1.53.1,3.71,3.71,0,0,1-1.36.23c-.15.86-.34,1.71-.45,2.57-.51,3.81-.95,7.63-1.51,11.44-.1.68-.17,1.37-.28,2.06h.22a14,14,0,0,0,1.6-.1Z"/><path class="cls-10" d="M251.23,263.09c-2,.82-4,1.91-6.1,2.56a3.79,3.79,0,0,1-3.62-.5,16.8,16.8,0,0,0-2.23-1.36,2.59,2.59,0,0,0-2.93.2c-1.39.95-2.77,1.89-4.07,3a26.89,26.89,0,0,1-.67-6.32c.74-.46,1.52-.86,2.21-1.38a5.93,5.93,0,0,1,5.79-.68,18.45,18.45,0,0,1,2.26.92,5.1,5.1,0,0,0,3.72.26c1.46-.38,2.9-.84,4.33-1.31a5.18,5.18,0,0,1,1.35-.3,1.11,1.11,0,0,1,0,1.1l-4.47,1.52a4,4,0,0,0-1.14.36c-.37.26.08.76-.14,1.14a3.55,3.55,0,0,0-.24,1.88c-.17.06-.2.11-.08.14a.58.58,0,0,0,.07-.14,2.5,2.5,0,0,0,1.17-.23c1.6-.76,3.21-1.49,4.82-2.23A2.2,2.2,0,0,1,251.23,263.09Z"/><path class="cls-10" d="M288.42,196.53c.07.29.16.58.51.6s.93,0,1.39,0a2.61,2.61,0,0,1,2.08,1.09c.81,1.06,1.61,2.11,2.35,3.22a2.53,2.53,0,0,0,2.61,1.31,5.77,5.77,0,0,0,1-.06,10.63,10.63,0,0,1,3.27-.31,26.17,26.17,0,0,1,.52,5.3,21.47,21.47,0,0,0-3.29.21A39.42,39.42,0,0,1,294,208a1.63,1.63,0,0,1-1.07-.52A10.78,10.78,0,0,1,291.1,205c-.46-.74-.93-1.48-1.43-2.18a1.74,1.74,0,0,0-2-.69c-.79.2-1.56.43-2.34.65A45.36,45.36,0,0,1,288.42,196.53Z"/><path class="cls-9" d="M295.36,181.7a4.65,4.65,0,0,1,.57-1.64c1.57-3.88,3.28-7.71,5.16-11.45.74-1.46,1.4-3,2.1-4.42a3,3,0,0,1,.73-1.18.76.76,0,0,1,.47-.13.48.48,0,0,1,.47.44,3.58,3.58,0,0,1-.07,1c-1.18,6.06-2.14,12.16-2.78,18.3-.08.75-.21,1.5-.32,2.25a6.07,6.07,0,0,1-2.41-1.63A5.23,5.23,0,0,0,295.36,181.7Z"/><path class="cls-10" d="M289.45,256c-.43-.46-1-.32-1.47-.23a20.35,20.35,0,0,1-8.08-.19,5.71,5.71,0,0,1-2.36-1.06c-.78-.59-1.63-1.09-2.45-1.64a2.88,2.88,0,0,0-3.09-.34,44.15,44.15,0,0,1,.68-5.27,5.78,5.78,0,0,1,3.76,1.16,6,6,0,0,0,.61.35c2.4,1.31,2.4,1.26,5.13,1.32a36,36,0,0,0,6.38-.84c.8-.12,1.57-.42,2.37-.53a5.5,5.5,0,0,0,1.94-.74A62.8,62.8,0,0,1,289.45,256Zm-11-2.6a5,5,0,0,0,2.7,1.15c1.74.14,3.49.06,5.24,0a.51.51,0,0,0,.54-.37,8.44,8.44,0,0,0,.39-1.69c0-.92-.48-1.53-1.35-1.42a4.43,4.43,0,0,0-1,.08,8.6,8.6,0,0,1-2.94.27c-.64,0-1.29,0-1.93,0-.39,0-.7.17-.73.59A1.72,1.72,0,0,1,278.43,253.44Z"/><path class="cls-10" d="M233.87,275.74c.21.09.41.19.64,0a3.69,3.69,0,0,1,3.63-.43c.59.23,1.26.29,1.82.57a6.72,6.72,0,0,0,4.75.26c1.63-.41,3.24-.9,4.85-1.37a5.3,5.3,0,0,0,1.66-.49,2.17,2.17,0,0,1,0,1.4c-.33.1-.66.22-1,.29-1.89.36-3.64,1.17-5.54,1.53a1.33,1.33,0,0,0-1,1.85,2.1,2.1,0,0,0,.54,1.12,16.31,16.31,0,0,0,3.3-.95,20.91,20.91,0,0,1,3.76-1.38,2.1,2.1,0,0,1,0,1.4c-1.53.53-3,1.1-4.58,1.57-4.48,1.4-3.39,1.07-7.07-.38-.22-.09-.42-.21-.63-.3a1.81,1.81,0,0,0-2.21.42c-.34.38-.67.82-1.28.8a2,2,0,0,1-.42-1.1C234.66,279,234.26,277.35,233.87,275.74Z"/><path class="cls-10" d="M212.22,76.89a1.47,1.47,0,0,0-.49.12,30.62,30.62,0,0,0-2.39,2,38.88,38.88,0,0,1-3.64,2.9,4.09,4.09,0,0,1-3.21,1,44.05,44.05,0,0,1,0-6,16.72,16.72,0,0,0,3.39-2.11c1.07-.88,2.23-1.66,3.34-2.48A28.52,28.52,0,0,1,212.22,76.89Z"/><path class="cls-9" d="M209.21,72.28c-1.11.82-2.27,1.6-3.34,2.48a16.72,16.72,0,0,1-3.39,2.11c-.06-.52-.15-1-.19-1.56q-.25-4-.49-8a7.18,7.18,0,0,1,0-1.39,1,1,0,0,1,1.42-.79,3.52,3.52,0,0,1,1,.68A37.68,37.68,0,0,1,209.21,72.28Z"/><path class="cls-10" d="M280.31,273.83a.83.83,0,0,0-.5-.66c-.75-.31-1.51-.61-2.24-1a27.11,27.11,0,0,0-6.64-2,3.07,3.07,0,0,0-2.37.25,45.05,45.05,0,0,1,1.23-5.62c.15.18.34.4.58.31,1.53-.63,3-.12,4.42.31,2.29.67,4.53,1.49,6.77,2.31a5.54,5.54,0,0,0,1.88.25,5.44,5.44,0,0,1-1,1.76,3.9,3.9,0,0,0-1.79-1c-1.19-.44-2.42-.77-3.59-1.29a8.39,8.39,0,0,0-1.67-.45,1.19,1.19,0,0,0-1.21.78c-.14.36.14.52.38.68a1.13,1.13,0,0,1,.5.87.78.78,0,0,0,.57.77c1.84.68,3.67,1.38,5.51,2.08A4.59,4.59,0,0,1,280.31,273.83Z"/><path class="cls-10" d="M295.36,181.7a5.23,5.23,0,0,1,3.92,1.57,6.07,6.07,0,0,0,2.41,1.63,54.26,54.26,0,0,1-.41,6,5,5,0,0,1-4-2.36,3.82,3.82,0,0,0-1.06-1.13,1.51,1.51,0,0,0-1.48-.22,4.16,4.16,0,0,1-1.72.2A44.51,44.51,0,0,1,295.36,181.7Z"/><path class="cls-10" d="M272.91,288.32a20.77,20.77,0,0,0-4.63-1.33,2.51,2.51,0,0,0-1.53.1,3.71,3.71,0,0,1-1.36.23,32.84,32.84,0,0,1,.92-6,4.34,4.34,0,0,0,.82-.25,5.15,5.15,0,0,1,3.72-.26c1.06.27,2.13.56,3.16.93a5.07,5.07,0,0,0,2,.28,7.44,7.44,0,0,1-1,2c-.07-.16-.09-.4-.21-.46a19.56,19.56,0,0,0-4.26-1.48.69.69,0,0,0-.62.2c-.35.74-1.24.82-1.69,1.38.18.56.38,1.05.49,1.56a.8.8,0,0,0,.65.7l3.51,1a3.16,3.16,0,0,0,.69,0A3.16,3.16,0,0,1,272.91,288.32Z"/><path class="cls-9" d="M273.61,286.93a3.16,3.16,0,0,1-.69,0l-3.51-1a.8.8,0,0,1-.65-.7c-.11-.51-.31-1-.49-1.56.45-.56,1.34-.64,1.69-1.38a.69.69,0,0,1,.62-.2,19.56,19.56,0,0,1,4.26,1.48c.12.06.14.3.21.46A16.16,16.16,0,0,1,273.61,286.93Z"/><path class="cls-9" d="M281.16,272.19c-1.84-.7-3.67-1.4-5.51-2.08a.78.78,0,0,1-.57-.77,1.13,1.13,0,0,0-.5-.87c-.24-.16-.52-.32-.38-.68a1.19,1.19,0,0,1,1.21-.78,8.39,8.39,0,0,1,1.67.45c1.17.52,2.4.85,3.59,1.29a3.9,3.9,0,0,1,1.79,1A9.33,9.33,0,0,1,281.16,272.19Z"/><path class="cls-9" d="M251.42,246.59l-3.71.77c-1.19.26-1.28.16-1.14-1a17.91,17.91,0,0,1,.49-2.71c.06-.23.16-.44.42-.49,1.29-.25,2.48-1,3.87-.76A18.84,18.84,0,0,1,251.42,246.59Z"/><path class="cls-9" d="M251.22,278.17a20.91,20.91,0,0,0-3.76,1.38,16.31,16.31,0,0,1-3.3.95,2.1,2.1,0,0,1-.54-1.12,1.33,1.33,0,0,1,1-1.85c1.9-.36,3.65-1.17,5.54-1.53.34-.07.67-.19,1-.29A7.52,7.52,0,0,1,251.22,278.17Z"/><path class="cls-9" d="M245.27,264.14a3.55,3.55,0,0,1,.24-1.88c.22-.38-.23-.88.14-1.14a4,4,0,0,1,1.14-.36l4.47-1.52a7.14,7.14,0,0,1,0,2.44c-1.61.74-3.22,1.47-4.82,2.23a2.5,2.5,0,0,1-1.17.23Z"/><path class="cls-10" d="M293,187.39a.6.6,0,0,1-.35.64A.63.63,0,0,1,293,187.39Z"/><path class="cls-10" d="M238.71,295.37a.57.57,0,0,1,.24.65A.67.67,0,0,1,238.71,295.37Z"/><path class="cls-10" d="M238.08,292.22a.29.29,0,0,1,.13.38A.27.27,0,0,1,238.08,292.22Z"/><path class="cls-10" d="M238.55,294a.23.23,0,0,1,0,.28A.17.17,0,0,1,238.55,294Z"/><path class="cls-10" d="M237.13,126.31a.41.41,0,0,1-.2-.48A.41.41,0,0,1,237.13,126.31Z"/><path class="cls-10" d="M239.51,298.54a.29.29,0,0,1,.1.37,1.94,1.94,0,0,1-.15-.24S239.49,298.59,239.51,298.54Z"/><path class="cls-10" d="M239.88,300.3a2.53,2.53,0,0,1,.12.23s0,.08,0,.12a1.7,1.7,0,0,1-.15-.22S239.86,300.34,239.88,300.3Z"/><path class="cls-10" d="M240.27,302.07a.26.26,0,0,1,.07.3.86.86,0,0,1-.13-.2S240.25,302.1,240.27,302.07Z"/><path class="cls-10" d="M240.56,303.45a.28.28,0,0,1,.11.36c0-.08-.12-.15-.16-.23S240.54,303.49,240.56,303.45Z"/><path class="cls-10" d="M278.91,219.23a.3.3,0,0,1-.16.36A.25.25,0,0,1,278.91,219.23Z"/><path class="cls-10" d="M218.33,197.52a.39.39,0,0,1,.2.47A.39.39,0,0,1,218.33,197.52Z"/><path class="cls-9" d="M288.52,237.49h1.23c.9,0,1.05.19,1.3,1.06.16.54-.27,1-.1,1.55,0,.06-.33.33-.53.37-1,.19-2.05.37-3.08.49a2.26,2.26,0,0,1-1-.17c-1.35-.5-1.63-1.36-.86-2.57a1.42,1.42,0,0,1,1.31-.73h1.75Z"/><path class="cls-9" d="M293.07,222.4a2,2,0,0,1-.49-.12.29.29,0,0,1-.12-.43c.29-.49.89-.73,1.05-1.34,0-.1.29-.16.45-.18a2.66,2.66,0,0,1,.69,0c.5,0,1-.13,1.51.14-.05.76-.69.8-1.2,1a1.11,1.11,0,0,0-.51.45C294.17,222.38,293.72,222.41,293.07,222.4Z"/><path class="cls-9" d="M245.26,264.14a.58.58,0,0,1-.07.14c-.12,0-.09-.08.08-.14Z"/><path class="cls-9" d="M278.43,253.44a1.72,1.72,0,0,0,.88-1.33c0-.42.34-.58.73-.59.64,0,1.29,0,1.93,0a8.6,8.6,0,0,0,2.94-.27,4.43,4.43,0,0,1,1-.08c.87-.11,1.38.5,1.35,1.42a8.44,8.44,0,0,1-.39,1.69.51.51,0,0,1-.54.37c-1.75,0-3.5.09-5.24,0A5,5,0,0,1,278.43,253.44Z"/><path class="cls-11" d="M252.64,244.82a18.76,18.76,0,0,1-.57-3.8,92.53,92.53,0,0,0-2.58-13.39,1.37,1.37,0,0,1,0-.35c.37-.3.32-.72.32-1.12a2.86,2.86,0,0,1,.52-2.13c.26-.29.08-.62-.12-.94-.3-.47-.2-.64.26-.69a7.24,7.24,0,0,1,4,.74,22.19,22.19,0,0,0,2.08.86,2.65,2.65,0,0,0,1.88,0c.86-.33,1.72-.68,2.55-1.08a39.81,39.81,0,0,0,4.89-3,27.16,27.16,0,0,1,.53,4.67c.42,4.75.77,9.51,1.14,14.27a2,2,0,0,1,0,.34c-1,.44-1.91.85-2.83,1.33a4.57,4.57,0,0,1-3.21.28c-.39-.09-.77-.26-1.16-.38a3.84,3.84,0,0,0-3,.26,7.19,7.19,0,0,0-1.66,1.24A27.28,27.28,0,0,1,252.64,244.82Z"/><path class="cls-11" d="M211.6,160.29a17.71,17.71,0,0,1,.82,3.86,52.23,52.23,0,0,1,.82,6,2.65,2.65,0,0,0-1.76.66c-1.49,1.11-2.95,2.25-4.46,3.32a29.87,29.87,0,0,1-3,1.84,2,2,0,0,1-2.42-.14c-1.06-.81-2.18-1.53-3.31-2.24a22,22,0,0,0-4.36-2.13,4.11,4.11,0,0,0-3.51.39,10.18,10.18,0,0,0-1.28.9c-1.37,1.07-2.76,2.11-4.05,3.29a3.51,3.51,0,0,1-1.92,1.12,10.7,10.7,0,0,1-.84-2.81,44.78,44.78,0,0,1-1.2-5.95,1.4,1.4,0,0,0,1.46-.75,14.79,14.79,0,0,1,2.19-2.48,1.79,1.79,0,0,1,2.06-.51c.65.23,1.3.5,1.94.77,1,.44,2,.88,3,1.34a1.63,1.63,0,0,0,2-.43,25.36,25.36,0,0,0,3-3.59c.84-1.19,1.19-1.27,2.42-.44.63.43,1.31.74,2,1.11a5,5,0,0,0,5.29,0q.54-.3,1.05-.63c1-.63,1.95-1.26,2.9-1.91A2,2,0,0,1,211.6,160.29Z"/><path class="cls-11" d="M214.69,188.36c.11,1.79.24,3.58.31,5.37.13,3.24.22,6.48.33,9.73,0,.23,0,.46-.05.69a2.57,2.57,0,0,1-1.32-.39c-.73-.37-1.47-.71-2.19-1.1a1.59,1.59,0,0,0-1.81,0,12.41,12.41,0,0,0-2.9,2.45,36.3,36.3,0,0,1-3.37,3.53,3.5,3.5,0,0,1-.73.47,1.08,1.08,0,0,1-1.43-.15,19.91,19.91,0,0,0-1.78-1.4c-.72-.49-1.47-.92-2.23-1.36a2.33,2.33,0,0,0-2.33-.05,7.75,7.75,0,0,0-2.11,1.53c-.52.51-.9,1.25-1.76,1.34-.07-.69-.16-1.38-.21-2.07-.22-2.7-.43-5.41-.64-8.11.85-.33,1.05-1.2,1.51-1.85s.78-1.29,1.19-1.93a1.38,1.38,0,0,1,1-.72,3.39,3.39,0,0,1,2.38.3c.59.38,1.15.8,1.72,1.19s1.36.91,2,1.37a2.48,2.48,0,0,0,3.09,0c.14-.1.32-.14.45-.25,1.24-1,2.49-1.92,3.69-2.93s2.14-2,3.28-2.87c.69-.54,1.35-1.1,2-1.67A4.05,4.05,0,0,1,214.69,188.36Z"/><path class="cls-11" d="M180.39,162.05a12.48,12.48,0,0,1-.26-1.7,52.42,52.42,0,0,1-.23-6,1.73,1.73,0,0,0,1-.69c1.38-1.5,3.15-2.57,4.49-4.11a2.76,2.76,0,0,1,.71-.5,1.69,1.69,0,0,1,1.82,0,24.42,24.42,0,0,1,2.29,1.26c.75.53,1.59.95,2.39,1.42a1.2,1.2,0,0,0,1.16,0,14,14,0,0,0,2.66-1.64c2.66-2.05,5.38-4,8.18-5.89.68-.45,1.34-.92,2-1.36a.94.94,0,0,0,.42-.72,20.44,20.44,0,0,1,1.13,3.64c.65,2.35,1.27,4.71,1.9,7.06a6.12,6.12,0,0,1,.1.86,3.22,3.22,0,0,0-1.79,1c-1.47,1.15-3.1,2-4.59,3.16a1.26,1.26,0,0,1-1.6.06c-1-.65-1.94-1.28-2.86-2a4.07,4.07,0,0,0-1.35-.77,1.59,1.59,0,0,0-1.64.3,27.46,27.46,0,0,0-2.52,2.66c-.67.9-1.5,1.61-2.24,2.43a1.66,1.66,0,0,1-1.77.42,4.86,4.86,0,0,1-1-.43,17.91,17.91,0,0,0-2.94-1.1,2.91,2.91,0,0,0-2.36.19,6.5,6.5,0,0,0-1.72,1.18A5.43,5.43,0,0,1,180.39,162.05Z"/><path class="cls-11" d="M236.77,169.45a4.27,4.27,0,0,1-.15-.67,102.77,102.77,0,0,1,.61-15.49,6.25,6.25,0,0,0,2.32-.66,17.39,17.39,0,0,1,1.95-.69,1.52,1.52,0,0,1,1.6.42,12.07,12.07,0,0,1,1.59,1.83,2.4,2.4,0,0,0,2.31,1.23,27.79,27.79,0,0,0,6-.9c.34-.08.68-.12,1-.17.6,1.69.83,3.47,1.26,5.2.51,2.07,1,4.15,1.47,6.22a8.08,8.08,0,0,1,.08.86,6.8,6.8,0,0,0-2.23,1,34.5,34.5,0,0,1-4,1.64,3.15,3.15,0,0,1-3.12-.46,17.76,17.76,0,0,0-2.14-1.49,3.84,3.84,0,0,0-4.12,0C239.73,168.06,238.23,168.72,236.77,169.45Z"/><path class="cls-11" d="M188.79,192.2q-1.09-2.72-2.18-5.44a34.28,34.28,0,0,1-1.56-4,1.5,1.5,0,0,0,1.25-.49,10.56,10.56,0,0,1,1.14-1.08c1.42-1.11,2.83-2.23,4.3-3.28a17.32,17.32,0,0,1,2.57-1.79,1.63,1.63,0,0,1,1.63,0,10.32,10.32,0,0,1,2.7,1.91,25.77,25.77,0,0,0,2.88,2.54,2.47,2.47,0,0,0,2.74.46,33.59,33.59,0,0,0,4.37-2.18l5.23-3.14a33.69,33.69,0,0,1,.44,4.92,1.56,1.56,0,0,0-.79.34c-1.11.83-2.25,1.63-3.35,2.48-1.89,1.45-3.74,2.93-5.62,4.38-1.46,1.14-2.95,2.25-4.42,3.37a2.24,2.24,0,0,1-2.6.34c-.41-.21-.86-.35-1.29-.52a8.84,8.84,0,0,0-4.73-.9A2.91,2.91,0,0,0,188.79,192.2Z"/><path class="cls-11" d="M180,145.92a37.75,37.75,0,0,1,.16-5.21c.17-3.3.4-6.6.61-9.89,0-.35.09-.69.14-1a8.42,8.42,0,0,0,.87,0,4,4,0,0,1,3,1,21.79,21.79,0,0,0,3.36,2.19,5.61,5.61,0,0,0,4.21.45c3.17-.77,6.15-2.1,9.25-3.08a1.18,1.18,0,0,0,.88-1.33,30,30,0,0,1,1.75,4.47,14.29,14.29,0,0,1,1.06,3.26,3.78,3.78,0,0,0-1.57.7c-1.4.95-2.82,1.86-4.2,2.81-2.2,1.52-4.4,3-6.55,4.62a2.13,2.13,0,0,1-2.7.2,25.61,25.61,0,0,0-2.34-1.18,16.13,16.13,0,0,0-1.79-.69,2.5,2.5,0,0,0-1.88.07,10.94,10.94,0,0,0-2.58,1.45A16.23,16.23,0,0,1,180,145.92Z"/><path class="cls-11" d="M262,192.57c.51,2.81,1,5.61,1.51,8.42a4.08,4.08,0,0,1,0,.7,4.41,4.41,0,0,0-2.21.44c-1.8.67-3.56,1.42-5.36,2.09a7.37,7.37,0,0,1-5.11.33c-.6-.21-1.23-.34-1.85-.49-1.75-.44-3.45-.6-5,.69a12.83,12.83,0,0,1-1.32.84,36.8,36.8,0,0,1-1.52-5.36,75.11,75.11,0,0,1-1.73-8,2.67,2.67,0,0,0,1.48-.46c.74-.36,1.47-.73,2.2-1.1a1.37,1.37,0,0,1,1.75.3,16.74,16.74,0,0,1,2.14,2.31,2.34,2.34,0,0,0,2.07,1.06,3.53,3.53,0,0,0,1.66-.46,37,37,0,0,0,5.14-3,2.06,2.06,0,0,1,2.71.11l1.27.91A2.92,2.92,0,0,0,262,192.57Z"/><path class="cls-11" d="M247.81,222a74.1,74.1,0,0,1-3.59-10.88c.31-.26.64-.5.93-.77s.65-.68,1-1a2.2,2.2,0,0,1,3-.19,7.08,7.08,0,0,1,1.21.67,3,3,0,0,0,2.12.58,3.82,3.82,0,0,0,1.82-.5l7-3.51a7.08,7.08,0,0,1,2.78-.92c.55,2.45.79,5,1.13,7.43a53.06,53.06,0,0,1,.61,5.91,6.27,6.27,0,0,0-1,.37c-1,.57-2,1.15-3,1.76a14.77,14.77,0,0,1-3.29,1.55,3.32,3.32,0,0,1-2.36-.12c-1.13-.45-2.3-.79-3.44-1.21a3.87,3.87,0,0,0-2.88,0C249.22,221.52,248.51,221.77,247.81,222Z"/><path class="cls-11" d="M215.67,212.21c.14,3,.3,6,.43,9,0,1,0,2,0,2.93-.12,0-.24,0-.35.06-1.28.35-1.63.2-2.18-.95-.2-.42-.32-.88-.51-1.3a1.43,1.43,0,0,0-2.41-.56,12.94,12.94,0,0,0-2.31,2.37,11.57,11.57,0,0,1-2.63,2.51c-.49.4-.71.41-1.25.05-1.17-.77-2.3-1.58-3.47-2.33a2.85,2.85,0,0,0-3.83.34c-.6.55-1.16,1.15-1.73,1.73a1.43,1.43,0,0,1-1.06.54,17.1,17.1,0,0,1-.86-3.54c-.55-2.66-1.17-5.32-1.51-8a1.2,1.2,0,0,0,1.21-.53,16.19,16.19,0,0,1,2.59-2.83c.55-.57.73-.53,1.32,0a16.8,16.8,0,0,1,3,4.05,9.87,9.87,0,0,0,1.71,2.41,1.2,1.2,0,0,0,1.72.12,10.1,10.1,0,0,0,1.76-1.93c1.2-1.79,2.36-3.6,3.43-5.47.4-.71.91-1.53,1.73-1.6.61,0,1.22.57,1.74,1a3.3,3.3,0,0,0,.51.48C213.69,211.32,214.45,212.22,215.67,212.21Z"/><path class="cls-11" d="M257.91,171.82a15.64,15.64,0,0,1,.8,3.39c.53,2.51,1,5,1.55,7.55a7.17,7.17,0,0,1,.07,1,3.07,3.07,0,0,0-1.19.23L253.9,186a27,27,0,0,1-3.66,1.09,2.24,2.24,0,0,1-2.19-.63,16.07,16.07,0,0,0-1.45-1.27,3.53,3.53,0,0,0-3.63-.36c-1.08.42-2.13.93-3.19,1.4a3.65,3.65,0,0,1-1.32.46,25.25,25.25,0,0,1-.77-4.64,34.62,34.62,0,0,1-.5-5.92,4.2,4.2,0,0,0,1.91-.82c.79-.52,1.68-.85,2.43-1.38,1.34-.93,2.43-.39,3.49.42a13.52,13.52,0,0,1,1.38,1.35,3.7,3.7,0,0,0,1.26.92,1.27,1.27,0,0,0,.85.13,12.86,12.86,0,0,0,1.67-.48c2.43-1.11,4.83-2.3,7.18-3.58A1,1,0,0,0,257.91,171.82Z"/><path class="cls-11" d="M216.43,229.74c.26,3.62.46,7.25.41,10.88a14.06,14.06,0,0,1-1.48-.92c-1.66-1.1-2.61-1.16-3.87.17-1,1-2.16,1.78-3.15,2.76a1.15,1.15,0,0,1-1.43.22c-1.45-.59-2.93-1.12-4.4-1.68a3.38,3.38,0,0,0-2.22,0,7,7,0,0,0-1.7.87c-.81-2.55-1.64-5.09-2.43-7.64-.25-.83-.41-1.69-.61-2.54a1.86,1.86,0,0,0,1-.23,14,14,0,0,0,2.64-2.28,4.31,4.31,0,0,1,1.51-1.16.68.68,0,0,1,.8.12,3.5,3.5,0,0,1,.56.66,19.92,19.92,0,0,0,2.62,2.81,1.55,1.55,0,0,0,1.62.37,3.34,3.34,0,0,0,1.09-.53c.67-.45,1.3-1,2-1.44,1.25-.89,1.26-.89,2.51,0a2.23,2.23,0,0,0,2.44.35C215,230.21,215.72,230,216.43,229.74Z"/><path class="cls-12" d="M180.39,162.05a5.43,5.43,0,0,0,1.42-1.28,6.5,6.5,0,0,1,1.72-1.18,2.91,2.91,0,0,1,2.36-.19,17.91,17.91,0,0,1,2.94,1.1,4.86,4.86,0,0,0,1,.43,1.66,1.66,0,0,0,1.77-.42c.74-.82,1.57-1.53,2.24-2.43a27.46,27.46,0,0,1,2.52-2.66,1.59,1.59,0,0,1,1.64-.3,4.07,4.07,0,0,1,1.35.77c.92.7,1.9,1.33,2.86,2a1.26,1.26,0,0,0,1.6-.06c1.49-1.11,3.12-2,4.59-3.16a3.22,3.22,0,0,1,1.79-1,36,36,0,0,1,1.45,6.65,2,2,0,0,0-1.09.51c-.95.65-1.93,1.28-2.9,1.91q-.51.33-1.05.63a5,5,0,0,1-5.29,0c-.66-.37-1.34-.68-2-1.11-1.23-.83-1.58-.75-2.42.44a25.36,25.36,0,0,1-3,3.59,1.63,1.63,0,0,1-2,.43c-1-.46-2-.9-3-1.34-.64-.27-1.29-.54-1.94-.77a1.79,1.79,0,0,0-2.06.51,14.79,14.79,0,0,0-2.19,2.48,1.4,1.4,0,0,1-1.46.75A29.86,29.86,0,0,1,180.39,162.05Z"/><path class="cls-11" d="M267.77,245.51a10.67,10.67,0,0,1,.2,2.93c0,3.12,0,6.25,0,9.38a5.4,5.4,0,0,1-.08.69,5.93,5.93,0,0,0-2,.53,5.31,5.31,0,0,1-4.92-.57,13.13,13.13,0,0,0-2.17-1.05,3.48,3.48,0,0,0-3.17.08,4.16,4.16,0,0,1-1.59.64,44,44,0,0,1-.6-5c-.29-2.3-.49-4.6-.73-6.91.52,0,.81-.42,1.14-.74,1-1,2-2,3-3a3.76,3.76,0,0,1,4.37-.38c.42.26.53.66.18,1a5.34,5.34,0,0,0-.87,1.67c-.25.53-1.12.53-1.5,1.09-.26.39-.58.72-.86,1.09-1.38,1.87-2.34,4-3.87,5.79a1.58,1.58,0,0,0-.26,1.33.47.47,0,0,0,.45.44c.15,0,.41-.11.44-.21a9.33,9.33,0,0,1,1.61-2.67c.78-1.22,1.6-2.42,2.38-3.65,1.19-1.87,1.86-2.15,3.72-1.55.44.14.9.22,1.35.34a3,3,0,0,0,2.79-.59C267.11,246,267.44,245.75,267.77,245.51Z"/><path class="cls-12" d="M180,145.92a16.23,16.23,0,0,0,1.72-1.17,10.94,10.94,0,0,1,2.58-1.45,2.5,2.5,0,0,1,1.88-.07,16.13,16.13,0,0,1,1.79.69,25.61,25.61,0,0,1,2.34,1.18,2.13,2.13,0,0,0,2.7-.2c2.15-1.59,4.35-3.1,6.55-4.62,1.38-.95,2.8-1.86,4.2-2.81a3.78,3.78,0,0,1,1.57-.7h0l.18.36a27,27,0,0,1,1.54,5,.94.94,0,0,1-.42.72c-.68.44-1.34.91-2,1.36-2.8,1.86-5.52,3.84-8.18,5.89a14,14,0,0,1-2.66,1.64,1.2,1.2,0,0,1-1.16,0c-.8-.47-1.64-.89-2.39-1.42A24.42,24.42,0,0,0,187.9,149a1.69,1.69,0,0,0-1.82,0,2.76,2.76,0,0,0-.71.5c-1.34,1.54-3.11,2.61-4.49,4.11a1.73,1.73,0,0,1-1,.69,28,28,0,0,1-.14-5.34A11,11,0,0,1,180,145.92Z"/><path class="cls-12" d="M215.67,212.21c-1.22,0-2-.89-2.9-1.47a3.3,3.3,0,0,1-.51-.48c-.52-.47-1.13-1.08-1.74-1-.82.07-1.33.89-1.73,1.6-1.07,1.87-2.23,3.68-3.43,5.47a10.1,10.1,0,0,1-1.76,1.93,1.2,1.2,0,0,1-1.72-.12,9.87,9.87,0,0,1-1.71-2.41,16.8,16.8,0,0,0-3-4.05c-.59-.51-.77-.55-1.32,0a16.19,16.19,0,0,0-2.59,2.83A1.2,1.2,0,0,1,192,215a27.83,27.83,0,0,1-.72-6c.86-.09,1.24-.83,1.76-1.34a7.75,7.75,0,0,1,2.11-1.53,2.33,2.33,0,0,1,2.33.05c.76.44,1.51.87,2.23,1.36a19.91,19.91,0,0,1,1.78,1.4,1.08,1.08,0,0,0,1.43.15,3.5,3.5,0,0,0,.73-.47,36.3,36.3,0,0,0,3.37-3.53,12.41,12.41,0,0,1,2.9-2.45,1.59,1.59,0,0,1,1.81,0c.72.39,1.46.73,2.19,1.1a2.57,2.57,0,0,0,1.32.39C215.49,206.83,215.69,209.51,215.67,212.21Z"/><path class="cls-12" d="M188.79,192.2a2.91,2.91,0,0,1,2.71-2.06,8.84,8.84,0,0,1,4.73.9c.43.17.88.31,1.29.52a2.24,2.24,0,0,0,2.6-.34c1.47-1.12,3-2.23,4.42-3.37,1.88-1.45,3.73-2.93,5.62-4.38,1.1-.85,2.24-1.65,3.35-2.48a1.56,1.56,0,0,1,.79-.34,55.09,55.09,0,0,1,.39,7.71,4.05,4.05,0,0,0-1.92,1.14c-.67.57-1.33,1.13-2,1.67-1.14.9-2.17,1.94-3.28,2.87s-2.45,2-3.69,2.93c-.13.11-.31.15-.45.25a2.48,2.48,0,0,1-3.09,0c-.66-.46-1.34-.91-2-1.37s-1.13-.81-1.72-1.19a3.39,3.39,0,0,0-2.38-.3,1.38,1.38,0,0,0-1,.72c-.41.64-.76,1.31-1.19,1.93s-.66,1.52-1.51,1.85c-.32-1.34-.63-2.68-1-4C189.28,194,189,193.09,188.79,192.2Z"/><path class="cls-12" d="M213.86,175.73l-5.23,3.14a33.59,33.59,0,0,1-4.37,2.18,2.47,2.47,0,0,1-2.74-.46,25.77,25.77,0,0,1-2.88-2.54,10.32,10.32,0,0,0-2.7-1.91,1.63,1.63,0,0,0-1.63,0,17.32,17.32,0,0,0-2.57,1.79c-1.47,1-2.88,2.17-4.3,3.28a10.56,10.56,0,0,0-1.14,1.08,1.5,1.5,0,0,1-1.25.49,20.3,20.3,0,0,1-1.53-4.57.37.37,0,0,0-.09-.28,1,1,0,0,1-.22-.77,3.51,3.51,0,0,0,1.92-1.12c1.29-1.18,2.68-2.22,4.05-3.29a10.18,10.18,0,0,1,1.28-.9,4.11,4.11,0,0,1,3.51-.39,22,22,0,0,1,4.36,2.13c1.13.71,2.25,1.43,3.31,2.24a2,2,0,0,0,2.42.14,29.87,29.87,0,0,0,3-1.84c1.51-1.07,3-2.21,4.46-3.32a2.65,2.65,0,0,1,1.76-.66A40.79,40.79,0,0,1,213.86,175.73Z"/><path class="cls-11" d="M181.33,124.53a42.92,42.92,0,0,1,.84-8.07,2.63,2.63,0,0,0,1.67-.34,1.74,1.74,0,0,1,2.22.27c.51.38,1,.78,1.54,1.13a1.59,1.59,0,0,0,.78.31,10.8,10.8,0,0,0,3.11-.11c1.5-.41,3-.82,4.5-1.27a3,3,0,0,0,1.56-.68c.43,1.13.86,2.26,1.27,3.39.61,1.67,1.22,3.35,1.82,5a2.91,2.91,0,0,0-.51.12,89.48,89.48,0,0,1-8.64,2.76c-1.85.51-3.57.56-5-1.09a4.38,4.38,0,0,0-1.92-1.15A9.91,9.91,0,0,0,181.33,124.53Z"/><path class="cls-11" d="M217.12,246.23a65.84,65.84,0,0,1,.15,8.07l-.84.2c-1.69.43-3.23,1.28-5,1.68a3.27,3.27,0,0,1-2.66-.29A6.28,6.28,0,0,0,205,255a5.15,5.15,0,0,0-2.53.53,3.72,3.72,0,0,1-.84.24c-.54-2.43-1.1-4.86-1.62-7.29a5,5,0,0,1-.32-1.87A1.28,1.28,0,0,0,201,246a3.92,3.92,0,0,1,.51-.7.71.71,0,0,1,.92-.26,7.92,7.92,0,0,1,2.93,1.86,5.21,5.21,0,0,0,1.73,1.16,2,2,0,0,0,2,0,17.86,17.86,0,0,0,3-2.1,1,1,0,0,1,1.28-.17,4.13,4.13,0,0,0,2.53.49Z"/><path class="cls-12" d="M257.91,171.82a1,1,0,0,1-.55.83c-2.35,1.28-4.75,2.47-7.18,3.58a12.86,12.86,0,0,1-1.67.48,1.27,1.27,0,0,1-.85-.13,3.7,3.7,0,0,1-1.26-.92,13.52,13.52,0,0,0-1.38-1.35c-1.06-.81-2.15-1.35-3.49-.42-.75.53-1.64.86-2.43,1.38a4.2,4.2,0,0,1-1.91.82,34.36,34.36,0,0,1-.42-6.64c1.46-.73,3-1.39,4.37-2.2a3.84,3.84,0,0,1,4.12,0,17.76,17.76,0,0,1,2.14,1.49,3.15,3.15,0,0,0,3.12.46,34.5,34.5,0,0,0,4-1.64,6.8,6.8,0,0,1,2.23-1A27,27,0,0,1,257.91,171.82Z"/><path class="cls-11" d="M238.06,145.93a80.45,80.45,0,0,1,2.13-10.55,10.59,10.59,0,0,1,.84-2.81,1.25,1.25,0,0,0,.58,1,7.38,7.38,0,0,1,2.32,2.3,4.12,4.12,0,0,0,3.81,2c1,0,2.09,0,3.14,0a9.08,9.08,0,0,1,.44,2.53q.63,3.48,1.23,7a5.31,5.31,0,0,1,0,.69c-.22.06-.45.1-.67.17a11.41,11.41,0,0,1-4.3.53,2.45,2.45,0,0,1-1.14-.35,9.28,9.28,0,0,1-2.25-1.93,3.51,3.51,0,0,0-4-1C239.54,145.64,238.79,145.76,238.06,145.93Z"/><path class="cls-12" d="M216.43,229.74c-.71.26-1.44.47-2.12.79a2.23,2.23,0,0,1-2.44-.35c-1.25-.9-1.26-.9-2.51,0-.67.47-1.3,1-2,1.44a3.34,3.34,0,0,1-1.09.53,1.55,1.55,0,0,1-1.62-.37,19.92,19.92,0,0,1-2.62-2.81,3.5,3.5,0,0,0-.56-.66.68.68,0,0,0-.8-.12,4.31,4.31,0,0,0-1.51,1.16,14,14,0,0,1-2.64,2.28,1.86,1.86,0,0,1-1,.23,27,27,0,0,1-1.14-5.26,1.43,1.43,0,0,0,1.06-.54c.57-.58,1.13-1.18,1.73-1.73A2.85,2.85,0,0,1,201,224c1.17.75,2.3,1.56,3.47,2.33.54.36.76.35,1.25-.05a11.57,11.57,0,0,0,2.63-2.51,12.94,12.94,0,0,1,2.31-2.37,1.43,1.43,0,0,1,2.41.56c.19.42.31.88.51,1.3.55,1.15.9,1.3,2.18.95.11,0,.23,0,.35-.06A31,31,0,0,1,216.43,229.74Z"/><path class="cls-11" d="M267.9,263.77a33.38,33.38,0,0,1-.18,6.32,10.42,10.42,0,0,0-1.71,1.19c-1.18,1.22-2.68,2-3.95,3.14a1.67,1.67,0,0,1-1.94.34,7.54,7.54,0,0,0-1.34-.35,3,3,0,0,0-2.66.45,1.77,1.77,0,0,1-.91.49c-.11-1.62-.25-3.23-.34-4.84-.14-2.36-.26-4.73-.39-7.09a1.46,1.46,0,0,0,.9-.48,3,3,0,0,1,4-.37,22.5,22.5,0,0,1,2.37,1.42,4.17,4.17,0,0,0,4.26.52C266.62,264.28,267.26,264,267.9,263.77Z"/><path class="cls-12" d="M181.33,124.53a9.91,9.91,0,0,1,3.29.29,4.38,4.38,0,0,1,1.92,1.15c1.38,1.65,3.1,1.6,5,1.09a89.48,89.48,0,0,0,8.64-2.76,2.91,2.91,0,0,1,.51-.12,26.44,26.44,0,0,1,1.85,4.86,1.18,1.18,0,0,1-.88,1.33c-3.1,1-6.08,2.31-9.25,3.08a5.61,5.61,0,0,1-4.21-.45,21.79,21.79,0,0,1-3.36-2.19,4,4,0,0,0-3-1,8.42,8.42,0,0,1-.87,0A38.48,38.48,0,0,1,181.33,124.53Z"/><path class="cls-11" d="M183,110.85A113.6,113.6,0,0,1,185,99.27c.53,0,1.05,0,1.58,0a17.51,17.51,0,0,1,3.81.27,10,10,0,0,0,2.79,0c.19,0,.37-.23.56-.36a19.71,19.71,0,0,1,.8,3.56c.48,2.34.93,4.69,1.4,7a5.91,5.91,0,0,0-1,.11c-1.18.33-2.34.71-3.51,1a9.85,9.85,0,0,1-2.9.59,6.35,6.35,0,0,1-2.66-.78,2.45,2.45,0,0,0-1.86-.14A8.81,8.81,0,0,1,183,110.85Z"/><path class="cls-12" d="M238.46,186.65a3.65,3.65,0,0,0,1.32-.46c1.06-.47,2.11-1,3.19-1.4a3.53,3.53,0,0,1,3.63.36,16.07,16.07,0,0,1,1.45,1.27,2.24,2.24,0,0,0,2.19.63A27,27,0,0,0,253.9,186l5.24-1.93a3.07,3.07,0,0,1,1.19-.23,1.44,1.44,0,0,1,.25,1c-1.3.49-2.57,1.06-3.89,1.44s-2.27,1.05-2,2.66a3.64,3.64,0,0,1-.15.83c0,.05.17.18.24.17a.94.94,0,0,0,.46-.19,3.6,3.6,0,0,1,2.62-.7c.73,0,1.06.64,1.57,1,.7.49,1.3,1.19,2.27,1.12a2.83,2.83,0,0,1,.29,1.4,2.92,2.92,0,0,1-2.12-.66l-1.27-.91a2.06,2.06,0,0,0-2.71-.11,37,37,0,0,1-5.14,3,3.53,3.53,0,0,1-1.66.46,2.34,2.34,0,0,1-2.07-1.06,16.74,16.74,0,0,0-2.14-2.31,1.37,1.37,0,0,0-1.75-.3c-.73.37-1.46.74-2.2,1.1a2.67,2.67,0,0,1-1.48.46A35.11,35.11,0,0,1,238.46,186.65Z"/><path class="cls-11" d="M267.41,277.45c0,1.61,0,3.23-.13,4.84-.1,2-.27,4-.4,6a3.23,3.23,0,0,0-1.54.78,13.94,13.94,0,0,1-3.08,1.95,3.23,3.23,0,0,1-2.35.26,11.42,11.42,0,0,0-3.76-.54c-.08-.52-.21-1-.24-1.55-.13-2.75-.23-5.49-.35-8.23.12.13.21.32.35.38s.25-.17.33-.3c.74-1.23.94-1.33,2.22-1,.74.17,1.46.38,2.2.51a5,5,0,0,0,4.92-1.49,6,6,0,0,1,.62-.62C266.59,278.08,266.86,277.6,267.41,277.45Z"/><path class="cls-12" d="M238.06,145.93c.73-.17,1.48-.29,2.2-.51a3.51,3.51,0,0,1,4,1,9.28,9.28,0,0,0,2.25,1.93,2.45,2.45,0,0,0,1.14.35,11.41,11.41,0,0,0,4.3-.53c.22-.07.45-.11.67-.17a31.58,31.58,0,0,1,1.13,5.17l.14.41a1,1,0,0,1,.13.74c-.34.05-.68.09-1,.17a27.79,27.79,0,0,1-6,.9,2.4,2.4,0,0,1-2.31-1.23,12.07,12.07,0,0,0-1.59-1.83,1.52,1.52,0,0,0-1.6-.42,17.39,17.39,0,0,0-1.95.69,6.25,6.25,0,0,1-2.32.66,36.65,36.65,0,0,1,.47-5.33C237.76,147.28,237.94,146.6,238.06,145.93Z"/><path class="cls-11" d="M217.2,271.13a75,75,0,0,1,.35,9.48,13.52,13.52,0,0,0-3.59-.36c-1.2.06-2.4.12-3.6.26a14.43,14.43,0,0,0-4.13,1.12.86.86,0,0,1-.17,0c-.54-2.8-1.19-5.58-1.48-8.42.74,0,1.12-.58,1.53-1a2.17,2.17,0,0,1,1.86-.72,3.9,3.9,0,0,1,1.35.26c.64.27,1.29.5,1.93.76a3.93,3.93,0,0,0,3.66-.19A6.74,6.74,0,0,1,217.2,271.13Z"/><path class="cls-11" d="M217.3,259.56a25,25,0,0,1-.1,5.61c-.44.27-.9.52-1.34.79-1.08.68-2.21,1.29-3.22,2.05a3.94,3.94,0,0,1-2.62.68,5,5,0,0,1-1.69-.34,4.82,4.82,0,0,0-4.5.34,39.77,39.77,0,0,1-1.15-6.67,3.2,3.2,0,0,0,2-.95c1.41-1.14,2.89-1.6,4.63-.58a5.2,5.2,0,0,0,4.2.22C214.77,260.36,216,260,217.3,259.56Z"/><path class="cls-11" d="M242.18,128.37a22.16,22.16,0,0,1,.91-3.18q1.59-5.44,3.21-10.9c.19-.67.42-1.33.67-2a2.64,2.64,0,0,1,.44-.74.69.69,0,0,1,1.06,0,3.1,3.1,0,0,1,.56,1.63c.16,1,.28,2,.36,3,.14,1.63.29,3.26.35,4.89.14,3.67.34,7.34.7,11a8.45,8.45,0,0,1,0,.87,7.34,7.34,0,0,0-1.67-.37,1.35,1.35,0,0,1-1.15-.66,5.72,5.72,0,0,1-.37-.58c-.47-.72-.93-1.45-1.44-2.14-.37-.51-.75-1.07-1.45-1.13A3,3,0,0,0,242.18,128.37Z"/><path class="cls-11" d="M265.2,303.24h.18l.26,0a37.61,37.61,0,0,0,.68-7.86c-.7.4-1.41.79-2.1,1.21a2.83,2.83,0,0,1-2.81.25c-.63-.28-1.32-.43-2-.67a6.5,6.5,0,0,0-2.89-.44,67,67,0,0,0,.59,6.77,6.25,6.25,0,0,0,.31,1.39,30.07,30.07,0,0,1,5.92-.47,13.86,13.86,0,0,0,1.59-.09A1,1,0,0,1,265.2,303.24Z"/><path class="cls-12" d="M217.12,246.23H215.9a4.13,4.13,0,0,1-2.53-.49,1,1,0,0,0-1.28.17,17.86,17.86,0,0,1-3,2.1,2,2,0,0,1-2,0,5.21,5.21,0,0,1-1.73-1.16,7.92,7.92,0,0,0-2.93-1.86.71.71,0,0,0-.92.26,3.92,3.92,0,0,0-.51.7,1.28,1.28,0,0,1-1.34.62,3.23,3.23,0,0,1-.39-1.72l-.09-.33a1.57,1.57,0,0,1-.25-1.09.42.42,0,0,0-.09-.31,1.56,1.56,0,0,1-.27-1.11,7,7,0,0,1,1.7-.87,3.38,3.38,0,0,1,2.22,0c1.47.56,3,1.09,4.4,1.68a1.15,1.15,0,0,0,1.43-.22c1-1,2.18-1.74,3.15-2.76,1.26-1.33,2.21-1.27,3.87-.17a14.06,14.06,0,0,0,1.48.92,1.82,1.82,0,0,1,0,1.06c-.56-.1-1.12-.21-1.69-.27-.18,0-.31.13-.34.32a.46.46,0,0,0,0,.33,2.42,2.42,0,0,0,.39.31c.56.42.56.41.2,1.06-.08.14-.13.29-.23.49l1.84.57A4.25,4.25,0,0,1,217.12,246.23Z"/><path class="cls-11" d="M207.8,293.58a38.84,38.84,0,0,1-.73-5.27,2.16,2.16,0,0,0,.7-.74,9.4,9.4,0,0,1,2.45-2.42c1.53-1,3.24-.79,4.88-.58a22.32,22.32,0,0,0,2.57.24,1.39,1.39,0,0,1,.1.33q0,4.58,0,9.15c-1.75.17-3.45-.34-5.17-.47-.85-.07-1.71-.23-2.58-.24Z"/><path class="cls-12" d="M183,110.85a8.81,8.81,0,0,0,1-.22,2.45,2.45,0,0,1,1.86.14,6.35,6.35,0,0,0,2.66.78,9.85,9.85,0,0,0,2.9-.59c1.17-.34,2.33-.72,3.51-1a5.91,5.91,0,0,1,1-.11c.54,2,1.07,4,1.61,6a3,3,0,0,1-1.56.68c-1.49.45-3,.86-4.5,1.27a10.8,10.8,0,0,1-3.11.11,1.59,1.59,0,0,1-.78-.31c-.53-.35-1-.75-1.54-1.13a1.74,1.74,0,0,0-2.22-.27,2.63,2.63,0,0,1-1.67.34A33.08,33.08,0,0,1,183,110.85Z"/><path class="cls-12" d="M264.1,205.54a7.08,7.08,0,0,0-2.78.92l-7,3.51a3.82,3.82,0,0,1-1.82.5,3,3,0,0,1-2.12-.58,7.08,7.08,0,0,0-1.21-.67,2.2,2.2,0,0,0-3,.19c-.35.29-.65.65-1,1s-.62.51-.93.77a29.74,29.74,0,0,1-1.53-5.56,12.83,12.83,0,0,0,1.32-.84c1.51-1.29,3.21-1.13,5-.69.62.15,1.25.28,1.85.49a7.37,7.37,0,0,0,5.11-.33c1.8-.67,3.56-1.42,5.36-2.09a4.41,4.41,0,0,1,2.21-.44,1.46,1.46,0,0,1,.21,1c-2.18.82-4.36,1.63-6.52,2.47a12.12,12.12,0,0,1-4.38,1.05c-.58,0-.77.31-1,.79-.36.81.18,1.44.22,2.21a5.4,5.4,0,0,0,2.81-1,62.88,62.88,0,0,1,8-3.94,4.28,4.28,0,0,1,1-.19A2,2,0,0,1,264.1,205.54Z"/><path class="cls-11" d="M215.35,303c.84.15,1.68.26,2.52.35a22.79,22.79,0,0,0,0-4.13,2.21,2.21,0,0,1-.52,0,14.49,14.49,0,0,0-5.31-.68,4.92,4.92,0,0,0-2.53.51,3.55,3.55,0,0,1-1,.21,10.13,10.13,0,0,0,.29,2.51C211,301.74,213.15,302.58,215.35,303Z"/><path class="cls-12" d="M267.41,277.45c-.55.15-.82.63-1.21,1a6,6,0,0,0-.62.62,5,5,0,0,1-4.92,1.49c-.74-.13-1.46-.34-2.2-.51-1.28-.29-1.48-.19-2.22,1-.08.13-.12.38-.33.3s-.23-.25-.35-.38c-.16-1.88-.36-3.75-.35-5.64a1.77,1.77,0,0,0,.91-.49,3,3,0,0,1,2.66-.45,7.54,7.54,0,0,1,1.34.35,1.67,1.67,0,0,0,1.94-.34c1.27-1.1,2.77-1.92,3.95-3.14a10.42,10.42,0,0,1,1.71-1.19A40.24,40.24,0,0,1,267.41,277.45Z"/><path class="cls-12" d="M217.3,259.56c-1.27.39-2.53.8-3.81,1.15a5.2,5.2,0,0,1-4.2-.22c-1.74-1-3.22-.56-4.63.58a3.2,3.2,0,0,1-2,.95.92.92,0,0,1-.12-.74c.32-.25.26-.47-.07-.66a2.71,2.71,0,0,1-.25-1.4c.34,0,.72,0,.85-.4a2.27,2.27,0,0,0,0-1.34.59.59,0,0,0-.37-.3,4.69,4.69,0,0,0-.84-.08l-.25-1.35a3.72,3.72,0,0,0,.84-.24A5.15,5.15,0,0,1,205,255a6.28,6.28,0,0,1,3.83.91,3.27,3.27,0,0,0,2.66.29c1.72-.4,3.26-1.25,5-1.68l.84-.2A21,21,0,0,1,217.3,259.56Z"/><path class="cls-12" d="M267.9,263.77c-.64.25-1.28.51-1.93.74a4.17,4.17,0,0,1-4.26-.52,22.5,22.5,0,0,0-2.37-1.42,3,3,0,0,0-4,.37,1.46,1.46,0,0,1-.9.48,2,2,0,0,1-.06-1.07c.43-.47,1.07-.86,1.22-1.4a3.4,3.4,0,0,1,1.07-1.7c.07-.07,0-.33,0-.47s-.28-.18-.44-.11l-2.06.88a2.81,2.81,0,0,1-.09-1.41,4.16,4.16,0,0,0,1.59-.64,3.48,3.48,0,0,1,3.17-.08,13.13,13.13,0,0,1,2.17,1.05,5.31,5.31,0,0,0,4.92.57,5.93,5.93,0,0,1,2-.53A33,33,0,0,1,267.9,263.77Z"/><path class="cls-12" d="M267.77,245.51c-.33.24-.66.47-1,.73a3,3,0,0,1-2.79.59c-.45-.12-.91-.2-1.35-.34-1.86-.6-2.53-.32-3.72,1.55-.78,1.23-1.6,2.43-2.38,3.65a9.33,9.33,0,0,0-1.61,2.67c0,.1-.29.22-.44.21a.47.47,0,0,1-.45-.44,1.58,1.58,0,0,1,.26-1.33c1.53-1.77,2.49-3.92,3.87-5.79.28-.37.6-.7.86-1.09.38-.56,1.25-.56,1.5-1.09a5.34,5.34,0,0,1,.87-1.67c.35-.35.24-.75-.18-1a3.76,3.76,0,0,0-4.37.38c-1,.95-2,2-3,3-.33.32-.62.71-1.14.74a2.93,2.93,0,0,1-.11-1.41,27.28,27.28,0,0,0,3-2.87,7.19,7.19,0,0,1,1.66-1.24,3.84,3.84,0,0,1,3-.26c.39.12.77.29,1.16.38a4.57,4.57,0,0,0,3.21-.28c.92-.48,1.88-.89,2.83-1.33a9.54,9.54,0,0,1,.11,2.82c-.33.24-.3.47,0,.67A10.94,10.94,0,0,1,267.77,245.51Z"/><path class="cls-11" d="M186,93a30.4,30.4,0,0,1,.67-5,67.44,67.44,0,0,1,1.68-7.15c.09-.28.16-.56.27-.83a.74.74,0,0,1,.68-.48.77.77,0,0,1,.7.46,10,10,0,0,1,.57,1.64c.31,1.49.59,3,.84,4.48.38,2.18.9,4.34,1.08,6.56a15.35,15.35,0,0,1-4.43.34Z"/><path class="cls-12" d="M242.18,128.37a3,3,0,0,1,2.17-.3c.7.06,1.08.62,1.45,1.13.51.69,1,1.42,1.44,2.14a5.72,5.72,0,0,0,.37.58,1.35,1.35,0,0,0,1.15.66,7.34,7.34,0,0,1,1.67.37,33.56,33.56,0,0,1,.45,4.9c-1,0-2.09,0-3.14,0a4.12,4.12,0,0,1-3.81-2,7.38,7.38,0,0,0-2.32-2.3,1.25,1.25,0,0,1-.58-1,11.9,11.9,0,0,1,.84-3.16.72.72,0,0,0,.23-.65Z"/><path class="cls-12" d="M266.32,295.34c-.7.4-1.41.79-2.1,1.21a2.83,2.83,0,0,1-2.81.25c-.63-.28-1.32-.43-2-.67a6.5,6.5,0,0,0-2.89-.44,26.21,26.21,0,0,1-.4-4.92,11.42,11.42,0,0,1,3.76.54,3.23,3.23,0,0,0,2.35-.26,13.94,13.94,0,0,0,3.08-1.95,3.23,3.23,0,0,1,1.54-.78,9.85,9.85,0,0,1-.25,2.81s-.11.05-.13.09,0,.2.11.25a1.79,1.79,0,0,1-.05,1,2.35,2.35,0,0,0-.61.24c-.39.32-.3.65.22.8a1.31,1.31,0,0,0,.34,0A3.36,3.36,0,0,1,266.32,295.34Z"/><path class="cls-12" d="M203.83,268.69a4.82,4.82,0,0,1,4.5-.34,5,5,0,0,0,1.69.34,3.94,3.94,0,0,0,2.62-.68c1-.76,2.14-1.37,3.22-2.05.44-.27.9-.52,1.34-.79a45.59,45.59,0,0,1,0,6,6.74,6.74,0,0,0-2.29,1.18,3.93,3.93,0,0,1-3.66.19c-.64-.26-1.29-.49-1.93-.76a3.9,3.9,0,0,0-1.35-.26,2.17,2.17,0,0,0-1.86.72c-.41.46-.79,1-1.53,1A19.4,19.4,0,0,1,203.83,268.69Z"/><path class="cls-12" d="M217.67,284.81a22.32,22.32,0,0,1-2.57-.24c-1.64-.21-3.35-.43-4.88.58a9.4,9.4,0,0,0-2.45,2.42,2.16,2.16,0,0,1-.7.74,49.89,49.89,0,0,1-1-6.65.86.86,0,0,0,.17,0,14.43,14.43,0,0,1,4.13-1.12c1.2-.14,2.4-.2,3.6-.26a13.52,13.52,0,0,1,3.59.36A14.42,14.42,0,0,1,217.67,284.81Z"/><path class="cls-12" d="M186,93h2.06a15.35,15.35,0,0,0,4.43-.34,54.55,54.55,0,0,1,1.21,6.59c-.19.13-.37.35-.56.36a10,10,0,0,1-2.79,0,17.51,17.51,0,0,0-3.81-.27c-.53,0-1.05,0-1.58,0A58.26,58.26,0,0,1,186,93Z"/><path class="cls-12" d="M217.85,299.19a2.21,2.21,0,0,1-.52,0,14.49,14.49,0,0,0-5.31-.68,4.92,4.92,0,0,0-2.53.51,3.55,3.55,0,0,1-1,.21,35.35,35.35,0,0,1-.68-5.62h2.26c.87,0,1.73.17,2.58.24,1.72.13,3.42.64,5.17.47a3,3,0,0,1,0,1.39c-.51,0-1,0-1.54,0-.67,0-.87.3-.83,1a.77.77,0,0,0,.55.76,4.42,4.42,0,0,0,1.83.35A3.11,3.11,0,0,1,217.85,299.19Z"/><path class="cls-12" d="M247.81,222c.7-.26,1.41-.51,2.1-.78a3.87,3.87,0,0,1,2.88,0c1.14.42,2.31.76,3.44,1.21a3.32,3.32,0,0,0,2.36.12,14.77,14.77,0,0,0,3.29-1.55c1-.61,2-1.19,3-1.76a6.27,6.27,0,0,1,1-.37,1.82,1.82,0,0,1,.07,1.06,39.81,39.81,0,0,1-4.89,3c-.83.4-1.69.75-2.55,1.08a2.65,2.65,0,0,1-1.88,0,22.19,22.19,0,0,1-2.08-.86,7.24,7.24,0,0,0-4-.74c-.46,0-.56.22-.26.69.2.32.38.65.12.94a2.86,2.86,0,0,0-.52,2.13c0,.4.05.82-.32,1.12Z"/><path class="cls-11" d="M261.69,191.17c-1,.07-1.57-.63-2.27-1.12-.51-.35-.84-1-1.57-1a3.6,3.6,0,0,0-2.62.7.94.94,0,0,1-.46.19c-.07,0-.24-.12-.24-.17a3.64,3.64,0,0,0,.15-.83c-.26-1.61.62-2.25,2-2.66s2.59-.95,3.89-1.44A45.19,45.19,0,0,1,261.69,191.17Z"/><path class="cls-11" d="M263.86,204.13a4.28,4.28,0,0,0-1,.19,62.88,62.88,0,0,0-8,3.94,5.4,5.4,0,0,1-2.81,1c0-.77-.58-1.4-.22-2.21.21-.48.4-.8,1-.79a12.12,12.12,0,0,0,4.38-1.05c2.16-.84,4.34-1.65,6.52-2.47A2.8,2.8,0,0,1,263.86,204.13Z"/><path class="cls-11" d="M254.17,259.55l2.06-.88c.16-.07.36-.08.44.11s.11.4,0,.47a3.4,3.4,0,0,0-1.07,1.7c-.15.54-.79.93-1.22,1.4A12,12,0,0,1,254.17,259.55Z"/><path class="cls-11" d="M217.06,244.49l-1.84-.57c.1-.2.15-.35.23-.49.36-.65.36-.64-.2-1.06a2.42,2.42,0,0,1-.39-.31.46.46,0,0,1,0-.33c0-.19.16-.35.34-.32.57.06,1.13.17,1.69.27A7,7,0,0,1,217.06,244.49Z"/><path class="cls-11" d="M217.84,297.8a4.42,4.42,0,0,1-1.83-.35.77.77,0,0,1-.55-.76c0-.69.16-1,.83-1,.51,0,1,0,1.54,0A6,6,0,0,1,217.84,297.8Z"/><path class="cls-11" d="M201.87,257.1a4.69,4.69,0,0,1,.84.08.59.59,0,0,1,.37.3,2.27,2.27,0,0,1,0,1.34c-.13.39-.51.37-.85.4A7.32,7.32,0,0,1,201.87,257.1Z"/><path class="cls-11" d="M266.51,293.59a1.31,1.31,0,0,1-.34,0c-.52-.15-.61-.48-.22-.8a2.35,2.35,0,0,1,.61-.24A1.78,1.78,0,0,1,266.51,293.59Z"/><path class="cls-11" d="M267.68,242.71c-.33-.2-.36-.43,0-.67A.61.61,0,0,1,267.68,242.71Z"/><path class="cls-11" d="M202.49,260.62c.33.19.39.41.07.66A.58.58,0,0,1,202.49,260.62Z"/><path class="cls-11" d="M242.1,128.76a.72.72,0,0,1-.23.65A.67.67,0,0,1,242.1,128.76Z"/><path class="cls-11" d="M198.86,243.14a.42.42,0,0,1,.09.31,1.21,1.21,0,0,1-.14-.2S198.84,243.17,198.86,243.14Z"/><path class="cls-11" d="M199.2,244.54l.09.33c0-.07-.11-.14-.15-.21S199.18,244.58,199.2,244.54Z"/><path class="cls-11" d="M183.43,177.9a.37.37,0,0,1,.09.28,1.15,1.15,0,0,1-.14-.17S183.41,177.94,183.43,177.9Z"/><path class="cls-11" d="M253.85,153.61l-.14-.41A.31.31,0,0,1,253.85,153.61Z"/><path class="cls-11" d="M266.61,291.47c-.13-.05-.17-.14-.11-.25s.09-.06.13-.09Z"/><path class="cls-11" d="M205.48,137.13l-.18-.36A.27.27,0,0,1,205.48,137.13Z"/><path class="cls-13" d="M251.35,203.84c.23-2,.44-3.93.7-5.89.21-1.56.48-3.11.72-4.66a2.09,2.09,0,0,0,.5-.16c1.08-.68,2.14-1.39,3.22-2.07,1.3-.82,1.71-.77,2.87.38.71.69,1.39,1.41,2.11,2.09s.82.59,1.56.17a7.11,7.11,0,0,0,2-1.4,24.47,24.47,0,0,1,2.3-1.88c.46-.41.83-.29,1.09.25a9,9,0,0,0,.61,1.25,1.29,1.29,0,0,0,2,.38c1-.61,1.95-1.27,2.95-1.85a14.46,14.46,0,0,1,2.81-1.71c-.4,2.95-1.16,5.82-1.84,8.7a14.25,14.25,0,0,1-.88,3.19.46.46,0,0,0-.74-.06l-1.91,1.52a3.09,3.09,0,0,1-1.24.62.45.45,0,0,1-.56-.31,4.89,4.89,0,0,0-.5-1.48,1.13,1.13,0,0,0-1.65-.4,7,7,0,0,0-.9.83c-1.16,1.15-2.31,2.31-3.48,3.45-.46.44-.81.43-1.18,0a6.36,6.36,0,0,1-.66-1,13.43,13.43,0,0,0-2.47-3.15,2.27,2.27,0,0,0-2.57-.45,3.68,3.68,0,0,0-1.28.9c-1,.89-2,1.76-3,2.62A1.89,1.89,0,0,1,251.35,203.84Z"/><path class="cls-13" d="M279.22,144.91a107.72,107.72,0,0,1,.36,11.92,1.48,1.48,0,0,0-1,.57,4.1,4.1,0,0,1-1.24.95c-.49.21-.74.18-1.05-.27-.72-1.05-1.44-2.11-2.13-3.19a7,7,0,0,0-.85-1.1,1.71,1.71,0,0,0-1.62-.43,1.62,1.62,0,0,0-.86.57c-1,.94-1.91,1.89-2.84,2.85a4.11,4.11,0,0,1-1.43,1,.85.85,0,0,1-1.16-.46c-.22-.48-.37-1-.6-1.45-1.06-2.12-2.14-2.26-3.81-.91a11.46,11.46,0,0,1-3.09,2.25,37.5,37.5,0,0,1,.53-4.84c.07-.74.26-1.48.39-2.22a6.26,6.26,0,0,0,2.25-1.57c1.24-1.22,2.73-2.15,3.89-3.47.52-.58.84-.57,1.51-.11a7.25,7.25,0,0,1,1.87,2,1.36,1.36,0,0,0,2,.47,5.59,5.59,0,0,0,1.92-1.73c.79-1,1.58-2,2.4-3a.58.58,0,0,1,.91,0,11.65,11.65,0,0,1,1.12,1.1A2.58,2.58,0,0,0,279.22,144.91Z"/><path class="cls-13" d="M253.55,188.05c.19-1.62.36-3.24.57-4.86s.46-3.35.71-5a3.32,3.32,0,0,1,.22-.65l3.44-2a1.74,1.74,0,0,1,2.24.08,15.61,15.61,0,0,1,1.48,1.21,10.06,10.06,0,0,0,.89.84,1.86,1.86,0,0,0,2.24.26,41.09,41.09,0,0,0,5.13-3.3,7.51,7.51,0,0,1,1.17-.75.91.91,0,0,1,1.12.19,11.81,11.81,0,0,1,.82.91c.18.22.3.49.49.71.82.95,1.38,1.06,2.43.48.3-.17.56-.44.87-.58.52-.24.87-.81,1.52-.81a27.28,27.28,0,0,1-.5,5,5.9,5.9,0,0,1-.47,2.37,13.26,13.26,0,0,0-1.84,1.3,39.05,39.05,0,0,0-3.28,2.88,2.68,2.68,0,0,1-.42.31c-.5.31-.89.17-1-.44-.19-.79-.34-1.59-.48-2.39a1.75,1.75,0,0,0-.48-.91.89.89,0,0,0-1.38-.1c-.9.84-1.75,1.73-2.62,2.59-.38.37-.75.75-1.15,1.08a.51.51,0,0,1-.77-.1c-.18-.23-.3-.5-.46-.74-.44-.69-.88-1.37-1.35-2a2,2,0,0,0-2-.75,2,2,0,0,0-1.08.55l-5.15,4.16A1.9,1.9,0,0,1,253.55,188.05Z"/><path class="cls-13" d="M279.6,161a16.38,16.38,0,0,1,0,3.5,1.73,1.73,0,0,0-1.16.71L275.68,168a10.26,10.26,0,0,1-1,1c-.79.59-1.08.55-1.81-.12-.25-.24-.48-.51-.75-.74a1.22,1.22,0,0,0-1.73,0c-.94.79-1.88,1.57-2.77,2.41a7.72,7.72,0,0,1-1.74,1.15.91.91,0,0,1-1.24-.16c-.53-.55-1.07-1.08-1.62-1.61-1.3-1.25-1.84-1.32-3.36-.37a7.28,7.28,0,0,0-1.2,1,17,17,0,0,1-2.74,2.12,24.07,24.07,0,0,1,.46-4.14c.23-1.78.53-3.55.81-5.33.65-.06,1-.59,1.38-1a11.06,11.06,0,0,1,2.13-1.79c.61-.35.59-.36,1.21.09.84.62,1.69,1.22,2.56,1.8a2.26,2.26,0,0,0,2.3.3,14.92,14.92,0,0,0,2.35-1.13c.83-.52,1.69-1,2.53-1.53a1.09,1.09,0,0,1,1.42.15c.7.62,1.42,1.2,2.15,1.77a2.1,2.1,0,0,0,2.58.27C278.23,161.7,278.93,161.38,279.6,161Z"/><path class="cls-13" d="M259.61,144.55c0-.46,0-.93.07-1.39q.72-5.57,1.46-11.12a2.39,2.39,0,0,1,.19-.48,3.88,3.88,0,0,0,.72-.47,38.91,38.91,0,0,1,3.86-3.51c.78-.59,1.08-.72,1.85-.16a15.79,15.79,0,0,1,2.71,2.18,1.85,1.85,0,0,0,1.56.59,2.93,2.93,0,0,0,1.76-.68,22.93,22.93,0,0,0,2.89-2.5c.39-.42.72-.94,1.35-1.05.14,1.49.31,3,.41,4.49.17,2.31.31,4.62.44,6.93,0,.52,0,1,0,1.56-.41,0-.57-.29-.69-.66a28.41,28.41,0,0,0-1.44-3.75c-.76-1.49-1.14-1.33-2.09-.22a2.52,2.52,0,0,0-.36.59c-.82,1.75-1.88,3.35-2.86,5a11.23,11.23,0,0,1-.66,1,.5.5,0,0,1-.87,0c-.73-1-1.47-1.95-2.14-3a5,5,0,0,0-1.16-1.29.74.74,0,0,0-1,0,7.82,7.82,0,0,0-1.52,1.67A47.89,47.89,0,0,1,259.61,144.55Z"/><path class="cls-14" d="M253.55,188.05a1.9,1.9,0,0,0,.86-.56l5.15-4.16a2,2,0,0,1,1.08-.55,2,2,0,0,1,2,.75c.47.67.91,1.35,1.35,2,.16.24.28.51.46.74a.51.51,0,0,0,.77.1c.4-.33.77-.71,1.15-1.08.87-.86,1.72-1.75,2.62-2.59a.89.89,0,0,1,1.38.1,1.75,1.75,0,0,1,.48.91c.14.8.29,1.6.48,2.39.14.61.53.75,1,.44a2.68,2.68,0,0,0,.42-.31,39.05,39.05,0,0,1,3.28-2.88,13.26,13.26,0,0,1,1.84-1.3,40.47,40.47,0,0,1-1.19,6.65,14.46,14.46,0,0,0-2.81,1.71c-1,.58-2,1.24-2.95,1.85a1.29,1.29,0,0,1-2-.38,9,9,0,0,1-.61-1.25c-.26-.54-.63-.66-1.09-.25a24.47,24.47,0,0,0-2.3,1.88,7.11,7.11,0,0,1-2,1.4c-.74.42-1,.39-1.56-.17s-1.4-1.4-2.11-2.09c-1.16-1.15-1.57-1.2-2.87-.38-1.08.68-2.14,1.39-3.22,2.07a2.09,2.09,0,0,1-.5.16A37,37,0,0,1,253.55,188.05Z"/><path class="cls-14" d="M251.35,203.84a1.89,1.89,0,0,0,.49-.17c1-.86,2-1.73,3-2.62a3.68,3.68,0,0,1,1.28-.9,2.27,2.27,0,0,1,2.57.45,13.43,13.43,0,0,1,2.47,3.15,6.36,6.36,0,0,0,.66,1c.37.46.72.47,1.18,0,1.17-1.14,2.32-2.3,3.48-3.45a7,7,0,0,1,.9-.83,1.13,1.13,0,0,1,1.65.4,4.89,4.89,0,0,1,.5,1.48.45.45,0,0,0,.56.31,3.09,3.09,0,0,0,1.24-.62l1.91-1.52a.46.46,0,0,1,.74.06,24.93,24.93,0,0,1-.92,4,20.65,20.65,0,0,1-1.08,3.78c-.17.06-.33.13-.5.18-.65.2-1.07,1-1.87.82s-1.11-.81-1.64-1.26-.6-.48-1.2-.09c-1.12.74-2.18,1.59-3.35,2.22-2,1.08-2.58,1.27-4.18-.31a13.35,13.35,0,0,0-2.08-1.57,1.51,1.51,0,0,0-2.07.11,10.36,10.36,0,0,1-1.79,1.39c-1.05.62-1.83,1.65-3.05,2A80.79,80.79,0,0,1,251.35,203.84Z"/><path class="cls-14" d="M255.7,172.61a17,17,0,0,0,2.74-2.12,7.28,7.28,0,0,1,1.2-1c1.52-.95,2.06-.88,3.36.37.55.53,1.09,1.06,1.62,1.61a.91.91,0,0,0,1.24.16,7.72,7.72,0,0,0,1.74-1.15c.89-.84,1.83-1.62,2.77-2.41a1.22,1.22,0,0,1,1.73,0c.27.23.5.5.75.74.73.67,1,.71,1.81.12a10.26,10.26,0,0,0,1-1l2.73-2.72a1.73,1.73,0,0,1,1.16-.71,20.43,20.43,0,0,1,0,2.07,70.79,70.79,0,0,1-.69,8.1c-.65,0-1,.57-1.52.81-.31.14-.57.41-.87.58-1.05.58-1.61.47-2.43-.48-.19-.22-.31-.49-.49-.71a11.81,11.81,0,0,0-.82-.91.91.91,0,0,0-1.12-.19,7.51,7.51,0,0,0-1.17.75,41.09,41.09,0,0,1-5.13,3.3,1.86,1.86,0,0,1-2.24-.26,10.06,10.06,0,0,1-.89-.84,15.61,15.61,0,0,0-1.48-1.21,1.74,1.74,0,0,0-2.24-.08l-3.44,2A22.56,22.56,0,0,1,255.7,172.61Z"/><path class="cls-13" d="M276.76,109.83a85.91,85.91,0,0,1,.76,9.47,4.66,4.66,0,0,0-1.36,1.33,25.63,25.63,0,0,1-2.67,3.22c-.41.37-.66.38-1.06,0-1.17-1.15-2.3-2.32-3.48-3.46-1.46-1.41-2.13-1.37-3.39.23-.86,1.1-1.66,2.24-2.47,3.38a1.22,1.22,0,0,1-.81.59,87.76,87.76,0,0,1,1.35-8.82,1.4,1.4,0,0,0,1-.61l3.21-3.88c.89-1.07,1.79-2.12,2.67-3.2a1.45,1.45,0,0,1,1.81-.6,14.75,14.75,0,0,1,1.85,1A15.35,15.35,0,0,0,276.76,109.83Z"/><path class="cls-13" d="M267.93,223.46c-.88,3.43-1.82,6.84-3,10.17-.15-.2-.36-.34-.59-.22a1.15,1.15,0,0,1-1.55-.33c-.16-.17-.33-.33-.5-.48a1.25,1.25,0,0,0-1.46-.24,6.84,6.84,0,0,0-1.05.61,7.1,7.1,0,0,1-1.73.79.91.91,0,0,1-1.1-.21c-.66-.66-1.29-1.35-2-2a2.37,2.37,0,0,0-3.46-.09,26.66,26.66,0,0,0-3,2.6,1.39,1.39,0,0,1-.84.58c0-2.14.43-4.24.61-6.36.06-.69.2-1.37.3-2a1.44,1.44,0,0,0,.78-.36l3.13-2.77c.43-.38.67-.4,1.06,0,.72.68,1.4,1.4,2.12,2.09a1.88,1.88,0,0,0,2.66.32c.51-.28,1-.63,1.46-1,1.11-.74,2.23-1.48,3.33-2.24a.67.67,0,0,1,.94.07c.46.44.91.9,1.37,1.35a1,1,0,0,0,1.26.24C267.06,223.79,267.5,223.64,267.93,223.46Z"/><path class="cls-13" d="M250.28,211.88c1.22-.33,2-1.36,3.05-2a10.36,10.36,0,0,0,1.79-1.39,1.51,1.51,0,0,1,2.07-.11,13.35,13.35,0,0,1,2.08,1.57c1.6,1.58,2.19,1.39,4.18.31,1.17-.63,2.23-1.48,3.35-2.22.6-.39.67-.36,1.2.09s.87,1.12,1.64,1.26,1.22-.62,1.87-.82c.17-.05.33-.12.5-.18a29.08,29.08,0,0,1-1.49,5.58,22.14,22.14,0,0,0-2.56,2.38c-.42.36-.7,1.07-1.36.95-.46-.08-.51-.72-.77-1.1a4.23,4.23,0,0,0-.34-.4c-.34-.37-.59-.38-1.09-.17a4.12,4.12,0,0,0-1.36,1.09,23.64,23.64,0,0,1-3.27,2.89.65.65,0,0,1-1-.1,7.17,7.17,0,0,1-.52-.71c-.48-.72-1-1.46-1.45-2.18A3.84,3.84,0,0,0,255,215.2a1.28,1.28,0,0,0-1.47.17c-1,.95-2.15,1.61-3,2.64a2.89,2.89,0,0,1-1.07.89A48.87,48.87,0,0,1,250.28,211.88Z"/><path class="cls-14" d="M259.61,144.55a47.89,47.89,0,0,0,4.51-6.18,7.82,7.82,0,0,1,1.52-1.67.74.74,0,0,1,1,0,5,5,0,0,1,1.16,1.29c.67,1,1.41,2,2.14,3a.5.5,0,0,0,.87,0,11.23,11.23,0,0,0,.66-1c1-1.65,2-3.25,2.86-5a2.52,2.52,0,0,1,.36-.59c.95-1.11,1.33-1.27,2.09.22a28.41,28.41,0,0,1,1.44,3.75c.12.37.28.62.69.66a38.5,38.5,0,0,1,.34,6,2.58,2.58,0,0,1-2.59-1.06,11.65,11.65,0,0,0-1.12-1.1.58.58,0,0,0-.91,0c-.82,1-1.61,2-2.4,3a5.59,5.59,0,0,1-1.92,1.73,1.36,1.36,0,0,1-2-.47,7.25,7.25,0,0,0-1.87-2c-.67-.46-1-.47-1.51.11-1.16,1.32-2.65,2.25-3.89,3.47a6.26,6.26,0,0,1-2.25,1.57A34,34,0,0,1,259.61,144.55Z"/><path class="cls-14" d="M249.46,218.9a2.89,2.89,0,0,0,1.07-.89c.88-1,2.07-1.69,3-2.64a1.28,1.28,0,0,1,1.47-.17,3.84,3.84,0,0,1,1.72,1.44c.49.72,1,1.46,1.45,2.18a7.17,7.17,0,0,0,.52.71.65.65,0,0,0,1,.1,23.64,23.64,0,0,0,3.27-2.89,4.12,4.12,0,0,1,1.36-1.09c.5-.21.75-.2,1.09.17a4.23,4.23,0,0,1,.34.4c.26.38.31,1,.77,1.1.66.12.94-.59,1.36-.95a22.14,22.14,0,0,1,2.56-2.38,1,1,0,0,1,0,.35c-.8,3.06-1.59,6.12-2.59,9.12-.43.18-.87.33-1.29.53a1,1,0,0,1-1.26-.24c-.46-.45-.91-.91-1.37-1.35a.67.67,0,0,0-.94-.07c-1.1.76-2.22,1.5-3.33,2.24-.48.33-.95.68-1.46,1a1.88,1.88,0,0,1-2.66-.32c-.72-.69-1.4-1.41-2.12-2.09-.39-.38-.63-.36-1.06,0l-3.13,2.77a1.44,1.44,0,0,1-.78.36A62.89,62.89,0,0,1,249.46,218.9Z"/><path class="cls-14" d="M279.6,161c-.67.34-1.37.66-2,1a2.1,2.1,0,0,1-2.58-.27c-.73-.57-1.45-1.15-2.15-1.77a1.09,1.09,0,0,0-1.42-.15c-.84.51-1.7,1-2.53,1.53a14.92,14.92,0,0,1-2.35,1.13,2.26,2.26,0,0,1-2.3-.3c-.87-.58-1.72-1.18-2.56-1.8-.62-.45-.6-.44-1.21-.09a11.06,11.06,0,0,0-2.13,1.79c-.41.4-.73.93-1.38,1,.22-1.77.44-3.54.67-5.3a3.55,3.55,0,0,1,.22-.65,11.46,11.46,0,0,0,3.09-2.25c1.67-1.35,2.75-1.21,3.81.91.23.46.38,1,.6,1.45a.85.85,0,0,0,1.16.46,4.11,4.11,0,0,0,1.43-1c.93-1,1.89-1.91,2.84-2.85a1.62,1.62,0,0,1,.86-.57,1.71,1.71,0,0,1,1.62.43,7,7,0,0,1,.85,1.1c.69,1.08,1.41,2.14,2.13,3.19.31.45.56.48,1.05.27a4.1,4.1,0,0,0,1.24-.95,1.48,1.48,0,0,1,1-.57A21.15,21.15,0,0,1,279.6,161Z"/><path class="cls-13" d="M293.3,216.79a5.25,5.25,0,0,1,.27-.82c3-6.3,5.27-12.85,7.83-19.31a118,118,0,0,0,4.1-11.73,5.75,5.75,0,0,1,.44-1.13.64.64,0,0,1,.74-.33.68.68,0,0,1,.56.6,5,5,0,0,1-.06,1.39c-.19,1-.43,2.06-.68,3.08-1.07,4.3-2.36,8.55-3.66,12.79-1.6,5.19-2.87,10.47-4.29,15.71a6.67,6.67,0,0,1-.32.8c-.14-.1-.28-.28-.41-.28a10.49,10.49,0,0,1-3.5-.7A3.81,3.81,0,0,0,293.3,216.79Z"/><path class="cls-14" d="M262.28,124.58a1.22,1.22,0,0,0,.81-.59c.81-1.14,1.61-2.28,2.47-3.38,1.26-1.6,1.93-1.64,3.39-.23,1.18,1.14,2.31,2.31,3.48,3.46.4.39.65.38,1.06,0a25.63,25.63,0,0,0,2.67-3.22,4.66,4.66,0,0,1,1.36-1.33A43.64,43.64,0,0,1,278,126c-.63.11-1,.63-1.35,1.05a22.93,22.93,0,0,1-2.89,2.5,2.93,2.93,0,0,1-1.76.68,1.85,1.85,0,0,1-1.56-.59,15.79,15.79,0,0,0-2.71-2.18c-.77-.56-1.07-.43-1.85.16a38.91,38.91,0,0,0-3.86,3.51,3.88,3.88,0,0,1-.72.47A47,47,0,0,1,262.28,124.58Z"/><path class="cls-13" d="M254.28,271.15c-.49,2.26-1,4.52-1.46,6.78-.22,1-.44,2-.67,3a10.09,10.09,0,0,0-1,.38c-.66.36-1.3.75-1.95,1.13a1.05,1.05,0,0,1-1.41-.17,4.73,4.73,0,0,0-1.35-1.08,1.4,1.4,0,0,0-1.89.26c-.68.63-1.32,1.3-2,2a1.74,1.74,0,0,1-1.16.69,14.66,14.66,0,0,1,.32-3.3c.22-2,.51-4,.78-6.07a1.78,1.78,0,0,1,.19-.48c.88,0,1.44-.68,2.08-1.14s1.36-1.08,2-1.64a1.33,1.33,0,0,1,1.61-.15c.35.19.69.42,1,.64a2.19,2.19,0,0,0,2.59.16A7.33,7.33,0,0,1,254.28,271.15Z"/><path class="cls-13" d="M246.35,245.56a51.57,51.57,0,0,1,.75-6.67,6.38,6.38,0,0,0,2.33-.68c1-.4,2.08-.77,3.09-1.21a1.47,1.47,0,0,1,1.49.14c.59.37,1.17.76,1.74,1.16a2.54,2.54,0,0,0,2.95.2c.72-.4,1.47-.73,2.19-1.1a1,1,0,0,1,1,0,3,3,0,0,0,1.83.46,19.57,19.57,0,0,1-1.05,3.5,3.43,3.43,0,0,0-3.08,1.32,25.06,25.06,0,0,1-3.07,2.59c-1.57,1.17-1.81,1.64-3.48-.17-.24-.26-.49-.5-.75-.75a7.36,7.36,0,0,0-.77-.71,2,2,0,0,0-2.73,0,14.33,14.33,0,0,0-1.27,1.2A1.69,1.69,0,0,1,246.35,245.56Z"/><path class="cls-13" d="M249,304.25c0-.06,0-.12,0-.17a51,51,0,0,0,.44-5.23,1.27,1.27,0,0,0-.78.33,25.08,25.08,0,0,1-2.25,1.62,2,2,0,0,1-2.42.2,1.17,1.17,0,0,0-1.67.28c-1,1-1.93,2-2.91,3,1.32,0,2.64,0,4,.1C245.22,304.37,247.09,304.29,249,304.25Z"/><path class="cls-13" d="M146.38,175a34.76,34.76,0,0,1-3.13-6.06c-.08-.32,0-.7-.4-.88v0c0-.58,0-1.16,0-1.73a2.06,2.06,0,0,1,.62-1.55,7.39,7.39,0,0,1,3-2c1.07-.4,2.12-.87,3.18-1.31a.83.83,0,0,0,.57-.79,46.58,46.58,0,0,1,6.21,7,2,2,0,0,0-1.16.26c-1.29.64-2.58,1.26-3.92,1.81a20.23,20.23,0,0,0-3,1.63A3.51,3.51,0,0,0,146.38,175Z"/><path class="cls-13" d="M265.46,105.29c.13-2,.67-4,1-5.94.19-1.19.47-2.36.72-3.54A3.25,3.25,0,0,0,269,94.25a18.47,18.47,0,0,1,2.35-2.57,1,1,0,0,1,1.26-.27c.75.31,1.51.59,2.27.88a50.84,50.84,0,0,1,.87,6.39,30.23,30.23,0,0,1,.42,5.2,1.41,1.41,0,0,1-.81-.27,25.91,25.91,0,0,0-3.68-2,2,2,0,0,0-2.13.17,17.77,17.77,0,0,0-2.23,1.92C266.71,104.29,266.3,105.05,265.46,105.29Z"/><path class="cls-14" d="M246.35,245.56a1.69,1.69,0,0,0,1.17-.69,14.33,14.33,0,0,1,1.27-1.2,2,2,0,0,1,2.73,0,7.36,7.36,0,0,1,.77.71c.26.25.51.49.75.75,1.67,1.81,1.91,1.34,3.48.17a25.06,25.06,0,0,0,3.07-2.59,3.43,3.43,0,0,1,3.08-1.32,45.29,45.29,0,0,1-1.93,6.33,1.66,1.66,0,0,0-1.09.46q-1.89,1.26-3.79,2.49a2.55,2.55,0,0,1-3.46-.21c-.48-.41-1-.76-1.53-1.14a.87.87,0,0,0-1-.06c-.35.19-.69.42-1,.63a27.86,27.86,0,0,1-3.25,2A33.47,33.47,0,0,1,246.35,245.56Z"/><path class="cls-14" d="M263.72,237.85a3,3,0,0,1-1.83-.46,1,1,0,0,0-1,0c-.72.37-1.47.7-2.19,1.1a2.54,2.54,0,0,1-2.95-.2c-.57-.4-1.15-.79-1.74-1.16a1.47,1.47,0,0,0-1.49-.14c-1,.44-2.06.81-3.09,1.21a6.38,6.38,0,0,1-2.33.68,23.08,23.08,0,0,1,.52-4.21,1.39,1.39,0,0,0,.84-.58,26.66,26.66,0,0,1,3-2.6,2.37,2.37,0,0,1,3.46.09c.7.61,1.33,1.3,2,2a.91.91,0,0,0,1.1.21,7.1,7.1,0,0,0,1.73-.79,6.84,6.84,0,0,1,1.05-.61,1.25,1.25,0,0,1,1.46.24c.17.15.34.31.5.48a1.15,1.15,0,0,0,1.55.33c.23-.12.44,0,.59.22A24.76,24.76,0,0,1,263.72,237.85Z"/><path class="cls-13" d="M239.46,298.49a38.48,38.48,0,0,1,.89-5.95A1.36,1.36,0,0,0,241,292c.48-.73.95-1.47,1.45-2.18s1.08-1.52,1.69-2.22,1-.82,1.75-.16a2.29,2.29,0,0,0,2.6.35,8.17,8.17,0,0,0,1.53-.85,1.91,1.91,0,0,1,1.15-.33c-.26,1.95-.48,3.91-.79,5.86a21,21,0,0,1-.59,3.6,22.25,22.25,0,0,0-3.33,1.52,1.82,1.82,0,0,1-2.25-.29,6.06,6.06,0,0,0-1.8-1.06.9.9,0,0,0-1.12.18,5,5,0,0,0-.82.9A4,4,0,0,1,239.46,298.49Z"/><path class="cls-13" d="M291.2,242.75a8.24,8.24,0,0,1-.11.85c-.65,2.5-1.32,5-2,7.51-.08.27-.22.52-.32.79-.15-.21-.34-.36-.59-.26a6.78,6.78,0,0,0-.92.49c-.87.52-.87.52-1.66-.07s-.85-.63-1.81,0c-.79.49-1.59,1-2.42,1.4a.61.61,0,0,1-1-.42,17,17,0,0,0-1.08-2.38.81.81,0,0,0-.66-.5A95.39,95.39,0,0,1,282.8,241a17.46,17.46,0,0,1,2.55,3.65,1.06,1.06,0,0,0,1,.54,2.59,2.59,0,0,0,1.62-.52c.82-.53,1.62-1.08,2.42-1.64A1.47,1.47,0,0,1,291.2,242.75Z"/><path class="cls-13" d="M245.59,251.86a27.86,27.86,0,0,0,3.25-2c.35-.21.69-.44,1-.63a.87.87,0,0,1,1,.06c.52.38,1,.73,1.53,1.14a2.55,2.55,0,0,0,3.46.21q1.9-1.23,3.79-2.49a1.66,1.66,0,0,1,1.09-.46c-.08.4-.12.8-.23,1.19q-1,3.45-2,6.89a4,4,0,0,1-.3.63,1,1,0,0,0-.65-1.08,2.41,2.41,0,0,0-2.61.36c-1,.74-1.93,1.48-2.92,2.18-.62.43-.87.41-1.39-.08-.72-.67-1.4-1.4-2.11-2.08s-1.28-.85-2.33-.27c-.4.22-.68.65-1.2.67A17.79,17.79,0,0,1,245.59,251.86Z"/><path class="cls-14" d="M265.46,105.29c.84-.24,1.25-1,1.84-1.54a17.77,17.77,0,0,1,2.23-1.92,2,2,0,0,1,2.13-.17,25.91,25.91,0,0,1,3.68,2,1.41,1.41,0,0,0,.81.27,1.44,1.44,0,0,1,.13.32l.48,5.63a15.35,15.35,0,0,1-2.58-1.4,14.75,14.75,0,0,0-1.85-1,1.45,1.45,0,0,0-1.81.6c-.88,1.08-1.78,2.13-2.67,3.2l-3.21,3.88a1.4,1.4,0,0,1-1,.61C264.11,112.25,264.66,108.75,265.46,105.29Z"/><path class="cls-13" d="M265.05,294a84.07,84.07,0,0,1,2.33-8.43l.32-.35,0,0a1.94,1.94,0,0,1,2.08,1.18c.86,1.39.95,1.35,2.53,1.3a4.13,4.13,0,0,0,1.65-.51c1-.49,2-.59,2.72.48-.77,2.7-1.53,5.4-2.3,8.1a.92.92,0,0,0-.92-.36,7,7,0,0,0-1,.23,2,2,0,0,1-2.07-.51,11.26,11.26,0,0,0-1.79-1.36,2,2,0,0,0-2.58,0A1.49,1.49,0,0,1,265.05,294Z"/><path class="cls-13" d="M257.22,260a48.41,48.41,0,0,1-1.58,5.93,1.68,1.68,0,0,0-1.25.51,12,12,0,0,1-2.78,1.76,1.09,1.09,0,0,1-1.28-.19c-.53-.45-1.11-.83-1.64-1.29a1.87,1.87,0,0,0-1.28-.44,2.69,2.69,0,0,0-2,.8,6.57,6.57,0,0,1-1.83,1.32,37,37,0,0,1,.45-4.46,21.18,21.18,0,0,1,.36-2.21,1.47,1.47,0,0,0,1.12-.4c.25-.24.5-.48.76-.71a.82.82,0,0,1,1.12-.08,20,20,0,0,0,2.76,1.51,2.9,2.9,0,0,0,3.29-.24c.47-.34,1-.66,1.4-1A2.94,2.94,0,0,1,257.22,260Z"/><path class="cls-13" d="M156.59,191.53a5.78,5.78,0,0,1-1.42-1.9c.13-1.25.24-2.52.41-3.77a4.23,4.23,0,0,1,2.45-3.33c1.17-.63,2.31-1.32,3.52-1.9.68-.32,1.34-.68,2-1a1,1,0,0,0,.66-.94,24,24,0,0,1,2.8,4.57,4.59,4.59,0,0,1-.72.74c-1.37,1-2.76,1.9-4.14,2.85a25,25,0,0,0-4.29,3.53C157.49,190.79,157,191.14,156.59,191.53Z"/><path class="cls-13" d="M287.52,256.43a35.32,35.32,0,0,1-2,5.94c-.25-.31-.48-.64-.76-.93a.91.91,0,0,0-1.37-.19,8.26,8.26,0,0,0-1.14.79,18.22,18.22,0,0,1-2.41,1.68c-.88.59-1,.54-1.56-.45a11.21,11.21,0,0,0-.77-1.35c-.78-1-1.23-1.11-2.34-.46-.3.17-.59.36-.88.54a9.37,9.37,0,0,1,.25-1.17c.86-2.43,1.74-4.87,2.62-7.29a2.91,2.91,0,0,1,.34-.59c0,1.34.92,2.34,1.41,3.49a1,1,0,0,0,1.44.51,25.12,25.12,0,0,0,2.38-1,1.21,1.21,0,0,1,1.59.19c.9,1.22,1.9,1,3,.35C287.39,256.43,287.46,256.44,287.52,256.43Z"/><path class="cls-13" d="M269.54,302.49c.47-.11.95-.19,1.43-.27l.4-.07.1,0,.24-.07,1-.28.44-.12a18.86,18.86,0,0,0,.55-2.79l-2.46.87a2.18,2.18,0,0,1-2.12-.3,14.62,14.62,0,0,1-1.85-1.57c-1-.95-1.37-1-2.6-.35-.2.1-.43.17-.64.25a51.88,51.88,0,0,0-1.41,5.62h.78a13.86,13.86,0,0,0,1.59-.09,1,1,0,0,1,.24-.05h.17c1.33-.18,2.63-.49,4-.74A.62.62,0,0,1,269.54,302.49Z"/><path class="cls-13" d="M158.63,170.56a38.76,38.76,0,0,1,4.16,5.93,14.86,14.86,0,0,0-3.36.82,30.29,30.29,0,0,1-3.33,1,20,20,0,0,0-2.51.72,2.61,2.61,0,0,0-2,2.72,20.8,20.8,0,0,1,0,2.62,39.49,39.49,0,0,1-3-5.16c.11-.2.22-.41.32-.62a9.26,9.26,0,0,1,4-4.22c1.63-.91,3.23-1.86,4.85-2.76C158.29,171.36,158.62,171.09,158.63,170.56Z"/><path class="cls-13" d="M223.51,284.13a21.15,21.15,0,0,1-1-4.58,4.83,4.83,0,0,0,.32-.59c.73-2,1.48-1.95,3.19-1.77a.49.49,0,0,1,.16.05,2.21,2.21,0,0,0,2.64-.7c.63-.6,1.23-1.23,1.84-1.84a48.54,48.54,0,0,1,2,7.67,1.78,1.78,0,0,0-.94.39c-1,.63-1.87,1.34-2.87,1.94a2.72,2.72,0,0,1-2.46.31c-.77-.26-1.5-.61-2.25-.92C223.91,284,223.71,283.91,223.51,284.13Z"/><path class="cls-14" d="M151.65,184.37a20.8,20.8,0,0,0,0-2.62,2.61,2.61,0,0,1,2-2.72,20,20,0,0,1,2.51-.72,30.29,30.29,0,0,0,3.33-1,14.86,14.86,0,0,1,3.36-.82,8.65,8.65,0,0,1,1.44,2.19,1,1,0,0,1-.66.94c-.68.33-1.34.69-2,1-1.21.58-2.35,1.27-3.52,1.9a4.23,4.23,0,0,0-2.45,3.33c-.17,1.25-.28,2.52-.41,3.77A25.17,25.17,0,0,1,151.65,184.37Z"/><path class="cls-14" d="M257.22,260a2.94,2.94,0,0,0-2.42.78c-.44.37-.93.69-1.4,1a2.9,2.9,0,0,1-3.29.24,20,20,0,0,1-2.76-1.51.82.82,0,0,0-1.12.08c-.26.23-.51.47-.76.71a1.47,1.47,0,0,1-1.12.4,43.9,43.9,0,0,1,.68-5.6c.52,0,.8-.45,1.2-.67,1.05-.58,1.48-.54,2.33.27s1.39,1.41,2.11,2.08c.52.49.77.51,1.39.08,1-.7,2-1.44,2.92-2.18a2.41,2.41,0,0,1,2.61-.36,1,1,0,0,1,.65,1.08,14.14,14.14,0,0,1-.88,3.24l-.15.33Z"/><path class="cls-13" d="M268.77,280.63a23.67,23.67,0,0,1,1.36-5,.52.52,0,0,0,.74.21c.52-.25,1-.54,1.57-.74a1.66,1.66,0,0,1,1.92.38c.35.38.77.71,1.09,1.12a2.16,2.16,0,0,0,2.5.73,7.73,7.73,0,0,1,2.23-.26,51,51,0,0,1-2.24,6.69,2.84,2.84,0,0,1-1.07-.87,1.71,1.71,0,0,0-1.91-.45,2.51,2.51,0,0,0-.92.47,4.51,4.51,0,0,1-1.41.65.71.71,0,0,1-.91-.27,16.9,16.9,0,0,1-1.13-1.54A2.29,2.29,0,0,0,268.77,280.63Z"/><path class="cls-14" d="M251.16,286.58a1.91,1.91,0,0,0-1.15.33,8.17,8.17,0,0,1-1.53.85,2.29,2.29,0,0,1-2.6-.35c-.74-.66-1.09-.6-1.75.16s-1.15,1.46-1.69,2.22-1,1.45-1.45,2.18a1.36,1.36,0,0,1-.64.57,17.09,17.09,0,0,1,.4-3.78,31.45,31.45,0,0,1,.71-4.62,1.74,1.74,0,0,0,1.16-.69c.65-.66,1.29-1.33,2-2a1.4,1.4,0,0,1,1.89-.26,4.73,4.73,0,0,1,1.35,1.08,1.05,1.05,0,0,0,1.41.17c.65-.38,1.29-.77,1.95-1.13a10.09,10.09,0,0,1,1-.38c0,.14-.06.28-.1.42l-.08.34A26.56,26.56,0,0,1,251.16,286.58Z"/><path class="cls-13" d="M139.37,160.33a1.37,1.37,0,0,1-.22-.27c-1.45-3.69-3-7.35-4.11-11.17a5,5,0,0,1-.2-.85.71.71,0,0,1,.94-.71,2.79,2.79,0,0,1,.77.39,20.07,20.07,0,0,1,1.8,1.39q3.5,3.19,7,6.43a3.69,3.69,0,0,1,.4.55,5.5,5.5,0,0,0-.81.27,17.22,17.22,0,0,0-4.48,3.09C140.09,159.77,139.72,160,139.37,160.33Z"/><path class="cls-14" d="M156.59,191.53c.44-.39.9-.74,1.29-1.16a25,25,0,0,1,4.29-3.53c1.38-1,2.77-1.88,4.14-2.85a4.59,4.59,0,0,0,.72-.74,15.43,15.43,0,0,1,2.17,3.67,36.3,36.3,0,0,1-3.76,2.8,9.61,9.61,0,0,0-2.68,2.71l-2.31,3.68A22.29,22.29,0,0,1,156.59,191.53Z"/><path class="cls-14" d="M158.63,170.56c0,.53-.34.8-.78,1.05-1.62.9-3.22,1.85-4.85,2.76a9.26,9.26,0,0,0-4,4.22c-.1.21-.21.42-.32.62a25.33,25.33,0,0,1-2.29-4.22,3.51,3.51,0,0,1,1.93-3.56,20.23,20.23,0,0,1,3-1.63c1.34-.55,2.63-1.17,3.92-1.81a2,2,0,0,1,1.16-.26A15.13,15.13,0,0,1,158.63,170.56Z"/><path class="cls-13" d="M226,296.74c-.36-1.82-.74-3.64-1.08-5.47a5.3,5.3,0,0,1-.29-1.89,2.72,2.72,0,0,1,1.27.54,5.87,5.87,0,0,1,.65.58c1.31,1.15,1.76,1.24,3.22.29a12.64,12.64,0,0,0,3.2-3.16,1.94,1.94,0,0,1,.74-.71,10.84,10.84,0,0,1,.76,3,18.77,18.77,0,0,1,.62,3.72,2.51,2.51,0,0,0-1,.94c-.5.71-1,1.43-1.54,2.1-.71.86-1,.89-1.91.33a15.08,15.08,0,0,0-1.65-1C227.66,295.38,227,295.56,226,296.74Z"/><path class="cls-13" d="M226.67,261.36a51.1,51.1,0,0,1,2.35,7.35,1.71,1.71,0,0,0-1.29,1.05,12.54,12.54,0,0,1-2.43,2.95,1.37,1.37,0,0,1-1.05.53,19,19,0,0,0-2.92.4c-.64-1.91-.86-3.91-1.32-5.85-.09-.39-.13-.79-.19-1.19.7,0,1.3-.38,2-.38a4.32,4.32,0,0,0,3.06-1.69c.36-.37.62-.84,1-1.17A2.17,2.17,0,0,0,226.67,261.36Z"/><path class="cls-13" d="M284.2,237.84a30.22,30.22,0,0,1,1.55-3.84c.37-1,.84-1.88,1.27-2.82a1.79,1.79,0,0,0,.93-.39,1.64,1.64,0,0,1,2.06.06c.32.24.69.42,1,.67a3.27,3.27,0,0,0,2.4.71c.29,0,.58,0,.86,0a37.74,37.74,0,0,1-1.41,4.91,2.66,2.66,0,0,0-1.26.55,17.13,17.13,0,0,1-2.88,1.57,2.29,2.29,0,0,1-3.11-.52C285.2,238.35,284.87,237.83,284.2,237.84Z"/><path class="cls-13" d="M284.17,266.2a31.79,31.79,0,0,1-2.12,5.65c-1,.35-2,.65-2.9,1.06a2,2,0,0,1-2.75-.59,5.24,5.24,0,0,0-2.21-1.61,1.89,1.89,0,0,0-1,0c-.73.08-1.15.77-1.86.86a32.59,32.59,0,0,1,1.67-5.27,4.16,4.16,0,0,0,1.44-.56.94.94,0,0,1,1.12.18,9.23,9.23,0,0,1,1.36,1.56c.69,1,1,1.11,2.16.49s2.08-1.23,3.11-1.89A1.33,1.33,0,0,1,284.17,266.2Z"/><path class="cls-14" d="M243.54,268.36a6.57,6.57,0,0,0,1.83-1.32,2.69,2.69,0,0,1,2-.8,1.87,1.87,0,0,1,1.28.44c.53.46,1.11.84,1.64,1.29a1.09,1.09,0,0,0,1.28.19,12,12,0,0,0,2.78-1.76,1.68,1.68,0,0,1,1.25-.51,50.12,50.12,0,0,1-1.36,5.26,7.33,7.33,0,0,0-2.2,1,2.19,2.19,0,0,1-2.59-.16c-.34-.22-.68-.45-1-.64a1.33,1.33,0,0,0-1.61.15c-.66.56-1.32,1.13-2,1.64s-1.2,1.1-2.08,1.14A29.67,29.67,0,0,1,243.54,268.36Z"/><path class="cls-14" d="M139.37,160.33c.35-.29.72-.56,1-.88a17.22,17.22,0,0,1,4.48-3.09,5.5,5.5,0,0,1,.81-.27h0a.47.47,0,0,0,.37.36l0,0a.47.47,0,0,0,.37.37l0,0a.47.47,0,0,0,.37.37h0a.47.47,0,0,0,.37.36h0a.47.47,0,0,0,.36.36h0a.5.5,0,0,0,.36.37h0a.5.5,0,0,0,.36.36h0a.47.47,0,0,0,.36.36h0a.48.48,0,0,0,.35.36h0l.35.36a2.86,2.86,0,0,1,1,1.07.83.83,0,0,1-.57.79c-1.06.44-2.11.91-3.18,1.31a7.39,7.39,0,0,0-3,2,2.06,2.06,0,0,0-.62,1.55c0,.57,0,1.15,0,1.73a44.14,44.14,0,0,1-3.19-7l-.19-.35Z"/><path class="cls-14" d="M233.72,286.92a1.94,1.94,0,0,0-.74.71,12.64,12.64,0,0,1-3.2,3.16c-1.46.95-1.91.86-3.22-.29a5.87,5.87,0,0,0-.65-.58,2.72,2.72,0,0,0-1.27-.54,29.41,29.41,0,0,1-1.13-5.25c.2-.22.4-.14.62,0,.75.31,1.48.66,2.25.92a2.72,2.72,0,0,0,2.46-.31c1-.6,1.9-1.31,2.87-1.94a1.78,1.78,0,0,1,.94-.39A18.27,18.27,0,0,1,233.72,286.92Z"/><path class="cls-14" d="M170.23,188.76a17.45,17.45,0,0,1,2.11,3.8,4,4,0,0,1-.46,2,57.55,57.55,0,0,1-4.08,7.27,1.49,1.49,0,0,0-.37,1.11,27.73,27.73,0,0,1-4.21-4,1.23,1.23,0,0,0,1-.55c.49-.65,1-1.31,1.43-2A83.78,83.78,0,0,0,170.23,188.76Z"/><path class="cls-13" d="M167.43,203a1.49,1.49,0,0,1,.37-1.11,57.55,57.55,0,0,0,4.08-7.27,4,4,0,0,0,.46-2,58.55,58.55,0,0,1,4.13,8.13,7.71,7.71,0,0,0-2.4,1.28,10.14,10.14,0,0,0-3.66,3.07c-.12.2-.4.19-.64.14l-.33-.23h0l-.36-.36h0l-.36-.36h0l-.37-.37h0l-.38-.35h0Z"/><path class="cls-14" d="M284.17,266.2a1.33,1.33,0,0,0-2-.17c-1,.66-2.05,1.31-3.11,1.89s-1.47.55-2.16-.49a9.23,9.23,0,0,0-1.36-1.56.94.94,0,0,0-1.12-.18,4.16,4.16,0,0,1-1.44.56,22.78,22.78,0,0,1,1.16-3.88l.18-.38h0c.29-.18.58-.37.88-.54,1.11-.65,1.56-.58,2.34.46a11.21,11.21,0,0,1,.77,1.35c.53,1,.68,1,1.56.45a18.22,18.22,0,0,0,2.41-1.68,8.26,8.26,0,0,1,1.14-.79.91.91,0,0,1,1.37.19c.28.29.51.62.76.93A14.53,14.53,0,0,1,284.17,266.2Z"/><path class="cls-13" d="M177.3,215.38c-1-1.43-2-2.85-2.93-4.29-.39-.57-.74-1.16-1.11-1.75a2.83,2.83,0,0,1,1.37-1.93,22.77,22.77,0,0,0,2.75-2.14,1.66,1.66,0,0,0,.54-1.41,6.6,6.6,0,0,1,1,1.84c1,2.07,1.87,4.14,2.8,6.22a7,7,0,0,0-3.41,2.83A1.13,1.13,0,0,1,177.3,215.38Z"/><path class="cls-13" d="M170.23,188.76a83.78,83.78,0,0,1-4.54,7.63c-.46.66-.94,1.32-1.43,2a1.23,1.23,0,0,1-1,.55,12.9,12.9,0,0,1-2.77-2.8l2.31-3.68a9.61,9.61,0,0,1,2.68-2.71,36.3,36.3,0,0,0,3.76-2.8A4.54,4.54,0,0,1,170.23,188.76Z"/><path class="cls-14" d="M221.33,273.64a19,19,0,0,1,2.92-.4,1.37,1.37,0,0,0,1.05-.53,12.54,12.54,0,0,0,2.43-2.95,1.71,1.71,0,0,1,1.29-1.05,44.24,44.24,0,0,1,1.65,6c-.61.61-1.21,1.24-1.84,1.84a2.21,2.21,0,0,1-2.64.7.49.49,0,0,0-.16-.05c-1.71-.18-2.46-.25-3.19,1.77a4.83,4.83,0,0,1-.32.59A34.2,34.2,0,0,1,221.33,273.64Z"/><path class="cls-14" d="M271.33,271.52c.71-.09,1.13-.78,1.86-.86a1.89,1.89,0,0,1,1,0,5.24,5.24,0,0,1,2.21,1.61,2,2,0,0,0,2.75.59c.94-.41,1.93-.71,2.9-1.06a47,47,0,0,1-1.87,5.26,7.73,7.73,0,0,0-2.23.26,2.16,2.16,0,0,1-2.5-.73c-.32-.41-.74-.74-1.09-1.12a1.66,1.66,0,0,0-1.92-.38c-.54.2-1.05.49-1.57.74a.52.52,0,0,1-.74-.21A19.92,19.92,0,0,1,271.33,271.52Z"/><path class="cls-13" d="M226.75,303.81c1.5.06,3,.46,4.47.63a11.32,11.32,0,0,0,4.71-.06l.21,0a2,2,0,0,0,.35-1.34,21.37,21.37,0,0,0-.49-3.81,1.65,1.65,0,0,0-1,.63,12.91,12.91,0,0,1-1,.95,1.71,1.71,0,0,1-2.22.11,11.57,11.57,0,0,0-1.62-1c-1-.48-2.09-.76-2.9.46-.17.27-.51.22-.79.25.06.87.12,1.74.19,2.61A4.18,4.18,0,0,0,226.75,303.81Z"/><path class="cls-13" d="M183.66,215.38a43.91,43.91,0,0,1,4,5.64c-.5,0-.63.47-.8.83a16.54,16.54,0,0,1-1.64,2.86c-.41.55-.79,1.18-1.61,1.2a11.07,11.07,0,0,1-1.37-2.22c-.73-1.26-1.42-2.53-2.13-3.8a2.93,2.93,0,0,1,1-2.51A9.65,9.65,0,0,1,183.66,215.38Z"/><path class="cls-14" d="M284.2,237.84c.67,0,1,.51,1.41.89a2.29,2.29,0,0,0,3.11.52,17.13,17.13,0,0,0,2.88-1.57,2.66,2.66,0,0,1,1.26-.55,35.33,35.33,0,0,1-1.58,5.35.38.38,0,0,0-.08.25v0a1.47,1.47,0,0,0-.8.29c-.8.56-1.6,1.11-2.42,1.64a2.59,2.59,0,0,1-1.62.52,1.06,1.06,0,0,1-1-.54A17.46,17.46,0,0,0,282.8,241,12.66,12.66,0,0,1,284.2,237.84Z"/><path class="cls-14" d="M287.52,256.43c-.06,0-.13,0-.17,0-1.09.69-2.09.87-3-.35a1.21,1.21,0,0,0-1.59-.19,25.12,25.12,0,0,1-2.38,1,1,1,0,0,1-1.44-.51c-.49-1.15-1.38-2.15-1.41-3.49a4.22,4.22,0,0,1,.72-1.78.72.72,0,0,0,.32-.71l.11-.34a.81.81,0,0,1,.66.5,17,17,0,0,1,1.08,2.38.61.61,0,0,0,1,.42c.83-.43,1.63-.91,2.42-1.4,1-.59.95-.6,1.81,0s.79.59,1.66.07a6.78,6.78,0,0,1,.92-.49c.25-.1.44.05.59.26A21.81,21.81,0,0,1,287.52,256.43Z"/><path class="cls-14" d="M239.39,304.32c1-1,2-2,2.91-3A1.17,1.17,0,0,1,244,301a2,2,0,0,0,2.42-.2,25.08,25.08,0,0,0,2.25-1.62,1.27,1.27,0,0,1,.78-.33,8.62,8.62,0,0,0,.36-2.81,22.25,22.25,0,0,0-3.33,1.52,1.82,1.82,0,0,1-2.25-.29,6.06,6.06,0,0,0-1.8-1.06.9.9,0,0,0-1.12.18,5,5,0,0,0-.82.9,4,4,0,0,1-1,1.2,46,46,0,0,0-.85,5.83Z"/><path class="cls-13" d="M297.3,221.35a48.71,48.71,0,0,1-1.83,6.72c-.43-.56-1.05-.4-1.61-.39a4.52,4.52,0,0,1-2.82-.62,3.19,3.19,0,0,0-2.16-.43,53.59,53.59,0,0,1,3-6.69c.4,0,.84,0,1.13.3a4,4,0,0,0,3.59,1.12C296.84,221.34,297.07,221.36,297.3,221.35Z"/><path class="cls-14" d="M274.86,92.29c-.76-.29-1.52-.57-2.27-.88a1,1,0,0,0-1.26.27A18.47,18.47,0,0,0,269,94.25a3.25,3.25,0,0,1-1.81,1.56c.47-3,.95-6.1,1.65-9.1a1.38,1.38,0,0,0,.79-.34,3.1,3.1,0,0,1,3.44-.41l1,.39A34,34,0,0,1,274.86,92.29Z"/><path class="cls-14" d="M226.67,261.36a2.17,2.17,0,0,1-.76,2c-.39.33-.65.8-1,1.17a4.32,4.32,0,0,1-3.06,1.69c-.72,0-1.32.41-2,.38a35.77,35.77,0,0,1-1.19-5.62c.91-.27,1.71-.93,2.77-.71a2.1,2.1,0,0,0,2.13-.86c.37-.44.81-.82,1.22-1.23a1.16,1.16,0,0,1,.77-.34A17.46,17.46,0,0,1,226.67,261.36Z"/><path class="cls-14" d="M268.77,280.63a2.29,2.29,0,0,1,1.82,1.16,16.9,16.9,0,0,0,1.13,1.54.71.71,0,0,0,.91.27A4.51,4.51,0,0,0,274,283a2.51,2.51,0,0,1,.92-.47,1.71,1.71,0,0,1,1.91.45,2.84,2.84,0,0,0,1.07.87,20.53,20.53,0,0,1-1.24,3.82c-.75-1.07-1.7-1-2.72-.48a4.13,4.13,0,0,1-1.65.51c-1.58.05-1.67.09-2.53-1.3a1.94,1.94,0,0,0-2.08-1.18l0-.72A15.42,15.42,0,0,1,268.77,280.63Z"/><path class="cls-13" d="M225.52,257.84a1.16,1.16,0,0,0-.77.34c-.41.41-.85.79-1.22,1.23a2.1,2.1,0,0,1-2.13.86c-1.06-.22-1.86.44-2.77.71a36.22,36.22,0,0,1-1.24-5.26,3.79,3.79,0,0,0,2.55-.88c1-.66,1.94-1.43,2.89-2.17.37-.28.32-.71.33-1.11A36.8,36.8,0,0,1,225.52,257.84Z"/><path class="cls-14" d="M236,299.19a1.65,1.65,0,0,0-1,.63,12.91,12.91,0,0,1-1,.95,1.71,1.71,0,0,1-2.22.11,11.57,11.57,0,0,0-1.62-1c-1-.48-2.09-.76-2.9.46-.17.27-.51.22-.79.25a29.76,29.76,0,0,1-.46-3.88c1-1.18,1.65-1.36,3-.73a15.08,15.08,0,0,1,1.65,1c.93.56,1.2.53,1.91-.33.55-.67,1-1.39,1.54-2.1a2.51,2.51,0,0,1,1-.94,7,7,0,0,1,.52,2.34C235.81,297,235.88,298.11,236,299.19Z"/><path class="cls-13" d="M274,86.35l-1-.39a3.1,3.1,0,0,0-3.44.41,1.38,1.38,0,0,1-.79.34,32,32,0,0,1,.57-4.14c.33-2.55.95-5,1.14-7.6a.67.67,0,0,1,.82-.68c.51,0,.8.25.84.71.26,3.15,1.32,6.15,1.65,9.28A8.49,8.49,0,0,1,274,86.35Z"/><path class="cls-13" d="M219.33,242.36a35,35,0,0,1,2.73,6.36,2,2,0,0,0-1.61.4,9.55,9.55,0,0,1-1,.67,4.83,4.83,0,0,1-3.37,1,24.3,24.3,0,0,1-1.37-5.25c.7-.29.92-1,1.27-1.55a2.38,2.38,0,0,1,1.46-1.07,4.58,4.58,0,0,1,1.16-.22A.85.85,0,0,0,219.33,242.36Z"/><path class="cls-14" d="M273.67,298.87l-2.46.87a2.18,2.18,0,0,1-2.12-.3,14.62,14.62,0,0,1-1.85-1.57c-1-.95-1.37-1-2.6-.35-.2.1-.43.17-.64.25a21.84,21.84,0,0,1,1.05-3.8,1.49,1.49,0,0,0,1-.29,2,2,0,0,1,2.58,0,11.26,11.26,0,0,1,1.79,1.36,2,2,0,0,0,2.07.51,7,7,0,0,1,1-.23.92.92,0,0,1,.92.36,9,9,0,0,1-.66,2.88.36.36,0,0,0-.06.25Z"/><path class="cls-14" d="M177.92,203.86a1.66,1.66,0,0,1-.54,1.41,22.77,22.77,0,0,1-2.75,2.14,2.83,2.83,0,0,0-1.37,1.93l-3.49-4.16c.24,0,.52.06.64-.14a10.14,10.14,0,0,1,3.66-3.07,7.71,7.71,0,0,1,2.4-1.28A14.2,14.2,0,0,1,177.92,203.86Z"/><path class="cls-13" d="M204.17,268a33.9,33.9,0,0,1-1.92-5c.83-1.23,1.72-2.34,3.36-2.48.37,0,.59-.35.75-.68a36.82,36.82,0,0,1,2.48,5.6,4.71,4.71,0,0,0-1.74.73C206.11,266.8,205.14,267.42,204.17,268Z"/><path class="cls-13" d="M194,232a32.56,32.56,0,0,1,2.63,5.53,1.83,1.83,0,0,0-.48.18c-.87.72-1.72,1.46-2.59,2.19a2.89,2.89,0,0,1-1.66.78,22,22,0,0,1-2.26-3.9c1.19-1,2.32-2.11,3.58-3A1.7,1.7,0,0,0,194,232Z"/><path class="cls-14" d="M216.09,250.83a4.83,4.83,0,0,0,3.37-1,9.55,9.55,0,0,0,1-.67,2,2,0,0,1,1.61-.4,11.53,11.53,0,0,1,1.1,2.84c0,.4,0,.83-.33,1.11-1,.74-1.88,1.51-2.89,2.17a3.79,3.79,0,0,1-2.55.88A31.75,31.75,0,0,1,216.09,250.83Z"/><path class="cls-14" d="M288.88,226.63a3.19,3.19,0,0,1,2.16.43,4.52,4.52,0,0,0,2.82.62c.56,0,1.18-.17,1.61.39a18.78,18.78,0,0,1-1.2,4.15c-.28,0-.57,0-.86,0a3.27,3.27,0,0,1-2.4-.71c-.31-.25-.68-.43-1-.67a1.64,1.64,0,0,0-2.06-.06,1.79,1.79,0,0,1-.93.39A29.55,29.55,0,0,1,288.88,226.63Z"/><path class="cls-14" d="M214,277.48a17.76,17.76,0,0,1,1.5,4.17,18.49,18.49,0,0,0-4,3.07,1.41,1.41,0,0,1-1.25.46,20.76,20.76,0,0,1-1.4-3.89,13.89,13.89,0,0,1,3.66-3.39A1.94,1.94,0,0,1,214,277.48Z"/><path class="cls-13" d="M189.17,223.45a27.48,27.48,0,0,1,3.14,5.27,18.65,18.65,0,0,0-3.57,3.64,2.5,2.5,0,0,1-1,.92,17.92,17.92,0,0,1-2-3.52c1.77-1.35,2.52-3.36,3.39-5.29A3.1,3.1,0,0,0,189.17,223.45Z"/><path class="cls-13" d="M200.34,258.19a26.83,26.83,0,0,1-2.08-4.87,1,1,0,0,1,.41-.89,9.21,9.21,0,0,1,1.61-1,3.58,3.58,0,0,0,1.89-1.08,49.24,49.24,0,0,1,2.69,6c-.31-.16-.6-.43-1-.3a5.7,5.7,0,0,0-2.61,1.3A6.94,6.94,0,0,1,200.34,258.19Z"/><path class="cls-13" d="M198.29,241.31a56.4,56.4,0,0,1,2.72,6.35c-.26-.11-.49-.35-.81-.24a7.15,7.15,0,0,0-3.65,2.24,31.78,31.78,0,0,1-2.28-4.51c.95-.73,1.92-1.46,2.86-2.21C197.67,242.51,198.25,242.09,198.29,241.31Z"/><path class="cls-13" d="M222.58,303.57h.15a13.59,13.59,0,0,0-.94-2.66c-.2,1-.2,1.07-1,1.07a3.4,3.4,0,0,0-2.54,1.22l-.15.14C219.61,303.49,221.1,303.57,222.58,303.57Z"/><path class="cls-14" d="M187.75,233.28a2.5,2.5,0,0,0,1-.92,18.65,18.65,0,0,1,3.57-3.64h0l.25.36A11.61,11.61,0,0,1,194,232a1.7,1.7,0,0,1-.78,1.76c-1.26.91-2.39,2-3.58,3a12.85,12.85,0,0,1-1.59-2.82.3.3,0,0,0-.17-.25Z"/><path class="cls-14" d="M198.29,241.31c0,.78-.62,1.2-1.16,1.63-.94.75-1.91,1.48-2.86,2.21a24.73,24.73,0,0,1-2-3.82c-.06-.1-.12-.2-.19-.3l-.15-.38a2.89,2.89,0,0,0,1.66-.78c.87-.73,1.72-1.47,2.59-2.19a1.83,1.83,0,0,1,.48-.18A16.87,16.87,0,0,1,198.29,241.31Z"/><path class="cls-14" d="M189.17,223.45a3.1,3.1,0,0,1-.07,1c-.87,1.93-1.62,3.94-3.39,5.29a18.4,18.4,0,0,1-2.15-3.85c.82,0,1.2-.65,1.61-1.2a16.54,16.54,0,0,0,1.64-2.86c.17-.36.3-.78.8-.83a6.69,6.69,0,0,1,1.17,1.81.63.63,0,0,0,.39.62Z"/><path class="cls-14" d="M200.34,258.19a6.94,6.94,0,0,0,.94-.76,5.7,5.7,0,0,1,2.61-1.3c.37-.13.66.14,1,.3a18.37,18.37,0,0,1,1.5,3.47c-.16.33-.38.65-.75.68-1.64.14-2.53,1.25-3.36,2.48A29.47,29.47,0,0,1,200.34,258.19Z"/><path class="cls-14" d="M183.66,215.38a9.65,9.65,0,0,0-2.63,2,2.93,2.93,0,0,0-1,2.51,26.07,26.07,0,0,1-2.76-4.51,1.13,1.13,0,0,0,1-.63,7,7,0,0,1,3.41-2.83Z"/><path class="cls-13" d="M219.31,293.26a27,27,0,0,1,1.72,5.26,7.33,7.33,0,0,0-3,.59,3.19,3.19,0,0,0-1.54,1c-.23.26-.43.53-.65.8a22.6,22.6,0,0,1-1.38-4.19c.56-.05,1.16.13,1.68-.21.81-.54,1.62-1.09,2.41-1.66A1.7,1.7,0,0,0,219.31,293.26Z"/><path class="cls-14" d="M219.31,293.26a1.7,1.7,0,0,1-.78,1.63c-.79.57-1.6,1.12-2.41,1.66-.52.34-1.12.16-1.68.21a13.07,13.07,0,0,1-1.09-3.17l1.21-.68,4-2.1A8.15,8.15,0,0,1,219.31,293.26Z"/><path class="cls-14" d="M219.33,242.36a.85.85,0,0,1-.72.38,4.58,4.58,0,0,0-1.16.22A2.38,2.38,0,0,0,216,244c-.35.55-.57,1.26-1.27,1.55a25.1,25.1,0,0,1-1.46-5.25,6.87,6.87,0,0,1,3.64-.74c.4,0,.8,0,1.2,0A10,10,0,0,1,219.33,242.36Z"/><path class="cls-14" d="M218.14,303.35l.15-.14a3.4,3.4,0,0,1,2.54-1.22c.76,0,.76-.07,1-1.07a6.36,6.36,0,0,0-.76-2.4,7.33,7.33,0,0,0-3,.59,3.19,3.19,0,0,0-1.54,1c-.23.26-.43.53-.65.8a17.83,17.83,0,0,0,.55,2.18C217,303.21,217.55,303.29,218.14,303.35Z"/><path class="cls-13" d="M210.27,285.18a1.41,1.41,0,0,0,1.25-.46,18.49,18.49,0,0,1,4-3.07,14.76,14.76,0,0,1,1.25,3.54,1.92,1.92,0,0,0-1.15.28,27.55,27.55,0,0,0-3.46,2.52,1.19,1.19,0,0,0-.5.87A20.34,20.34,0,0,1,210.27,285.18Z"/><path class="cls-13" d="M211.28,233.82a54.83,54.83,0,0,1-1.81-6,1.62,1.62,0,0,1,0-.69.7.7,0,0,1,.84-.44,2.59,2.59,0,0,1,.72.48,15,15,0,0,1,3.37,5.06c-.22.06-.49.06-.64.2a2.74,2.74,0,0,1-2.11.92C211.44,233.32,211.34,233.59,211.28,233.82Z"/><path class="cls-14" d="M297.3,221.35c-.23,0-.46,0-.69,0a4,4,0,0,1-3.59-1.12c-.29-.33-.73-.28-1.13-.3l.11-.34a.44.44,0,0,0,.22-.43,1.43,1.43,0,0,1,.42-1,.69.69,0,0,0,.32-.69h0a.68.68,0,0,0,.33-.71h0a3.81,3.81,0,0,1,1,.07,10.49,10.49,0,0,0,3.5.7c.13,0,.27.18.41.28A12.82,12.82,0,0,1,297.3,221.35Z"/><path class="cls-13" d="M218.53,290.81l-4,2.1-1.21.68a8.1,8.1,0,0,1-.92-2.47c.54-.51,1.09-1,1.6-1.54a10.53,10.53,0,0,1,3.33-2.36A16.75,16.75,0,0,1,218.53,290.81Z"/><path class="cls-13" d="M214,277.48a1.94,1.94,0,0,0-1.46.42,13.89,13.89,0,0,0-3.66,3.39,21.94,21.94,0,0,1-1.46-4.17c2.2-.1,3.77-1.38,5.25-2.83A11.59,11.59,0,0,1,214,277.48Z"/><path class="cls-13" d="M209.83,267.7a19.79,19.79,0,0,1,1.68,3.83c-.6,0-.9.46-1.27.81-2,1.92-1.2,1.58-3.91,1.62a8.63,8.63,0,0,1-.94-2.44,1.44,1.44,0,0,0,1.12-.38,10.91,10.91,0,0,1,2.71-2.12A1.26,1.26,0,0,0,209.83,267.7Z"/><path class="cls-14" d="M209.83,267.7a1.26,1.26,0,0,1-.61,1.32,10.91,10.91,0,0,0-2.71,2.12,1.44,1.44,0,0,1-1.12.38,15.46,15.46,0,0,1-1.22-3.5c1-.6,1.94-1.22,2.93-1.79a4.71,4.71,0,0,1,1.74-.73h0l.22.39.11.32.2.37.13.38a.7.7,0,0,0,.33.69Z"/><path class="cls-14" d="M206.33,274c2.71,0,1.94.3,3.91-1.62.37-.35.67-.82,1.27-.81a10.61,10.61,0,0,1,1.15,2.76c-1.48,1.45-3,2.73-5.25,2.83A11,11,0,0,1,206.33,274Z"/><path class="cls-14" d="M196.55,249.66a7.15,7.15,0,0,1,3.65-2.24c.32-.11.55.13.81.24a10.18,10.18,0,0,1,1.16,2.74,3.58,3.58,0,0,1-1.89,1.08,9.21,9.21,0,0,0-1.61,1,1,1,0,0,0-.41.89A17,17,0,0,1,196.55,249.66Z"/><path class="cls-13" d="M218.1,239.61c-.4,0-.8,0-1.2,0a6.87,6.87,0,0,0-3.64.74,13.89,13.89,0,0,1-1-3.52,6,6,0,0,0,1.35,0c1-.27,2-.53,2.21-1.76A27.35,27.35,0,0,1,218.1,239.61Z"/><path class="cls-14" d="M217.36,287.22a10.53,10.53,0,0,0-3.33,2.36c-.51.53-1.06,1-1.6,1.54a8.23,8.23,0,0,1-.8-2.26,1.19,1.19,0,0,1,.5-.87,27.55,27.55,0,0,1,3.46-2.52,1.92,1.92,0,0,1,1.15-.28A6.55,6.55,0,0,1,217.36,287.22Z"/><path class="cls-14" d="M215.82,235c-.22,1.23-1.25,1.49-2.21,1.76a6,6,0,0,1-1.35,0,9.91,9.91,0,0,1-1-3c.06-.23.16-.5.4-.49a2.74,2.74,0,0,0,2.11-.92c.15-.14.42-.14.64-.2h0l.25.39A8.41,8.41,0,0,1,215.82,235Z"/><path class="cls-14" d="M142.85,168.05c.39.18.32.56.4.88A1.1,1.1,0,0,1,142.85,168.05Z"/><path class="cls-13" d="M267.69,284.45l0,.72,0,0h-.25A.74.74,0,0,1,267.69,284.45Z"/><path class="cls-13" d="M293.3,216.79a.68.68,0,0,1-.33.71A.74.74,0,0,1,293.3,216.79Z"/><path class="cls-13" d="M293,217.51a.69.69,0,0,1-.32.69A.76.76,0,0,1,293,217.51Z"/><path class="cls-13" d="M189.17,223.45a.63.63,0,0,1-.39-.62A.75.75,0,0,1,189.17,223.45Z"/><path class="cls-13" d="M209.82,267.65a.7.7,0,0,1-.33-.69A.76.76,0,0,1,209.82,267.65Z"/><path class="cls-13" d="M278.58,250.46a.72.72,0,0,1-.32.71A.76.76,0,0,1,278.58,250.46Z"/><path class="cls-14" d="M168,203.55h0Z"/><path class="cls-13" d="M209.36,266.58l-.2-.37A.3.3,0,0,1,209.36,266.58Z"/><path class="cls-13" d="M139.48,160.72l.19.35A.27.27,0,0,1,139.48,160.72Z"/><path class="cls-13" d="M149.19,159.63l-.35-.36A.41.41,0,0,1,149.19,159.63Z"/><path class="cls-14" d="M168.39,203.9h0Z"/><path class="cls-13" d="M148.84,159.27a.48.48,0,0,1-.35-.36A.4.4,0,0,1,148.84,159.27Z"/><path class="cls-13" d="M252,281.73l.08-.34C252.15,281.54,252.1,281.64,252,281.73Z"/><path class="cls-14" d="M168.75,204.26h0Z"/><path class="cls-13" d="M148.5,158.92a.47.47,0,0,1-.36-.36A.42.42,0,0,1,148.5,158.92Z"/><path class="cls-13" d="M209.05,265.89l-.22-.39A.31.31,0,0,1,209.05,265.89Z"/><path class="cls-13" d="M274.34,262l-.18.38A.29.29,0,0,1,274.34,262Z"/><path class="cls-14" d="M169.1,204.61h0Z"/><path class="cls-14" d="M267.45,285.18h.25l-.32.35Z"/><path class="cls-13" d="M148.15,158.57a.5.5,0,0,1-.36-.36A.39.39,0,0,1,148.15,158.57Z"/><path class="cls-13" d="M147.8,158.22a.5.5,0,0,1-.36-.37A.41.41,0,0,1,147.8,158.22Z"/><path class="cls-13" d="M147.45,157.86a.47.47,0,0,1-.36-.36A.4.4,0,0,1,147.45,157.86Z"/><path class="cls-14" d="M169.45,205h0Z"/><path class="cls-13" d="M257.21,260l.15-.33A.23.23,0,0,1,257.21,260Z"/><path class="cls-13" d="M292.22,219.17a.44.44,0,0,1-.22.43A.38.38,0,0,1,292.22,219.17Z"/><path class="cls-13" d="M291.2,242.73a.38.38,0,0,1,.08-.25l0,.14Z"/><path class="cls-13" d="M192.09,241c.07.1.13.2.19.3A.23.23,0,0,1,192.09,241Z"/><path class="cls-13" d="M147.11,157.51a.47.47,0,0,1-.37-.36A.41.41,0,0,1,147.11,157.51Z"/><path class="cls-13" d="M214.67,232.59l-.25-.39A.33.33,0,0,1,214.67,232.59Z"/><path class="cls-13" d="M273.68,298.85a.36.36,0,0,1,.06-.25l.05.14Z"/><path class="cls-13" d="M146.76,157.16a.47.47,0,0,1-.37-.37A.42.42,0,0,1,146.76,157.16Z"/><path class="cls-13" d="M146.41,156.81a.47.47,0,0,1-.37-.37A.42.42,0,0,1,146.41,156.81Z"/><path class="cls-13" d="M146.06,156.46a.47.47,0,0,1-.37-.36A.4.4,0,0,1,146.06,156.46Z"/><path class="cls-13" d="M192.56,229.08l-.25-.36A.31.31,0,0,1,192.56,229.08Z"/><path class="cls-13" d="M187.92,233.68a.3.3,0,0,1,.17.25A.19.19,0,0,1,187.92,233.68Z"/><path class="cls-6" d="M238.81,258.43l.61-.1A5.47,5.47,0,0,0,238.81,258.43Z"/></svg>