<svg xmlns="http://www.w3.org/2000/svg" viewBox="0 0 480 480"><defs><style>.cls-1{isolation:isolate;}.cls-2{fill:#fff;}.cls-20,.cls-22,.cls-3{fill:#bcac95;}.cls-11,.cls-13,.cls-15,.cls-17,.cls-20,.cls-21,.cls-3,.cls-6,.cls-8,.cls-9{mix-blend-mode:multiply;}.cls-3{opacity:0.68;}.cls-4{fill:#41311a;stroke:#8e5229;stroke-linecap:round;stroke-miterlimit:10;stroke-width:2.62px;}.cls-5,.cls-6{fill:#264f1d;}.cls-6{opacity:0.29;}.cls-7,.cls-8,.cls-9{fill:#376606;}.cls-8{opacity:0.34;}.cls-9{opacity:0.3;}.cls-10,.cls-11{fill:#55772b;}.cls-11{opacity:0.4;}.cls-12,.cls-13{fill:#719007;}.cls-13{opacity:0.43;}.cls-14,.cls-15{fill:#79a836;}.cls-15{opacity:0.39;}.cls-16,.cls-17{fill:#6a9131;}.cls-17{opacity:0.57;}.cls-18{opacity:0.65;}.cls-19{fill:#8e5229;}.cls-20{opacity:0.44;}</style></defs><g class="cls-1"><g id="Layer_1" data-name="Layer 1"><rect class="cls-2" width="480" height="480"/><ellipse class="cls-3" cx="243.17" cy="392.78" rx="123.7" ry="22.22"/><ellipse class="cls-4" cx="243.66" cy="288.86" rx="69.85" ry="11.95"/><path class="cls-5" d="M280.66,220a114.71,114.71,0,0,1,3.48-11.92c4.47-12.67,11.33-25.09,22.45-32.63,4.26-2.89,10-5,14.42-2.38,3,1.72,4.57,5.14,5.06,8.53,1.58,10.84-6.35,20.44-12.88,29.22-7.89,10.6-14.54,22.52-17.7,35.44-3.38,13.81,1.73,23.83,4.23,37.4,1.69,9.15,1.85,19.17-3,27.11a7.59,7.59,0,0,1-3.59,3.45c-12.75,4.66-14.06-32.9-14.6-38.73C276.8,256.51,276.39,238.29,280.66,220Z"/><path class="cls-6" d="M280.57,220a114.71,114.71,0,0,1,3.48-11.92c4.47-12.67,11.34-25.09,22.45-32.63,2.16-1.46,13.24-7,12.71-.76a8,8,0,0,1-1.21,3.15q-14.83,26.61-27.13,54.53c1.92-4.37,8.78-8.49,13.37-8.87-3,7.63-6.87,14.7-8.84,22.76-3.38,13.81,1.73,23.83,4.23,37.4,1.69,9.15,1.85,19.17-3,27.11a7.59,7.59,0,0,1-3.59,3.45c-12.75,4.66-14.06-32.9-14.6-38.73C276.71,256.51,276.3,238.29,280.57,220Z"/><path class="cls-7" d="M144.57,198.07c-11.78-7.75-22.57-18.61-25.43-32.42-.94-4.52-.93-9.46,1.29-13.51s7.06-6.9,11.53-5.71c2.72.72,4.88,2.72,6.9,4.67,6.55,6.28,13,12.68,19.42,19.08,15.66,15.59,31.46,31.34,43.34,50,11,17.35,21.12,41.1,17.44,62.09-12.57-14.5-11.75-31.85-21.52-46.71C185.3,216.9,162.39,209.78,144.57,198.07Z"/><path class="cls-8" d="M152.91,186.69c-4.84-3.88-9.87-7.54-14.89-11.19a61.85,61.85,0,0,1-9.89-8.35c-1.92-2.14-3.16-5.78-3.69-8.57a13.88,13.88,0,0,1,.71-8,6.49,6.49,0,0,1,3.43-3.67,6,6,0,0,1,4.21.2c4.44,1.72,7.86,5.54,11.18,8.78,4.8,4.68,9.55,9.41,14.31,14.14,15.66,15.58,31.46,31.34,43.34,50,11,17.35,21.12,41.11,17.44,62.09-12.57-14.49-11.75-31.85-21.52-46.71a50.47,50.47,0,0,0-5-6.39c-2.47-2.71-5.2-4.84-7.46-7.75q-3.67-4.77-7.46-9.46a175.35,175.35,0,0,0-16.49-18C158.49,191.3,155.73,189,152.91,186.69Z"/><path class="cls-7" d="M320.09,140.12c-1.9,2.15-3.58,3.93-4.7,5.13-13.45,14.27-21.86,31.58-26.85,50.47-6.05,22.95-7.56,46.85-12.08,70.15-.6,3.1-2.21,7-5.37,6.75-4.46-7.88-5.93-17.09-6.71-26.11-3.86-44.36,4.57-102,41.63-130.84,4.88-3.8,10.59-7.23,16.78-7C344.78,109.28,329.65,129.31,320.09,140.12Z"/><path class="cls-9" d="M320.2,139.92c-1.89,2.14-3.57,3.93-4.7,5.12-13.44,14.28-21.86,31.59-26.84,50.47-6.06,23-7.56,46.85-12.08,70.16-.6,3.1-2.22,7-5.37,6.74-4.47-7.88-5.93-17.08-6.72-26.1a226.14,226.14,0,0,1,.21-41.63,174.66,174.66,0,0,1,9.58-43.31,123.59,123.59,0,0,1,9.21-19.63,104.38,104.38,0,0,1,5.86-8.91c1.88-2.55,4.74-4.88,6-7.75a81.08,81.08,0,0,1-.3,21.28,168.87,168.87,0,0,1-3.69,19.74,127.65,127.65,0,0,1,24.54-35.44c4.16-4.25,8.65-8.23,12.08-13.09,1.56-2.19,2.93-4.79,2.53-7.46.05.34,1.77,1.83,2.07,2.27a7.24,7.24,0,0,1,1.31,2.86c.52,2.53-.57,5.61-1.63,7.86C329.31,129.32,324.73,134.8,320.2,139.92Z"/><path class="cls-10" d="M233.75,319.78C212.1,316.85,209.44,308,205,288.23c-9.32-41.92-17.34-84.7-15-127.84.92-17.26,3.58-34.75,11.14-50.29s20.57-29,37.09-34.17c8.8-2.73,18.69-2.91,27,1.1,9.7,4.7,16.06,14.49,19.64,24.66C294.7,129.75,287,160.62,283,189a280.94,280.94,0,0,0,3.63,98.46c2.92,13.45,3.71,21.06-9.32,26.41A85.31,85.31,0,0,1,233.75,319.78Z"/><path class="cls-11" d="M286.61,287.45c2.92,13.45,3.71,21.06-9.32,26.41a85.31,85.31,0,0,1-43.54,5.92C212.1,316.85,209.44,308,205,288.23c-9.32-41.92-17.34-84.7-15-127.84.92-17.26,3.58-34.75,11.14-50.29s20.57-29,37.09-34.17c8.8-2.73,18.69-2.91,27,1.1,5.47,2.65,8.47,6.27,11.73,11.15-6.2-3.52-14.2-2.73-20.46.67s-11,9.09-14.75,15.14c-8.41,13.57-12.58,29.42-14.24,45.3s-.93,31.9-.19,47.84c1.59-12,3.89-24.38,10.42-34.64,2.49-3.92,5.78-7.62,10.18-9.09s10,0,12,4.19c1.24,2.6.9,5.63.55,8.48-1.87,14.81-5.57,29.32-7.32,44.24-1.18,10-3,21.61-1.31,31.54a296.25,296.25,0,0,0,7.43,33c.24-16.66,8.73-32.42,20.4-44.31.47,10.44,1.37,21,2.63,31.33Q283.86,274.77,286.61,287.45Z"/><path class="cls-12" d="M186.7,279.84c-10.45-12.58-24.58-22-36.09-33.75-5.07-5.16-10.13-10.78-12.06-17.75s.26-15.61,6.74-18.84c6.88-3.43,15.07.37,21.48,4.61a140.83,140.83,0,0,1,55.34,72.23c2.6,7.8,6.78,32.28-8.14,32-11.41-.2-17.09-23.81-22.22-31.7A74.2,74.2,0,0,0,186.7,279.84Z"/><path class="cls-13" d="M189.89,283.33c4.41,6.56,15.22,11.41,22.86,7.68-.94-4-3.3-7.44-5.39-11-2.23-3.74-4.57-7.41-7.13-10.93A73.48,73.48,0,0,0,182.1,251c-11.63-7.78-26-11.09-36.82-20-3.41-2.79-6.61-6.62-6.65-11.24,0-4.15,3.15-8.38,6.77-10.18,6.88-3.43,15.08.36,21.49,4.6a140.91,140.91,0,0,1,55.33,72.23c2.6,7.81,6.79,32.28-8.14,32a8.49,8.49,0,0,1-3.18-.69c-6.11-2.56-9.44-10.27-12-15.88-1.5-3.28-2.85-6.62-4.34-9.91C193.37,289.35,191.92,285.36,189.89,283.33Z"/><path class="cls-14" d="M235.64,277.65a66.17,66.17,0,0,0-7.21-18.92C220,244,207,234.45,193.7,221.13c-12.25-12.3-22.72-28.2-22-45.55.15-3.7,1.07-7.81,4.15-9.87,5-3.31,11.54.79,15.38,5.36,7.25,8.61,11.25,19.79,19.06,27.92,7.13,7.43,15.85,11.27,22.85,19.25.26-20.53-1.11-43.86,16-58.86,3.89-3.41,10-5.94,14-2.62a10.13,10.13,0,0,1,2.9,4.94c3.43,11.15-1.69,22.86-4.88,34.08a104.77,104.77,0,0,0-3.29,40.82c1.53,13,5.5,25.69,6,38.76.33,8.63-1.6,29.84-12.43,32.68C237.21,311.76,237.45,285.87,235.64,277.65Z"/><path class="cls-15" d="M235.64,277.65a66.17,66.17,0,0,0-7.21-18.92C220,244,207,234.45,193.7,221.13c-6.84-6.86-13-14.63-17.15-23.43-2.39-5.08-4.74-10.85-5-16.52-.48-10.15,7.4-3.56,10.3,1.5a203.53,203.53,0,0,0,53.58,60.86c-1.09-10.23-2.32-20.92-2.25-31.23,0-6.38.09-12.78.74-19.14,1.3-12.7,5.33-25.14,15.19-33.79,6.47-5.68,6.81,1,5.14,6.48-9.32,30.72-10.43,62.92-4.72,94.39,2.4,13.24,6.82,26.36,6,39.79-.75,11.8-11.85,9.4-15.4.89C237,293.52,237.34,285.36,235.64,277.65Z"/><path class="cls-16" d="M313.77,231.22c3.29.22,6.69,1.41,8.71,4,3.21,4.14,1.81,10.35-1.31,14.55s-7.61,7.15-11.25,10.91a35.92,35.92,0,0,0-9.76,22.62c-1,13.15.17,31.17-18.26,32.77-3.87.34-8.07-1.24-10-4.58-1.66-2.78-1.56-6.23-1.41-9.47C271.59,276.4,277.42,228.74,313.77,231.22Z"/><path class="cls-17" d="M270.42,302c.24-5.21.73-10.4,1.09-15.6.58,1.55.34,3.32,1,4.83a5.8,5.8,0,0,0,4.27,3,5.07,5.07,0,0,0,3.31-.32c1.77-.94,2.39-3.13,2.83-5.08,3.34-14.62,5.55-29.87,14.7-42.25,3.93-5.31,9.16-10,15.53-11.73a11.65,11.65,0,0,1,6.64-.17c6.82,2.2,4.56,10.72,1.36,15s-7.61,7.15-11.26,10.91a35.9,35.9,0,0,0-9.75,22.62c-1,13.15.17,31.17-18.26,32.77-3.87.34-8.07-1.24-10.06-4.58C270.18,308.72,270.28,305.27,270.42,302Z"/><g class="cls-18"><path class="cls-2" d="M156.26,188.8a10.51,10.51,0,0,1,1.87-8,51.31,51.31,0,0,0-1.87,8Z"/><path class="cls-2" d="M160,198.66a15.44,15.44,0,0,1-4.9,9.88,43.34,43.34,0,0,0,4.9-9.88Z"/><path class="cls-2" d="M164.3,201.1a74.82,74.82,0,0,0,6.64,4l-.28.25c-.1-.58-.17-1.17-.22-1.76.23.55.44,1.1.62,1.65l.13.39a14.69,14.69,0,0,1-6.89-4.52Z"/><path class="cls-2" d="M163.65,187.57a10,10,0,0,1,0-9.85,19.57,19.57,0,0,0,0,9.85Z"/><path class="cls-2" d="M168.59,193.11a10.6,10.6,0,0,1,4.31,3.08,10.51,10.51,0,0,1-4.31-3.08Z"/><path class="cls-2" d="M177.84,210.35c1.27,1.5,2.41,2.83,3.67,4.33a6.37,6.37,0,0,1-3.67-4.33Z"/><path class="cls-2" d="M280.56,103.13a47.82,47.82,0,0,1,12-18.26,98.22,98.22,0,0,0-12,18.26Z"/><path class="cls-2" d="M265,86.45a156.15,156.15,0,0,1,7.15-19,156.15,156.15,0,0,1-7.15,19Z"/><path class="cls-2" d="M243.12,65a70.71,70.71,0,0,1,2.46,13.55A70.71,70.71,0,0,1,243.12,65Z"/><path class="cls-2" d="M223.36,74.26a58,58,0,0,1,5.75,15.95c-2-5.22-3.91-10.7-5.75-15.95Z"/><path class="cls-2" d="M204.28,88.43a22.67,22.67,0,0,1,6.88,12.89,50.13,50.13,0,0,0-6.88-12.89Z"/><path class="cls-2" d="M186.49,115.44a37.23,37.23,0,0,1,8.62,4.93,36.32,36.32,0,0,1-8.62-4.93Z"/><path class="cls-2" d="M222.19,124.12a19.24,19.24,0,0,1-5-9.22c1.62,3.15,3.23,6.14,5,9.22Z"/><path class="cls-2" d="M237,108.11a127.24,127.24,0,0,1,6.16-17.24A128.12,128.12,0,0,1,237,108.11Z"/><path class="cls-2" d="M255.44,106.27a36.85,36.85,0,0,1,6.77-7.39,37.7,37.7,0,0,1-6.77,7.39Z"/><path class="cls-2" d="M255.44,118.58a46.59,46.59,0,0,0,9.85,5.55,16.19,16.19,0,0,1-9.85-5.55Z"/><path class="cls-2" d="M277,118a20.72,20.72,0,0,1,7.39-.62A20.46,20.46,0,0,1,277,118Z"/><path class="cls-2" d="M285,126c3.61-1,8.72-2.53,12.33-3.66A29.07,29.07,0,0,1,285,126Z"/><path class="cls-2" d="M222.67,136.67c4.31,1.73,4,8.32-.52,9.57a5.66,5.66,0,0,0,.52-9.57Z"/><path class="cls-2" d="M196.28,131.53A52.48,52.48,0,0,1,201.83,142a51.71,51.71,0,0,1-5.55-10.47Z"/><path class="cls-2" d="M179.72,143.1a17.51,17.51,0,0,1,9.78,6.31,52.17,52.17,0,0,0-9.78-6.31Z"/><path class="cls-2" d="M195.69,162.93a67.07,67.07,0,0,1,12.94,3.7,67.58,67.58,0,0,1-12.94-3.7Z"/><path class="cls-2" d="M216,178.33a254,254,0,0,1,14.16-21.56A252.43,252.43,0,0,1,216,178.33Z"/><path class="cls-2" d="M245.58,140.76a24,24,0,0,1,7.39-3.08,23.89,23.89,0,0,1-7.39,3.08Z"/><path class="cls-2" d="M267.1,144.08a4.65,4.65,0,0,1,4.52,5.3,7.07,7.07,0,0,0-4.52-5.3Z"/><path class="cls-2" d="M225.25,185.11a7.5,7.5,0,0,1,1.86,8,15.28,15.28,0,0,0-1.86-8Z"/><path class="cls-2" d="M198.77,179.56a14,14,0,0,1-4.31,4.31,14,14,0,0,1,4.31-4.31Z"/><path class="cls-2" d="M220.94,195a22.53,22.53,0,0,1-2.46,7.39,22.76,22.76,0,0,1,2.46-7.39Z"/><path class="cls-2" d="M252.39,150.5a7.69,7.69,0,0,1,4.31,1.25,7.56,7.56,0,0,1-4.31-1.25Z"/><path class="cls-2" d="M244.33,171.57a60.42,60.42,0,0,1-7.59-10.32,61.35,61.35,0,0,1,7.59,10.32Z"/><path class="cls-2" d="M252.37,162.92a5.55,5.55,0,0,1-1.25-6.76,11.34,11.34,0,0,0,1.25,6.76Z"/><path class="cls-2" d="M264.61,161.69a4.57,4.57,0,0,1,3.77-4.88,9,9,0,0,0-3.77,4.88Z"/><path class="cls-2" d="M267.22,168.37a5.48,5.48,0,0,0,1.95-.4,1,1,0,0,1-1.95.4Z"/><path class="cls-2" d="M261,177.09c.77.53,5.89,4.5,3.73,5.09a.35.35,0,0,1-.42-.22c.23.24.56,0,.59-.21a.78.78,0,0,0-.3-.6,20.82,20.82,0,0,1-3.6-4.06Z"/><path class="cls-2" d="M246.13,181.47a3.17,3.17,0,0,1,.11,4.9,6.14,6.14,0,0,0-.11-4.9Z"/><path class="cls-2" d="M254.2,170.32a5,5,0,0,1,3.08-1.84,4.86,4.86,0,0,1-3.08,1.84Z"/><path class="cls-2" d="M235.73,180.79a7.47,7.47,0,0,1-3.7-2.46,7.47,7.47,0,0,1,3.7,2.46Z"/><path class="cls-2" d="M241.89,198.66a37,37,0,0,1-9.24-3.7,36.76,36.76,0,0,1,9.24,3.7Z"/><path class="cls-2" d="M239.4,207.93a13.06,13.06,0,0,0,9.24,1.14,7.89,7.89,0,0,1-9.24-1.14Z"/><path class="cls-2" d="M253,199.27a22.7,22.7,0,0,1,7.39,2.47,22.78,22.78,0,0,1-7.39-2.47Z"/><path class="cls-2" d="M259.73,190.11a8.91,8.91,0,0,1,7.41,5.47,17.57,17.57,0,0,0-7.41-5.47Z"/><path class="cls-2" d="M252.36,184.49a20.57,20.57,0,0,1,5.54-4.93,20.55,20.55,0,0,1-5.54,4.93Z"/><path class="cls-2" d="M251.72,209.76A16.67,16.67,0,0,1,258,220.81a34.72,34.72,0,0,0-6.27-11.05Z"/><path class="cls-2" d="M242.41,217.73c-.53,3.65-5.08,5.85-8.38,4.32-3.17-1.74-5.09-5-6.61-8.13a30.15,30.15,0,0,1-2.16-6.64c1.44,4.35,3.34,8.71,6.45,12.1a9.25,9.25,0,0,0,2.57,2.13,6.08,6.08,0,0,0,8.13-3.78Z"/><path class="cls-2" d="M206.79,206.05a100.55,100.55,0,0,0-1.87-14.78,29.83,29.83,0,0,1,1.87,14.78Z"/><path class="cls-2" d="M200.62,191.88a15.56,15.56,0,0,1,1.23-8.62c-.34,2.93-.74,5.71-1.23,8.62Z"/><path class="cls-2" d="M175.37,172.78a15,15,0,0,1-6.8-6.75c2.19,2.39,4.39,4.58,6.8,6.75Z"/><path class="cls-2" d="M181.52,167.87a6.66,6.66,0,0,1-2.46-6.79,16.51,16.51,0,0,0,2.46,6.79Z"/><path class="cls-2" d="M173.52,183.11a14.22,14.22,0,0,1-6.16,0,14.22,14.22,0,0,1,6.16,0Z"/><path class="cls-2" d="M182.14,177.1a14.47,14.47,0,0,1-.62-6.16,14.3,14.3,0,0,1,.62,6.16Z"/><path class="cls-2" d="M181.52,193.1a29,29,0,0,1-8.62,1.84,28.93,28.93,0,0,1,8.62-1.84Z"/><path class="cls-2" d="M190.78,206.08c-1.35,1.23-2.5,2.33-3.8,3.61a5.31,5.31,0,0,1,3.8-3.61Z"/><path class="cls-2" d="M194.46,193.11a57.07,57.07,0,0,1-.62-12.32,56.5,56.5,0,0,1,.62,12.32Z"/><path class="cls-2" d="M193.23,172.17a5.73,5.73,0,0,1,1.23-3.69,5.8,5.8,0,0,1-1.23,3.69Z"/><path class="cls-2" d="M179.68,200.52A21.69,21.69,0,0,0,176,203a3.55,3.55,0,0,1,3.69-2.45Z"/><path class="cls-2" d="M198.77,219.6a83.47,83.47,0,0,1-8.46,6.05l-.3-.48c1.26-.66,2.53-1.3,3.83-1.88-1.15.84-2.34,1.62-3.55,2.37l-.3-.48a83.48,83.48,0,0,1,8.78-5.58Z"/><path class="cls-2" d="M208.65,220.84a31.53,31.53,0,0,0-.13,5.57l-.5-.14a17.84,17.84,0,0,1,1.84-1.74,20.17,20.17,0,0,1-1.4,2.1l-.39.51a9.67,9.67,0,0,1,.58-6.3Z"/><path class="cls-2" d="M211.71,212.21a17.9,17.9,0,0,1,1.22-9.86c-.34,2.45-1,7.4-1.22,9.86Z"/><path class="cls-2" d="M201.25,210.33a3.52,3.52,0,0,1-3.13-3,25,25,0,0,0,3.13,3Z"/><path class="cls-2" d="M222.16,219.6a7.87,7.87,0,0,1,2.49-6.15c-.93,2.08-1.71,4-2.49,6.15Z"/><path class="cls-2" d="M222.18,235a8.51,8.51,0,0,1-4.93,4.92c1.76-1.62,3.31-3.16,4.93-4.92Z"/><path class="cls-2" d="M204.91,236.2a10.47,10.47,0,0,1-5.91,2.86,8.31,8.31,0,0,1,1-4.68,14.57,14.57,0,0,0-.38,4.29l-.37-.29a20.4,20.4,0,0,0,5.66-2.18Z"/><path class="cls-2" d="M221,228.71a14.45,14.45,0,0,1-7.1-3.16,22.13,22.13,0,0,1,2.14-1c-.52.44-1.05.86-1.59,1.25v-.39a72.87,72.87,0,0,0,6.54,3.32Z"/><path class="cls-2" d="M236.33,231.93a6.75,6.75,0,0,1-2.43-7.4,13.45,13.45,0,0,0,2.43,7.4Z"/><path class="cls-2" d="M235.16,248.45a3.78,3.78,0,0,1-2.64-4.85,7.26,7.26,0,0,0,2.64,4.85Z"/><path class="cls-2" d="M249.89,231.3a27.76,27.76,0,0,1,3.08-8,27.09,27.09,0,0,1-3.08,8Z"/><path class="cls-2" d="M223.41,252.24a9.35,9.35,0,0,1-4.93.62,9.35,9.35,0,0,1,4.93-.62Z"/><path class="cls-2" d="M237.57,262.71c.94,2.15,1.28,4.73,2.06,6.72.18.25.61-.18.32-.35.47.11,0,.94-.49.62a1.6,1.6,0,0,1-.63-.94,18.16,18.16,0,0,1-1.26-6.05Z"/><path class="cls-2" d="M246.81,252.24a14.93,14.93,0,0,1,.62-8.62c-.16,2.92-.36,5.7-.62,8.62Z"/><path class="cls-2" d="M257.89,252.84a55.22,55.22,0,0,0,5-6.13,10,10,0,0,1-5,6.13Z"/><path class="cls-2" d="M254.81,238.07a13,13,0,0,1,6.17-6.15c-2.17,2-4.15,4-6.17,6.15Z"/><path class="cls-2" d="M258.5,263.37a10.55,10.55,0,0,1,4.91,1.9,10.41,10.41,0,0,1-4.91-1.9Z"/><path class="cls-2" d="M252.87,265.19A56.73,56.73,0,0,1,254,277.46a56.17,56.17,0,0,1-1.11-12.27Z"/><path class="cls-2" d="M246.79,280.55c-3.93,4.36-11.37.94-10.62-4.88a6.58,6.58,0,0,0,10.62,4.88Z"/><path class="cls-2" d="M230.19,254.59a4.12,4.12,0,0,1-4.46-2.88,11.56,11.56,0,0,0,4.46,2.88Z"/><path class="cls-2" d="M243.73,292.28a28.22,28.22,0,0,1-8.62,1.23,28,28,0,0,1,8.62-1.23Z"/><path class="cls-2" d="M257.94,289.18a9.49,9.49,0,0,0,4.54,4.58l-.35.26a20.76,20.76,0,0,1,.08-2.36,23.16,23.16,0,0,1,.49,2.72,6.46,6.46,0,0,1-4.76-5.2Z"/><path class="cls-2" d="M261,282.46a5.4,5.4,0,0,1,3.69-.62,5.34,5.34,0,0,1-3.69.62Z"/><path class="cls-2" d="M283.78,151.86a68.36,68.36,0,0,1,9.9-9.19,67.34,67.34,0,0,1-9.9,9.19Z"/><path class="cls-2" d="M281.32,165.44a6.34,6.34,0,0,1,8.64,3,8.69,8.69,0,0,0-8.64-3Z"/><path class="cls-2" d="M275.83,176.34a38.3,38.3,0,0,1,9.23,4.32,39,39,0,0,1-9.23-4.32Z"/><path class="cls-2" d="M272.52,193.8a15,15,0,0,1,1,11.68,32.85,32.85,0,0,0-1-11.68Z"/><path class="cls-2" d="M266.91,213.52a15.26,15.26,0,0,0,7,6.54,8.74,8.74,0,0,1-7-6.54Z"/><path class="cls-2" d="M280.69,200.5a13.8,13.8,0,0,1,5.54,2.47,13.86,13.86,0,0,1-5.54-2.47Z"/><path class="cls-2" d="M276.38,233.15a10.45,10.45,0,0,1,4.31-3.08,10.6,10.6,0,0,1-4.31,3.08Z"/><path class="cls-2" d="M266.45,225.09a36.93,36.93,0,0,0-2.95,8.06,10.47,10.47,0,0,1,2.95-8.06Z"/><path class="cls-2" d="M272.74,245.43a2,2,0,0,1,1.24,1.84,2,2,0,0,1-1.24-1.84Z"/><path class="cls-2" d="M211.7,182.65a13.15,13.15,0,0,1-7.38-4.32c2.48,1.51,4.85,2.9,7.38,4.32Z"/><path class="cls-2" d="M212.79,151.45a8.3,8.3,0,0,1-4-9.43,12.31,12.31,0,0,0,4,9.43Z"/><path class="cls-2" d="M238.2,130.91a13.77,13.77,0,0,0,3.63-9.85,9,9,0,0,1-3.63,9.85Z"/><path class="cls-2" d="M228.33,99.39a3.06,3.06,0,0,1-3.67-3.59,4.74,4.74,0,0,0,3.67,3.59Z"/><path class="cls-2" d="M240.65,84.71A56.42,56.42,0,0,1,237,73a55.83,55.83,0,0,1,3.69,11.7Z"/><path class="cls-2" d="M218.48,90.25a21.71,21.71,0,0,1-7.39-1.84,21.48,21.48,0,0,1,7.39,1.84Z"/><path class="cls-2" d="M205.55,113.64A8.5,8.5,0,0,1,200,110c1.91,1.26,3.65,2.41,5.57,3.65Z"/><path class="cls-2" d="M207.39,125.36a71.32,71.32,0,0,1-13.55,3.08,71.67,71.67,0,0,1,13.55-3.08Z"/><path class="cls-2" d="M190.76,134a28.26,28.26,0,0,0-4.33,1.17,3.7,3.7,0,0,1,4.33-1.17Z"/><path class="cls-2" d="M187.07,159.24a61.37,61.37,0,0,1,12.32-3.7,61.76,61.76,0,0,1-12.32,3.7Z"/><path class="cls-2" d="M270.22,110a17.14,17.14,0,0,1,0-6.77,17.14,17.14,0,0,1,0,6.77Z"/><path class="cls-2" d="M257.79,84.82a6.25,6.25,0,0,1-.35-9.22,8.36,8.36,0,0,0,.35,9.22Z"/><path class="cls-2" d="M271.45,90.25a27.68,27.68,0,0,1,4.31-7.39,27.11,27.11,0,0,1-4.31,7.39Z"/><path class="cls-2" d="M249.89,97a17.86,17.86,0,0,1,1.23-6.78A17.67,17.67,0,0,1,249.89,97Z"/><path class="cls-2" d="M244.35,111.19a21.84,21.84,0,0,1,1.85,7.4,21.55,21.55,0,0,1-1.85-7.4Z"/><path class="cls-2" d="M230.68,112.32A18.11,18.11,0,0,0,227.8,121a9,9,0,0,1,2.88-8.72Z"/><path class="cls-2" d="M235.73,143.84a27.77,27.77,0,0,1,.61,8.62,27.77,27.77,0,0,1-.61-8.62Z"/><path class="cls-2" d="M220.48,157c-.83.28-1,1.11-1.55,1.69a1.32,1.32,0,0,1-2-.1.43.43,0,0,1,.15-.64c-.2.44.26.52.56.57a.87.87,0,0,0,.8-.27c.49-.52,1.15-1.55,2-1.25Z"/><path class="cls-2" d="M269.6,130.9a8.36,8.36,0,0,1,4.31,1.85,8.31,8.31,0,0,1-4.31-1.85Z"/><path class="cls-2" d="M280.07,130.91a2.55,2.55,0,0,1,.56,4.26,4.62,4.62,0,0,0-.56-4.26Z"/><path class="cls-2" d="M227,171.63a5.53,5.53,0,0,1,2,6.71,10.68,10.68,0,0,0-2-6.71Z"/><path class="cls-2" d="M212.64,186.28c-.18.38.28.3.49.28s.37-.09.47-.38c.23-.54.59-1.64,1.39-1.43-.84.48-.36,1.69-1.22,2.21a1.09,1.09,0,0,1-1.21-.14.31.31,0,0,1,.08-.54Z"/><path class="cls-2" d="M304.18,151.76a6.56,6.56,0,0,0,7.36.14,4.71,4.71,0,0,1-7.36-.14Z"/><path class="cls-2" d="M312.14,143.77a15.83,15.83,0,0,0,6.58,1.4l-.22.17a21.44,21.44,0,0,1,1-2.12,21.43,21.43,0,0,1-.55,2.43,8.42,8.42,0,0,1-6.8-1.88Z"/><path class="cls-2" d="M320.09,136.53a30.61,30.61,0,0,1,4.26.86l-.39.2a6.45,6.45,0,0,0-.23-4.78,4.89,4.89,0,0,1,.83,5l-.11.27a29.81,29.81,0,0,1-4.36-1.56Z"/><path class="cls-2" d="M316.45,124.11a6.62,6.62,0,0,1-.7-7.39,14.75,14.75,0,0,0,.7,7.39Z"/><path class="cls-2" d="M325.67,111.81a5.27,5.27,0,0,1,1.78-5c-.66,1.72-1.2,3.21-1.78,5Z"/><path class="cls-2" d="M332.4,124.09c2.49-2.22,2.91-6,2.83-9.12l.49.23c-2.07,1.41-4.17,2.78-6.35,4,1.93-1.61,3.95-3.09,6-4.54l.43-.31c.33,3.4-.31,7.74-3.4,9.71Z"/><path class="cls-2" d="M317,103.8a28.12,28.12,0,0,1,.62,8.63,27.81,27.81,0,0,1-.62-8.63Z"/><path class="cls-2" d="M304.71,130.9c.12-2.69,1.62-5.26,1.52-7.93a44,44,0,0,0-.9-8.08c1.39,3.82,2.28,8.25.7,12.14-.39,1.14-1,2.72-1.32,3.87Z"/><path class="cls-2" d="M315.18,131.52a37.1,37.1,0,0,0,6.78-1.23,7.59,7.59,0,0,1-6.78,1.23Z"/><path class="cls-2" d="M326.88,126.59a1.45,1.45,0,0,1,1.85,0,1.44,1.44,0,0,1-1.85,0Z"/><path class="cls-2" d="M293.62,130.29a38.24,38.24,0,0,0,6.22,8.32,29.11,29.11,0,0,1,5.06,2.52,11.14,11.14,0,0,0,1.67.8,8.08,8.08,0,0,1-1.79-.56c-1.6-.62-3.41-1.69-5-2.16a20.65,20.65,0,0,1-6.12-8.92Z"/><path class="cls-2" d="M297.94,153.08a38.47,38.47,0,0,1-2.47,9.85,38.07,38.07,0,0,1,2.47-9.85Z"/><path class="cls-2" d="M294.86,168.47c1.68,1.11,3.2,2.06,4.92,3.11a6.43,6.43,0,0,1-4.92-3.11Z"/><path class="cls-2" d="M289.31,178.33a8.84,8.84,0,0,1,3.08,5.54,59.73,59.73,0,0,1-3.08-5.54Z"/><path class="cls-2" d="M287.7,187.08a1.08,1.08,0,0,0,.58.87,1.11,1.11,0,0,0,1,.23c-.11.61-1,.63-1.4.31s-.73-1.09-.21-1.41Z"/><path class="cls-2" d="M309.58,178.34a13,13,0,0,1,3.2-11.05,24.58,24.58,0,0,0-3.2,11.05Z"/><path class="cls-2" d="M319.4,177.61a20.24,20.24,0,0,1,5.54-4.93,20.55,20.55,0,0,1-5.54,4.93Z"/><path class="cls-2" d="M325,188.8a7.11,7.11,0,0,1,4.31-.61,7.2,7.2,0,0,1-4.31.61Z"/><path class="cls-2" d="M312.7,187a13.82,13.82,0,0,1,1.25,9.85A48.74,48.74,0,0,0,312.7,187Z"/><path class="cls-2" d="M299.13,182a9.67,9.67,0,0,1-1.26-4.92,9.83,9.83,0,0,1,1.26,4.92Z"/><path class="cls-2" d="M300.93,193.78a4.14,4.14,0,0,1,.77-6.14,6.83,6.83,0,0,0-.77,6.14Z"/><path class="cls-2" d="M317.65,185.72a5.78,5.78,0,0,1,3.69-1.23,5.75,5.75,0,0,1-3.69,1.23Z"/><path class="cls-2" d="M296.68,202.45a32.77,32.77,0,0,1-9.24-1.8,33.13,33.13,0,0,1,9.24,1.8Z"/><path class="cls-2" d="M302.26,207.35a12.33,12.33,0,0,1,8.63-.17c-2.94-.08-5.7,0-8.63.17Z"/><path class="cls-2" d="M320.72,198a14.22,14.22,0,0,1,6.16,0,14.22,14.22,0,0,1-6.16,0Z"/><path class="cls-2" d="M308.44,214a26.17,26.17,0,0,1,6.86,4.8,26.41,26.41,0,0,1-6.86-4.8Z"/><path class="cls-2" d="M299.09,220.27a9,9,0,0,1,2.78,6.68c-.84-2.33-1.72-4.44-2.78-6.68Z"/><path class="cls-2" d="M294.23,217.73a9.83,9.83,0,0,1-6.76,3.13c2.34-1,4.48-2,6.76-3.13Z"/><path class="cls-2" d="M289.28,227.57a8,8,0,0,1-5.48,3.82c1.93-1.25,3.64-2.44,5.48-3.82Z"/><path class="cls-2" d="M291.8,208.5a3,3,0,0,1,1.85-4.25,6.15,6.15,0,0,0-1.85,4.25Z"/><path class="cls-2" d="M305.33,198a10.6,10.6,0,0,1,3.08-4.31,10.7,10.7,0,0,1-3.08,4.31Z"/><path class="cls-2" d="M315.79,203.61a15.29,15.29,0,0,1,6.15,1.87,15.5,15.5,0,0,1-6.15-1.87Z"/><path class="cls-2" d="M292.36,232.53a17.82,17.82,0,0,1-1.24,6.77,17.41,17.41,0,0,1,1.24-6.77Z"/><path class="cls-2" d="M308.42,238.08a20.63,20.63,0,0,1,6.76-11.71,48.83,48.83,0,0,0-6.76,11.71Z"/><path class="cls-2" d="M316.41,238.07a17.53,17.53,0,0,1,12.32-6.8,31.25,31.25,0,0,0-12.32,6.8Z"/><path class="cls-2" d="M320.12,243.05a8.64,8.64,0,0,1,8,.47,24.69,24.69,0,0,0-8-.47Z"/><path class="cls-2" d="M318.9,249.14a25.61,25.61,0,0,1,6.21,5.49,25.63,25.63,0,0,1-6.21-5.49Z"/><path class="cls-2" d="M313.37,257.16a16.55,16.55,0,0,0,3,5,5.05,5.05,0,0,1-3-5Z"/><path class="cls-2" d="M305.94,249.16c-.5-2.73-.9-6.72-1.21-9.52-.22-3.17-.5-6.52.6-9.57-.94,6.35.75,12.71.61,19.09Z"/><path class="cls-2" d="M291.77,249.05a8.26,8.26,0,0,1-8.74-5.37,12.21,12.21,0,0,0,8.74,5.37Z"/><path class="cls-2" d="M288.59,258.42c-.85-4.9,2.85-12.31,7.4-14.42l-.16.23a13.6,13.6,0,0,1,1.49-5.54,16.86,16.86,0,0,0-1,5.55v.16a9,9,0,0,0-3.25,2.66c-2.46,3.23-4.61,7.19-4.5,11.36Z"/><path class="cls-2" d="M301.63,256.58c2.92.22,5.69.41,8.62.58a13.76,13.76,0,0,1-8.62-.58Z"/><path class="cls-2" d="M300.33,267a7.59,7.59,0,0,0,6.22,4.21,5.11,5.11,0,0,1-6.22-4.21Z"/><path class="cls-2" d="M289.92,268.25c-.5-.36-1-.76-1.45-1.13a25,25,0,0,1,3.36-4.85,22.63,22.63,0,0,1,4.29-3.83,86.65,86.65,0,0,0-7.3,8.72l0-.21c.37.44.76.85,1.12,1.3Z"/><path class="cls-2" d="M312.76,248.62a4.92,4.92,0,0,1,3.08-1.85,5,5,0,0,1-3.08,1.85Z"/><path class="cls-2" d="M285.61,263.33a22.61,22.61,0,0,1-5.46-5.62,23.13,23.13,0,0,1,5.46,5.62Z"/><path class="cls-2" d="M278.89,274.77a12.61,12.61,0,0,1-9.66-5.58,24.87,24.87,0,0,0,9.66,5.58Z"/><path class="cls-2" d="M274.55,287.66a6.11,6.11,0,0,1-6-3.05,17,17,0,0,0,6,3.05Z"/><path class="cls-2" d="M284.93,287.37a12.82,12.82,0,0,1,1.34-11.09,25.79,25.79,0,0,0-1.34,11.09Z"/><path class="cls-2" d="M293.61,287.48a18.65,18.65,0,0,0,8-2,8.11,8.11,0,0,1-8,2Z"/><path class="cls-2" d="M296.09,278.73a24.19,24.19,0,0,1,8-1.23,24.67,24.67,0,0,1-8,1.23Z"/><path class="cls-2" d="M281.33,297.72a9.63,9.63,0,0,1-7.54-5.36,20.86,20.86,0,0,0,7.54,5.36Z"/><path class="cls-2" d="M290.43,294.05a7.45,7.45,0,0,1,2.45-3.7,7.52,7.52,0,0,1-2.45,3.7Z"/><path class="cls-2" d="M227.72,273.8a41.24,41.24,0,0,1-6.78-8,40.89,40.89,0,0,1,6.78,8Z"/><path class="cls-2" d="M225.26,285.5a12,12,0,0,1-3.32.23,11.89,11.89,0,0,1-1-2.69,10.22,10.22,0,0,1,1.49,2.23l-.27-.18a11.79,11.79,0,0,1,3.1.41Z"/><path class="cls-2" d="M232,292.28a71.27,71.27,0,0,1-4.93-12.94A70.54,70.54,0,0,1,232,292.28Z"/><path class="cls-2" d="M142.1,224.54a12.5,12.5,0,0,1-11-6.83,18.85,18.85,0,0,0,11,6.83Z"/><path class="cls-2" d="M144.55,217.76a21.89,21.89,0,0,1-6.13-10.48,98.88,98.88,0,0,0,6.13,10.48Z"/><path class="cls-2" d="M153.81,214.67a32.22,32.22,0,0,1-.62-9.24,31.86,31.86,0,0,1,.62,9.24Z"/><path class="cls-2" d="M166.86,220.21A12.85,12.85,0,0,1,171,209a22.68,22.68,0,0,0-4.09,11.18Z"/><path class="cls-2" d="M176.6,220.83a9.66,9.66,0,0,1,1.23-4.93,9.76,9.76,0,0,1-1.23,4.93Z"/><path class="cls-2" d="M156.27,227.61a58.5,58.5,0,0,0-8-1.24,10.52,10.52,0,0,1,8,1.24Z"/><path class="cls-2" d="M158.73,218.36a9.18,9.18,0,0,0,.58-3.67,2.47,2.47,0,0,1-.58,3.67Z"/><path class="cls-2" d="M144,235a27.77,27.77,0,0,1-8.62.61A27.77,27.77,0,0,1,144,235Z"/><path class="cls-2" d="M151.94,244.21a42.18,42.18,0,0,1-6.42,4.6c-.46.37-1.81.74-1.8-.28,0-.24.19-.55.43-.46-.48.08-.24.83.07.78a1.58,1.58,0,0,0,1-.47,42.39,42.39,0,0,1,6.7-4.17Z"/><path class="cls-2" d="M162.43,243.62a40.71,40.71,0,0,1-7.39-7.39,40.4,40.4,0,0,1,7.39,7.39Z"/><path class="cls-2" d="M170.31,236.3a7.32,7.32,0,0,1,.84-9.23,11.22,11.22,0,0,0-.84,9.23Z"/><path class="cls-2" d="M181.53,236.23a21.78,21.78,0,0,1,4.31-9.86c-1.45,3.33-2.86,6.54-4.31,9.86Z"/><path class="cls-2" d="M172.29,254.73c-3.69,1.15-7.35,2.12-11.13,2.93a30.76,30.76,0,0,1,11.13-2.93Z"/><path class="cls-2" d="M160.46,270.64a13.51,13.51,0,0,1,13-6.55,18.6,18.6,0,0,0-13,6.55Z"/><path class="cls-2" d="M149.5,255.94a90.24,90.24,0,0,1,14.16-6.16,91.19,91.19,0,0,1-14.16,6.16Z"/><path class="cls-2" d="M176.55,247.33a21.57,21.57,0,0,0,8,9.23,12.86,12.86,0,0,1-8-9.23Z"/><path class="cls-2" d="M189.57,249.15a12.72,12.72,0,0,1,.5-9.87,37.12,37.12,0,0,0-.5,9.87Z"/><path class="cls-2" d="M200,251.62a17.86,17.86,0,0,1,4.95-9.23c-1.81,3.05-3.41,6-4.95,9.23Z"/><path class="cls-2" d="M187.05,271.89a69,69,0,0,1-12.89,4.46,70,70,0,0,1,12.89-4.46Z"/><path class="cls-2" d="M196.29,277.5a51.59,51.59,0,0,1-6.13-16.64c1.85,5.45,4,11.3,6.13,16.64Z"/><path class="cls-2" d="M201.85,267a51,51,0,0,1,3.7-11.08,51,51,0,0,1-3.7,11.08Z"/><path class="cls-2" d="M209.24,268.87a35.93,35.93,0,0,1,6.78-11.7c-2.24,3.95-4.47,7.8-6.78,11.7Z"/><path class="cls-2" d="M194.45,285.42a20.72,20.72,0,0,1-7.39,1.24,21.1,21.1,0,0,1,7.39-1.24Z"/><path class="cls-2" d="M203.7,292.25a8.28,8.28,0,0,1-6.18-.52c2.13.08,4.07.25,6.18.52Z"/><path class="cls-2" d="M209.86,283a8.85,8.85,0,0,1,0-6.78c0,2.32,0,4.46,0,6.78Z"/><path class="cls-2" d="M216,295.36c.59-1.95-1.25-3.88-.21-5.8l.19,0a14.52,14.52,0,0,1,7.47,1.33,26.35,26.35,0,0,0-7.43-.69l.27-.19c-.77,1.62.72,3.74-.29,5.37Z"/><path class="cls-2" d="M123,165.4a29,29,0,0,1,1.85-8.63A28.7,28.7,0,0,1,123,165.4Z"/><path class="cls-2" d="M129.11,150.64a49.43,49.43,0,0,1-4.71-10.56,49.71,49.71,0,0,1,4.71,10.56Z"/><path class="cls-2" d="M120.55,158.6a9.52,9.52,0,0,1-7.42-3.65,31.21,31.21,0,0,0,7.42,3.65Z"/><path class="cls-2" d="M125.35,170a26,26,0,0,1-7.79,3,25.73,25.73,0,0,1,7.79-3Z"/><path class="cls-2" d="M133.36,180.06a11,11,0,0,1-8.45,4.16,28.33,28.33,0,0,0,8.45-4.16Z"/><path class="cls-2" d="M137.27,173.31a19.39,19.39,0,0,1-6.38-15.3,29,29,0,0,0,6.38,15.3Z"/><path class="cls-2" d="M137.18,157.39a6,6,0,0,1,3.07-6.17,14,14,0,0,0-3.07,6.17Z"/><path class="cls-2" d="M147,166a47.75,47.75,0,0,1,5.55-9.85A47.75,47.75,0,0,1,147,166Z"/><path class="cls-2" d="M135.3,148.16a11.91,11.91,0,0,1-.57-8c.16,2.73.34,5.29.57,8Z"/><path class="cls-2" d="M144.57,172.17c2.32.15,4.47.34,6.77.62a9.61,9.61,0,0,1-6.77-.62Z"/><path class="cls-2" d="M159.35,171.56a6.3,6.3,0,0,1,3.08-5.55,26.63,26.63,0,0,0-3.08,5.55Z"/><path class="cls-2" d="M142.1,189.4a36.57,36.57,0,0,1-12.3,7.44c3.09-1.82,9.26-5.55,12.3-7.44Z"/><path class="cls-2" d="M148.26,197.42a23.12,23.12,0,0,1-4.92,6.16,23.24,23.24,0,0,1,4.92-6.16Z"/><path class="cls-2" d="M144.65,184.85a4.93,4.93,0,0,1-4.21-5.25,8.72,8.72,0,0,0,4.21,5.25Z"/></g><path class="cls-19" d="M312.63,384.87s-6,15-66.65,15c-64.12,0-72.17-15-72.17-15-28.75-37.42-27.08-69.11,0-96,0,0,3.75,11.95,69.85,11.95s69-11.95,69-11.95C339.79,320.31,336.76,353.92,312.63,384.87Z"/><path class="cls-20" d="M281.68,397.91c-5.71.84-11.5,1.09-17.26,1.44-6.14.38-12.29.53-18.44.53-64.12,0-72.17-15-72.17-15-28.75-37.42-27.08-69.11,0-96,0,0,3.75,11.95,69.85,11.95s69-11.95,69-11.95c3.53,4.08,5.8,8.44,9.11,12.57-12,5.15-24.76,8.21-37.54,10.84-13.57,2.79-27.23,5.13-40.89,7.46l-36.15,6.18c14.54,20.46,36,34.94,58.14,46.8,13.85,7.43,28.54,14.13,44.21,15.31-2.26-.17-8,4.17-10.37,5.12a79.46,79.46,0,0,1-11.67,3.69C285.55,397.28,283.62,397.63,281.68,397.91Z"/><g class="cls-21"><path class="cls-22" d="M299.12,376.9c.73-1.58,1.31-1.43,1.13.31-.74,1.59-1.31,1.42-1.13-.31Z"/><path class="cls-22" d="M312.62,360.75c1.72.75,1.72,2.36,0,3.1-1.72-.74-1.72-2.35,0-3.1Z"/><path class="cls-22" d="M239.87,371.62a2.84,2.84,0,0,1-3,3.72,2.84,2.84,0,0,1,3-3.72Z"/><path class="cls-22" d="M210.25,387.46a6.2,6.2,0,0,1-7.5,1.55,6.17,6.17,0,0,1,7.5-1.55Z"/><path class="cls-22" d="M188.5,387.15c-.84,1.5-1.23,1.35-.75-.31.83-1.52,1.22-1.35.75.31Z"/><path class="cls-22" d="M171.55,365.74a2.8,2.8,0,0,1-1.89-4.34,2.8,2.8,0,0,1,1.89,4.34Z"/><path class="cls-22" d="M162.2,349.28A160.11,160.11,0,0,0,191,374.78c6.33,4.38,12.85,8.46,20.38,10.58-10.54-.81-19.86-6.93-28.19-13a82.43,82.43,0,0,1-21-23.07Z"/><path class="cls-22" d="M180.76,356c23.05,15.65,47.64,28.52,76,30-28.24,2.36-55.49-11.54-76-30Z"/><path class="cls-22" d="M218.94,365c12.23,3.88,24.35,7.47,36.64,11.14A67.43,67.43,0,0,1,218.94,365Z"/><path class="cls-22" d="M180.3,330c4.43,2.22,10.45,5.75,14.83,8.16s10.48,5.76,14.69,8.44A58.56,58.56,0,0,1,180.3,330Z"/><path class="cls-22" d="M196,321.05c14.26,7.22,28.79,13.7,43.54,19.85A92.74,92.74,0,0,1,196,321.05Z"/><path class="cls-22" d="M255.66,327.46c6.71,2.38,16.07,5.76,22.8,7.69s16.43,4.45,23.26,6.19a85.92,85.92,0,0,1-46.06-13.88Z"/><path class="cls-22" d="M287.54,325c4.46.85,10.58,2.53,15,3.61s10.58,2.62,14.91,4.05A50.15,50.15,0,0,1,287.54,325Z"/><path class="cls-22" d="M302.18,310a111.11,111.11,0,0,1,18.69,3.76A21,21,0,0,1,302.18,310Z"/><path class="cls-22" d="M238.37,309.82a25,25,0,0,1,15,6.21,25.2,25.2,0,0,1-15-6.21Z"/><path class="cls-22" d="M169.37,308a13.08,13.08,0,0,1,9.75,6.21,13.11,13.11,0,0,1-9.75-6.21Z"/><path class="cls-22" d="M158.5,324.1a10.5,10.5,0,0,1,8.62,5.59,10.52,10.52,0,0,1-8.62-5.59Z"/><path class="cls-22" d="M279.63,366.32a123.5,123.5,0,0,1,28.1,8.43,59.53,59.53,0,0,1-28.1-8.43Z"/><path class="cls-22" d="M307.77,363.5a27,27,0,0,1,13.46,3,14.11,14.11,0,0,1-13.46-3Z"/><path class="cls-22" d="M320.86,352.7a3.37,3.37,0,0,1,5.25.93,3.37,3.37,0,0,1-5.25-.93Z"/><path class="cls-22" d="M279.25,389.63c1.5-1.1,2.87-.3,2.62,1.55-1.51,1.11-2.86.3-2.62-1.55Z"/><path class="cls-22" d="M224.52,390.53a7.24,7.24,0,0,1,7.5,3.73,7.25,7.25,0,0,1-7.5-3.73Z"/><path class="cls-22" d="M190,385.34a4.33,4.33,0,0,1,4.84-.73c-.18,2.5-3.92,3-4.84.73Z"/><path class="cls-22" d="M206.09,307.4a5.54,5.54,0,0,1,6.76,2.46,5.53,5.53,0,0,1-6.76-2.46Z"/><path class="cls-22" d="M243.25,327.52c1.38-1.2,2.54-.57,2.25,1.24-1.38,1.21-2.53.56-2.25-1.24Z"/><path class="cls-22" d="M268.75,315.41c.07-1.85,1.4-2.34,2.62-.94-.06,1.86-1.4,2.33-2.62.94Z"/><path class="cls-22" d="M280,307.64c1.41-1.13,2.36-.5,1.87,1.24-1.42,1.14-2.36.5-1.87-1.24Z"/><path class="cls-22" d="M266.12,348a4.24,4.24,0,0,1,4.88,3.73,4.23,4.23,0,0,1-4.88-3.73Z"/><path class="cls-22" d="M224.12,356.4c1.75-.43,2.33.51,1.13,1.86-1.76.44-2.32-.51-1.13-1.86Z"/><path class="cls-22" d="M201.62,356.4c-1.22,1.39-2.56.92-2.62-.93,1.22-1.4,2.55-.92,2.62.93Z"/><path class="cls-22" d="M175.37,343.67c.31,1.77-.64,2.25-1.87.93-.31-1.78.65-2.24,1.87-.93Z"/><path class="cls-22" d="M181.4,319.45a3.49,3.49,0,0,1,1.83-4.67,2.81,2.81,0,0,1-1.83,4.67Z"/><path class="cls-22" d="M179.5,301.81c-.46,1.72-1.42,1.73-1.88,0,.46-1.73,1.42-1.72,1.88,0Z"/><path class="cls-22" d="M268.37,363.23c1.29,1.2.92,1.83-.75,1.24-1.29-1.2-.91-1.82.75-1.24Z"/><path class="cls-22" d="M288.59,350.21c1.4-1.06,2-.59,1.1,1-1.4,1.08-1.95.59-1.1-1Z"/><path class="cls-22" d="M303.62,345.85a3.89,3.89,0,0,1,1.47-1.75,4.34,4.34,0,0,1,2.25-.14,2.13,2.13,0,0,1-3.72,1.89Z"/><path class="cls-22" d="M315.28,336.23a2.07,2.07,0,0,1,2.25-3.11,2.07,2.07,0,0,1-2.25,3.11Z"/><path class="cls-22" d="M218.81,318.81a5,5,0,0,1-.29,6.22,3.92,3.92,0,0,1,.29-6.22Z"/><path class="cls-22" d="M233.81,352.8a.78.78,0,0,1,1.23-.14,1.14,1.14,0,0,1-.55,2,.85.85,0,0,1-1-.71c.16-.55,0-.85-.23-.94-.47-.2-.58.36-.11.5.24.08.6-.1.65-.67Z"/><path class="cls-22" d="M176.87,377.21c1.38,1,1.19,1.36-.37.62-1.39-1-1.18-1.36.37-.62Z"/><path class="cls-22" d="M257.85,394c1.28-1.23,2-.76,1.5.93-1.28,1.24-2,.76-1.5-.93Z"/><path class="cls-22" d="M285.62,377.83c1.38-1.1,1.95-.63,1.13.93-1.39,1.1-1.95.63-1.13-.93Z"/><path class="cls-22" d="M305.5,349.88c.71-1.61,1.48-1.45,1.5.31-.71,1.61-1.49,1.44-1.5-.31Z"/><path class="cls-22" d="M299.15,317.62a2,2,0,0,1-3.35,1.59,2,2,0,0,1,3.35-1.59Z"/><path class="cls-22" d="M307.72,303.91c-1.58-.78-1.39-1.58.37-1.55,1.59.78,1.39,1.58-.37,1.55Z"/><path class="cls-22" d="M322,322.57c1.64-1,3.19,0,3,1.88a1.85,1.85,0,0,1-3-1.88Z"/><path class="cls-22" d="M251.16,341.81a3.07,3.07,0,0,1-.75,5,3.07,3.07,0,0,1,.75-5Z"/><path class="cls-22" d="M195.25,332.18a4,4,0,0,1-4.88,3.41,4,4,0,0,1,4.88-3.41Z"/><path class="cls-22" d="M165.62,335.59a2.22,2.22,0,0,1-4.12.93,2.65,2.65,0,0,1,4.12-.93Z"/><path class="cls-22" d="M160.74,340.56a4.34,4.34,0,0,1,3.78,3.71,2.91,2.91,0,0,1-3.78-3.71Z"/><path class="cls-22" d="M221.5,311.37c1.23-1.41,2.78-.94,3,.93-1.24,1.42-2.78.93-3-.93Z"/><path class="cls-22" d="M264.25,365.72a27.37,27.37,0,0,1,7.5,15.21,27.21,27.21,0,0,1-7.5-15.21Z"/><path class="cls-22" d="M275.49,383.13a13.83,13.83,0,0,1,7.47-1.3c-.94,3-5.54,3.78-7.47,1.3Z"/></g></g></g></svg>