<svg id="Layer_1" data-name="Layer 1" xmlns="http://www.w3.org/2000/svg" viewBox="0 0 480 480"><defs><style>.cls-1{fill:#fff;}.cls-2{fill:#eaeaea;}.cls-3{fill:#383a34;}.cls-4{fill:#ffeedc;}.cls-5{fill:#8e6e57;}.cls-6{fill:#ba8b61;}.cls-7{fill:#644e2e;}.cls-8{fill:#dbd8bf;}.cls-9{fill:#93a038;}.cls-10{fill:#62772f;}.cls-11{fill:#43561e;}.cls-12{fill:#45571f;}.cls-13{fill:#748920;}.cls-14{fill:#44571e;}.cls-15{fill:#a8c43e;}.cls-16{fill:#996d3f;}.cls-17{fill:#959492;}</style></defs><rect class="cls-1" width="480" height="480"/><path class="cls-2" d="M306.86,396.35a12.18,12.18,0,0,0-4.21-1.86l0-.26a7.39,7.39,0,0,1-2.74-.56,14.5,14.5,0,0,0-1.42-.43c-1.72-.36-3.59-.69-5.91-1-4.14-.63-8.37-1.05-12-1.39-6.34-.57-12.81-1-19.23-1.2l-3.66-.14c-3-.13-5.8-.23-8.72-.24h-.24l-.64,0-3.28,0c-5.48,0-11.15-.08-16.78.07-4.38.12-8.85.27-12.93.44-5.54.23-10,.52-14.08.94l-.47.05c-.69.07-1.41.15-2.21.19a129.91,129.91,0,0,0-13.22,1.53,74.17,74.17,0,0,0-9.51,1.77,36.3,36.3,0,0,0-4.48,1.41c-.38.16-.76.33-1.16.52l-.14.07-.46.25-.39.23a3.62,3.62,0,0,0-.32.22l-.12.08a4.48,4.48,0,0,0-2.13,3.48,4.54,4.54,0,0,0,1.93,3.62l.41.32c.11.09.19.13.25.18l.09.06c.17.12.34.22.51.32l.06,0c.34.2.69.4,1.12.62a37,37,0,0,0,4.38,1.79,87.73,87.73,0,0,0,14.09,3.42l.36,0a33.64,33.64,0,0,1,3.44.6,81.31,81.31,0,0,0,9.37,1.39l3.79.38c4.19.44,8.52.88,12.71,1.09l.37,0a17.88,17.88,0,0,0,5.47.68c1.31,0,2.64-.07,3.9-.13s2.4-.12,3.45-.12l4.39,0a273.12,273.12,0,0,0,28.07-.78c13.52-1.3,27.51-2.65,40.27-9,1.7-.85,3.51-2,4-3.83l0-.07A4.86,4.86,0,0,0,306.86,396.35Zm-16.68-3.19Zm-42.1-2.91Zm-.46,0h0Zm-71.49,13.33ZM308.56,401Z"/><path class="cls-3" d="M278.1,344.29v0a2.51,2.51,0,0,0-1.05-2.45,7.31,7.31,0,0,0-2.58-1.09l.35,0a8.67,8.67,0,0,1-2.37-.56c-1.09-.23-2.19-.41-3.28-.58-2.21-.33-4.43-.56-6.65-.77-3.57-.32-7.17-.54-10.69-.66-2.36-.09-4.6-.22-6.89-.22h0l-.53,0c-3.69,0-7.41-.07-11.16,0-2.32.06-4.83.15-7.2.24-2.7.11-5.29.27-7.82.53-.47,0-.95.1-1.5.13-2.43.14-4.9.46-7.35.85a40.25,40.25,0,0,0-5.27,1,20.09,20.09,0,0,0-2.47.78l-.63.28c-.11.06-.22.11-.33.18l-.21.12a2.07,2.07,0,0,0-.24.17,2.28,2.28,0,0,0-1.11,1.79c0,.73,0,4,0,4.74a2.36,2.36,0,0,0,1,1.87l.23.18a1.29,1.29,0,0,0,.18.13l.31.2c.2.12.4.23.61.33a19.73,19.73,0,0,0,2.41,1,48,48,0,0,0,7.81,1.89,19.61,19.61,0,0,1,2.13.37,46.38,46.38,0,0,0,5.2.77c2.89.28,6.12.66,9.17.81l.25,0c2,.67,5,.22,7.09.23a175.42,175.42,0,0,0,18.05-.42c7.68-.74,15.35-1.51,22.36-5a3.62,3.62,0,0,0,2.12-2v0C278.33,348.08,277.89,345.13,278.1,344.29Z"/><path class="cls-3" d="M200.89,403.1h1.68c0-2.11,0-4.23.05-6.33q.1-11,.06-21.93,0-11.93-.07-23.85v-3.72l10.14,0c7.15,0,14.3,0,21.45.08,5.05,0,10.11,0,15.17,0l14.48-.07v1c0,6.71-.05,13.43,0,20.15,0,3.71-.09,7.45-.12,11.18q-.08,11.79-.16,23.57h1.59c0-1.12,0-2.25,0-3.34.15-7.41.15-14.85.18-22.28l0-29.61v-2.18l-14.13,0q-6.65,0-13.29,0l-9.46,0h0c-3.61.09-7.26.05-10.87,0L201,345.64l0,2.45q-.09,8.37,0,16.81c.07,9.42,0,18.88,0,28.32Z"/><path class="cls-3" d="M212.35,403.1H214c0-2.11,0-4.23.05-6.33.08-7.32.08-14.62.06-21.93L214.08,351l0-3.72,10.14,0c7.15,0,14.3,0,21.45.08,5.06,0,10.11,0,15.17,0l14.49-.07v1c0,6.71-.05,13.43,0,20.15,0,3.71-.09,7.45-.12,11.18q-.09,11.79-.17,23.57h1.6c0-1.12,0-2.25,0-3.34.15-7.41.15-14.85.19-22.28l0-29.61v-2.18l-14.13,0q-6.65,0-13.29,0l-9.46,0h0c-3.62.09-7.26.05-10.87,0l-16.68-.08,0,2.45q-.09,8.37,0,16.81c.07,9.42,0,18.88,0,28.32Z"/><path class="cls-4" d="M307.73,266.38c28.58-25.06,27.59-58.1,20.69-90.14-8.16-37.86-41.92-66.09-83.61-73.57-25.63-4.59-54.43.78-73.32,17.29-18.56,16.22-25.33,40.82-23.75,63.78,2.65,38.43,17.13,80.9,59.29,96.68,31.58,11.83,71.9,9.3,98.37-12.08C306.19,267.7,307,267.05,307.73,266.38Z"/><path class="cls-5" d="M286.78,255c0,1,.05,2.09,0,3.14-.27,3.69-.08,7.39-.24,11.09-.2,4.71-.16,9.42-.15,14.13a56.79,56.79,0,0,1-.4,7.26,2,2,0,0,0,0,.34c-.1,1.79-.17,3.58-.29,5.37-.09,1.42-.23,2.83-.36,4.24-.16,1.75-.35,3.49-.52,5.24a59.49,59.49,0,0,1-1.23,7.73,16.92,16.92,0,0,0-.3,1.87,15.44,15.44,0,0,1-.59,2.39,54.48,54.48,0,0,1-8.71,17.58,39.06,39.06,0,0,1-5.08,5.67,19.93,19.93,0,0,1-3.91,2.8,54.91,54.91,0,0,1-5.34,2.61,18.65,18.65,0,0,1-5,1.2c-1.93.22-3.86.41-5.79.6a12.12,12.12,0,0,1-1.34.06c-2.32,0-4.64,0-7-.06s-4.93-.07-7.39-.18q-3.93-.18-7.83-.46a57.24,57.24,0,0,1-8.72-1.43,30.06,30.06,0,0,1-5.32-1.73,21.83,21.83,0,0,1-6.28-4.25A45.49,45.49,0,0,1,194.91,326a72,72,0,0,1-5-16c-.32-1.68-.53-3.39-.77-5.09s-.41-3.11-.6-4.66c-.1-.82-.13-1.64-.22-2.46-.16-1.44-.19-2.9-.3-4.36-.32-4.18-.18-8.36-.26-12.55-.06-3.47-.07-6.95-.24-10.42-.22-4.26-.24-8.52-.13-12.78a15.73,15.73,0,0,1,.65-4.31c.27,0,.39.15.52.35a5,5,0,0,0,1,1.22,25.86,25.86,0,0,0,3.16,2.1,45.9,45.9,0,0,0,9.54,3.51c1.58.44,3.21.68,4.81,1a57.7,57.7,0,0,0,7.86,1,1.6,1.6,0,0,1,.44,0,6.61,6.61,0,0,0,2.34.17c.79,0,1.55.22,2.33.22h22.22a4.54,4.54,0,0,0,1.11-.09,4.62,4.62,0,0,1,1.22-.11,25.14,25.14,0,0,0,3.68-.31c1.59-.14,3.19-.21,4.79-.38,1-.1,1.94-.15,2.88-.29,1.37-.2,2.75-.22,4.12-.33a33.44,33.44,0,0,1,4.24-.3.91.91,0,0,0,.33-.05c.83-.26,1.7-.16,2.54-.35,1.2-.26,2.43-.36,3.64-.59,2.05-.39,4.08-.83,6.13-1.24a32.94,32.94,0,0,0,6.23-1.74,6.37,6.37,0,0,0,3.19-2.15C286.45,255,286.62,255,286.78,255Z"/><path class="cls-6" d="M203.45,249.37a2.81,2.81,0,0,0-.47.07Z"/><path class="cls-6" d="M261.46,261.25c-.22,0-.42,0-.7.08Z"/><path class="cls-6" d="M285.41,251.89a9.41,9.41,0,0,0-3.24-1.37l.44-.07c-.83.13-2.14-.51-3-.69-1.36-.29-2.74-.52-4.12-.73-2.77-.42-5.56-.71-8.35-1-4.48-.4-9-.68-13.43-.84-3-.1-5.77-.27-8.65-.26h.05l-.66,0c-4.65,0-9.32-.1-14,0-2.91.08-6.06.19-9,.31-3.4.14-6.65.33-9.83.66-.59.06-1.2.13-1.89.17a91.88,91.88,0,0,0-9.23,1.06,50.55,50.55,0,0,0-6.62,1.24,24,24,0,0,0-3.1,1l-.8.36-.41.22-.26.15-.3.21a2.92,2.92,0,0,0-1.4,2.26,3,3,0,0,0,1.27,2.35l.29.22c.1.09.16.11.22.16l.39.25c.26.15.51.29.77.42a24.15,24.15,0,0,0,3,1.24,61.42,61.42,0,0,0,9.81,2.38,23,23,0,0,1,2.68.46,57.59,57.59,0,0,0,6.52,1c3.64.36,7.7.84,11.53,1l.31,0c2.57.85,6.25.28,8.9.29a223,223,0,0,0,22.68-.52c9.64-.93,19.29-1.9,28.08-6.29,1.14-.57,2.36-1.31,2.68-2.53V255A3.18,3.18,0,0,0,285.41,251.89Zm-85.1-2.7-.51.08A3.22,3.22,0,0,1,200.31,249.19Zm56.1,14.56h0Zm6.55-.68c.3-.06.52-.06.76-.09Zm19.55-8.72v0c-.29,1.05-1.41,1.7-2.45,2.18-8,3.79-16.87,4.62-25.69,5.42-7,.63-13.79.48-20.75.45-2.42,0-5.79.48-8.14-.25l-.28,0c-3.51-.16-7.22-.57-10.55-.88a59,59,0,0,1-6-.83c-1.26-.26-1.74-.31-2.45-.4a57.72,57.72,0,0,1-9-2.05,24.31,24.31,0,0,1-2.78-1.06c-.23-.12-.47-.23-.7-.37l-.36-.21-.2-.14-.27-.19a2.55,2.55,0,0,1-1.16-2,2.5,2.5,0,0,1,1.28-1.94l.27-.18.25-.14.37-.18.73-.31a24.59,24.59,0,0,1,2.84-.84,49.22,49.22,0,0,1,6.06-1.06c2.82-.43,5.65-.77,8.44-.92.63,0,1.19-.1,1.73-.15,2.91-.28,5.88-.44,9-.56,2.72-.11,5.6-.2,8.27-.27,4.31-.11,8.58,0,12.83,0l.6,0h0c2.63,0,5.2.14,7.92.23,4,.13,8.18.37,12.28.72,2.55.22,5.11.47,7.64.83,1.26.18,2.52.38,3.77.63a10.9,10.9,0,0,0,2.73.6l-.4,0a8.85,8.85,0,0,1,3,1.19A2.65,2.65,0,0,1,282.51,254.35Z"/><path class="cls-6" d="M256.41,263.75h0Z"/><path class="cls-6" d="M254.73,261.61h0Z"/><path class="cls-5" d="M193.58,256c.12-.07.25-.12.37-.18s.49-.22.73-.31a22.76,22.76,0,0,1,2.84-.84,49.32,49.32,0,0,1,6.06-1.07c2.82-.42,5.65-.77,8.44-.91.63,0,1.19-.1,1.73-.15,2.91-.28,5.88-.45,9-.57,2.72-.1,5.6-.19,8.27-.26,4.31-.11,8.58-.05,12.83,0l.6,0h0c2.63,0,5.2.15,7.92.23,4,.14,8.18.38,12.28.73,2.55.22,5.11.47,7.64.83,1.26.18,2.52.38,3.77.63a10.9,10.9,0,0,0,2.73.6l-.4.05a9.06,9.06,0,0,1,2.9,1.14,2.81,2.81,0,0,0,1.26-1.53v0a2.65,2.65,0,0,0-1.21-2.65,8.85,8.85,0,0,0-3-1.19l.4,0a10.9,10.9,0,0,1-2.73-.6c-1.25-.25-2.51-.45-3.77-.63-2.53-.36-5.09-.61-7.64-.83-4.1-.35-8.24-.59-12.28-.72-2.72-.09-5.29-.24-7.92-.23h0l-.6,0c-4.25,0-8.52-.08-12.83,0-2.67.07-5.55.16-8.27.27-3.11.12-6.08.28-9,.56-.54.05-1.1.12-1.73.15-2.79.15-5.62.49-8.44.92a49.22,49.22,0,0,0-6.06,1.06,24.59,24.59,0,0,0-2.84.84l-.73.31-.37.18-.25.14-.27.18a2.5,2.5,0,0,0-1.28,1.94,2.55,2.55,0,0,0,1.16,2l.27.19h0l.12-.08Z"/><path class="cls-7" d="M193.77,256.57c.23.14.47.25.7.37a24.31,24.31,0,0,0,2.78,1.06,57.72,57.72,0,0,0,9,2.05c.71.09,1.19.14,2.45.4a59,59,0,0,0,6,.83c3.33.31,7,.72,10.55.88l.28,0c2.35.73,5.72.24,8.14.25,7,0,13.8.18,20.75-.45,8.82-.8,17.65-1.63,25.69-5.42a9.15,9.15,0,0,0,1.19-.65,9.06,9.06,0,0,0-2.9-1.14l.4-.05a10.9,10.9,0,0,1-2.73-.6c-1.25-.25-2.51-.45-3.77-.63-2.53-.36-5.09-.61-7.64-.83-4.1-.35-8.24-.59-12.28-.73-2.72-.08-5.29-.23-7.92-.23h0l-.6,0c-4.25,0-8.52-.08-12.83,0-2.67.07-5.55.16-8.27.26-3.11.12-6.08.29-9,.57-.54,0-1.1.11-1.73.15-2.79.14-5.62.49-8.44.91a49.32,49.32,0,0,0-6.06,1.07,22.76,22.76,0,0,0-2.84.84c-.24.09-.48.19-.73.31s-.25.11-.37.18l-.25.14-.12.08.2.13Z"/><path class="cls-8" d="M285.94,290.94c0-.11,0-.22,0-.34,0-.3.06-.6.1-.9-2.49.79-5,1.56-7.53,2.22-3.2.85-6.44,1.58-9.7,2.22-3.88.77-7.78,1.44-11.73,1.93q-7.14.87-14.36,1.13-7.58.27-15.16-.13c-4-.2-8-.55-11.91-1a176.75,176.75,0,0,1-18.19-3.13c-1.88-.42-3.75-.92-5.57-1.52-1.34-.44-2.69-.86-4-1.28,0,1.11.09,2.22.17,3.33.11,1.45.14,2.91.3,4.35.09.82.12,1.64.22,2.46l.18,1.42q6.3,1.59,12.68,2.81c1.93.36,3.86.73,5.81,1,3.58.44,7.16.95,10.78,1.15,2.94.16,5.88.37,8.82.47,2.17.08,4.33.13,6.5.13,2.73,0,5.47,0,8.2-.14q3.24-.12,6.48-.36c1.43-.1,2.87-.24,4.3-.39q4.44-.48,8.85-1.14c2.48-.38,4.95-.78,7.41-1.26q3.38-.68,6.71-1.5c2.66-.65,5.29-1.38,7.91-2.15l2.19-.68c.1-1.09.2-2.19.28-3.29C285.77,294.52,285.85,292.73,285.94,290.94Z"/><path class="cls-8" d="M207.51,282.52a163.39,163.39,0,0,0,18.57,1.88c4.64.13,9.27.13,13.9,0s9.33-.51,14-1,8.95-1.14,13.38-1.93c1.51-.26,3-.56,4.51-.85,3.39-.67,6.76-1.44,10.12-2.24,1.47-.35,2.93-.73,4.4-1.09,0-1.62,0-3.23.05-4.85-1.57.37-3.13.74-4.68,1.15-3.34.88-6.72,1.58-10.11,2.25-1.65.32-3.3.64-4.95.94-2.83.52-5.67,1-8.53,1.41-3.29.45-6.6.79-9.92,1.06-1.68.14-3.37.26-5.06.36-2.46.13-4.92.23-7.39.27s-5,0-7.55-.05c-3.09-.08-6.2-.19-9.28-.52A192.09,192.09,0,0,1,198.63,276c-3.72-.8-7.39-1.78-11-2.92,0,1.66.07,3.33.09,5h0A160.36,160.36,0,0,0,207.51,282.52Z"/><path class="cls-8" d="M284.48,282.45a2.34,2.34,0,0,0-2.44,2.18,2.16,2.16,0,0,0,2.26,2.16,2.23,2.23,0,0,0,2-1c0-.73,0-1.47,0-2.21A2.24,2.24,0,0,0,284.48,282.45Z"/><path class="cls-8" d="M198.45,288.6a2.17,2.17,0,0,0,2.3-2,2.27,2.27,0,0,0-2.05-2.38,2.17,2.17,0,0,0-2.38,2A2.32,2.32,0,0,0,198.45,288.6Z"/><path class="cls-8" d="M274.83,288.62A2.11,2.11,0,0,0,277,286.5a2.29,2.29,0,0,0-2.18-2.28,2.19,2.19,0,0,0-2.16,2.14A2.26,2.26,0,0,0,274.83,288.62Z"/><path class="cls-8" d="M191.19,284.7a2.18,2.18,0,0,0-2.06-2.23,2.14,2.14,0,0,0-1.32.36c0,1.19,0,2.38,0,3.58a2.17,2.17,0,0,0,3.37-1.71Z"/><path class="cls-8" d="M217.56,291.51a2.18,2.18,0,0,0,2.21-2.08,2.25,2.25,0,0,0-2.13-2.33,2.14,2.14,0,0,0-2.2,2.08A2.27,2.27,0,0,0,217.56,291.51Z"/><path class="cls-8" d="M265.17,290.38a2.17,2.17,0,0,0,2.26-2,2.21,2.21,0,0,0-2.11-2.31,2.15,2.15,0,0,0-2.2,2.06A2.23,2.23,0,0,0,265.17,290.38Z"/><path class="cls-8" d="M246.21,292.53a2.16,2.16,0,0,0,2.16-2.12,2.19,2.19,0,0,0-2.1-2.17,2.16,2.16,0,0,0-2.23,2A2.19,2.19,0,0,0,246.21,292.53Z"/><path class="cls-8" d="M208.06,290.39a2.14,2.14,0,0,0,2.17-2.1,2.28,2.28,0,0,0-2.09-2.23,2.17,2.17,0,1,0-.08,4.33Z"/><path class="cls-8" d="M236.61,292.9a2.22,2.22,0,0,0,2.2-2.11,2.17,2.17,0,0,0-2.1-2.19,2.15,2.15,0,0,0-2.17,2.11A2.13,2.13,0,0,0,236.61,292.9Z"/><path class="cls-8" d="M227,292.51a2.13,2.13,0,1,0,.25-4.25,2.13,2.13,0,0,0-2.22,2.07A2.16,2.16,0,0,0,227,292.51Z"/><path class="cls-8" d="M255.58,291.42a2.12,2.12,0,1,0,.25-4.23,2.1,2.1,0,0,0-2.21,2.05A2.13,2.13,0,0,0,255.58,291.42Z"/><path class="cls-9" d="M208.76,123.6l1.67.74a.32.32,0,0,0-.15.41,18.73,18.73,0,0,0,3.19,4.92c.77.86,1.58,1.69,2.36,2.55a15.76,15.76,0,0,1,3.33,5.91c.43,1.37,1,2.7,1.5,4.05a23.84,23.84,0,0,1,1.59,7.95,4.82,4.82,0,0,0,.13,1.31,4.36,4.36,0,0,1,0,2,11.21,11.21,0,0,0-.17,1.91,5.57,5.57,0,0,1-.12,1.07c-.36,1.64-.61,3.3-1.06,4.91a3,3,0,0,0,0,.6,1.79,1.79,0,0,1-1.18.23,17.63,17.63,0,0,0-2.64-2.95c-.49-.47-1-.86-1.54-1.33a32.66,32.66,0,0,1-3.77-4.19c-1-1.45-2.25-2.8-3.35-4.22a12.62,12.62,0,0,0-2.28-2.28,5.64,5.64,0,0,1-2-2.37,8.62,8.62,0,0,0-.43-.86,22.57,22.57,0,0,0-3.92-5.43,24.65,24.65,0,0,1-3.2-3.42c-.27-.39-.61-.74-.88-1.14a12.82,12.82,0,0,0-1.57-1.81.68.68,0,0,1-.13-.87,4.38,4.38,0,0,1,1-1.48,4.23,4.23,0,0,0,1.12-1.55c.17-.4.4-.78.58-1.18a7.23,7.23,0,0,0,.79-3.48c-.05-.79,0-1.6,0-2.4a.88.88,0,0,1,.24-.77c1.91.53,3.83,1,5.74,1.58C205.34,122.54,207.05,123.08,208.76,123.6Z"/><path class="cls-10" d="M311.5,133.57l-1,3.32a3.26,3.26,0,0,0-.24.4c-.37.84-.7,1.7-1.11,2.53a11.5,11.5,0,0,1-2.43,3.4c-.87.82-1.67,1.74-2.6,2.49-1.12.91-2.35,1.67-3.51,2.52-.9.67-1.75,1.4-2.66,2-.66.47-1.21,1-1.85,1.53a23,23,0,0,0-2.56,2.17,31.22,31.22,0,0,0-2.18,2.4c-.78,1-1.61,2-2.32,3-.24.36-.34.82-.71,1.09a.93.93,0,0,0-.65.29,14.26,14.26,0,0,0-2.27,2.63c-.66,1.1-1.4,2.15-2.13,3.2-.58.86-1.18,1.71-1.81,2.54-.77,1-1.56,2-2.36,3a34.22,34.22,0,0,1-2.84,3.41,4.56,4.56,0,0,0-.51.65,6.74,6.74,0,0,1-1.36,1.36,8.27,8.27,0,0,0-.66.51c-.75.66-1.47,1.37-2.26,2a34.11,34.11,0,0,0-3.78,3.33,3.65,3.65,0,0,1-.61.57c-1.15.76-2,1.84-3.08,2.68-.75.58-1.47,1.22-2.23,1.81-1.07.83-2.18,1.62-3.27,2.43-.64.48-1.27,1-1.92,1.43-.33.24-.53.14-.57-.23a3.19,3.19,0,0,1,.36-1.73c1.25-2.47,2.49-4.94,3.69-7.43,1.08-2.24,2.11-4.5,3.17-6.75a25.36,25.36,0,0,1,2.95-4.51c1-1.37,2.16-2.68,3.23-4a32.82,32.82,0,0,1,2.49-2.92c2.36-2.34,4.65-4.76,7.16-6.95l2.71-2.37c.69-.61,1.4-1.2,2-1.87s1.46-1.14,2.09-1.82,1.07-1.08,1.61-1.62a22.54,22.54,0,0,1,3.72-3,26.86,26.86,0,0,0,3.67-2.7c1.15-1,2.19-2.21,3.42-3.19,1-.82,2-1.68,3.11-2.44a35.51,35.51,0,0,1,4-2.38c1.75-.91,3.56-1.68,5.23-2.73a2.7,2.7,0,0,1,.55-.24C311.33,133.38,311.43,133.47,311.5,133.57Z"/><path class="cls-11" d="M303.29,184.87a9.27,9.27,0,0,1,3.58,1.5.78.78,0,0,1-.14.32c-.33.29-.68.56-1,.82a23.86,23.86,0,0,0-4,3.41c-.88,1-1.65,2-2.52,3.05-1.28,1.48-2.53,3-3.93,4.37a7.66,7.66,0,0,0-1,1.18,5.12,5.12,0,0,1-1.29,1.25,6.88,6.88,0,0,0-.82.7c-1.29,1.27-2.58,2.53-3.83,3.84a13.8,13.8,0,0,0-2.13,2.74c-.59,1-1.15,2-1.66,3.06a4.16,4.16,0,0,1-2,2,87,87,0,0,0-7.76,4.1c-2.11,1.31-4.24,2.58-6.36,3.87-.72.44-1.42.9-2.14,1.34a1.07,1.07,0,0,1-.32.16c-.11,0-.26.08-.34,0a.35.35,0,0,1-.12-.42c.43-1.5.8-3,1.28-4.5a23.11,23.11,0,0,1,2-5.15c.8-1.31,1.43-2.69,2.13-4a41.27,41.27,0,0,1,2-3.71,16.41,16.41,0,0,1,3-3.9,27.48,27.48,0,0,0,2.65-2.95,27.22,27.22,0,0,1,3.65-3.63c2-1.61,4.15-3.12,6.31-4.58,1.19-.8,2.42-1.56,3.62-2.36a12.1,12.1,0,0,0,1.71-1.31c.8-.79,1.7-1.45,2.55-2.18a13.13,13.13,0,0,1,2.8.23,4.6,4.6,0,0,0,1.05,0h0a1.42,1.42,0,0,0,1.21.26h0a1,1,0,0,0,1,.22h0A1,1,0,0,0,303.29,184.87Z"/><path class="cls-9" d="M264.91,130.61a4.06,4.06,0,0,0,1.17-.8c1.88-1.67,3.71-3.41,5.7-5a16,16,0,0,1,3.28-2.17,13.83,13.83,0,0,0,0,1.44,11,11,0,0,1-.32,2.86,4.69,4.69,0,0,1-.94,2.18,9,9,0,0,0-1.4,2.23,8.38,8.38,0,0,0-.5,3.18,9.07,9.07,0,0,0,2.18,6.08c.35.39.67.8,1,1.22a8.31,8.31,0,0,1,1.3,2.42,1.87,1.87,0,0,1-.22,1.72,20.79,20.79,0,0,1-1.43,1.92c-1.55,1.74-2.92,3.61-4.36,5.43s-2.84,4-4.19,6a94.32,94.32,0,0,0-5.57,9.83l0,.45a.84.84,0,0,0-.47.76h0a.76.76,0,0,0-.47.73c-.46.35-.5.36-.63-.07a11,11,0,0,0-1.06-2.55c-1.07-1.78-1.19-3.8-1.44-5.77a12.08,12.08,0,0,0-.19-1.79,2.64,2.64,0,0,1,0-1.31,11.14,11.14,0,0,0,.19-2.63,9.72,9.72,0,0,1,.07-1.8,7.8,7.8,0,0,0,.16-1.79c0-.73.05-1.45,0-2.17a6.69,6.69,0,0,1,.6-3.16,15.66,15.66,0,0,0,1-3.21,7.71,7.71,0,0,0,0-2.75,13.55,13.55,0,0,1-.15-1.55c0-.44,0-.88-.06-1.32a2.11,2.11,0,0,1,.63-1.38c.54-.64,1.1-1.26,1.62-1.91a49.16,49.16,0,0,1,3.91-4.37c.23-.22.45-.45.67-.68A.21.21,0,0,0,264.91,130.61Z"/><path class="cls-9" d="M323,110.87a2.23,2.23,0,0,1,.66,2.49,18.18,18.18,0,0,1-2.38,5.74,7.93,7.93,0,0,1-4.69,3.53c-.65.19-1.31.37-2,.52a5.09,5.09,0,0,0-3.27,2.25,17.68,17.68,0,0,1-2.64,3.27,30.25,30.25,0,0,1-3.57,2.84c-.83.58-1.67,1.11-2.51,1.67-.23.15-.5.26-.58.56a6.94,6.94,0,0,0-.9.34c-.45.24-.88.53-1.34.78a30.89,30.89,0,0,1-5.4,2.28,21.58,21.58,0,0,0-4.11,1.63c-1.33.73-2.55,1.64-3.81,2.47a1.9,1.9,0,0,0-.38.46,1.18,1.18,0,0,0-1,.73,5.63,5.63,0,0,0-1.1.72c-.72.57-1.39,1.2-2.08,1.81-1,.93-2.17,1.77-3.16,2.75-2,2-4.12,3.92-5.93,6.12-.71.87-1.54,1.63-2.27,2.48-1.08,1.28-2.11,2.61-3.11,3.95a7.44,7.44,0,0,0-1.4,1.94c-.42.18-.52.61-.73,1l-.48.25a1.38,1.38,0,0,1,.27-.89,110.76,110.76,0,0,1,7.69-11c1.58-2,3.3-3.91,4.78-6,1.37-1.92,2.82-3.78,4.25-5.66a31.2,31.2,0,0,1,3.54-4.08l2.55-2.37a44,44,0,0,0,3.69-3.79c1.31-1.51,2.81-2.86,4.21-4.29a28.29,28.29,0,0,1,4.48-3.62c.73-.49,1.5-.92,2.23-1.42,1.62-1.1,3.28-2.15,4.87-3.3a27.7,27.7,0,0,1,3.21-1.87c2.34-1.24,4.7-2.45,7.05-3.67a3.19,3.19,0,0,0,.47-.35,13.79,13.79,0,0,1,2.48.17,9.51,9.51,0,0,0,2,0C322.92,111.28,323,111.06,323,110.87Z"/><path class="cls-9" d="M275.77,122.18a1.42,1.42,0,0,1,.73-.7.31.31,0,0,0,.41.13c.44-.18.89-.37,1.32-.57a99,99,0,0,1,9.86-3.82c2.5-.85,5-1.59,7.5-2.57a17.32,17.32,0,0,1,7.45-.89,7.16,7.16,0,0,0,4.58-.48c.9-.33,1.79-.68,2.7-1a19,19,0,0,1,4.26-1.21l1.72,0a1.18,1.18,0,0,1-.26.24c-1.27.68-2.54,1.36-3.82,2-.86.45-1.73.86-2.58,1.31a31.4,31.4,0,0,0-3.16,2c-1.63,1.15-3.32,2.23-5,3.31a33,33,0,0,0-5.82,4.43c-1.88,1.91-3.86,3.73-5.6,5.79a24.64,24.64,0,0,1-3,2.91c-1.08.88-2,2-3,2.94a14.29,14.29,0,0,0-1.07,1.13c-1.26,1.61-2.49,3.24-3.72,4.86l-1.37,1.83c-.12.15-.23.37-.45.36s-.29-.26-.33-.43a6.62,6.62,0,0,0-1.17-2.23c-.42-.58-.91-1.11-1.36-1.67A7.44,7.44,0,0,1,272.9,136a21.77,21.77,0,0,1,0-3.13,2.87,2.87,0,0,1,.16-.69,7.44,7.44,0,0,1,1.56-2.68,4.84,4.84,0,0,0,.81-1.6,7.35,7.35,0,0,0,.37-2.24,3.45,3.45,0,0,1,.12-1.19,6,6,0,0,0,.06-2C276,122.37,275.83,122.28,275.77,122.18Z"/><path class="cls-11" d="M249,78a16.28,16.28,0,0,1,3.85-3.83,2.13,2.13,0,0,1,.64,1,14.44,14.44,0,0,0,2.28,3.5,7,7,0,0,1,.87,1.15,2,2,0,0,1,.39,2,5.28,5.28,0,0,0-.19.93,9.71,9.71,0,0,0-.28,4,23.08,23.08,0,0,1,.19,2.74,2.9,2.9,0,0,0,.06.84,5.35,5.35,0,0,1,.18,1.78,24.81,24.81,0,0,0,.23,5,3.85,3.85,0,0,1,0,.48,13.84,13.84,0,0,0,.23,3.58,1.43,1.43,0,0,1,0,.36,16.77,16.77,0,0,0,.41,3.08c.16.94.38,1.87.58,2.8a2.21,2.21,0,0,1-.43,1.23c-1,1.76-2.09,3.49-3,5.33a8.67,8.67,0,0,1-.49,1,23.56,23.56,0,0,0-2.05,4.19c-.38.83-.56,1.75-.95,2.59a3.79,3.79,0,0,0-.11.7,16.63,16.63,0,0,1-1,3.81c-.38-.14-.49-.51-.65-.82a26.57,26.57,0,0,1-2.48-6.86,21.78,21.78,0,0,1-.74-5,.81.81,0,0,0,0-.35,5.34,5.34,0,0,1-.2-2c0-1.41,0-2.81,0-4.22a9.76,9.76,0,0,0-.14-1.42,13.18,13.18,0,0,1,0-3.71c.08-.6.13-1.19.16-1.79a24.11,24.11,0,0,1,.23-5,2.17,2.17,0,0,0,0-.36,30.26,30.26,0,0,1,.24-5.63,8.49,8.49,0,0,1,.31-2.61c.37-2,.91-4,1.33-6.07A9.79,9.79,0,0,0,249,78Z"/><path class="cls-12" d="M208.76,123.6c-1.71-.52-3.42-1.06-5.13-1.56-1.91-.55-3.83-1.05-5.74-1.58-.34-.34-.87-.16-1.23-.43a1,1,0,0,1-.24,0,46.26,46.26,0,0,0-8.58-1.64c-1.39-.16-2.78-.29-4.16-.49a21.29,21.29,0,0,1-9.55-3.63l-.6-.4a10.76,10.76,0,0,0-3.37-1.55c-.26-.33-.63-.21-1-.24h-1.78a.76.76,0,0,0-.64.22,6.41,6.41,0,0,0-2.25.78,31.6,31.6,0,0,1-3.73,1.62,5.69,5.69,0,0,1-1.88.3,2.55,2.55,0,0,1-2.57-1.76,7.08,7.08,0,0,1,3.42-5.77,47.11,47.11,0,0,0,4.09-2.75,8.08,8.08,0,0,1,6-1.75c1.6.13,3.2.31,4.78.56a35.11,35.11,0,0,1,8.25,2.57,101.58,101.58,0,0,1,11.19,5.6,66.18,66.18,0,0,1,11.83,9.06A29.1,29.1,0,0,1,208.76,123.6Z"/><path class="cls-10" d="M250.45,126.28a16.63,16.63,0,0,0,1-3.81,3.79,3.79,0,0,1,.11-.7c.39-.84.57-1.76.95-2.59a23.56,23.56,0,0,1,2.05-4.19,8.67,8.67,0,0,0,.49-1c.9-1.84,2-3.57,3-5.33a2.21,2.21,0,0,0,.43-1.23.64.64,0,0,0,.48-.29c.46-.63.95-1.25,1.43-1.88a33.08,33.08,0,0,0,2.44-4.4,18,18,0,0,0,1.68-5.46c.13-.75.19-1.5.28-2.25.12-1,.27-2,.41-3.07a3.64,3.64,0,0,1,.19-1.18.86.86,0,0,0-.17-1,19.81,19.81,0,0,0,1.12-3.76,30.53,30.53,0,0,1,1.92-5.67,23.57,23.57,0,0,1,3.2-5.19A14.1,14.1,0,0,1,273.63,71a29.87,29.87,0,0,1,3.87-2.62,2.58,2.58,0,0,0,1.14-.85,2.52,2.52,0,0,0,.93-.21c.87-.28,1.76-.53,2.66-.76a3.34,3.34,0,0,1,.95-.1,1.31,1.31,0,0,1,1.29,1.32,2.79,2.79,0,0,1-.49,1.7c-2.56,3.56-5.09,7.13-7.66,10.68a104.53,104.53,0,0,0-10.65,17.74,45.46,45.46,0,0,1-3.4,6q-1.35,2.07-2.8,4.08c-.35.48-.64,1-1,1.53-1.41,2.39-2.74,4.81-4,7.29a32,32,0,0,0-1.74,4.09,17.92,17.92,0,0,0-.7,2.8,15.66,15.66,0,0,1-1.75,5.35,44.61,44.61,0,0,0-2.23,4.81c-.08.2-.09.39.17.48a2.28,2.28,0,0,0-.87,1.23,63.12,63.12,0,0,0-2.22,8.22,17.48,17.48,0,0,0-.54,4.39c.07,1.21,0,2.41,0,3.62,0,.49.16.95.17,1.42s-.2.93-.17,1.42a7.09,7.09,0,0,1-1.19,4,.57.57,0,0,1-.49.3c-.07-.09-.2-.19-.2-.28a13.81,13.81,0,0,0-.29-2.13,24,24,0,0,0-1-4.43,32.23,32.23,0,0,0-2.62-5.77,1.45,1.45,0,0,1-.28-.65l.24-.73v-.49h0a4.9,4.9,0,0,0,1-1.48l1.71-3.42a2.72,2.72,0,0,0,0-2.83,32.61,32.61,0,0,1-2.68-7.26,5.25,5.25,0,0,0-.71-1.87,2.27,2.27,0,0,1,.47-1.22c.38.27.27.73.4,1.09.45,1.28.88,2.57,1.2,3.88a26.55,26.55,0,0,0,1.16,3.39,20.29,20.29,0,0,0,1,2,.29.29,0,0,0,.5,0,24,24,0,0,1,2.5-3.18,3.92,3.92,0,0,0,1.32-1.81,1.46,1.46,0,0,0,.28-.21,35.84,35.84,0,0,0,2.37-3.24,2,2,0,0,0,.33-1.22A.67.67,0,0,0,250.45,126.28Z"/><path class="cls-9" d="M156.34,113.21a2.55,2.55,0,0,0,2.57,1.76,5.69,5.69,0,0,0,1.88-.3,31.6,31.6,0,0,0,3.73-1.62,6.41,6.41,0,0,1,2.25-.78,1.19,1.19,0,0,1,1,.38c.27.3.58.56.83.87a22.52,22.52,0,0,0,5.34,5c.94.61,1.93,1.15,2.87,1.76a34,34,0,0,1,4.23,3.53,37.35,37.35,0,0,0,4.31,3.44c2,1.3,4,2.54,6,3.83a16.63,16.63,0,0,1,4.08,3.86c.78,1,1.62,2,2.45,3a4.53,4.53,0,0,0,.81.7,4,4,0,0,1,.94.93,7.68,7.68,0,0,0,.69.82,19.2,19.2,0,0,1,2.34,3.33,1.42,1.42,0,0,1,.12.46v0a3.19,3.19,0,0,1-1.42-.85,29.79,29.79,0,0,0-2.84-2c-1.14-.72-2.32-1.41-3.41-2.23a18.89,18.89,0,0,0-3.9-2.37c-.88-.38-1.77-.75-2.67-1.09-1.2-.45-2.39-.94-3.62-1.28-2.74-.76-5.48-1.52-8.17-2.42a19.39,19.39,0,0,1-3.91-1.84,2.87,2.87,0,0,0-1.42-.61h0a.45.45,0,0,0-.35-.25,24.44,24.44,0,0,1-3-2.91c-.53-.55-1-1.12-1.6-1.63a10.06,10.06,0,0,0-2.91-1.89c-.59-.25-1.17-.52-1.75-.8a9.38,9.38,0,0,1-5.34-7.09A2.59,2.59,0,0,1,156.34,113.21Z"/><path class="cls-10" d="M188.48,181l-.25-1c.05-.19.07-.45.35-.38a8.45,8.45,0,0,1,3.25,1.49,15.38,15.38,0,0,0,2.75,1.71l5.6,2.8a25.29,25.29,0,0,0,7.17,2.32,2.6,2.6,0,0,1,1.87,1.12c.11.17.21.34.33.51,2.22,3.14,4,6.53,6,9.85a53.88,53.88,0,0,0,5,7.2c.32.39.58.83.92,1.31a1.8,1.8,0,0,1-.59,0,9.8,9.8,0,0,0-2.86-.23,1.63,1.63,0,0,1-.59-.05,4.32,4.32,0,0,0-1.67-.18,3.91,3.91,0,0,1-.84,0c-1.28-.32-2.59-.42-3.86-.83a14.78,14.78,0,0,0-3.49-.82,3.48,3.48,0,0,1-.39-.28c-1.17-1.16-2.35-2.31-3.49-3.5s-2.55-2.19-3.7-3.43c-1.52-1.66-3.23-3.12-4.65-4.88-.78-1-1.57-1.92-2.26-2.95a35.47,35.47,0,0,1-4-8.31C188.83,182,188.66,181.52,188.48,181Z"/><path class="cls-13" d="M224.38,132.15a2,2,0,0,1-.24-1,.24.24,0,0,0-.1-.28q-1-3.75-2-7.5a9.43,9.43,0,0,0,1.56-2.25,25.41,25.41,0,0,0,2.25-5.94,26.59,26.59,0,0,0,.75-3.88c.07-.67.26-.78,1-1,1.45-.39,3,0,4.4-.44a12.91,12.91,0,0,0,3-.26,5.82,5.82,0,0,0,2.65-1.06,5.92,5.92,0,0,0,2-2.78,8.42,8.42,0,0,1,1.48-2.6c1-1.15,1-1.14,1.62.18.07.14.15.28.21.43a15.39,15.39,0,0,1,1.21,5c.09,1.12,0,2.25,0,3.37a1.6,1.6,0,0,1-.54,1.27c-.9.87-1.77,1.76-2.65,2.64a23.79,23.79,0,0,0-2.34,2.57,18.41,18.41,0,0,0-3.07,6.07c-.29,1-.58,2-.94,3a15.12,15.12,0,0,1-5.1,7.12,1,1,0,0,0-.57.87c-1.09-.75-2.12-1.56-3.23-2.27C225.25,133.09,224.57,132.86,224.38,132.15Z"/><path class="cls-10" d="M296.28,183.87c-.85.73-1.75,1.39-2.55,2.18a12.1,12.1,0,0,1-1.71,1.31c-1.2.8-2.43,1.56-3.62,2.36-2.16,1.46-4.27,3-6.31,4.58a27.22,27.22,0,0,0-3.65,3.63,27.48,27.48,0,0,1-2.65,2.95,16.41,16.41,0,0,0-3,3.9,41.27,41.27,0,0,0-2,3.71c-.7,1.36-1.33,2.74-2.13,4a23.11,23.11,0,0,0-2,5.15c-.48,1.48-.85,3-1.28,4.5a.35.35,0,0,0,.12.42c.08,0,.23,0,.34,0a1.07,1.07,0,0,0,.32-.16c.72-.44,1.42-.9,2.14-1.34,2.12-1.29,4.25-2.56,6.36-3.87a87,87,0,0,1,7.76-4.1,4.16,4.16,0,0,0,2-2c.51-1,1.07-2.06,1.66-3.06a13.8,13.8,0,0,1,2.13-2.74c1.25-1.31,2.54-2.57,3.83-3.84a6.88,6.88,0,0,1,.82-.7,5.12,5.12,0,0,0,1.29-1.25,7.66,7.66,0,0,1,1-1.18c1.4-1.38,2.65-2.89,3.93-4.37.87-1,1.64-2.08,2.52-3.05a23.86,23.86,0,0,1,4-3.41c.35-.26.7-.53,1-.82a.78.78,0,0,0,.14-.32,2.27,2.27,0,0,1,1,.87,1.66,1.66,0,0,0-1,.35c-.52.43-1.08.82-1.63,1.22a20.38,20.38,0,0,0-3.59,3.35c-.92,1.05-1.68,2.24-2.63,3.25-1.22,1.27-2.31,2.65-3.58,3.88-2.16,2.09-4.25,4.25-6.39,6.36a20.26,20.26,0,0,0-1.82,2.22,24.88,24.88,0,0,0-2.11,3.77c-.11,0-.13.07-.05.09s0-.06.05-.1a2.38,2.38,0,0,0,.95-.11c3.13-1.18,6.29-2.32,9.41-3.54,2.27-.89,4.48-1.91,6.74-2.83,1.15-.47,2.23-1.11,3.38-1.55a45.11,45.11,0,0,0,4.26-2.2c1.27-.66,2.52-1.37,3.86-1.92a4,4,0,0,0,1.55-.87,1.9,1.9,0,0,1,.45,1.21,3.17,3.17,0,0,0-1.73.41c-1.37.66-2.77,1.28-4.08,2.05a81.12,81.12,0,0,1-7.54,3.72c-1.37.64-2.8,1.17-4.19,1.77-.21.09-.47.14-.55.42a16,16,0,0,0,4.62.56c.8,0,1.61,0,2.41,0a13.18,13.18,0,0,0,4.23-.67c.54-.15,1.08-.31,1.62-.44a1.45,1.45,0,0,1,1.37.1,3,3,0,0,1-.69,1,.65.65,0,0,0-.51-.27,2.78,2.78,0,0,0-.94.2,12.6,12.6,0,0,1-4.34.77,2,2,0,0,0-.6.07,6.22,6.22,0,0,1-3,0,3,3,0,0,0-.95-.07,9.82,9.82,0,0,1-2.86-.33,6.61,6.61,0,0,0-3.66.17c-2.4.89-4.82,1.73-7.21,2.67a14.6,14.6,0,0,0-3.72,1.66.86.86,0,0,1-.44.15,3.46,3.46,0,0,0-1.22.5c-1,.54-2,1.13-3.07,1.63-2.5,1.2-4.8,2.74-7.18,4.15-1.48.87-2.93,1.81-4.38,2.73-.23.14-.69.19-.6.48s.46,0,.7,0a27,27,0,0,0,3.07-.53,18.62,18.62,0,0,0,4.25-1.23,25.44,25.44,0,0,1,6.06-1.86c1.86-.28,3.69-.7,5.51-1.16,3.06-.77,6.1-1.61,9.16-2.39a36.23,36.23,0,0,0,4.46-1.44,49.49,49.49,0,0,1,5-1.61,20.49,20.49,0,0,0,4.32-1.44,1.45,1.45,0,0,1,.93-.18,2.18,2.18,0,0,1-.64,1.18,2.72,2.72,0,0,0-.71.07,46,46,0,0,1-5.63,1.66,9.85,9.85,0,0,0-2.26.81,6,6,0,0,1-.77.34c-2.15.76-4.34,1.39-6.55,2-1.74.45-3.5.83-5.22,1.35a68.07,68.07,0,0,1-7.58,1.72,30.58,30.58,0,0,0-4.83,1.35c-.45.16-.86.45-1.32.6-1.18.37-1,.58-.31,1.3a3.65,3.65,0,0,0,1.62,1,5,5,0,0,0,2.49.06,4.39,4.39,0,0,1,1.19-.13,9.66,9.66,0,0,0,3.87-.66,7.18,7.18,0,0,1,2.93-.56,1.1,1.1,0,0,0,.48,0,8.27,8.27,0,0,1,2.62-.2.67.67,0,0,1,.55.21,3.75,3.75,0,0,1-1.24.75A14.26,14.26,0,0,0,283,225a11.38,11.38,0,0,1-3.28.6c-1.09,0-2.17,0-3.26,0a2.23,2.23,0,0,1-.82-.11,5.28,5.28,0,0,1-2.12-1.32c-.16-.19-.35-.34-.51-.52a1.13,1.13,0,0,0-1.29-.37,12.66,12.66,0,0,1-1.75.38c-1.49.26-3,.45-4.47.79a5.49,5.49,0,0,0-2,.82c-1.15.86-2.25,1.79-3.42,2.63-.65.47-1.21,1-1.84,1.54-.84.67-1.69,1.34-2.47,2.09-1.3,1.24-2.56,2.55-3.84,3.82-.28.28-.51.64-1,.62-.24,0-.48,0-.72,0a8.72,8.72,0,0,0-4,.67,13.06,13.06,0,0,1-3.23.87,14.75,14.75,0,0,1-4.3,0,3.63,3.63,0,0,0-1.43,0,7.78,7.78,0,0,1-2,.17,3.74,3.74,0,0,0-1.41.29.63.63,0,0,0-.45.75c0,.36.17.71.19,1.06a60.06,60.06,0,0,1-.25,7s0,.07,0,.11c-.14.82-.14.76.65.75,1.72,0,3.45,0,5.18,0h.12a10.51,10.51,0,0,0,2.62.22,7.12,7.12,0,0,0,4-1.14,33.38,33.38,0,0,0,5.2-3.66,5.11,5.11,0,0,1,2.3-1.24c.35.27.21.65.21,1a1.52,1.52,0,0,0-1.23.39c-1,.71-1.94,1.42-2.88,2.16a19.57,19.57,0,0,1-4.74,2.81,6.46,6.46,0,0,1-3.75.55,6.88,6.88,0,0,0-1.43-.15l-5.3,0a5.92,5.92,0,0,0-.84.05.58.58,0,0,0-.49.47c-.07.31-.09.63-.18.94-.47,1.78-1,3.55-1.45,5.33a2.69,2.69,0,0,0-.15,1.18c.66-.14,1.24-.28,1.82-.38,1.62-.28,3.23-.59,4.85-.8a22.71,22.71,0,0,0,4.1-.81c.19-.06.39-.13.58-.17,1-.21,2-.39,2.93-.62s2.09-.54,3.13-.81c0,.51-.46.79-.69,1.18-.24,0-.48.05-.71.1-.5.11-1,.3-1.51.36a24.65,24.65,0,0,0-3.72.81,27.43,27.43,0,0,1-3.26.72c-.86.13-1.73.13-2.59.34-1.12.28-2.28.37-3.41.58a5.41,5.41,0,0,0-1.71.49l-.49,0-.73-.93a.44.44,0,0,0,.12-.53,17.2,17.2,0,0,0-2.15-4.81,18.16,18.16,0,0,1-2.07-4.19,5.81,5.81,0,0,0-.9-1.68,32.27,32.27,0,0,0-3.05-3.24.81.81,0,0,0-.64-.28h0c0-.37,0-.37-.25-.25a4.93,4.93,0,0,1-.71-2.17,1.53,1.53,0,0,1,.3.19c1.36,1.36,2.77,2.69,4.07,4.11a8.28,8.28,0,0,1,2.19,3.68,5.94,5.94,0,0,0,.8,1.87c.34.55.72,1.07,1,1.64a13.28,13.28,0,0,1,1.21,2.34,10.35,10.35,0,0,0,.58,1.32.29.29,0,0,0,.16.15c.15,0,.21-.08.26-.19s.05-.16.07-.23c.45-1.67.92-3.32,1.34-5a2.55,2.55,0,0,0-.1-1.54c-.31-.74-.55-1.51-.9-2.23a8.65,8.65,0,0,0-1.53-2.29,24,24,0,0,0-3.23-3.07,4.6,4.6,0,0,1-.94-.93,25.48,25.48,0,0,1-2.38-3.6c-.63-1.21-1.3-2.4-2-3.56-1.63-2.62-3.63-5-5.47-7.46a4.3,4.3,0,0,0-.7-.64c-.11-.31-.23-.62-.34-.94,0-.12,0-.25,0-.38l.5.11c.39.71,1.1,1.15,1.55,1.82.79,1.16,1.7,2.23,2.53,3.36a42.84,42.84,0,0,1,4.07,6.24c.51,1,1.13,2,1.74,3a9,9,0,0,0,2,2.37,28,28,0,0,1,2.65,2.45,9.7,9.7,0,0,1,2,2.81c.16.33.33.65.49,1,.06.11.16.21.27.15a.44.44,0,0,0,.2-.28,5.92,5.92,0,0,0,0-.84c0-1.45,0-2.9,0-4.34a14.83,14.83,0,0,0-.51-4,12.91,12.91,0,0,0-3.66-6.64,1.29,1.29,0,0,1-.28-.38s.06-.13.1-.19l.71,0a9.67,9.67,0,0,1,2.87,3.91,19.1,19.1,0,0,1,1.16,3.39c.17.66.31.73.93.56a11,11,0,0,1,3.32-.4c.84,0,1.68,0,2.52,0a23.83,23.83,0,0,0,3.59-.08,22.28,22.28,0,0,0,3.31-1,9.44,9.44,0,0,1,2.68-.58.52.52,0,0,0,.4-.24c.26.11.46.13.45-.26a13,13,0,0,1,.88-4.9c.35-.94.62-1.9,1-2.84a4.92,4.92,0,0,0,.32-2.11,1.7,1.7,0,0,1,.95-.25,8.18,8.18,0,0,1-.51,2.69c-.33,1.11-.73,2.21-1.12,3.3a24.27,24.27,0,0,0-.75,3.87.55.55,0,0,0,.1.55c.2.06.3-.09.41-.2,1.68-1.61,3.22-3.36,5.05-4.81.72-.57,1.36-1.24,2.08-1.8q2.48-1.9,5-3.74a1.55,1.55,0,0,0,.69-.92c.28-1,.62-2.07.9-3.11a50.43,50.43,0,0,1,2.43-7.4,1.78,1.78,0,0,0,0-1.72c-.71-1.3-1.39-2.62-2.13-3.9a7,7,0,0,1-.6-1.31,10.15,10.15,0,0,1-.63-3.27A.69.69,0,0,0,264,202c-.07-.43.23-.79.24-1.21a.51.51,0,0,1,.47-.25,2.28,2.28,0,0,1,.23.68c0,.8.17,1.59.24,2.38a7.35,7.35,0,0,0,.94,3.07c.74,1.29,1.39,2.63,2.07,3.94.08.15.1.41.49.35.39-.77.82-1.58,1.21-2.41a50.78,50.78,0,0,1,2.9-5.26,16.63,16.63,0,0,1,3-3.57,1.35,1.35,0,0,0,.4-1.52,29.22,29.22,0,0,0-1-3,5.37,5.37,0,0,1-.62-2.18,23.5,23.5,0,0,1,.21-5,2.89,2.89,0,0,0,0-.72l0-.28,1.19-.18a3,3,0,0,0-.48,1.82,4.27,4.27,0,0,1-.15,1.42,5,5,0,0,0,0,2,11,11,0,0,0,.92,3.56,6.92,6.92,0,0,1,.25.92,3.44,3.44,0,0,0,.63,1.45,7.88,7.88,0,0,0,.87-.86,18.36,18.36,0,0,1,3.64-3.62c.54-.4,1.06-.84,1.62-1.22a1,1,0,0,0,.45-.91,4.64,4.64,0,0,0-.38-1.74,8.64,8.64,0,0,1-.58-3.76c0-.12,0-.24,0-.36a1,1,0,0,1,.73-.21l.28.06a7.4,7.4,0,0,1-.17.94,1.63,1.63,0,0,0,0,.95,24,24,0,0,0,.6,2.32,3.4,3.4,0,0,1,.32,1.27c0,.4.27.5.55.26a34.36,34.36,0,0,1,4.24-2.93,20.83,20.83,0,0,0,4.42-3.29,5.41,5.41,0,0,1,.75-.59,1.67,1.67,0,0,0,.58-.6A1.82,1.82,0,0,1,296.28,183.87Z"/><path class="cls-13" d="M221.72,122.18a13.29,13.29,0,0,1-.76-2.39Q219,113,217,106.26a5.54,5.54,0,0,1-.12-.71l.45-.55a8.06,8.06,0,0,0,1.7-4.66,15.79,15.79,0,0,0-.37-5.12,11.45,11.45,0,0,1-.3-2.74,34.73,34.73,0,0,1,.16-4.55,11.62,11.62,0,0,0-.59-5.68c-.42-1.08-.74-2.2-1.09-3.31a7.93,7.93,0,0,1-.14-4.24.27.27,0,0,1,.39-.12c.11.12.2.25.3.37a20.2,20.2,0,0,0,3.3,3.3c1.17.9,2.34,1.81,3.55,2.66a8.46,8.46,0,0,0,2.18,1.45l.54.53c-.2,0-.4.13-.4.36a14.44,14.44,0,0,0,.12,3.35c.17.7.23,1.42.35,2.13.16,1,.3,2,.5,3,.16.78.4,1.54.59,2.32a20.65,20.65,0,0,1,.6,4.5c0,1.13-.31,2.22-.29,3.34,0,.12-.07.23-.09.35a30.38,30.38,0,0,1-1.6,4.89,16.28,16.28,0,0,0-1,3.21c-.18,1.18-.44,2.35-.69,3.52a30,30,0,0,1-2.08,6.25A8.76,8.76,0,0,1,221.72,122.18Z"/><path class="cls-14" d="M243,158.83a.57.57,0,0,0,.49-.3,7.09,7.09,0,0,0,1.19-4c0-.49.19-.95.17-1.42s-.17-.93-.17-1.42c0-1.21.05-2.41,0-3.62a17.48,17.48,0,0,1,.54-4.39,63.12,63.12,0,0,1,2.22-8.22,2.28,2.28,0,0,1,.87-1.23,11.7,11.7,0,0,1,4.44-1.71c1.37-.28,2.76-.46,4.14-.69,1.74-.29,3.47-.59,5.21-.87.94-.15,1.9-.26,2.85-.38a.21.21,0,0,1,0,.31c-.22.23-.44.46-.67.68a49.16,49.16,0,0,0-3.91,4.37c-.52.65-1.08,1.27-1.62,1.91a2.11,2.11,0,0,0-.63,1.38,1.15,1.15,0,0,0-.92,1,2.13,2.13,0,0,0-.34.33,30,30,0,0,0-3.75,8.69c-.58,2.25-.81,4.56-1.2,6.84a24.5,24.5,0,0,1-1.34,5.11,52.92,52.92,0,0,1-2.34,5,2.52,2.52,0,0,1-.92,1.07h-.47a1.44,1.44,0,0,0-.72-.49,2.33,2.33,0,0,0-.41-.42c-.77-.49-1.56-1-2.35-1.43a1.26,1.26,0,0,1-.61-.55,22,22,0,0,0,.22-4.13C243,159.78,243,159.31,243,158.83Z"/><path class="cls-10" d="M156,179.82a.38.38,0,0,1,0-.47,2.08,2.08,0,0,1,1.34.2c.06,0,.11.14.17.16,1.13.28,2.24.58,3.38.82a24,24,0,0,0,3.18.54c.87.06,1.73.29,2.59.42,1.26.19,2.54.31,3.79.56a19.37,19.37,0,0,1,4.29,1.51,28.94,28.94,0,0,1,3.86,2.21,2.62,2.62,0,0,0,1.18.55.2.2,0,0,0,0,.08l.06,0-.1-.1a1.49,1.49,0,0,0-.35-.89,10.45,10.45,0,0,1-.87-1.57c-.24-.46-.5-.92-.7-1.4a2.62,2.62,0,0,0-1.49-1.48c-.52-.21-1-.49-1.52-.74l-3.1-1.56a1.71,1.71,0,0,1-1-1,1.41,1.41,0,0,1,1.41.23,45.37,45.37,0,0,0,4.85,2.38c.06,0,.15,0,.24,0a1.22,1.22,0,0,0,0-1,5.28,5.28,0,0,1-.31-.78.31.31,0,0,1,.32-.4,1.59,1.59,0,0,1,1.13.19c-.21.08-.5.11-.42.45.12.55.29,1.09.38,1.64a11,11,0,0,0,1.62,4.22,7.06,7.06,0,0,0,1,1.51,16.51,16.51,0,0,0,2.71,2.37,11.38,11.38,0,0,1,1.7,1.32c1.3,1.19,2.58,2.4,3.86,3.61a4.76,4.76,0,0,0,.95.72,26,26,0,0,1,3,2c.94.73,1.87,1.49,2.83,2.21,2,1.52,4.07,3,6,4.53s3.86,3.1,5.86,4.57c.5.37.9.94,1.59,1a.2.2,0,0,0,0,.08s0,0,.06,0l-.1-.1a1,1,0,0,0-.36-.72,2.35,2.35,0,0,1-.6-.73,13.23,13.23,0,0,1,2.92.63,22.91,22.91,0,0,0,6.16.81,14.8,14.8,0,0,1,4,.56,2.94,2.94,0,0,1,1.43.83c1.36,1.36,2.5,2.93,3.94,4.22a.93.93,0,0,1,.16.18,32.68,32.68,0,0,0,3.38,3.58,1.1,1.1,0,0,0,.88.3,2.86,2.86,0,0,0,.57.91,19,19,0,0,0,1.5,1.18c1.88,1.28,3.78,2.54,5.68,3.79a1.57,1.57,0,0,0,.45.13c.07.1.18.19.2.29q.25,1.47.48,2.94a.45.45,0,0,1-.2.41c-.64-.23-1.27-.48-1.92-.7-3.68-1.26-7.42-2.32-11.16-3.37a59.84,59.84,0,0,1-9.18-3.59,1.31,1.31,0,0,1-.73-.6,1,1,0,0,0-.24-.65q-1.4-2.15-2.8-4.28c-.22-.33-.49-.62-.74-.93a4.67,4.67,0,0,0-1.73-2.4c-1-.66-1.88-1.35-2.8-2-1.83-1.36-3.68-2.7-5.45-4.13s-3.39-2.67-5.13-3.94c-1.06-.78-2.13-1.56-3.15-2.4a41.4,41.4,0,0,0-4.41-3.29c-2.14-1.34-4.25-2.72-6.29-4.21-.64-.47-1.3-.92-1.91-1.45-.84-.74-1.7-1.45-2.59-2.12a28,28,0,0,0-6-3.59,20.49,20.49,0,0,0-2.59-1,66.7,66.7,0,0,0-6.71-1.15c-1.06-.18-2.14-.26-3.19-.49a.57.57,0,0,0-.64.21c-.72-.25-1.39-.6-2.09-.9a5.57,5.57,0,0,0-2.48-.79l0,0Z"/><path class="cls-12" d="M314.58,111.06a19,19,0,0,0-4.26,1.21c-.91.33-1.8.68-2.7,1a7.16,7.16,0,0,1-4.58.48,17.32,17.32,0,0,0-7.45.89c-2.46,1-5,1.72-7.5,2.57a99,99,0,0,0-9.86,3.82c-.43.2-.88.39-1.32.57a.31.31,0,0,1-.41-.13c.47-.44.93-.89,1.41-1.31a131.66,131.66,0,0,1,12.12-9.7c2.37-1.64,4.83-3.15,7.34-4.59a30.51,30.51,0,0,1,11.38-3.64,9.83,9.83,0,0,1,6.36,1.34,20.86,20.86,0,0,1,4.43,3.68,27.51,27.51,0,0,0,2.34,2.24,3.63,3.63,0,0,1,1.15,1.37c0,.19-.11.41-.35.42a9.51,9.51,0,0,1-2,0,13.79,13.79,0,0,0-2.48-.17,4.73,4.73,0,0,0-1.45-.23h-1.53A.79.79,0,0,0,314.58,111.06Z"/><path class="cls-14" d="M278.64,67.51a2.58,2.58,0,0,1-1.14.85A29.87,29.87,0,0,0,273.63,71a14.1,14.1,0,0,0-2.22,2.34,23.57,23.57,0,0,0-3.2,5.19,30.53,30.53,0,0,0-1.92,5.67,19.81,19.81,0,0,1-1.12,3.76,2,2,0,0,0-.62,1c-.92,2.31-1.9,4.59-2.71,6.94a48.94,48.94,0,0,0-2.79,10.18,11.61,11.61,0,0,1-.62-2.92,23.91,23.91,0,0,1-.28-3.59.71.71,0,0,0,0-.35,3.66,3.66,0,0,1-.17-1.54c0-1.09,0-2.17,0-3.26a2.61,2.61,0,0,0,0-.84,7.48,7.48,0,0,1-.2-2.26,10.83,10.83,0,0,0-.22-3.11,2,2,0,0,1,0-.6V84.47a4.09,4.09,0,0,1,.18-1.3c.29-1,.52-1.93.78-2.9a37.22,37.22,0,0,1,1.94-5.55,37.65,37.65,0,0,0,1.89-5.44,4.4,4.4,0,0,0,.29-1.76,7.7,7.7,0,0,1,2.33-1.2A19.44,19.44,0,0,1,271.26,65a10.05,10.05,0,0,1,4.06.85C276.45,66.35,277.53,67,278.64,67.51Z"/><path class="cls-10" d="M274.81,187l0,.28c-.41,0-.64.27-.89.53-1.06,1.13-2,2.35-3.17,3.41-.38.36-.75.73-1.09,1.12-.8.93-1.57,1.9-2.39,2.82a8.2,8.2,0,0,0-1.07,1.43c-.53.89-1,1.81-1.5,2.72a.91.91,0,0,0-.55.21c-.27.24-.53.5-.82.71q-1.76,1.35-3.54,2.66a24.66,24.66,0,0,1-3.46,2.15c-.22.11-.44,0-.53-.3a1.42,1.42,0,0,1,0-.36,1.49,1.49,0,0,0,.24-1c0-.61.31-1.16.26-1.78a7.23,7.23,0,0,1,.17-1.9,12,12,0,0,0,.3-3.33c0-.32,0-.64,0-1l-.24-.94a1.5,1.5,0,0,1,.62-1.48c.19-.14.37-.3.56-.45,1.15-.86,2.31-1.7,3.44-2.59,1.35-1.06,2.74-2.06,4-3.22s2.9-2.5,4.28-3.84c.8-.77,1.66-1.49,2.49-2.24l.2-.14a14.6,14.6,0,0,0,2.56-2.15c.78-.81,1.59-1.59,2.38-2.39a7.92,7.92,0,0,0,.75-.78c1.67-2.13,3.37-4.24,5-6.43a30.65,30.65,0,0,0,2.22-3.26c.47-.83,1.1-1.57,1.65-2.35a.62.62,0,0,1,.5-.28v.49a1,1,0,0,0-.27.8,36,36,0,0,0-1.67,5.15c-.35,1.19-.67,2.39-1,3.6a20,20,0,0,1-4,7.86c-1.49,1.79-3.06,3.51-4.59,5.26C275.31,186.39,275.06,186.71,274.81,187Z"/><path class="cls-14" d="M221.72,122.18a8.76,8.76,0,0,0,1.32-2.12,30,30,0,0,0,2.08-6.25c.25-1.17.51-2.34.69-3.52a16.28,16.28,0,0,1,1-3.21,30.38,30.38,0,0,0,1.6-4.89c0-.12.1-.23.09-.35,0-1.12.31-2.21.29-3.34a20.65,20.65,0,0,0-.6-4.5c-.19-.78-.43-1.54-.59-2.32-.2-1-.34-2-.5-3-.12-.71-.18-1.43-.35-2.13a14.44,14.44,0,0,1-.12-3.35c0-.23.2-.32.4-.36a1,1,0,0,1,.56.43,12.06,12.06,0,0,0,.19,3.11,19.53,19.53,0,0,1,.49,2.95,19.22,19.22,0,0,0,.69,3.52,21.26,21.26,0,0,1,.8,6.4,18,18,0,0,1-.83,5c-.44,1.37-.94,2.72-1.51,4-.42,1-.36,1,.69.9a9.86,9.86,0,0,0,1.44-.08c1.41-.39,2.89,0,4.28-.44a6.25,6.25,0,0,0,2.56-.57,2.57,2.57,0,0,0,.91-.58,5.72,5.72,0,0,0,1.25-1.75,12.42,12.42,0,0,1,2.73-4.21c.4-.36.39-.68.06-1.18a9,9,0,0,0-1.52-2,1.31,1.31,0,0,1-.46-1.06,13.25,13.25,0,0,1,.78-2.38.92.92,0,0,1,.47.52,13.66,13.66,0,0,0,3.78,4.41,2.23,2.23,0,0,1,1,2.12c-.08,2.57,0,5.13,0,7.7a3,3,0,0,0,0,1,10.66,10.66,0,0,1,.21,2.87,2.41,2.41,0,0,0,.05.71,17.18,17.18,0,0,1,.4,2.47c.24,1.26.48,2.5.84,3.73a45.76,45.76,0,0,0,2.3,5.78,1.63,1.63,0,0,0,.51.8,2,2,0,0,1-.33,1.22,35.84,35.84,0,0,1-2.37,3.24,1.46,1.46,0,0,1-.28.21,2.72,2.72,0,0,0-1.32,1.81,24,24,0,0,0-2.5,3.18.29.29,0,0,1-.5,0,20.29,20.29,0,0,1-1-2,26.55,26.55,0,0,1-1.16-3.39c-.32-1.31-.75-2.6-1.2-3.88-.13-.36,0-.82-.4-1.09a7.12,7.12,0,0,1,1.19-3.23c.68-1.17,1.43-2.31,2-3.52s1.2-2.71,1.78-4.07c0-.09,0-.22,0-.33a.54.54,0,0,0-.43.22c-.83.82-1.66,1.63-2.47,2.46a18.21,18.21,0,0,0-2.81,3.88,19.49,19.49,0,0,0-1.63,4.37,20.21,20.21,0,0,1-2.29,5.39,16.7,16.7,0,0,1-3.2,3.71,2.81,2.81,0,0,1-1.32.8l-.48-.28a1,1,0,0,1,.57-.87,15.12,15.12,0,0,0,5.1-7.12c.36-1,.65-2,.94-3a18.41,18.41,0,0,1,3.07-6.07,23.79,23.79,0,0,1,2.34-2.57c.88-.88,1.75-1.77,2.65-2.64a1.6,1.6,0,0,0,.54-1.27c0-1.12.05-2.25,0-3.37a15.39,15.39,0,0,0-1.21-5c-.06-.15-.14-.29-.21-.43-.6-1.32-.64-1.33-1.62-.18a8.42,8.42,0,0,0-1.48,2.6,5.92,5.92,0,0,1-2,2.78,5.82,5.82,0,0,1-2.65,1.06,12.91,12.91,0,0,1-3,.26c-1.44.41-2.95,0-4.4.44-.72.19-.91.3-1,1a26.59,26.59,0,0,1-.75,3.88,25.41,25.41,0,0,1-2.25,5.94,9.43,9.43,0,0,1-1.56,2.25A2.26,2.26,0,0,1,221.72,122.18Z"/><path class="cls-11" d="M285.17,211.64a24.88,24.88,0,0,1,2.11-3.77,20.26,20.26,0,0,1,1.82-2.22c2.14-2.11,4.23-4.27,6.39-6.36,1.27-1.23,2.36-2.61,3.58-3.88.95-1,1.71-2.2,2.63-3.25a20.38,20.38,0,0,1,3.59-3.35c.55-.4,1.11-.79,1.63-1.22a1.66,1.66,0,0,1,1-.35,2.71,2.71,0,0,1,.9,1.52,14.85,14.85,0,0,1,.43,1.62,7.71,7.71,0,0,0,3.21,4.9,10,10,0,0,1,2.68,2.89,3.43,3.43,0,0,1,.19.44,4,4,0,0,1-1.55.87c-1.34.55-2.59,1.26-3.86,1.92a45.11,45.11,0,0,1-4.26,2.2c-1.15.44-2.23,1.08-3.38,1.55-2.26.92-4.47,1.94-6.74,2.83-3.12,1.22-6.28,2.36-9.41,3.54a2.38,2.38,0,0,1-.95.11Z"/><path class="cls-13" d="M231.4,218.16a1.1,1.1,0,0,1-.88-.3,32.68,32.68,0,0,1-3.38-3.58.93.93,0,0,0-.16-.18c-1.44-1.29-2.58-2.86-3.94-4.22a2.94,2.94,0,0,0-1.43-.83,14.8,14.8,0,0,0-4-.56,22.91,22.91,0,0,1-6.16-.81,13.23,13.23,0,0,0-2.92-.63l-1-1.2a14.78,14.78,0,0,1,3.49.82c1.27.41,2.58.51,3.86.83a3.91,3.91,0,0,0,.84,0,4.32,4.32,0,0,1,1.67.18,1.63,1.63,0,0,0,.59.05,9.8,9.8,0,0,1,2.86.23,1.8,1.8,0,0,0,.59,0c-.34-.48-.6-.92-.92-1.31a53.88,53.88,0,0,1-5-7.2c-1.93-3.32-3.76-6.71-6-9.85-.12-.17-.22-.34-.33-.51a2.6,2.6,0,0,0-1.87-1.12,25.29,25.29,0,0,1-7.17-2.32l-5.6-2.8a15.38,15.38,0,0,1-2.75-1.71,8.45,8.45,0,0,0-3.25-1.49c-.28-.07-.3.19-.35.38a3,3,0,0,1-.5-1.43,8.37,8.37,0,0,1,4,1.46,36.44,36.44,0,0,0,5.42,3.12,48.58,48.58,0,0,0,6.22,2.86c1.1.35,2.22.67,3.34,1,.19,0,.47.14.64-.2a37,37,0,0,0-2.92-3.47c-1.4-1.39-2.77-2.79-4.19-4.17a24.8,24.8,0,0,0-2.6-2.31c-1.07-.78-1.9-1.82-3-2.6a11.94,11.94,0,0,1-2-2.11,31.65,31.65,0,0,1-2.16-2.87,34.6,34.6,0,0,0-4.7-5.76c-.9-.87-1.85-1.67-2.81-2.44-1.16-.92-2.43-1.7-3.65-2.53a1.59,1.59,0,0,0-1.1-.42h0a.4.4,0,0,0-.27-.28c-.33-.27-.68-.53-1-.83a.78.78,0,0,1-.16-.43c0-.18.23-.44.37-.36.5.29,1.1.12,1.6.38-.11.05-.24.06-.32.14s0,.22.09.29.39.28.59.4a38.63,38.63,0,0,1,6.11,4.42,31.66,31.66,0,0,1,5.71,6.61,28.26,28.26,0,0,0,3.63,4.6c.52.55,1.19,1,1.7,1.51.88.94,1.92,1.69,2.87,2.54a23.63,23.63,0,0,1,1.94,1.79c.62.68,1.53,1,2,1.85a.24.24,0,0,0,.2.09.23.23,0,0,0,.2-.25,21.37,21.37,0,0,1,.63-4.13,7,7,0,0,0,0-2.61,26.16,26.16,0,0,1-.79-3.74c.33.06.71-.09,1,.27.19.94.38,1.87.56,2.81.14.7.25,1.41.38,2.12a11.55,11.55,0,0,0-.4,2.35,11.4,11.4,0,0,0-.56,3.54,2.07,2.07,0,0,0,.61,1.49c.92.94,1.81,1.92,2.66,2.93s1.48,1.88,2.18,2.86a62.57,62.57,0,0,1,3.72,5.74c.35.62.71,1.25,1.08,1.87a.28.28,0,0,0,.18.12c.17,0,.18-.13.19-.25a2.16,2.16,0,0,0,0-.36,15.35,15.35,0,0,1,.26-3.58,32.17,32.17,0,0,0,.72-5.44,3.12,3.12,0,0,1,.13-.59,8.52,8.52,0,0,0,0-3,7.27,7.27,0,0,1-.13-1.31v-2.41a26,26,0,0,1,2.8,2.44c2,2.13,4.24,4,6.1,6.32a7,7,0,0,1,1,1.35,10,10,0,0,0,3.81,4.07,16.58,16.58,0,0,1,1.68,1.15,6.92,6.92,0,0,1,2.3,3c.82,2.25,1.53,4.55,2.33,6.81a22.42,22.42,0,0,1,1,3.95c.07.44.44.87.07,1.33-.46-.12-.67-.54-1-.83-.5-.47-1-1-1.45-1.44a6.22,6.22,0,0,0-.73-.63,8.34,8.34,0,0,1-2.36-2.52c-.48-.79-.9-1.61-1.35-2.42-.33-.59-.65-1.2-1-1.76-1.18-1.76-2.39-3.51-3.59-5.26a9.4,9.4,0,0,0-.94-1.24c-1.29-1.32-2.6-2.62-3.91-3.93a.81.81,0,0,0-.64-.26h0c0-.59,0-.59-.49-.73h0a.5.5,0,0,0-.24-.5h0l-.24-.24a7.68,7.68,0,0,1-1.72-3.76.64.64,0,0,0-.35-.57s-.07,0-.07.06c0,1,0,2,0,3a8,8,0,0,1,0,1.2c-.21,1.46-.42,2.92-.7,4.36-.14.71-.15,1.43-.32,2.13a2.7,2.7,0,0,0,0,1.64,2.87,2.87,0,0,1,.08.71,6.72,6.72,0,0,0,.94,3.29,70.72,70.72,0,0,0,6.56,8.84c.6.7,1.25,1.35,1.8,2.08a18,18,0,0,0,2.76,2.82,3.71,3.71,0,0,0,.8,1.16A18,18,0,0,1,231.4,218.16Z"/><path class="cls-10" d="M178.3,158.14a1.59,1.59,0,0,1,1.1.42c1.22.83,2.49,1.61,3.65,2.53,1,.77,1.91,1.57,2.81,2.44a34.6,34.6,0,0,1,4.7,5.76,31.65,31.65,0,0,0,2.16,2.87,11.94,11.94,0,0,0,2,2.11c1.08.78,1.91,1.82,3,2.6a24.8,24.8,0,0,1,2.6,2.31c1.42,1.38,2.79,2.78,4.19,4.17a37,37,0,0,1,2.92,3.47c-.17.34-.45.25-.64.2-1.12-.3-2.24-.62-3.34-1a48.58,48.58,0,0,1-6.22-2.86,36.44,36.44,0,0,1-5.42-3.12,8.37,8.37,0,0,0-4-1.46,3.06,3.06,0,0,1-.47-1.08,43.87,43.87,0,0,0-4.62-9.46c-.11-.17-.2-.34-.32-.51a16.34,16.34,0,0,1-2.59-6A13.78,13.78,0,0,0,178.3,158.14Z"/><path class="cls-11" d="M310.06,211.42a1.45,1.45,0,0,0-.93.18,20.49,20.49,0,0,1-4.32,1.44,49.49,49.49,0,0,0-5,1.61,36.23,36.23,0,0,1-4.46,1.44c-3.06.78-6.1,1.62-9.16,2.39-1.82.46-3.65.88-5.51,1.16a25.44,25.44,0,0,0-6.06,1.86,18.62,18.62,0,0,1-4.25,1.23,27,27,0,0,1-3.07.53c-.24,0-.58.39-.7,0s.37-.34.6-.48c1.45-.92,2.9-1.86,4.38-2.73,2.38-1.41,4.68-2.95,7.18-4.15,1-.5,2-1.09,3.07-1.63a3.46,3.46,0,0,1,1.22-.5.86.86,0,0,0,.44-.15A14.6,14.6,0,0,1,287.2,212c2.39-.94,4.81-1.78,7.21-2.67a6.61,6.61,0,0,1,3.66-.17,9.82,9.82,0,0,0,2.86.33,3,3,0,0,1,.95.07,6.22,6.22,0,0,0,3,0,2,2,0,0,1,.6-.07,12.6,12.6,0,0,0,4.34-.77,2.78,2.78,0,0,1,.94-.2.65.65,0,0,1,.51.27A18.45,18.45,0,0,1,310.06,211.42Z"/><path class="cls-13" d="M216.66,104.8c-.71-2.21-1.44-4.41-2.13-6.62-.95-3.07-1.6-6.22-2.42-9.32q-.83-3.14-1.67-6.27a18.32,18.32,0,0,0-1.2-3.14,62.68,62.68,0,0,0-3.2-6.07c-.64-1-1.34-2-2-3a4.06,4.06,0,0,1-.4-.74.41.41,0,0,1,.35-.52,2.62,2.62,0,0,1,1.08.08,36.16,36.16,0,0,0,5.57.92,7,7,0,0,1,4.57,2.17,2.84,2.84,0,0,0,1.5.92c-.38.07-.85,0-.94.56s-.22,1.26-.27,1.89a10.55,10.55,0,0,0,.61,4.38c.36,1,.65,2.06,1,3.07s.15,2.15.47,3.19a.4.4,0,0,1,0,.24,7.87,7.87,0,0,0-.19,2.27,6.67,6.67,0,0,1-.09,1.19,3.6,3.6,0,0,0,0,1.9,2.55,2.55,0,0,1,.08.83,20.48,20.48,0,0,0,.43,3.57,22.82,22.82,0,0,1,.29,2.62,10,10,0,0,1-1,4.64A3.2,3.2,0,0,0,216.66,104.8Z"/><path class="cls-13" d="M287.11,162.93a.62.62,0,0,0-.5.28c-.55.78-1.18,1.52-1.65,2.35a30.65,30.65,0,0,1-2.22,3.26c-1.61,2.19-3.31,4.3-5,6.43a7.92,7.92,0,0,1-.75.78c-.79.8-1.6,1.58-2.38,2.39a14.6,14.6,0,0,1-2.56,2.15l-.2.14c-.83.75-1.69,1.47-2.49,2.24-1.38,1.34-2.87,2.55-4.28,3.84s-2.66,2.16-4,3.22c-1.13.89-2.29,1.73-3.44,2.59-.19.15-.37.31-.56.45a1.5,1.5,0,0,0-.62,1.48A13.11,13.11,0,0,0,254,197a15.75,15.75,0,0,1-1.84,1.9,1.67,1.67,0,0,1-.73.39,13.37,13.37,0,0,1-1.88.3,7.16,7.16,0,0,0-1.9.22.65.65,0,0,1-.68-.09c-.21-.23.05-.42.17-.62s.19-.34.28-.52a45.35,45.35,0,0,1,3.17-5.65,12.12,12.12,0,0,0,1.72-4,21.81,21.81,0,0,1,3.66-7.61.79.79,0,0,1,.23.65,22.6,22.6,0,0,1-.63,6.66,2.32,2.32,0,0,0-.05.59s.09.13.15.15a.22.22,0,0,0,.21-.05c.18-.3.37-.62.53-.94,1.18-2.36,2.38-4.73,3.54-7.1.49-1,.89-2.06,1.34-3.08a30.93,30.93,0,0,1,2.77-5c.51-.76,1.13-1.45,1.66-2.2a4.58,4.58,0,0,0,.86-2.44,13.28,13.28,0,0,0-.75-4.47,1.37,1.37,0,0,0-.48-.81c.21-.35.31-.78.73-1,.26.84.52,1.68.79,2.51a7.38,7.38,0,0,1,.43,2.59c0,.34-.18.85.17,1,.51.21.52-.46.81-.69a5.62,5.62,0,0,0,.58-.61c.85-1,1.66-2.05,2.57-3,1.52-1.59,3.11-3.13,4.67-4.69a3.5,3.5,0,0,1,.52-.5,38,38,0,0,0,3.25-2.84,25,25,0,0,0,3.28-3,1.87,1.87,0,0,1,.46-.38,6.32,6.32,0,0,0,2-2.38,2.45,2.45,0,0,0,.29-1.15,15,15,0,0,0-.36-3.2,15.3,15.3,0,0,1-.38-3.44,1.18,1.18,0,0,1,1-.73,2.35,2.35,0,0,0,0,1.75,1.66,1.66,0,0,1,0,.71,6.33,6.33,0,0,0,.16,1.3c.24,1.09.38,2.2.57,3.3,0,.18-.08.41.23.48a12.51,12.51,0,0,0,1.84-1.51,4,4,0,0,1,.76-.57c1-.68,2-1.33,3-2,1.68-1.17,3-2.8,4.55-4.09,1.14-.93,2.27-1.89,3.45-2.77,2.3-1.71,5-2.74,7.44-4.16a19.61,19.61,0,0,1,2.23-1.16c.3-.13.27-.24-.09-.57a5.94,5.94,0,0,1,.94-.15c.49,0,.69.28.56.8a.86.86,0,0,1-.26.52c-.07-.1-.17-.19-.29-.14a2.7,2.7,0,0,0-.55.24c-1.67,1.05-3.48,1.82-5.23,2.73a35.51,35.51,0,0,0-4,2.38c-1.07.76-2.08,1.62-3.11,2.44-1.23,1-2.27,2.14-3.42,3.19a26.86,26.86,0,0,1-3.67,2.7,22.54,22.54,0,0,0-3.72,3c-.54.54-1.1,1.06-1.61,1.62s-1.46,1.13-2.09,1.82-1.33,1.26-2,1.87l-2.71,2.37c-2.51,2.19-4.8,4.61-7.16,6.95a32.82,32.82,0,0,0-2.49,2.92c-1.07,1.34-2.19,2.65-3.23,4a25.36,25.36,0,0,0-2.95,4.51c-1.06,2.25-2.09,4.51-3.17,6.75-1.2,2.49-2.44,5-3.69,7.43a3.19,3.19,0,0,0-.36,1.73c0,.37.24.47.57.23.65-.46,1.28-.95,1.92-1.43,1.09-.81,2.2-1.6,3.27-2.43.76-.59,1.48-1.23,2.23-1.81,1.08-.84,1.93-1.92,3.08-2.68a3.65,3.65,0,0,0,.61-.57,34.11,34.11,0,0,1,3.78-3.33c.79-.61,1.51-1.32,2.26-2a8.27,8.27,0,0,1,.66-.51,6.74,6.74,0,0,0,1.36-1.36,4.56,4.56,0,0,1,.51-.65,34.22,34.22,0,0,0,2.84-3.41c.8-1,1.59-2,2.36-3,.63-.83,1.23-1.68,1.81-2.54.73-1,1.47-2.1,2.13-3.2a14.26,14.26,0,0,1,2.27-2.63.93.93,0,0,1,.65-.29,4.94,4.94,0,0,1-1,1.93.5.5,0,0,0-.25.49Z"/><path class="cls-13" d="M239.33,97.32a1.31,1.31,0,0,0,.46,1.06,9,9,0,0,1,1.52,2c.33.5.34.82-.06,1.18a12.42,12.42,0,0,0-2.73,4.21,5.72,5.72,0,0,1-1.25,1.75,2.57,2.57,0,0,1-.91.58,6.25,6.25,0,0,1-2.56.57c-1.39.45-2.87,0-4.28.44a9.86,9.86,0,0,1-1.44.08c-1.05.13-1.11.1-.69-.9.57-1.33,1.07-2.68,1.51-4a18,18,0,0,0,.83-5,21.26,21.26,0,0,0-.8-6.4,19.22,19.22,0,0,1-.69-3.52,19.53,19.53,0,0,0-.49-2.95,12.06,12.06,0,0,1-.19-3.11,10.86,10.86,0,0,1,2.63,2.43,18.31,18.31,0,0,1,2.31,3.35,32.94,32.94,0,0,0,6.12,8C238.82,97.27,239,97.49,239.33,97.32Z"/><path class="cls-12" d="M187.25,158.59a18.74,18.74,0,0,0,4-.17,14.6,14.6,0,0,1,4.07,0,22.65,22.65,0,0,0,7.3-.17c2-.39,4-.78,6-1.27a14.06,14.06,0,0,1,4.53-.33c.53.06.81.46,1.11.83a6.73,6.73,0,0,0,.58.74c1,1,1.76,2.14,2.78,3.08a1.63,1.63,0,0,1,.57,1.38c-1.35.31-2.71.67-4.07.94-2.19.43-4.39.8-6.59,1.18a18.92,18.92,0,0,1-2.25.27,38.36,38.36,0,0,1-4.79.28,2.06,2.06,0,0,0-.59.09,4.51,4.51,0,0,1-2.25,0,1.91,1.91,0,0,0-.95,0l-1.9-.31a13.86,13.86,0,0,1-2.62-1.16,15.49,15.49,0,0,1-2-1.67c-1-1-1.92-1.93-2.88-2.9-.19-.19-.44-.35-.52-.64C186.85,158.55,187.07,158.64,187.25,158.59Z"/><path class="cls-14" d="M250.93,236c.47,0,.7-.34,1-.62,1.28-1.27,2.54-2.58,3.84-3.82.78-.75,1.63-1.42,2.47-2.09.63-.5,1.19-1.07,1.84-1.54,1.17-.84,2.27-1.77,3.42-2.63a5.49,5.49,0,0,1,2-.82c1.47-.34,3-.53,4.47-.79a12.66,12.66,0,0,0,1.75-.38,1.13,1.13,0,0,1,1.29.37c.16.18.35.33.51.52a5.28,5.28,0,0,0,2.12,1.32,2.23,2.23,0,0,0,.82.11c1.09,0,2.17,0,3.26,0A11.38,11.38,0,0,0,283,225a14.26,14.26,0,0,1,5.78-.84,39.57,39.57,0,0,1-4,2.65,16.4,16.4,0,0,1-5.54,1.93,37.91,37.91,0,0,0-9.1,2.61,2.17,2.17,0,0,1-.35.07,5.86,5.86,0,0,0-2.8.55,27.35,27.35,0,0,1-4.16,1.08,31.22,31.22,0,0,0-5.27,1.55c-.92.38-1.82.82-2.76,1.13a8.32,8.32,0,0,1-3.61.74A.65.65,0,0,1,250.93,236Z"/><path class="cls-14" d="M207.52,205.85l1,1.2a2.35,2.35,0,0,0,.6.73,1,1,0,0,1,.36.72h0c-.69-.08-1.09-.65-1.59-1-2-1.47-3.93-3-5.86-4.57s-4-3-6-4.53c-1-.72-1.89-1.48-2.83-2.21a26,26,0,0,0-3-2,4.76,4.76,0,0,1-.95-.72c-1.28-1.21-2.56-2.42-3.86-3.61a11.38,11.38,0,0,0-1.7-1.32,16.51,16.51,0,0,1-2.71-2.37,7.06,7.06,0,0,1-1-1.51,11,11,0,0,1-1.62-4.22c-.09-.55-.26-1.09-.38-1.64-.08-.34.21-.37.42-.45a35.63,35.63,0,0,1,6,1.35c1.1.34,2.17.76,3.26,1.15a1.7,1.7,0,0,0,.79.21c.18.49.35,1,.52,1.47a35.47,35.47,0,0,0,4,8.31c.69,1,1.48,2,2.26,2.95,1.42,1.76,3.13,3.22,4.65,4.88,1.15,1.24,2.53,2.21,3.7,3.43s2.32,2.34,3.49,3.5A3.48,3.48,0,0,0,207.52,205.85Z"/><path class="cls-12" d="M160.76,181.73a.57.57,0,0,1,.64-.21c1,.23,2.13.31,3.19.49a66.7,66.7,0,0,1,6.71,1.15,20.49,20.49,0,0,1,2.59,1,28,28,0,0,1,6,3.59c.89.67,1.75,1.38,2.59,2.12.61.53,1.27,1,1.91,1.45,2,1.49,4.15,2.87,6.29,4.21a41.4,41.4,0,0,1,4.41,3.29c1,.84,2.09,1.62,3.15,2.4,1.74,1.27,3.45,2.59,5.13,3.94s3.62,2.77,5.45,4.13c.92.7,1.85,1.39,2.8,2a4.67,4.67,0,0,1,1.73,2.4,53.17,53.17,0,0,0-8.51-4.95,74.79,74.79,0,0,1-13.48-8.6c-2.7-2.15-5.47-4.21-8.23-6.29-.51-.38-1.08-.69-1.62-1a.9.9,0,0,0-.38-.44c-.92-.62-1.86-1.24-2.76-1.9a52.71,52.71,0,0,0-10.7-6.29A70.23,70.23,0,0,0,160.76,181.73Z"/><path class="cls-12" d="M262.26,246.13a45.71,45.71,0,0,0-4.41,1.49,4.29,4.29,0,0,0-.58.4,3.64,3.64,0,0,0-1.52.66,37.21,37.21,0,0,0-4.78,3.58,9.28,9.28,0,0,0-1.73,1.81l-1.78,1.42a2,2,0,0,1-1.07.51c.48-.65,1-1.29,1.45-1.93.23-.39.66-.67.69-1.18l.21,0,.25-.23c.65-1,1.32-1.9,1.94-2.87a15,15,0,0,0,2.23-5.12c.13-.62.26-1.24.4-1.86,0-.34.14-.72-.21-1a5,5,0,0,0-.84-3.08c-.19-.35-.4-.69-.61-1,0-.21.09-.41.33-.44a20,20,0,0,0,5.32-1.76,13.66,13.66,0,0,1,2.23-.85c1.81-.46,3.64-.85,5.46-1.26a.61.61,0,0,1,.65.2c-.73.43-1.44.87-2.18,1.28a27.16,27.16,0,0,0-6.1,4.67,1.28,1.28,0,0,0-.19.34,1.21,1.21,0,0,0,.39,0,9.17,9.17,0,0,1,5.34-.15c1.57.33,3.12.75,4.71,1,1.1.15,1.28.71.54,1.56a11.15,11.15,0,0,1-1.9,1.66A20.07,20.07,0,0,1,262.26,246.13Z"/><path class="cls-15" d="M217.09,219.55a1.31,1.31,0,0,0,.73.6,59.84,59.84,0,0,0,9.18,3.59c3.74,1,7.48,2.11,11.16,3.37.65.22,1.28.47,1.92.7,1,.51,2,1,3.08,1.51a3.88,3.88,0,0,0,.69.18,3.77,3.77,0,0,0,.92.76,12.42,12.42,0,0,1,2.07,1.62c-.1.15-.25.25-.4.15a22.27,22.27,0,0,0-5.74-2.36,8,8,0,0,0-2.47-.44l-9.25,0-.71,0c-.38-.39-.91-.21-1.36-.37a23.47,23.47,0,0,1-6.43-3.4,16.83,16.83,0,0,0-3.53-2.23,4,4,0,0,0-1.95-.48l-.5-.11-.26-.11h0a.36.36,0,0,0-.26-.25,15.54,15.54,0,0,0-2.89-1.94,21.18,21.18,0,0,1-4-2.74,10.74,10.74,0,0,1-1.58-1.65,11.32,11.32,0,0,0-3.27-3.16.43.43,0,0,1-.22-.51.51.51,0,0,1,.44-.35,3.6,3.6,0,0,1,1.3.15,16.27,16.27,0,0,1,4,1.92c1.74,1.08,3.45,2.21,5.18,3.3,1.09.69,2.19,1.34,3.29,2A1.29,1.29,0,0,0,217.09,219.55Z"/><path class="cls-10" d="M203.44,170.14a26.16,26.16,0,0,0,.79,3.74,7,7,0,0,1,0,2.61,21.37,21.37,0,0,0-.63,4.13.23.23,0,0,1-.2.25.24.24,0,0,1-.2-.09c-.51-.8-1.42-1.17-2-1.85a23.63,23.63,0,0,0-1.94-1.79c-.95-.85-2-1.6-2.87-2.54-.51-.55-1.18-1-1.7-1.51a28.26,28.26,0,0,1-3.63-4.6,31.66,31.66,0,0,0-5.71-6.61,38.63,38.63,0,0,0-6.11-4.42c-.2-.12-.4-.26-.59-.4s-.19-.19-.09-.29.21-.09.32-.14a16.88,16.88,0,0,1,3.81.51,2.83,2.83,0,0,1,1.21.48,1.86,1.86,0,0,0,1.12,1.17,3.65,3.65,0,0,1,1.2.78c1.78,1.73,3.45,3.57,5.36,5.17a12.45,12.45,0,0,0,2.89,1.9c.95.42,1.91.82,2.88,1.19.82.32,1.66.57,2.49.86a8.51,8.51,0,0,1,1,.28A9.26,9.26,0,0,1,203.44,170.14Z"/><path class="cls-9" d="M214.8,223.94a4.3,4.3,0,0,1,.7.64c1.84,2.48,3.84,4.84,5.47,7.46.72,1.16,1.39,2.35,2,3.56a25.48,25.48,0,0,0,2.38,3.6,4.6,4.6,0,0,0,.94.93,24,24,0,0,1,3.23,3.07,8.65,8.65,0,0,1,1.53,2.29c.35.72.59,1.49.9,2.23a2.55,2.55,0,0,1,.1,1.54c-.42,1.67-.89,3.32-1.34,5,0,.07,0,.15-.07.23s-.11.23-.26.19a.29.29,0,0,1-.16-.15,10.35,10.35,0,0,1-.58-1.32,13.28,13.28,0,0,0-1.21-2.34c-.3-.57-.68-1.09-1-1.64a5.94,5.94,0,0,1-.8-1.87,8.28,8.28,0,0,0-2.19-3.68c-1.3-1.42-2.71-2.75-4.07-4.11a1.53,1.53,0,0,0-.3-.19,9.61,9.61,0,0,1-.72-1.23,32.13,32.13,0,0,0-2.2-4.34c-.37-.65-.76-1.3-1.13-2a8.44,8.44,0,0,1-1.17-4.68A21.48,21.48,0,0,0,214.8,223.94Z"/><path class="cls-12" d="M290,223.42a.67.67,0,0,0-.55-.21,8.27,8.27,0,0,0-2.62.2,1.1,1.1,0,0,1-.48,0,7.18,7.18,0,0,0-2.93.56,9.66,9.66,0,0,1-3.87.66,4.39,4.39,0,0,0-1.19.13,5,5,0,0,1-2.49-.06,3.65,3.65,0,0,1-1.62-1c-.7-.72-.87-.93.31-1.3.46-.15.87-.44,1.32-.6a30.58,30.58,0,0,1,4.83-1.35,68.07,68.07,0,0,0,7.58-1.72c1.72-.52,3.48-.9,5.22-1.35,2.21-.56,4.4-1.19,6.55-2a6,6,0,0,0,.77-.34,9.85,9.85,0,0,1,2.26-.81,46,46,0,0,0,5.63-1.66,2.72,2.72,0,0,1,.71-.07,12.27,12.27,0,0,1-2.52,2.9,7.14,7.14,0,0,1-2.51,1.4c-.79.27-1.6.54-2.41.74a22.72,22.72,0,0,0-5.88,2.42c-1.78,1-3.51,2.1-5.35,3Z"/><path class="cls-10" d="M310.26,132.4c.36.33.39.44.09.57a19.61,19.61,0,0,0-2.23,1.16c-2.46,1.42-5.14,2.45-7.44,4.16-1.18.88-2.31,1.84-3.45,2.77-1.59,1.29-2.87,2.92-4.55,4.09-1,.68-2,1.33-3,2a4,4,0,0,0-.76.57,12.51,12.51,0,0,1-1.84,1.51c-.31-.07-.2-.3-.23-.48-.19-1.1-.33-2.21-.57-3.3a6.33,6.33,0,0,1-.16-1.3,1.66,1.66,0,0,0,0-.71,2.35,2.35,0,0,1,0-1.75,1.9,1.9,0,0,1,.38-.46c1.26-.83,2.48-1.74,3.81-2.47a21.58,21.58,0,0,1,4.11-1.63,30.89,30.89,0,0,0,5.4-2.28c.46-.25.89-.54,1.34-.78a6.94,6.94,0,0,1,.9-.34A66.88,66.88,0,0,0,310.26,132.4Z"/><path class="cls-9" d="M229,135.68l.48.28c.15.22.52.3.47.67a8.24,8.24,0,0,0-.69,1,10.41,10.41,0,0,1-3.76,3.95c-1,.63-2.06,1.08-3.09,1.63-.32.17-.48.08-.62-.3-.72-2-1.45-4-2.16-6a13.18,13.18,0,0,0-2.07-3.9,40.77,40.77,0,0,0-3.25-3.7,17,17,0,0,1-2.65-3.69,2.06,2.06,0,0,1-.31-.9,29.53,29.53,0,0,1,7,3.61c1.61,1.11,3.22,2.24,4.84,3.35.35.24.67.59,1.18.48.19.71.87.94,1.38,1.26C226.87,134.12,227.9,134.93,229,135.68Z"/><path class="cls-10" d="M218.14,162.69a1.63,1.63,0,0,0-.57-1.38c-1-.94-1.78-2.12-2.78-3.08a6.73,6.73,0,0,1-.58-.74c-.3-.37-.58-.77-1.11-.83,0-.27-.17-.41-.33-.58l-1.17-1.27-.07-.07a.19.19,0,0,1-.14-.16.11.11,0,0,0-.09-.09.2.2,0,0,1-.15-.16l-.08-.08-.16-.17-.06-.07a.19.19,0,0,1-.15-.15,5.45,5.45,0,0,0-1.23-1.74c-.74-1-1.51-1.94-2.29-2.89a16.68,16.68,0,0,0-1.61-1.42c-1.56-1.49-3.36-2.67-5-4a.54.54,0,0,0-.56-.07l.06,0-.06,0c0-.12,0-.27-.08-.33a3.79,3.79,0,0,0-1.85-1.13l.08-.05-.08.06A3.5,3.5,0,0,0,196,141h0a1.3,1.3,0,0,0-.56-.62,28,28,0,0,0-6.25-3.51c-1.43-.51-2.81-1.18-4.27-1.59-2.8-.79-5.62-1.53-8.37-2.48a1.92,1.92,0,0,0-1.05-.22,14.64,14.64,0,0,1-4.11-3.14,2.87,2.87,0,0,1,1.42.61,19.39,19.39,0,0,0,3.91,1.84c2.69.9,5.43,1.66,8.17,2.42,1.23.34,2.42.83,3.62,1.28.9.34,1.79.71,2.67,1.09A18.89,18.89,0,0,1,195,139c1.09.82,2.27,1.51,3.41,2.23a29.79,29.79,0,0,1,2.84,2,3.19,3.19,0,0,0,1.42.85l.11.09-.1-.11a1.42,1.42,0,0,0-.12-.46,19.2,19.2,0,0,0-2.34-3.33,7.68,7.68,0,0,1-.69-.82,4,4,0,0,0-.94-.93,4.53,4.53,0,0,1-.81-.7c-.83-1-1.67-2-2.45-3a16.63,16.63,0,0,0-4.08-3.86c-2-1.29-4-2.53-6-3.83a37.35,37.35,0,0,1-4.31-3.44,34,34,0,0,0-4.23-3.53c-.94-.61-1.93-1.15-2.87-1.76a22.52,22.52,0,0,1-5.34-5c-.25-.31-.56-.57-.83-.87a1.19,1.19,0,0,0-1-.38.76.76,0,0,1,.64-.22h1.78v.2c-.19.06-.47.11-.26.36.58.71,1.19,1.41,1.82,2.08a20.43,20.43,0,0,0,4.61,3.61c.86.5,1.69,1.07,2.52,1.62,1.85,1.22,3.27,2.93,5,4.28.73.57,1.4,1.2,2.17,1.71,2.46,1.63,5,3.22,7.45,4.82.19.13.35.35.65.28a11.21,11.21,0,0,1,1.08-1.41,10.76,10.76,0,0,0,2.36-4.4,2.38,2.38,0,0,0,.08-.71c0-1.48,0-3,0-4.45.36.27.89.09,1.23.43a.88.88,0,0,0-.24.77c0,.8-.05,1.61,0,2.4a7.23,7.23,0,0,1-.79,3.48c-.18.4-.41.78-.58,1.18a4.23,4.23,0,0,1-1.12,1.55,4.38,4.38,0,0,0-1,1.48.68.68,0,0,0,.13.87,12.82,12.82,0,0,1,1.57,1.81c.27.4.61.75.88,1.14a24.65,24.65,0,0,0,3.2,3.42,22.57,22.57,0,0,1,3.92,5.43,8.62,8.62,0,0,1,.43.86,5.64,5.64,0,0,0,2,2.37,12.62,12.62,0,0,1,2.28,2.28c1.1,1.42,2.3,2.77,3.35,4.22a32.66,32.66,0,0,0,3.77,4.19c.49.47,1.05.86,1.54,1.33a17.63,17.63,0,0,1,2.64,2.95.61.61,0,0,1-.6.25A1.85,1.85,0,0,0,218.14,162.69Z"/><path class="cls-10" d="M160.76,181.73a70.23,70.23,0,0,1,6.87,2.46,52.71,52.71,0,0,1,10.7,6.29c.9.66,1.84,1.28,2.76,1.9a.9.9,0,0,1,.38.44,1.43,1.43,0,0,1-.35-.06,20.9,20.9,0,0,0-8.63-1.86c-1.4-.05-2.81-.05-4.21-.22a20.54,20.54,0,0,1-4.89-1.18,8.71,8.71,0,0,1-4.56-3.93c-.65-1.15-1.18-2.37-1.75-3.56-.31-.65-.59-1.31-.89-2a5.57,5.57,0,0,1,2.48.79C159.37,181.13,160,181.48,160.76,181.73Z"/><path class="cls-9" d="M287.35,162.44a4.94,4.94,0,0,0,1-1.93c.37-.27.47-.73.71-1.09.71-1.07,1.54-2,2.32-3a31.22,31.22,0,0,1,2.18-2.4,23,23,0,0,1,2.56-2.17c.64-.48,1.19-1.06,1.85-1.53.91-.64,1.76-1.37,2.66-2,1.16-.85,2.39-1.61,3.51-2.52.93-.75,1.73-1.67,2.6-2.49a11.5,11.5,0,0,0,2.43-3.4c.41-.83.74-1.69,1.11-2.53a3.26,3.26,0,0,1,.24-.4,8.22,8.22,0,0,1-.34,2.61,23.47,23.47,0,0,1-5.56,10.65A43.51,43.51,0,0,1,294,158.46c-.67.37-1.33.75-2,1.13a17.37,17.37,0,0,0-4,3.12c-.17.17-.36.32-.54.48l-.45.23v-.49h0A.51.51,0,0,0,287.35,162.44Z"/><path class="cls-10" d="M316.75,110.85a4.73,4.73,0,0,1,1.45.23,3.19,3.19,0,0,1-.47.35c-2.35,1.22-4.71,2.43-7.05,3.67a27.7,27.7,0,0,0-3.21,1.87c-1.59,1.15-3.25,2.2-4.87,3.3-.73.5-1.5.93-2.23,1.42a28.29,28.29,0,0,0-4.48,3.62c-1.4,1.43-2.9,2.78-4.21,4.29a44,44,0,0,1-3.69,3.79l-2.55,2.37a31.2,31.2,0,0,0-3.54,4.08c-1.43,1.88-2.88,3.74-4.25,5.66-1.48,2.09-3.2,4-4.78,6a110.76,110.76,0,0,0-7.69,11,1.38,1.38,0,0,0-.27.89h0l-.25.24h0a.47.47,0,0,0-.25.49h0l-.25.25h0a.52.52,0,0,0-.25.51l-2,3.05c-.21.33-.45.64-.65,1s-.45.28-.73.28a94.32,94.32,0,0,1,5.57-9.83c1.35-2,2.68-4.08,4.19-6s2.81-3.69,4.36-5.43a20.79,20.79,0,0,0,1.43-1.92,1.87,1.87,0,0,0,.22-1.72,8.31,8.31,0,0,0-1.3-2.42c-.31-.42-.63-.83-1-1.22a9.07,9.07,0,0,1-2.18-6.08,8.38,8.38,0,0,1,.5-3.18,9,9,0,0,1,1.4-2.23,4.69,4.69,0,0,0,.94-2.18,11,11,0,0,0,.32-2.86,13.83,13.83,0,0,1,0-1.44l.71-.5c.06.1.18.19.19.29a6,6,0,0,1-.06,2,3.45,3.45,0,0,0-.12,1.19,7.35,7.35,0,0,1-.37,2.24,4.84,4.84,0,0,1-.81,1.6,7.44,7.44,0,0,0-1.56,2.68,2.87,2.87,0,0,0-.16.69,21.77,21.77,0,0,0,0,3.13,7.44,7.44,0,0,0,1.62,3.83c.45.56.94,1.09,1.36,1.67a6.62,6.62,0,0,1,1.17,2.23c0,.17.1.42.33.43s.33-.21.45-.36L279.2,142c1.23-1.62,2.46-3.25,3.72-4.86A14.29,14.29,0,0,1,284,136c1-1,1.94-2.06,3-2.94a24.64,24.64,0,0,0,3-2.91c1.74-2.06,3.72-3.88,5.6-5.79a33,33,0,0,1,5.82-4.43c1.69-1.08,3.38-2.16,5-3.31a31.4,31.4,0,0,1,3.16-2c.85-.45,1.72-.86,2.58-1.31,1.28-.67,2.55-1.35,3.82-2a1.18,1.18,0,0,0,.26-.24A.44.44,0,0,0,316.75,110.85Z"/><path class="cls-12" d="M217.15,233.8a32.13,32.13,0,0,1,2.2,4.34,9.61,9.61,0,0,0,.72,1.23,4.93,4.93,0,0,0,.71,2.17l.25.25h0a2.12,2.12,0,0,0,.33,1.12,7,7,0,0,1,.65,1.77.75.75,0,0,0-.28.51,10,10,0,0,1-.8,1.88c-.3.54-.43.56-.88.11-.25-.25-.47-.55-.7-.82a15.36,15.36,0,0,0-2.93-2.82,12.94,12.94,0,0,0-2-1.23,1.27,1.27,0,0,1-.81-1.34c0-.52,0-1,0-1.57a4.41,4.41,0,0,0-1.76-3.52,16.42,16.42,0,0,1-2.54-2.53,3.43,3.43,0,0,1,1.52-.22,19.94,19.94,0,0,1,6.15.67A.87.87,0,0,0,217.15,233.8Z"/><path class="cls-14" d="M311.93,207.74a1.45,1.45,0,0,0-1.37-.1c-.54.13-1.08.29-1.62.44a13.18,13.18,0,0,1-4.23.67c-.8,0-1.61,0-2.41,0a16,16,0,0,1-4.62-.56c.08-.28.34-.33.55-.42,1.39-.6,2.82-1.13,4.19-1.77a81.12,81.12,0,0,0,7.54-3.72c1.31-.77,2.71-1.39,4.08-2.05a3.17,3.17,0,0,1,1.73-.41,10.51,10.51,0,0,1,.58,2.06,3,3,0,0,1-.83,2.74,8.08,8.08,0,0,1-.6.57Z"/><path class="cls-14" d="M282.74,185.57c0,.12,0,.24,0,.36a8.64,8.64,0,0,0,.58,3.76,4.64,4.64,0,0,1,.38,1.74,1,1,0,0,1-.45.91c-.56.38-1.08.82-1.62,1.22a18.36,18.36,0,0,0-3.64,3.62,7.88,7.88,0,0,1-.87.86,3.44,3.44,0,0,1-.63-1.45,6.92,6.92,0,0,0-.25-.92,11,11,0,0,1-.92-3.56,5,5,0,0,1,0-2,4.27,4.27,0,0,0,.15-1.42,3,3,0,0,1,.48-1.82,6.46,6.46,0,0,1,1.5-.31,29.73,29.73,0,0,0,4.31-.79C282.11,185.66,282.43,185.63,282.74,185.57Z"/><path class="cls-12" d="M177.26,178.13a.31.31,0,0,0-.32.4,5.28,5.28,0,0,0,.31.78,1.22,1.22,0,0,1,0,1c-.09,0-.18,0-.24,0A45.37,45.37,0,0,1,172.2,178a1.41,1.41,0,0,0-1.41-.23,1.71,1.71,0,0,0,1,1l3.1,1.56c.51.25,1,.53,1.52.74a2.62,2.62,0,0,1,1.49,1.48c.2.48.46.94.7,1.4a10.45,10.45,0,0,0,.87,1.57,1.49,1.49,0,0,1,.35.89h0a2.62,2.62,0,0,1-1.18-.55,28.94,28.94,0,0,0-3.86-2.21,19.37,19.37,0,0,0-4.29-1.51c-1.25-.25-2.53-.37-3.79-.56-.86-.13-1.72-.36-2.59-.42a24,24,0,0,1-3.18-.54c-1.14-.24-2.25-.54-3.38-.82-.06,0-.11-.11-.17-.16l1.48,0a17.25,17.25,0,0,0,6.36-1.1,23,23,0,0,1,3.85-.92,18.74,18.74,0,0,1,4.79,0A15.26,15.26,0,0,1,177.26,178.13Z"/><path class="cls-10" d="M208.45,246.55c0-.16,0-.33-.11-.44s-.46-.56-.82-.68a10,10,0,0,0-3.1-1.77c-.42-.15-.83-.3-1.25-.43a9.2,9.2,0,0,1-5.72-4.95c-.49-1-.84-2.07-1.24-3.12a.44.44,0,0,1,.14-.54.48.48,0,0,1,.56,0l1.72,1.06a.78.78,0,0,0-.23.08c-.12.11,0,.19.07.23l.67.25c1.08.39,2.17.74,3.23,1.17a10.38,10.38,0,0,1,3.56,2.11.84.84,0,0,0,.63.28,2.25,2.25,0,0,0,.95,1.21l.26.25h0a6.73,6.73,0,0,0,1.07,1.9,1.72,1.72,0,0,0,.37.28,2.64,2.64,0,0,0,.47,1.68,11.58,11.58,0,0,0,2.66,3.73,2.12,2.12,0,0,1,.26.38,1.14,1.14,0,0,1-.78-.21c-.51-.43-1-.86-1.54-1.27A5.3,5.3,0,0,0,208.45,246.55Z"/><path class="cls-10" d="M211.34,124.71a2.06,2.06,0,0,0,.31.9,17,17,0,0,0,2.65,3.69,40.77,40.77,0,0,1,3.25,3.7,13.18,13.18,0,0,1,2.07,3.9c.71,2,1.44,4,2.16,6,.14.38.3.47.62.3,1-.55,2.1-1,3.09-1.63a10.41,10.41,0,0,0,3.76-3.95,8.24,8.24,0,0,1,.69-1,.49.49,0,0,1,.51.51,5,5,0,0,1-.79,1.47,10.81,10.81,0,0,1-3,3.22,15.26,15.26,0,0,1-3.06,1.64c-1.28.54-1.14,1-1.07,2,0,.12.07.23.09.35a27.15,27.15,0,0,1,.61,5.23v3.11c.86-.3,1.61-.57,2.37-.81a4.82,4.82,0,0,1,1.52-.29,13.79,13.79,0,0,0,5.27-1,5.52,5.52,0,0,0,2.67-2,14.76,14.76,0,0,0,1.45-2.75,8.84,8.84,0,0,1,1.42-2.5h1l-.24.73a3,3,0,0,0-1.14,1.64,20.45,20.45,0,0,1-1.19,2.5,6.35,6.35,0,0,1-2.87,2.81,23.63,23.63,0,0,1-2.7,1c-1.16.4-2.4.08-3.55.47a7.87,7.87,0,0,0-2.91.66,1.64,1.64,0,0,0-1.3,1.66,17.1,17.1,0,0,1-.4,2.36,16.65,16.65,0,0,0-.61,3.05,1.36,1.36,0,0,1-.94.24,3,3,0,0,1,0-.6c.45-1.61.7-3.27,1.06-4.91a5.57,5.57,0,0,0,.12-1.07,11.21,11.21,0,0,1,.17-1.91,4.36,4.36,0,0,0,0-2,4.82,4.82,0,0,1-.13-1.31,23.84,23.84,0,0,0-1.59-7.95c-.5-1.35-1.07-2.68-1.5-4.05a15.76,15.76,0,0,0-3.33-5.91c-.78-.86-1.59-1.69-2.36-2.55a18.73,18.73,0,0,1-3.19-4.92.32.32,0,0,1,.15-.41A2.19,2.19,0,0,1,211.34,124.71Z"/><path class="cls-12" d="M216.66,104.8a3.2,3.2,0,0,1,.42-1.24,10,10,0,0,0,1-4.64,22.82,22.82,0,0,0-.29-2.62,20.48,20.48,0,0,1-.43-3.57,2.55,2.55,0,0,0-.08-.83,3.6,3.6,0,0,1,0-1.9,6.67,6.67,0,0,0,.09-1.19,7.87,7.87,0,0,1,.19-2.27.4.4,0,0,0,0-.24c-.32-1-.06-2.16-.47-3.19s-.68-2.06-1-3.07a10.55,10.55,0,0,1-.61-4.38c.05-.63.16-1.26.27-1.89s.56-.49.94-.56a7.09,7.09,0,0,1,4,1.36,12,12,0,0,1,2.72,2.51,19.62,19.62,0,0,1,3,5.28,8.46,8.46,0,0,1-2.18-1.45c-1.21-.85-2.38-1.76-3.55-2.66a20.2,20.2,0,0,1-3.3-3.3c-.1-.12-.19-.25-.3-.37a.27.27,0,0,0-.39.12,7.93,7.93,0,0,0,.14,4.24c.35,1.11.67,2.23,1.09,3.31a11.62,11.62,0,0,1,.59,5.68,34.73,34.73,0,0,0-.16,4.55,11.45,11.45,0,0,0,.3,2.74,15.79,15.79,0,0,1,.37,5.12,8.06,8.06,0,0,1-1.7,4.66l-.45.55A1,1,0,0,1,216.66,104.8Z"/><path class="cls-12" d="M240.54,93.71a3.32,3.32,0,0,1,.42-1.36c1-2.37,2.08-4.75,3.2-7.08a31.3,31.3,0,0,1,3.63-5.75c-.44,2.1-.9,4.2-1.34,6.3a19.87,19.87,0,0,0-.59,5.1c0,.43,0,.88,0,1.32a2.52,2.52,0,0,1-.07.83,4.47,4.47,0,0,0-.16,1.54q0,1.2,0,2.4a5.17,5.17,0,0,1-.19,1.3,10.12,10.12,0,0,0-.12,1.37l-2.54-2.18a.65.65,0,0,1-.15-.18,14.27,14.27,0,0,1-1.82-3.23A.74.74,0,0,0,240.54,93.71Z"/><path class="cls-10" d="M262.52,67.52a4.4,4.4,0,0,1-.29,1.76,37.65,37.65,0,0,1-1.89,5.44,37.22,37.22,0,0,0-1.94,5.55c-.26,1-.49,1.94-.78,2.9a4.09,4.09,0,0,0-.18,1.3V87.6a2,2,0,0,0,0,.6,10.83,10.83,0,0,1,.22,3.11,7.48,7.48,0,0,0,.2,2.26,2.61,2.61,0,0,1,0,.84c0,1.09,0,2.17,0,3.26a3.66,3.66,0,0,0,.17,1.54.71.71,0,0,1,0,.35,23.91,23.91,0,0,0,.28,3.59,11.61,11.61,0,0,0,.62,2.92,48.94,48.94,0,0,1,2.79-10.18c.81-2.35,1.79-4.63,2.71-6.94a2,2,0,0,1,.62-1,.86.86,0,0,1,.17,1,3.64,3.64,0,0,0-.19,1.18,1,1,0,0,0-.39.58c-1.32,3.26-2.6,6.54-3.63,9.91-.37,1.22-.67,2.46-1,3.7-.09.34-.17.72.19,1-.48.63-1,1.25-1.43,1.88a.64.64,0,0,1-.48.29c-.2-.93-.42-1.86-.58-2.8a16.77,16.77,0,0,1-.41-3.08,1.43,1.43,0,0,0,0-.36,13.84,13.84,0,0,1-.23-3.58,3.85,3.85,0,0,0,0-.48,24.81,24.81,0,0,1-.23-5,5.35,5.35,0,0,0-.18-1.78,2.9,2.9,0,0,1-.06-.84,23.08,23.08,0,0,0-.19-2.74,9.71,9.71,0,0,1,.28-4,5.28,5.28,0,0,1,.19-.93,2,2,0,0,0-.39-2,7,7,0,0,0-.87-1.15,14.44,14.44,0,0,1-2.28-3.5,2.13,2.13,0,0,0-.64-1,2.23,2.23,0,0,1,1-.73,2.27,2.27,0,0,0,.09.59,16,16,0,0,0,1.75,3.26c.57.72,1.17,1.41,1.68,2.17a.37.37,0,0,0,.3.12c.1,0,.18-.15.24-.25a.77.77,0,0,0,.06-.23,22.07,22.07,0,0,1,1.41-4,39.87,39.87,0,0,0,1.79-4.82,5,5,0,0,0,.4-2.09A2,2,0,0,1,262.52,67.52Z"/><path class="cls-12" d="M206.56,239.84a.84.84,0,0,1-.63-.28,10.38,10.38,0,0,0-3.56-2.11c-1.06-.43-2.15-.78-3.23-1.17l-.67-.25c-.11,0-.19-.12-.07-.23a.78.78,0,0,1,.23-.08.26.26,0,0,1,.19,0,1.52,1.52,0,0,0,1.75,0l7-2.13a11.52,11.52,0,0,1,1.17-.23c-.07.14-.15.3,0,.44a8.67,8.67,0,0,0,1,1.23c.78.74,1.53,1.53,2.3,2.29a2.17,2.17,0,0,1,.67,1.61,8.64,8.64,0,0,0,.12,2.27c0,.12-.08.22-.21.24a.83.83,0,0,1-.35,0,23.79,23.79,0,0,1-5.19-1.79C206.82,239.62,206.67,239.69,206.56,239.84Z"/><path class="cls-10" d="M206.56,239.84c.11-.15.26-.22.41-.13a23.79,23.79,0,0,0,5.19,1.79.83.83,0,0,0,.35,0c.13,0,.24-.12.21-.24a8.64,8.64,0,0,1-.12-2.27,2.17,2.17,0,0,0-.67-1.61c-.77-.76-1.52-1.55-2.3-2.29a8.67,8.67,0,0,1-1-1.23c-.12-.14,0-.3,0-.44a.8.8,0,0,1,.55-.07,16.42,16.42,0,0,0,2.54,2.53,4.41,4.41,0,0,1,1.76,3.52c0,.53,0,1.05,0,1.57a1.27,1.27,0,0,0,.81,1.34,12.94,12.94,0,0,1,2,1.23,15.36,15.36,0,0,1,2.93,2.82c.23.27.45.57.7.82.45.45.58.43.88-.11a10,10,0,0,0,.8-1.88.75.75,0,0,1,.28-.51,4.22,4.22,0,0,1,.72,1.21,6.33,6.33,0,0,0-1.4,2.17.86.86,0,0,0,.13.81c.28.43.55.87.85,1.29.73,1,1.52,1.95,2.2,3,1.14,1.72,2.24,3.48,3.33,5.24.65,1.05,1.26,2.12,1.89,3.18,0,.23,0,.51-.21.64s-.47-.15-.66-.33l-.1-.07-.24-.24h0a4.34,4.34,0,0,0-.76-1.61c-.72-1.15-1.43-2.31-2.15-3.47-.61-1-1.19-2-1.88-2.92-.83-1.11-1.63-2.26-2.5-3.35a5.5,5.5,0,0,0-2.13-1.68,6.84,6.84,0,0,0-1.47-.48,15.64,15.64,0,0,1-4.38-1.58c-1-.54-2-1-3-1.42a.37.37,0,0,0-.52.12,2.64,2.64,0,0,1-.47-1.68c1.83.91,3.66,1.83,5.5,2.73a12.77,12.77,0,0,0,4.15,1.11c0,.12.08.14.1.06l-.1-.06a11.51,11.51,0,0,0-3.45-3.43,11.24,11.24,0,0,0-2.92-1.36c-.94-.33-1.92-.53-2.86-.87a4.1,4.1,0,0,0-1.86-.36h0l-.26-.25A2.25,2.25,0,0,1,206.56,239.84Z"/><path class="cls-10" d="M240.54,93.71a.74.74,0,0,1,.27.38,14.27,14.27,0,0,0,1.82,3.23.65.65,0,0,0,.15.18l2.54,2.18a10.12,10.12,0,0,1,.12-1.37,5.17,5.17,0,0,0,.19-1.3q0-1.2,0-2.4a4.47,4.47,0,0,1,.16-1.54,2.52,2.52,0,0,0,.07-.83c0-.44,0-.89,0-1.32a19.87,19.87,0,0,1,.59-5.1c.44-2.1.9-4.2,1.34-6.3A4.66,4.66,0,0,1,249,78a9.79,9.79,0,0,1-.5,2.45c-.42,2-1,4-1.33,6.07a8.49,8.49,0,0,0-.31,2.61,30.26,30.26,0,0,0-.24,5.63,2.17,2.17,0,0,1,0,.36,24.11,24.11,0,0,0-.23,5c0,.6-.08,1.19-.16,1.79a13.18,13.18,0,0,0,0,3.71,9.76,9.76,0,0,1,.14,1.42c0,1.41,0,2.81,0,4.22a5.34,5.34,0,0,0,.2,2,.81.81,0,0,1,0,.35,21.78,21.78,0,0,0,.74,5,26.57,26.57,0,0,0,2.48,6.86c.16.31.27.68.65.82a.67.67,0,0,1-.72.72,1.63,1.63,0,0,1-.51-.8,45.76,45.76,0,0,1-2.3-5.78c-.36-1.23-.6-2.47-.84-3.73a17.18,17.18,0,0,0-.4-2.47,2.41,2.41,0,0,1-.05-.71,10.66,10.66,0,0,0-.21-2.87,3,3,0,0,1,0-1c0-2.57-.06-5.13,0-7.7a2.23,2.23,0,0,0-1-2.12,13.66,13.66,0,0,1-3.78-4.41.92.92,0,0,0-.47-.52A2.71,2.71,0,0,1,240.54,93.71Z"/><path class="cls-12" d="M261.52,68.13a5,5,0,0,1-.4,2.09A39.87,39.87,0,0,1,259.33,75a22.07,22.07,0,0,0-1.41,4,.77.77,0,0,1-.06.23c-.06.1-.14.22-.24.25a.37.37,0,0,1-.3-.12c-.51-.76-1.11-1.45-1.68-2.17A16,16,0,0,1,253.89,74a2.27,2.27,0,0,1-.09-.59,2.65,2.65,0,0,1,.34-.33c2.11-1.46,4.22-2.93,6.34-4.38A3.15,3.15,0,0,1,261.52,68.13Z"/><path class="cls-9" d="M175.45,132.56a1.92,1.92,0,0,1,1.05.22c2.75.95,5.57,1.69,8.37,2.48,1.46.41,2.84,1.08,4.27,1.59a28,28,0,0,1,6.25,3.51,1.3,1.3,0,0,1,.56.62,1.69,1.69,0,0,1-.34-.1,31.89,31.89,0,0,0-7.15-2.83,62.28,62.28,0,0,1-7.63-2.59A39.8,39.8,0,0,1,176,133C175.8,132.89,175.56,132.8,175.45,132.56Z"/><path class="cls-13" d="M199.84,168.69c-.83-.29-1.67-.54-2.49-.86-1-.37-1.93-.77-2.88-1.19a12.45,12.45,0,0,1-2.89-1.9c-1.91-1.6-3.58-3.44-5.36-5.17a3.65,3.65,0,0,0-1.2-.78,1.86,1.86,0,0,1-1.12-1.17,8.36,8.36,0,0,1,3.35,1c-.18,0-.4,0-.56.14.08.29.33.45.52.64,1,1,1.93,1.93,2.88,2.9a15.49,15.49,0,0,0,2,1.67,13.86,13.86,0,0,0,2.62,1.16,1.86,1.86,0,0,0,.72.8,20.26,20.26,0,0,0,2.22,1.4c.58.27,1.14.58,1.72.86A.69.69,0,0,1,199.84,168.69Z"/><path class="cls-10" d="M265.89,233.56a.61.61,0,0,0-.65-.2c-1.82.41-3.65.8-5.46,1.26a13.66,13.66,0,0,0-2.23.85,20,20,0,0,1-5.32,1.76c-.24,0-.29.23-.33.44a4.85,4.85,0,0,1-.74-1.19,8.32,8.32,0,0,0,3.61-.74c.94-.31,1.84-.75,2.76-1.13a31.22,31.22,0,0,1,5.27-1.55A27.35,27.35,0,0,0,267,232a5.86,5.86,0,0,1,2.8-.55Z"/><path class="cls-9" d="M200,143.73a.54.54,0,0,1,.56.07c1.67,1.34,3.47,2.52,5,4a16.68,16.68,0,0,1,1.61,1.42c.78,1,1.55,1.91,2.29,2.89a5.45,5.45,0,0,1,1.23,1.74,6,6,0,0,1-.56-.44q-4.74-4.69-9.7-9.15A6,6,0,0,1,200,143.73Z"/><path class="cls-16" d="M296.28,183.87a1.82,1.82,0,0,0-1.28-.12c-1,.09-2,.14-3,.26-1.79.21-3.57.45-5.36.69l-.06-.1a5.46,5.46,0,0,1,1.88-.32c1.95-.24,3.88-.6,5.84-.7a23.47,23.47,0,0,1,5.49.4,1.2,1.2,0,0,1,.32.16,4.6,4.6,0,0,1-1.05,0A13.13,13.13,0,0,0,296.28,183.87Z"/><path class="cls-9" d="M198.05,142.27a3.79,3.79,0,0,1,1.85,1.13c.06.06,0,.21.08.33A7.67,7.67,0,0,1,198.05,142.27Z"/><path class="cls-16" d="M283.75,185.42l-.28-.06a8.88,8.88,0,0,1,3.13-.76l.06.1Z"/><path class="cls-9" d="M196,141a3.5,3.5,0,0,1,2.08,1.29A7.47,7.47,0,0,1,196,141Z"/><path class="cls-16" d="M158.84,179.57l-1.48,0a2.08,2.08,0,0,0-1.34-.2.37.37,0,0,1,.47-.26C157.28,179.24,158.06,179.41,158.84,179.57Z"/><path class="cls-15" d="M287.11,163.42l.45-.23a3.54,3.54,0,0,1-.72,1A1,1,0,0,1,287.11,163.42Z"/><path class="cls-16" d="M200.57,235.77a1.52,1.52,0,0,1-1.75,0Z"/><path class="cls-16" d="M301.33,184.4a1.42,1.42,0,0,1-1.21-.26A1.85,1.85,0,0,1,301.33,184.4Z"/><path class="cls-16" d="M303.29,184.87a1,1,0,0,1-1-.25A1.29,1.29,0,0,1,303.29,184.87Z"/><path class="cls-16" d="M302.3,184.62a1,1,0,0,1-1-.22A1.18,1.18,0,0,1,302.3,184.62Z"/><path class="cls-9" d="M214.24,222.51l.26.11c0,.13,0,.26,0,.38A.46.46,0,0,1,214.24,222.51Z"/><path class="cls-10" d="M156,179.82l.14.2C156.07,180,156,179.94,156,179.82Z"/><path class="cls-9" d="M214,222.25a.36.36,0,0,1,.26.25C214.09,222.51,214,222.39,214,222.25Z"/><path class="cls-10" d="M178.07,157.87a.4.4,0,0,1,.27.28A.3.3,0,0,1,178.07,157.87Z"/><polygon class="cls-9" points="211.53 154.74 211.6 154.81 211.54 154.81 211.53 154.74"/><path class="cls-9" d="M211.3,154.49a.11.11,0,0,1,.09.09h-.08Z"/><polygon class="cls-9" points="211.07 154.25 211.15 154.33 211.07 154.32 211.07 154.25"/><polygon class="cls-9" points="210.85 154.01 210.91 154.08 210.84 154.08 210.85 154.01"/><path class="cls-9" d="M224,130.87a.24.24,0,0,1,.1.28A.21.21,0,0,1,224,130.87Z"/><path class="cls-10" d="M171,129.18a.45.45,0,0,1,.35.25A.44.44,0,0,1,171,129.18Z"/><path class="cls-13" d="M221,162a1.36,1.36,0,0,0,.94-.24,4.31,4.31,0,0,0,.72,0c.67-.11,1.34-.21,2-.37a5.74,5.74,0,0,1,1.43-.09.71.71,0,0,1,.67.43,7.54,7.54,0,0,1,.38.75,5,5,0,0,0,1.61,2.07c.95.8,1.94,1.54,2.91,2.31a6.83,6.83,0,0,1,2.53,3.42,14,14,0,0,0,1.57,3.23,6.57,6.57,0,0,1,1.18,4,8.6,8.6,0,0,0,.21,3.11,2.38,2.38,0,0,1,0,.6c0,.76,0,1.52,0,2.28a4.82,4.82,0,0,1-.4,2c-.46,1.2-1.05,2.34-1.62,3.49a46.63,46.63,0,0,0-2,4.72c-.2,0-.26-.17-.34-.3-.81-1.29-1.62-2.57-2.42-3.87a34.53,34.53,0,0,0-5.74-7.06c-.55-.53-1.08-1.08-1.62-1.62-.2-.19-.39-.4-.61-.58-1-.81-2.08-1.63-3.12-2.42-1.21-.92-2.38-1.9-3.59-2.81a24.37,24.37,0,0,0-5.15-2.84c-1.73-.74-3.47-1.44-5.21-2.17-.88-.38-1.74-.81-2.63-1.18-1.93-.79-3.77-1.75-5.62-2.71a.85.85,0,0,1-.49-.64,1.91,1.91,0,0,1,.95,0,4.51,4.51,0,0,0,2.25,0,2.06,2.06,0,0,1,.59-.09,38.36,38.36,0,0,0,4.79-.28,18.92,18.92,0,0,0,2.25-.27c2.2-.38,4.4-.75,6.59-1.18,1.36-.27,2.72-.63,4.07-.94a1.85,1.85,0,0,1,1.1-.25.61.61,0,0,0,.6-.25A1.79,1.79,0,0,0,221,162Z"/><path class="cls-10" d="M260.59,169.19c.28,0,.55,0,.73-.28s.44-.65.65-1l2-3.05a.6.6,0,0,0,.25-.51h0l.25-.25h0a.5.5,0,0,0,.25-.49h0l.25-.24h0l.48-.25a1.37,1.37,0,0,1,.48.81,13.28,13.28,0,0,1,.75,4.47,4.58,4.58,0,0,1-.86,2.44c-.53.75-1.15,1.44-1.66,2.2a30.93,30.93,0,0,0-2.77,5c-.45,1-.85,2.07-1.34,3.08-1.16,2.37-2.36,4.74-3.54,7.1-.16.32-.35.64-.53.94a.22.22,0,0,1-.21.05c-.06,0-.15-.1-.15-.15a2.32,2.32,0,0,1,.05-.59,22.6,22.6,0,0,0,.63-6.66.76.76,0,0,0-.24-.65v-.93a.63.63,0,0,0-.24-.51,4.42,4.42,0,0,0-.25-1.69,1.45,1.45,0,0,0,.18-.16l2.52-4.37a1.3,1.3,0,0,0,.19-.68,5,5,0,0,0-.19-1.54,16.32,16.32,0,0,0-1.19-2.75,9.32,9.32,0,0,1-.82-2.25,24.83,24.83,0,0,1-.69-5.57c0-.92,0-1.84,0-2.76a2.89,2.89,0,0,1,0-.84,6.8,6.8,0,0,0,.19-2.15c0-1.12,0-2.24,0-3.37a9,9,0,0,1,.55-3.29c.15-.45.35-.89.52-1.34a8.32,8.32,0,0,0,.64-3.27c0-.8,0-1.61,0-2.41a2.58,2.58,0,0,0-.25-1.16,1.15,1.15,0,0,1,.92-1c0,.44.05.88.06,1.32a13.55,13.55,0,0,0,.15,1.55,7.71,7.71,0,0,1,0,2.75,15.66,15.66,0,0,1-1,3.21,6.69,6.69,0,0,0-.6,3.16c.06.72,0,1.44,0,2.17a7.8,7.8,0,0,1-.16,1.79,9.72,9.72,0,0,0-.07,1.8,11.14,11.14,0,0,1-.19,2.63,2.64,2.64,0,0,0,0,1.31,12.08,12.08,0,0,1,.19,1.79c.25,2,.37,4,1.44,5.77a11,11,0,0,1,1.06,2.55c.13.43.17.42.63.07.45-.15.45-.15.47-.73h0c.47-.15.47-.15.47-.76Z"/><path class="cls-10" d="M260.09,170.4c0,.58,0,.58-.47.73A.76.76,0,0,1,260.09,170.4Z"/><path class="cls-10" d="M260.56,169.64c0,.61,0,.61-.47.76A.84.84,0,0,1,260.56,169.64Z"/><path class="cls-10" d="M285.17,142.43a15.3,15.3,0,0,0,.38,3.44,15,15,0,0,1,.36,3.2,2.45,2.45,0,0,1-.29,1.15,6.32,6.32,0,0,1-2,2.38,1.87,1.87,0,0,0-.46.38,25,25,0,0,1-3.28,3,38,38,0,0,1-3.25,2.84,3.5,3.5,0,0,0-.52.5c-1.56,1.56-3.15,3.1-4.67,4.69-.91.95-1.72,2-2.57,3a5.62,5.62,0,0,1-.58.61c-.29.23-.3.9-.81.69-.35-.14-.19-.65-.17-1a7.38,7.38,0,0,0-.43-2.59c-.27-.83-.53-1.67-.79-2.51a7.44,7.44,0,0,1,1.4-1.94c1-1.34,2-2.67,3.11-3.95.73-.85,1.56-1.61,2.27-2.48,1.81-2.2,3.92-4.11,5.93-6.12,1-1,2.12-1.82,3.16-2.75.69-.61,1.36-1.24,2.08-1.81A5.63,5.63,0,0,1,285.17,142.43Z"/><path class="cls-9" d="M196.66,120c0,1.48,0,3,0,4.45a2.38,2.38,0,0,1-.08.71,10.76,10.76,0,0,1-2.36,4.4,11.21,11.21,0,0,0-1.08,1.41c-.3.07-.46-.15-.65-.28-2.49-1.6-5-3.19-7.45-4.82-.77-.51-1.44-1.14-2.17-1.71-1.74-1.35-3.16-3.06-5-4.28-.83-.55-1.66-1.12-2.52-1.62a20.43,20.43,0,0,1-4.61-3.61c-.63-.67-1.24-1.37-1.82-2.08-.21-.25.07-.3.26-.36l1,0a10.76,10.76,0,0,1,3.37,1.55l.6.4a21.29,21.29,0,0,0,9.55,3.63c1.38.2,2.77.33,4.16.49a46.26,46.26,0,0,1,8.58,1.64A1,1,0,0,0,196.66,120Z"/><path class="cls-10" d="M170.16,112.28l-1,0V112C169.53,112.07,169.9,112,170.16,112.28Z"/><path class="cls-9" d="M257.19,140.21a2.58,2.58,0,0,1,.25,1.16c0,.8,0,1.61,0,2.41a8.32,8.32,0,0,1-.64,3.27c-.17.45-.37.89-.52,1.34a9,9,0,0,0-.55,3.29c0,1.13,0,2.25,0,3.37a6.8,6.8,0,0,1-.19,2.15,2.89,2.89,0,0,0,0,.84c0,.92,0,1.84,0,2.76a24.83,24.83,0,0,0,.69,5.57,9.32,9.32,0,0,0,.82,2.25,16.32,16.32,0,0,1,1.19,2.75,5,5,0,0,1,.19,1.54,1.3,1.3,0,0,1-.19.68L255.69,178a1.45,1.45,0,0,1-.18.16c-.32-.65-.63-1.3-1-1.94-.42-.8-.48-.82-1.09-.22s-1.24,1.25-1.88,1.86a50.82,50.82,0,0,0-3.62,4,8.06,8.06,0,0,1-1.92,1.61,12.15,12.15,0,0,1-3.66,1.46c-1.36.32-2.7.74-4,1.09a1.82,1.82,0,0,0-1.35,1.08c-.48,1.23-1.13,2.39-1.71,3.57a15.45,15.45,0,0,0-1.4,4.07,1.14,1.14,0,0,0,.06.93,13,13,0,0,1,1,2.16c1.47,2.85,2.73,5.79,3.93,8.76.17.43.35.46.7.13l.6-.59c1.13-1.14,2.22-2.3,3.29-3.49a21.31,21.31,0,0,0,3.33-4.68,42.34,42.34,0,0,1,2.79-4.9,15.67,15.67,0,0,0,2.06-4.83,16.33,16.33,0,0,1,2-4.75c.75-1.18,1.41-2.42,2.11-3.63a.63.63,0,0,1,.24.51v.93a22,22,0,0,0-3.65,7.61,12.12,12.12,0,0,1-1.72,4,45.35,45.35,0,0,0-3.17,5.65c-.09.18-.18.35-.28.52s-.38.39-.17.62a.65.65,0,0,0,.68.09,7.16,7.16,0,0,1,1.9-.22,13.37,13.37,0,0,0,1.88-.3,1.67,1.67,0,0,0,.73-.39A15.75,15.75,0,0,0,254,197a13.11,13.11,0,0,1,2.43-2.45l.24.94a10.3,10.3,0,0,0-2,1.93c-.43.54-.9,1-1.35,1.53a3.86,3.86,0,0,1-2.52,1.3,14.06,14.06,0,0,1-3.1.31,2.47,2.47,0,0,0-2.45,1.21,14.17,14.17,0,0,1-1.35,1.54,11.05,11.05,0,0,0-1.43,1.62,3.75,3.75,0,0,1-1,.9,14.4,14.4,0,0,0-1.67,1.55.89.89,0,0,0-.25,1c.42,1.29.92,2.57,1.24,3.89a.39.39,0,0,0,.68.15c.39-.35.76-.71,1.12-1.09a12.5,12.5,0,0,1,5-3.31,8.81,8.81,0,0,0,2.4-1.33c.61-.46,1.24-.89,1.81-1.39.91-.78,2.12-.94,3.1-1.55a1.57,1.57,0,0,1,1-.28,1.49,1.49,0,0,1-.24,1c-.7.27-1.41.53-2.11.82a9.11,9.11,0,0,0-2.27,1.52,11.52,11.52,0,0,1-3.17,1.9,12.52,12.52,0,0,0-4.76,3.12,5.65,5.65,0,0,1-1.08.93,3,3,0,0,0-1.06,1.12,3.3,3.3,0,0,0,.09.94c.24,1,.43,1.94.64,2.91.12.57.23,1.14.35,1.72l.6,2.87a4.36,4.36,0,0,1,.2.79c.09,1.37.37,2.71.57,4.06a2.16,2.16,0,0,0,0,.57,3.78,3.78,0,0,1,.05,1.83,4,4,0,0,1-.68-.18c-1-.49-2-1-3.08-1.51a.45.45,0,0,0,.2-.41q-.22-1.47-.48-2.94c0-.1-.13-.19-.2-.29a17.67,17.67,0,0,0-.08-1.78c-.19-1.33-.4-2.65-.67-4a10.24,10.24,0,0,0-.94-3.17,11.8,11.8,0,0,0-1.63-4.6,9.12,9.12,0,0,0-2.45-2.62c-.59-.48-1.23-.9-1.77-1.43a6.92,6.92,0,0,0-5-2,1.39,1.39,0,0,1-.49-1.2h.12l3.23.89a.42.42,0,0,0,.33-.05c.17-.11.09-.28,0-.43l-.16-.32a41.28,41.28,0,0,0-3.68-5.9c-.37-.52-.78-1-1.11-1.56a13.4,13.4,0,0,0-1.75-2.28,10.26,10.26,0,0,1-1.52-1.7,1.57,1.57,0,0,0-.8-.7,5.59,5.59,0,0,1-1.2-1.94.81.81,0,0,1,.64.26c1.31,1.31,2.62,2.61,3.91,3.93a9.4,9.4,0,0,1,.94,1.24c1.2,1.75,2.41,3.5,3.59,5.26.37.56.69,1.17,1,1.76.45.81.87,1.63,1.35,2.42a8.34,8.34,0,0,0,2.36,2.52,6.22,6.22,0,0,1,.73.63c.49.47,1,1,1.45,1.44.32.29.53.71,1,.83.37-.46,0-.89-.07-1.33a22.42,22.42,0,0,0-1-3.95c-.8-2.26-1.51-4.56-2.33-6.81a6.92,6.92,0,0,0-2.3-3,16.58,16.58,0,0,0-1.68-1.15,10,10,0,0,1-3.81-4.07,7,7,0,0,0-1-1.35c-1.86-2.28-4.09-4.19-6.1-6.32a26,26,0,0,0-2.8-2.44,1.8,1.8,0,0,1-.26-1,1,1,0,0,1,.56.19,33.76,33.76,0,0,1,3.28,2.81c2.18,2,4.06,4.22,6.1,6.32a5.7,5.7,0,0,1,1.07,1.59A5.31,5.31,0,0,0,228,191c.36.33.69.67,1,1a11.44,11.44,0,0,0,2.21,1.43.28.28,0,0,0,.22,0,.21.21,0,0,0,.08-.31c-.45-.81-.87-1.63-1.38-2.4a36.83,36.83,0,0,0-3-4.32c-.77-.87-1.47-1.79-2.26-2.64s-1.81-1.83-2.72-2.74a7.3,7.3,0,0,0-.71-.65c-1.26-1-2.54-1.94-3.81-2.91a37.2,37.2,0,0,0-3.66-2.71,7.49,7.49,0,0,0-2.58-1.23,1.36,1.36,0,0,0-.81-.46,2.71,2.71,0,0,1-.67-.2c-1.31-.66-2.62-1.3-3.94-1.93a5.45,5.45,0,0,0-1.56-.54c-.25-.36-.63-.21-1-.27a9.26,9.26,0,0,0-2.58-1.17,8.51,8.51,0,0,0-1-.28.69.69,0,0,0-.43-.53c-.58-.28-1.14-.59-1.72-.86a20.26,20.26,0,0,1-2.22-1.4,1.86,1.86,0,0,1-.72-.8l1.9.31a.85.85,0,0,0,.49.64c1.85,1,3.69,1.92,5.62,2.71.89.37,1.75.8,2.63,1.18,1.74.73,3.48,1.43,5.21,2.17a24.37,24.37,0,0,1,5.15,2.84c1.21.91,2.38,1.89,3.59,2.81,1,.79,2.08,1.61,3.12,2.42.22.18.41.39.61.58.54.54,1.07,1.09,1.62,1.62a34.53,34.53,0,0,1,5.74,7.06c.8,1.3,1.61,2.58,2.42,3.87.08.13.14.3.34.3a46.63,46.63,0,0,1,2-4.72c.57-1.15,1.16-2.29,1.62-3.49a4.82,4.82,0,0,0,.4-2c0-.76,0-1.52,0-2.28a2.38,2.38,0,0,0,0-.6,8.6,8.6,0,0,1-.21-3.11,6.57,6.57,0,0,0-1.18-4,14,14,0,0,1-1.57-3.23,6.83,6.83,0,0,0-2.53-3.42c-1-.77-2-1.51-2.91-2.31a5,5,0,0,1-1.61-2.07,7.54,7.54,0,0,0-.38-.75.71.71,0,0,0-.67-.43,5.74,5.74,0,0,0-1.43.09c-.66.16-1.33.26-2,.37a4.31,4.31,0,0,1-.72,0,16.65,16.65,0,0,1,.61-3.05,17.1,17.1,0,0,0,.4-2.36,1.64,1.64,0,0,1,1.3-1.66,7.87,7.87,0,0,1,2.91-.66c1.15-.39,2.39-.07,3.55-.47a23.63,23.63,0,0,0,2.7-1,6.35,6.35,0,0,0,2.87-2.81,20.45,20.45,0,0,0,1.19-2.5,3,3,0,0,1,1.14-1.64,1.45,1.45,0,0,0,.28.65,32.23,32.23,0,0,1,2.62,5.77,24,24,0,0,1,1,4.43,13.81,13.81,0,0,1,.29,2.13c0,.09.13.19.2.28,0,.48,0,.95,0,1.42a22,22,0,0,1-.22,4.13,2.1,2.1,0,0,1-1.14-.33,20.19,20.19,0,0,0-4.71-1.74c-1.36-.31-2.73-.57-4.1-.82-.9-.17-1.81-.26-2.71-.41a9.76,9.76,0,0,0-2.16-.05.37.37,0,0,0-.31.53,3.49,3.49,0,0,0,.2.44,6.5,6.5,0,0,0,1.86,2.17,25.23,25.23,0,0,1,3.12,2.61,7.69,7.69,0,0,1,2.1,2.88c.2.57.4,1.13.64,1.68a10.32,10.32,0,0,0,.66,1.28.65.65,0,0,0,.81.31,16.77,16.77,0,0,1,1.87-.39,7,7,0,0,0,3.6-1.78,22.53,22.53,0,0,0,3.64-4,1.44,1.44,0,0,1,.72.49,24.83,24.83,0,0,1-3.56,3.9,7.57,7.57,0,0,1-4.33,2.14,7.6,7.6,0,0,0-1.17.25c-.5.13-.67.4-.47.9a5.56,5.56,0,0,1,.38,2.35,1.34,1.34,0,0,0,0,.6,5.54,5.54,0,0,1,.18,1.9,11.14,11.14,0,0,0,.06,1.92,6.66,6.66,0,0,1,0,3.2c-.13.5.19.76.7.64.23-.06.45-.15.68-.22a17.31,17.31,0,0,1,2.31-.66,11.29,11.29,0,0,0,3.91-1.47,7.07,7.07,0,0,0,2.19-1.85,22.39,22.39,0,0,1,2.41-2.83c.9-.86,1.77-1.75,2.65-2.63l.58-.6a.4.4,0,0,0,.05-.55,18.86,18.86,0,0,0-2.06-2.8c-1.27-1.28-2.48-2.63-3.87-3.78-.11-.09-.14-.28-.2-.42a2.52,2.52,0,0,0,.92-1.07,52.92,52.92,0,0,0,2.34-5,24.5,24.5,0,0,0,1.34-5.11c.39-2.28.62-4.59,1.2-6.84a30,30,0,0,1,3.75-8.69A2.13,2.13,0,0,1,257.19,140.21Z"/><path class="cls-13" d="M230.45,137.14a.49.49,0,0,0-.51-.51c.05-.37-.32-.45-.47-.67a2.81,2.81,0,0,0,1.32-.8,16.7,16.7,0,0,0,3.2-3.71,20.21,20.21,0,0,0,2.29-5.39,19.49,19.49,0,0,1,1.63-4.37,18.21,18.21,0,0,1,2.81-3.88c.81-.83,1.64-1.64,2.47-2.46a.54.54,0,0,1,.43-.22c0,.11.06.24,0,.33-.58,1.36-1.12,2.75-1.78,4.07s-1.36,2.35-2,3.52a7.12,7.12,0,0,0-1.19,3.23,2.27,2.27,0,0,0-.47,1.22,6.91,6.91,0,0,0-.23,1.17,23,23,0,0,0,.34,5.85,18.86,18.86,0,0,1,.62,5,3.61,3.61,0,0,0,.15,1.42,1.32,1.32,0,0,1,0,.71,10.11,10.11,0,0,0-.2,2.74h0a.5.5,0,0,0-.25.49h-.73a1.39,1.39,0,0,0-.34-.87,19.57,19.57,0,0,0-1.66-2.18,43.45,43.45,0,0,0-4.66-4.44A1.07,1.07,0,0,0,230.45,137.14Z"/><path class="cls-14" d="M238.87,144.36a10.11,10.11,0,0,1,.2-2.74,1.32,1.32,0,0,0,0-.71,3.61,3.61,0,0,1-.15-1.42,18.86,18.86,0,0,0-.62-5,23,23,0,0,1-.34-5.85,6.91,6.91,0,0,1,.23-1.17,5.25,5.25,0,0,1,.71,1.87,32.61,32.61,0,0,0,2.68,7.26,2.72,2.72,0,0,1,0,2.83l-1.71,3.42A4.9,4.9,0,0,1,238.87,144.36Z"/><path class="cls-14" d="M260.34,105.3c-.36-.27-.28-.65-.19-1,.31-1.24.61-2.48,1-3.7,1-3.37,2.31-6.65,3.63-9.91a1,1,0,0,1,.39-.58c-.14,1-.29,2-.41,3.07-.09.75-.15,1.5-.28,2.25a18,18,0,0,1-1.68,5.46A33.08,33.08,0,0,1,260.34,105.3Z"/><path class="cls-17" d="M245.43,133.48a2.72,2.72,0,0,1,1.32-1.81A3.92,3.92,0,0,1,245.43,133.48Z"/><path class="cls-14" d="M238.63,144.84a.5.5,0,0,1,.25-.49v.49Z"/><path class="cls-9" d="M251.16,236.48a4.85,4.85,0,0,0,.74,1.19c.21.34.42.68.61,1a5,5,0,0,1,.84,3.08,5.11,5.11,0,0,0-2.3,1.24,33.38,33.38,0,0,1-5.2,3.66,7.12,7.12,0,0,1-4,1.14,10.51,10.51,0,0,1-2.62-.22h-.12c-1.73,0-3.46,0-5.18,0-.79,0-.79.07-.65-.75,0,0,0-.07,0-.11a60.06,60.06,0,0,0,.25-7c0-.35-.14-.7-.19-1.06a.63.63,0,0,1,.45-.75,3.74,3.74,0,0,1,1.41-.29,7.78,7.78,0,0,0,2-.17,3.63,3.63,0,0,1,1.43,0,14.75,14.75,0,0,0,4.3,0,13.06,13.06,0,0,0,3.23-.87,8.72,8.72,0,0,1,4-.67c.24,0,.48,0,.72,0A.65.65,0,0,0,251.16,236.48Z"/><path class="cls-11" d="M264,202a.69.69,0,0,1,.24.65,10.15,10.15,0,0,0,.63,3.27,7,7,0,0,0,.6,1.31c.74,1.28,1.42,2.6,2.13,3.9a1.78,1.78,0,0,1,0,1.72,50.43,50.43,0,0,0-2.43,7.4c-.28,1-.62,2.07-.9,3.11a1.55,1.55,0,0,1-.69.92q-2.52,1.83-5,3.74c-.72.56-1.36,1.23-2.08,1.8-1.83,1.45-3.37,3.2-5.05,4.81-.11.11-.21.26-.41.2a.55.55,0,0,1-.1-.55,24.27,24.27,0,0,1,.75-3.87c.39-1.09.79-2.19,1.12-3.3a8.18,8.18,0,0,0,.51-2.69c.05-.07.07-.15.13-.2a9.67,9.67,0,0,1,1.06-1,9.06,9.06,0,0,0,1.88-2,22.21,22.21,0,0,0,3.2-5.31c.14-.32.27-.66.41-1a30.49,30.49,0,0,0,1.28-3.33,4,4,0,0,0,.51-1.68c.36-.28.26-.73.39-1.09a38,38,0,0,0,1.35-5.16A4.62,4.62,0,0,1,264,202Z"/><path class="cls-11" d="M264.68,199.33c.49-.91,1-1.83,1.5-2.72a8.2,8.2,0,0,1,1.07-1.43c.82-.92,1.59-1.89,2.39-2.82.34-.39.71-.76,1.09-1.12,1.14-1.06,2.11-2.28,3.17-3.41.25-.26.48-.56.89-.53a2.89,2.89,0,0,1,0,.72,23.5,23.5,0,0,0-.21,5,5.37,5.37,0,0,0,.62,2.18,29.22,29.22,0,0,1,1,3,1.35,1.35,0,0,1-.4,1.52,16.63,16.63,0,0,0-3,3.57,50.78,50.78,0,0,0-2.9,5.26c-.39.83-.82,1.64-1.21,2.41-.39.06-.41-.2-.49-.35-.68-1.31-1.33-2.65-2.07-3.94a7.35,7.35,0,0,1-.94-3.07c-.07-.79-.23-1.58-.24-2.38a2.28,2.28,0,0,0-.23-.68C264.67,200.13,264.67,199.73,264.68,199.33Z"/><path class="cls-9" d="M253.56,242.77c-.14.62-.27,1.24-.4,1.86a15,15,0,0,1-2.23,5.12c-.62,1-1.29,1.91-1.94,2.87l-.25.23-.21,0c-1,.27-2.08.56-3.13.81s-2,.41-2.93.62c-.19,0-.39.11-.58.17a22.71,22.71,0,0,1-4.1.81c-1.62.21-3.23.52-4.85.8-.58.1-1.16.24-1.82.38a2.69,2.69,0,0,1,.15-1.18c.49-1.78,1-3.55,1.45-5.33.09-.31.11-.63.18-.94a.58.58,0,0,1,.49-.47,5.92,5.92,0,0,1,.84-.05l5.3,0a6.88,6.88,0,0,1,1.43.15,6.46,6.46,0,0,0,3.75-.55,19.57,19.57,0,0,0,4.74-2.81c.94-.74,1.91-1.45,2.88-2.16A1.52,1.52,0,0,1,253.56,242.77Z"/><path class="cls-9" d="M215,222.73a4,4,0,0,1,1.95.48,16.83,16.83,0,0,1,3.53,2.23,23.47,23.47,0,0,0,6.43,3.4c.45.16,1,0,1.36.37,0,.06-.12.16-.1.19a1.29,1.29,0,0,0,.28.38,12.91,12.91,0,0,1,3.66,6.64,14.83,14.83,0,0,1,.51,4c0,1.44,0,2.89,0,4.34a5.92,5.92,0,0,1,0,.84.44.44,0,0,1-.2.28c-.11.06-.21,0-.27-.15-.16-.32-.33-.64-.49-1a9.7,9.7,0,0,0-2-2.81,28,28,0,0,0-2.65-2.45,9,9,0,0,1-2-2.37c-.61-1-1.23-2-1.74-3a42.84,42.84,0,0,0-4.07-6.24c-.83-1.13-1.74-2.2-2.53-3.36C216.1,223.88,215.39,223.44,215,222.73Z"/><path class="cls-10" d="M264,202a4.62,4.62,0,0,0-.42,1.71,38,38,0,0,1-1.35,5.16c-.13.36,0,.81-.39,1.09a7.82,7.82,0,0,0-2,1.58,4.27,4.27,0,0,1-.44.41c-1.35,1.05-2.73,2.07-4.07,3.14a23.56,23.56,0,0,1-4.77,2.75,5.11,5.11,0,0,1-1,.31,23.14,23.14,0,0,1-2.46.46c-.52,0-1,.23-1.53.26s-.69-.2-.54-.65c.37-1.05.76-2.1,1.13-3.16a.74.74,0,0,1,.73-.52,8.11,8.11,0,0,0,1.54-.15,8.7,8.7,0,0,0,4.65-3.41,12.28,12.28,0,0,0,2-3.78,1.85,1.85,0,0,1,1.1-1.2c.22-.1.43-.22.64-.33a33.71,33.71,0,0,0,5.67-3.78,4.5,4.5,0,0,1,1.68-1.1C264.18,201.2,263.88,201.56,264,202Z"/><path class="cls-9" d="M229,229.25l9.25,0a8,8,0,0,1,2.47.44,22.27,22.27,0,0,1,5.74,2.36c.15.1.3,0,.4-.15a.83.83,0,0,1,.22,0,1.75,1.75,0,0,0,.75.7l1.95,2.16a.52.52,0,0,1-.4.24,9.44,9.44,0,0,0-2.68.58,22.28,22.28,0,0,1-3.31,1,23.83,23.83,0,0,1-3.59.08c-.84,0-1.68,0-2.52,0a11,11,0,0,0-3.32.4c-.62.17-.76.1-.93-.56a19.1,19.1,0,0,0-1.16-3.39A9.67,9.67,0,0,0,229,229.25Z"/><path class="cls-10" d="M247.81,232.61a1.75,1.75,0,0,1-.75-.7,1.6,1.6,0,0,0,.69-.65,12,12,0,0,0,1.56-3.72,6.69,6.69,0,0,0,.17-1.66.47.47,0,0,0-.42-.49,9,9,0,0,1-2-.68c-.71-.36-.8-.34-1.31.22a3.11,3.11,0,0,0-.23.28l-1.23,1.61a.79.79,0,0,1-.51.28c-.2-1.35-.48-2.69-.57-4.06a4.36,4.36,0,0,0-.2-.79c.33,0,.63,0,.74-.44s.31-.83.42-1.25a1,1,0,0,1,.81-.75c1.31-.34,2.67-.43,4-.7a11.43,11.43,0,0,0,2.95-1,31.87,31.87,0,0,0,4.94-3.16c1-.76,1.94-1.52,2.88-2.33a3.37,3.37,0,0,1,1.57-1A30.49,30.49,0,0,1,260,215c-.14.33-.27.67-.41,1a22.21,22.21,0,0,1-3.2,5.31,9.06,9.06,0,0,1-1.88,2,9.67,9.67,0,0,0-1.06,1c-.06,0-.08.13-.13.2a1.7,1.7,0,0,0-.95.25c-.6.08-1.08.51-1.7.55-.25,0-.39.25-.43.51a3.87,3.87,0,0,0,0,.48,7.61,7.61,0,0,1-.93,3.67C248.81,230.79,248.3,231.69,247.81,232.61Z"/><path class="cls-13" d="M261.28,211.63a3.37,3.37,0,0,0-1.57,1c-.94.81-1.91,1.57-2.88,2.33a31.87,31.87,0,0,1-4.94,3.16,11.43,11.43,0,0,1-2.95,1c-1.32.27-2.68.36-4,.7a1,1,0,0,0-.81.75c-.11.42-.31.83-.42,1.25s-.41.43-.74.44l-.6-2.87c-.12-.58-.23-1.15-.35-1.72a1.08,1.08,0,0,1,.79.22.73.73,0,0,0,1.07,0,1.56,1.56,0,0,0,.62-.83c.15-.54.35-1.07.55-1.59.31-.82.28-.9-.59-1.1-.15,0-.32,0-.47-.05l-2.7-.48a3,3,0,0,1,1.06-1.12,5.65,5.65,0,0,0,1.08-.93,12.52,12.52,0,0,1,4.76-3.12,11.52,11.52,0,0,0,3.17-1.9,9.11,9.11,0,0,1,2.27-1.52c.7-.29,1.41-.55,2.11-.82a1.42,1.42,0,0,0,0,.36c.09.29.31.41.53.3a24.66,24.66,0,0,0,3.46-2.15q1.78-1.31,3.54-2.66c.29-.21.55-.47.82-.71a.91.91,0,0,1,.55-.21c0,.4,0,.8,0,1.2a.51.51,0,0,0-.47.25,4.5,4.5,0,0,0-1.68,1.1,33.71,33.71,0,0,1-5.67,3.78c-.21.11-.42.23-.64.33a1.85,1.85,0,0,0-1.1,1.2,12.28,12.28,0,0,1-2,3.78,8.7,8.7,0,0,1-4.65,3.41,8.11,8.11,0,0,1-1.54.15.74.74,0,0,0-.73.52c-.37,1.06-.76,2.11-1.13,3.16-.15.45.06.68.54.65s1-.22,1.53-.26a23.14,23.14,0,0,0,2.46-.46,5.11,5.11,0,0,0,1-.31,23.56,23.56,0,0,0,4.77-2.75c1.34-1.07,2.72-2.09,4.07-3.14a4.27,4.27,0,0,0,.44-.41,7.82,7.82,0,0,1,2-1.58A4,4,0,0,1,261.28,211.63Z"/><path class="cls-9" d="M246.39,256a32.21,32.21,0,0,1-3.12,3.17,8.06,8.06,0,0,1-4,2.05,2.89,2.89,0,0,1-.83,0,14.7,14.7,0,0,1-7.17-3.17.81.81,0,0,1-.32-.61,5.41,5.41,0,0,1,1.71-.49c1.13-.21,2.29-.3,3.41-.58.86-.21,1.73-.21,2.59-.34a27.43,27.43,0,0,0,3.26-.72,24.65,24.65,0,0,1,3.72-.81c.51-.06,1-.25,1.51-.36.23,0,.47-.07.71-.1C247.35,254.71,246.87,255.35,246.39,256Z"/><path class="cls-12" d="M283.75,185.42l2.91-.72c1.79-.24,3.57-.48,5.36-.69,1-.12,2-.17,3-.26a1.67,1.67,0,0,1-.58.6,5.41,5.41,0,0,0-.75.59,20.83,20.83,0,0,1-4.42,3.29,34.36,34.36,0,0,0-4.24,2.93c-.28.24-.54.14-.55-.26a3.4,3.4,0,0,0-.32-1.27,24,24,0,0,1-.6-2.32,1.63,1.63,0,0,1,0-.95A7.4,7.4,0,0,0,283.75,185.42Z"/><path class="cls-14" d="M230.44,257.44a9,9,0,0,1-.48,3.72,3.14,3.14,0,0,1-.24.39c-.63-1.06-1.24-2.13-1.89-3.18-1.09-1.76-2.19-3.52-3.33-5.24-.68-1-1.47-2-2.2-3-.3-.42-.57-.86-.85-1.29a.86.86,0,0,1-.13-.81,6.33,6.33,0,0,1,1.4-2.17c.84,1.58,1.64,3.19,2.54,4.73a33,33,0,0,0,3,4.19,7.14,7.14,0,0,0,1.49,1.71Z"/><path class="cls-9" d="M229.71,256.51a7.14,7.14,0,0,1-1.49-1.71,33,33,0,0,1-3-4.19c-.9-1.54-1.7-3.15-2.54-4.73a4.22,4.22,0,0,0-.72-1.21,7,7,0,0,0-.65-1.77,2.12,2.12,0,0,1-.33-1.12.81.81,0,0,1,.64.28,32.27,32.27,0,0,1,3.05,3.24,5.81,5.81,0,0,1,.9,1.68,18.16,18.16,0,0,0,2.07,4.19,17.2,17.2,0,0,1,2.15,4.81A.44.44,0,0,1,229.71,256.51Z"/><path class="cls-12" d="M247.81,232.61c.49-.92,1-1.82,1.47-2.74a7.61,7.61,0,0,0,.93-3.67,3.87,3.87,0,0,1,0-.48c0-.26.18-.5.43-.51.62,0,1.1-.47,1.7-.55a4.92,4.92,0,0,1-.32,2.11c-.34.94-.61,1.9-1,2.84a13,13,0,0,0-.88,4.9c0,.39-.19.37-.45.26Z"/><path class="cls-9" d="M221,241.79l-.25-.25C221,241.42,221,241.42,221,241.79Z"/><path class="cls-11" d="M285.17,211.63s0,.1-.05.1-.06,0,.05-.09Z"/><path class="cls-13" d="M247.3,167.26c.06.14.09.33.2.42,1.39,1.15,2.6,2.5,3.87,3.78a18.86,18.86,0,0,1,2.06,2.8.4.4,0,0,1-.05.55l-.58.6c-.88.88-1.75,1.77-2.65,2.63a22.39,22.39,0,0,0-2.41,2.83,7.07,7.07,0,0,1-2.19,1.85,11.29,11.29,0,0,1-3.91,1.47,17.31,17.31,0,0,0-2.31.66c-.23.07-.45.16-.68.22-.51.12-.83-.14-.7-.64a6.66,6.66,0,0,0,0-3.2,11.14,11.14,0,0,1-.06-1.92,5.54,5.54,0,0,0-.18-1.9,1.34,1.34,0,0,1,0-.6,5.56,5.56,0,0,0-.38-2.35c-.2-.5,0-.77.47-.9a7.6,7.6,0,0,1,1.17-.25,7.57,7.57,0,0,0,4.33-2.14,24.83,24.83,0,0,0,3.56-3.9Z"/><path class="cls-13" d="M246.11,166.78a22.53,22.53,0,0,1-3.64,4,7,7,0,0,1-3.6,1.78,16.77,16.77,0,0,0-1.87.39.65.65,0,0,1-.81-.31,10.32,10.32,0,0,1-.66-1.28c-.24-.55-.44-1.11-.64-1.68a7.69,7.69,0,0,0-2.1-2.88,25.23,25.23,0,0,0-3.12-2.61,6.5,6.5,0,0,1-1.86-2.17,3.49,3.49,0,0,1-.2-.44.37.37,0,0,1,.31-.53,9.76,9.76,0,0,1,2.16.05c.9.15,1.81.24,2.71.41,1.37.25,2.74.51,4.1.82a20.19,20.19,0,0,1,4.71,1.74,2.1,2.1,0,0,0,1.14.33,1.26,1.26,0,0,0,.61.55c.79.46,1.58.94,2.35,1.43A2.33,2.33,0,0,1,246.11,166.78Z"/><path class="cls-10" d="M226.57,203.44a1.39,1.39,0,0,0,.49,1.2,1.89,1.89,0,0,0,.33.89,22.11,22.11,0,0,0,3.22,4.46c.59.66,1.24,1.26,1.87,1.88a9,9,0,0,0,3.41,2.18,2.64,2.64,0,0,1,1.21.75,1.05,1.05,0,0,0,.81.45,10.24,10.24,0,0,1,.94,3.17c.27,1.32.48,2.64.67,4a17.67,17.67,0,0,1,.08,1.78,1.57,1.57,0,0,1-.45-.13c-1.9-1.25-3.8-2.51-5.68-3.79a19,19,0,0,1-1.5-1.18,2.86,2.86,0,0,1-.57-.91,18,18,0,0,0-2.58-3.19,3.71,3.71,0,0,1-.8-1.16,3.11,3.11,0,0,0-.11-.69c-.5-1.26-1-2.52-1.52-3.76a16,16,0,0,1-1.26-7,.76.76,0,0,1,.24-.64c.28.18.35.51.51.78s.2.52.46.67l.24.24Z"/><path class="cls-14" d="M209.46,208.5l.1.1s-.05,0-.06,0a.2.2,0,0,1,0-.08Z"/><path class="cls-12" d="M179.8,186.32l.1.1-.06,0a.2.2,0,0,1,0-.08Z"/><path class="cls-13" d="M256,203.44a1.57,1.57,0,0,0-1,.28c-1,.61-2.19.77-3.1,1.55-.57.5-1.2.93-1.81,1.39a8.81,8.81,0,0,1-2.4,1.33,12.5,12.5,0,0,0-5,3.31c-.36.38-.73.74-1.12,1.09a.39.39,0,0,1-.68-.15c-.32-1.32-.82-2.6-1.24-3.89a.89.89,0,0,1,.25-1,14.4,14.4,0,0,1,1.67-1.55,3.75,3.75,0,0,0,1-.9,11.05,11.05,0,0,1,1.43-1.62,14.17,14.17,0,0,0,1.35-1.54,2.47,2.47,0,0,1,2.45-1.21,14.06,14.06,0,0,0,3.1-.31,3.86,3.86,0,0,0,2.52-1.3c.45-.5.92-1,1.35-1.53a10.3,10.3,0,0,1,2-1.93c0,.32,0,.64,0,1a12,12,0,0,1-.3,3.33,7.23,7.23,0,0,0-.17,1.9C256.3,202.28,256,202.83,256,203.44Z"/><path class="cls-10" d="M215.71,178.36a1.8,1.8,0,0,0,.26,1v2.41a7.27,7.27,0,0,0,.13,1.31,8.52,8.52,0,0,1,0,3,3.12,3.12,0,0,0-.13.59,32.17,32.17,0,0,1-.72,5.44,15.35,15.35,0,0,0-.26,3.58,2.16,2.16,0,0,1,0,.36c0,.12,0,.26-.19.25a.28.28,0,0,1-.18-.12c-.37-.62-.73-1.25-1.08-1.87a62.57,62.57,0,0,0-3.72-5.74c-.7-1-1.41-1.94-2.18-2.86s-1.74-2-2.66-2.93a2.07,2.07,0,0,1-.61-1.49,11.4,11.4,0,0,1,.56-3.54,11.55,11.55,0,0,1,.4-2.35c-.13-.71-.24-1.42-.38-2.12-.18-.94-.37-1.87-.56-2.81A5.45,5.45,0,0,1,206,171c1.32.63,2.63,1.27,3.94,1.93a2.71,2.71,0,0,0,.67.2,1.36,1.36,0,0,1,.81.46.68.68,0,0,0,.39.56,11.07,11.07,0,0,1,3.44,3.6A6.36,6.36,0,0,0,215.71,178.36Z"/><path class="cls-10" d="M225.37,201.75a.76.76,0,0,0-.24.64,16,16,0,0,0,1.26,7c.53,1.24,1,2.5,1.52,3.76a3.11,3.11,0,0,1,.11.69,18,18,0,0,1-2.76-2.82c-.55-.73-1.2-1.38-1.8-2.08a70.72,70.72,0,0,1-6.56-8.84,6.72,6.72,0,0,1-.94-3.29,2.87,2.87,0,0,0-.08-.71,2.7,2.7,0,0,1,0-1.64c.17-.7.18-1.42.32-2.13.28-1.44.49-2.9.7-4.36a8,8,0,0,0,0-1.2c0-1,0-2,0-3,0,0,.05,0,.07-.06a.64.64,0,0,1,.35.57,7.68,7.68,0,0,0,1.72,3.76l.24.24h0a.55.55,0,0,0,.24.5h0a.79.79,0,0,0,.49.73h0a5.59,5.59,0,0,0,1.2,1.94,3.94,3.94,0,0,0,.28,1.52,16.8,16.8,0,0,0,1.66,5c.32.51.66,1,.94,1.54A8,8,0,0,1,225.37,201.75Z"/><path class="cls-9" d="M220.07,189.46a.79.79,0,0,1-.49-.73C220,188.87,220,188.87,220.07,189.46Z"/><path class="cls-9" d="M219.58,188.74a.55.55,0,0,1-.24-.5A.5.5,0,0,1,219.58,188.74Z"/><path class="cls-9" d="M219.35,188.25l-.24-.24Z"/><path class="cls-10" d="M287.35,162.44a.51.51,0,0,1-.25.49A.5.5,0,0,1,287.35,162.44Z"/><path class="cls-10" d="M248.74,252.85l.25-.23Z"/><path class="cls-14" d="M243.75,227.1a.79.79,0,0,0,.51-.28l1.23-1.61a3.11,3.11,0,0,1,.23-.28c.51-.56.6-.58,1.31-.22a9,9,0,0,0,2,.68.47.47,0,0,1,.42.49,6.69,6.69,0,0,1-.17,1.66,12,12,0,0,1-1.56,3.72,1.6,1.6,0,0,1-.69.65.83.83,0,0,0-.22,0,12.42,12.42,0,0,0-2.07-1.62,3.77,3.77,0,0,1-.92-.76,3.91,3.91,0,0,0-.06-1.83A2.16,2.16,0,0,1,243.75,227.1Z"/><path class="cls-9" d="M202.71,144.11l.1.11-.11-.09Z"/><path class="cls-9" d="M264.68,163.65a.5.5,0,0,1-.25.49A.47.47,0,0,1,264.68,163.65Z"/><path class="cls-9" d="M264.2,164.37a.6.6,0,0,1-.25.51A.52.52,0,0,1,264.2,164.37Z"/><path class="cls-9" d="M264.44,164.13l-.25.25Z"/><path class="cls-9" d="M264.92,163.41l-.25.24Z"/><path class="cls-11" d="M212.82,249.48l-.22-.21a2.12,2.12,0,0,0-.26-.38,11.58,11.58,0,0,1-2.66-3.73.37.37,0,0,1,.52-.12c1,.47,2.06.88,3,1.42a15.64,15.64,0,0,0,4.38,1.58,6.84,6.84,0,0,1,1.47.48,5.5,5.5,0,0,1,2.13,1.68c.87,1.09,1.67,2.24,2.5,3.35.69.93,1.27,1.94,1.88,2.92.72,1.16,1.43,2.32,2.15,3.47a4.34,4.34,0,0,1,.76,1.61,3.48,3.48,0,0,1-1.66-1.09,41.2,41.2,0,0,0-4.11-3.24,19.51,19.51,0,0,1-2.12-1.73,17.2,17.2,0,0,0-1.5-1.17,20,20,0,0,0-2.57-2.1c-1.13-.85-2.31-1.65-3.48-2.47Z"/><path class="cls-14" d="M207.77,241.3a4.1,4.1,0,0,1,1.86.36c.94.34,1.92.54,2.86.87a11.24,11.24,0,0,1,2.92,1.36,11.51,11.51,0,0,1,3.45,3.43h0a12.77,12.77,0,0,1-4.15-1.11c-1.84-.9-3.67-1.82-5.5-2.73a1.72,1.72,0,0,1-.37-.28A6.73,6.73,0,0,1,207.77,241.3Z"/><path class="cls-14" d="M207.51,241.05l.26.25Z"/><path class="cls-9" d="M230.45,137.14a1.07,1.07,0,0,1,.79.2,43.45,43.45,0,0,1,4.66,4.44,19.57,19.57,0,0,1,1.66,2.18,1.39,1.39,0,0,1,.34.87,8.84,8.84,0,0,0-1.42,2.5,14.76,14.76,0,0,1-1.45,2.75,5.52,5.52,0,0,1-2.67,2,13.79,13.79,0,0,1-5.27,1,4.82,4.82,0,0,0-1.52.29c-.76.24-1.51.51-2.37.81V151a27.15,27.15,0,0,0-.61-5.23c0-.12-.08-.23-.09-.35-.07-1-.21-1.44,1.07-2a15.26,15.26,0,0,0,3.06-1.64,10.81,10.81,0,0,0,3-3.22A5,5,0,0,0,230.45,137.14Z"/><path class="cls-14" d="M218.86,247.32l.1.06c0,.08-.06.06-.1-.06Z"/><path class="cls-11" d="M228.75,261.79l-.24-.24Z"/><path class="cls-13" d="M255.76,179.81c-.7,1.21-1.36,2.45-2.11,3.63a16.33,16.33,0,0,0-2,4.75,15.67,15.67,0,0,1-2.06,4.83,42.34,42.34,0,0,0-2.79,4.9,21.31,21.31,0,0,1-3.33,4.68c-1.07,1.19-2.16,2.35-3.29,3.49l-.6.59c-.35.33-.53.3-.7-.13-1.2-3-2.46-5.91-3.93-8.76a13,13,0,0,0-1-2.16,1.14,1.14,0,0,1-.06-.93,15.45,15.45,0,0,1,1.4-4.07c.58-1.18,1.23-2.34,1.71-3.57a1.82,1.82,0,0,1,1.35-1.08c1.35-.35,2.69-.77,4-1.09a12.15,12.15,0,0,0,3.66-1.46,8.06,8.06,0,0,0,1.92-1.61,50.82,50.82,0,0,1,3.62-4c.64-.61,1.25-1.25,1.88-1.86s.67-.58,1.09.22c.33.64.64,1.29,1,1.94A4.42,4.42,0,0,1,255.76,179.81Z"/><path class="cls-13" d="M215.71,178.36a6.36,6.36,0,0,1-.5-.66,11.07,11.07,0,0,0-3.44-3.6.68.68,0,0,1-.39-.56,7.49,7.49,0,0,1,2.58,1.23,37.2,37.2,0,0,1,3.66,2.71c1.27,1,2.55,1.93,3.81,2.91a7.3,7.3,0,0,1,.71.65c.91.91,1.85,1.79,2.72,2.74s1.49,1.77,2.26,2.64a36.83,36.83,0,0,1,3,4.32c.51.77.93,1.59,1.38,2.4a.21.21,0,0,1-.08.31.28.28,0,0,1-.22,0A11.44,11.44,0,0,1,229,192c-.34-.35-.67-.69-1-1a5.31,5.31,0,0,1-1.27-1.73,5.7,5.7,0,0,0-1.07-1.59c-2-2.1-3.92-4.35-6.1-6.32a33.76,33.76,0,0,0-3.28-2.81A1,1,0,0,0,215.71,178.36Z"/><path class="cls-13" d="M237.91,215.25a1.05,1.05,0,0,1-.81-.45,2.64,2.64,0,0,0-1.21-.75,9,9,0,0,1-3.41-2.18c-.63-.62-1.28-1.22-1.87-1.88a22.11,22.11,0,0,1-3.22-4.46,1.89,1.89,0,0,1-.33-.89,6.92,6.92,0,0,1,5,2c.54.53,1.18,1,1.77,1.43a9.12,9.12,0,0,1,2.45,2.62A11.8,11.8,0,0,1,237.91,215.25Z"/><path class="cls-13" d="M225.37,201.75a8,8,0,0,0-1.23-2.31c-.28-.53-.62-1-.94-1.54a16.8,16.8,0,0,1-1.66-5,3.94,3.94,0,0,1-.28-1.52,1.57,1.57,0,0,1,.8.7,10.26,10.26,0,0,0,1.52,1.7,13.4,13.4,0,0,1,1.75,2.28c.33.54.74,1,1.11,1.56a41.28,41.28,0,0,1,3.68,5.9l.16.32c.06.15.14.32,0,.43a.42.42,0,0,1-.33.05l-3.23-.89h-.11l-.24-.24c-.26-.15-.32-.44-.46-.67S225.65,201.93,225.37,201.75Z"/><path class="cls-10" d="M241.3,213.81l2.7.48c.15,0,.32,0,.47.05.87.2.9.28.59,1.1-.2.52-.4,1.05-.55,1.59a1.56,1.56,0,0,1-.62.83.73.73,0,0,1-1.07,0,1.08,1.08,0,0,0-.79-.22c-.21-1-.4-1.94-.64-2.91A3.3,3.3,0,0,1,241.3,213.81Z"/><path class="cls-9" d="M226.34,203.2l.24.24Z"/><path class="cls-10" d="M212.82,249.48l.25.27Z"/></svg>