<svg xmlns="http://www.w3.org/2000/svg" viewBox="0 0 480 480"><defs><style>.cls-1{isolation:isolate;}.cls-2{fill:#fff;}.cls-10,.cls-11,.cls-3{fill:none;stroke-linecap:round;}.cls-3,.cls-9{stroke:#8e5229;}.cls-10,.cls-11,.cls-17,.cls-3,.cls-9{stroke-miterlimit:10;}.cls-10,.cls-11,.cls-3,.cls-9{stroke-width:2.05px;}.cls-4,.cls-5,.cls-6,.cls-7,.cls-8{fill:#8e5229;}.cls-5,.cls-6,.cls-7,.cls-8{mix-blend-mode:multiply;}.cls-5{opacity:0.38;}.cls-6{opacity:0.56;}.cls-7{opacity:0.46;}.cls-8{opacity:0.28;}.cls-9{fill:#33240f;}.cls-10{stroke:#fff;}.cls-11{stroke:#ced1b6;}.cls-12{fill:#55772b;}.cls-13{fill:#264f1d;}.cls-14{fill:#2d5e2d;}.cls-15{fill:#477728;}.cls-16{fill:#376606;}.cls-17{fill:#bf7949;stroke:#bf7949;stroke-width:1.03px;}</style></defs><g class="cls-1"><g id="Layer_1" data-name="Layer 1"><rect class="cls-2" width="480" height="480"/><polyline class="cls-3" points="225.13 328.83 254.38 91.91 271.89 328.83"/><path class="cls-4" d="M274.73,384.54l-8,5.18-1.88,5.45c-8.51,3-21.61,3.19-31.41,0l-1.66-5.43L223,385.38l-7.79-64.6h65.18Z"/><path class="cls-5" d="M253.5,397l.3.18c-3.29-.31-6.66.41-10,.11a45.24,45.24,0,0,1-5.2-.76c-.65-.14-4.87-.76-5-1.35l-1.65-5.43-8.74-4.36-7.79-64.6h14.11c9,0,18.29-.73,27.18-.18a5.89,5.89,0,0,0-3.55,3.24,16.6,16.6,0,0,0-1.19,4.89c-2,14.09-3.83,28.24-3.83,42.47,0,3.51.12,7,.45,10.51.17,1.72.47,3.41.66,5.12.14,1.19-.22,2.75.58,3.75a2.8,2.8,0,0,0,1.38.83c2.32.75,4.83.22,7.27.29l-7.22,2.05a.25.25,0,0,0-.16.1.22.22,0,0,0,0,.18A6.11,6.11,0,0,0,253.5,397Z"/><path class="cls-6" d="M268.65,375.12A77.11,77.11,0,0,1,232,387.18c6.21,3.42,13.5,4.09,20.56,4.68a57.56,57.56,0,0,1-7.82,1.45A43.06,43.06,0,0,0,261,396c-1.94.27-3.81,1-5.84,1.22a57.76,57.76,0,0,1-7.44.26,50.46,50.46,0,0,1-14.28-2.3l-1.66-5.43L223,385.4l-7.79-64.6h65.18c-.19,0-1.26,14-1.32,14.87-.24,3.22-3.79,5.77-6.3,7.52a54.57,54.57,0,0,1-9.62,5.08c-4.08,1.76-8.22,3.37-12.36,5-5.34,2.08-10.8,4.18-16.53,4.43q9.62.42,19.23.36c8.08-.06,16.39-.41,23.79-3.65a45.72,45.72,0,0,0-.29,4.7c.36,2.47-5.58,4.11-7.3,4.67a74.15,74.15,0,0,1-27,3.93,114.85,114.85,0,0,1-18.46-3.13,5.19,5.19,0,0,1-3.27-1.63q1.15,6.36,2.33,12.73a43,43,0,0,0,1.32,5.71,1.26,1.26,0,0,0,1.57,1.07,63,63,0,0,0,11.28-2.1c11.84-3,23.71-6.37,34.46-12.19a11.06,11.06,0,0,0,4.55-3.74c-.75,1.28-.07,2.95-.53,4.31-.54,1.57-2.08,2.74-3.36,3.69S270,374.26,268.65,375.12Z"/><path class="cls-7" d="M275,379.73l0-3.28a10,10,0,0,0-.88,2.92,26.77,26.77,0,0,1,.49-10.84l-2.1,5.66a32.79,32.79,0,0,1,2-10l-2.12,5.52a64.6,64.6,0,0,1,4.12-14.82,42.63,42.63,0,0,0-3.46,4.88q1.38-6,2.74-12a29.15,29.15,0,0,0-3,6q.48-5.6.95-11.18l-2.7,7.78a63.45,63.45,0,0,0-1.63-13.6,15.9,15.9,0,0,0-1,4.92,67.79,67.79,0,0,0-4-8.45q.45,3.18.88,6.36a22.07,22.07,0,0,0-6.57-7.32l3.37,7.32a44.49,44.49,0,0,0-11.9-7.46,62.54,62.54,0,0,1,7,7.71,44.64,44.64,0,0,0-14.76-6.48,94.41,94.41,0,0,1,10.63,12.14L242,340.72a90.69,90.69,0,0,1,9.86,8.27,46.16,46.16,0,0,0-12.93-5,146.61,146.61,0,0,1,11.14,10.88,55.13,55.13,0,0,0-14.14-7.19,158.37,158.37,0,0,0,13.23,11.44,65.85,65.85,0,0,0-12-4.76l12.1,10.71A46.84,46.84,0,0,0,238,360q5.85,5.39,11.18,11.29-4.92-4.12-10.21-7.77a81.36,81.36,0,0,1,7.06,16q-2.51-4.75-5.27-9.38a96.83,96.83,0,0,1,1.53,16.38,77.83,77.83,0,0,0-3.31-12.37,39.72,39.72,0,0,0,.62,7.39,69.67,69.67,0,0,1-4.5-12.95,29.18,29.18,0,0,0-.23,10.25,26.74,26.74,0,0,1-3.65-11.08,36.67,36.67,0,0,0-.64,8.43,39.69,39.69,0,0,1-2.14-17,35.16,35.16,0,0,0-2.89,10.4,39.58,39.58,0,0,1,.62-17.62,22.45,22.45,0,0,0-2.86,5.94,36.18,36.18,0,0,1,.52-9.29,17.8,17.8,0,0,0-2.21,6.79,32.74,32.74,0,0,1-1-9.14l-1,10.19c-.18-2.51-3.79-35.7-4.35-35.7h65.18c-.2,2.06-.37,4.13-.55,6.19q-1.14,12.79-2.27,25.57-.63,7.09-1.27,14.19C276,371,275,375.5,275,379.73Z"/><path class="cls-8" d="M231.74,389.74a68.21,68.21,0,0,0,34.95,0l-1.88,5.45a54.12,54.12,0,0,1-31.41,0Z"/><path class="cls-9" d="M280.39,320.78c0,3.39-14.59,6.14-32.59,6.14s-32.59-2.75-32.59-6.14,14.59-6.14,32.59-6.14S280.39,317.39,280.39,320.78Z"/><path class="cls-10" d="M280.68,328.08c-3,7.22-16.31,7.37-22.72,7.76a125.86,125.86,0,0,1-33.91-2.74c-3.21-.69-6.48-1.72-8.85-4-.63-.6-.52-.39-.65-1.26"/><path class="cls-10" d="M280.05,330.52c.08,3.5-6.58,7.81-9.16,9.48a65.3,65.3,0,0,1-12.2,6,146.18,146.18,0,0,1-22,6.45c-2.85.6-16.29,4.6-18,.69"/><path class="cls-10" d="M219.32,357.63c-1.1,3.11,5.93,4,7.71,4.33a127.81,127.81,0,0,0,26.83,1.93c8.5-.27,17.28-.15,24-6.21"/><path class="cls-11" d="M221.58,384.22a19.53,19.53,0,0,0,7.31,0A117.59,117.59,0,0,0,255,377.44a83.58,83.58,0,0,0,12.06-5.81c3.52-2.06,8-4.32,10-8"/><path class="cls-11" d="M218,356c14.5,3.51,30.09,3.57,44.87,2.46,4.84-.37,10-.51,14.1-3.34.92-.63,1.87-1.66,1.48-2.7"/><path class="cls-11" d="M215.59,334.25c0,1.47,1.64,2.32,3,2.79,10,3.33,20.95,4.28,31.44,4.27,9.9,0,20.4-1,29.1-6.1.92-.54,1.92-1.31,1.92-2.37"/><path class="cls-3" d="M212.74,328.66C226.61,273,254.39,91.91,254.39,91.91s20.71,182.25,27.69,236.92"/><path class="cls-12" d="M221.4,282.94c4.64,2.63,8.22,7,11.38,11.25l-4.33-1.43c-3.13-.44-5,4.16-5.92,6.94-1.22,3.76-2.16,8.47-5.48,11.11,3-5.77,1.29-12.61,5.42-18,1.5-2,4.29-3.74,7-2.59l-1.63,2c-.49-.78-1-1.57-1.51-2.35-1-1.52-3.84-5.48-4.93-7Z"/><path class="cls-12" d="M224.66,310.16c-1.42-6.13,1.51-15.23,8.6-16.33a.64.64,0,0,0-.38.48c0,.06,0,0,0,0-1.87-4.07-4.13-8.06-5.46-12.43a73.9,73.9,0,0,1,7.82,10.43c1,1.46.93,3.89-1.09,4.47a14.19,14.19,0,0,0-1.51.35c-4.67,2.09-6.88,8.19-8,13.06Z"/><path class="cls-12" d="M229,312c-2-7.44,4.83-14.93,12.37-14.63l-1.53,1.74a38.24,38.24,0,0,0-6.66-16.6c5.93,4,9.28,10.92,10,17.93-7.31-.63-13.19,4.22-14.13,11.56Z"/><path class="cls-12" d="M233.55,314.17c-1.53-6.43,5.07-12.2,11.38-10.82l-1.75,1c1.79-5.66.34-12.12-3.13-16.94a13.77,13.77,0,0,1,5.54,6.55,16.37,16.37,0,0,1,0,12.65,9.31,9.31,0,0,0-12.09,7.54Z"/><path class="cls-12" d="M237.08,316.71a12.69,12.69,0,0,1,4.07-6.93c2.5-1.93,6.36-2.36,8.86,0l-2.6.94A122.78,122.78,0,0,1,249.67,296a44.23,44.23,0,0,1,.79,15.09l-.33,3.19L247.86,312c-4-3-8.19,1.82-10.78,4.7Z"/><path class="cls-12" d="M241.4,318.86c2.06-3.32,6.68-1.86,9.74-1.1l-1.92,1.36a23.18,23.18,0,0,1,4.27-13.92c-.27,4.65-1,9.41-1.3,14l-.15,2-1.77-.62c-2.91-.83-5.79-3.15-8.87-1.74Z"/><path class="cls-12" d="M252.82,324.54c-4.23-12.47-10-26-23-31.22-9-4-19.4-5.1-29.16-4.15-9.88,1.34-18.23,7.45-25,14.58-4.61,4.78-8.39,10.52-13.39,15.38a55.5,55.5,0,0,1-17.38,11.1c-6.25,2.68-13,4.31-18.27,8.72,4.81-4.9,11.68-7,17.64-10.09a57,57,0,0,0,16.3-11.42c4.57-4.81,8.28-10.53,13-15.67,7-7.59,16.18-14.31,26.75-15.58C214,285,229,287.54,239.52,297c7.53,7.3,10.81,17.61,13.3,27.5Z"/><path class="cls-12" d="M125,330.25c3-1,6.36-.78,9.4-1.18a59,59,0,0,1,13.33-.62c-1.83,1.68-3.9,3.22-4.88,5.74-1.74,4.17-4.8,8.31-8.84,10.45a37.26,37.26,0,0,0,4.61-7.5c1.32-2.84,1.75-6,4.26-8.41l1,2.66c-3.1-.1-6.19.18-9.34.11-3.31-.07-6.28-.92-9.53-1.25Z"/><path class="cls-12" d="M132.8,324.64c6.94-.81,14.15-.89,21.14-1.14a74.48,74.48,0,0,1-7.05,14.81,42.86,42.86,0,0,1-2.74,3.86c1.71-6,4-11.78,6.1-17.6l1.48,2.08a65.23,65.23,0,0,1-18.93-2Z"/><path class="cls-12" d="M136.56,321.1c8-.76,16.17-1.8,23.68-4.73l.21,1.92c.71,6.54-1.11,13.78-5.62,18.56l-.79-.25.83,0-.14.07a42.83,42.83,0,0,0,1.56-4.45,33.69,33.69,0,0,0,1.12-13.53l2.05,1.25a39.66,39.66,0,0,1-22.9,1.2Z"/><path class="cls-12" d="M139.64,316.64a61.46,61.46,0,0,0,26.83-8.8l4-2.56-1.81,4.38c-1.28,3.12-1.09,6.85-1.87,10.24a30.71,30.71,0,0,1-3.39,9c-.17.25-.35.87-.78.69-.11-.07-.16-.27,0-.32-.15.17.16.35.27.11.42-1.45.77-3.08,1.07-4.55,1.33-5.47.14-11,1.92-16.29l2.23,1.82c-8.24,5.48-18.69,8.14-28.48,6.28Z"/><path class="cls-12" d="M145.3,311.78c9.78-3.18,18.83-8.23,29-10.34l.32,1.5c1.67,8,0,16.78-5.1,23.19a37.31,37.31,0,0,0,2.12-22.53l1.84,1.16c-2.29.56-4.57,1.26-6.86,2-6.74,2.11-14.18,4.84-21.29,5Z"/><path class="cls-12" d="M151.69,304.75c6.49-3.4,14-4.93,20.9-7.24a81.43,81.43,0,0,0,9.46-3.78l-.63,2.9c-.38,1.78.12,3.87.36,6.19a28.84,28.84,0,0,1-4.87,19.7,40.07,40.07,0,0,0,2.49-12.9c.38-4.64-1.57-8.88-1-13.55l2.14,1.67c-9.09,4.16-19.22,4.88-28.87,7Z"/><path class="cls-12" d="M158.53,299.06c6.38-3.64,13.27-6.76,20.57-7.9,3-.43,6.06-.57,9.07-.79a45.81,45.81,0,0,0,.17,8.74,29.1,29.1,0,0,1-6,21,41.19,41.19,0,0,0,3.42-13.74c.32-4.8-1-9.44-.82-14.38l1.63,1.61c-2.42.11-4.81.24-7.15.49-6.88.67-14.22,3.24-20.93,5Z"/><path class="cls-12" d="M168.69,291.75a32.66,32.66,0,0,1,22.89-5c.54.09,1.95.25,2.47.33a2,2,0,0,1,1.26.46,1.92,1.92,0,0,1,.58,1.37,108.59,108.59,0,0,1-.48,13.5,16.18,16.18,0,0,1-6.65,11.74A18.74,18.74,0,0,0,193,302.32c-.08-3.73,0-9.47-.19-13.12v-.11a1.4,1.4,0,0,0,.47.77,1.63,1.63,0,0,0,.78.35L192.8,290c-1.56-.23-3.33-.53-4.87-.71-6.51-.76-12.9.57-19.24,2.44Z"/><path class="cls-12" d="M193,283.73c5.4-.42,10.87,1.4,15.88,3.25l-4.45,1.07c-1.54.52-1.79,2.55-1.53,4.22a26.82,26.82,0,0,1,.43,7.29A20.08,20.08,0,0,1,197,312.49a29.43,29.43,0,0,0,3.32-16.41,31.17,31.17,0,0,1-.53-5.49c.14-2.32,1.71-4.85,4.24-5.14l-.32,2.51A83.31,83.31,0,0,0,193,283.73Z"/><path class="cls-12" d="M204,281.8c5.29,1.05,10,4.09,14.25,7.31l-3.77.24a3.06,3.06,0,0,0-2.1,1.21c-2.11,2.67-1.07,6.5-1.61,9.75-.57,5-2.59,10.24-6.64,13.37a27.64,27.64,0,0,0,3.79-13.6c.14-2.53-.22-4.92.3-7.53.5-2.93,3.06-6,6.33-5.83l-.86,2.34A73.94,73.94,0,0,0,204,281.8Z"/><path class="cls-12" d="M212.67,308.16c1.81-7,1-16.55,8.74-20.16l-.62,2.19c-2-3.11-4.81-5.53-7.64-7.87-1-.82-2-1.64-3-2.52a34.22,34.22,0,0,1,7.13,3.25,20.87,20.87,0,0,1,6.94,6.89l-1.6.78c-6.32,3.47-5.72,12.24-10,17.44Z"/><path class="cls-13" d="M266.27,256a190.09,190.09,0,0,0-.88,25.84c-.07-.14-.15-.16,0-.05l.67.39a55.85,55.85,0,0,0,23.28,7.06,34.31,34.31,0,0,1-13.54-.2,39,39,0,0,1-12-4.65,2.93,2.93,0,0,1-1.15-1.21,3.52,3.52,0,0,1-.31-1.41A67,67,0,0,1,266.27,256Z"/><path class="cls-13" d="M260.8,263.39a107.68,107.68,0,0,0,.89,24.6l-.87-1.15a65.38,65.38,0,0,0,6.79,2.58,74.54,74.54,0,0,0,21.77,3.34,41.49,41.49,0,0,1-15.1,1,47.66,47.66,0,0,1-15.49-4.49,54.28,54.28,0,0,1,2-25.87Z"/><path class="cls-13" d="M256,270.93a126.93,126.93,0,0,0,1.8,24.17l-1.43-1.27c9.78.41,19.13,4.78,28.95,2.71-6.73,3.55-14.81,2.21-22,1.15a76.88,76.88,0,0,0-8.34-.88,57.71,57.71,0,0,1,1-25.88Z"/><path class="cls-13" d="M251.51,275a79.65,79.65,0,0,0,3.25,26.15l-1.69-1a38.64,38.64,0,0,1,10.93-.23,62.61,62.61,0,0,0,30.75-3.24,43.31,43.31,0,0,1-20.27,6.56c-5.29.43-10.63-.47-15.88-.56a30.49,30.49,0,0,0-6.34.6,54.66,54.66,0,0,1-.75-28.24Z"/><path class="cls-13" d="M246.87,281.34a70.75,70.75,0,0,0,1.83,13.85c1,4.78,3.42,8.78,3.72,13.86l-2.13-1.35c6.44-2.7,13.61-1.83,20.18-.29,2.15.53,4.27,1.1,6.39,1.77-4.38-.07-8.77-.57-13.11-.62-4.18,0-8.44.31-12.25,2l-2.05.89a25.8,25.8,0,0,0-1.53-8.71,40.19,40.19,0,0,1-1-21.36Z"/><path class="cls-13" d="M244.51,298.37c2.22,6.8,4.21,13.61,6.86,20.25l-2.83.64a2.54,2.54,0,0,1,.67-1.76,5,5,0,0,1,1.85-1.21,35.85,35.85,0,0,1,10.68-3.07c-1,.59-2,1.17-2.95,1.71-1.7,1-4.11,2.34-5.76,3.34a9,9,0,0,0-1.63,1.08c0,.06.09-.07.08-.22l-2.82.64a42.58,42.58,0,0,1-4.15-21.4Z"/><path class="cls-13" d="M250.64,321.72V323c-1-6.33,0-13.52,1.77-19.91,3.8-13,12.14-24.21,21.57-33.72,14.23-14.18,31.47-24.67,47.21-36.95,10.12-8.07,21.3-17,23.87-30.4-1.34,13.75-12.44,23.84-22.37,32.26-10.25,8.6-21.27,16.11-31.67,24.28-22.4,17.19-40.34,38.24-40.38,63.2Z"/><path class="cls-13" d="M340.56,204.8a14.93,14.93,0,0,1,2,6.66l-1.9-1.39c2.18-.55,4.41-1.32,6.63-1.88-1.1,3.27-4.52,4.75-7.69,5.28-.22-2.9-.29-5.95,1-8.67Z"/><path class="cls-13" d="M336.66,207.89c.93,2.75,1.82,6.67,2.56,9.5l-2-1.08c2.55-1,5.4-2.21,8-3.25.92-.35,1.84-.74,2.84-1.05a16.25,16.25,0,0,1-4.3,4.37,22.28,22.28,0,0,1-5.45,2.79l-1.67.59c-.93-3.88-1.32-8,.06-11.87Z"/><path class="cls-13" d="M332.55,211A51,51,0,0,1,335,222.6l-2.23-1.2c4.94-2.81,10.05-2.2,15.1-4.35-3.12,4.28-9.4,4.79-13.64,7l-2.11,1.07a57.36,57.36,0,0,1,.4-14.16Z"/><path class="cls-13" d="M328.68,211.91c1.39,4.61,1.91,9.28,2.91,13.91a1,1,0,0,0-.51-.72c-.08,0,.24,0,.52,0,6.57-.87,13-3.1,19.69-4.11a52.41,52.41,0,0,1-17.12,6.88c-1.73.24-4.85.94-5.49-1.52a58.07,58.07,0,0,1,0-14.43Z"/><path class="cls-13" d="M324.75,214.73c.63,5,1.31,10.18,2.41,15.06l-1.25-1.19a65.09,65.09,0,0,0,20.58-.95c-6.09,4-13.88,5.14-21,3.92l-1.07-.19a36.44,36.44,0,0,1,.36-16.65Z"/><path class="cls-13" d="M320.35,217.8c.71,4.47,1.26,10.9,1.75,15.46L321,231.93a56.66,56.66,0,0,0,19.81,1.64,25,25,0,0,1-10.15,2.65,30.24,30.24,0,0,1-11.54-1.72,52.1,52.1,0,0,1,1.2-16.7Z"/><path class="cls-13" d="M316,221.58a133.23,133.23,0,0,1,1.29,16.69l-.91-1.37a48.5,48.5,0,0,0,17.82,2.56,59.32,59.32,0,0,0,11-1.6,27.57,27.57,0,0,1-7,3.08,37.94,37.94,0,0,1-5.69,1.13,34.86,34.86,0,0,1-18.12-2.94,141.83,141.83,0,0,1,1.6-17.55Z"/><path class="cls-13" d="M311.18,220.39a202.45,202.45,0,0,1-.36,21.89l-.83-1.45a39.77,39.77,0,0,0,9.63,2.95c7.55,1.35,15.22,1,22.88,1.36-11.06,2.51-23.34,3.58-33.8-1.66l-.94-.46.12-1a204.32,204.32,0,0,1,3.3-21.64Z"/><path class="cls-13" d="M304.6,224.89c.3,6.76.23,13.51.72,20.2.08.25.07.21.3.41a16.07,16.07,0,0,0,2.46,1.19,47.47,47.47,0,0,0,11.82,2.82c4.3.54,8.21,1.84,12.45,1.12-3.82,2-8.53,1.36-12.62,1.28a35.65,35.65,0,0,1-12.81-2.38c-1.74-.75-4.16-1.62-4.52-3.84a72.85,72.85,0,0,1,2.2-20.8Z"/><path class="cls-13" d="M299.06,230.56a139.32,139.32,0,0,1,.21,16.72,5.57,5.57,0,0,0,0,1.21c.16.54.6.7,1.19,1a73.79,73.79,0,0,0,25.73,6.7,40.93,40.93,0,0,1-24.28-2.67c-3-1.33-6.26-2.45-5.45-6.46a140.38,140.38,0,0,1,2.58-16.52Z"/><path class="cls-13" d="M293.21,234.08c.26,6.87.35,13.65.73,20.48l-.92-1.31a118.12,118.12,0,0,0,16.27,4.7c5.45,1.16,11.38,2,16.93,2.61a54.8,54.8,0,0,1-13.05.51,68.4,68.4,0,0,1-22.14-5.5,91.3,91.3,0,0,1,2.18-21.49Z"/><path class="cls-13" d="M288.5,238.56a174,174,0,0,1,.43,18.68c-.35.34,2.32,1.49,4,2.24a83.5,83.5,0,0,0,23.82,6.19,40.72,40.72,0,0,1-12.71.13,47.59,47.59,0,0,1-12.35-3.5c-2.12-1.1-5.47-1.9-5.68-4.81a139.11,139.11,0,0,1,2.47-18.93Z"/><path class="cls-13" d="M283.41,241.18a177.69,177.69,0,0,1,.46,18.88,3.89,3.89,0,0,0,.06,1.24,8,8,0,0,0,1.91,1.29,73.92,73.92,0,0,0,28.56,9.33,45.52,45.52,0,0,1-27.07-5,26.74,26.74,0,0,1-5.48-3.51c-.89-.79-.92-2.7-.78-3.5a179.62,179.62,0,0,1,2.34-18.74Z"/><path class="cls-13" d="M278.85,243.54c0,6.13.09,12.24.52,18.29.25,1.8-.17,4.47,1.65,5.41,9.66,5,20.2,7.74,31,9.11a50.34,50.34,0,0,1-14.85-.39,56.84,56.84,0,0,1-16-5.23c-3.23-1.35-4.62-3.41-4.47-6.93a73.41,73.41,0,0,1,2.14-20.26Z"/><path class="cls-13" d="M274.49,247.8c.08,7.23.08,14.31.56,21.48.05.8.48.85,1.22,1.4a54.62,54.62,0,0,0,25.84,8.89,34.22,34.22,0,0,1-13.48-.27A38.57,38.57,0,0,1,276,274.16c-1.34-1-3.09-1.69-3.7-3.51-.5-3.22-.13-6.4,0-9.62a68.1,68.1,0,0,1,2.21-13.23Z"/><path class="cls-13" d="M270.79,251.08a205.64,205.64,0,0,0,0,24.95,1,1,0,0,0,.06.37s-.07-.07.06,0a91.21,91.21,0,0,0,31,7.09,53.07,53.07,0,0,1-22.53-.92,65.78,65.78,0,0,1-7.25-2.33c-1.36-.69-3.22-1-4-2.57a5.93,5.93,0,0,1-.36-2.4,74.92,74.92,0,0,1,3-24.2Z"/><path class="cls-13" d="M216.79,288.17c7.49-5.22,22.56-1.05,29.85,3.33l-2.27,1a23.83,23.83,0,0,1,3.07-6.81A52.69,52.69,0,0,0,253.67,266a36.49,36.49,0,0,1-3.7,21c-1.07,2.16-2.26,4.08-2.59,6.05l-.36,2.11-1.91-1.08c-6.9-4-20.58-8.84-28.32-6Z"/><path class="cls-13" d="M219.08,292.62c7.95-2.36,16.85-.81,24,3.37a31.07,31.07,0,0,1,6.61,5.16l-2.58,1c.37-4.69,2.17-8.48,3.49-12.8,1.41-4.09,2.9-8.15,4.62-12.13-1,6.42-2.39,12.75-4,19a29.36,29.36,0,0,0-1.13,6L250,305.7a39.45,39.45,0,0,0-30.92-13.08Z"/><path class="cls-13" d="M221.93,298.4a29.91,29.91,0,0,1,22.17,6,31.3,31.3,0,0,1,5.68,5.59l-2.68.5a280.73,280.73,0,0,1,11.32-30.1,280.08,280.08,0,0,1-8.39,31l-.9,2.86a36.29,36.29,0,0,0-27.2-15.83Z"/><path class="cls-13" d="M226.24,304.94a40,40,0,0,1,17.08,5.46,44,44,0,0,1,8.66,6.71l-2.57,1.32c-.54-3.26.81-5.94,1.65-8.85a160.86,160.86,0,0,1,9.54-23.33c-.63,2.75-1.37,5.44-2.1,8.14-1.21,4.5-3.28,11.55-4.6,16.08-.75,2.67-1.84,5.38-1.51,7.44l.76,4.77a81,81,0,0,0-8.44-8,59.42,59.42,0,0,0-18.47-9.7Z"/><path class="cls-13" d="M231.35,313.62a23,23,0,0,1,15.48,4.63,23.86,23.86,0,0,1,4.1,3.81l-2.57.37a45.63,45.63,0,0,1,16.43-20.27,96.38,96.38,0,0,0-13.63,21.48l-1,2.28a31.69,31.69,0,0,0-18.79-12.3Z"/><path class="cls-13" d="M248.8,320.26a96.53,96.53,0,0,0-18.43-54.44,190.54,190.54,0,0,0-40.25-41.95,127.07,127.07,0,0,0-16.57-10.21c-5.71-3.21-11.43-6.34-17.39-9.07a176.5,176.5,0,0,1,18.07,7.73c18.25,7.92,33.46,21.36,46.46,36.19,18,20.38,30.1,43.89,28.11,71.75Z"/><path class="cls-13" d="M152.83,207.2c3-.42,7.26-.4,10.35-.51l-1.32,2.15c-.57-1.3-2-4.57-2.52-5.84-1.09-2.44-1.09-2.48,1.11-.84a15.62,15.62,0,0,1,4.2,5.43l.95,2c-4.35.44-9.08.21-12.77-2.4Z"/><path class="cls-13" d="M157.12,213c4.13-.77,7.73-2.33,11.85-3.26L168,212a42.1,42.1,0,0,1-4.65-11,22.93,22.93,0,0,1,2.13,2.17,55,55,0,0,1,6.26,9.1c-4.65,1-9.91,2.71-14.58.73Z"/><path class="cls-13" d="M159.23,217.17c5.25-.76,9.93-3.34,15.09-4.48l-1,2c-1.59-4.51-3.45-8.77-5.18-13.3,4.14,3.65,6.84,8.64,8.64,13.8a93.06,93.06,0,0,1-9.36,2.25c-2.63.46-5.6.76-8.15-.27Z"/><path class="cls-13" d="M161.72,221a141.21,141.21,0,0,0,17.09-5.37l-.86,1.94c-1.81-5.24-4.11-10.59-6.13-15.78a41.51,41.51,0,0,1,9.52,16.13c-6.13,2.67-13,4.1-19.62,3.08Z"/><path class="cls-13" d="M168.09,224.45A48.9,48.9,0,0,0,185,218.83l-.44,2.32c-4-5-5.3-11.28-7.27-17.2,4.37,5,6.26,11.8,10.83,16.66-5.92,3.49-13.24,5.7-20,3.84Z"/><path class="cls-13" d="M172.52,227.08c5.76-.91,11.72-1.45,16.21-5.32l.19-.16c.05,0,0,0-.19.29a1.1,1.1,0,0,0-.06.69c-2-5.5-4.25-11.45-6.29-17.08a49,49,0,0,1,9.13,15.91,2.14,2.14,0,0,1,.05,1.69,2.18,2.18,0,0,1-.55.75c-.15.14-.59.49-.75.63-4.95,3.88-11.92,4.07-17.74,2.6Z"/><path class="cls-13" d="M178.06,231.55c5.31-2.16,11.28-4,16.76-5.74l-1.09,1.57A85.09,85.09,0,0,0,189,206.55a32.1,32.1,0,0,1,5.52,9.64,39.67,39.67,0,0,1,2.37,12.21,72.26,72.26,0,0,1-18.79,3.15Z"/><path class="cls-13" d="M182.07,234.73c6.26.78,12.17-2.68,17.88-4.8l-.94,1.55a139.68,139.68,0,0,0-4-21.32,43.73,43.73,0,0,1,7,21.05l.09,1.13-1,.41c-5.72,2.07-13.26,5.07-19.06,2Z"/><path class="cls-13" d="M187.38,240.16a43.55,43.55,0,0,0,16.9-5.06c-.24.25-.06.4-.2-.43-.75-6.77-2.44-15.89-3.67-22.68a50,50,0,0,1,4.26,10.16,62.47,62.47,0,0,1,2.45,12.18,3.84,3.84,0,0,1-.16,2.12c-.65,1.34-1.92,1.57-3.06,2.14a26.9,26.9,0,0,1-16.52,1.57Z"/><path class="cls-13" d="M186.15,245.28c8.08-.1,16.08-1.37,22.83-5.76a.66.66,0,0,0-.09.15c0,.05,0,.05,0,0s0-.38,0-.67c-.39-9.41-1.51-18.66-2.69-28a71.41,71.41,0,0,1,4,13.27,90.18,90.18,0,0,1,1.77,14.65,4.7,4.7,0,0,1-.18,1.89,3.29,3.29,0,0,1-1.59,1.6,31.68,31.68,0,0,1-24,2.91Z"/><path class="cls-13" d="M191.11,251.31A38.91,38.91,0,0,0,212.48,243a3.1,3.1,0,0,0,.15-1,168.9,168.9,0,0,0-.93-33.18,66.72,66.72,0,0,1,3.62,14.59,79.41,79.41,0,0,1,.3,18.87,4.39,4.39,0,0,1-.82,2.56,30.11,30.11,0,0,1-23.69,6.46Z"/><path class="cls-13" d="M194.28,255.2a55.66,55.66,0,0,0,12.55-1.89c2.23-.67,4.39-.71,6-1.52,1.94-1,3.86-2.49,6.3-2.73l-1.38,1.46c.19-4.34-.43-8.86-.22-13.27s.12-8.89.24-13.37a71.38,71.38,0,0,1,2.19,13.31c.27,4.52,1.07,8.88.86,13.47l-.06,1.34a8,8,0,0,0-3.81.95c-.9.44-1.83,1-3,1.48-2.18.89-4.43.82-6.6,1.18a31.76,31.76,0,0,1-13.07-.41Z"/><path class="cls-13" d="M199.76,260.46a33.54,33.54,0,0,0,6.3-.41c4.11-.77,7.94-2.75,11.91-4.05,2-.74,4-1.43,6-2.1l-1,1.25c1.19-10.4-.12-20.83-.81-31.24a78,78,0,0,1,4.26,23.53,54.59,54.59,0,0,1-.59,9q-6.53,2.11-13.15,3.89a21.81,21.81,0,0,1-12.92.1Z"/><path class="cls-13" d="M203.69,264.67c8.83.83,16-5.12,24.63-5.84l-1.38,1.27c.35-2.05.61-4.13.8-6.21a99.71,99.71,0,0,0-.22-19,46.23,46.23,0,0,1,3.14,19.2,57.06,57.06,0,0,1-.89,7.71l-1.19.09c-8.18.7-16.65,6.11-24.89,2.78Z"/><path class="cls-13" d="M207.31,268c6.5,1.48,11.85-2.93,17.93-4.51a14.46,14.46,0,0,1,6.94-.29l-1.85,1.19c.8-3.85,2.84-13.76,3.63-17.48.44-1.95.85-3.91,1.36-5.86a78.05,78.05,0,0,1-.25,12,114.84,114.84,0,0,1-2,13.45l-1.54-.34c-8-1.58-16.42,6.36-24.19,1.8Z"/><path class="cls-13" d="M211.15,273.52c5.52-3.23,11.75-5.56,18.25-5.46a20.84,20.84,0,0,1,6.56,1.17l-2,1.2c1.33-8.51,6.31-16.64,5.34-25.46,3.49,8.49-.93,17.52-2.31,26l-.29,1.83-1.73-.63c-7.76-2.75-16.06-.45-23.79,1.4Z"/><path class="cls-13" d="M212.56,278.09c7.24-6.62,18.78-7.51,27.34-2.91l-2.2.91c.71-2.33,1.52-4.6,2.29-6.86,2.38-6.67,4.58-13.52,3.8-20.69,3.62,9.36-.42,19.4-3.15,28.43l-.55,1.84c-8.21-5.17-19-5.2-27.53-.72Z"/><path class="cls-13" d="M214.65,280.67c8.44-5.16,19.6-5,28.32-.54l-2.17.92c1.2-3.81,2.83-9.35,4-13.22s2.85-9.45,4.18-13.27c-.12,2.34-.4,4.65-.7,7s-.71,4.6-1.17,6.88c-1,5.18-2.43,10.28-3.93,15.33a36.49,36.49,0,0,0-28.56-3.06Z"/><path class="cls-13" d="M215,283.68c9.32-4.16,20.57-3.38,29.59,1.26l-2,.54a55.8,55.8,0,0,0,3.2-5.7,63.56,63.56,0,0,0,5.66-19,40.88,40.88,0,0,1-6.29,26.39l-.72,1.16-1.26-.62a46.21,46.21,0,0,0-28.2-4Z"/><path class="cls-14" d="M202.61,168.71c6.75,11,16.54,19.5,23.69,30.22a151.72,151.72,0,0,1,27,81.51c.3,9.56-.37,19.68-4.86,28.27,3.6-9,3.62-18.7,2.85-28.17a172.71,172.71,0,0,0-27-80.28c-1.48-2.26-3.8-5.68-5.41-7.84-5.54-7.79-12.17-15-16.29-23.71Z"/><path class="cls-14" d="M199.17,171.81a19.47,19.47,0,0,1,7.85,2.06l-2.13,1.64a15,15,0,0,1,.31-6.28c.81-2.43.81-2.45,1.52,0a67.22,67.22,0,0,1,1.64,8.69c-3.29-1.55-6.85-3.21-9.19-6.11Z"/><path class="cls-14" d="M199.82,176.35a41.84,41.84,0,0,1,10.71,1.92l-2,1.57a31.88,31.88,0,0,1,.92-10.34c1.65,3.88,2,8.15,2.28,12.31-4.23-1.12-8.54-2.6-12-5.46Z"/><path class="cls-14" d="M202,180.66c3.38.33,8.25,1.31,11.63,1.88l-1.8,1.45a64.45,64.45,0,0,1,1.34-11.48c1.71,4.22,1.92,8.86,1.67,13.35-4.61-.65-9.28-2.09-12.84-5.2Z"/><path class="cls-14" d="M203.69,185.29a117.82,117.82,0,0,1,14,2.46l-1.87,1.51a60,60,0,0,1,1.9-14.79,65,65,0,0,1,1.11,16.7c-5.3-1.15-10.58-2.83-15.12-5.88Z"/><path class="cls-14" d="M207.42,189.86c5,.95,9.73.67,14.6,2.38L220,193.6a79.82,79.82,0,0,1,1.78-13.46c1.46,5.11,1.51,10.42,1.18,15.67-5-2-11.15-2.35-15.51-5.95Z"/><path class="cls-14" d="M208.31,193.06c2.59.61,6.25,1.51,8.82,2,3,.63,6.64.65,9.23,2.75l-2.5,1c.69-5.77,1.28-11.56,2.42-17.28,1.47,6.71,1.15,13.69.32,20.46l-2.19-1.82a9.1,9.1,0,0,0-3.5-1.51,33,33,0,0,1-12.6-5.62Z"/><path class="cls-14" d="M211,199.71a41.22,41.22,0,0,1,18.2,3.89L227,204.77a97.41,97.41,0,0,1,3.8-18.27,103.9,103.9,0,0,1-1,20.77c-6.11-2.91-12.46-5.23-18.83-7.56Z"/><path class="cls-14" d="M212,204.35a75.78,75.78,0,0,1,20.73,4.13l-2,1.63a27.17,27.17,0,0,1,0-5.84c.34-3.74,1.21-7.32,1.66-11a34.73,34.73,0,0,0,.28-5.52,18.37,18.37,0,0,1,1.26,5.55c.44,6.33-.93,12.77.15,18.89-6.63-2.35-15.54-5.24-22-7.83Z"/><path class="cls-14" d="M213.93,208.31a66.58,66.58,0,0,1,21.8,4.92l-2.1,1.28a138.39,138.39,0,0,1,3.72-22c.15,1.88.17,3.74.2,5.6a177,177,0,0,1-1.06,18.7c-7.34-3-15.12-5.71-22.56-8.54Z"/><path class="cls-14" d="M215.21,214c6.22.56,12.58-.24,18.51,2.27a14.65,14.65,0,0,1,5.47,3.87l-2.66.84A134.78,134.78,0,0,1,240.25,201c.12,1.71.14,3.4.14,5.1a177.69,177.69,0,0,1-1.17,18.58l-2.32-2.6c-5.31-5.82-14.8-5-21.69-8.15Z"/><path class="cls-14" d="M218.4,219.92a29,29,0,0,1,18.3,3.83,30.18,30.18,0,0,1,5.21,3.77l-2.55.91c.82-5.62,2-13.31,2.91-18.93.38-2.1.72-4.22,1.17-6.33.25,2.15.31,4.3.36,6.45a119.49,119.49,0,0,1-1.4,19.27l-.43,2.84a41.67,41.67,0,0,0-23.57-11.81Z"/><path class="cls-14" d="M221.32,224a59.49,59.49,0,0,1,23.05,9.42l-2.35.92a199.47,199.47,0,0,0,4-28c2,10.21,1.07,20.82-1.53,30.84A144.24,144.24,0,0,0,221.32,224Z"/><path class="cls-14" d="M224.76,231.93a50.84,50.84,0,0,1,21.12,7.52l-2.26.82c1.25-3.94,2.58-7.85,3.94-11.76s2.84-8,4.47-11.67a112.78,112.78,0,0,1-5.51,24.39l-.63,1.86a139.26,139.26,0,0,0-21.13-11.16Z"/><path class="cls-14" d="M227.56,238c7.35,1.78,14.6,4.5,20.71,9l-2.33.61q2.38-5.66,4.33-11.49c1.16-3.42,2.59-8.41,3.63-11.92.26,9.12-2.14,18.18-5.94,26.42-6.13-5-13.63-8.58-20.4-12.67Z"/><path class="cls-14" d="M227.48,244.5a65.59,65.59,0,0,1,22.61,9.06l-2.25.65c3-6.64,6-13.3,9.43-19.73a99.15,99.15,0,0,1-7.35,22.63c-7-4.84-15.11-8.35-22.44-12.61Z"/><path class="cls-14" d="M230.34,252.15c5.86,1.2,11.81,2.57,17,5.65a21,21,0,0,1,4.85,4l-2.58.49a129.39,129.39,0,0,1,8.41-18.4,141.5,141.5,0,0,1-6.38,21.81,29.93,29.93,0,0,0-5.9-5.39c-4.8-3.19-10.47-5.18-15.42-8.16Z"/><path class="cls-14" d="M233.79,258.47a46.73,46.73,0,0,1,19.85,11.85L251,271.49c-.12-2.72,1.36-4.65,2.47-6.79,1.07-1.89,2.14-3.77,3.26-5.63a127.37,127.37,0,0,1,7.19-10.9,129.12,129.12,0,0,1-5,12.06c-.92,2-1.87,3.91-2.84,5.86-.76,1.66-2.07,3.51-2,5.22l.19,4a104.24,104.24,0,0,0-20.49-16.84Z"/><path class="cls-14" d="M235.12,266.35c6.91,3.1,15.22,6,18.79,13.27l-2.64-.21c1.24-1.84,2.43-3.72,3.6-5.62,3.42-5.51,6.7-11.94,9.66-17.76a64.42,64.42,0,0,1-10.74,25.11l-1.53,2.2a21.61,21.61,0,0,0-4-6.66c-3.78-4.08-9-6.61-13.13-10.33Z"/><path class="cls-14" d="M239.64,275.28a30.16,30.16,0,0,1,14.3,16.05l-2.79,0a75,75,0,0,1,15.79-25.6A293.8,293.8,0,0,0,252.44,296l-1.31-3.61a42.79,42.79,0,0,0-11.49-17.09Z"/><path class="cls-14" d="M241.18,283.67a28.59,28.59,0,0,1,11.32,16.07l-2.67-.53c5-6.74,9.58-13.74,14.43-20.6-2.74,9.2-7.94,17.48-13.94,24.89a47.48,47.48,0,0,0-9.14-19.83Z"/><path class="cls-14" d="M241.82,291.67a25.44,25.44,0,0,1,8.48,14.48l-2.44-.89c5.49-4.54,10.66-9.4,16.1-14-3.79,7.22-9.73,13.1-16.2,18a49.72,49.72,0,0,0-5.94-17.52Z"/><path class="cls-15" d="M283,270.08a64.06,64.06,0,0,0-5.36,13.75l-.64-1.64a28.17,28.17,0,0,1,5.33,4.11c2.36,2.19,4.39,4.42,7,6.14s5.67,2.4,8.76,3.34c-11.43,1.3-14.65-5.31-22.61-11.11l-1-.64A30.53,30.53,0,0,1,283,270.08Z"/><path class="cls-15" d="M275.91,275.29c-1.36,4.08-2.93,8.39-4.19,12.49l-.26-1.39a46.34,46.34,0,0,0,16.05,10.83c2.05.83,4.16,1.55,6.36,2.2a26.93,26.93,0,0,1-13.52-2.59,30.89,30.89,0,0,1-11.53-9.31,47,47,0,0,1,7.09-12.23Z"/><path class="cls-15" d="M269.06,281c-1.24,4.18-2.58,8.2-3.74,12.36l-1.38-1.91c4.17.09,6.29,4.08,9.53,5.94a35.06,35.06,0,0,0,9.41,4.34,18.9,18.9,0,0,1-13.2-3.47c-1.79-1.16-3.92-3.81-5.76-3.89l-2-.08A38.91,38.91,0,0,1,269.06,281Z"/><path class="cls-15" d="M263.2,288.6c-.58,2.76-1.73,6.49-2.48,9.22L259,295.9a4.12,4.12,0,0,1,2.5.25,26,26,0,0,1,9,7.45,28.87,28.87,0,0,1-3.13-1.14c-2-.85-3.91-1.8-5.8-2.82a4.54,4.54,0,0,0-1.93-.8l-2.81,1c1.34-4.09,3-8.42,6.4-11.28Z"/><path class="cls-15" d="M258,293.65a63.85,63.85,0,0,0-1.15,9.49l-2.26-1.39a4.36,4.36,0,0,1,2.44-.6c2,.11,3.61,1.12,5.2,1.92a30.7,30.7,0,0,1,5.7,3.79,31.74,31.74,0,0,1-6.71-1.38c-1.56-.37-3.78-1.65-5.11-1.13l-2.52,1.36c.22-4.31,1.15-9,4.41-12.06Z"/><path class="cls-15" d="M253.08,299.51a18.37,18.37,0,0,1,1.58,7.86l-2-1.35a5.52,5.52,0,0,1,6.26,2.05,13.05,13.05,0,0,0-5.3.81l-1.77.72c-.46-3.37-.58-7.05,1.22-10.09Z"/><path class="cls-15" d="M253.25,307.7c2.67-9.61,11.05-16.27,18.6-22.14a101.27,101.27,0,0,1,25.47-14.69,59.65,59.65,0,0,1,29.24-3.41c4.85.49,9.62,1.24,14.41,1.33A31.38,31.38,0,0,0,355,266.33c-8.51,5.33-19.17,4.07-28.67,3.53-19.67-2-37.37,6.62-53.1,17.63-7.79,5.52-16.11,11.13-20,20.21Z"/><path class="cls-15" d="M353.58,263.77a16.43,16.43,0,0,1-1.86,5.22l-1-2.1a8.1,8.1,0,0,1,3.18,2.29c.29.29.62.56,1,.89a3.85,3.85,0,0,1-2.9.37c-1.22-.29-2.63-.77-3.83-1.11l.69-1.61a6.72,6.72,0,0,1,4.65-4Z"/><path class="cls-15" d="M350.86,262.83a16.7,16.7,0,0,1-4,7.36l-.39-2.38a37.14,37.14,0,0,1,7.55,5,11.39,11.39,0,0,1-2.41,0,20.88,20.88,0,0,1-8.34-3.22,37.22,37.22,0,0,1,7.59-6.69Z"/><path class="cls-15" d="M346.79,263a24.79,24.79,0,0,1-4.52,7.55l0-2.06c2.23,2.28,4.76,4.42,7,6.7-4.09-.09-7.64-2.61-10.2-5.63a27.25,27.25,0,0,1,7.74-6.56Z"/><path class="cls-15" d="M344.78,261.37c-1.86,3-4.64,5.27-6.73,8a1.12,1.12,0,0,0-.09-.88l.05.1a25.63,25.63,0,0,0,6.65,7.8c-3.93-.18-7.52-2.94-9.36-6.36a2,2,0,0,1-.27-.92,2.36,2.36,0,0,1,.32-1.18c2.27-3.2,5.85-5.11,9.43-6.56Z"/><path class="cls-15" d="M339.34,261.4A28.85,28.85,0,0,1,331,270a1.27,1.27,0,0,0,.48-1.44.63.63,0,0,0,.1.15c1.23,1.59,2.86,3.22,4.25,4.75,1.9,1.76,3.37,3.67,5.71,4.93-2.38.16-4.7-1.22-6.59-2.45a25.56,25.56,0,0,1-5.31-4.71,5,5,0,0,1-1.12-2,1.76,1.76,0,0,1,.62-1.65l1.51-1c2.84-1.75,5.74-3.67,8.72-5.29Z"/><path class="cls-15" d="M334.23,260.19a29.16,29.16,0,0,1-10.54,9.4l.54-2.17c4.21,5.62,8,11.35,13.72,15.47-7.23-1.54-12.27-8-16.14-13.76l-1-1.46a99.21,99.21,0,0,0,13.39-7.48Z"/><path class="cls-15" d="M326,260.14a46.35,46.35,0,0,1-9.11,9.65l.33-2a91.4,91.4,0,0,0,13.62,14.54,27,27,0,0,1-9.12-5,34.46,34.46,0,0,1-7.73-9.1c4-2.76,7.86-5.6,12-8.08Z"/><path class="cls-15" d="M318.69,261.23c-2.3,2.53-5.61,6.08-7.72,8.68l.23-1.55c3.64,6.79,7.26,13.62,14.22,17.42-8.44-.82-13.81-9.1-16.73-16.21l-.39-.94a34.53,34.53,0,0,1,10.39-7.4Z"/><path class="cls-15" d="M310.63,262.43a87.21,87.21,0,0,0-6.43,8.68l-.53-2.11c3.35,1.51,4.38,5.54,6,8.35a30.42,30.42,0,0,0,5.82,7.32,15.41,15.41,0,0,1-8.12-5.83c-1.86-2.35-2.58-5.76-5-7.28l-1.48-.87a24,24,0,0,1,9.74-8.26Z"/><path class="cls-15" d="M302.36,265.15a54.73,54.73,0,0,0-4.93,7.59l-.07-1.47c4.82,5.61,10.36,10.87,15.56,16.13-7.3-2.67-13.36-8.15-17.63-14.56l-.54-.82a20.35,20.35,0,0,1,7.61-6.87Z"/><path class="cls-15" d="M295.8,266.39a73.25,73.25,0,0,1-4.6,9.78l-.18-1.71a23.52,23.52,0,0,1,3.93,5.05,21.86,21.86,0,0,0,14,9.5,15.59,15.59,0,0,1-12.14-3c-3.47-2.3-5.16-6.69-7.61-9.63l-.77-.85a73.64,73.64,0,0,1,7.41-9.14Z"/><path class="cls-15" d="M288.51,268.93c-1.21,3.64-2.75,7-4.11,10.46,0,.07.05-.06.08-.18a1.21,1.21,0,0,0,0-.5.27.27,0,0,0-.05-.15s0,0,.09.07c1.15,1.25,2.74,2.17,3.71,3.66,3.43,5.42,9.39,7.77,14.65,11.19-6.48-1.06-13.61-3.58-17.19-9.49-1-1.47-2.71-2.47-3.64-4.1a1.81,1.81,0,0,1,0-1.76,48,48,0,0,1,6.48-9.2Z"/><path class="cls-16" d="M216.71,264.06a30.46,30.46,0,0,1,8,13.94l-.9.64c-7.26,5.63-10.5,12.41-21.22,11.13a59.59,59.59,0,0,0,5.75-2c5.64-2.58,8.55-8.42,13.89-11.62l-.62,1.6a70.07,70.07,0,0,0-4.9-13.73Z"/><path class="cls-16" d="M223.34,269.27a46.58,46.58,0,0,1,6.72,12.23,29.32,29.32,0,0,1-10.68,9.22,24.39,24.39,0,0,1-12.83,2.69,44.56,44.56,0,0,0,20.83-13l-.23,1.34c-1.17-4.1-2.61-8.36-3.81-12.47Z"/><path class="cls-16" d="M229.74,275a38.89,38.89,0,0,1,6.82,13.26l-2,.12c-2.09.34-3.48,2.62-5.25,3.8a17.16,17.16,0,0,1-12.47,3.54,30.57,30.57,0,0,0,8.77-4.34c3-1.89,4.9-5.82,8.92-5.95l-1.4,1.9c-1-4.05-2.34-8.26-3.38-12.33Z"/><path class="cls-16" d="M235.22,282.59c2.95,2.65,4.59,6.41,5.7,10.14l-2.4.1a5.2,5.2,0,0,0-1.69.78,47.58,47.58,0,0,1-8.41,4,22.2,22.2,0,0,1,4.3-4.67c1.93-1.35,3.84-3.54,6.51-3l-1.81,1.91c-.69-2.74-1.74-6.43-2.2-9.2Z"/><path class="cls-16" d="M240,287.64c3.13,3.09,4,7.66,4.21,11.89l-2.54-1.21c-1.43-.43-3.1.76-4.63,1.13a29.47,29.47,0,0,1-6.32,1.39,22.22,22.22,0,0,1,2.56-2c2.77-1.64,6.63-5,10-3.05L241,297.12a82.28,82.28,0,0,0-1-9.48Z"/><path class="cls-16" d="M244.68,293.5c1.84,3.05,1.68,6.76,1.18,10.14a15.7,15.7,0,0,0-3.9-1.44,12.4,12.4,0,0,0-2.75-.14,5.06,5.06,0,0,1,5.91-2l-2,1.34a17.18,17.18,0,0,1,1.56-7.86Z"/><path class="cls-16" d="M244.52,301.69c-3.52-8.69-11.05-14.38-18.29-19.85-14.31-10.8-31.23-20-49.7-18-9,.55-19.22,1.87-27.15-3.49,6.27,3.06,13.34,2.75,20.09,1.92l6.86-.82c19-3,37.32,6.69,51.38,18.54,7,5.81,14.54,12.56,16.81,21.73Z"/><path class="cls-16" d="M150.74,257.75a6.47,6.47,0,0,1,4.45,4l.65,1.65-1.58.39c-1.28.37-3.4,1.29-4.82.27,1.42-1.17,2-2.46,3.87-3.17l-.93,2.05a14.28,14.28,0,0,1-1.64-5.19Z"/><path class="cls-16" d="M153.28,256.82a32.92,32.92,0,0,1,7.16,6.68,22.11,22.11,0,0,1-5.63,2.75,12.14,12.14,0,0,1-4.49.5,20.76,20.76,0,0,1,1.71-1.48,44.27,44.27,0,0,1,5.27-3.46l-.39,2.33a15.82,15.82,0,0,1-3.63-7.32Z"/><path class="cls-16" d="M157.09,257a25.46,25.46,0,0,1,7.31,6.56c-2.36,3-5.7,5.49-9.61,5.62,2.08-2.26,4.4-4.41,6.45-6.65l0,2a23.42,23.42,0,0,1-4.11-7.51Z"/><path class="cls-16" d="M159,255.35a21,21,0,0,1,8.67,6.16,3,3,0,0,1,.52,1.23,1.89,1.89,0,0,1-.17,1.14,12.6,12.6,0,0,1-3.56,4.37,9.67,9.67,0,0,1-5.35,2.12,25.15,25.15,0,0,0,6.15-7.83,1.13,1.13,0,0,0-.11.64c.07.29,0,.1,0,0-2-2.63-4.44-4.91-6.11-7.84Z"/><path class="cls-16" d="M164.05,255.39c3.19,1.84,6.21,4,9.24,6a1.84,1.84,0,0,1,1,1.33,3.59,3.59,0,0,1-1,2.49c-2.68,3.16-6.88,7.2-11.25,7.22,2.37-1.41,3.9-3.53,5.77-5.49l1-1.21a36.62,36.62,0,0,0,2.49-3.09.85.85,0,0,1,0,.15,1.36,1.36,0,0,0,.11.71,1.3,1.3,0,0,0,.47.58l0,0a27,27,0,0,1-7.79-8.65Z"/><path class="cls-16" d="M168.82,254.18a93.17,93.17,0,0,0,12.59,7.48l-.88,1.41c-3.56,5.71-8.21,12.16-15.18,13.81,5.41-4.2,8.8-9.9,12.71-15.44l.53,2.12a27.53,27.53,0,0,1-9.77-9.38Z"/><path class="cls-16" d="M176.48,254.13c3.93,2.48,7.59,5.32,11.29,8.09a33.51,33.51,0,0,1-7.14,9,25.27,25.27,0,0,1-8.67,5.1,91.49,91.49,0,0,0,12.62-14.5l.32,1.93a43.68,43.68,0,0,1-8.42-9.62Z"/><path class="cls-16" d="M183.35,255.22a32.55,32.55,0,0,1,9.79,7.41l-.35.89c-2.66,6.94-7.53,15.28-15.73,16.25,6.62-3.92,9.79-10.75,13.2-17.39l.21,1.48c-1.94-2.56-5-6.14-7.12-8.64Z"/><path class="cls-16" d="M190.88,256.42a22.9,22.9,0,0,1,9.17,8.24l-1.37.87c-2.2,1.54-2.86,4.88-4.58,7.2a14.8,14.8,0,0,1-7.72,5.93,30.11,30.11,0,0,0,5.37-7.34c1.45-2.79,2.35-6.73,5.56-8.32l-.51,2.06a89.92,89.92,0,0,0-5.92-8.64Z"/><path class="cls-16" d="M198.62,259.14a19.86,19.86,0,0,1,7.19,6.86l-.49.8c-3.91,6.32-9.59,11.84-16.58,14.58,4.83-5.27,10-10.54,14.45-16.09l-.06,1.41a56.08,56.08,0,0,0-4.51-7.56Z"/><path class="cls-16" d="M204.75,260.38a71.81,71.81,0,0,1,7,9.12l-.72.84c-1.69,2-2.85,5.07-4.71,7.26-3.28,4-8.74,6.47-13.85,5.4a20.17,20.17,0,0,0,13-9.55,22.14,22.14,0,0,1,3.63-5l-.17,1.65a66.64,66.64,0,0,1-4.2-9.75Z"/><path class="cls-16" d="M211.56,262.92a46.54,46.54,0,0,1,6.19,9.29c0,.09,0,0,.13.35a1.81,1.81,0,0,1,0,.74,5.68,5.68,0,0,1-1.47,2.24c-.24.25-1.63,1.71-1.81,1.93s-.67,1-.8,1.23c-3.34,5.28-9.81,7.71-15.69,8.77,4.71-3.29,10-5.55,13.13-10.46.94-1.74,2.48-2.86,3.78-4.19l.2-.24c.05-.05,0,.11,0,.14a1.35,1.35,0,0,0,0,.48c.12.3,0,.08,0,.08-1.23-3.43-2.66-6.78-3.71-10.36Z"/><path class="cls-13" d="M265.41,331.94c-.18-6.88-.61-14-7.48-17.32,4.95-2.75,11.11-3.71,16.44-1.65a26.66,26.66,0,0,0-13.9,2.64l0-1.77a10.34,10.34,0,0,1,3.73,3.64c2.74,4.3,2.39,9.83,1.16,14.46Z"/><path class="cls-13" d="M261.57,331.39c-.36-4.83-.24-9.86-3.6-13.49a8.4,8.4,0,0,0-5.44-2.55l1.25-1.28a14,14,0,0,1,12.81-4,17.76,17.76,0,0,0-6.31,1.66,15.84,15.84,0,0,0-5.06,3.7l-.53-1.65c7.88,1.77,8.69,11.13,6.88,17.62Z"/><path class="cls-13" d="M258.05,330.89c-.55-5.25-2.57-13.07-8.49-14.25l-1.77-.23c2.7-3.73,6.39-7.39,11.2-8a9.21,9.21,0,0,1,4,.29,12,12,0,0,0-3.81.62c-3.66,1.2-6.43,3.91-8.73,6.94l-.69-1.62c7.15,1.13,9.49,10.17,8.27,16.26Z"/><path class="cls-13" d="M254,327.68c-1.29-4.34-3.19-9.51-8.7-8.54l-1.7.17.64-1.55A14.32,14.32,0,0,1,254.39,309a21.46,21.46,0,0,0-5,4.17,18.11,18.11,0,0,0-3.24,5.35l-1.07-1.38c6.55-1,9.38,4.91,8.94,10.56Z"/><path class="cls-13" d="M249.77,327.15a12.51,12.51,0,0,0-4-5.33,4.75,4.75,0,0,0-3.36-.08c-.05,0,0,0,0,0l-2-.22c.5-4.07,3.51-7.17,6.41-9.76-.81,1.77-1.85,3.39-2.69,5a13.79,13.79,0,0,0-1.69,5l-2-.22c.43-2.52,3.65-2.29,5.46-1.65,2.63,1,3.9,4.64,3.91,7.25Z"/><path class="cls-13" d="M246.91,326.37c-1.63-2.26-5-2.29-6.3,0a1.38,1.38,0,0,1-2.33-.25c-1.86-3.45,1.39-8.33,3.69-10.83-.58,1.94-1.21,3.76-1.71,5.61-.39,1.44-.84,2.85-.24,4.17-.13-.23-.74-.21-1,0l-.18.23c2-3.28,7.31-2.73,8,1Z"/><path class="cls-13" d="M240,324.89c1.39-4.39,5.2-7.6,9.37-9.36,8.62-3.54,18.89-1.4,26.12,4.28,11.31,8.9,12.14,24.3,14.18,37.36,1.4,8.68,5.79,17.52,14.51,20.64-15.06-4.4-16.18-20.61-18.41-33.57-1.6-8.51-4.6-17.34-11.5-22.92-9.55-8.18-28.12-9.15-34.27,3.57Z"/><path class="cls-13" d="M298.2,381c-3.14-3.68-4.76-8.36-5.8-13,1.07.61,2.68,1.63,3.79,2.12a36.46,36.46,0,0,0,6,1.8,12.3,12.3,0,0,1-8.73-1l1.46-1.15c1,3.35,2.5,7.84,3.29,11.23Z"/><path class="cls-13" d="M294.74,380.47c-4.57-3.71-4.21-10.34-3.62-15.57l1.23.5a39.39,39.39,0,0,0,7.36,2.26,3.7,3.7,0,0,0,2.5-.09,3.45,3.45,0,0,1-2.56.95,19.58,19.58,0,0,1-8-1.28l1.37-.85c-.3,4.88-.73,9.69,1.76,14.08Z"/><path class="cls-13" d="M288.83,376.93c-1.39-5.37-.7-11.08,1-16.3l1.14,1.1c2.18,2.06,5.48,2.4,8.38,3.1a16.9,16.9,0,0,1-4.88.28,8.87,8.87,0,0,1-4.81-1.9l1.61-.49c-1.13,4.72-1.74,9.37-2.43,14.21Z"/><path class="cls-13" d="M285.4,373.56c-.69-5.92,2.49-11.5,2.94-17.24l1.28.74c2.38,1.44,4.7,3,7.46,3.51a9.4,9.4,0,0,0,2.81.1,6.65,6.65,0,0,1-2.85.76c-3,.18-5.88-1.22-8.42-2.65l1.49-.75c-.57,5.61-3.49,10.15-4.71,15.53Z"/><path class="cls-13" d="M282.57,368.27a95.87,95.87,0,0,1,5.25-17.06,14.71,14.71,0,0,0,12.11,5.71,11.8,11.8,0,0,1-12.51-3.15l1.68-.34a93.77,93.77,0,0,1-6.53,14.84Z"/><path class="cls-13" d="M281.23,362.29c1.21-4.25,3.48-10.48,4.91-14.71l1.93.65c.08-.38,0-.4,0-.36,2.7,2.92,6.46,6.05,10.75,5.35-3.3,1.89-7.32,0-10.08-2.05a8.31,8.31,0,0,1-2.47-2.4,1.51,1.51,0,0,1-.14-1.19l1.93.65a54.51,54.51,0,0,1-6.84,14.06Z"/><path class="cls-13" d="M280.28,355.6a68.66,68.66,0,0,0,4.89-14.53c4.41,3.21,11.12,9.75,16.77,6-4.8,5.39-12.49,0-16.79-3.5l1.61-.54a30.06,30.06,0,0,1-6.48,12.54Z"/><path class="cls-13" d="M278.48,350.56a34.22,34.22,0,0,0,5.36-15.44c3.42,3.3,6.47,7.3,11.44,8.11-4.44.93-8.52-2.36-11.44-5.24l1.71-.61a19.23,19.23,0,0,1-7.07,13.18Z"/><path class="cls-13" d="M277.42,346.31a69.41,69.41,0,0,0,4.95-16.7,106.44,106.44,0,0,0,12.56,9.75,33.75,33.75,0,0,1-12.55-7l1.67-.59a29.64,29.64,0,0,1-6.63,14.54Z"/><path class="cls-13" d="M276.29,342.37a35.58,35.58,0,0,0,1.83-18.44,67.44,67.44,0,0,1,14.95,9.8c-4.18-2-10-5-14.15-7.07l1.47-1a23,23,0,0,1-4.1,16.75Z"/><path class="cls-13" d="M273.29,339.46a40.86,40.86,0,0,0,2.46-17.66c3.47-.77,6.66.77,9.53,2.37a30.71,30.71,0,0,1,6.88,5.19c-2.5-1.36-5-2.65-7.58-3.76-2.39-.94-5-2.29-7.58-1.91l.87-1.08a27.28,27.28,0,0,1-.86,8.87,23.81,23.81,0,0,1-3.72,8Z"/><path class="cls-13" d="M271.19,336.54c1.36-6,2.65-12.68-.61-18.29,6.22-.86,12.95.56,17.79,4.64a32.11,32.11,0,0,0-16.13-2.75l.82-1.46a15,15,0,0,1,1.3,4.6c.5,4.65-1,9.23-3.17,13.26Z"/><path class="cls-13" d="M268.38,334.6c-.14-4.74,0-9.68-.8-14.31a6.08,6.08,0,0,0-1.94-3.55l-1.7-1.38a22.93,22.93,0,0,1,15.05.89,17.78,17.78,0,0,1,3.73,2.18,33.59,33.59,0,0,0-4-1.28,27,27,0,0,0-12.23-.22l.4-1.8c4.72,3.55,2.7,14.41,1.52,19.47Z"/><path class="cls-16" d="M269.35,322.89a25.5,25.5,0,0,0-4.28-13.38c-.83-1.27-1.84-2.22-2.63-2.3l-3.15-.28,2.14-2.11a32.59,32.59,0,0,1,9.05-6.48c-2,2.55-4.88,5.92-7,8.41l-1-2.39c2.33,0,4,1.74,5.08,3.41,3,4.34,3.91,10.27,1.75,15.12Z"/><path class="cls-16" d="M267,324.09c-1.11-3.47-5.53-14.72-9.86-13.9l-3.21.79,1.4-2.85a17.62,17.62,0,0,1,11.14-9.4,28,28,0,0,0-8.42,10.66l-1.81-2.06a6.06,6.06,0,0,1,6.1,1.87A19.91,19.91,0,0,1,267,324.09Z"/><path class="cls-16" d="M264,324a22.89,22.89,0,0,0-4.51-7.49c-1.32-1.33-2.72-2.88-4.49-3.08a1.76,1.76,0,0,0-1.1.27l-2.41,1.92-.06-3c-.09-5.34,3.94-9.52,8.21-12.09-2.25,3.62-5.44,7.6-5.17,12L252,311.31a5.14,5.14,0,0,1,6,0A14.35,14.35,0,0,1,264,324Z"/><path class="cls-16" d="M261.07,325.11c-3.23-1.81-4.69-6.37-8.25-7.44a3,3,0,0,0-2.48.28l-2.27,1.69-.16-2.85c-.29-5.35,1.92-11,6.24-14.22a27.68,27.68,0,0,0-3.17,14l-2.43-1.16a5.64,5.64,0,0,1,5.17-.58c4.55,1.72,5.15,6.6,7.35,10.24Z"/><path class="cls-16" d="M257.49,327.5c-1.2-2.08-6.79-8.76-9.18-6.4L246.4,325l-.9-4.31A16,16,0,0,1,248.69,307a30.24,30.24,0,0,0-.2,13l-2.82-.46a4,4,0,0,1,2.37-1.78c5.11-1.25,9.29,5.4,9.45,9.74Z"/><path class="cls-16" d="M243.61,314.05A85.59,85.59,0,0,0,247,324.51l-2.8.65a3.18,3.18,0,0,1,2.41-3.36c6.45-.89,11.91,5.78,12.07,11.73-2.25-3.83-5.36-7.44-9.72-8.61-.85-.21-1.35-.35-1.81-.06-.06.06,0,0-.07,0l-2.8.66a22.64,22.64,0,0,1-.64-11.43Z"/><path class="cls-16" d="M246.51,322.13c4.84-15.91,23.47-23.64,38.45-16.61,13.85,6.79,23.17,21.81,29.43,35.32,2.09,4.71,3.7,9.52,6.11,13.91,1.74,3.05,6.54,11.35,10.57,7.52-3.93,4.54-9.78-3.65-11.87-6.75-2.81-4.37-4.76-9.16-7-13.67-6.24-12.17-16-27.49-28.49-33.7-13.92-6.86-31-.18-37.22,14Z"/><path class="cls-16" d="M315.93,364.7c-1.08-4.77-.18-9.75,1.47-14.28l1.56.7a36.83,36.83,0,0,1,11.3,7.61l-.17.23c-.33-.46-.27-.49.2-.21l1.25.66a68.57,68.57,0,0,1-7.8-2.78c-2.05-.86-4.06-1.78-6.06-2.73l2.08-.89c-1.38,3.78-2.52,7.86-3.83,11.69Z"/><path class="cls-16" d="M321,365.94c-2.35-3.63-1.7-8.24-.87-12.24a56,56,0,0,0,5,5.37c1.44,1.23,1.45,1.27-.51,1.17a8.1,8.1,0,0,1-4.6-2.12l2.55-.88a30.43,30.43,0,0,1-1.54,8.7Z"/><path class="cls-16" d="M310.61,361.74A111.63,111.63,0,0,1,315,345.58l1.52.6a52.76,52.76,0,0,1,13.72,7.69A94.13,94.13,0,0,1,315.41,349l2-.94a50,50,0,0,1-6.83,13.65Z"/><path class="cls-16" d="M308.41,359a85.31,85.31,0,0,1,4.92-17.87,17.82,17.82,0,0,0,5.23,1.8,20.75,20.75,0,0,1,7.87,3.89,16.51,16.51,0,0,1,3,3.12,42.8,42.8,0,0,0-7.63-3.23c-2.85-1-5.33-.83-8.29-2.07l2.1-.86A80.93,80.93,0,0,1,308.41,359Z"/><path class="cls-16" d="M305.47,356.94c1.51-6.47,3.66-13.25,5.49-19.64,3.39.51,7.07,2.36,10.14,3.75a72.41,72.41,0,0,1,8.3,4.18,71.66,71.66,0,0,1-9.09-1.94c-2.91-.7-5.73-2.09-8.6-2.68l1.8-1.08a58.7,58.7,0,0,1-8,17.41Z"/><path class="cls-16" d="M303.33,355.22c1.7-7,4-13.84,6.09-20.71l1.16,0c7.12.21,14.35,3.27,18.92,8.8a40.61,40.61,0,0,0-19-5.73l1.51-1.07a75,75,0,0,1-8.67,18.67Z"/><path class="cls-16" d="M300.71,350.89c2.67-6.36,6.1-12.65,7-19.52a28.45,28.45,0,0,1,11.95,1.43,24,24,0,0,1,9.08,5.52,49.87,49.87,0,0,0-9.73-3.18,40.32,40.32,0,0,0-9.9-.77l1.43-1.28c-1.24,6.9-5.14,12.79-9.81,17.8Z"/><path class="cls-16" d="M300,345.47a83.09,83.09,0,0,0,6.39-16.82,21.5,21.5,0,0,1,13.42,1.09,17.85,17.85,0,0,1,6.09,4.23,30.59,30.59,0,0,0-18-2.51l1.19-1.11A31.15,31.15,0,0,1,300,345.47Z"/><path class="cls-16" d="M297.56,343.28A63.06,63.06,0,0,0,303.33,326a24.76,24.76,0,0,1,12.15-.29,21.27,21.27,0,0,1,9.71,5,39.1,39.1,0,0,0-10.14-2.5,32.22,32.22,0,0,0-10.05.52l1.15-1.19a30,30,0,0,1-8.59,15.78Z"/><path class="cls-16" d="M295.25,340.12a42.92,42.92,0,0,0,5.57-18.25l1.18-.21c8.05-1.39,16.9.83,22.78,6.59a39.89,39.89,0,0,0-22.3-3.59l1.27-1.34a28.52,28.52,0,0,1-1,4.76,25.7,25.7,0,0,1-7.52,12Z"/><path class="cls-16" d="M293.26,337.78a38.08,38.08,0,0,0,5.19-18.87,26.24,26.24,0,0,1,13.23-.09,22.69,22.69,0,0,1,10.35,5.7,35.36,35.36,0,0,0-21.76-2.9l1.2-1.43a26.22,26.22,0,0,1-.72,5,24.22,24.22,0,0,1-7.49,12.6Z"/><path class="cls-16" d="M291.2,335.57a51.39,51.39,0,0,0,4.06-19.34,45.52,45.52,0,0,1,8-1c6.73-.19,14,1.35,19.08,6.06a39.37,39.37,0,0,0-18.94-3c-2.13.12-4.26.37-6.38.7l1.23-1.41a30.74,30.74,0,0,1-7,18Z"/><path class="cls-16" d="M290.45,331.77c1.36-6.19,3.48-12.76,1.72-19l1.33-.43c8.05-2.56,17.49-1.58,24.4,3.31a43.17,43.17,0,0,0-23.53-.41l1.05-1.74a17.8,17.8,0,0,1,.16,5c-.53,4.81-2.61,9.21-5.13,13.26Z"/><path class="cls-16" d="M287,330.09a30.51,30.51,0,0,0,2.28-19.43,35.45,35.45,0,0,1,8.13-2.38,31.83,31.83,0,0,1,20.78,3.45,50.7,50.7,0,0,0-20.26-.45,43.33,43.33,0,0,0-6.44,1.71l1-1.64A23,23,0,0,1,287,330.09Z"/><path class="cls-16" d="M285,327.91A36.16,36.16,0,0,0,286,308a33.26,33.26,0,0,1,7.23-2.91,29.55,29.55,0,0,1,19.27,1.16,46.27,46.27,0,0,0-24.11,3.93l.82-1.65a26.56,26.56,0,0,1-.18,10.21,23.13,23.13,0,0,1-4.08,9.13Z"/><path class="cls-16" d="M281.8,326c1.15-5.9,2.1-12,.64-17.9-.07-.38-.21-.46,0-.25l.68-2.65c1.81-.34,3.76-1.64,6.17-2.39,6.66-2.13,14.46-2.25,20.68,1.06a38.86,38.86,0,0,0-19.71,1.82c-2.21.73-4.14,2.07-6.62,2.47l.68-2.65a3.18,3.18,0,0,1,1,1.94,24.82,24.82,0,0,1,.4,3.93A29.31,29.31,0,0,1,281.8,326Z"/><path class="cls-16" d="M279.89,323.72a38.15,38.15,0,0,0-.68-13.93,8.25,8.25,0,0,0-2.86-4.93l1.61-1c8-4.77,18.06-7.59,27.11-4.7-9.19,0-17.7,2.94-25.62,7.29l.37-2.3a9.79,9.79,0,0,1,2,5.1,24.82,24.82,0,0,1-1.94,14.45Z"/><path class="cls-16" d="M277.36,323.75a78.75,78.75,0,0,0-.92-12.3,13.24,13.24,0,0,0-3-7.44l1.14-.95c6.31-5.18,14.86-7.9,22.95-6.45a50.05,50.05,0,0,0-11.24,3.11,41.62,41.62,0,0,0-9.79,5.71l.27-2.09c3.6,5.32,2.51,14.62.6,20.41Z"/><path class="cls-16" d="M275,321.61c-.17-6.6.19-13.84-6.34-17.36l1.3-1.33a26.74,26.74,0,0,1,18.56-8.16,47.22,47.22,0,0,0-16.38,10.33l-.22-2.35a10.55,10.55,0,0,1,3.49,4.18c2.26,4.68,1.27,10-.41,14.69Z"/><path class="cls-16" d="M272.29,321.73c0-5-.6-13.41-5.8-15.52l-2-.62,1.21-1.71a19.29,19.29,0,0,1,14-8.31,30.88,30.88,0,0,0-11.53,10l-.83-2.33c7.21,2.44,7.7,12.57,5,18.45Z"/><path class="cls-14" d="M252.21,323.31c-8.29-17.53-27.61-20.14-43.26-10.74-14.65,9.21-21.74,26.22-25.39,42.56-4.65,20.09-5.78,42-17,59.87,6.35-12.44,8.64-26.22,10.69-39.9,2.94-20.52,6.42-43,21.84-58.28,15.55-16,44.49-16.9,53.14,6.49Z"/><path class="cls-14" d="M204.07,306.21a69.58,69.58,0,0,1,9.12-1.24c2.36-.16,5.33-.62,7.57,1,1.59,1.14,2.15,2.9,2.75,4.57a57,57,0,0,1,2,6.65,33.35,33.35,0,0,1,.95,9.23c-1.84-5-4.56-11.83-6.57-16.79-1.18-2.57-4.14-1.94-6.66-2.27a69.61,69.61,0,0,1-9.14-1.15Z"/><path class="cls-14" d="M214.74,303.76c4.55-.89,11.11-1.55,13.9,3.31a27.73,27.73,0,0,1,1.67,11.14,36.4,36.4,0,0,1-1.17,8.24c-1.19-5.93-1.38-12-3.08-17.69-1.4-3.76-7.72-3.88-11.32-5Z"/><path class="cls-14" d="M225.19,302.7a28.64,28.64,0,0,1,7.53,2,3.94,3.94,0,0,1,1,.57,3.62,3.62,0,0,1,1.12,2.36,34.75,34.75,0,0,1,.42,10.38,25.19,25.19,0,0,1-1.67,6.75c-.37-2.32-.54-4.56-.75-6.79s-.68-7.8-.89-9.92c0-.29,0-.57-.06-.67s0,0,0-.08c-2.07-1.46-4.66-2.94-6.77-4.63Z"/><path class="cls-14" d="M233.41,304.22a13.75,13.75,0,0,1,6,3.71,26.4,26.4,0,0,1-.91,11.55,16.89,16.89,0,0,1-1.53,3.43,69.94,69.94,0,0,1-.18-14.32l.32.84c-1.2-1.77-2.46-3.4-3.71-5.21Z"/><path class="cls-14" d="M239.74,305.93c1.72,1.62,4.15,2.78,4.56,5.38A14.15,14.15,0,0,1,240.85,322a43.07,43.07,0,0,1,.44-8.53,6.34,6.34,0,0,0-.19-3.3,10,10,0,0,1-1.36-4.24Z"/><path class="cls-14" d="M243.77,322.88a24.57,24.57,0,0,1,3.06-5.48c-.77-3.4-1.82-6.45-2.72-9.91a12.8,12.8,0,0,1,5.6,8.92,3.31,3.31,0,0,1-.09,1.93,2.92,2.92,0,0,1-.61.87,20.91,20.91,0,0,1-5.24,3.67Z"/><path class="cls-14" d="M164.44,409.58c2.41-3.14,5.42-6.29,7.3-9.72l2.88-5.22v5.95c0,2.44,1.31,5.74,2.12,8.23,1.1,3.55,1.14,3.61-1.31.72-2.06-2.56-3.82-5.52-3.89-9l2.89.74a18.33,18.33,0,0,1-10,8.25Z"/><path class="cls-14" d="M166,403.79a86.14,86.14,0,0,1,8.48-10.48l1,2a72.4,72.4,0,0,1,5.3,12.66l-.2-.09c0,.09.27-.15.12-.32.32.1.26.63-.11.72a29,29,0,0,1-2.46-2.75,43.72,43.72,0,0,1-5.38-8.88l2.47.37a33.05,33.05,0,0,1-9.25,6.79Z"/><path class="cls-14" d="M165.79,397.2c3.41-3.52,6.89-7,10.09-10.74l.62,2.94c1.25,5.64,6.76,9.56,7.73,15.38-3.75-4.82-9.69-8.36-10.66-14.89l2.53.78a27.37,27.37,0,0,1-10.31,6.53Z"/><path class="cls-14" d="M164.9,392.8c4-4,8.55-7.34,12.76-11.07l.49,2.61c.54,2.5,2.93,4.24,4.69,6.23a24.91,24.91,0,0,1,2.81,3.61,11.17,11.17,0,0,1,1.91,5c-.22-.36-.51-.86-.69-1.21l.53.37-.24.16c-1.65-2.44-3.93-4.2-6.14-6.08-2.39-2-5.29-4.08-5.86-7.61l2.46.92a44.61,44.61,0,0,1-12.72,7Z"/><path class="cls-14" d="M165.59,387.81c3.88-4,8.1-7.92,12-11.83l1.07,1c5.57,5.18,11.37,11.23,13.26,18.86-4.49-6.32-9.93-11.25-15.33-16.72l2,0a52,52,0,0,1-13.08,8.69Z"/><path class="cls-14" d="M165.53,382.07c3.41-3.61,8.57-8.44,12.14-12l1-1,1.07.93a56.11,56.11,0,0,1,13.35,16.56c-5.17-4.57-10.27-9.66-15.37-14.28l2.06,0a54.93,54.93,0,0,1-14.24,9.78Z"/><path class="cls-14" d="M165.62,376.75c4.23-4.54,10.29-10.41,14.67-14.86,3.72,7.5,12.51,12.74,14.13,21.47-4.07-7.14-11.75-11-15.76-18.25l2.38.33a69,69,0,0,1-15.42,11.31Z"/><path class="cls-14" d="M165,371.35A86.35,86.35,0,0,1,181,356.94a70.55,70.55,0,0,1,10.59,10.5c2.77,3.65,5.07,8,5.44,12.61-3.55-8.33-10.55-14.13-17.11-20.06l1.86.1c-4.86,3.28-11.94,8.19-16.85,11.26Z"/><path class="cls-14" d="M165.34,365.87a166.4,166.4,0,0,1,17.13-15.8c1.95,1.8,3.92,3.6,5.79,5.5,4.66,4.76,9.1,10.1,11.4,16.44-5.27-6.89-12-12.87-18.29-18.8l2,.07a161.6,161.6,0,0,1-18,12.59Z"/><path class="cls-14" d="M166.09,360a182.3,182.3,0,0,1,17.79-16.23l1,.77a57.8,57.8,0,0,1,17.42,22.31,137.63,137.63,0,0,0-19.34-19.94l1.89,0A177.21,177.21,0,0,1,166.09,360Z"/><path class="cls-14" d="M166.25,354.94A104.06,104.06,0,0,1,182.58,340l3.48-2.48.91.72a64.23,64.23,0,0,1,15.66,18.33,50.07,50.07,0,0,1,3.4,7.27c-1.58-2.16-3.13-4.3-4.76-6.36a114.24,114.24,0,0,0-16.21-16.91l1.8.08c-6.64,4.44-14,9.76-20.61,14.26Z"/><path class="cls-14" d="M167.54,348a56.67,56.67,0,0,1,20.73-15.49,62,62,0,0,1,6.93,6,55,55,0,0,1,13.15,20.66A104.09,104.09,0,0,0,190.17,338c-1-.88-2-1.73-3-2.56l1.54.18A113.25,113.25,0,0,0,167.54,348Z"/><path class="cls-14" d="M169.09,339.8a58.43,58.43,0,0,1,22.13-12.25c1.11.82,2.83,2.13,3.89,3,7.26,6.36,12.76,15.05,14.44,24.61a70.4,70.4,0,0,0-8.31-13.7A60.52,60.52,0,0,0,190,330.41l1.32.23a122.62,122.62,0,0,0-22.27,9.16Z"/><path class="cls-14" d="M171,333.62a74.68,74.68,0,0,1,13.3-7.44c3.1-1.23,6-2.75,9.35-3.26,2.4-.16,4.38,1.69,6,2.94a35.55,35.55,0,0,1,8.87,12.81,70.45,70.45,0,0,1,4.28,14.66c-3.22-6.83-5.89-13.8-10.34-19.83a31.44,31.44,0,0,0-4.84-5.32c-1.29-1-2.31-2.26-3.81-2.29-7.78,1.79-15.22,4.94-22.77,7.73Z"/><path class="cls-14" d="M173.76,328.32a98.4,98.4,0,0,1,14.77-7.48c3.23-1.22,6.79-2.86,10.17-3.48a3.86,3.86,0,0,1,2.88,1.37c1,1,1.91,2.08,2.8,3.17a56.35,56.35,0,0,1,8.54,14.44c1.93,5.09,4.07,10.92,2.33,16.33.41-5.53-2.23-10.51-4.51-15.34A73,73,0,0,0,202,323.85a34.08,34.08,0,0,0-3.05-3.47.29.29,0,0,0-.18-.05c-8.4,2.17-16.71,5.2-25,8Z"/><path class="cls-14" d="M176.58,323.57a71.62,71.62,0,0,1,27.59-10.67,46.56,46.56,0,0,1,11.1,15.6,42.19,42.19,0,0,1,3.63,17.79,62,62,0,0,0-10.57-24.1,57.7,57.7,0,0,0-5.69-6.6l1.3.4a142.91,142.91,0,0,0-27.36,7.58Z"/><path class="cls-14" d="M182.44,316.38a61.3,61.3,0,0,1,25-7.47,4.69,4.69,0,0,1,2.62.5,6.59,6.59,0,0,1,1.74,1.59,44.46,44.46,0,0,1,7.78,13,39.09,39.09,0,0,1,2.71,14.71A67.05,67.05,0,0,0,217.39,325a52.54,52.54,0,0,0-8.83-12.92c-1.25-.38-3.13.13-4.55.16a130.38,130.38,0,0,0-21.57,4.17Z"/><path class="cls-14" d="M193.73,309.74a50.4,50.4,0,0,1,21.2-2.75,4.25,4.25,0,0,1,3,2.25,32.44,32.44,0,0,1,3.67,7.3,28.4,28.4,0,0,1,1.68,10.61A56.84,56.84,0,0,0,215.43,311c-.37-.48-.51-.91-.93-.94-6.92-.53-13.78-.38-20.77-.29Z"/><path class="cls-13" d="M225.82,351.41a68.8,68.8,0,0,1,4.05-13.62l2.56,1.57a1.29,1.29,0,0,0,.19-1.43,1.31,1.31,0,1,0-2.06,1.55l1.95-2.35c2.16,1.57,4.38,3.06,6.66,4.5s4.67,2.83,7,4.3a27,27,0,0,1-8.18-2.1,34.26,34.26,0,0,1-7.35-4.24l1.95-2.36a1.74,1.74,0,1,1-2.52.16l6.55-7.51c-3.08,6.9-6.36,15.45-10.84,21.53Z"/><path class="cls-13" d="M222.36,350c-.91-6.89,3-13.32,6.92-18.7l.52-.63.83.09c7.27.78,14.13,5.82,16.29,12.85a25.13,25.13,0,0,0-16.63-9.8l1.35-.55c-3.79,5.1-7.84,10.37-9.28,16.74Z"/><path class="cls-13" d="M221.88,338.82a21.32,21.32,0,0,1,7.2-12.18c4.79-4.14,14.19,4,17.41,7.53a7,7,0,0,1,2,4.31c-1.41-2.78-4.48-3.93-6.9-5.62-3.08-1.9-6.2-3.86-9.59-4.36a1.16,1.16,0,0,0-.52.06c-4,2.54-7,6.24-9.65,10.26Z"/><path class="cls-13" d="M220,332.3a25.78,25.78,0,0,1,10.06-11c4.32-2.85,11.49,2,14.5,5.18a18.61,18.61,0,0,1,4.86,8.73,32.71,32.71,0,0,0-6.48-7,27.32,27.32,0,0,0-8-4.38c-1.44-.49-2.12-.71-3.49,0A50.55,50.55,0,0,0,220,332.3Z"/><path class="cls-13" d="M221.62,325.77c2.34-5,6.87-10.08,12.89-10.15a15.11,15.11,0,0,1,4.4.24c3,.8,5.05,2.53,7.32,4.35a6.8,6.8,0,0,1,2.46,3.4,8.78,8.78,0,0,0-3.27-2.13c-3.52-1.6-6.76-3.39-10.72-2.79-5.34.06-9,3.94-13.08,7.08Z"/><path class="cls-13" d="M239.31,315.07c3.68-1.22,7.8.62,10.09,3.58a7.4,7.4,0,0,1,1.51,3.48c-1.2-.56-2.18-1.14-3.14-1.7-2.74-1.68-5.84-3.4-8.46-5.36Z"/><path class="cls-13" d="M247.82,325.39c-.58-3.6-1.29-13-6.12-12.8-3.31.44-5.57,3.39-6.78,6.36-2,4.9-2.36,10.35-2.28,15.64.06,7.2,2.3,14.11,5.15,20.69s7.72,13.4,6.29,21c0-7.71-5.19-13.33-8.46-19.92a61.51,61.51,0,0,1-4.27-10.41c-2.57-9.07-2.64-19.28,1.11-28,1.77-4.31,7.65-9.68,12.32-6.11,3.51,3.53,3.11,9.1,3,13.65Z"/><path class="cls-13" d="M239.16,376.42a36.63,36.63,0,0,0,1-10.35l-.32-5,3.08,4c1.8,2.28,4.87,3.78,6.15,6.6a4.67,4.67,0,0,1,.41,3.28,6.25,6.25,0,0,0-1.7-2.37c-2.32-2.09-5.41-3-7.32-5.7l2.76-1a13.51,13.51,0,0,1-4.07,10.5Z"/><path class="cls-13" d="M235.57,373.38A72.54,72.54,0,0,0,237,355.63l2.49,1.76c4.43,2.95,12.67,4.33,12.74,11-2.78-5.73-9.93-5-14.54-8.57l2.43-1.25a25.37,25.37,0,0,1-4.54,14.77Z"/><path class="cls-13" d="M231.58,368.85c.57-6.59,1.37-13.37,1.71-20l2.24,1.54a11.2,11.2,0,0,0,4,1.37,13.56,13.56,0,0,1,8.89,5.43,26.38,26.38,0,0,1,2.64,4.33c-2.46-2.05-4.81-4.46-7.68-5.74-3.07-1.44-6.54-.7-9.66-2.89l2.41-1.14a46.19,46.19,0,0,1-4.59,17.06Z"/><path class="cls-13" d="M227.59,360.27c.81-5.35,1.94-10.83,2.74-16.16,6.77.75,13.54,3.45,18.19,8.54a78.12,78.12,0,0,0-17.15-5.31l1.73-1.24a39.3,39.3,0,0,1-5.51,14.17Z"/><path class="cls-10" d="M251.22,75.6c-4.28-1-4.29-5.92-1.95-8.56a5.9,5.9,0,0,1,8.37-.57,6.31,6.31,0,0,1,.9,8.63c-.7.94-1.65,1.74-2.28,2.73a10.33,10.33,0,0,0-1.2,5.3,77.13,77.13,0,0,0,.45,11.35"/><path class="cls-17" d="M253.52,89.42a.7.7,0,0,1-.42-1.16,2.26,2.26,0,0,1,1.51-.57c.19,0,.47.13.31.23.88-1.23,2.66.69,1.85,1.75-.1.12-.23.25-.21.4s.25.29.42.39a1.72,1.72,0,0,1,.66,1.92,5.14,5.14,0,0,1-1.14,1.85,1.09,1.09,0,0,1,1,1.36A1.91,1.91,0,0,1,256,96.74a6,6,0,0,1-2.07-.08,2.07,2.07,0,0,1-1.58-.76c-.39-.75.47-1.52,1.23-2a1.12,1.12,0,0,1,0-2.23C253.25,91.36,252,89.4,253.52,89.42Z"/></g></g></svg>