<svg id="Layer_1" data-name="Layer 1" xmlns="http://www.w3.org/2000/svg" xmlns:xlink="http://www.w3.org/1999/xlink" viewBox="0 0 480 480"><defs><style>.cls-1{fill:none;}.cls-2{clip-path:url(#clip-path);}.cls-3{fill:#fce3c3;}.cls-4{fill:#d23a64;}.cls-5{fill:#c6305f;}.cls-6{fill:#32334c;}.cls-7{fill:#ffcfca;}.cls-8{fill:#f9bfbb;}.cls-9{fill:#1f3c49;}.cls-10{fill:#fff;}.cls-11{fill:#d55454;}.cls-12{fill:#f37c7c;}.cls-13{fill:#fbb03b;}</style><clipPath id="clip-path"><circle class="cls-1" cx="239.89" cy="240.06" r="209.9"/></clipPath></defs><g class="cls-2"><circle class="cls-3" cx="239.89" cy="240.06" r="209.9"/><path class="cls-4" d="M280.14,308.79c.38-5.2,4.9-9.33,10.29-7.84,32.36,8.93,65.8,24,80.86,55.95,5.89,12.5,8,26.4,10.86,39.82q4.83,22.53,9,45.2c3.5,19.12,6.35,38.35,9.05,57.59,2.46,17.48,2,39,10.07,54.7,15,29.33,30.74,59.2,46.12,88.7q11.82,22.68,23.53,45.44,5.7,11.11,11.33,22.27c1.83,3.62,5,7.91,3.08,12.06-3.82,8.13-14.8,12.61-22,17.34a24.67,24.67,0,0,1-6.73,3.5c-11.14,3.12-20.54-14.95-25.85-22q-13.62-18-26.79-36.32c-19.34-26.92-39.22-54.41-56.21-83.22-6.71-11.38-13.87-22.95-19.25-35-12.74-28.55-17.51-60-27.86-89.5-10.94-31.09-24.34-62.53-28-95.57A401.86,401.86,0,0,1,280.14,308.79Z"/><path class="cls-4" d="M21.47,757.66c10.51,2.68,45.1-.87,46.35-1.63,5.63-3.41,6-187.35,14.64-202.47,4.75-8.34,23.28-38.85,42.28-71.06,17.94-30.43,36.31-62.39,43.88-78.6,14.16-30.31,8.19-101.86,6-109.83a234.11,234.11,0,0,0-34.35,11.42l-.12.06C127,311.6,111.06,323,104.41,329.13,59.69,370.6,17.61,499.69,10.48,534.56,2,576.33,14,755.76,21.47,757.66Z"/><path class="cls-5" d="M93,699.92c23.27,17.46,280.53,18.71,280.53,6.51,0-46.53-10.5-99.07-13.82-145.55-2.83-39.56-12.52-164.18-13.82-186.22-.9-15.29-3.26-51.22-3.26-51.22s-23-13.83-35-19.52a183.29,183.29,0,0,0-51.52-15.5c-29.89-4.56-59.64.07-81.52,5.65a234.11,234.11,0,0,0-34.35,11.42l-.12.06s12.39,5.32,15.45,25.2c13,84.57-30.87,151.16-30.87,151.16S112.86,555.22,106,592.59C101.7,616.32,89.77,697.48,93,699.92Z"/><path class="cls-6" d="M300.55,147.71a50.39,50.39,0,0,0-8.47-17.66c-10.16-13.07-27.35-22.68-44.26-20.24-15.36,2.22-29.1,8.5-37.16,22.36-8.44,14.51-8.16,34.05,1.91,47.71a60.61,60.61,0,0,0,23.48,19,56.87,56.87,0,0,0,8.56,3.11c15.57,4.24,35.94,2.43,47.77-9.62C303.6,180.92,304.5,162.39,300.55,147.71Z"/><path class="cls-7" d="M205.19,212.52c.76,4.18,1.49,8.37,2.24,12.55,0,.25.09.51.13.76a3.4,3.4,0,0,1,.07.34c1,5.54,2,11.08,2.66,16.65.28,2.23.5,4.49.66,6.74q.27,3.78.31,7.58c.07,4.83-.07,9.67-.21,14.5q-.27,8.83-.52,17.66A130,130,0,0,0,224,302a145.82,145.82,0,0,0,32.08,5c6.9-4,13-9.94,12-15.35l-.32-21.23V267l0-9.21-.05-13.11a65.2,65.2,0,0,1-12.93-5.19c-13.91-6.8-27.72-13.77-41.26-21.27l-1.05-.58A31.76,31.76,0,0,1,205.19,212.52Z"/><path class="cls-8" d="M267.8,270.44a158.66,158.66,0,0,1-44.37-18.86c-4.35-2.72-8.86-5.63-13.15-8.76-.67-5.57-1.66-11.1-2.65-16.65-.81-4.55-1.62-9.11-2.44-13.65,2.62,2.54,5.12,3.87,8.33,5.65,13.54,7.5,27.35,14.47,41.26,21.27a65.44,65.44,0,0,0,12.94,5.2Z"/><path class="cls-7" d="M298.63,229.22c-3,8.59-7.34,16.49-14.9,21.83a41.16,41.16,0,0,1-23.13,7.41,52.34,52.34,0,0,1-25.89-7,67.32,67.32,0,0,1-11.12-7.8A93.08,93.08,0,0,1,208,225.94a115.5,115.5,0,0,1-16.7-35.36c-3.83-14.35-4.22-29.4.94-43.64a55.65,55.65,0,0,1,9-16.05,52.35,52.35,0,0,1,68.1-11.36c11.49,7.24,20.38,18.57,25.48,31.08a126.64,126.64,0,0,1,4.25,12.21C305.39,184.35,306,208.06,298.63,229.22Z"/><path class="cls-7" d="M214.26,222.15a25.24,25.24,0,0,1-24.68,3.43,24.81,24.81,0,0,1-14.1-16,23.51,23.51,0,0,1-.75-3.93,17.8,17.8,0,0,1,.57-7,15.46,15.46,0,0,1,12.78-10.37,17.85,17.85,0,0,1,15.44,6.37l4.13,10.56Z"/><path class="cls-9" d="M252.56,192.71c-1.13.12-2.8-1.6-3.38-4.27a7.17,7.17,0,0,1,.17-3.91c.14-.38.55-1.26,1.24-1.41l.11,0c1.13-.12,2.8,1.61,3.38,4.27a7,7,0,0,1-.17,3.92c-.14.37-.55,1.25-1.24,1.41Z"/><path class="cls-9" d="M286.53,187.56c-1,.1-2.66-1.42-3.25-4.13a6.84,6.84,0,0,1,.16-3.79c.29-.76.72-1.25,1.18-1.35h.1c1-.1,2.66,1.42,3.24,4.13a6.85,6.85,0,0,1-.16,3.79,2,2,0,0,1-1.17,1.34l-.1,0Z"/><path class="cls-9" d="M269.73,194.68a4.21,4.21,0,0,1,3.76-1.35,5,5,0,0,1,4,6.73,4.21,4.21,0,0,1-3,2.66,5.78,5.78,0,0,0,1.47-3.08,4.54,4.54,0,0,0-2.82-4.77A5.71,5.71,0,0,0,269.73,194.68Z"/><path class="cls-9" d="M242.23,171.35a.73.73,0,0,1-.47-.42.79.79,0,0,1,.4-1.05,11.94,11.94,0,0,1,9.4-.09.81.81,0,0,1,.42,1.05.8.8,0,0,1-1,.41,10.3,10.3,0,0,0-8.13.08A.75.75,0,0,1,242.23,171.35Z"/><path class="cls-9" d="M276.34,166.15a.8.8,0,0,1-.33-1.41,11,11,0,0,1,8.28-2.1.8.8,0,0,1,.66.9.79.79,0,0,1-.91.66A9.44,9.44,0,0,0,277,166,.79.79,0,0,1,276.34,166.15Z"/><path class="cls-10" d="M251.48,184.83a1.33,1.33,0,0,0-.4,2.62A1.33,1.33,0,0,0,251.48,184.83Z"/><path class="cls-10" d="M286,179.62a1.32,1.32,0,0,0-.4,2.61A1.32,1.32,0,0,0,286,179.62Z"/><path class="cls-11" d="M288.35,207.31a17.72,17.72,0,0,1-2.07,9.39,13.35,13.35,0,0,1-23.61.93,17.72,17.72,0,0,1-2.85-8.84c0-.12,0-.24,0-.37l28.5-1.48C288.33,207.07,288.35,207.19,288.35,207.31Z"/><path class="cls-10" d="M287.16,207A18.3,18.3,0,0,1,261,208.36Z"/><path class="cls-12" d="M286.28,216.7a13.35,13.35,0,0,1-23.61.93,51.73,51.73,0,0,1,14.8-1.86A53.09,53.09,0,0,1,286.28,216.7Z"/><path class="cls-8" d="M254.73,204.25c.46,4.33-3.92,8.35-9.8,9s-11-2.37-11.48-6.69,3.92-8.35,9.8-9S254.26,199.92,254.73,204.25Z"/><ellipse class="cls-8" cx="293.11" cy="194.35" rx="7.22" ry="5.32" transform="translate(-19.09 32.44) rotate(-6.14)"/><path class="cls-6" d="M300.4,129.55c1.05-10.9-15.78-22.76-47.11-28.24-24.21-4.23-56.45,4.06-73.11,21.92-9.81,10.53-15.73,24.85-14.48,39.24,1,11.79,6.2,23.37,11,34.11,3.46-6.75,13.11-9.37,20.49-7a23,23,0,0,1,10.64,7.59c.11-13.72,3.59-27,3.58-40.76,0,.28,22.75-2.77,24.36-3,13.13-1.69,26.17-3.37,38.92-7.05q8.16-2.35,16-5.5C294.53,139.35,300.09,132.79,300.4,129.55Z"/><path d="M188.42,187.47l2.12,0,17.84-.3,10.36-.18,13.66-.23c0-.14,0-.29,0-.43a16.25,16.25,0,0,1,31.31-4.36l6.05-.86a17.85,17.85,0,0,1,.07-1.79A16.25,16.25,0,0,1,300,172.46l.32-2.14a.8.8,0,0,1,.62-.67,1.08,1.08,0,0,1,.31,0,.81.81,0,0,1,.68.93l-.32,2.14-.35,2.31.15.43a16.13,16.13,0,0,1-2.49,15.42,16.3,16.3,0,0,1-12.16,6.24h-.23a14.83,14.83,0,0,1-2-.07,16.27,16.27,0,0,1-14.21-12.28l-5.58.85a15.6,15.6,0,0,1,.1,3.81A16.27,16.27,0,0,1,254.46,203a15.38,15.38,0,0,1-1.62.54,16.25,16.25,0,0,1-15.48-4,4,4,0,0,1-.29-.29,16.27,16.27,0,0,1-4.7-10.94l-11.93.2-12.2.2-13.31.23h-.29l-3.71.07-2.48,0h-.1a.72.72,0,0,1-.25-.07.83.83,0,0,1-.47-.65.19.19,0,0,1,0-.08A.81.81,0,0,1,188.42,187.47Zm96.22,7.95a12.46,12.46,0,0,0,1.35.07,13.74,13.74,0,0,0,3.28-.36,14.68,14.68,0,0,0,8.26-5.21,14.58,14.58,0,0,0,3-11.39h0a14.64,14.64,0,1,0-15.86,16.9ZM264.39,184l5.57-.84c0-.16,0-.31-.07-.46l-5.63.8C264.31,183.67,264.35,183.84,264.39,184Zm-25.54,14.75A14.63,14.63,0,1,0,234,186.45,14.51,14.51,0,0,0,238.85,198.76Z"/><path class="cls-4" d="M202.84,292.54c.51,5.63,11.27,10.2,24.8,12.95a145.93,145.93,0,0,0,32.35,2.8c9.43-.3,17.43-1.78,21.45-4.68s2.64-37.35-11.22-36.09a12,12,0,0,1-1.36,0c-3.65-.12-12.31-1.16-22.17-2.33-12.24-1.46-26.31-3.13-34.91-3.55-4.34-.21-7.28-.1-7.91.5C199.48,266.42,202,283.2,202.84,292.54Z"/></g><path class="cls-13" d="M239.89,465a1.2,1.2,0,1,0,0-2.39c-2.09,0-4.23,0-6.35-.09a1.17,1.17,0,0,0-1.23,1.16,1.2,1.2,0,0,0,1.16,1.23C235.61,465,237.77,465,239.89,465Zm6.39-.09h0c2.13-.06,4.28-.15,6.41-.26a1.2,1.2,0,0,0,1.13-1.26,1.21,1.21,0,0,0-1.26-1.13c-2.11.12-4.24.21-6.35.26a1.2,1.2,0,0,0,0,2.39Zm-19.16-.27a1.2,1.2,0,0,0,.07-2.39c-2.11-.12-4.24-.27-6.34-.45a1.19,1.19,0,1,0-.21,2.38c2.13.18,4.29.33,6.41.45ZM259,464.2h.1c2.12-.18,4.28-.39,6.4-.63a1.2,1.2,0,0,0-.27-2.38c-2.1.24-4.23.45-6.33.63a1.19,1.19,0,0,0,.1,2.38Zm-44.65-.65a1.19,1.19,0,0,0,.13-2.38c-2.09-.24-4.21-.51-6.3-.81a1.2,1.2,0,0,0-1.36,1,1.19,1.19,0,0,0,1,1.35c2.11.31,4.26.58,6.37.82Zm57.35-.78.17,0c2.11-.29,4.24-.63,6.35-1a1.19,1.19,0,0,0-.41-2.35c-2.08.35-4.19.68-6.28,1a1.2,1.2,0,0,0,.17,2.38Zm-70-1a1.19,1.19,0,0,0,.2-2.37c-2.07-.36-4.17-.75-6.25-1.17a1.19,1.19,0,1,0-.47,2.34c2.1.43,4.22.82,6.31,1.18A.75.75,0,0,0,201.74,461.74Zm82.6-1.13.23,0c2.1-.43,4.21-.88,6.28-1.36a1.19,1.19,0,0,0-.53-2.33c-2.06.48-4.15.93-6.22,1.34a1.2,1.2,0,0,0,.24,2.37Zm-95.13-1.4a1.2,1.2,0,0,0,.27-2.36c-2-.47-4.12-1-6.17-1.52a1.19,1.19,0,1,0-.61,2.31c2.07.54,4.17,1.06,6.24,1.54Zm107.58-1.48a1,1,0,0,0,.3,0c2.07-.54,4.15-1.12,6.19-1.71a1.2,1.2,0,0,0-.67-2.3c-2,.6-4.08,1.17-6.12,1.7a1.19,1.19,0,0,0,.3,2.35ZM176.85,456a1.2,1.2,0,0,0,.34-2.35c-2-.59-4.07-1.22-6.08-1.87a1.19,1.19,0,0,0-.74,2.27c2,.66,4.09,1.3,6.14,1.9A1.33,1.33,0,0,0,176.85,456Zm132.2-1.83a1.5,1.5,0,0,0,.37-.05c2-.66,4.09-1.36,6.11-2.08a1.2,1.2,0,1,0-.81-2.25c-2,.71-4,1.4-6,2.05a1.2,1.2,0,0,0-.77,1.51A1.19,1.19,0,0,0,309.05,454.14ZM164.69,452a1.18,1.18,0,0,0,1.13-.79,1.2,1.2,0,0,0-.72-1.53c-2-.7-4-1.45-6-2.22a1.18,1.18,0,0,0-1.54.68,1.2,1.2,0,0,0,.67,1.55c2,.77,4,1.53,6,2.24A1.16,1.16,0,0,0,164.69,452Zm156.44-2.17a1.14,1.14,0,0,0,.44-.08c2-.77,4-1.59,6-2.42a1.2,1.2,0,0,0,.63-1.57,1.19,1.19,0,0,0-1.56-.63c-2,.82-3.94,1.63-5.91,2.39a1.2,1.2,0,0,0,.43,2.31Zm-168.32-2.46a1.2,1.2,0,0,0,.46-2.3c-1.91-.81-3.86-1.67-5.8-2.55a1.19,1.19,0,0,0-1,2.17c2,.9,3.92,1.76,5.86,2.58A1.14,1.14,0,0,0,152.81,447.38Zm180.13-2.53a1.09,1.09,0,0,0,.49-.11c1.94-.88,3.9-1.81,5.82-2.76a1.19,1.19,0,0,0-1.06-2.14c-1.9.94-3.83,1.86-5.75,2.73a1.19,1.19,0,0,0,.5,2.28Zm-191.72-2.77a1.2,1.2,0,0,0,.53-2.27c-1.89-.93-3.79-1.9-5.65-2.88A1.19,1.19,0,1,0,135,439c1.87,1,3.79,2,5.7,2.91A1.12,1.12,0,0,0,141.22,442.08Zm203.21-2.88a1.25,1.25,0,0,0,.55-.14c1.88-1,3.78-2,5.65-3.09a1.2,1.2,0,1,0-1.18-2.08c-1.84,1-3.72,2.07-5.58,3.05a1.2,1.2,0,0,0,.56,2.26ZM130,436.12a1.2,1.2,0,0,0,.59-2.24c-1.83-1-3.67-2.11-5.48-3.2a1.2,1.2,0,1,0-1.23,2.05c1.82,1.1,3.69,2.19,5.53,3.23A1.16,1.16,0,0,0,130,436.12Zm225.62-3.23a1.13,1.13,0,0,0,.61-.17c1.82-1.1,3.66-2.24,5.46-3.4a1.19,1.19,0,0,0-1.29-2c-1.79,1.15-3.6,2.28-5.4,3.37a1.19,1.19,0,0,0,.62,2.21ZM119,429.52a1.19,1.19,0,0,0,.65-2.2c-1.76-1.13-3.54-2.31-5.29-3.51a1.19,1.19,0,1,0-1.35,2c1.77,1.21,3.57,2.41,5.35,3.55A1.16,1.16,0,0,0,119,429.52ZM366.33,426a1.19,1.19,0,0,0,.67-.2c1.75-1.2,3.51-2.45,5.25-3.71a1.19,1.19,0,1,0-1.4-1.93c-1.72,1.25-3.47,2.48-5.2,3.66a1.19,1.19,0,0,0,.68,2.18ZM108.5,422.31a1.21,1.21,0,0,0,1-.49,1.19,1.19,0,0,0-.27-1.67c-1.7-1.23-3.4-2.51-5.08-3.8a1.18,1.18,0,0,0-1.67.21,1.2,1.2,0,0,0,.21,1.68c1.69,1.3,3.42,2.6,5.14,3.85A1.21,1.21,0,0,0,108.5,422.31Zm268.17-3.87a1.19,1.19,0,0,0,.73-.25c1.68-1.3,3.37-2.65,5-4a1.19,1.19,0,0,0-1.51-1.85c-1.64,1.34-3.32,2.67-5,4a1.19,1.19,0,0,0,.73,2.14ZM98.39,414.51a1.19,1.19,0,0,0,.76-2.12c-1.63-1.33-3.27-2.71-4.86-4.09a1.19,1.19,0,1,0-1.56,1.81c1.61,1.39,3.26,2.79,4.91,4.13A1.19,1.19,0,0,0,98.39,414.51Zm288.17-4.17a1.2,1.2,0,0,0,.78-.29c1.62-1.4,3.23-2.84,4.8-4.28a1.2,1.2,0,1,0-1.62-1.76c-1.55,1.43-3.15,2.85-4.74,4.23a1.2,1.2,0,0,0,.78,2.1ZM88.74,406.15a1.18,1.18,0,0,0,.88-.39,1.2,1.2,0,0,0-.07-1.69c-1.55-1.42-3.11-2.88-4.62-4.36a1.2,1.2,0,0,0-1.67,1.72c1.54,1.49,3.11,3,4.67,4.4A1.2,1.2,0,0,0,88.74,406.15ZM396,401.69a1.2,1.2,0,0,0,.83-.33c1.51-1.48,3-3,4.54-4.54a1.2,1.2,0,0,0-1.71-1.67c-1.48,1.52-3,3-4.5,4.49a1.2,1.2,0,0,0,.84,2.05ZM79.57,397.25a1.23,1.23,0,0,0,.84-.34,1.2,1.2,0,0,0,0-1.69c-1.47-1.51-2.94-3.06-4.37-4.62a1.19,1.19,0,0,0-1.69-.07,1.21,1.21,0,0,0-.07,1.69c1.45,1.57,2.94,3.14,4.42,4.67A1.17,1.17,0,0,0,79.57,397.25Zm325.31-4.72a1.19,1.19,0,0,0,.88-.38c1.43-1.56,2.87-3.17,4.28-4.79a1.2,1.2,0,0,0-1.81-1.57c-1.39,1.61-2.81,3.2-4.23,4.74a1.2,1.2,0,0,0,.08,1.69A1.15,1.15,0,0,0,404.88,392.53Zm-334-4.69a1.2,1.2,0,0,0,.91-2c-1.39-1.59-2.77-3.23-4.1-4.86a1.19,1.19,0,1,0-1.85,1.51c1.35,1.65,2.75,3.31,4.14,4.91A1.18,1.18,0,0,0,70.92,387.84Zm342.33-5a1.22,1.22,0,0,0,.93-.43c1.34-1.64,2.68-3.33,4-5a1.18,1.18,0,0,0-.21-1.67,1.2,1.2,0,0,0-1.68.21c-1.29,1.68-2.62,3.35-3.95,5a1.2,1.2,0,0,0,.92,1.95ZM62.82,378a1.24,1.24,0,0,0,.73-.25,1.21,1.21,0,0,0,.22-1.68c-1.3-1.67-2.58-3.39-3.82-5.09A1.2,1.2,0,0,0,58,372.34c1.25,1.72,2.55,3.45,3.85,5.14A1.19,1.19,0,0,0,62.82,378Zm358.24-5.17a1.19,1.19,0,0,0,1-.49c1.25-1.72,2.5-3.48,3.7-5.24a1.19,1.19,0,1,0-2-1.35c-1.19,1.74-2.42,3.48-3.66,5.18a1.2,1.2,0,0,0,.26,1.67A1.25,1.25,0,0,0,421.06,372.78ZM55.29,367.61a1.2,1.2,0,0,0,1-1.87c-1.19-1.75-2.38-3.53-3.52-5.3a1.19,1.19,0,1,0-2,1.29c1.16,1.79,2.35,3.59,3.56,5.36A1.21,1.21,0,0,0,55.29,367.61Zm373-5.36a1.2,1.2,0,0,0,1-.55c1.15-1.78,2.29-3.61,3.39-5.44a1.19,1.19,0,1,0-2-1.23c-1.09,1.8-2.22,3.61-3.36,5.38a1.19,1.19,0,0,0,1,1.84Zm-379.91-5.4a1.19,1.19,0,0,0,.62-.17,1.2,1.2,0,0,0,.4-1.64c-1.1-1.81-2.18-3.66-3.22-5.5a1.2,1.2,0,0,0-2.08,1.18c1.05,1.86,2.15,3.73,3.25,5.55A1.19,1.19,0,0,0,48.36,356.85Zm386.51-5.51a1.19,1.19,0,0,0,1-.61c1-1.85,2.09-3.74,3.08-5.62a1.19,1.19,0,1,0-2.11-1.12c-1,1.86-2,3.73-3.05,5.56a1.2,1.2,0,0,0,.45,1.63A1.16,1.16,0,0,0,434.87,351.34ZM42.05,345.71a1.14,1.14,0,0,0,.56-.14A1.19,1.19,0,0,0,43.1,344c-1-1.86-2-3.77-2.89-5.67a1.2,1.2,0,1,0-2.15,1c.95,1.93,1.94,3.85,2.93,5.74A1.21,1.21,0,0,0,42.05,345.71Zm398.79-5.64a1.2,1.2,0,0,0,1.07-.67c.93-1.9,1.86-3.84,2.75-5.78a1.21,1.21,0,0,0-.59-1.59,1.19,1.19,0,0,0-1.58.59c-.88,1.92-1.8,3.85-2.72,5.72a1.19,1.19,0,0,0,.54,1.6A1.12,1.12,0,0,0,440.84,340.07ZM36.39,334.22a1.23,1.23,0,0,0,.49-.1,1.2,1.2,0,0,0,.59-1.59c-.87-1.91-1.74-3.88-2.57-5.83a1.18,1.18,0,0,0-1.56-.63,1.19,1.19,0,0,0-.64,1.56c.84,2,1.71,4,2.6,5.9A1.18,1.18,0,0,0,36.39,334.22Zm409.75-5.74a1.18,1.18,0,0,0,1.1-.73c.83-1.95,1.65-3.95,2.42-5.93a1.2,1.2,0,0,0-2.23-.86c-.76,2-1.56,3.93-2.39,5.86a1.21,1.21,0,0,0,.64,1.57A1.25,1.25,0,0,0,446.14,328.48ZM31.39,322.43a1.15,1.15,0,0,0,.44-.09,1.2,1.2,0,0,0,.68-1.54c-.77-2-1.52-4-2.23-6a1.2,1.2,0,0,0-1.53-.72,1.19,1.19,0,0,0-.72,1.53c.72,2,1.47,4.05,2.25,6A1.18,1.18,0,0,0,31.39,322.43Zm419.4-5.83a1.19,1.19,0,0,0,1.12-.79c.72-2,1.42-4.05,2.08-6.08a1.2,1.2,0,0,0-2.28-.74c-.65,2-1.34,4-2,6a1.2,1.2,0,0,0,.72,1.53A1.18,1.18,0,0,0,450.79,316.6ZM27.08,310.35a1.15,1.15,0,0,0,.37-.06,1.19,1.19,0,0,0,.77-1.5c-.65-2-1.28-4.05-1.88-6.08a1.19,1.19,0,0,0-2.29.67c.6,2.06,1.24,4.12,1.9,6.14A1.18,1.18,0,0,0,27.08,310.35Zm427.66-5.9a1.21,1.21,0,0,0,1.15-.86c.6-2,1.18-4.13,1.72-6.19a1.19,1.19,0,1,0-2.31-.61c-.53,2-1.11,4.1-1.7,6.13a1.19,1.19,0,0,0,.8,1.48A1.4,1.4,0,0,0,454.74,304.45ZM23.49,298.08l.3,0a1.21,1.21,0,0,0,.86-1.46c-.54-2-1-4.12-1.53-6.17a1.19,1.19,0,0,0-1.43-.9,1.21,1.21,0,0,0-.9,1.44c.49,2.07,1,4.17,1.54,6.23A1.19,1.19,0,0,0,23.49,298.08Zm434.5-6a1.2,1.2,0,0,0,1.17-.93c.48-2.07.94-4.18,1.36-6.27a1.19,1.19,0,1,0-2.34-.48c-.42,2.07-.87,4.16-1.35,6.21a1.2,1.2,0,0,0,.89,1.44ZM20.61,285.64l.23,0a1.2,1.2,0,0,0,.94-1.41c-.42-2.06-.81-4.16-1.17-6.24a1.19,1.19,0,1,0-2.35.4c.36,2.1.75,4.23,1.18,6.32A1.2,1.2,0,0,0,20.61,285.64Zm439.92-6.08a1.2,1.2,0,0,0,1.18-1c.36-2.09.69-4.22,1-6.34a1.2,1.2,0,0,0-2.37-.34c-.3,2.1-.63,4.21-1,6.28a1.21,1.21,0,0,0,1,1.38ZM18.44,273h.17a1.2,1.2,0,0,0,1-1.35c-.3-2.08-.57-4.2-.81-6.31a1.19,1.19,0,1,0-2.37.27c.24,2.13.51,4.27.81,6.37A1.2,1.2,0,0,0,18.44,273Zm443.91-6.13a1.2,1.2,0,0,0,1.18-1.06c.24-2.1.46-4.25.64-6.39a1.19,1.19,0,0,0-2.38-.2c-.18,2.11-.4,4.24-.63,6.32a1.19,1.19,0,0,0,1,1.33ZM17,260.34h.1a1.2,1.2,0,0,0,1.09-1.29c-.17-2.1-.32-4.23-.44-6.34a1.22,1.22,0,0,0-1.26-1.13,1.2,1.2,0,0,0-1.13,1.26c.12,2.14.27,4.29.45,6.41A1.2,1.2,0,0,0,17,260.34Zm446.44-6.16a1.2,1.2,0,0,0,1.19-1.13c.12-2.12.21-4.28.27-6.41a1.2,1.2,0,0,0-1.16-1.23,1.17,1.17,0,0,0-1.22,1.16c-.07,2.11-.16,4.24-.28,6.35a1.2,1.2,0,0,0,1.13,1.26Zm-447.16-6.6h0a1.19,1.19,0,0,0,1.16-1.22c-.06-2.11-.09-4.25-.09-6.36v-.42a1.19,1.19,0,0,0-1.19-1.19h0a1.19,1.19,0,0,0-1.2,1.19V240c0,2.13,0,4.29.09,6.42A1.19,1.19,0,0,0,16.28,247.58Zm447.52-6.17a1.2,1.2,0,0,0,1.2-1.2V240c0-2.07,0-4.16-.08-6.22a1.19,1.19,0,0,0-1.23-1.16,1.18,1.18,0,0,0-1.16,1.22c.05,2,.08,4.11.08,6.15v.21A1.2,1.2,0,0,0,463.8,241.41Zm-447.5-7a1.2,1.2,0,0,0,1.19-1.16c.06-2.11.16-4.25.28-6.35a1.2,1.2,0,1,0-2.39-.14c-.12,2.12-.21,4.28-.28,6.42a1.2,1.2,0,0,0,1.16,1.23Zm447.16-5.76h.06a1.2,1.2,0,0,0,1.13-1.26c-.12-2.13-.27-4.29-.44-6.41a1.22,1.22,0,0,0-1.29-1.09,1.19,1.19,0,0,0-1.09,1.29c.17,2.1.32,4.23.44,6.34A1.19,1.19,0,0,0,463.46,228.63ZM17,221.63a1.2,1.2,0,0,0,1.19-1.1c.18-2.11.4-4.24.64-6.32a1.2,1.2,0,0,0-2.38-.27c-.24,2.1-.46,4.25-.64,6.39a1.19,1.19,0,0,0,1.08,1.29Zm445.35-5.73h.13a1.2,1.2,0,0,0,1.06-1.32c-.24-2.13-.51-4.27-.81-6.37a1.2,1.2,0,1,0-2.37.33c.3,2.08.57,4.2.8,6.31A1.2,1.2,0,0,0,462.39,215.9Zm-443.89-7a1.19,1.19,0,0,0,1.18-1c.31-2.1.64-4.21,1-6.28a1.19,1.19,0,0,0-2.35-.41c-.36,2.09-.7,4.23-1,6.35a1.2,1.2,0,0,0,1,1.35Zm442.1-5.69h.2a1.2,1.2,0,0,0,1-1.38c-.36-2.11-.76-4.23-1.17-6.32a1.2,1.2,0,0,0-2.35.47c.42,2.06.81,4.17,1.16,6.25A1.2,1.2,0,0,0,460.6,203.24Zm-439.91-6.9a1.19,1.19,0,0,0,1.17-1c.42-2.07.88-4.16,1.36-6.21a1.2,1.2,0,0,0-2.33-.55c-.48,2.08-.95,4.19-1.37,6.28a1.2,1.2,0,0,0,.93,1.41Zm437.4-5.63.27,0a1.19,1.19,0,0,0,.89-1.43c-.48-2.09-1-4.19-1.53-6.24a1.19,1.19,0,0,0-2.31.61c.53,2,1,4.1,1.51,6.17A1.2,1.2,0,0,0,458.09,190.71ZM23.6,183.9a1.19,1.19,0,0,0,1.15-.89c.54-2,1.12-4.1,1.71-6.12a1.19,1.19,0,1,0-2.29-.68c-.6,2-1.18,4.12-1.73,6.19a1.19,1.19,0,0,0,.85,1.46A1.65,1.65,0,0,0,23.6,183.9Zm431.26-5.55a1.4,1.4,0,0,0,.34,0,1.2,1.2,0,0,0,.81-1.48c-.6-2.06-1.24-4.12-1.89-6.14a1.2,1.2,0,0,0-2.28.73c.65,2,1.28,4,1.87,6.08A1.21,1.21,0,0,0,454.86,178.35ZM27.21,171.64a1.2,1.2,0,0,0,1.14-.82c.65-2,1.35-4,2.06-6a1.19,1.19,0,0,0-2.25-.8c-.72,2-1.42,4.05-2.08,6.07a1.19,1.19,0,0,0,.76,1.51A1.24,1.24,0,0,0,27.21,171.64Zm423.71-5.47a1.12,1.12,0,0,0,.4-.07,1.2,1.2,0,0,0,.73-1.53c-.72-2-1.48-4-2.25-6a1.2,1.2,0,0,0-2.23.87c.77,2,1.51,4,2.22,6A1.21,1.21,0,0,0,450.92,166.17ZM31.53,159.61a1.19,1.19,0,0,0,1.11-.76c.77-1.95,1.57-3.92,2.4-5.86a1.21,1.21,0,0,0-.64-1.57,1.19,1.19,0,0,0-1.56.63c-.84,2-1.65,4-2.42,5.93a1.2,1.2,0,0,0,.67,1.55A1.41,1.41,0,0,0,31.53,159.61Zm414.75-5.39a1.25,1.25,0,0,0,.46-.09,1.21,1.21,0,0,0,.64-1.57c-.83-2-1.7-3.95-2.59-5.9a1.2,1.2,0,0,0-2.18,1c.88,1.92,1.75,3.89,2.57,5.83A1.18,1.18,0,0,0,446.28,154.22ZM36.51,147.89a1.2,1.2,0,0,0,1.09-.7c.88-1.92,1.8-3.84,2.73-5.72a1.2,1.2,0,0,0-2.15-1.06c-.94,1.9-1.86,3.85-2.75,5.78a1.2,1.2,0,0,0,.58,1.59A1.33,1.33,0,0,0,36.51,147.89ZM441,142.57a1.17,1.17,0,0,0,.52-.12,1.19,1.19,0,0,0,.55-1.6c-.94-1.92-1.93-3.85-2.92-5.74a1.2,1.2,0,1,0-2.12,1.12c1,1.87,2,3.78,2.9,5.67A1.19,1.19,0,0,0,441,142.57Zm-398.8-6.11a1.21,1.21,0,0,0,1.06-.63c1-1.87,2-3.74,3.05-5.56a1.2,1.2,0,0,0-2.08-1.18c-1,1.84-2.08,3.73-3.08,5.62a1.19,1.19,0,0,0,.49,1.61A1.14,1.14,0,0,0,42.16,136.46ZM435,131.24a1.26,1.26,0,0,0,.59-.15,1.2,1.2,0,0,0,.45-1.63c-1-1.86-2.14-3.73-3.25-5.55a1.19,1.19,0,1,0-2,1.23c1.09,1.81,2.17,3.66,3.21,5.5A1.18,1.18,0,0,0,435,131.24ZM48.46,125.37a1.2,1.2,0,0,0,1-.57c1.09-1.8,2.22-3.61,3.37-5.38a1.2,1.2,0,0,0-2-1.3c-1.16,1.79-2.3,3.62-3.4,5.44a1.18,1.18,0,0,0,.4,1.64A1.16,1.16,0,0,0,48.46,125.37Zm379.91-5.08a1.16,1.16,0,0,0,.64-.19,1.19,1.19,0,0,0,.36-1.65c-1.15-1.8-2.35-3.6-3.55-5.36a1.2,1.2,0,1,0-2,1.35c1.2,1.74,2.38,3.53,3.52,5.3A1.22,1.22,0,0,0,428.37,120.29Zm-373-5.64a1.18,1.18,0,0,0,1-.52c1.2-1.74,2.44-3.49,3.67-5.18a1.2,1.2,0,1,0-1.93-1.41c-1.25,1.71-2.49,3.48-3.71,5.24a1.2,1.2,0,0,0,1,1.87Zm365.76-4.92a1.2,1.2,0,0,0,1-1.9c-1.26-1.72-2.55-3.46-3.86-5.14a1.19,1.19,0,0,0-1.89,1.45c1.29,1.68,2.58,3.39,3.82,5.1A1.18,1.18,0,0,0,421.14,109.73ZM62.9,104.34a1.19,1.19,0,0,0,1-.47c1.29-1.66,2.62-3.33,3.95-5A1.19,1.19,0,0,0,66,97.39c-1.35,1.65-2.7,3.34-4,5a1.2,1.2,0,0,0,.21,1.68A1.17,1.17,0,0,0,62.9,104.34ZM413.33,99.6a1.2,1.2,0,0,0,.93-1.95c-1.35-1.64-2.74-3.3-4.14-4.92a1.2,1.2,0,1,0-1.81,1.57c1.39,1.6,2.76,3.24,4.1,4.86A1.18,1.18,0,0,0,413.33,99.6ZM71,94.46a1.16,1.16,0,0,0,.9-.41c1.39-1.59,2.81-3.18,4.24-4.73a1.21,1.21,0,0,0-.07-1.69,1.19,1.19,0,0,0-1.69.07c-1.44,1.57-2.88,3.18-4.28,4.79a1.19,1.19,0,0,0,.12,1.68A1.15,1.15,0,0,0,71,94.46Zm334-4.52a1.19,1.19,0,0,0,.88-2c-1.44-1.57-2.93-3.14-4.41-4.67a1.19,1.19,0,1,0-1.71,1.66c1.46,1.51,2.93,3.07,4.36,4.62A1.18,1.18,0,0,0,405,89.94ZM79.65,85.06a1.21,1.21,0,0,0,.86-.36c1.47-1.51,3-3,4.49-4.49a1.19,1.19,0,1,0-1.66-1.71c-1.52,1.48-3,3-4.54,4.54a1.19,1.19,0,0,0,.85,2Zm316.41-4.29a1.17,1.17,0,0,0,.85-.36,1.2,1.2,0,0,0,0-1.69c-1.54-1.49-3.11-3-4.67-4.41a1.19,1.19,0,1,0-1.61,1.76c1.54,1.42,3.09,2.89,4.61,4.36A1.2,1.2,0,0,0,396.06,80.77ZM88.82,76.16a1.19,1.19,0,0,0,.81-.31c1.55-1.42,3.15-2.84,4.75-4.23a1.19,1.19,0,1,0-1.57-1.8c-1.61,1.4-3.23,2.83-4.8,4.27a1.21,1.21,0,0,0-.07,1.69A1.22,1.22,0,0,0,88.82,76.16Zm297.83-4a1.2,1.2,0,0,0,.78-2.1c-1.61-1.4-3.26-2.79-4.9-4.14A1.2,1.2,0,0,0,381,67.74c1.63,1.33,3.26,2.71,4.86,4.09A1.16,1.16,0,0,0,386.65,72.13ZM98.49,67.8a1.19,1.19,0,0,0,.75-.27c1.64-1.34,3.32-2.67,5-4a1.19,1.19,0,0,0-1.46-1.89c-1.69,1.3-3.39,2.65-5,4a1.19,1.19,0,0,0,.76,2.12ZM376.77,64a1.21,1.21,0,0,0,1-.46,1.2,1.2,0,0,0-.22-1.68c-1.68-1.3-3.41-2.6-5.13-3.85A1.2,1.2,0,1,0,371,60c1.7,1.24,3.41,2.52,5.08,3.81A1.19,1.19,0,0,0,376.77,64ZM108.62,60a1.15,1.15,0,0,0,.7-.23c1.7-1.23,3.45-2.47,5.2-3.66a1.19,1.19,0,1,0-1.35-2c-1.77,1.2-3.53,2.45-5.25,3.7a1.19,1.19,0,0,0-.27,1.67A1.21,1.21,0,0,0,108.62,60Zm257.84-3.48a1.19,1.19,0,0,0,.67-2.18c-1.76-1.2-3.55-2.4-5.34-3.55a1.19,1.19,0,1,0-1.29,2c1.76,1.14,3.54,2.32,5.28,3.52A1.2,1.2,0,0,0,366.46,56.51ZM119.18,52.77a1.16,1.16,0,0,0,.64-.19c1.79-1.15,3.61-2.28,5.41-3.36a1.2,1.2,0,1,0-1.23-2c-1.82,1.1-3.66,2.24-5.47,3.4a1.19,1.19,0,0,0,.65,2.2ZM355.73,49.6a1.21,1.21,0,0,0,1-.58,1.19,1.19,0,0,0-.41-1.64c-1.81-1.1-3.67-2.19-5.53-3.24a1.2,1.2,0,1,0-1.18,2.08c1.84,1,3.68,2.12,5.48,3.21A1.22,1.22,0,0,0,355.73,49.6ZM130.14,46.16a1.26,1.26,0,0,0,.59-.15c1.85-1,3.73-2.07,5.59-3a1.2,1.2,0,0,0-1.12-2.12c-1.87,1-3.77,2-5.65,3.09a1.19,1.19,0,0,0,.59,2.23Zm214.5-2.85a1.19,1.19,0,0,0,.56-2.25c-1.89-1-3.81-2-5.71-2.92a1.19,1.19,0,1,0-1.05,2.14c1.87.93,3.77,1.9,5.64,2.89A1.25,1.25,0,0,0,344.64,43.31ZM141.47,40.19a1.23,1.23,0,0,0,.52-.12c1.91-.94,3.85-1.86,5.76-2.73a1.19,1.19,0,1,0-1-2.17c-1.93.88-3.89,1.81-5.82,2.75a1.2,1.2,0,0,0,.53,2.27Zm191.74-2.53A1.19,1.19,0,0,0,334.3,37a1.21,1.21,0,0,0-.59-1.59c-1.94-.89-3.91-1.76-5.86-2.58a1.19,1.19,0,0,0-1.57.63,1.21,1.21,0,0,0,.64,1.57c1.92.81,3.87,1.67,5.79,2.56A1.31,1.31,0,0,0,333.21,37.66ZM153.12,34.88a1.14,1.14,0,0,0,.47-.1c2-.82,3.94-1.63,5.9-2.39a1.2,1.2,0,1,0-.86-2.23c-2,.77-4,1.59-6,2.42a1.2,1.2,0,0,0,.46,2.3Zm168.37-2.19a1.2,1.2,0,0,0,.43-2.31c-2-.78-4-1.54-6-2.25a1.19,1.19,0,1,0-.81,2.24c2,.71,4,1.46,5.95,2.23A1.15,1.15,0,0,0,321.49,32.69ZM165.07,30.24a1.09,1.09,0,0,0,.4-.07c2-.7,4-1.39,6-2.05a1.19,1.19,0,0,0-.73-2.27c-2.05.66-4.1,1.36-6.11,2.07a1.19,1.19,0,0,0-.72,1.53A1.18,1.18,0,0,0,165.07,30.24Zm144.39-1.86a1.2,1.2,0,0,0,.37-2.33c-2-.67-4.1-1.31-6.14-1.91a1.19,1.19,0,0,0-.68,2.29c2,.6,4.07,1.23,6.08,1.89A1.15,1.15,0,0,0,309.46,28.38ZM177.25,26.3a1.32,1.32,0,0,0,.34,0c2-.6,4.09-1.17,6.13-1.69a1.2,1.2,0,0,0-.61-2.32c-2.05.54-4.13,1.11-6.19,1.71a1.19,1.19,0,0,0,.33,2.34Zm120-1.54a1.18,1.18,0,0,0,1.15-.89,1.2,1.2,0,0,0-.85-1.46c-2.06-.54-4.16-1.06-6.23-1.54a1.19,1.19,0,1,0-.55,2.32c2,.48,4.13,1,6.17,1.53A1.1,1.1,0,0,0,297.2,24.76ZM189.62,23.08a1.24,1.24,0,0,0,.27,0c2.06-.47,4.15-.92,6.21-1.33a1.2,1.2,0,0,0-.47-2.35c-2.08.42-4.2.88-6.28,1.35a1.2,1.2,0,0,0,.27,2.36Zm95.13-1.22A1.19,1.19,0,0,0,285,19.5c-2.09-.42-4.21-.82-6.32-1.19a1.2,1.2,0,1,0-.4,2.36c2.08.36,4.18.75,6.24,1.17A1,1,0,0,0,284.75,21.86Zm-82.6-1.28.2,0c2.07-.35,4.19-.68,6.28-1a1.19,1.19,0,1,0-.33-2.36c-2.12.29-4.25.63-6.35,1a1.2,1.2,0,0,0,.2,2.38Zm70-.9a1.19,1.19,0,0,0,.17-2.37c-2.13-.31-4.28-.59-6.37-.83a1.2,1.2,0,0,0-.27,2.38c2.07.23,4.19.51,6.3.81Zm-57.36-.89h.14c2.09-.23,4.22-.44,6.32-.61a1.21,1.21,0,0,0,1.1-1.29,1.2,1.2,0,0,0-1.29-1.09c-2.13.17-4.29.38-6.4.62a1.19,1.19,0,0,0,.13,2.38Zm44.67-.57a1.19,1.19,0,0,0,.1-2.38c-2.15-.19-4.3-.34-6.41-.46a1.2,1.2,0,0,0-.14,2.39c2.09.11,4.22.27,6.34.45Zm-31.93-.49h.07c2.11-.12,4.25-.2,6.35-.26a1.2,1.2,0,0,0,0-2.39h0c-2.12.06-4.27.15-6.41.26a1.2,1.2,0,0,0,.06,2.39Zm19.17-.24a1.2,1.2,0,0,0,0-2.39c-2.12-.06-4.28-.1-6.42-.1h0a1.2,1.2,0,1,0,0,2.39c2.12,0,4.26,0,6.36.1Z"/></svg>