<svg id="Layer_1" data-name="Layer 1" xmlns="http://www.w3.org/2000/svg" xmlns:xlink="http://www.w3.org/1999/xlink" viewBox="0 0 480 480"><defs><style>.cls-1{fill:none;}.cls-2{clip-path:url(#clip-path);}.cls-3{fill:#fce3c3;}.cls-4{fill:#603813;}.cls-5{fill:#acddd9;}.cls-6{fill:#ffcfca;}.cls-7{fill:#f9bfbb;}.cls-8{fill:#c15252;}.cls-9{fill:#363740;}.cls-10{fill:#fff;}.cls-11{fill:#af4646;}.cls-12{fill:#1f3c49;}.cls-13{fill:#d55454;}.cls-14{fill:#f37c7c;}.cls-15{fill:#fbb03b;}</style><clipPath id="clip-path"><circle class="cls-1" cx="240.07" cy="239.97" r="209.9"/></clipPath></defs><g class="cls-2"><circle class="cls-3" cx="240.07" cy="239.97" r="209.9"/><ellipse class="cls-4" cx="256.67" cy="164.89" rx="39.4" ry="50.05" transform="translate(-22.32 41.48) rotate(-8.86)"/><polygon points="188.64 283.39 267.45 286.59 244.92 333.23 196.09 331.28 188.64 283.39"/><path class="cls-5" d="M78.33,759.37c24.85,18.75,296.69,16.35,296.51,3-.45-32.52-5.47-67.64-10.13-102-2.64-19.43-5.17-38.62-6.69-57C354.44,560.18,342.31,424,340.6,399.94c-1.11-15.7-3.86-51.32-4.19-55.56-2-1.41-4-2.75-6.1-4l-.19-.11c-1.53-.9-3.28-1.93-5.16-3,0,0,0,0,0,0-8.1-4.72-18.73-10.73-25.77-14.06a188.73,188.73,0,0,0-54.67-16.2c-31.64-4.55-63,.95-86,7.38a240.57,240.57,0,0,0-36.12,13l-.13.06s13.17,5.64,16.71,27.34c15,92.3-30.33,165.77-30.33,165.77S97.09,600.82,90.45,641.79C86.23,667.8,74.85,756.75,78.33,759.37Z"/><path class="cls-6" d="M187.32,239.82q1.29,7.17,2.56,14.34c.06.29.1.58.15.86s.05.26.08.39c1.13,6.34,2.25,12.66,3,19,.32,2.55.58,5.12.76,7.7.2,2.87.32,5.76.35,8.65.08,5.52-.07,11.05-.24,16.57-.1,3.11-.14,6.23-.16,9.34,0,3.61-1.56,7.51-.09,11,1.85,4.43,6.1,6.72,9.85,9.32a60.14,60.14,0,0,0,13.17,6.9c9.12,3.41,19.41,4.68,28.85,1.79,18-5.54,13.26-25.38,13.19-39.75v-4l0-10.52-.06-15c-5.16-1.26-10-3.6-14.77-5.93-15.88-7.77-31.65-15.73-47.11-24.29l-1.21-.67A35.69,35.69,0,0,1,187.32,239.82Z"/><path class="cls-7" d="M258.82,306a181,181,0,0,1-50.67-21.54c-5-3.1-10.11-6.42-15-10-.77-6.37-1.9-12.68-3-19l-2.79-15.6c3,2.91,5.85,4.43,9.52,6.46,15.46,8.56,31.23,16.53,47.11,24.29,4.78,2.33,9.61,4.67,14.78,5.93Z"/><path class="cls-6" d="M196.81,243.73a28.81,28.81,0,0,1-28.36,2.38A28.31,28.31,0,0,1,153.35,227a27.42,27.42,0,0,1-.61-4.53,20.63,20.63,0,0,1,1.08-7.92,17.67,17.67,0,0,1,15.21-11,20.4,20.4,0,0,1,17.21,8.22l4.06,12.3Z"/><path class="cls-8" d="M199.29,806.3c-8.52,12.78-96.47-25.2-125.67-37.27-22.12-9.15-14.09-22.29-11.72-39.41,7-50.43,15.46-93.85,23.78-140.27,3.18-17.71,6.34-35.86,9.4-55,.13-.79.24-1.57.37-2.36-3.73,12.3-10.5,37.59-13.31,46.38C66.16,628.45,40.6,746.66,14,750.92c-4.59.74-55.24-17.08-57.51-23.43C-59.51,682.76-10,518.8-2,498.52,11.85,463.37,55.59,372.9,67.23,357.94c22.36-28.75,94.92-45.65,98.51-46.65q15.69-4.46,31.63-8c10.51,25,13.1,49.48,15.78,76.41C227.46,523.36,206,796.25,199.29,806.3Z"/><polygon class="cls-9" points="222.72 334.51 221.94 338.57 221.16 342.7 219.86 349.5 219.1 353.57 216.96 364.8 216.21 368.73 213.48 383.06 169.47 310.01 172.52 305.77 174.62 302.85 178.31 297.74 180.39 294.84 183.54 290.48 185.59 287.62 188.64 283.39 222.72 334.51"/><path class="cls-10" d="M221.94,338.57l-.78,4.13q-10.36-13.15-20.26-26.64c-6.09-8.27-12.53-16.48-17.36-25.58l2.05-2.86a111,111,0,0,0,8.47,13.57Q207.58,320.2,221.94,338.57Z"/><path class="cls-10" d="M219.86,349.51l-.76,4.06c-7.85-9.26-15.56-18.66-22.89-28.33a197.87,197.87,0,0,1-17.9-27.5l2.08-2.9c2.37,4.64,5,9.15,7.82,13.54,7.71,12,16.74,23.07,25.78,34.06Q216.9,346,219.86,349.51Z"/><path class="cls-10" d="M217,364.8l-.75,3.93a283.1,283.1,0,0,1-25.16-31.67q-6.72-9.84-12.59-20.24-3-5.24-5.7-10.6l-.24-.45,2.1-2.92c.55,1,1.08,2.12,1.62,3.17q3.09,6,6.43,11.75a279,279,0,0,0,27.05,38.71Q213.26,360.71,217,364.8Z"/><path class="cls-11" d="M102.37,556a221.59,221.59,0,0,1-16.69,33.32c3.18-17.71,6.34-35.86,9.4-55C97,530,116,486.28,121.54,441,123.67,496.39,112,532.6,102.37,556Z"/><path class="cls-8" d="M583.75,496.39C564.31,523.6,421,678.5,377.14,588c-.64-1.32-1.43-3.32-2.32-5.82C370.08,569,362.48,542.35,359.34,532c.13.79.25,1.57.38,2.36.24,1.55.5,3.1.74,4.64,2.83,17.43,5.73,34.07,8.65,50.34,8.33,46.42,16.8,89.84,23.78,140.27,2.38,17.12,10.41,30.26-11.71,39.41C352,781.1,264,819.08,255.51,806.3c-4.25-6.37-.79-119.79-4-237.49-1.87-68-15.07-136.5-9.83-189.12,2.69-26.93,5.27-51.46,15.79-76.41q15.92,3.56,31.63,8c3.58,1,76.14,17.9,98.51,46.65,11.64,15,62,139.51,62,139.51s43.1-32.16,94.78-54.31C551.8,439.94,589.07,488.93,583.75,496.39Z"/><polygon class="cls-9" points="232.08 334.51 232.86 338.57 233.63 342.7 234.93 349.5 235.7 353.57 237.84 364.8 238.59 368.73 241.31 383.06 285.33 310.01 282.27 305.77 280.17 302.85 276.49 297.74 274.4 294.84 271.26 290.48 269.2 287.62 266.16 283.39 232.08 334.51"/><path class="cls-10" d="M232.86,338.57l.77,4.13Q244,329.55,253.9,316.06c6.08-8.27,12.52-16.48,17.36-25.58l-2.06-2.86a109.7,109.7,0,0,1-8.46,13.57Q247.22,320.2,232.86,338.57Z"/><path class="cls-10" d="M234.93,349.51l.77,4.06c7.85-9.26,15.56-18.66,22.89-28.33a197.87,197.87,0,0,0,17.9-27.5l-2.09-2.9a153.28,153.28,0,0,1-7.82,13.54c-7.71,12-16.74,23.07-25.78,34.06Q237.89,346,234.93,349.51Z"/><path class="cls-10" d="M237.84,364.8l.75,3.93a283,283,0,0,0,25.15-31.67q6.72-9.84,12.6-20.24,3-5.24,5.7-10.6c.07-.15.16-.3.23-.45l-2.1-2.92c-.54,1-1.07,2.12-1.62,3.17q-3.07,6-6.43,11.75a277.33,277.33,0,0,1-27.05,38.71C242.72,359.3,240.3,362.08,237.84,364.8Z"/><path class="cls-6" d="M289.44,258.18c-3.94,9.61-9.4,18.35-18.34,24a47,47,0,0,1-26.83,7,59.84,59.84,0,0,1-29.1-9.6A77.1,77.1,0,0,1,203,270a105.82,105.82,0,0,1-16.66-21.15,131.79,131.79,0,0,1-16.87-41.35c-3.48-16.59-3-33.79,3.76-49.7a63.44,63.44,0,0,1,11.29-17.75c19.88-22.14,54.06-26,78.35-8.76,12.66,9,22.1,22.44,27.14,37a140.67,140.67,0,0,1,4.1,14.18C299.9,207.43,299.13,234.5,289.44,258.18Z"/><path class="cls-12" d="M239.15,213.71c-1.3.07-3.1-2-3.6-5.08a8.08,8.08,0,0,1,.44-4.45c.18-.42.7-1.41,1.5-1.53l.12,0c1.31-.07,3.1,2,3.6,5.08a8.18,8.18,0,0,1-.43,4.45c-.19.42-.71,1.41-1.51,1.53Z"/><path class="cls-12" d="M278.2,209.92c-1.1.06-2.95-1.78-3.45-4.91a7.8,7.8,0,0,1,.42-4.31c.37-.84.89-1.37,1.42-1.46h.11c1.11-.06,2.95,1.78,3.45,4.91a7.8,7.8,0,0,1-.42,4.31c-.37.84-.89,1.37-1.42,1.46Z"/><path class="cls-12" d="M258.6,217a4.82,4.82,0,0,1,4.38-1.3,5.75,5.75,0,0,1,4.13,7.92,4.82,4.82,0,0,1-3.57,2.84,6.59,6.59,0,0,0,1.86-3.42,5.21,5.21,0,0,0-2.92-5.62A6.59,6.59,0,0,0,258.6,217Z"/><path class="cls-12" d="M240.35,185.6a15.78,15.78,0,0,0-12.43-.56,3,3,0,0,0,0,5.65,2.86,2.86,0,0,0,1,.22,3.13,3.13,0,0,0,1.25-.2,9.58,9.58,0,0,1,3.92-.61,9.44,9.44,0,0,1,3.65,1,3.23,3.23,0,0,0,1.18.31,3,3,0,0,0,1.5-5.76Z"/><path class="cls-12" d="M277.63,179.28a14.33,14.33,0,0,0-2.17-.29,14.71,14.71,0,0,0-9,2.51,3,3,0,0,0-.79,4.22A3.11,3.11,0,0,0,268,187a3.06,3.06,0,0,0,1.88-.53,8.72,8.72,0,0,1,5.28-1.45,7.25,7.25,0,0,1,1.24.16l.47.06a3,3,0,0,0,.8-6Z"/><path class="cls-10" d="M238.4,204.66a1.51,1.51,0,0,0-.62,3A1.51,1.51,0,0,0,238.4,204.66Z"/><path class="cls-10" d="M278.06,200.83a1.51,1.51,0,0,0-.61,3A1.51,1.51,0,0,0,278.06,200.83Z"/><path class="cls-13" d="M282.29,232a27.17,27.17,0,0,1-2.47,14.57c-3.28,6.86-9.42,11.75-16.84,12.5-7.6.77-14.74-3-19.32-9.3a27.34,27.34,0,0,1-5-13.35c0-.18,0-.37,0-.56l43.61-4.42C282.23,231.65,282.27,231.83,282.29,232Z"/><path class="cls-10" d="M280.44,231.63a28.14,28.14,0,0,1-40.07,4.06Z"/><path class="cls-14" d="M279.82,246.58c-3.28,6.86-9.42,11.75-16.84,12.5-7.6.77-14.74-3-19.32-9.3a80.23,80.23,0,0,1,22.57-4A81.23,81.23,0,0,1,279.82,246.58Z"/><path class="cls-7" d="M236.71,225.7c.26,5-5,9.28-11.72,9.64S212.57,232,212.31,227s5-9.28,11.72-9.63S236.45,220.74,236.71,225.7Z"/><path class="cls-7" d="M293.53,217.63c.18,3.35-3.37,6.27-7.92,6.51s-8.38-2.28-8.56-5.63,3.37-6.27,7.92-6.51S293.35,214.28,293.53,217.63Z"/><path class="cls-11" d="M374.82,582.16C370.08,569,362.48,542.35,359.34,532c.13.79.25,1.57.38,2.36.24,1.55.5,3.1.74,4.64L359,531.53,351.3,415.86S375.66,525,376,562.11C376,565.88,375.47,574,374.82,582.16Z"/><path class="cls-4" d="M165.45,144.77c-2-7.71.53-16.28,5.53-22.16s12.17-9.25,19.5-10.45,14.82-.4,22.12,1.07c7,1.42,14.07,3.47,21.19,3a32.6,32.6,0,0,0,23-12c5.46-6.72,17.2-5.73,24.3-1s14.11,12.91,15.57,21.75c1.4,8.47.61,22.58-12.65,30.34-15.62,9.15-64.75,5.91-71.38,5.75s-13.77,1.57-18.15,6.92c-8.69,10.62-10.39,26.62-11,40.81a30.19,30.19,0,0,0-15.81-4.08,13.24,13.24,0,0,0-8.43,2.47c-5.48-10.61-8.71-22-11.22-33.84-1.24-5.87-2.1-11.93-1.37-17.88a15.19,15.19,0,0,1,2-6.42,11.07,11.07,0,0,1,8.2-4.69A20,20,0,0,1,165.45,144.77Z"/></g><path class="cls-15" d="M240.11,465a1.2,1.2,0,1,1,0-2.39c2.11,0,4.25,0,6.36-.09a1.2,1.2,0,0,1,.07,2.39C244.4,465,242.24,465,240.11,465Zm-6.39-.09h0c-2.13-.06-4.29-.15-6.42-.26a1.2,1.2,0,0,1,.14-2.39c2.1.12,4.23.21,6.35.26a1.2,1.2,0,0,1,0,2.39Zm19.16-.27a1.2,1.2,0,0,1-.07-2.39c2.11-.12,4.24-.27,6.34-.45a1.19,1.19,0,1,1,.21,2.38c-2.12.18-4.28.33-6.41.45ZM221,464.2h-.1c-2.12-.18-4.28-.39-6.4-.63a1.2,1.2,0,0,1,.27-2.38c2.1.24,4.23.45,6.33.63a1.19,1.19,0,0,1-.1,2.38Zm44.65-.65a1.19,1.19,0,0,1-.13-2.38c2.09-.24,4.21-.51,6.3-.81a1.19,1.19,0,1,1,.34,2.36c-2.11.31-4.26.58-6.37.82Zm-57.35-.78-.17,0c-2.11-.29-4.24-.63-6.35-1a1.19,1.19,0,0,1,.41-2.35c2.08.35,4.19.68,6.28,1a1.2,1.2,0,0,1-.17,2.38Zm70-1a1.19,1.19,0,0,1-.2-2.37c2.08-.36,4.18-.75,6.25-1.17a1.19,1.19,0,1,1,.47,2.34c-2.09.43-4.22.82-6.31,1.18A.75.75,0,0,1,278.26,461.74Zm-82.6-1.13-.23,0c-2.09-.42-4.2-.88-6.28-1.36a1.19,1.19,0,1,1,.53-2.33c2.06.48,4.16.93,6.22,1.34a1.2,1.2,0,0,1-.24,2.37Zm95.13-1.4a1.2,1.2,0,0,1-.27-2.36c2.06-.47,4.13-1,6.17-1.52a1.19,1.19,0,0,1,.61,2.31c-2.06.54-4.16,1.06-6.24,1.54Zm-107.58-1.48a1,1,0,0,1-.3,0c-2.07-.54-4.16-1.12-6.19-1.71a1.2,1.2,0,0,1,.67-2.3c2,.59,4.07,1.16,6.12,1.7a1.19,1.19,0,0,1-.3,2.35ZM303.15,456a1.2,1.2,0,0,1-.33-2.35c2-.59,4.06-1.22,6.07-1.87a1.19,1.19,0,0,1,.74,2.27c-2,.66-4.1,1.3-6.14,1.9A1.33,1.33,0,0,1,303.15,456ZM171,454.14a1.15,1.15,0,0,1-.37-.06c-2-.66-4.09-1.35-6.11-2.07a1.2,1.2,0,1,1,.81-2.25c2,.71,4,1.4,6,2.05a1.2,1.2,0,0,1,.77,1.51A1.19,1.19,0,0,1,171,454.14ZM315.31,452a1.2,1.2,0,0,1-.41-2.32c2-.71,4-1.45,6-2.22a1.2,1.2,0,0,1,.87,2.23c-2,.77-4,1.53-6,2.24A1.16,1.16,0,0,1,315.31,452Zm-156.44-2.17a1.36,1.36,0,0,1-.44-.08c-2-.78-4-1.59-6-2.42a1.2,1.2,0,0,1-.63-1.57,1.19,1.19,0,0,1,1.56-.63c2,.82,3.94,1.63,5.91,2.39a1.2,1.2,0,0,1-.43,2.31Zm168.32-2.46a1.19,1.19,0,0,1-.46-2.29c1.94-.83,3.89-1.69,5.8-2.56a1.19,1.19,0,1,1,1,2.17c-1.93.89-3.9,1.76-5.86,2.59A1.27,1.27,0,0,1,327.19,447.38Zm-180.13-2.53a1.09,1.09,0,0,1-.49-.11c-1.94-.88-3.9-1.81-5.82-2.76a1.19,1.19,0,0,1,1.06-2.14c1.89.93,3.83,1.85,5.75,2.73a1.19,1.19,0,0,1-.5,2.28Zm191.72-2.77a1.2,1.2,0,0,1-.53-2.27c1.89-.93,3.79-1.9,5.65-2.88A1.19,1.19,0,0,1,345,439c-1.88,1-3.8,2-5.7,2.91A1.12,1.12,0,0,1,338.78,442.08ZM135.57,439.2a1.25,1.25,0,0,1-.55-.14c-1.89-1-3.79-2-5.65-3.09a1.2,1.2,0,1,1,1.18-2.08c1.84,1,3.72,2.07,5.58,3.05a1.2,1.2,0,0,1-.56,2.26Zm214.48-3.08a1.19,1.19,0,0,1-1-.61,1.21,1.21,0,0,1,.45-1.63c1.83-1,3.67-2.11,5.48-3.2a1.2,1.2,0,0,1,1.23,2.05c-1.82,1.1-3.68,2.19-5.53,3.23A1.16,1.16,0,0,1,350.05,436.12Zm-225.62-3.23a1.13,1.13,0,0,1-.61-.17c-1.83-1.1-3.67-2.25-5.46-3.41a1.19,1.19,0,1,1,1.29-2c1.78,1.14,3.6,2.27,5.4,3.36a1.2,1.2,0,0,1-.62,2.22ZM361,429.52a1.19,1.19,0,0,1-.65-2.2c1.77-1.13,3.55-2.32,5.29-3.51a1.19,1.19,0,1,1,1.35,2c-1.76,1.21-3.56,2.4-5.35,3.55A1.16,1.16,0,0,1,361,429.52ZM113.67,426a1.2,1.2,0,0,1-.67-.21c-1.76-1.21-3.53-2.46-5.25-3.71a1.2,1.2,0,1,1,1.4-1.94c1.71,1.25,3.46,2.48,5.2,3.67a1.2,1.2,0,0,1-.68,2.19Zm257.83-3.66a1.21,1.21,0,0,1-1-.49,1.19,1.19,0,0,1,.27-1.67c1.7-1.24,3.41-2.52,5.08-3.81a1.2,1.2,0,0,1,1.46,1.9c-1.69,1.3-3.41,2.59-5.14,3.84A1.15,1.15,0,0,1,371.5,422.31Zm-268.17-3.87a1.19,1.19,0,0,1-.73-.25c-1.68-1.3-3.37-2.65-5-4a1.19,1.19,0,1,1,1.51-1.85c1.64,1.34,3.32,2.67,5,4a1.19,1.19,0,0,1-.73,2.14Zm278.28-3.93a1.19,1.19,0,0,1-.76-2.12c1.63-1.33,3.27-2.71,4.86-4.09a1.19,1.19,0,1,1,1.56,1.81c-1.6,1.39-3.26,2.78-4.91,4.13A1.19,1.19,0,0,1,381.61,414.51ZM93.44,410.34a1.2,1.2,0,0,1-.78-.29c-1.62-1.4-3.23-2.84-4.8-4.28A1.2,1.2,0,0,1,89.48,404c1.55,1.43,3.15,2.85,4.74,4.23a1.2,1.2,0,0,1-.78,2.1Zm297.82-4.19a1.18,1.18,0,0,1-.88-.39,1.2,1.2,0,0,1,.07-1.69c1.56-1.43,3.12-2.89,4.62-4.36a1.2,1.2,0,0,1,1.67,1.72c-1.53,1.48-3.1,3-4.67,4.4A1.16,1.16,0,0,1,391.26,406.15ZM84,401.69a1.2,1.2,0,0,1-.83-.33c-1.53-1.49-3.06-3-4.54-4.55a1.19,1.19,0,1,1,1.71-1.66c1.47,1.51,3,3,4.5,4.49a1.2,1.2,0,0,1-.84,2.05Zm316.41-4.44a1.23,1.23,0,0,1-.84-.34,1.2,1.2,0,0,1,0-1.69c1.47-1.51,2.94-3.06,4.37-4.62a1.19,1.19,0,0,1,1.69-.07,1.21,1.21,0,0,1,.07,1.69c-1.45,1.57-2.94,3.14-4.42,4.67A1.17,1.17,0,0,1,400.43,397.25ZM75.12,392.53a1.19,1.19,0,0,1-.88-.38c-1.44-1.57-2.88-3.19-4.28-4.8a1.19,1.19,0,0,1,.12-1.68,1.2,1.2,0,0,1,1.69.12c1.38,1.59,2.8,3.19,4.23,4.74a1.21,1.21,0,0,1-.07,1.69A1.19,1.19,0,0,1,75.12,392.53Zm334-4.69a1.2,1.2,0,0,1-.91-2c1.39-1.6,2.77-3.24,4.1-4.86a1.19,1.19,0,0,1,1.85,1.51c-1.35,1.65-2.74,3.3-4.14,4.91A1.18,1.18,0,0,1,409.08,387.84Zm-342.33-5a1.22,1.22,0,0,1-.93-.43c-1.34-1.65-2.69-3.34-4-5A1.19,1.19,0,0,1,63.72,376c1.29,1.67,2.62,3.35,4,5a1.2,1.2,0,0,1-.92,1.95ZM417.18,378a1.24,1.24,0,0,1-.73-.25,1.21,1.21,0,0,1-.22-1.68c1.3-1.67,2.58-3.38,3.82-5.09a1.2,1.2,0,1,1,1.93,1.41c-1.25,1.72-2.55,3.45-3.86,5.14A1.16,1.16,0,0,1,417.18,378ZM58.94,372.78a1.19,1.19,0,0,1-1-.49c-1.26-1.73-2.5-3.49-3.7-5.24a1.19,1.19,0,1,1,2-1.35c1.18,1.73,2.42,3.47,3.66,5.18a1.2,1.2,0,0,1-.26,1.67A1.25,1.25,0,0,1,58.94,372.78Zm365.77-5.17a1.2,1.2,0,0,1-1-1.87c1.19-1.75,2.38-3.53,3.52-5.3a1.19,1.19,0,1,1,2,1.29c-1.16,1.79-2.35,3.59-3.56,5.36A1.19,1.19,0,0,1,424.71,367.61Zm-373-5.36a1.2,1.2,0,0,1-1-.55c-1.15-1.78-2.29-3.61-3.39-5.44a1.19,1.19,0,1,1,2-1.23c1.09,1.8,2.22,3.61,3.36,5.38a1.19,1.19,0,0,1-.35,1.65A1.22,1.22,0,0,1,51.73,362.25Zm379.91-5.4a1.19,1.19,0,0,1-.62-.17,1.2,1.2,0,0,1-.4-1.64c1.09-1.81,2.18-3.66,3.22-5.5a1.2,1.2,0,0,1,2.08,1.18c-1.06,1.86-2.15,3.73-3.25,5.55A1.19,1.19,0,0,1,431.64,356.85ZM45.13,351.34a1.19,1.19,0,0,1-1-.61C43,348.88,42,347,41,345.11A1.19,1.19,0,1,1,43.12,344c1,1.86,2,3.73,3.05,5.56a1.2,1.2,0,0,1-.45,1.63A1.16,1.16,0,0,1,45.13,351.34ZM438,345.71a1.14,1.14,0,0,1-.56-.14,1.19,1.19,0,0,1-.49-1.61c1-1.87,2-3.77,2.89-5.67a1.2,1.2,0,0,1,2.15,1c-.95,1.92-1.93,3.85-2.93,5.74A1.21,1.21,0,0,1,438,345.71ZM39.16,340.07a1.2,1.2,0,0,1-1.07-.67c-.94-1.9-1.86-3.85-2.75-5.78a1.21,1.21,0,0,1,.59-1.59,1.19,1.19,0,0,1,1.58.59c.88,1.91,1.8,3.84,2.72,5.72a1.19,1.19,0,0,1-.54,1.6A1.12,1.12,0,0,1,39.16,340.07Zm404.45-5.84a1.24,1.24,0,0,1-.49-.11,1.2,1.2,0,0,1-.59-1.59c.88-1.92,1.74-3.88,2.57-5.83a1.18,1.18,0,0,1,1.56-.63,1.19,1.19,0,0,1,.64,1.56c-.84,2-1.71,4-2.6,5.9A1.19,1.19,0,0,1,443.61,334.23ZM33.86,328.48a1.19,1.19,0,0,1-1.1-.72c-.83-2-1.65-4-2.42-5.93a1.2,1.2,0,0,1,2.23-.87c.76,2,1.57,3.93,2.39,5.86a1.21,1.21,0,0,1-.64,1.57A1.25,1.25,0,0,1,33.86,328.48Zm414.75-6.05a1.15,1.15,0,0,1-.44-.09,1.2,1.2,0,0,1-.68-1.54c.77-2,1.52-4,2.23-6a1.2,1.2,0,0,1,1.53-.72,1.19,1.19,0,0,1,.72,1.53c-.72,2-1.47,4.05-2.25,6A1.18,1.18,0,0,1,448.61,322.43ZM29.22,316.6a1.19,1.19,0,0,1-1.13-.79c-.72-2-1.42-4.05-2.08-6.08a1.2,1.2,0,0,1,2.28-.74c.65,2,1.34,4,2.05,6a1.2,1.2,0,0,1-.72,1.53A1.16,1.16,0,0,1,29.22,316.6Zm423.7-6.25a1.15,1.15,0,0,1-.37-.06,1.19,1.19,0,0,1-.77-1.5c.65-2,1.28-4.05,1.88-6.08a1.19,1.19,0,0,1,1.48-.81,1.2,1.2,0,0,1,.81,1.48c-.6,2.05-1.24,4.12-1.9,6.14A1.18,1.18,0,0,1,452.92,310.35Zm-427.66-5.9a1.21,1.21,0,0,1-1.15-.86c-.6-2-1.18-4.13-1.72-6.19a1.19,1.19,0,1,1,2.31-.61c.54,2,1.11,4.1,1.7,6.13a1.19,1.19,0,0,1-.8,1.48A1.4,1.4,0,0,1,25.26,304.45Zm431.25-6.36a1.54,1.54,0,0,1-.3,0,1.21,1.21,0,0,1-.86-1.46c.54-2,1-4.12,1.53-6.17a1.19,1.19,0,0,1,1.43-.9,1.21,1.21,0,0,1,.9,1.44c-.48,2.07-1,4.17-1.54,6.23A1.2,1.2,0,0,1,456.51,298.09Zm-434.5-6a1.2,1.2,0,0,1-1.17-.93c-.48-2.07-.94-4.18-1.36-6.27a1.19,1.19,0,1,1,2.34-.48c.42,2.07.87,4.16,1.35,6.21a1.2,1.2,0,0,1-.89,1.44Zm437.38-6.45-.23,0a1.2,1.2,0,0,1-.94-1.41c.42-2.06.81-4.16,1.17-6.24a1.19,1.19,0,1,1,2.35.4c-.36,2.1-.75,4.23-1.18,6.32A1.2,1.2,0,0,1,459.39,285.64ZM19.47,279.56a1.2,1.2,0,0,1-1.18-1c-.36-2.09-.7-4.22-1-6.34a1.2,1.2,0,1,1,2.37-.34c.3,2.09.63,4.21,1,6.27a1.21,1.21,0,0,1-1,1.39ZM461.56,273h-.17a1.2,1.2,0,0,1-1-1.35c.3-2.09.57-4.21.81-6.31a1.2,1.2,0,0,1,1.32-1.05,1.18,1.18,0,0,1,1.05,1.32c-.24,2.12-.51,4.27-.81,6.37A1.2,1.2,0,0,1,461.56,273ZM17.65,266.91a1.2,1.2,0,0,1-1.18-1.06c-.24-2.1-.46-4.25-.64-6.39a1.19,1.19,0,0,1,1.09-1.29,1.2,1.2,0,0,1,1.29,1.09c.18,2.11.39,4.24.63,6.32a1.19,1.19,0,0,1-1.05,1.33ZM463,260.34h-.1a1.2,1.2,0,0,1-1.09-1.29c.17-2.1.33-4.23.44-6.34a1.21,1.21,0,0,1,1.26-1.13,1.2,1.2,0,0,1,1.13,1.26c-.12,2.14-.27,4.29-.45,6.41A1.2,1.2,0,0,1,463,260.34ZM16.56,254.18a1.2,1.2,0,0,1-1.19-1.13c-.12-2.12-.21-4.28-.27-6.41a1.19,1.19,0,1,1,2.38-.07c.07,2.11.16,4.24.28,6.35a1.2,1.2,0,0,1-1.13,1.26Zm447.16-6.6h0a1.19,1.19,0,0,1-1.16-1.22c.06-2.11.09-4.25.09-6.36v-.42a1.2,1.2,0,0,1,2.39,0V240c0,2.13,0,4.29-.09,6.42A1.19,1.19,0,0,1,463.72,247.58ZM16.19,241.41a1.19,1.19,0,0,1-1.19-1.2V240c0-2.06,0-4.15.08-6.21a1.22,1.22,0,0,1,1.23-1.16,1.18,1.18,0,0,1,1.16,1.22c0,2-.08,4.11-.08,6.15v.21A1.2,1.2,0,0,1,16.19,241.41Zm447.51-7a1.19,1.19,0,0,1-1.19-1.15c-.06-2.11-.16-4.25-.28-6.36a1.19,1.19,0,0,1,1.12-1.26,1.21,1.21,0,0,1,1.27,1.13c.12,2.12.21,4.28.28,6.41a1.2,1.2,0,0,1-1.16,1.23ZM16.54,228.63h-.06a1.2,1.2,0,0,1-1.13-1.26c.12-2.13.27-4.28.44-6.41a1.19,1.19,0,0,1,2.38.2c-.17,2.1-.32,4.24-.44,6.34A1.19,1.19,0,0,1,16.54,228.63Zm446.42-7a1.2,1.2,0,0,1-1.19-1.1c-.18-2.09-.4-4.22-.64-6.32a1.2,1.2,0,0,1,2.38-.27c.24,2.12.46,4.27.64,6.39a1.19,1.19,0,0,1-1.09,1.29ZM17.61,215.9h-.14a1.2,1.2,0,0,1-1-1.32c.24-2.13.51-4.27.81-6.38a1.19,1.19,0,0,1,1.35-1,1.2,1.2,0,0,1,1,1.35c-.3,2.08-.57,4.2-.8,6.31A1.2,1.2,0,0,1,17.61,215.9Zm443.89-7a1.19,1.19,0,0,1-1.18-1c-.31-2.09-.64-4.2-1-6.28a1.19,1.19,0,1,1,2.35-.41c.37,2.1.71,4.24,1,6.35a1.2,1.2,0,0,1-1,1.35ZM19.4,203.24h-.2a1.2,1.2,0,0,1-1-1.38c.36-2.1.75-4.23,1.17-6.32a1.2,1.2,0,0,1,2.35.47c-.42,2.07-.81,4.17-1.16,6.25A1.2,1.2,0,0,1,19.4,203.24Zm439.91-6.9a1.19,1.19,0,0,1-1.17-1c-.42-2.06-.88-4.15-1.36-6.2a1.2,1.2,0,1,1,2.33-.55c.48,2.07.94,4.19,1.37,6.28a1.2,1.2,0,0,1-.93,1.41Zm-437.4-5.63-.27,0a1.19,1.19,0,0,1-.89-1.43c.48-2.09,1-4.19,1.53-6.24a1.19,1.19,0,0,1,2.31.6c-.53,2-1,4.11-1.51,6.18A1.2,1.2,0,0,1,21.91,190.71ZM456.4,183.9a1.19,1.19,0,0,1-1.15-.89c-.54-2-1.12-4.1-1.71-6.12a1.19,1.19,0,1,1,2.29-.68c.6,2,1.18,4.12,1.73,6.19a1.2,1.2,0,0,1-.85,1.46A1.65,1.65,0,0,1,456.4,183.9ZM25.14,178.35a1.4,1.4,0,0,1-.34,0,1.2,1.2,0,0,1-.81-1.48c.6-2,1.24-4.12,1.89-6.14a1.2,1.2,0,0,1,2.28.73c-.65,2-1.28,4.05-1.87,6.08A1.21,1.21,0,0,1,25.14,178.35Zm427.65-6.71a1.2,1.2,0,0,1-1.14-.82c-.65-2-1.35-4-2.06-6a1.19,1.19,0,1,1,2.25-.8c.72,2,1.42,4.05,2.08,6.07a1.19,1.19,0,0,1-.76,1.51A1.24,1.24,0,0,1,452.79,171.64ZM29.08,166.17a1.12,1.12,0,0,1-.4-.07,1.2,1.2,0,0,1-.73-1.53c.72-2,1.48-4,2.25-6a1.2,1.2,0,1,1,2.23.87c-.77,2-1.51,4-2.22,6A1.21,1.21,0,0,1,29.08,166.17Zm419.39-6.56a1.19,1.19,0,0,1-1.11-.76c-.77-1.95-1.57-3.92-2.4-5.86a1.21,1.21,0,0,1,.64-1.57,1.19,1.19,0,0,1,1.56.63c.84,2,1.65,4,2.42,5.93a1.2,1.2,0,0,1-.67,1.55A1.41,1.41,0,0,1,448.47,159.61ZM33.72,154.22a1.25,1.25,0,0,1-.46-.09,1.2,1.2,0,0,1-.64-1.57c.83-2,1.7-3.95,2.59-5.9a1.2,1.2,0,0,1,1.58-.59,1.21,1.21,0,0,1,.6,1.59c-.88,1.92-1.75,3.89-2.57,5.83A1.18,1.18,0,0,1,33.72,154.22Zm409.77-6.33a1.2,1.2,0,0,1-1.09-.7c-.88-1.91-1.8-3.84-2.73-5.72a1.2,1.2,0,0,1,2.15-1.06c.94,1.9,1.86,3.85,2.75,5.78a1.2,1.2,0,0,1-.58,1.59A1.29,1.29,0,0,1,443.49,147.89ZM39,142.57a1.24,1.24,0,0,1-.53-.12,1.2,1.2,0,0,1-.54-1.6c.94-1.92,1.93-3.85,2.92-5.74A1.2,1.2,0,1,1,43,136.23c-1,1.87-2,3.78-2.9,5.67A1.19,1.19,0,0,1,39,142.57Zm398.8-6.11a1.21,1.21,0,0,1-1.06-.63c-1-1.86-2-3.74-3-5.56a1.2,1.2,0,0,1,2.08-1.18c1.05,1.84,2.09,3.74,3.08,5.62a1.19,1.19,0,0,1-.49,1.61A1.14,1.14,0,0,1,437.84,136.46ZM45,131.25a1.16,1.16,0,0,1-.59-.16,1.19,1.19,0,0,1-.45-1.63c1.05-1.86,2.14-3.72,3.25-5.55a1.19,1.19,0,1,1,2,1.23c-1.09,1.81-2.17,3.66-3.21,5.5A1.19,1.19,0,0,1,45,131.25Zm386.52-5.88a1.17,1.17,0,0,1-1-.58c-1.09-1.79-2.22-3.6-3.37-5.38a1.19,1.19,0,1,1,2-1.29c1.16,1.79,2.3,3.62,3.4,5.44a1.18,1.18,0,0,1-.4,1.64A1.26,1.26,0,0,1,431.54,125.37ZM51.63,120.29a1.16,1.16,0,0,1-.64-.19,1.19,1.19,0,0,1-.36-1.65c1.15-1.79,2.35-3.6,3.55-5.36a1.2,1.2,0,0,1,2,1.35c-1.2,1.74-2.38,3.53-3.52,5.3A1.22,1.22,0,0,1,51.63,120.29Zm373-5.64a1.18,1.18,0,0,1-1-.52c-1.2-1.74-2.43-3.48-3.67-5.18a1.2,1.2,0,1,1,1.93-1.41c1.25,1.72,2.5,3.48,3.71,5.24a1.2,1.2,0,0,1-1,1.87ZM58.86,109.73a1.25,1.25,0,0,1-.71-.23,1.2,1.2,0,0,1-.26-1.67c1.25-1.72,2.55-3.45,3.86-5.14a1.19,1.19,0,1,1,1.89,1.45c-1.29,1.68-2.58,3.39-3.82,5.1A1.18,1.18,0,0,1,58.86,109.73Zm358.24-5.39a1.19,1.19,0,0,1-1-.47c-1.29-1.67-2.62-3.34-3.95-5A1.19,1.19,0,0,1,414,97.39c1.35,1.64,2.7,3.33,4,5a1.2,1.2,0,0,1-.21,1.68A1.17,1.17,0,0,1,417.1,104.34ZM66.67,99.6a1.2,1.2,0,0,1-.93-1.95c1.35-1.65,2.75-3.3,4.14-4.92a1.2,1.2,0,0,1,1.81,1.57c-1.38,1.59-2.76,3.23-4.1,4.86A1.18,1.18,0,0,1,66.67,99.6ZM409,94.46a1.16,1.16,0,0,1-.9-.41c-1.39-1.59-2.81-3.18-4.24-4.73a1.21,1.21,0,0,1,.07-1.69,1.19,1.19,0,0,1,1.69.07c1.44,1.57,2.88,3.18,4.28,4.79a1.19,1.19,0,0,1-.12,1.68A1.15,1.15,0,0,1,409,94.46ZM75,89.94a1.19,1.19,0,0,1-.88-2c1.44-1.57,2.92-3.14,4.41-4.67a1.19,1.19,0,1,1,1.71,1.66c-1.47,1.52-2.94,3.07-4.36,4.62A1.19,1.19,0,0,1,75,89.94Zm325.31-4.88a1.21,1.21,0,0,1-.86-.36c-1.47-1.51-3-3-4.5-4.49a1.2,1.2,0,0,1,1.67-1.71c1.53,1.48,3.06,3,4.55,4.54a1.18,1.18,0,0,1,0,1.68A1.16,1.16,0,0,1,400.35,85.06ZM83.94,80.77a1.17,1.17,0,0,1-.85-.36,1.2,1.2,0,0,1,0-1.69c1.53-1.48,3.1-3,4.67-4.41a1.18,1.18,0,0,1,1.68.07,1.19,1.19,0,0,1-.07,1.69c-1.55,1.42-3.1,2.89-4.61,4.36A1.2,1.2,0,0,1,83.94,80.77Zm307.24-4.61a1.19,1.19,0,0,1-.81-.31c-1.56-1.43-3.15-2.85-4.75-4.23a1.19,1.19,0,0,1-.12-1.68,1.2,1.2,0,0,1,1.69-.13c1.61,1.4,3.22,2.84,4.79,4.28a1.2,1.2,0,0,1,.08,1.69A1.22,1.22,0,0,1,391.18,76.16Zm-297.83-4a1.17,1.17,0,0,1-.9-.41A1.19,1.19,0,0,1,92.57,70c1.61-1.4,3.26-2.79,4.9-4.14A1.2,1.2,0,0,1,99,67.74c-1.63,1.33-3.26,2.71-4.86,4.09A1.16,1.16,0,0,1,93.35,72.13ZM381.51,67.8a1.22,1.22,0,0,1-.76-.27c-1.63-1.34-3.31-2.67-5-4a1.19,1.19,0,0,1,1.46-1.89c1.69,1.3,3.38,2.65,5,4a1.19,1.19,0,0,1-.76,2.12ZM103.23,64a1.21,1.21,0,0,1-1-.46,1.2,1.2,0,0,1,.22-1.68c1.68-1.3,3.41-2.6,5.13-3.85A1.19,1.19,0,1,1,109,60c-1.7,1.24-3.41,2.52-5.07,3.81A1.19,1.19,0,0,1,103.23,64Zm268.15-4a1.15,1.15,0,0,1-.7-.23c-1.71-1.24-3.46-2.47-5.2-3.66a1.2,1.2,0,0,1,1.35-2c1.76,1.21,3.52,2.45,5.25,3.71a1.19,1.19,0,0,1,.27,1.67A1.21,1.21,0,0,1,371.38,60ZM113.54,56.51a1.19,1.19,0,0,1-.67-2.18c1.75-1.2,3.55-2.4,5.34-3.55a1.19,1.19,0,0,1,1.29,2c-1.77,1.14-3.55,2.32-5.28,3.51A1.14,1.14,0,0,1,113.54,56.51Zm247.28-3.74a1.2,1.2,0,0,1-.65-.19c-1.77-1.14-3.59-2.27-5.4-3.36a1.2,1.2,0,0,1,1.23-2c1.84,1.1,3.67,2.25,5.47,3.4a1.19,1.19,0,0,1,.35,1.65A1.17,1.17,0,0,1,360.82,52.77ZM124.27,49.6a1.21,1.21,0,0,1-1-.58,1.19,1.19,0,0,1,.41-1.64c1.81-1.1,3.67-2.19,5.53-3.24a1.2,1.2,0,0,1,1.18,2.08c-1.84,1-3.68,2.12-5.48,3.21A1.22,1.22,0,0,1,124.27,49.6Zm225.59-3.44a1.26,1.26,0,0,1-.59-.15c-1.84-1-3.72-2.07-5.59-3a1.2,1.2,0,0,1,1.12-2.12c1.88,1,3.78,2,5.65,3.09a1.19,1.19,0,0,1-.59,2.23Zm-214.5-2.85a1.19,1.19,0,0,1-.56-2.25c1.88-1,3.8-2,5.7-2.92a1.19,1.19,0,1,1,1.06,2.14c-1.89.93-3.79,1.91-5.64,2.89A1.25,1.25,0,0,1,135.36,43.31Zm203.17-3.12a1.17,1.17,0,0,1-.52-.12c-1.9-.93-3.84-1.85-5.76-2.73a1.19,1.19,0,0,1,1-2.17c1.95.89,3.9,1.81,5.82,2.75a1.2,1.2,0,0,1-.53,2.27ZM146.79,37.66A1.19,1.19,0,0,1,145.7,37a1.21,1.21,0,0,1,.59-1.59c1.93-.88,3.9-1.75,5.86-2.58a1.19,1.19,0,0,1,1.57.63,1.21,1.21,0,0,1-.64,1.57c-1.93.82-3.88,1.68-5.79,2.56A1.31,1.31,0,0,1,146.79,37.66Zm180.09-2.78a1.1,1.1,0,0,1-.47-.1c-2-.82-3.93-1.62-5.91-2.39a1.2,1.2,0,0,1,.87-2.23c2,.78,4,1.59,6,2.42a1.2,1.2,0,0,1-.46,2.3ZM158.51,32.69a1.2,1.2,0,0,1-.43-2.31c2-.78,4-1.54,6-2.25a1.19,1.19,0,1,1,.81,2.24c-2,.72-4,1.47-6,2.23A1.15,1.15,0,0,1,158.51,32.69Zm156.42-2.45a1.09,1.09,0,0,1-.4-.07c-2-.71-4-1.4-6-2.05a1.19,1.19,0,0,1,.73-2.27c2,.66,4.09,1.35,6.11,2.07a1.2,1.2,0,0,1-.4,2.32ZM170.54,28.38a1.2,1.2,0,0,1-.37-2.33c2-.67,4.1-1.31,6.14-1.91a1.19,1.19,0,1,1,.67,2.29c-2,.6-4.06,1.23-6.07,1.89A1.15,1.15,0,0,1,170.54,28.38Zm132.21-2.07a1.33,1.33,0,0,1-.34,0c-2-.59-4.07-1.16-6.13-1.69a1.2,1.2,0,0,1,.61-2.32c2.07.54,4.16,1.12,6.19,1.71a1.2,1.2,0,0,1-.33,2.35ZM182.8,24.76a1.18,1.18,0,0,1-1.15-.89,1.2,1.2,0,0,1,.85-1.46c2.06-.54,4.16-1.06,6.23-1.54a1.19,1.19,0,1,1,.55,2.32c-2.06.48-4.13,1-6.17,1.54Zm107.58-1.68a1.24,1.24,0,0,1-.27,0c-2.06-.47-4.15-.92-6.21-1.33a1.2,1.2,0,0,1,.46-2.35c2.09.42,4.2.87,6.29,1.35a1.2,1.2,0,0,1-.27,2.36Zm-95.13-1.22A1.19,1.19,0,0,1,195,19.5c2.09-.43,4.22-.83,6.31-1.19a1.2,1.2,0,1,1,.41,2.36c-2.07.35-4.17.75-6.24,1.17A1,1,0,0,1,195.25,21.86Zm82.6-1.28-.2,0c-2.08-.36-4.2-.68-6.28-1a1.19,1.19,0,1,1,.33-2.36c2.11.29,4.24.63,6.35,1a1.2,1.2,0,0,1-.2,2.38Zm-70-.9a1.19,1.19,0,0,1-.17-2.37c2.11-.31,4.25-.59,6.37-.83a1.2,1.2,0,0,1,.27,2.38c-2.09.24-4.21.51-6.3.81Zm57.36-.89h-.14c-2.1-.23-4.23-.44-6.33-.61a1.2,1.2,0,0,1,.2-2.39c2.12.18,4.28.39,6.4.63a1.19,1.19,0,0,1-.13,2.38Zm-44.67-.57a1.19,1.19,0,0,1-.1-2.38c2.12-.18,4.28-.34,6.41-.46a1.19,1.19,0,0,1,.14,2.38c-2.11.13-4.25.28-6.34.46Zm31.93-.49h-.07c-2.1-.12-4.23-.2-6.35-.26a1.2,1.2,0,0,1-1.16-1.23,1.17,1.17,0,0,1,1.23-1.16c2.13.06,4.29.15,6.41.26a1.2,1.2,0,0,1-.06,2.39Zm-19.17-.24a1.2,1.2,0,0,1,0-2.39c2.13-.06,4.29-.1,6.42-.1h0a1.2,1.2,0,1,1,0,2.39c-2.11,0-4.25,0-6.36.1Z"/></svg>