<svg id="Layer_1" data-name="Layer 1" xmlns="http://www.w3.org/2000/svg" xmlns:xlink="http://www.w3.org/1999/xlink" viewBox="0 0 480 480"><defs><style>.cls-1{fill:none;}.cls-2{clip-path:url(#clip-path);}.cls-3{fill:#fce3c3;}.cls-4{fill:#323a40;}.cls-5{fill:#ffcfca;}.cls-6{fill:#f9bfbb;}.cls-7{fill:#1f3c49;}.cls-8{fill:#fff;}.cls-9{fill:#d55454;}.cls-10{fill:#f37c7c;}.cls-11{fill:#dd5050;}.cls-12{fill:#fccc6a;}.cls-13{fill:#f4b94e;}.cls-14{fill:#fbb03b;}</style><clipPath id="clip-path"><circle class="cls-1" cx="239.75" cy="240.35" r="209.9" transform="translate(-99.73 239.92) rotate(-45)"/></clipPath></defs><g class="cls-2"><circle class="cls-3" cx="239.75" cy="240.35" r="209.9" transform="translate(-99.73 239.92) rotate(-45)"/><path class="cls-4" d="M241.26,270.19c-6.41-.15-12.21,3.46-17.81,6.58s-12.1,5.94-18.24,4.1c-6.44-1.93-10.35-8.28-15.65-12.41-5.78-4.5-13.2-6.28-19.57-9.91a32,32,0,0,1-13.79-15,24.35,24.35,0,0,1,.24-20.07c.82-1.64,1.88-3.31,1.73-5.13a7.27,7.27,0,0,0-2.39-4.21c-3-3.14-6.79-5.73-8.85-9.59a18.43,18.43,0,0,1-1.79-9.89,28.5,28.5,0,0,1,43.31-22.42c7.86,4.8,17.76,3.57,25.67,8.29a124,124,0,0,1,34.38,30.49c4.26,5.5,8.1,11.46,10.18,18.1s2.31,14.06-.52,20.42a46.45,46.45,0,0,1-6,9.14C249.17,262.65,245.23,267.23,241.26,270.19Z"/><path class="cls-5" d="M277.63,317.47c3.06,10.89-21.14,26-28.36,24.55-11-2.24-26.33-13.94-34.86-21.76q-.53-9.69-1.08-19.37a238,238,0,0,0-2.16-24.15c-.39-2.45-.83-4.89-1.36-7.31-1.25-6-2.85-12-4.45-18-1.31-4.89-2.62-9.81-3.94-14.7,3.1,2.53,6,3.75,9.64,5.4,15.51,6.94,31.27,13.29,47.11,19.42,4.77,1.85,9.59,3.7,14.64,4.48l2.5,28.22Z"/><path class="cls-6" d="M275.31,294.28a173.56,173.56,0,0,1-50.3-16.5c-5-2.56-10.21-5.32-15.2-8.35-1.25-6-2.85-12-4.45-18-1.31-4.89-2.62-9.81-3.94-14.7,3.1,2.53,6,3.75,9.64,5.4,15.51,6.94,31.27,13.29,47.11,19.42,4.77,1.85,9.59,3.7,14.64,4.48Z"/><path class="cls-5" d="M305.2,246.32c-2.47,9.68-6.51,18.73-14.27,25.27a45.2,45.2,0,0,1-24.61,10.26,57.49,57.49,0,0,1-29-5.27,74.29,74.29,0,0,1-12.89-7.49,102.61,102.61,0,0,1-18.68-17.92A126.69,126.69,0,0,1,184.2,214c-5.52-15.33-7.35-31.76-3-47.82a61.33,61.33,0,0,1,8.39-18.4A57.46,57.46,0,0,1,263,129.05c13.24,6.85,24,18.42,30.77,31.63a135.89,135.89,0,0,1,5.79,13C308.4,196.61,311.27,222.48,305.2,246.32Z"/><path class="cls-5" d="M212.24,246.45a27.69,27.69,0,0,1-26.68,6,27.25,27.25,0,0,1-16.92-16.16,26.32,26.32,0,0,1-1.18-4.24,19.47,19.47,0,0,1,0-7.68,17,17,0,0,1,13-12.53,19.62,19.62,0,0,1,17.49,5.53l5.5,11.17Z"/><path class="cls-7" d="M252.37,210c-1.25.11-3.05-1.81-3.64-4.75a7.81,7.81,0,0,1,.26-4.29c.17-.41.63-1.37,1.39-1.53h.12c1.25-.11,3.05,1.81,3.63,4.75a7.82,7.82,0,0,1-.25,4.29c-.17.41-.63,1.37-1.39,1.53Z"/><path class="cls-7" d="M289.75,204.94c-1.06.1-2.9-1.6-3.49-4.59a7.51,7.51,0,0,1,.25-4.15c.33-.83.81-1.36,1.31-1.46h.11c1.05-.1,2.89,1.6,3.49,4.59a7.54,7.54,0,0,1-.25,4.16c-.33.82-.81,1.35-1.32,1.45Z"/><path class="cls-7" d="M271.17,212.46a4.63,4.63,0,0,1,4.16-1.41,5.52,5.52,0,0,1,4.26,7.46,4.65,4.65,0,0,1-3.34,2.86,6.29,6.29,0,0,0,1.67-3.36,5,5,0,0,0-3-5.28A6.2,6.2,0,0,0,271.17,212.46Z"/><path class="cls-7" d="M242,188a.89.89,0,0,1-.64-.29.87.87,0,0,1,.06-1.23,13.12,13.12,0,0,1,9.78-3.3.87.87,0,0,1-.15,1.73,11.31,11.31,0,0,0-8.46,2.86A.89.89,0,0,1,242,188Z"/><path class="cls-7" d="M279.59,181.85a.93.93,0,0,1-.48-.38.88.88,0,0,1,.29-1.2,12.17,12.17,0,0,1,9.28-1.34.89.89,0,0,1,.62,1.07.88.88,0,0,1-1.07.62,10.33,10.33,0,0,0-7.92,1.14A.88.88,0,0,1,279.59,181.85Z"/><path class="cls-8" d="M251.32,201.31a1.46,1.46,0,0,0-.48,2.87A1.46,1.46,0,0,0,251.32,201.31Z"/><path class="cls-8" d="M289.29,196.22a1.45,1.45,0,0,0-.49,2.86A1.45,1.45,0,0,0,289.29,196.22Z"/><path class="cls-9" d="M291.39,226.66a19.51,19.51,0,0,1-2.45,10.28,15.2,15.2,0,0,1-12.6,8.12c-5.46.19-10.37-2.82-13.34-7.54a19.56,19.56,0,0,1-3-9.76c0-.13,0-.26,0-.4l31.31-1.1C291.36,226.4,291.38,226.53,291.39,226.66Z"/><path class="cls-8" d="M290.09,226.3a20.12,20.12,0,0,1-28.77,1Z"/><path class="cls-10" d="M288.94,236.94a15.2,15.2,0,0,1-12.6,8.12c-5.46.19-10.37-2.82-13.34-7.54a56.7,56.7,0,0,1,25.94-.58Z"/><path class="cls-6" d="M254.53,222.69c.43,4.75-4.45,9.09-10.91,9.67s-12.05-2.8-12.48-7.55,4.45-9.09,10.91-9.68S254.1,217.93,254.53,222.69Z"/><path class="cls-6" d="M304.75,211.8c.29,3.22-3,6.14-7.37,6.54s-8.14-1.89-8.43-5.1,3-6.14,7.38-6.54S304.46,208.59,304.75,211.8Z"/><path class="cls-11" d="M187.54,317.84c10.31-2.95,21.64-8.51,25.75-9.62,15.55,22.27,49.32,25.63,64.24-2,15.3,2.88,35.44,6.61,53.22,11.13.16,22.85,12,49.37,14.82,71.72,4.46,35.89,10.46,61.13,16.78,96.78C369,523.29,369,554.71,375.92,604.5c4.75,34.06,7.5,73.72,10,125.78-65.68,27-145.91,25.51-267,2.37.67-58.35,19.78-186.51,26-244.71C158.33,431,169.68,373.57,187.54,317.84Z"/><path class="cls-4" d="M177.75,212.46c13.67-.06,26.26,15.67,30.47-24.22.67-6.27,1.62-12.5,2.73-18.7s3.71-12.63,8.92-15.81c12.13-7.37,26.8,7.3,40.65,5.05,6.31-1,12.9-9.15,19-7.15,2.78.92,7.52,4.66,9.55,6.84,6.34,6.77,9,16.28,13.75,24.36,1.37-8.75,5.37-21.32,1.56-29.23-2.22-4.59-5.57-9.84-7.87-14.39-6.61-13.08-5.41-22.11-16.49-31.29-6.19-5.12-21.09-10.27-28.58-7.67-3.72,1.29-7.15,3.55-11,4.19-5.24.88-10.44-1.29-15.47-3.07-7.47-2.63-15.46-4.47-23.23-3s-15.28,6.72-17.71,14.59c-1.83,5.94-.81,13-4.53,17.9-3.42,4.49-9.55,5.34-14.2,8.39-9.9,6.46-11.11,21.15-8.83,33.13C159.25,187.1,168.43,201,177.75,212.46Z"/><path class="cls-12" d="M276.77,303.7s-.4,19.64.2,33.94c1.5,35.74,8.06,51.27,9.41,87.05.54,14.31.35,28.62.08,42.93-.15,8.91-.33,17.82-.38,26.73,0,7.89,0,15.78.33,23.68,0,.67,0,1.34.07,2,.88,21.13,2.95,42.2,5.71,63.16.61,4.73,1.28,9.44,2,14.15.76,5.31,1.58,10.61,2.42,15.9.05.29.09.57.14.85q.11.75.24,1.53,2,12.78,4.17,25.88c8.57,52.79,17.77,108.7,23.5,160.52.36,3.28,72.83-24.41,97.87-46.59,2.73-2.43-15.93-73.59-25.88-112.87-1.72-6.81-3.18-12.67-4.23-17-.1-.41-.19-.81-.28-1.19,0-.06,0-.11,0-.17-.44-1.84-.78-3.37-1-4.53l-.17-.83c0-.19-.07-.37-.09-.53a191.72,191.72,0,0,0,24.3-4.59c14.75-4.33,28.9-12.37,36.2-29.28,3-7,4.9-15.63,5.11-26.13a203.73,203.73,0,0,0-1-23.54c-.06-.67-.13-1.35-.21-2C452.93,512.1,447.86,491,441,470.4c-23.55-70.28-68.32-134.2-93.73-149.89C317,301.84,276.77,303.7,276.77,303.7Z"/><path class="cls-12" d="M121.54,623.25c0,.2-.06.39-.09.58-1.26,8.62-2.73,18.82-4.28,29.83-7.49,53-17,124.58-15.3,126,11.42,9.16,61.93,28,110.11,29.93,1.51-.66,6.83-85.85,11.88-173.59.69-11.83,1.36-23.71,2-35.43,1.83-32.26,3.54-63.34,4.92-89.07.28-5,.53-9.77.78-14.33,1.65-30.72,2.69-50.88,2.64-51.14-8.13-43.42-20.88-140.91-20.88-140.91s-45.69,7.1-90.9,34.75C97,355.41,58.59,437.68,46.8,528.47q-.55,4.31-1,8.65-1.41,13-2,26.13C42.05,604.29,86.42,617.7,121.54,623.25Z"/><path class="cls-13" d="M142.25,389.11c.32,10.05,1.37,20.45,1.69,30.5q.19,6.18.4,12.34c.6,19,1.21,37.95,2.85,56.85l-13.71-.6C140.32,455.72,138.16,422.05,142.25,389.11Z"/><path class="cls-13" d="M348.38,393.53c.23,10.05-.25,20.5,0,30.55q.13,6.18.28,12.35c.42,19,.85,37.95.24,56.92L362.53,492C353.93,459.94,354.26,426.2,348.38,393.53Z"/><path class="cls-5" d="M327.91,531.35c-1.36.12-3.3-.18-4.49.47-1.66.9-3.24,3.14-4.61,4.46-3.83,3.71-7.75,7.32-11.55,11.05-1.05,1-2.08,2.09-3.11,3.14q-12.58-14.87-24.81-30c9.28-6.76,16.37-11.85,19.57-14,1.54-1,3.09-2.07,4.62-3.11A67.57,67.57,0,0,1,306,490.92c1.5-5,4.25-9,6.21-13.79,3.4-8.22,5.17-17.21,8-25.67.88-2.63,1.87-5.35,3.83-7.32.06-.07.14-.13.21-.2,2-1.82,5.06-2.71,7.37-1.34a6.84,6.84,0,0,1,2.91,5.24c.36,3.64-.51,7.56-1.3,11.07a36.34,36.34,0,0,0-1.31,7c-.07,3.55,2.22,1.35,3.91-.32a49.26,49.26,0,0,0,5-6c3-4.17,5.54-8.65,8.37-12.94l19.24-29.05c1.89-2.85,6.75-2.68,8.62.1,2.61,3.87-1.83,8.48-3.6,11.7q-4.45,8.1-8.85,16.24c-2.09,3.89-4.18,7.79-6.24,11.69-1.21,2.27-3.32,4.18-4.59,6.49-.47.86-1.94,3.15-1,4.14s2.65-.93,3.41-1.54c1.86-1.49,3.65-3.05,5.43-4.63,3.42-3.08,6.72-6.3,10-9.54,6.68-6.57,13.29-13.27,20.73-19a7.13,7.13,0,0,1,.94-.61,5.3,5.3,0,0,1,7.62.88c3.18,4.52-3.13,9.35-5.8,12.34-4.31,4.79-8.8,9.43-13.13,14.22q-4.83,5.37-9.69,10.73c-1.13,1.25-7.64,5.83-6.1,8,1.34,1.93,6.05-2.48,7.25-3.14q4.33-2.38,8.63-4.86,8.59-4.92,16.93-10.28a5.63,5.63,0,0,1,1.58-.7q2.31-1.59,4.6-3.24a5.08,5.08,0,0,1,7.66,2.86c1.27,4.67-4.39,7.13-7.43,9.27q-7.29,5.08-14.68,10-5.22,3.48-10.49,6.89c-1.87,1.21-10.48,5.85-6.66,8.73.74.56,2.62-.07,3.39-.26a57.46,57.46,0,0,0,7.15-2.56q9.54-3.51,19.18-6.76a5.17,5.17,0,0,1,6.62,5.72c-.92,5.4-10.49,6.46-14.64,7.81q-9.93,3.21-19.58,7.15a14.81,14.81,0,0,0-3.17,1.62,19.13,19.13,0,0,0-3.17,3.31c-9,10.69-22.74,17.75-36.41,20.24C331.27,531,329.59,531.2,327.91,531.35Z"/><path class="cls-5" d="M111.18,498.55c7.26-9,16.56-18.47,27.27-23.55,5.41-2.57,10.8-4.25,20.62-4.05,12.54.26,23.59,10.58,34.56,16.29-3.75,4.82-7.5,9.51-11.25,14.33s-7.7,9.67-13.58,11.63c-4.74,1.59-8.36-.92-13.23-2.14s-16-3.36-24.06-2.27C102.85,512.67,104.77,506.46,111.18,498.55Z"/></g><path class="cls-14" d="M239.89,465a1.2,1.2,0,0,0,0-2.39c-2.11,0-4.25,0-6.36-.09a1.2,1.2,0,0,0-.07,2.39C235.6,465,237.76,465,239.89,465Zm6.39-.09h0c2.13-.06,4.29-.15,6.42-.26a1.2,1.2,0,0,0-.14-2.39c-2.1.12-4.23.21-6.35.26a1.2,1.2,0,0,0,0,2.39Zm-19.16-.27a1.2,1.2,0,0,0,.07-2.39c-2.11-.12-4.24-.27-6.34-.45a1.19,1.19,0,1,0-.21,2.38c2.12.18,4.28.33,6.41.45ZM259,464.2h.1c2.13-.18,4.28-.39,6.39-.63a1.2,1.2,0,1,0-.26-2.38c-2.1.24-4.23.45-6.33.63a1.19,1.19,0,0,0,.1,2.38Zm-44.65-.65a1.19,1.19,0,0,0,.13-2.38c-2.09-.24-4.21-.51-6.3-.81a1.19,1.19,0,1,0-.34,2.36c2.11.31,4.26.58,6.37.82Zm57.35-.78.17,0c2.11-.29,4.24-.63,6.35-1a1.19,1.19,0,0,0-.41-2.35c-2.08.35-4.19.68-6.28,1a1.2,1.2,0,0,0,.17,2.38Zm-70-1a1.19,1.19,0,0,0,.2-2.37c-2.08-.36-4.18-.75-6.25-1.17a1.19,1.19,0,1,0-.47,2.34c2.09.43,4.21.82,6.31,1.18A.75.75,0,0,0,201.74,461.74Zm82.6-1.13.23,0c2.09-.42,4.2-.88,6.28-1.36a1.2,1.2,0,1,0-.54-2.33c-2.05.48-4.14.93-6.21,1.34a1.2,1.2,0,0,0,.24,2.37Zm-95.13-1.4a1.2,1.2,0,0,0,.27-2.36c-2.06-.47-4.13-1-6.17-1.52a1.19,1.19,0,1,0-.61,2.31c2.06.54,4.16,1.06,6.24,1.54Zm107.58-1.48a1,1,0,0,0,.3,0c2.08-.54,4.16-1.12,6.19-1.71a1.2,1.2,0,0,0-.67-2.3c-2,.59-4.07,1.16-6.12,1.7a1.19,1.19,0,0,0,.3,2.35ZM176.85,456a1.19,1.19,0,0,0,.33-2.34c-2-.6-4.06-1.23-6.07-1.88a1.19,1.19,0,0,0-.74,2.27c2,.66,4.1,1.3,6.14,1.9A1.33,1.33,0,0,0,176.85,456Zm132.2-1.83a1.5,1.5,0,0,0,.37-.05c2-.66,4.09-1.36,6.11-2.08a1.2,1.2,0,1,0-.81-2.25c-2,.71-4,1.4-6,2.05a1.19,1.19,0,0,0,.36,2.33ZM164.69,452a1.21,1.21,0,0,0,1.13-.8,1.19,1.19,0,0,0-.72-1.52c-2-.71-4-1.46-6-2.23a1.2,1.2,0,1,0-.87,2.23c2,.77,4,1.53,6,2.25A1.4,1.4,0,0,0,164.69,452Zm156.44-2.18a1.36,1.36,0,0,0,.44-.08c2-.78,4-1.59,6-2.42a1.2,1.2,0,0,0-.94-2.2c-1.94.82-3.93,1.63-5.9,2.39a1.2,1.2,0,0,0,.43,2.31Zm-168.32-2.46a1.2,1.2,0,0,0,1.1-.73,1.18,1.18,0,0,0-.64-1.56c-1.94-.83-3.89-1.69-5.8-2.56a1.19,1.19,0,0,0-1,2.17c1.93.89,3.9,1.75,5.86,2.59A1.27,1.27,0,0,0,152.81,447.38Zm180.13-2.53a1.09,1.09,0,0,0,.49-.11c1.95-.88,3.9-1.81,5.82-2.76a1.19,1.19,0,0,0-1.06-2.14c-1.89.93-3.83,1.85-5.75,2.73a1.19,1.19,0,0,0,.5,2.28Zm-191.72-2.77a1.2,1.2,0,0,0,.53-2.27c-1.88-.93-3.78-1.9-5.65-2.88A1.19,1.19,0,1,0,135,439c1.88,1,3.8,2,5.7,2.91A1.12,1.12,0,0,0,141.22,442.08Zm203.21-2.88a1.21,1.21,0,0,0,.55-.14c1.89-1,3.79-2,5.65-3.09a1.2,1.2,0,1,0-1.18-2.08c-1.84,1-3.72,2.07-5.58,3.06a1.18,1.18,0,0,0-.5,1.61A1.21,1.21,0,0,0,344.43,439.2ZM130,436.12a1.2,1.2,0,0,0,.59-2.24c-1.84-1-3.68-2.11-5.48-3.2a1.2,1.2,0,1,0-1.23,2.05c1.81,1.09,3.67,2.18,5.53,3.23A1.16,1.16,0,0,0,130,436.12Zm225.62-3.23a1.13,1.13,0,0,0,.61-.17c1.83-1.1,3.67-2.25,5.46-3.4a1.19,1.19,0,1,0-1.29-2c-1.78,1.14-3.59,2.27-5.4,3.37a1.19,1.19,0,0,0,.62,2.21ZM119,429.52a1.19,1.19,0,0,0,.65-2.2c-1.77-1.13-3.55-2.31-5.29-3.51a1.19,1.19,0,1,0-1.35,2c1.76,1.21,3.56,2.4,5.34,3.55A1.2,1.2,0,0,0,119,429.52ZM366.33,426a1.18,1.18,0,0,0,.67-.21c1.77-1.21,3.54-2.46,5.25-3.71a1.19,1.19,0,1,0-1.4-1.93c-1.7,1.23-3.45,2.47-5.2,3.67a1.2,1.2,0,0,0-.31,1.66A1.22,1.22,0,0,0,366.33,426ZM108.5,422.31a1.21,1.21,0,0,0,1-.49,1.19,1.19,0,0,0-.27-1.67c-1.71-1.24-3.42-2.52-5.08-3.81a1.2,1.2,0,0,0-1.46,1.9c1.68,1.29,3.41,2.58,5.14,3.84A1.15,1.15,0,0,0,108.5,422.31Zm268.17-3.87a1.19,1.19,0,0,0,.73-.25c1.69-1.3,3.38-2.65,5-4a1.19,1.19,0,0,0-1.51-1.85c-1.64,1.34-3.31,2.67-5,4a1.19,1.19,0,0,0,.73,2.14ZM98.39,414.51a1.22,1.22,0,0,0,.93-.43,1.2,1.2,0,0,0-.17-1.69c-1.64-1.34-3.27-2.71-4.86-4.09a1.19,1.19,0,0,0-1.56,1.81c1.6,1.39,3.25,2.78,4.91,4.13A1.19,1.19,0,0,0,98.39,414.51Zm288.17-4.17a1.24,1.24,0,0,0,.79-.29c1.61-1.4,3.22-2.84,4.79-4.28a1.2,1.2,0,1,0-1.62-1.76c-1.55,1.42-3.14,2.85-4.74,4.23a1.2,1.2,0,0,0,.78,2.1ZM88.74,406.15a1.2,1.2,0,0,0,.81-2.08c-1.56-1.43-3.12-2.89-4.62-4.36a1.2,1.2,0,0,0-1.67,1.72c1.53,1.48,3.1,3,4.67,4.4A1.16,1.16,0,0,0,88.74,406.15ZM396,401.69a1.2,1.2,0,0,0,.83-.33c1.54-1.5,3.07-3,4.54-4.55a1.19,1.19,0,1,0-1.71-1.66c-1.46,1.5-3,3-4.5,4.49a1.2,1.2,0,0,0,.84,2.05ZM79.57,397.25a1.25,1.25,0,0,0,.84-.34,1.2,1.2,0,0,0,0-1.69c-1.47-1.51-2.94-3.07-4.37-4.62a1.19,1.19,0,0,0-1.69-.07,1.21,1.21,0,0,0-.07,1.69c1.45,1.57,2.93,3.14,4.42,4.67A1.17,1.17,0,0,0,79.57,397.25Zm325.31-4.72a1.19,1.19,0,0,0,.88-.38c1.45-1.58,2.88-3.19,4.28-4.8a1.19,1.19,0,0,0-1.81-1.56c-1.38,1.59-2.8,3.18-4.23,4.74a1.21,1.21,0,0,0,.07,1.69A1.19,1.19,0,0,0,404.88,392.53Zm-334-4.69a1.2,1.2,0,0,0,.91-2c-1.39-1.6-2.77-3.24-4.1-4.86a1.19,1.19,0,1,0-1.85,1.51c1.34,1.64,2.74,3.3,4.14,4.91A1.18,1.18,0,0,0,70.92,387.84Zm342.33-5a1.22,1.22,0,0,0,.93-.43c1.36-1.66,2.7-3.35,4-5a1.19,1.19,0,0,0-1.89-1.46c-1.28,1.66-2.61,3.33-3.95,5a1.2,1.2,0,0,0,.92,1.95ZM62.82,378a1.17,1.17,0,0,0,.73-.25,1.21,1.21,0,0,0,.22-1.68c-1.29-1.66-2.57-3.37-3.82-5.09A1.2,1.2,0,0,0,58,372.34c1.26,1.74,2.56,3.47,3.86,5.14A1.16,1.16,0,0,0,62.82,378Zm358.24-5.17a1.19,1.19,0,0,0,1-.49c1.25-1.72,2.5-3.48,3.71-5.24a1.2,1.2,0,0,0-2-1.35c-1.19,1.74-2.42,3.48-3.66,5.18a1.2,1.2,0,0,0,.26,1.67A1.25,1.25,0,0,0,421.06,372.78ZM55.29,367.61a1.2,1.2,0,0,0,1-1.87c-1.19-1.74-2.37-3.52-3.52-5.3a1.19,1.19,0,1,0-2,1.29c1.16,1.8,2.36,3.6,3.56,5.36A1.19,1.19,0,0,0,55.29,367.61Zm373-5.36a1.2,1.2,0,0,0,1-.55c1.15-1.78,2.29-3.61,3.39-5.44a1.19,1.19,0,1,0-2-1.23c-1.09,1.8-2.22,3.61-3.36,5.38a1.19,1.19,0,0,0,1,1.84Zm-379.91-5.4a1.19,1.19,0,0,0,.62-.17,1.2,1.2,0,0,0,.4-1.64c-1.09-1.8-2.17-3.65-3.22-5.5a1.2,1.2,0,0,0-2.08,1.18c1.06,1.87,2.15,3.73,3.26,5.56A1.17,1.17,0,0,0,48.36,356.85Zm386.51-5.51a1.19,1.19,0,0,0,1-.61c1-1.85,2.09-3.74,3.08-5.62a1.19,1.19,0,1,0-2.11-1.12c-1,1.86-2,3.73-3.05,5.56a1.2,1.2,0,0,0,.45,1.63A1.16,1.16,0,0,0,434.87,351.34ZM42.05,345.71a1.14,1.14,0,0,0,.56-.14A1.19,1.19,0,0,0,43.1,344c-1-1.88-2-3.79-2.89-5.67a1.2,1.2,0,1,0-2.15,1c.94,1.91,1.93,3.84,2.93,5.74A1.21,1.21,0,0,0,42.05,345.71Zm398.79-5.64a1.2,1.2,0,0,0,1.07-.67c.94-1.9,1.86-3.85,2.75-5.78a1.19,1.19,0,1,0-2.17-1c-.88,1.91-1.8,3.84-2.72,5.72a1.19,1.19,0,0,0,.54,1.6A1.12,1.12,0,0,0,440.84,340.07ZM36.39,334.23a1.24,1.24,0,0,0,.49-.11,1.2,1.2,0,0,0,.59-1.59c-.88-1.93-1.75-3.89-2.57-5.83a1.18,1.18,0,0,0-1.56-.63,1.19,1.19,0,0,0-.64,1.56c.83,2,1.71,3.94,2.6,5.9A1.19,1.19,0,0,0,36.39,334.23Zm409.75-5.75a1.18,1.18,0,0,0,1.1-.73c.83-1.95,1.64-3.94,2.42-5.93a1.2,1.2,0,0,0-2.23-.86c-.76,2-1.57,3.93-2.39,5.86a1.21,1.21,0,0,0,.64,1.57A1.25,1.25,0,0,0,446.14,328.48ZM31.39,322.43a1.15,1.15,0,0,0,.44-.09,1.2,1.2,0,0,0,.68-1.54c-.78-2-1.53-4-2.23-6a1.2,1.2,0,0,0-1.53-.72,1.19,1.19,0,0,0-.72,1.53c.71,2,1.47,4,2.25,6A1.18,1.18,0,0,0,31.39,322.43Zm419.4-5.83a1.18,1.18,0,0,0,1.12-.79c.72-2,1.42-4.07,2.08-6.08a1.2,1.2,0,0,0-2.28-.74c-.64,2-1.34,4-2,6a1.2,1.2,0,0,0,.72,1.53A1.18,1.18,0,0,0,450.79,316.6ZM27.08,310.35a1.15,1.15,0,0,0,.37-.06,1.19,1.19,0,0,0,.77-1.5c-.65-2-1.28-4.05-1.88-6.08a1.19,1.19,0,1,0-2.29.68c.6,2,1.24,4.11,1.9,6.13A1.18,1.18,0,0,0,27.08,310.35Zm427.66-5.9a1.2,1.2,0,0,0,1.15-.86c.6-2,1.18-4.13,1.72-6.19a1.19,1.19,0,1,0-2.31-.61c-.53,2-1.11,4.1-1.7,6.13a1.19,1.19,0,0,0,.81,1.48A1.26,1.26,0,0,0,454.74,304.45ZM23.49,298.09a1.54,1.54,0,0,0,.3,0,1.21,1.21,0,0,0,.86-1.46c-.54-2-1-4.11-1.53-6.17a1.19,1.19,0,1,0-2.32.54c.48,2.08,1,4.18,1.53,6.23A1.2,1.2,0,0,0,23.49,298.09Zm434.5-6a1.2,1.2,0,0,0,1.17-.93c.48-2.07.94-4.19,1.36-6.27a1.19,1.19,0,1,0-2.34-.48c-.42,2.07-.87,4.16-1.35,6.21a1.2,1.2,0,0,0,.89,1.44ZM20.6,285.64l.24,0a1.19,1.19,0,0,0,.94-1.4c-.42-2.09-.81-4.2-1.17-6.25a1.19,1.19,0,1,0-2.35.4c.36,2.08.75,4.21,1.17,6.32A1.21,1.21,0,0,0,20.6,285.64Zm439.93-6.08a1.2,1.2,0,0,0,1.18-1c.36-2.11.7-4.25,1-6.34a1.2,1.2,0,1,0-2.37-.34c-.29,2.07-.63,4.18-1,6.28a1.2,1.2,0,0,0,1,1.38ZM18.44,273h.17a1.2,1.2,0,0,0,1-1.35c-.3-2.1-.57-4.23-.81-6.31a1.19,1.19,0,1,0-2.37.27c.23,2.11.51,4.25.81,6.37A1.19,1.19,0,0,0,18.44,273Zm443.91-6.13a1.2,1.2,0,0,0,1.18-1.05c.24-2.13.46-4.29.64-6.4a1.19,1.19,0,0,0-2.38-.2c-.18,2.09-.39,4.22-.63,6.32a1.19,1.19,0,0,0,1,1.33ZM17,260.34h.1a1.2,1.2,0,0,0,1.09-1.29c-.18-2.12-.33-4.25-.44-6.34a1.22,1.22,0,0,0-1.26-1.13,1.2,1.2,0,0,0-1.13,1.26c.12,2.12.27,4.27.45,6.41A1.2,1.2,0,0,0,17,260.34Zm446.44-6.16a1.19,1.19,0,0,0,1.19-1.13c.12-2.13.21-4.29.27-6.41a1.19,1.19,0,1,0-2.38-.07c-.06,2.1-.16,4.24-.28,6.35a1.2,1.2,0,0,0,1.13,1.26Zm-447.16-6.6h0a1.18,1.18,0,0,0,1.16-1.22c-.06-2.12-.09-4.26-.09-6.36v-.42a1.2,1.2,0,1,0-2.39,0V240c0,2.12,0,4.28.09,6.42A1.19,1.19,0,0,0,16.28,247.58Zm447.53-6.17a1.2,1.2,0,0,0,1.19-1.2V240c0-2.07,0-4.16-.08-6.21a1.21,1.21,0,0,0-1.23-1.16,1.19,1.19,0,0,0-1.16,1.22c.05,2,.08,4.1.08,6.15v.21A1.2,1.2,0,0,0,463.81,241.41Zm-447.51-7a1.19,1.19,0,0,0,1.19-1.15c.06-2.1.16-4.24.28-6.36a1.19,1.19,0,0,0-1.12-1.26,1.22,1.22,0,0,0-1.27,1.13c-.12,2.14-.22,4.29-.28,6.41a1.2,1.2,0,0,0,1.16,1.23Zm447.16-5.75h.06a1.2,1.2,0,0,0,1.13-1.26c-.12-2.12-.27-4.28-.44-6.41a1.2,1.2,0,0,0-1.29-1.09,1.19,1.19,0,0,0-1.09,1.29c.17,2.11.32,4.24.44,6.34A1.19,1.19,0,0,0,463.46,228.63ZM17,221.63a1.2,1.2,0,0,0,1.19-1.1c.18-2.1.4-4.23.64-6.32a1.2,1.2,0,0,0-2.38-.27c-.24,2.11-.46,4.26-.64,6.39a1.2,1.2,0,0,0,1.09,1.29Zm445.35-5.73h.14a1.2,1.2,0,0,0,1.05-1.32c-.24-2.12-.51-4.26-.81-6.37a1.2,1.2,0,1,0-2.37.33c.3,2.09.57,4.21.81,6.31A1.18,1.18,0,0,0,462.39,215.9Zm-443.89-7a1.2,1.2,0,0,0,1.19-1c.3-2.1.63-4.21,1-6.28a1.19,1.19,0,0,0-2.35-.41c-.36,2.1-.7,4.23-1,6.35a1.2,1.2,0,0,0,1,1.35Zm442.1-5.69h.2a1.2,1.2,0,0,0,1-1.38c-.36-2.09-.75-4.22-1.17-6.32a1.21,1.21,0,0,0-1.41-.94,1.2,1.2,0,0,0-.94,1.41c.42,2.08.81,4.18,1.16,6.25A1.2,1.2,0,0,0,460.6,203.24Zm-439.91-6.9a1.19,1.19,0,0,0,1.17-1c.42-2,.88-4.14,1.36-6.21a1.2,1.2,0,0,0-2.33-.54c-.49,2.09-.95,4.2-1.37,6.28a1.2,1.2,0,0,0,.93,1.41Zm437.4-5.63.27,0a1.19,1.19,0,0,0,.89-1.43c-.47-2.07-1-4.16-1.53-6.24a1.19,1.19,0,0,0-2.31.6c.53,2.06,1,4.13,1.51,6.18A1.2,1.2,0,0,0,458.09,190.71ZM23.6,183.9a1.19,1.19,0,0,0,1.15-.89c.54-2,1.12-4.11,1.71-6.12a1.19,1.19,0,1,0-2.29-.68c-.6,2-1.18,4.12-1.73,6.19a1.2,1.2,0,0,0,.85,1.46A1.65,1.65,0,0,0,23.6,183.9Zm431.26-5.55a1.4,1.4,0,0,0,.34,0,1.2,1.2,0,0,0,.81-1.48c-.6-2-1.23-4.1-1.89-6.14a1.2,1.2,0,0,0-2.28.73c.66,2,1.29,4.06,1.87,6.08A1.21,1.21,0,0,0,454.86,178.35ZM27.21,171.64a1.19,1.19,0,0,0,1.14-.83c.65-2,1.35-4,2.06-6a1.2,1.2,0,1,0-2.25-.81c-.72,2-1.42,4.06-2.08,6.08a1.2,1.2,0,0,0,.76,1.51A1.24,1.24,0,0,0,27.21,171.64Zm423.71-5.47a1.12,1.12,0,0,0,.4-.07,1.2,1.2,0,0,0,.73-1.53c-.72-2-1.48-4-2.25-6a1.2,1.2,0,0,0-2.23.87c.77,2,1.52,4,2.22,6A1.22,1.22,0,0,0,450.92,166.17ZM31.53,159.61a1.19,1.19,0,0,0,1.11-.76c.76-1.94,1.57-3.92,2.4-5.86a1.21,1.21,0,0,0-.63-1.57,1.19,1.19,0,0,0-1.57.63c-.84,2-1.65,4-2.42,5.93a1.2,1.2,0,0,0,.68,1.55A1.31,1.31,0,0,0,31.53,159.61Zm414.75-5.39a1.25,1.25,0,0,0,.46-.09,1.2,1.2,0,0,0,.64-1.57c-.83-2-1.71-3.95-2.59-5.89a1.19,1.19,0,1,0-2.17,1c.87,1.92,1.73,3.88,2.56,5.83A1.18,1.18,0,0,0,446.28,154.22ZM36.51,147.89a1.19,1.19,0,0,0,1.09-.7c.87-1.9,1.79-3.82,2.73-5.72a1.19,1.19,0,1,0-2.14-1.06c-.95,1.92-1.88,3.86-2.76,5.78a1.2,1.2,0,0,0,.59,1.59A1.24,1.24,0,0,0,36.51,147.89ZM441,142.57a1.24,1.24,0,0,0,.53-.12,1.2,1.2,0,0,0,.54-1.6c-.94-1.93-1.93-3.86-2.92-5.74a1.2,1.2,0,1,0-2.12,1.12c1,1.86,2,3.77,2.9,5.67A1.19,1.19,0,0,0,441,142.57Zm-398.8-6.11a1.21,1.21,0,0,0,1.06-.63c1-1.87,2-3.74,3.05-5.56a1.2,1.2,0,0,0-2.08-1.18c-1,1.84-2.09,3.74-3.08,5.62a1.19,1.19,0,0,0,.49,1.61A1.14,1.14,0,0,0,42.16,136.46ZM435,131.25a1.16,1.16,0,0,0,.59-.16,1.19,1.19,0,0,0,.45-1.63c-1-1.85-2.14-3.72-3.25-5.55a1.19,1.19,0,1,0-2,1.23c1.09,1.81,2.17,3.66,3.21,5.5A1.19,1.19,0,0,0,435,131.25ZM48.46,125.37a1.19,1.19,0,0,0,1-.58c1.09-1.8,2.23-3.61,3.37-5.38a1.19,1.19,0,0,0-2-1.29c-1.15,1.78-2.3,3.61-3.4,5.44a1.18,1.18,0,0,0,.4,1.64A1.26,1.26,0,0,0,48.46,125.37Zm379.91-5.08a1.16,1.16,0,0,0,.64-.19,1.19,1.19,0,0,0,.36-1.65c-1.16-1.8-2.35-3.61-3.55-5.36a1.2,1.2,0,0,0-2,1.35c1.19,1.73,2.38,3.52,3.52,5.3A1.22,1.22,0,0,0,428.37,120.29Zm-373-5.64a1.18,1.18,0,0,0,1-.52c1.19-1.73,2.43-3.47,3.67-5.18a1.2,1.2,0,1,0-1.93-1.41c-1.26,1.73-2.51,3.49-3.71,5.24a1.2,1.2,0,0,0,1,1.87Zm365.76-4.92a1.18,1.18,0,0,0,.71-.23,1.2,1.2,0,0,0,.26-1.67c-1.26-1.73-2.55-3.46-3.85-5.14a1.2,1.2,0,0,0-1.9,1.46c1.29,1.66,2.57,3.38,3.82,5.09A1.18,1.18,0,0,0,421.14,109.73ZM62.9,104.34a1.19,1.19,0,0,0,1-.47c1.28-1.65,2.61-3.32,4-5A1.2,1.2,0,0,0,66,97.39c-1.36,1.66-2.71,3.35-4,5a1.19,1.19,0,0,0,.94,1.93ZM413.33,99.6a1.14,1.14,0,0,0,.76-.27,1.2,1.2,0,0,0,.17-1.68c-1.35-1.64-2.74-3.3-4.14-4.91a1.19,1.19,0,1,0-1.81,1.56c1.39,1.6,2.77,3.24,4.1,4.87A1.2,1.2,0,0,0,413.33,99.6ZM71,94.46a1.16,1.16,0,0,0,.9-.41c1.39-1.59,2.81-3.18,4.24-4.73a1.21,1.21,0,0,0-.07-1.69,1.19,1.19,0,0,0-1.69.07c-1.44,1.57-2.88,3.18-4.28,4.79a1.19,1.19,0,0,0,.12,1.68A1.15,1.15,0,0,0,71,94.46Zm334-4.52a1.19,1.19,0,0,0,.88-2c-1.44-1.57-2.92-3.14-4.41-4.67a1.19,1.19,0,1,0-1.71,1.66c1.47,1.52,2.94,3.07,4.36,4.62A1.19,1.19,0,0,0,405,89.94ZM79.65,85.06a1.21,1.21,0,0,0,.86-.36c1.48-1.52,3-3,4.5-4.49a1.2,1.2,0,1,0-1.67-1.71c-1.52,1.47-3,3-4.54,4.53a1.19,1.19,0,0,0,0,1.69A1.16,1.16,0,0,0,79.65,85.06Zm316.41-4.29a1.17,1.17,0,0,0,.85-.36,1.2,1.2,0,0,0,0-1.69c-1.52-1.47-3.09-3-4.66-4.41a1.2,1.2,0,0,0-1.62,1.76c1.56,1.44,3.11,2.9,4.61,4.36A1.2,1.2,0,0,0,396.06,80.77ZM88.82,76.16a1.19,1.19,0,0,0,.81-.31c1.55-1.42,3.15-2.84,4.75-4.23a1.19,1.19,0,0,0-1.56-1.81c-1.62,1.41-3.24,2.84-4.8,4.28a1.2,1.2,0,0,0-.08,1.69A1.22,1.22,0,0,0,88.82,76.16Zm297.83-4a1.2,1.2,0,0,0,.78-2.1c-1.61-1.4-3.26-2.79-4.9-4.14A1.2,1.2,0,0,0,381,67.74c1.63,1.33,3.26,2.71,4.86,4.1A1.2,1.2,0,0,0,386.65,72.13ZM98.49,67.8a1.22,1.22,0,0,0,.76-.27c1.63-1.33,3.3-2.66,5-4a1.19,1.19,0,0,0-1.46-1.89c-1.69,1.31-3.39,2.65-5,4a1.19,1.19,0,0,0-.16,1.68A1.16,1.16,0,0,0,98.49,67.8ZM376.77,64a1.2,1.2,0,0,0,.74-2.14c-1.68-1.3-3.41-2.59-5.14-3.85A1.19,1.19,0,1,0,371,60c1.7,1.25,3.41,2.53,5.07,3.81A1.19,1.19,0,0,0,376.77,64ZM108.62,60a1.15,1.15,0,0,0,.7-.23c1.71-1.24,3.46-2.47,5.2-3.66a1.2,1.2,0,0,0-1.35-2c-1.76,1.21-3.53,2.46-5.25,3.71a1.19,1.19,0,0,0,.7,2.16Zm257.84-3.47a1.2,1.2,0,0,0,1-.52,1.18,1.18,0,0,0-.31-1.66c-1.75-1.21-3.55-2.4-5.34-3.56a1.19,1.19,0,1,0-1.29,2c1.77,1.14,3.55,2.33,5.28,3.52A1.21,1.21,0,0,0,366.46,56.52ZM119.18,52.77a1.2,1.2,0,0,0,.65-.19c1.77-1.14,3.59-2.27,5.4-3.36a1.2,1.2,0,1,0-1.23-2c-1.83,1.1-3.67,2.25-5.46,3.4a1.19,1.19,0,0,0-.36,1.65A1.17,1.17,0,0,0,119.18,52.77ZM355.73,49.6a1.21,1.21,0,0,0,1-.58,1.19,1.19,0,0,0-.41-1.64c-1.81-1.1-3.68-2.19-5.53-3.24a1.2,1.2,0,1,0-1.18,2.08c1.84,1,3.68,2.12,5.48,3.21A1.22,1.22,0,0,0,355.73,49.6ZM130.14,46.16a1.23,1.23,0,0,0,.59-.15c1.83-1,3.71-2.06,5.59-3a1.2,1.2,0,0,0-1.12-2.12c-1.89,1-3.79,2-5.64,3.09a1.2,1.2,0,0,0-.46,1.63A1.21,1.21,0,0,0,130.14,46.16Zm214.5-2.85a1.2,1.2,0,0,0,1.06-.64,1.18,1.18,0,0,0-.5-1.61c-1.87-1-3.79-2-5.7-2.92a1.19,1.19,0,1,0-1.06,2.14c1.89.93,3.79,1.91,5.64,2.89A1.25,1.25,0,0,0,344.64,43.31ZM141.47,40.19a1.17,1.17,0,0,0,.52-.12c1.9-.93,3.83-1.85,5.76-2.73a1.19,1.19,0,1,0-1-2.17c-1.95.89-3.91,1.81-5.82,2.75a1.2,1.2,0,0,0,.53,2.27Zm191.74-2.52a1.2,1.2,0,0,0,.5-2.29c-1.93-.88-3.9-1.75-5.86-2.58a1.19,1.19,0,0,0-.93,2.2c1.94.82,3.89,1.68,5.8,2.56A1.24,1.24,0,0,0,333.21,37.67ZM153.13,34.88a1.09,1.09,0,0,0,.46-.1c1.95-.82,3.93-1.62,5.91-2.39a1.2,1.2,0,0,0-.87-2.23c-2,.78-4,1.59-6,2.42a1.21,1.21,0,0,0-.64,1.57A1.22,1.22,0,0,0,153.13,34.88Zm168.36-2.19a1.2,1.2,0,0,0,.43-2.31c-2-.78-4-1.54-6-2.25a1.19,1.19,0,0,0-1.53.72,1.2,1.2,0,0,0,.72,1.53c2,.71,4,1.46,5.95,2.23A1.36,1.36,0,0,0,321.49,32.69ZM165.07,30.24a1.09,1.09,0,0,0,.4-.07c2-.71,4-1.39,6-2.05a1.19,1.19,0,0,0-.73-2.27c-2,.66-4.1,1.35-6.11,2.07a1.2,1.2,0,0,0,.4,2.32Zm144.39-1.86a1.2,1.2,0,0,0,.37-2.33c-2-.67-4.1-1.31-6.14-1.91a1.2,1.2,0,0,0-1.48.81,1.18,1.18,0,0,0,.81,1.48c2,.6,4.06,1.23,6.07,1.89A1.15,1.15,0,0,0,309.46,28.38ZM177.25,26.31a1.27,1.27,0,0,0,.34,0c2-.59,4.08-1.16,6.13-1.69a1.2,1.2,0,0,0-.61-2.32c-2.07.54-4.15,1.12-6.19,1.71a1.2,1.2,0,0,0,.33,2.35Zm120-1.54a1.2,1.2,0,0,0,.3-2.36c-2.06-.54-4.16-1.06-6.23-1.54a1.19,1.19,0,1,0-.55,2.32c2.06.48,4.13,1,6.17,1.54A1.76,1.76,0,0,0,297.2,24.77ZM189.62,23.08a1.24,1.24,0,0,0,.27,0c2.06-.47,4.15-.92,6.21-1.33a1.2,1.2,0,0,0-.47-2.35c-2.08.42-4.19.87-6.28,1.35a1.2,1.2,0,0,0,.27,2.36Zm95.13-1.21A1.2,1.2,0,0,0,285,19.5c-2.09-.42-4.21-.82-6.31-1.19a1.2,1.2,0,0,0-.41,2.36c2.08.36,4.18.75,6.25,1.17A.91.91,0,0,0,284.75,21.87Zm-82.6-1.29.2,0c2.09-.36,4.2-.68,6.28-1a1.19,1.19,0,1,0-.33-2.36c-2.11.29-4.24.63-6.35,1a1.2,1.2,0,0,0,.2,2.38Zm70-.9a1.19,1.19,0,0,0,.17-2.37c-2.11-.31-4.25-.58-6.37-.83a1.2,1.2,0,0,0-.27,2.38c2.09.24,4.21.51,6.3.81Zm-57.35-.89h.13c2.1-.23,4.23-.44,6.33-.61a1.19,1.19,0,1,0-.2-2.38c-2.12.17-4.28.38-6.39.62a1.19,1.19,0,0,0,.13,2.38Zm44.66-.57a1.19,1.19,0,0,0,.1-2.38c-2.12-.18-4.27-.34-6.41-.46a1.19,1.19,0,1,0-.14,2.38c2.12.13,4.25.28,6.34.46Zm-31.93-.49h.07c2.1-.12,4.23-.2,6.35-.26a1.2,1.2,0,1,0-.07-2.39c-2.13.06-4.29.15-6.41.26a1.2,1.2,0,0,0,.06,2.39Zm19.17-.24a1.2,1.2,0,0,0,0-2.39c-2.13-.06-4.29-.1-6.42-.1a1.22,1.22,0,0,0-1.2,1.19,1.2,1.2,0,0,0,1.2,1.2c2.1,0,4.24,0,6.35.1Z"/></svg>