<svg xmlns="http://www.w3.org/2000/svg" viewBox="0 0 500 500"><defs><style>.cls-1{fill:#ebebeb;}.cls-2,.cls-6{fill:none;stroke-miterlimit:10;}.cls-2{stroke:#dbdbdb;}.cls-3{fill:#dbdbdb;}.cls-4{fill:#c7c7c7;}.cls-15,.cls-5{fill:#fff;}.cls-6{stroke:#ebebeb;}.cls-7{fill:#263238;}.cls-8{fill:#455a64;}.cls-9{fill:#ffc727;}.cls-10{fill:#a6a6a6;}.cls-11{fill:#d3766a;}.cls-12{opacity:0.1;}.cls-13{fill:#37474f;}.cls-14{fill:#ff9bbc;}.cls-15{font-size:10px;}.cls-15,.cls-16{font-family:K2D-Regular, K2D;}.cls-16{font-size:6.03px;fill:#555;}</style></defs><g id="Background_Complete" data-name="Background Complete"><polygon class="cls-1" points="323.69 380.08 451.79 380.08 455.91 298.79 319.56 298.79 323.69 380.08"/><polygon class="cls-2" points="328.56 308.28 443.68 308.28 441.93 335.5 330.05 335.5 328.56 308.28"/><polygon class="cls-2" points="332.08 343.5 333.3 367.97 440.4 367.97 441.93 343.5 332.08 343.5"/><polygon class="cls-2" points="398.53 324.45 375.49 324.45 374.74 318.65 399.28 318.65 398.53 324.45"/><polygon class="cls-2" points="398.53 358.63 375.49 358.63 374.74 352.83 399.28 352.83 398.53 358.63"/><polygon class="cls-1" points="341.45 380.08 340.21 388.94 337.7 406.73 332.81 406.73 332.81 380.08 341.45 380.08"/><polygon class="cls-3" points="341.45 380.08 340.21 388.94 332.81 388.94 332.81 380.08 341.45 380.08"/><polygon class="cls-1" points="434.03 380.08 435.27 388.94 437.77 406.73 442.67 406.73 442.67 380.08 434.03 380.08"/><polygon class="cls-3" points="434.03 380.08 435.27 388.94 442.67 388.94 442.67 380.08 434.03 380.08"/><path class="cls-1" d="M82.59,327.06l-13.12.27-6.66.12c-2.23,0-4.47,0-6.7.05h-.44v-.44l-.06-11.19v-.51h.5l13.24.06c4.42,0,8.83.11,13.24.16h.28v.27c0,1.89-.09,3.78-.13,5.65Zm0,0-.14-5.66c0-1.86-.11-3.7-.13-5.53l.27.27c-4.41.05-8.82.16-13.24.16l-13.24.06.5-.49,0,11.19-.45-.45c2.18,0,4.36,0,6.55.05l6.58.12Z"/><path class="cls-1" d="M67.82,341.17l-13.12.27-6.66.12c-2.23,0-4.47,0-6.7.05H40.9v-.44L40.84,330v-.51h.5l13.24.06c4.41,0,8.83.11,13.24.16h.28V330c0,1.89-.08,3.78-.13,5.65Zm0,0-.14-5.66c-.05-1.86-.11-3.7-.13-5.53l.27.27c-4.41.05-8.83.16-13.24.16l-13.24.06.5-.49-.05,11.19-.45-.45c2.18,0,4.36,0,6.55,0l6.58.12Z"/><path class="cls-1" d="M406.5,202.49l-13.12.28-6.66.11c-2.23.05-4.47,0-6.7.06h-.44v-.45l-.06-11.19v-.5h.5l13.24.07c4.42,0,8.83.11,13.24.16h.28v.27c0,1.9-.09,3.79-.14,5.66Zm0,0-.14-5.65c0-1.86-.11-3.71-.13-5.54l.27.28c-4.41,0-8.82.15-13.24.16L380,191.8l.5-.5,0,11.19-.45-.44c2.18,0,4.36,0,6.55,0l6.58.11Z"/><path class="cls-1" d="M391.73,216.6l-13.12.28L372,217c-2.23,0-4.47,0-6.7.06h-.44v-.45l-.05-11.19v-.5h.5l13.24.07c4.41,0,8.83.11,13.24.16H392v.27c0,1.9-.08,3.79-.13,5.66Zm0,0-.14-5.65c0-1.86-.11-3.71-.13-5.54l.27.28c-4.41.05-8.83.15-13.24.16l-13.24.06.5-.5-.05,11.19-.45-.44c2.18,0,4.36,0,6.55.05l6.58.11Z"/><path class="cls-1" d="M377,202.49l-13.13.28-6.66.11c-2.22.05-4.46,0-6.69.06h-.45v-.45l0-11.19v-.5h.51l13.24.07c4.41,0,8.82.11,13.24.16h.27v.27c0,1.9-.09,3.79-.13,5.66Zm0,0-.14-5.65c-.05-1.86-.12-3.71-.14-5.54l.28.28c-4.42,0-8.83.15-13.24.16l-13.24.06.5-.5L351,202.49l-.44-.44c2.18,0,4.35,0,6.54,0l6.58.11Z"/><path class="cls-1" d="M458.66,341.17l-13.13.27-6.66.12c-2.22,0-4.46,0-6.69.05h-.45v-.44L431.68,330v-.51h.5l13.24.06c4.41,0,8.83.11,13.24.16h.27V330c0,1.89-.08,3.78-.13,5.65Zm0,0-.14-5.66c0-1.86-.12-3.7-.13-5.53l.27.27c-4.41.05-8.83.16-13.24.16l-13.24.06.5-.49-.06,11.19-.44-.45c2.18,0,4.36,0,6.54,0l6.58.12Z"/><path class="cls-1" d="M443.89,67.49l-13.13.27-6.66.12c-2.22,0-4.46,0-6.69.05H417v-.45l0-11.19v-.51h.51l13.24.06c4.41,0,8.82.11,13.24.16h.27v.27c0,1.9-.09,3.78-.13,5.65Zm0,0-.14-5.66c-.05-1.86-.12-3.7-.14-5.53l.28.27c-4.42,0-8.83.16-13.24.16l-13.24.07.5-.5-.06,11.19-.44-.45c2.18,0,4.35,0,6.54.06l6.58.11Z"/><path class="cls-1" d="M458.66,81.6l-13.13.27-6.66.12c-2.22,0-4.46,0-6.69.05h-.45V81.6l-.05-11.19V69.9h.5l13.24.06c4.41,0,8.83.11,13.24.16h.27v.27c0,1.9-.08,3.78-.13,5.65Zm0,0-.14-5.66c0-1.86-.12-3.7-.13-5.53l.27.27c-4.41,0-8.83.16-13.24.16l-13.24.07.5-.5-.06,11.19-.44-.45c2.18,0,4.36,0,6.54.06l6.58.11Z"/><path class="cls-1" d="M82.59,67.49l-13.12.27-6.66.12c-2.23,0-4.47,0-6.7.05h-.44v-.45L55.61,56.3v-.51h.5l13.24.06c4.42,0,8.83.11,13.24.16h.28v.27c0,1.9-.09,3.78-.13,5.65Zm0,0-.14-5.66c0-1.86-.11-3.7-.13-5.53l.27.27c-4.41,0-8.82.16-13.24.16l-13.24.07.5-.5,0,11.19L56.11,67c2.18,0,4.36,0,6.55.06l6.58.11Z"/><rect class="cls-1" x="66.96" width="1.2" height="114.24"/><rect class="cls-3" x="64.22" y="108.88" width="6.68" height="4.52"/><rect class="cls-4" x="64.22" y="110.38" width="6.68" height="3.01"/><path class="cls-1" d="M62.41,143.29a5.15,5.15,0,1,0,5.14-5.14A5.15,5.15,0,0,0,62.41,143.29Z"/><polygon class="cls-3" points="50.81 143.29 84.29 143.29 78.23 132.55 73.28 112.6 61.82 112.6 56.88 132.55 50.81 143.29"/><rect class="cls-1" x="106.31" width="1.2" height="93.67"/><rect class="cls-3" x="103.57" y="88.31" width="6.68" height="4.52"/><rect class="cls-4" x="103.57" y="89.82" width="6.68" height="3.01"/><path class="cls-1" d="M101.76,122.73a5.15,5.15,0,1,0,5.14-5.15A5.14,5.14,0,0,0,101.76,122.73Z"/><polygon class="cls-3" points="90.17 122.73 123.64 122.73 117.58 111.98 112.64 92.03 101.17 92.03 96.23 111.98 90.17 122.73"/><rect class="cls-1" x="143.12" width="1.2" height="72.63"/><rect class="cls-3" x="140.38" y="67.28" width="6.68" height="4.52"/><rect class="cls-4" x="140.38" y="68.78" width="6.68" height="3.01"/><path class="cls-1" d="M138.58,101.69a5.14,5.14,0,1,0,5.14-5.14A5.14,5.14,0,0,0,138.58,101.69Z"/><polygon class="cls-3" points="126.98 101.69 160.46 101.69 154.39 90.94 149.45 70.99 137.99 70.99 133.04 90.94 126.98 101.69"/><rect class="cls-1" x="385.57" y="65.49" width="47.54" height="57.67"/><rect class="cls-5" x="391" y="70.76" width="36.68" height="47.14"/><rect class="cls-4" x="391" y="70.76" width="1.43" height="47.14"/><rect class="cls-4" x="433.11" y="65.49" width="1.43" height="57.67"/><rect class="cls-1" x="410.16" y="81.66" width="8.65" height="25.77" transform="translate(828.97 189.08) rotate(180)"/><rect class="cls-6" x="399.52" y="77.26" width="23.06" height="12.62" transform="translate(822.1 167.13) rotate(180)"/><rect class="cls-1" x="385.57" y="207.61" width="47.54" height="57.67"/><rect class="cls-5" x="391" y="212.87" width="36.68" height="47.14"/><rect class="cls-4" x="391" y="212.87" width="1.43" height="47.14"/><rect class="cls-4" x="433.11" y="207.61" width="1.43" height="57.67"/><rect class="cls-1" x="403.3" y="223.77" width="8.65" height="25.77"/><rect class="cls-6" x="399.52" y="219.37" width="23.06" height="12.62"/><rect class="cls-1" x="385.57" y="136.81" width="47.54" height="57.67"/><rect class="cls-5" x="391" y="142.07" width="36.68" height="47.14"/><rect class="cls-4" x="391" y="142.07" width="1.43" height="47.14"/><rect class="cls-4" x="433.11" y="136.81" width="1.43" height="57.67"/><rect class="cls-1" x="405.79" y="154.26" width="7.41" height="18.73"/><rect class="cls-2" x="401.1" y="165.65" width="19.9" height="12.91"/></g><g id="Shadow"><path class="cls-1" d="M448.31,449c0,11.28-88.78,20.42-198.31,20.42S51.69,460.31,51.69,449,140.47,428.61,250,428.61,448.31,437.75,448.31,449Z"/></g><g id="Floor"><polygon class="cls-7" points="41.49 406.44 93.62 406.2 145.75 406.11 250 405.95 354.25 406.11 406.38 406.2 458.51 406.44 406.38 406.69 354.25 406.78 250 406.94 145.75 406.78 93.62 406.69 41.49 406.44"/></g><g id="Device"><path class="cls-8" d="M334.52,52.69H165.46a17.26,17.26,0,0,0-17.1,17.42v348a17.27,17.27,0,0,0,17.1,17.42H334.52a17.29,17.29,0,0,0,17.12-17.42v-348A17.28,17.28,0,0,0,334.52,52.69Zm6.42,354.67c0,9.16-6.86,16.57-15.32,16.57H174.38c-8.48,0-15.34-7.41-15.34-16.57V83.3c0-18.66,6.86-19.57,15.34-19.57h30.3c1.76,0,3.2,2,3.2,4.48v1.07c0,5.81,3.18,5.83,7.08,5.83H285c3.94,0,7.1,0,7.1-5.83V68.21c0-2.48,1.42-4.48,3.21-4.48h30.29c8.46,0,15.32,2.48,15.32,19.57Z"/><path class="cls-5" d="M340.94,83.3V407.36c0,9.16-6.86,16.57-15.32,16.57H174.38c-8.48,0-15.34-7.41-15.34-16.57V83.3c0-18.66,6.86-19.57,15.34-19.57h30.3c1.76,0,3.2,2,3.2,4.48v1.07c0,5.81,3.18,5.83,7.08,5.83H285c3.94,0,7.1,0,7.1-5.83V68.21c0-2.48,1.42-4.48,3.21-4.48h30.29C334.08,63.73,340.94,66.21,340.94,83.3Z"/><path class="cls-9" d="M340.94,83.3v36.49H159V83.3c0-18.66,6.86-19.57,15.34-19.57h30.3c1.76,0,3.2,2,3.2,4.48v1.07c0,5.81,3.18,5.83,7.08,5.83H285c3.94,0,7.1,0,7.1-5.83V68.21c0-2.48,1.42-4.48,3.21-4.48h30.29C334.08,63.73,340.94,66.21,340.94,83.3Z"/><g id="u5Zjqx"><path class="cls-5" d="M199.45,71l-.29.29c-.06,0-.11.11-.17.17a4,4,0,0,0-5.64,0l-.16-.17L192.9,71h0l0,0,.37-.32a4.06,4.06,0,0,1,.86-.55,4.18,4.18,0,0,1,1.13-.38c.19,0,.38,0,.57-.08s.48,0,.5,0l.38,0a4.51,4.51,0,0,1,1,.25,4.58,4.58,0,0,1,.71.33,5.35,5.35,0,0,1,.67.47l.31.28Z"/><path class="cls-5" d="M194.27,72.39c-.15-.16-.3-.31-.46-.46a3.32,3.32,0,0,1,4.71,0l-.46.46a2.61,2.61,0,0,0-1.89-.78A2.66,2.66,0,0,0,194.27,72.39Z"/><path class="cls-5" d="M197.6,72.85l-.46.46a1.38,1.38,0,0,0-1.94,0l-.46-.46A2,2,0,0,1,197.6,72.85Z"/><path class="cls-5" d="M196.58,73.73a.41.41,0,0,1-.41.41.42.42,0,1,1,0-.83A.41.41,0,0,1,196.58,73.73Z"/></g><path class="cls-5" d="M170.9,71.89a1.21,1.21,0,1,1,1.21,1.21A1.21,1.21,0,0,1,170.9,71.89Z"/><path class="cls-5" d="M174.7,71.89a1.21,1.21,0,1,1,1.21,1.21A1.21,1.21,0,0,1,174.7,71.89Z"/><path class="cls-5" d="M178.5,71.89a1.21,1.21,0,1,1,1.2,1.21A1.2,1.2,0,0,1,178.5,71.89Z"/><path class="cls-5" d="M182.3,71.89a1.21,1.21,0,1,1,1.2,1.21A1.2,1.2,0,0,1,182.3,71.89Z"/><path class="cls-5" d="M186.09,71.89a1.21,1.21,0,1,1,1.21,1.21A1.21,1.21,0,0,1,186.09,71.89Z"/><path class="cls-5" d="M327.3,74.52h-9.82V70h9.82ZM318,74h8.82V70.48H318Z"/><rect class="cls-5" x="318.3" y="70.75" width="6.33" height="3"/><rect class="cls-5" x="327.3" y="71.04" width="0.87" height="2.43"/><polygon class="cls-5" points="175.62 109.55 170.25 104.51 175.62 99.47 176.46 100.36 172.03 104.51 176.46 108.66 175.62 109.55"/><polygon class="cls-5" points="324.38 99.47 329.75 104.51 324.38 109.55 323.54 108.66 327.97 104.51 323.54 100.36 324.38 99.47"/><path class="cls-7" d="M259.55,67.85H240.44a1.18,1.18,0,0,1-1.18-1.18h0a1.18,1.18,0,0,1,1.18-1.18h19.11a1.18,1.18,0,0,1,1.18,1.18h0A1.18,1.18,0,0,1,259.55,67.85Z"/><path class="cls-7" d="M221.72,236.89h-2.47a.28.28,0,0,1-.28-.3.28.28,0,0,1,.28-.28h5.5a.29.29,0,0,1,.28.28.29.29,0,0,1-.28.3h-2.47v7.34a.28.28,0,1,1-.56,0Z"/><path class="cls-7" d="M231.05,241a1.83,1.83,0,0,0-3.65,0v3.23a.2.2,0,0,1,0,.05s0,0,0,.05a.32.32,0,0,1-.18.14h-.08a.36.36,0,0,1-.22-.09.24.24,0,0,1,0-.1.28.28,0,0,1,0-.09v-7.64a.29.29,0,0,1,.57,0v3a2.4,2.4,0,0,1,1.82-.84,2.29,2.29,0,0,1,2.4,2.26v3.2a.29.29,0,0,1-.57,0Z"/><path class="cls-7" d="M239.3,239.05v5.18a.29.29,0,0,1-.57,0v-.86a2.67,2.67,0,0,1-2.15,1.14,2.87,2.87,0,0,1,0-5.74,2.66,2.66,0,0,1,2.15,1.13v-.85a.29.29,0,0,1,.57,0Zm-.57,2.59a2.16,2.16,0,1,0-2.15,2.31A2.24,2.24,0,0,0,238.73,241.64Z"/><path class="cls-7" d="M245.72,241.11a1.77,1.77,0,0,0-1.77-1.77,1.8,1.8,0,0,0-1.78,1.77v3.17a.2.2,0,0,1-.06.12.26.26,0,0,1-.21.11h-.07a.32.32,0,0,1-.19-.15.06.06,0,0,1,0,0v-5.26a.28.28,0,1,1,.55,0v.55a2.33,2.33,0,0,1,4.11,1.5v3.12a.28.28,0,1,1-.56,0Z"/><path class="cls-7" d="M248.8,236.59a.29.29,0,0,1,.28-.28.29.29,0,0,1,.3.28v5.52l3.39-3.39a.28.28,0,0,1,.4,0,.27.27,0,0,1,0,.4L251,241.34l2.22,2.7a.27.27,0,0,1-.21.47.23.23,0,0,1-.22-.11l-2.2-2.65-1.17,1.17v1.31a.29.29,0,0,1-.3.28.29.29,0,0,1-.28-.28Z"/><path class="cls-7" d="M258.4,239a.28.28,0,0,1,.27-.27.28.28,0,0,1,.29.27v3.12a1.77,1.77,0,0,0,3.54,0V239a.17.17,0,0,1,.05-.14s0,0,0,0h0a.26.26,0,0,1,.11-.07h.13l.14.06a.31.31,0,0,1,.07.09.3.3,0,0,1,0,.12v5a2.71,2.71,0,0,1-2.73,2.7,2.92,2.92,0,0,1-1.18-.27.3.3,0,0,1-.12-.38.31.31,0,0,1,.37-.14,2.09,2.09,0,0,0,.93.22,2.15,2.15,0,0,0,2.17-2.13v-.37a2.38,2.38,0,0,1-1.78.82,2.35,2.35,0,0,1-2.32-2.34Z"/><path class="cls-7" d="M267.87,238.77a2.87,2.87,0,1,1-2.72,2.87A2.81,2.81,0,0,1,267.87,238.77Zm0,5.18a2.32,2.32,0,1,0-2.16-2.31A2.24,2.24,0,0,0,267.87,244Z"/><path class="cls-7" d="M272.44,239a.28.28,0,0,1,.56,0v3.13a1.77,1.77,0,1,0,3.54,0V239a.29.29,0,0,1,.28-.28.28.28,0,0,1,.29.28v3.13a2.34,2.34,0,1,1-4.67,0Z"/><path class="cls-7" d="M279.74,236.59a.29.29,0,0,1,.28-.28.28.28,0,0,1,.29.28v5.88a.28.28,0,0,1-.29.29.28.28,0,0,1-.28-.29Zm0,7.36a.29.29,0,0,1,.28-.28.28.28,0,0,1,.29.28v.28a.28.28,0,0,1-.29.28.29.29,0,0,1-.28-.28Z"/><polygon class="cls-9" points="247.75 208.89 239.29 200.34 242.13 197.54 247.07 202.53 257.32 186.46 260.69 188.6 247.75 208.89"/><path class="cls-9" d="M250,219.76a22.09,22.09,0,1,1,22.09-22.09A22.12,22.12,0,0,1,250,219.76Zm0-41.17a19.09,19.09,0,1,0,19.09,19.08A19.11,19.11,0,0,0,250,178.59Z"/><rect class="cls-9" x="215.67" y="197.17" width="6.56" height="1"/><rect class="cls-9" x="221.42" y="182.66" width="1" height="6.56" transform="translate(-66.48 211.37) rotate(-45)"/><rect class="cls-9" x="218.64" y="208.69" width="6.56" height="1" transform="translate(-82.92 218.19) rotate(-45)"/><rect class="cls-9" x="277.76" y="197.17" width="6.56" height="1"/><rect class="cls-9" x="274.78" y="185.44" width="6.56" height="1" transform="translate(-50.03 251.08) rotate(-45)"/><rect class="cls-9" x="277.56" y="205.91" width="1" height="6.56" transform="translate(-66.48 257.87) rotate(-45)"/><rect class="cls-9" x="220.16" y="299.02" width="59.67" height="20.05"/><path class="cls-5" d="M234.34,312.62v-6.91a.64.64,0,0,1,.65-.65h1.38a4.1,4.1,0,0,1,0,8.2H235A.64.64,0,0,1,234.34,312.62Zm1.3-.66h.73a2.8,2.8,0,0,0,0-5.6h-.73Z"/><path class="cls-5" d="M249.06,306.08a4.32,4.32,0,0,1,0,5.93,3.83,3.83,0,0,1-2.8,1.25,3.94,3.94,0,0,1-2.87-1.25,4.37,4.37,0,0,1,0-5.93,3.9,3.9,0,0,1,2.87-1.25A3.8,3.8,0,0,1,249.06,306.08Zm-.15,3a3.06,3.06,0,0,0-.8-2.05,2.55,2.55,0,0,0-1.85-.83,2.58,2.58,0,0,0-1.9.83,3,3,0,0,0-.79,2.05,2.92,2.92,0,0,0,.79,2,2.49,2.49,0,0,0,3.75,0A3,3,0,0,0,248.91,309Z"/><path class="cls-5" d="M253.54,312.62a.64.64,0,1,1-1.28,0v-6.81h0a.63.63,0,0,1,.26-.54.65.65,0,0,1,.89.14l3.78,5.24v-4.83a.63.63,0,0,1,.63-.63.64.64,0,0,1,.65.63v6.81a.65.65,0,0,1-.65.64.61.61,0,0,1-.47-.23l-.06-.07-3.75-5.2Z"/><path class="cls-5" d="M260.52,312.62v-6.91a.64.64,0,0,1,.65-.65H265a.65.65,0,0,1,.64.65.65.65,0,0,1-.64.65h-3.18v2.15h2.73a.65.65,0,1,1,0,1.3h-2.73V312H265a.65.65,0,0,1,0,1.3h-3.83A.65.65,0,0,1,260.52,312.62Z"/><path class="cls-4" d="M194.84,271.5l-1.53-2.08a.17.17,0,0,1,0-.22.15.15,0,0,1,.22,0l1.42,2,1.42-2a.15.15,0,0,1,.22,0,.15.15,0,0,1,0,.22l-1.52,2.07v2a.16.16,0,0,1-.16.16.16.16,0,0,1-.15-.16Z"/><path class="cls-4" d="M198.08,270.5a1.59,1.59,0,1,1-1.5,1.59A1.55,1.55,0,0,1,198.08,270.5Zm0,2.87a1.28,1.28,0,1,0-1.19-1.28A1.24,1.24,0,0,0,198.08,273.37Z"/><path class="cls-4" d="M200.61,270.65a.15.15,0,0,1,.15-.15.15.15,0,0,1,.16.15v1.73a1,1,0,0,0,1,1,1,1,0,0,0,1-1v-1.73a.15.15,0,0,1,.15-.15.16.16,0,0,1,.17.15v1.73a1.3,1.3,0,1,1-2.59,0Z"/><path class="cls-4" d="M207.66,273.65s0,0-.07-.07l-1.19-2.84a.16.16,0,0,1,.08-.2.16.16,0,0,1,.2.08l1.06,2.51.73-1.75a.17.17,0,0,1,.3,0l.74,1.75,1.05-2.51a.16.16,0,0,1,.2-.08.15.15,0,0,1,.08.2l-1.18,2.83-.06.08-.08,0h0a.17.17,0,0,1-.13-.1h0l-.74-1.76-.74,1.75h0a.16.16,0,0,1-.14.1h-.06A0,0,0,0,1,207.66,273.65Z"/><path class="cls-4" d="M211.78,269.62a.16.16,0,1,1,.32,0v.15a.16.16,0,1,1-.32,0Zm0,1a.16.16,0,1,1,.32,0v2.86a.16.16,0,0,1-.32,0Z"/><path class="cls-4" d="M213.51,269.3a.16.16,0,0,1,.15-.16.16.16,0,0,1,.16.16v4.22a.16.16,0,0,1-.16.16.16.16,0,0,1-.15-.16Z"/><path class="cls-4" d="M215.12,269.3a.16.16,0,1,1,.32,0v4.22a.16.16,0,0,1-.32,0Z"/><path class="cls-4" d="M218.64,272.16V269.3a.16.16,0,0,1,.15-.16.16.16,0,0,1,.16.16v1.82a1.53,1.53,0,0,1,1.22-.62,1.59,1.59,0,0,1,0,3.18,1.51,1.51,0,0,1-1.22-.62v.46a.16.16,0,0,1-.16.16.16.16,0,0,1-.15-.16Zm.31-.06a1.22,1.22,0,1,0,1.22-1.28,1.25,1.25,0,0,0-1.22,1.23Z"/><path class="cls-4" d="M222.69,272.1a1.57,1.57,0,0,1,1.54-1.6,1.55,1.55,0,0,1,1.53,1.48h0v0a.15.15,0,0,1-.15.14H223a1.25,1.25,0,0,0,1.23,1.22,1.21,1.21,0,0,0,1-.58.14.14,0,0,1,.2-.05.16.16,0,0,1,.06.22,1.54,1.54,0,0,1-1.29.72A1.56,1.56,0,0,1,222.69,272.1Zm.33-.26h2.4a1.22,1.22,0,0,0-1.19-1A1.24,1.24,0,0,0,223,271.84Z"/><path class="cls-4" d="M228.81,270.66a.15.15,0,0,1,.16-.15.15.15,0,0,1,.15.15v.7l0-.07a1.52,1.52,0,0,1,1.27-.78.15.15,0,0,1,.15.15.16.16,0,0,1-.15.16,1.13,1.13,0,0,0-.92.52,2.81,2.81,0,0,0-.39.74.11.11,0,0,0,0,.05v1.39a.15.15,0,0,1-.15.16.15.15,0,0,1-.16-.16Z"/><path class="cls-4" d="M231.1,272.1a1.54,1.54,0,0,1,3.08-.12h0v0a.15.15,0,0,1-.16.14h-2.6a1.25,1.25,0,0,0,1.23,1.22,1.18,1.18,0,0,0,1-.58.15.15,0,0,1,.21-.05.16.16,0,0,1,.05.22,1.51,1.51,0,0,1-1.28.72A1.56,1.56,0,0,1,231.1,272.1Zm.34-.26h2.4a1.21,1.21,0,0,0-2.4,0Z"/><path class="cls-4" d="M235.05,272.08a1.6,1.6,0,0,1,1.64-1.58,1.65,1.65,0,0,1,1,.35.16.16,0,0,1,0,.22.17.17,0,0,1-.21,0,1.33,1.33,0,0,0-.82-.28,1.28,1.28,0,1,0,0,2.56,1.4,1.4,0,0,0,.82-.28.16.16,0,0,1,.21,0,.15.15,0,0,1,0,.22,1.65,1.65,0,0,1-1,.34A1.61,1.61,0,0,1,235.05,272.08Z"/><path class="cls-4" d="M238.66,272.1a1.57,1.57,0,0,1,1.54-1.6,1.55,1.55,0,0,1,1.53,1.48h0v0a.15.15,0,0,1-.15.14H239a1.25,1.25,0,0,0,1.23,1.22,1.21,1.21,0,0,0,1-.58.15.15,0,0,1,.21-.05.17.17,0,0,1,.05.22,1.54,1.54,0,0,1-1.29.72A1.56,1.56,0,0,1,238.66,272.1Zm.33-.26h2.41a1.22,1.22,0,0,0-2.41,0Z"/><path class="cls-4" d="M242.84,269.62a.16.16,0,1,1,.32,0v.15a.16.16,0,1,1-.32,0Zm0,1a.16.16,0,0,1,.32,0v2.86a.16.16,0,1,1-.32,0Z"/><path class="cls-4" d="M245.68,273.65a.22.22,0,0,1-.06-.07l-1.19-2.84a.15.15,0,0,1,.28-.12l1.06,2.51,1-2.51a.16.16,0,0,1,.2-.08.15.15,0,0,1,.08.2l-1.18,2.82a.25.25,0,0,1,0,.07.13.13,0,0,1-.11.05h-.06Z"/><path class="cls-4" d="M248.44,269.62a.16.16,0,0,1,.15-.16.17.17,0,0,1,.17.16v.15a.18.18,0,0,1-.17.17.17.17,0,0,1-.15-.17Zm0,1a.16.16,0,0,1,.15-.16.17.17,0,0,1,.17.16v2.86a.17.17,0,0,1-.17.16.16.16,0,0,1-.15-.16Z"/><path class="cls-4" d="M252.52,271.8a1,1,0,0,0-1-1,1,1,0,0,0-1,1v1.75s0,.05,0,.07a.14.14,0,0,1-.12.06h0a.2.2,0,0,1-.1-.08v-2.94a.16.16,0,0,1,.16-.15.15.15,0,0,1,.15.15V271a1.28,1.28,0,0,1,2.27.83v1.72a.15.15,0,0,1-.15.16.15.15,0,0,1-.16-.16Z"/><path class="cls-4" d="M257,273.43a1.49,1.49,0,0,1-1.49,1.49,1.68,1.68,0,0,1-.67-.15.18.18,0,0,1-.06-.21.15.15,0,0,1,.21-.07,1.11,1.11,0,0,0,.52.12,1.18,1.18,0,0,0,1.18-1.18V273a1.43,1.43,0,0,1-1.18.62,1.58,1.58,0,0,1,0-3.16,1.46,1.46,0,0,1,1.18.62v-.46a.16.16,0,0,1,.16-.16.16.16,0,0,1,.15.16Zm-.31-1.35a1.18,1.18,0,1,0-1.18,1.28A1.22,1.22,0,0,0,256.69,272.08Z"/><path class="cls-4" d="M263.12,270.66v2.86a.16.16,0,0,1-.16.16.16.16,0,0,1-.15-.16v-.47a1.48,1.48,0,0,1-1.2.63,1.59,1.59,0,0,1,0-3.18,1.5,1.5,0,0,1,1.2.62v-.46a.16.16,0,0,1,.15-.16A.16.16,0,0,1,263.12,270.66Zm-.31,1.43a1.2,1.2,0,1,0-1.2,1.28A1.24,1.24,0,0,0,262.81,272.09Z"/><path class="cls-4" d="M266.19,272.08a1.59,1.59,0,0,1,1.63-1.58,1.63,1.63,0,0,1,1,.35.15.15,0,0,1,0,.22.17.17,0,0,1-.21,0,1.33,1.33,0,0,0-.82-.28,1.28,1.28,0,1,0,0,2.56,1.4,1.4,0,0,0,.82-.28.16.16,0,0,1,.21,0,.14.14,0,0,1,0,.22,1.63,1.63,0,0,1-1,.34A1.6,1.6,0,0,1,266.19,272.08Z"/><path class="cls-4" d="M271.37,270.5a1.59,1.59,0,1,1-1.5,1.59A1.56,1.56,0,0,1,271.37,270.5Zm0,2.87a1.28,1.28,0,1,0-1.19-1.28A1.25,1.25,0,0,0,271.37,273.37Z"/><path class="cls-4" d="M276.34,271.8a1,1,0,0,0-1-1,1,1,0,0,0-1,1v1.75a.16.16,0,0,1,0,.07.13.13,0,0,1-.11.06h0a.19.19,0,0,1-.11-.08v-2.94a.16.16,0,0,1,.16-.15.15.15,0,0,1,.15.15V271a1.28,1.28,0,0,1,2.27.83v1.72a.15.15,0,0,1-.15.16.15.15,0,0,1-.16-.16Z"/><path class="cls-4" d="M279.45,269.31a.16.16,0,0,1-.16.15c-.22,0-.34.05-.4.13a.78.78,0,0,0-.13.52v.34h.45a.16.16,0,0,1,0,.32h-.45v2.76a.16.16,0,1,1-.32,0v-2.76H278a.16.16,0,0,1,0-.32h.42v-.34a1.16,1.16,0,0,1,.21-.74.86.86,0,0,1,.64-.22A.16.16,0,0,1,279.45,269.31Z"/><path class="cls-4" d="M280.4,269.62a.16.16,0,1,1,.32,0v.15a.16.16,0,1,1-.32,0Zm0,1a.16.16,0,0,1,.32,0v2.86a.16.16,0,1,1-.32,0Z"/><path class="cls-4" d="M282.21,270.66a.16.16,0,0,1,.17-.15.15.15,0,0,1,.15.15v.7a.25.25,0,0,1,0-.07,1.52,1.52,0,0,1,1.27-.78.15.15,0,0,1,.16.15.16.16,0,0,1-.16.16,1.14,1.14,0,0,0-.92.52,2.7,2.7,0,0,0-.38.74.11.11,0,0,0,0,.05v1.39a.16.16,0,0,1-.15.16.16.16,0,0,1-.17-.16Z"/><path class="cls-4" d="M289.61,271.8a1,1,0,0,0-1-1,1,1,0,0,0-1,1v1.75h0v0a.2.2,0,0,1-.08.08l-.08,0h-.05l0,0h0l0,0h0a0,0,0,0,0,0,0v0h0V271.8a1,1,0,1,0-1.95,0v1.73a.13.13,0,0,1-.08.12s0,0,0,0h-.07a.18.18,0,0,1-.13-.12v-2.9a.15.15,0,0,1,.15-.15.15.15,0,0,1,.16.15v.3a1.25,1.25,0,0,1,1-.45,1.29,1.29,0,0,1,1.14.67,1.31,1.31,0,0,1,1.14-.67,1.29,1.29,0,0,1,1.29,1.29v1.73a.15.15,0,0,1-.3,0Z"/><path class="cls-4" d="M293.89,270.66v2.86a.16.16,0,0,1-.15.16.16.16,0,0,1-.16-.16v-.47a1.46,1.46,0,0,1-1.19.63,1.59,1.59,0,0,1,0-3.18,1.48,1.48,0,0,1,1.19.62v-.46a.16.16,0,0,1,.16-.16A.16.16,0,0,1,293.89,270.66Zm-.31,1.43a1.19,1.19,0,1,0-1.19,1.28A1.24,1.24,0,0,0,293.58,272.09Z"/><path class="cls-4" d="M296.35,270.66a.16.16,0,0,1-.15.15h-.41v2.32a.25.25,0,0,0,.23.23.18.18,0,0,1,.16.16.17.17,0,0,1-.16.16.54.54,0,0,1-.56-.55v-2.32h-.39c-.16,0-.16-.07-.16-.15s0-.16.16-.16h.39v-1.18a.16.16,0,0,1,.16-.15.17.17,0,0,1,.17.15v1.18h.41A.17.17,0,0,1,296.35,270.66Z"/><path class="cls-4" d="M297.84,269.62a.16.16,0,0,1,.32,0v.15a.16.16,0,1,1-.32,0Zm0,1a.16.16,0,0,1,.32,0v2.86a.16.16,0,0,1-.32,0Z"/><path class="cls-4" d="M301,270.5a1.59,1.59,0,1,1-1.5,1.59A1.56,1.56,0,0,1,301,270.5Zm0,2.87a1.28,1.28,0,1,0-1.19-1.28A1.25,1.25,0,0,0,301,273.37Z"/><path class="cls-4" d="M306,271.8a1,1,0,0,0-1-1,1,1,0,0,0-1,1v1.75a.16.16,0,0,1,0,.07.13.13,0,0,1-.11.06h0a.19.19,0,0,1-.11-.08v-2.94a.16.16,0,0,1,.16-.15.15.15,0,0,1,.15.15V271a1.28,1.28,0,0,1,1-.46,1.29,1.29,0,0,1,1.29,1.29v1.72a.15.15,0,0,1-.15.16.15.15,0,0,1-.16-.16Z"/><path class="cls-4" d="M212.16,279.88a1.54,1.54,0,0,1,3.08-.12h0v0a.15.15,0,0,1-.16.14h-2.61a1.26,1.26,0,0,0,1.24,1.22,1.18,1.18,0,0,0,1-.58.16.16,0,1,1,.26.17,1.49,1.49,0,0,1-1.28.72A1.56,1.56,0,0,1,212.16,279.88Zm.33-.25h2.41a1.23,1.23,0,0,0-1.19-1A1.25,1.25,0,0,0,212.49,279.63Z"/><path class="cls-4" d="M220.89,279.58a1,1,0,0,0-1-1,1,1,0,0,0-1,1v1.75h0v0a.14.14,0,0,1-.07.08l-.08,0h0l0,0h0l0,0h0v0h0v-1.75a1,1,0,1,0-2,0v1.73a.12.12,0,0,1-.07.12l0,0h-.06a.18.18,0,0,1-.13-.12v-2.9a.15.15,0,0,1,.15-.15.14.14,0,0,1,.15.15v.3a1.3,1.3,0,0,1,2.12.22,1.31,1.31,0,0,1,1.14-.67,1.29,1.29,0,0,1,1.29,1.29v1.73a.15.15,0,1,1-.3,0Z"/><path class="cls-4" d="M225.17,278.44v2.87a.15.15,0,0,1-.15.15.16.16,0,0,1-.16-.15v-.48a1.47,1.47,0,0,1-1.19.63,1.59,1.59,0,0,1,0-3.18,1.47,1.47,0,0,1,1.19.63v-.47a.16.16,0,0,1,.16-.16A.16.16,0,0,1,225.17,278.44Zm-.31,1.43a1.2,1.2,0,1,0-1.19,1.28A1.24,1.24,0,0,0,224.86,279.87Z"/><path class="cls-4" d="M226.53,277.4a.15.15,0,0,1,.15-.15.16.16,0,0,1,.16.15v.15a.16.16,0,1,1-.31,0Zm0,1a.16.16,0,0,1,.15-.16.16.16,0,0,1,.16.16v2.87a.16.16,0,0,1-.16.15.15.15,0,0,1-.15-.15Z"/><path class="cls-4" d="M228.25,277.08a.16.16,0,0,1,.32,0v4.23a.16.16,0,0,1-.32,0Z"/><path class="cls-4" d="M232.83,281.43a.12.12,0,0,1-.07-.07l-1.19-2.84a.16.16,0,0,1,.08-.2.16.16,0,0,1,.2.09l1.06,2.5.73-1.74a.18.18,0,0,1,.15-.1.19.19,0,0,1,.16.1l.73,1.74,1-2.5a.16.16,0,0,1,.2-.09.15.15,0,0,1,.08.2l-1.18,2.83-.06.08a.13.13,0,0,1-.08,0h0a.14.14,0,0,1-.12-.1h0l-.74-1.76-.73,1.75h0a.15.15,0,0,1-.14.1h0S232.84,281.44,232.83,281.43Z"/><path class="cls-4" d="M237,277.4a.16.16,0,0,1,.16-.15.16.16,0,0,1,.16.15v.15a.17.17,0,0,1-.16.17.17.17,0,0,1-.16-.17Zm0,1a.16.16,0,0,1,.16-.16.16.16,0,0,1,.16.16v2.87a.16.16,0,0,1-.16.15.16.16,0,0,1-.16-.15Z"/><path class="cls-4" d="M239.88,278.44a.16.16,0,0,1-.16.15h-.41v2.32a.25.25,0,0,0,.24.23.19.19,0,0,1,.16.17.18.18,0,0,1-.16.15.54.54,0,0,1-.56-.55v-2.32h-.4c-.15,0-.15-.07-.15-.15s0-.16.15-.16h.4V277.1a.17.17,0,0,1,.15-.15.17.17,0,0,1,.17.15v1.18h.41A.17.17,0,0,1,239.88,278.44Z"/><path class="cls-4" d="M243.57,279.54a1,1,0,0,0-2,0v1.79s0,0,0,0a0,0,0,0,1,0,0,.13.13,0,0,1-.1.07h0a.17.17,0,0,1-.12,0,.13.13,0,0,1,0-.05.09.09,0,0,1,0-.05v-4.23a.16.16,0,0,1,.32,0v1.67a1.3,1.3,0,0,1,1-.47,1.27,1.27,0,0,1,1.33,1.26v1.77a.17.17,0,0,1-.17.15.15.15,0,0,1-.15-.15Z"/><path class="cls-4" d="M248.51,278.28a1.59,1.59,0,1,1-1.51,1.59A1.56,1.56,0,0,1,248.51,278.28Zm0,2.87a1.28,1.28,0,1,0-1.19-1.28A1.24,1.24,0,0,0,248.51,281.15Z"/><path class="cls-4" d="M251.08,278.45a.15.15,0,0,1,.16-.16.15.15,0,0,1,.15.16v.7a.2.2,0,0,1,0-.08,1.52,1.52,0,0,1,1.27-.78.15.15,0,0,1,.16.16.16.16,0,0,1-.16.15,1.14,1.14,0,0,0-.92.52,3.22,3.22,0,0,0-.38.74.11.11,0,0,0,0,.05v1.4a.15.15,0,0,1-.15.15.15.15,0,0,1-.16-.15Z"/><path class="cls-4" d="M256.3,280.84a1.51,1.51,0,0,1-1.22.62,1.59,1.59,0,0,1,0-3.18,1.51,1.51,0,0,1,1.22.63v-1.83a.16.16,0,0,1,.32,0v4.23a.16.16,0,0,1-.32,0Zm0-.91v-.1a1.26,1.26,0,1,0,0,.1Z"/><path class="cls-4" d="M257.72,279.88a1.54,1.54,0,1,1,3.07-.12h0v0a.15.15,0,0,1-.16.14H258a1.25,1.25,0,0,0,1.23,1.22,1.21,1.21,0,0,0,1-.58.15.15,0,0,1,.2-.05.16.16,0,0,1,.05.22,1.49,1.49,0,0,1-1.28.72A1.56,1.56,0,0,1,257.72,279.88Zm.33-.25h2.4a1.21,1.21,0,0,0-2.4,0Z"/><path class="cls-4" d="M261.76,278.45a.15.15,0,0,1,.16-.16.15.15,0,0,1,.15.16v.7a.2.2,0,0,1,0-.08,1.52,1.52,0,0,1,1.27-.78.15.15,0,0,1,.16.16.16.16,0,0,1-.16.15,1.14,1.14,0,0,0-.92.52,3.22,3.22,0,0,0-.38.74.11.11,0,0,0,0,.05v1.4a.15.15,0,0,1-.15.15.15.15,0,0,1-.16-.15Z"/><path class="cls-4" d="M269.09,280.84a1.51,1.51,0,0,1-1.22.62,1.59,1.59,0,0,1,0-3.18,1.51,1.51,0,0,1,1.22.63v-1.83a.16.16,0,0,1,.32,0v4.23a.16.16,0,0,1-.32,0Zm0-.91v-.1a1.22,1.22,0,1,0-2.44.05,1.22,1.22,0,1,0,2.44.05Z"/><path class="cls-4" d="M270.5,279.88a1.54,1.54,0,0,1,3.08-.12h0v0a.15.15,0,0,1-.16.14h-2.6a1.25,1.25,0,0,0,1.23,1.22,1.18,1.18,0,0,0,1-.58.16.16,0,1,1,.26.17,1.49,1.49,0,0,1-1.28.72A1.56,1.56,0,0,1,270.5,279.88Zm.33-.25h2.41a1.23,1.23,0,0,0-1.19-1A1.25,1.25,0,0,0,270.83,279.63Z"/><path class="cls-4" d="M275.53,278.44a.16.16,0,0,1-.16.15H275v2.32a.25.25,0,0,0,.24.23.18.18,0,0,1,.16.17.17.17,0,0,1-.16.15.54.54,0,0,1-.56-.55v-2.32h-.39c-.16,0-.16-.07-.16-.15s0-.16.16-.16h.39V277.1a.16.16,0,0,1,.32,0v1.18h.41A.17.17,0,0,1,275.53,278.44Z"/><path class="cls-4" d="M279.49,278.44v2.87a.16.16,0,0,1-.32,0v-.48a1.46,1.46,0,0,1-1.19.63,1.59,1.59,0,0,1,0-3.18,1.46,1.46,0,0,1,1.19.63v-.47a.16.16,0,1,1,.32,0Zm-.32,1.43a1.19,1.19,0,1,0-1.19,1.28A1.23,1.23,0,0,0,279.17,279.87Z"/><path class="cls-4" d="M280.84,277.4a.16.16,0,0,1,.32,0v.15a.16.16,0,1,1-.32,0Zm0,1a.16.16,0,0,1,.32,0v2.87a.16.16,0,0,1-.32,0Z"/><path class="cls-4" d="M282.56,277.08a.16.16,0,0,1,.16-.16.16.16,0,0,1,.16.16v4.23a.16.16,0,0,1-.16.15.16.16,0,0,1-.16-.15Z"/><path class="cls-4" d="M283.91,280.8a.15.15,0,0,1,.22,0,1.74,1.74,0,0,0,1,.37,1,1,0,0,0,.6-.19.44.44,0,0,0,0-.78,1.55,1.55,0,0,0-.67-.24h0a1.9,1.9,0,0,1-.72-.25.67.67,0,0,1-.35-.57.8.8,0,0,1,.35-.62,1.33,1.33,0,0,1,.77-.22,1.69,1.69,0,0,1,1,.35.17.17,0,0,1,0,.22.16.16,0,0,1-.22,0,1.39,1.39,0,0,0-.78-.31,1,1,0,0,0-.6.18.46.46,0,0,0-.2.36.4.4,0,0,0,.18.32,1.63,1.63,0,0,0,.65.22h0a2,2,0,0,1,.77.26.78.78,0,0,1,.36.65.82.82,0,0,1-.36.64,1.31,1.31,0,0,1-.79.25,2,2,0,0,1-1.18-.45A.16.16,0,0,1,283.91,280.8Z"/><path class="cls-4" d="M287.58,280.81a.32.32,0,0,1,.32.33.32.32,0,0,1-.32.32.32.32,0,0,1-.33-.32A.33.33,0,0,1,287.58,280.81Z"/></g><g id="Character"><polygon class="cls-3" points="140.38 349.74 142.76 363.97 158.83 450.78 161.43 450.78 149.74 363.97 148.01 349.74 140.38 349.74"/><polygon class="cls-10" points="148.01 349.74 140.38 349.74 142.76 363.97 149.74 363.97 148.01 349.74"/><polygon class="cls-3" points="89.9 450.78 92.49 450.78 108.57 363.97 110.94 349.74 103.32 349.74 101.59 363.97 89.9 450.78"/><polygon class="cls-10" points="103.32 349.74 101.59 363.97 108.57 363.97 110.94 349.74 103.32 349.74"/><polygon class="cls-3" points="41.68 450.78 44.27 450.78 60.35 363.97 62.72 349.74 55.1 349.74 53.37 363.97 41.68 450.78"/><polygon class="cls-10" points="53.37 363.97 60.35 363.97 62.72 349.74 55.1 349.74 53.37 363.97"/><polygon class="cls-3" points="45.79 356.42 163.59 356.42 163.59 344.01 119.49 344.01 104.67 279.36 50.28 279.36 45.79 356.42"/><polygon class="cls-10" points="45.79 356.42 52.21 356.42 56.4 279.36 50.28 279.36 45.79 356.42"/><path class="cls-11" d="M175.18,459.86c-2.22.75-67.53.77-69.95-.76-.29-.18-.27-8.12-.46-14.17-.3-9.24,12.08-50.39,12.08-50.39l40.52,2L146.07,438s9.33,4.13,17,7.75l0,0a93.42,93.42,0,0,1,9.82,5C175.42,452.72,177.4,459.11,175.18,459.86Z"/><path class="cls-7" d="M175.18,459.86c-2.22.75-67.53.77-69.95-.76-.29-.18-.42-6.07-.46-14.17,16.18,3.35,59.28,8.51,60.49,5.11.48-1.36-.57-2.88-2.13-4.28a93.42,93.42,0,0,1,9.82,5C175.42,452.72,177.4,459.11,175.18,459.86Z"/><path class="cls-11" d="M78.43,330.18c8,7.95,42.26,24.35,44.86,30.11,2.3,5.07-13.56,59.66-13.56,59.66l39.21,7.5s23.55-63.87,17.56-83.59c-5.57-18.3-68.24-54.1-68.24-54.1H73.11S62.68,314.53,78.43,330.18Z"/><path class="cls-12" d="M158.07,332c-14.43,5.18-34.25,13.62-48.35,18.11-11.34-6.87-26.34-15-31.29-19.94-15.76-15.66-5.33-40.43-5.33-40.43H98.26S139.55,313.34,158.07,332Z"/><path class="cls-11" d="M253.77,448.45c-2.3.45-67-8.3-69.22-10.14-.26-.21.4-6.07,1.44-14.1l-11.47-48.89,42.63,5.23,13.41,42a102.71,102.71,0,0,0,13.14,10.3l0,0a92.9,92.9,0,0,1,9.05,6.27C255,441.42,256.07,448,253.77,448.45Z"/><path class="cls-7" d="M253.77,448.45c-2.3.45-67-8.3-69.22-10.14-.26-.21.4-6.07,1.44-14.1,15.6,5.49,57.61,16.39,59.26,13.18.66-1.28-.18-2.93-1.53-4.52a92.9,92.9,0,0,1,9.05,6.27C255,441.42,256.07,448,253.77,448.45Z"/><path class="cls-11" d="M226.08,408.5,184,415.86,166.64,362.7c.52-18.14-2.15-24.72-12.36-27.88-17.37-5.38-59.83,14.5-79,1.16-15.61-10.83-3.16-46.23-3.16-46.23h45.14s5.45,6.64,6.46,10.53c0,0,55.9-4.3,68.41,11.56C208.84,333.09,226.08,408.5,226.08,408.5Z"/><path class="cls-7" d="M133.9,335.11a66.08,66.08,0,0,1,13.47-1.39,32.55,32.55,0,0,1,6.8.68,16.53,16.53,0,0,1,3.31,1.05,20.74,20.74,0,0,1,3,1.68,12.37,12.37,0,0,1,4.38,5.37,23.22,23.22,0,0,1,1.68,6.65,73.92,73.92,0,0,1,.08,13.55c0-2.25-.08-4.5-.22-6.75a57.36,57.36,0,0,0-.63-6.69,24.59,24.59,0,0,0-1.74-6.38,11.63,11.63,0,0,0-4.12-4.93,18.61,18.61,0,0,0-2.85-1.63,15.78,15.78,0,0,0-3.11-1,38.38,38.38,0,0,0-6.62-.79,65.52,65.52,0,0,0-6.72.06C138.38,334.65,136.14,334.85,133.9,335.11Z"/><path class="cls-7" d="M72.07,289.75s-12.28,32.06,0,43.87,26.72,9.77,61.12,2.38c0,0,17.59-22.25,28-26.8a61.29,61.29,0,0,1,20-4.88s-20-6.47-57.29-5.11c0,0-2.77-5.87-6.69-9.46Z"/><path class="cls-7" d="M115.61,266.1a39.51,39.51,0,0,1-7.51,4.67c4.07-6.88,3.45-22.42,3-20.2-2.39,10.59-9,22.2-11.59,22.77h0a29.28,29.28,0,0,1-18.15-3.84s0,0,0,0c5.25-7.78,5-23.58,4.68-22.62-3.85,10.3-11.83,16.32-13.21,16.31h0c-5.11-4.9-7.82-9.78-7.09-10.27,5.31-3.61,9.82-12.91,13.9-22.73h0c4-9.69,6.07-18.91,11.73-27.56,5.19-7.91,15.55-9.41,21.42-5.36C128.11,207.85,118.89,263.53,115.61,266.1Z"/><path class="cls-7" d="M99.6,197.66c-4.26,1-7.77,4.92-10,8.53-3,4.81-4.93,10.25-7.38,15.33a106.52,106.52,0,0,1-18.59,27.33c-.17.17.07.41.26.27,8.27-6.24,13.95-15.19,18.6-24.39,2.37-4.7,4.24-9.63,6.49-14.39A32,32,0,0,1,93.51,203a19.83,19.83,0,0,1,6.37-4.64A.4.4,0,0,0,99.6,197.66Z"/><path class="cls-13" d="M157.12,214.39l-10.85,26.69a1,1,0,0,0,.7,1.6l14.28,2a2.33,2.33,0,0,0,2.18-1.19l10.86-26.69a1,1,0,0,0-.71-1.6l-14.27-2A2.34,2.34,0,0,0,157.12,214.39Z"/><path class="cls-8" d="M158.82,214.62,148,241.3c-.41.77-.1,1.49.7,1.6l14.27,2a2.32,2.32,0,0,0,2.19-1.19L176,217c.41-.77.1-1.49-.7-1.6l-14.27-2A2.35,2.35,0,0,0,158.82,214.62Z"/><path class="cls-7" d="M162.56,216.43a1.23,1.23,0,1,1-1-1.41A1.24,1.24,0,0,1,162.56,216.43Z"/><path class="cls-11" d="M105.23,249.82c5.5,18.38,20.28,43.4,27.76,44.62,3.56.58,9.8,2.38,15.09-1,11.54-7.42,22.63-23.24,25.84-32.77,1.13-3.39-14.68-13.46-17.6-11-6.85,5.76-15.6,17.77-16.63,17.54-3.79-.87-16.92-15.6-26.08-26C102.5,228.67,103,242.49,105.23,249.82Z"/><path class="cls-11" d="M177,242.73c-.73-7.33-2.05-9.1.62-15.63,1.75-4.28-.23-7.23-3.91-4.14-6,5.06-7.06,14.73-6.46,18.18Z"/><path class="cls-11" d="M172.63,263.57s4.63-9.38,4.62-17.27c0-5.46-1.35-17.34-15.39-25.6-3.34-2-9.47-2.39-5.19,2.79,3,3.67,6.07,5.09,7.45,7.55,0,0-7.87.38-9.7,3.79a70.89,70.89,0,0,0-4.15,9.27,15.47,15.47,0,0,0,1.66.93s-1.62,3.25.19,8.47Z"/><path class="cls-11" d="M176.41,241.09c-1.88-2.16-5.95-6.65-10.56-9.17-5.12-2.8-15.74-6.81-17.77-3-1.49,2.78,2.43,4.67,2.43,4.67s-4.73-.73-5.53,2.08c-.72,2.56,2.4,3.84,2.4,3.84s-2.95.05-3.17,2.65c-.26,3.13,6,2.51,8.43,5.92C153.2,248.83,176.41,241.09,176.41,241.09Z"/><path class="cls-7" d="M163.79,237.82a23.2,23.2,0,0,0-13.17-4.3c-.12,0-.19.09-.08.11a56.91,56.91,0,0,1,13.22,4.24A0,0,0,0,0,163.79,237.82Z"/><path class="cls-7" d="M160.82,242.91a26.11,26.11,0,0,0-13.41-3.51c-.12,0-.18.1-.07.12A60.82,60.82,0,0,1,160.79,243S160.84,242.92,160.82,242.91Z"/><path class="cls-9" d="M173,267.86s-18,25.32-26.54,27.28-13.27.53-16.2-.37a8.05,8.05,0,0,1-2.94-2c-7.27-7-18.74-29.74-22.92-42.17-3.14-9.34-1.46-17.12,4.88-13.58a22.84,22.84,0,0,1,5.61,4.89c10.8,12.21,23.67,24.23,24.4,24s9.53-10.44,9.53-10.44Z"/><path class="cls-7" d="M168.82,272.33c-.84-.65-9-5.34-10.84-6.32s-9.13-5.06-11.07-5.92a.07.07,0,1,0-.07.13c1.74,1.2,9.12,5.34,10.94,6.37s10,5.5,11,5.87C168.85,272.49,168.88,272.38,168.82,272.33Z"/><path class="cls-12" d="M152.54,291.52c-2.26,1.89-4.35,3.23-6.07,3.62-8.52,2-13.26.53-16.19-.37a8,8,0,0,1-3-2c-7.26-7-18.74-29.74-22.92-42.17-2.84-8.47-1.73-15.65,3.22-14.28C118.94,250.12,140.43,276.59,152.54,291.52Z"/><path class="cls-9" d="M120.59,276.59l1.87,18.85-56.23,1.12s13-47.37,23.23-57.86c6.89-7.1,14.75-6.34,19.63-1.12,1.23,1.32,14.08,17,15.47,24.65C125.77,269,120.59,276.59,120.59,276.59Z"/><path class="cls-7" d="M114,274.38a51.22,51.22,0,0,0-7.39,1c-1.2.27-2.39.59-3.57.94l-1.78.48a8.26,8.26,0,0,1-1.91.3,0,0,0,1,0,0,.08,13.85,13.85,0,0,0,1.82,0,14.48,14.48,0,0,0,1.75-.27c1.23-.27,2.44-.58,3.67-.86,2.46-.55,4.93-1.1,7.44-1.48C114.15,274.57,114.13,274.37,114,274.38Z"/><path class="cls-7" d="M118.39,276.49a33.13,33.13,0,0,0-4.86-.44c-.82,0-1.63,0-2.44.11l-1.16.13c-.43.06-.85.19-1.28.23,0,0-.05.1,0,.09.4,0,.81,0,1.21,0h3.65c1.63,0,3.25,0,4.87,0C118.47,276.66,118.47,276.5,118.39,276.49Z"/><path class="cls-9" d="M91.11,236.12c-19.84,10.07-42.62,32.81-41.28,40.38,1.49,8.42,30-5.82,29.7-7.08-.24-1.08,5.75-10.13,14.31-23.1C102.55,233.13,96,233.63,91.11,236.12Z"/><path class="cls-11" d="M49.83,276.5c1.74,5.88,10.52,9.82,31.68,21.83,2.93,1.66,20.21-15.86,17.18-17.79-3.83-2.44-19.2-11.07-20.4-11.55C68.14,264.86,48.65,272.5,49.83,276.5Z"/><path class="cls-11" d="M94.5,278s9.11,4.66,13.14,8.58a36.11,36.11,0,0,1,8.76,14.92c1.83,6.05,2.06,21.93-2.51,22.79-4.13.79-3.54-15.46-3.54-15.46s2.13,16.66-3,16.69S104,306.72,104,306.72s1.81,17.17-3.51,16.36c-4-.62-3.38-17.75-3.38-17.75s1.45,14.77-2.7,14.31c-4.59-.5-5-16.35-5-16.35-10.36-2.93-14.1-8.56-16.28-12.89C72.54,289.35,94.5,278,94.5,278Z"/><path class="cls-7" d="M110,303c.32,1.95.66,3.92.81,5.89s.22,4,.19,5.92a33.4,33.4,0,0,1-.88,7.67c.71-4.54.29-11.6.15-13.57s-.2-3.94-.35-5.91C109.9,303,110,303,110,303Z"/><path class="cls-7" d="M102.86,303.41c.3,2.51.69,5,.88,7.51s.16,4.9.18,7.41c0,.2-.11.13-.12-.06-.11-2.51-.42-4.83-.57-7.33s-.19-5-.43-7.52C102.79,303.38,102.85,303.38,102.86,303.41Z"/><path class="cls-7" d="M96.68,302.66a56,56,0,0,1,.48,11.57c0,.2-.13.1-.14-.1-.08-3.85-.12-6.87-.47-11.45C96.54,302.61,96.67,302.58,96.68,302.66Z"/><path class="cls-9" d="M99,278.49S74.67,297.06,74.41,297s-24.2-14.15-24.58-20.46,19.44-11.05,28.44-7.56S99,278.49,99,278.49Z"/><path class="cls-7" d="M90.79,275.81c-1,.57-8.65,6.77-10.29,8.15s-8.42,7-10,8.54c-.07.07,0,.18.09.12,1.84-1.24,8.69-6.86,10.39-8.24s9.18-7.67,9.9-8.47C91,275.84,90.85,275.77,90.79,275.81Z"/><path class="cls-7" d="M67.43,268c2.09-.33,7.85-.81,12.52,1.53,0,0,0,.09,0,.07a38.26,38.26,0,0,0-12.47-1.52C67.39,268.08,67.38,268,67.43,268Z"/><path class="cls-7" d="M97.54,279.64l1.46-1.2v.12l-4.83-2.4c-1.62-.8-3.24-1.57-4.87-2.33-3.24-1.54-6.52-3-9.85-4.34l-.39-.16.2-.36c1.85-3.39,3.77-6.73,5.84-10a109.16,109.16,0,0,1,6.62-9.47c-2.15,3.2-4.18,6.46-6.14,9.76s-3.88,6.64-5.66,10l-.19-.51c3.34,1.36,6.61,2.88,9.84,4.48,1.61.81,3.2,1.65,4.79,2.5s3.15,1.75,4.71,2.65l.09.06-.08.06Z"/><path class="cls-7" d="M86.84,256.73a20.61,20.61,0,0,1,1.88-2.17,14.92,14.92,0,0,1,2.19-1.84,14.41,14.41,0,0,1-1.84,2.2,13.9,13.9,0,0,1-1.06,1A7.15,7.15,0,0,1,86.84,256.73Z"/><path class="cls-7" d="M67.36,292.6a19,19,0,0,1,2.93,1.55,19.42,19.42,0,0,1,2.68,2A20.1,20.1,0,0,1,70,294.57,20.41,20.41,0,0,1,67.36,292.6Z"/><path class="cls-11" d="M98,235.89c.27,1.48,3.77,8.19,8.29,8,2.32-.08,2.36-8.2,2.36-8.2l.12-.6,1.6-8.37L99,220S97.91,235.46,98,235.89Z"/><path class="cls-7" d="M98.57,225.78a17.12,17.12,0,0,0,10.18,9.35l1.6-8.37L99,220S98.77,222.65,98.57,225.78Z"/><path class="cls-11" d="M122.09,213.92c1.31,14.9-7.47,17.36-10.68,17.64-2.91.25-12.87.74-15.71-13.94s3.67-20,10.31-20.92S120.78,199,122.09,213.92Z"/><path class="cls-7" d="M119.53,210.59a9.13,9.13,0,0,1-1-.19,1.63,1.63,0,0,1-1-.38.54.54,0,0,1,0-.65,1.32,1.32,0,0,1,1.29-.35,2,2,0,0,1,1.24.65A.57.57,0,0,1,119.53,210.59Z"/><path class="cls-7" d="M110,210.9a8.56,8.56,0,0,0,1-.24,1.7,1.7,0,0,0,1-.44.54.54,0,0,0,0-.65,1.32,1.32,0,0,0-1.31-.27,2,2,0,0,0-1.2.72A.57.57,0,0,0,110,210.9Z"/><path class="cls-7" d="M112.07,214.62s-.08,0-.08.09c.09,1,0,2.19-.89,2.58,0,0,0,.06,0,.05C112.23,217.13,112.31,215.56,112.07,214.62Z"/><path class="cls-7" d="M111.1,213.6c-1.64,0-1.59,3.25-.07,3.29S112.48,213.63,111.1,213.6Z"/><path class="cls-7" d="M110.46,213.78c-.28.19-.56.53-.91.57s-.7-.3-1-.63c0,0,0,0,0,0,0,.63.24,1.27.92,1.36s1-.49,1.2-1.12C110.68,213.88,110.57,213.71,110.46,213.78Z"/><path class="cls-7" d="M117.66,214.37s.08,0,.08.09c0,1,.12,2.19,1,2.52a0,0,0,0,1,0,.06C117.65,216.88,117.48,215.33,117.66,214.37Z"/><path class="cls-7" d="M118.57,213.3c1.63-.13,1.78,3.15.26,3.27S117.2,213.41,118.57,213.3Z"/><path class="cls-7" d="M119.26,213.49c.27.16.54.46.85.47s.61-.36.82-.71c0,0,0,0,.06,0,0,.63-.14,1.29-.73,1.44s-1-.39-1.15-1C119.07,213.6,119.15,213.42,119.26,213.49Z"/><path class="cls-7" d="M111.77,222.64c.19.28.36.65.71.76a2.54,2.54,0,0,0,1.13,0s.06,0,0,.06a1.37,1.37,0,0,1-1.38.27,1.09,1.09,0,0,1-.59-1.05C111.66,222.6,111.74,222.6,111.77,222.64Z"/><path class="cls-7" d="M116.32,218.93s.24,1.52.26,2.23a3.85,3.85,0,0,1-3.78-1.06c-.06-.06,0-.15.1-.1a5.15,5.15,0,0,0,3.14.81c0-.2-.51-2.58-.4-2.59a6.2,6.2,0,0,1,1.64.33c-.43-3.17-1.36-6.25-1.73-9.41,0-.11.15-.15.18,0a52.41,52.41,0,0,1,2.3,10C118.1,219.55,116.61,219.05,116.32,218.93Z"/><path class="cls-7" d="M115.6,221.11a3.71,3.71,0,0,1-1.47,1.16,1.65,1.65,0,0,1-1,.07c-.74-.19-.76-.86-.63-1.43a4.32,4.32,0,0,1,.32-.89A4.77,4.77,0,0,0,115.6,221.11Z"/><path class="cls-14" d="M114.13,222.27a1.65,1.65,0,0,1-1,.07c-.74-.19-.76-.86-.63-1.43A1.72,1.72,0,0,1,114.13,222.27Z"/><path class="cls-7" d="M96.54,217.21c2.78.4,3.6-6,3.6-6s11.92-1.82,13.09-11.48a16.41,16.41,0,0,0,8.12,9.1s-.24-10.62-8.62-12.82c0,0-10.38-4-16.38,4.21S94.67,216.94,96.54,217.21Z"/><path class="cls-7" d="M113.29,199a10.57,10.57,0,0,1-.61,4.41,10.76,10.76,0,0,1-2.31,3.87,7.55,7.55,0,0,1-.81.79l-.42.39-.46.33c-.31.21-.61.44-.93.64s-.67.35-1,.52l-.5.25-.53.19-1,.39c-.72.18-1.45.33-2.17.47.68-.28,1.39-.5,2.06-.78l1-.47.5-.23c.15-.08.31-.19.46-.28l.93-.56c.3-.2.58-.43.86-.65l.44-.32.39-.37a9.08,9.08,0,0,0,.76-.76,12.76,12.76,0,0,0,2.32-3.6,12.5,12.5,0,0,0,.7-2.06A12.18,12.18,0,0,0,113.29,199Z"/><path class="cls-11" d="M98.31,216.68S95,212,92.93,213.18s.34,7.93,2.83,8.85a2.52,2.52,0,0,0,3.38-1.36Z"/><path class="cls-7" d="M93.68,215.1a0,0,0,0,0,0,.07,6.39,6.39,0,0,1,3.3,4,1.39,1.39,0,0,0-2.09-.38s0,.1.05.09a1.55,1.55,0,0,1,1.71.54,7.43,7.43,0,0,1,.83,1.38c.08.16.36.08.3-.1l0,0C97.8,218.43,96.07,215.33,93.68,215.1Z"/><path class="cls-8" d="M96,221.48a.64.64,0,0,0,1.24-.34.64.64,0,0,0-1.24.34Z"/><path class="cls-7" d="M96.37,221.39a.3.3,0,1,0,.21-.37A.29.29,0,0,0,96.37,221.39Z"/><path class="cls-8" d="M94.92,220.7a.45.45,0,0,0,.55.32.46.46,0,0,0,.32-.56.45.45,0,1,0-.87.24Z"/><path class="cls-11" d="M90.34,236.51s7.32,11.43,15.59,11.27c6.56-.12,7-7.89,7-7.89a16.06,16.06,0,0,0-12.12-6.37A17.9,17.9,0,0,0,90.34,236.51Z"/></g><g id="Speech_Bubble" data-name="Speech Bubble"><path class="cls-5" d="M170,181.34a21.73,21.73,0,0,1-36.32,13.75l-10.87,1.6,5.44-9.4A21.74,21.74,0,1,1,170,181.34Z"/><path class="cls-7" d="M170,181.34a21.86,21.86,0,0,1-4.38,11,25,25,0,0,1-2,2.27,23.6,23.6,0,0,1-2.3,1.94,21,21,0,0,1-5.24,2.92,21.8,21.8,0,0,1-5.86,1.4,23.39,23.39,0,0,1-3,.06,20.09,20.09,0,0,1-3-.32,21.92,21.92,0,0,1-10.76-5.31l.26.08-10.87,1.67-.79.12.4-.69,5.41-9.43,0,.38A22,22,0,1,1,170,181.34Zm0,0a21.51,21.51,0,0,0-24.65-23.53,21.46,21.46,0,0,0-9,3.55,22.3,22.3,0,0,0-6.5,7.1,21.41,21.41,0,0,0-1.23,18.66l.08.2-.11.18-5.47,9.38-.39-.57,10.89-1.53.15,0,.1.1a21.39,21.39,0,0,0,10.41,5.36,18.43,18.43,0,0,0,3,.36A20.59,20.59,0,0,0,156,199.3a20.19,20.19,0,0,0,5.25-2.83,23.17,23.17,0,0,0,2.29-1.91,23.43,23.43,0,0,0,2-2.25A21.76,21.76,0,0,0,170,181.34Z"/><polygon class="cls-9" points="145.83 191.48 136.54 182.08 139.66 179 145.09 184.49 156.35 166.82 160.05 169.18 145.83 191.48"/></g><g id="Plant"><path class="cls-9" d="M415.18,339s10-35.93,18-48.13,22.9-25.61,22.9-25.61S455.73,320.66,415.18,339Z"/><path class="cls-7" d="M415.9,338.39A174.47,174.47,0,0,0,425,321a121.67,121.67,0,0,1,5-18.9c0-.11.21-.05.18.07-1.33,5.67-2.87,11.3-4.28,17,4-8.75,7.88-17.6,12.7-25.87a55.16,55.16,0,0,1,4.64-11.5c0-.1.22,0,.17.07a73.41,73.41,0,0,0-3.12,8.62,86,86,0,0,1,7.61-10.5c.17-.21.52,0,.35.24-6.44,8.21-10.88,17.55-15.11,27a142.55,142.55,0,0,0,12.56-15.7.06.06,0,0,1,.09.07A129.06,129.06,0,0,1,432.33,309c-3.08,6.93-6.11,13.89-9.78,20.49,7.34-6.21,13-14.24,18.57-22a.17.17,0,0,1,.28.19c-5.59,8.5-11.38,16.5-19.42,22.79a89.25,89.25,0,0,1-5.38,8.4A.42.42,0,0,1,415.9,338.39Z"/><path class="cls-9" d="M412.08,342.24s18-33.13,12.76-65.25S414,233.43,414,233.43,385.73,283.39,412.08,342.24Z"/><path class="cls-7" d="M404.69,290.15a156.22,156.22,0,0,0,6.95,26.75c.05-11.78.27-23.57.59-35.36a90.54,90.54,0,0,1-3.4-22c0-.22.32-.21.33,0a125.31,125.31,0,0,0,3.16,18.9q.4-14.6.95-29.17a.13.13,0,0,1,.25,0c0,15.19,0,30.38-.1,45.57a122.12,122.12,0,0,0,5.18-18,.06.06,0,0,1,.11,0c-.54,7.1-2.7,14-5.31,20.54-.07,9.71-.18,19.42-.39,29.13,3-10.33,6.29-20.32,7.17-31.23a.12.12,0,0,1,.23,0c-.24,12-3.34,24.24-7.31,35.56a.58.58,0,0,1-.2.28q-.13,5.33-.31,10.65a.4.4,0,0,1-.79,0q-.21-10.89-.17-21.78a97.34,97.34,0,0,1-7.1-29.82C404.52,290.08,404.68,290.06,404.69,290.15Z"/><path class="cls-7" d="M405.92,285a61.69,61.69,0,0,1,1.26,8.75.09.09,0,0,1-.17,0,61.32,61.32,0,0,1-1.48-8.72C405.5,284.85,405.88,284.81,405.92,285Z"/><path class="cls-7" d="M416.44,260.81c0-.1.17-.07.17,0a22,22,0,0,1-.9,6c0,.16-.27.09-.24-.07C415.86,264.81,416.1,262.81,416.44,260.81Z"/><path class="cls-9" d="M405.51,344.77s.74-34.58-9.18-51.77S370,267.05,370,267.05,376.59,328,405.51,344.77Z"/><path class="cls-7" d="M387.43,315.2a128.45,128.45,0,0,0,13.43,17q-3-10.6-6.87-20.85c-5.56-4.88-11.08-9.93-14.49-16.61a.09.09,0,0,1,.16-.09c3.67,5.91,8.58,10.64,13.74,15.19a267.25,267.25,0,0,0-13.81-30.08.22.22,0,0,1,.38-.22,163.32,163.32,0,0,1,8.66,15.79c-.93-3.7-1.67-7.48-2.63-11.15a.08.08,0,0,1,.16,0,63,63,0,0,1,4.08,14.66A176.22,176.22,0,0,1,399,322.48c-.26-5.18-.58-10.35-1.12-15.52,0-.09.16-.12.18,0a84.16,84.16,0,0,1,1.5,17.42c1.43,5.15,2.63,10.37,3.6,15.62,0,.14-.18.2-.22.06-.54-2.2-1.12-4.38-1.72-6.56,0,0-.08,0-.11-.05-5.32-5.33-10.38-11.41-13.7-18.2C387.36,315.19,387.41,315.16,387.43,315.2Z"/><path class="cls-7" d="M375.94,287.06c1.11,1.19,2.12,2.45,3.19,3.68a28.16,28.16,0,0,1,2.85,3.33c0,.05,0,.11-.07.08a16.44,16.44,0,0,1-3.3-3.26,27.54,27.54,0,0,1-2.83-3.71A.1.1,0,0,1,375.94,287.06Z"/><path class="cls-8" d="M435,340.55l-1.25,16.38L430,406.45H397.1l-3.77-49.52-1.25-16.38H435Z"/><path class="cls-13" d="M435,340.55l-1.25,16.38H393.33l-1.25-16.38H435Z"/><rect class="cls-8" x="389.16" y="332.51" width="48.74" height="12.56" transform="translate(827.07 677.58) rotate(180)"/><text class="cls-15" transform="translate(220.5 108.44)">CANCELLED</text><text class="cls-16" transform="translate(204.29 255.7)">YOUR BOOKING IS CANCELLED</text></g></svg>