<svg id="Layer_1" data-name="Layer 1" xmlns="http://www.w3.org/2000/svg" viewBox="0 0 480 146"><defs><style>.cls-1{fill:#ffc300;}.cls-2{fill:#003566;}</style></defs><path class="cls-1" d="M78.43,111.43H60.5V65.83L40.22,99.11h-2L17.93,65.83v45.6H0V33H17.93L39.21,67.85,60.5,33H78.43Z"/><path class="cls-1" d="M88.17,86.11V33H106.1V84.54c0,5.94,2.8,11,12.32,11s12.33-5,12.33-11V33h17.92V86.11c0,16.81-13,26.89-30.25,26.89S88.17,102.92,88.17,86.11Z"/><path class="cls-1" d="M216.68,88.46c0,13.9-11.32,23-25.32,23H158.42V33h30.7c13.67,0,24.76,8.85,24.76,22.41A19.63,19.63,0,0,1,207,70.76,20.25,20.25,0,0,1,216.68,88.46ZM176.34,49.81V63.7h12.78a6.62,6.62,0,0,0,6.83-7,6.55,6.55,0,0,0-6.83-6.94Zm22.41,37.31c0-4.37-2.91-7.51-7.39-7.51h-15v15h15C195.84,94.62,198.75,91.49,198.75,87.12Z"/><path class="cls-2" d="M251.28,86.18h-8.34v25.25H225.37V34.57h30.74a26.28,26.28,0,0,1,26.35,26.35A25.32,25.32,0,0,1,268.3,83.21l16.36,28.22H265.78ZM242.94,70.8h13.17c4.83,0,8.79-4.28,8.79-9.88s-4-9.88-8.79-9.88H242.94Z"/><path class="cls-2" d="M307.39,34.57v76.86H289.82V34.57Z"/><path class="cls-2" d="M385.56,73c0,21.74-16.14,38.43-37.33,38.43H317.49V34.57h30.74C369.42,34.57,385.56,51.26,385.56,73Zm-16.91,0c0-13.18-8.34-21.52-20.42-21.52H335.05v43h13.18C360.31,94.52,368.65,86.18,368.65,73Z"/><path class="cls-2" d="M440.68,94.52v16.91H392.36V34.57h47.77V51.48h-30.2V64.21h27.45v16.7H409.93V94.52Z"/></svg>