<svg id="Layer_1" data-name="Layer 1" xmlns="http://www.w3.org/2000/svg" xmlns:xlink="http://www.w3.org/1999/xlink" viewBox="0 0 480 480"><defs><style>.cls-1{fill:#f7d8ba;}.cls-2,.cls-7{fill:none;stroke-linecap:round;stroke-linejoin:round;}.cls-2{stroke:#f2ba8c;stroke-width:3px;stroke-dasharray:12;}.cls-3{clip-path:url(#clip-path);}.cls-4{fill:#fff;}.cls-5{fill:#1e0b02;}.cls-6{fill:#c67d69;}.cls-7{stroke:#a8523f;stroke-width:2.84px;}</style><clipPath id="clip-path"><circle class="cls-1" cx="240" cy="240" r="215" transform="translate(-99.41 240) rotate(-45)"/></clipPath></defs><circle class="cls-2" cx="240" cy="240" r="225"/><circle class="cls-1" cx="240" cy="240" r="215" transform="translate(-99.41 240) rotate(-45)"/><g class="cls-3"><path class="cls-4" d="M450.81,466.42H36c19.13-85.86,70.46-103,70.46-103l99-46.28,37.49-.34h1l37.53.34,98.94,46.28S431.69,380.56,450.81,466.42Z"/><path class="cls-5" d="M266.07,70.48s34.53-15.39,46.76,13.71c11.79,28-35,54.69-35,54.69Z"/><path class="cls-6" d="M201.5,186.59a23.43,23.43,0,1,1-24.08-22.76A23.43,23.43,0,0,1,201.5,186.59Z"/><path class="cls-7" d="M164.78,184s9.31-4.54,18.19,11.64"/><circle class="cls-6" cx="310.46" cy="187.25" r="23.43"/><path class="cls-7" d="M323.67,183.58s-9.44-4.27-17.86,12.16"/><path class="cls-6" d="M274.33,241.23s-13.21,9.32-25.25,11.62-23.74-4.68-23.89-4.77L211.14,240l-5.76,77.11,1.56,1.29a55.84,55.84,0,0,0,70.46.48l3-2.43Z"/><path class="cls-5" d="M205.38,231.89s13.13,43,43.34,42.49c24.83-.39,28.83-42.49,28.83-42.49Z"/><path class="cls-6" d="M307.53,146.46a291.24,291.24,0,0,1-7.23,65.6c-3.61,15.89-14,27-28.62,36.05L269,249.75a51,51,0,0,1-51.44.83h0c-16-9.11-27.19-21.16-30.71-38.19-6.4-31-7.25-65.28-7.25-65.28s-9-71.63,60-70.68S307.53,146.46,307.53,146.46Z"/><circle class="cls-5" cx="213.81" cy="167.48" r="5.58"/><circle class="cls-5" cx="268.59" cy="167.48" r="5.58"/><polyline class="cls-7" points="236.13 175.63 236.13 191.03 246.08 191.03"/><path d="M193,143.88l36.48-3.29s-3.26-9.45-18-7.92C196.38,134.24,193,143.88,193,143.88Z"/><path d="M287,143.88l-36.48-3.29s3.26-9.45,18-7.92C283.66,134.24,287,143.88,287,143.88Z"/><path class="cls-4" d="M223.65,203.78h36s-1.69,11-18.52,11S223.65,203.78,223.65,203.78Z"/><path class="cls-5" d="M182,181s10.22-77.47,5.22-90.24C187.17,90.77,152.42,119.51,182,181Z"/><path class="cls-5" d="M304.93,180.39s-11.5-74-8.31-95.27C296.62,85.12,330.17,114.84,304.93,180.39Z"/><path class="cls-5" d="M294.22,79.84,262.41,75l-2.8-5.5-16.79,2.54L226,69.53,223.22,75l-31.81,4.81-4.24,17,1.05,19.62s5-22.25,22.56-17.82c4.14,1,9.08,2.78,14.87,3.94a78,78,0,0,0,15.41,1.8h3.51A78,78,0,0,0,260,102.6a114.92,114.92,0,0,0,14.87-3.94c16.25-5.66,22.24,16.81,22.24,16.81l1.37-18.61Z"/><path class="cls-5" d="M293.58,99.21s-20.69,18.46-47.19,4.27c0,0-67.44,41.55-86.47-3.68-15.87-37.7,50-88.87,118-31.21Z"/><path class="cls-6" d="M205.38,317.11l-22.1,10.16s-.25,37.06,59.82,35.14c61.59-2,61.23-34.58,61.23-34.58l-23.91-11.38Z"/></g></svg>