<svg id="Layer_1" data-name="Layer 1" xmlns="http://www.w3.org/2000/svg" xmlns:xlink="http://www.w3.org/1999/xlink" viewBox="0 0 480 480"><defs><style>.cls-1{fill:none;}.cls-2{clip-path:url(#clip-path);}.cls-3{fill:#fce3c3;}.cls-4{fill:#ffcfca;}.cls-5{fill:#534741;}.cls-6{fill:#f9bfbb;}.cls-7{fill:#397272;}.cls-8{fill:#306664;}.cls-9{fill:#211a17;}.cls-10{fill:#ce7872;}.cls-11{fill:#fff;}.cls-12{fill:#ea8c8b;}.cls-13{fill:#fbb03b;}</style><clipPath id="clip-path"><circle class="cls-1" cx="240.21" cy="240.25" r="209.9"/></clipPath></defs><g class="cls-2"><circle class="cls-3" cx="240.21" cy="240.25" r="209.9"/><path class="cls-4" d="M542.45,740.69Q534.72,721.34,527,702c-4.94-12.38-9.26-23-15.76-34.71-2.68-4.79-6.32-11-9.34-15.81l-43.44-79.88L431,521c-6-11.06-12.05-22.16-16.63-33.89-5.68-14.54-9.06-29.86-12.13-45.16-2.26-11.26-4.38-22.57-6.65-33.85-6.6,2.94-13.2,5.9-19.75,9-14.06,6.55-28,13.39-42.18,19.85,10.71,31.25,22.41,62,38.53,90.81C401,579.19,443.65,619.7,478.45,667.27c1.26,1.72.7,6.89.82,9.09.38,7.12-.21,14.22.66,21.32a99.55,99.55,0,0,0,4.95,21.06c1.1,3.08,4.07,5.91,7.22,3.15a3.62,3.62,0,0,0,.81-.68c3.11-3.31,3.13-7.84,2.93-12.1-.22-4.86,0-9.46,2.15-13.92a4.37,4.37,0,0,1,2.85-2.59,4.83,4.83,0,0,1,2.4.29,13.22,13.22,0,0,1,6.14,4.49,23.91,23.91,0,0,1,2.23,3.39c.64,1.14,1.21,2.32,1.77,3.51.69,1.47,1.33,3,2,4.36l.42.84.39.77,2.49,5q2.26,4.5,4.54,9l4,7.85c2.31,4.58,4.79,9.71,8.92,13C539.21,747.44,544.15,744.94,542.45,740.69Z"/><path class="cls-4" d="M156.17,328.47c-46.19,0-90.43,145.87-91.57,147.76-1,1.62-92.86,136.92-93.13,137.25,0,0-31.19,31.38-38.81,40.82-5.14,6.4-10.51,13-13.79,20.56-3.49,8-5.62,16.45-7.9,24.85a10.82,10.82,0,0,0-.56,4c.3,2.43,3,4.55,5.41,3.44,5.31-2.38,7.14-9.34,8.69-14.4,1.44-4.7,2.63-9.53,4.85-13.95s5.47-7.54,9.37-10.43c2.8-2.09,5.51-4.27,8.38-6.3a26.57,26.57,0,0,1,3.44-2.17,9.73,9.73,0,0,1,5.2-1.26c1.53.12,3.75.86,4.65,2.2s-.09,3.2-.71,4.57a22.37,22.37,0,0,1-2.93,4.45c-1.9,2.36-4.11,4.69-5.26,7.52a10.3,10.3,0,0,0-.5,1.48c-1.4,5.41,2.7,13.21,8.74,8.31a21,21,0,0,0,3.33-3.71c4.88-6.27,11.11-11.54,14.77-18.62a134.34,134.34,0,0,0,6-14c3.39-8.84,4.86-14.16,5.5-18.4v0l.11-.16c.71-.57,84.38-75.58,133.7-142.8,11.55-15.75,39.87-77.72,53.58-122.69C179.53,357.54,164.78,337.42,156.17,328.47Z"/><path class="cls-4" d="M222.77,224.47c14,7.14,28.19,13.74,42.51,20.15a66.21,66.21,0,0,0,13.28,4.83l1,26.13.82,22.39a16.23,16.23,0,0,1-2.67,1.41,28.95,28.95,0,0,1-54.73-2.51l-.8-.24c0-1.13,0-2.26,0-3.39a28.56,28.56,0,0,1-.34-4.46,29,29,0,0,1,.3-4.2c0-1.95,0-3.91,0-5.86,0-7.46-.07-14.94-.84-22.37q-.36-3.41-.91-6.8c-.87-5.62-2.06-11.19-3.25-16.78-1-4.57-1.95-9.17-2.93-13.74C216.88,221.51,219.46,222.78,222.77,224.47Z"/><path class="cls-5" d="M307.41,179.49A77.67,77.67,0,0,1,285,228.1a61.36,61.36,0,0,1-20.68,13.74,65.17,65.17,0,0,1-27,3.87,45.19,45.19,0,0,1-15.78-3.25c-5.94-2.58-10.9-7-15.52-11.48-7.9-7.75-15.18-16.24-20.58-25.89s-8.88-20.55-8.84-31.61a28.52,28.52,0,0,1,1.89-11c1.93-4.61,5.54-8.29,9.24-11.66,12.21-11.13,26.54-20.25,42.45-24.66,16.47-4.57,33.86-3.95,50.93-3.3,4.32.16,8.27,1,11.74,3.72,2.84,2.22,4.39,6,5.95,9.13a86.06,86.06,0,0,1,8.23,27.78A81,81,0,0,1,307.41,179.49Z"/><path class="cls-6" d="M279.52,275.58A160.55,160.55,0,0,1,233.94,258c-4.5-2.61-9.17-5.4-13.62-8.43-.87-5.62-2.06-11.19-3.25-16.78-1-4.57-1.95-9.17-2.93-13.74,2.74,2.48,5.32,3.75,8.63,5.44,14,7.14,28.19,13.74,42.51,20.15a66.21,66.21,0,0,0,13.28,4.83Z"/><path class="cls-4" d="M305.5,170.94a117.52,117.52,0,0,0-3.64-11.89,63.93,63.93,0,0,0-23.71-30.89c-21.12-14.26-50.63-10.77-67.66,8a53.28,53.28,0,0,0-9.63,15c-5.74,13.44-6,27.9-2.91,41.82a109,109,0,0,0,14.86,34.63,89.67,89.67,0,0,0,14.55,17.64,65,65,0,0,0,10.6,8,52.71,52.71,0,0,0,25.22,7.84,41.58,41.58,0,0,0,23.14-6.12c7.69-4.81,12.35-12.2,15.68-20.31C310.22,214.63,310.7,191.87,305.5,170.94Z"/><path class="cls-4" d="M216.52,223.35A24.89,24.89,0,0,1,192,221.84a24.49,24.49,0,0,1-10.52-18.23,23.71,23.71,0,0,1,.05-4,17.66,17.66,0,0,1,1.92-6.63,15.24,15.24,0,0,1,14.38-7.53,17.62,17.62,0,0,1,13.69,9.18l1.93,11Z"/><path class="cls-5" d="M240.61,155.71c12.9-2.43,25.83-5.31,38-9.88,9.92-3.71,20.91-10.85,23.57-21.58,3.33-13.43-8-23.74-19.2-29C261.07,85,234,86.78,213.92,100.63a65.9,65.9,0,0,0-25.51,34.87c-2.41,8-3.42,20.12,6,23.84,10.95,4.32,24.5.27,35.62-1.71C233.55,157,237.08,156.38,240.61,155.71Z"/><path class="cls-5" d="M166.52,158.53c1.13-8.31,4.8-16,11.57-20.3,9.83-6.25,24.7-4.49,30.67,6.2,3.9,7,4,15.9,2.9,23.62a26.31,26.31,0,0,1-3.38,10.36c-1.3,2.1-5.68,7.53-8.62,7.1-1-.15-2-.28-2.83-.34l-.51,0a16.49,16.49,0,0,0-8.39,2.27,12.54,12.54,0,0,0-4.66,4.28c-3.68,4-9.23-2.93-11.18-5.87C167.36,178.72,165.22,168.19,166.52,158.53Z"/><path class="cls-7" d="M358.46,460.4l-.35.16c3.54,59.1,5.6,176.94,10.12,226.69-69-4.25-171.06-.38-231.7-7.76-1.63-30.31,0-102,8.34-196.89q1.22-14,2.84-28.66c0-.3.07-.61.1-.92l-.12-.08c-9-6.14-19-11.66-29.06-17.09-14-7.55-28-14.92-39.46-23.49-1-.75,13.27-25.24,13.89-26.53,19.47-40.55,53.09-83.52,99.37-93.44,2.72-.58,29.33-3.61,29.38-4.82,0,.4,0,.8,0,1.21a28.95,28.95,0,1,0,57.89,0c0-.39,0-.77,0-1.16A145.92,145.92,0,0,1,385.5,373c1.67,3.81,3.21,7.66,4.66,11.55,6,16.17,10.69,32.79,15.73,49.26a209.39,209.39,0,0,1-19.78,12.85A254.07,254.07,0,0,1,358.46,460.4Z"/><path class="cls-8" d="M357.7,406.09c1.07,18.09-.22,36.24.76,54.32a256,256,0,0,0,27.65-13.75,71.71,71.71,0,0,1-10.92-14.85c-7.13-12.93-10.08-27.67-14-41.9s-9.06-27.79-19.71-38C352.54,367.48,356.57,387,357.7,406.09Z"/><path class="cls-9" d="M248.14,167.94a19.77,19.77,0,0,1,3.44.07l6.08.49c.67.06,1.51,0,1.8-.58a1.17,1.17,0,0,0,0-1c-.49-1.17-1.93-1.57-3.19-1.73a18.32,18.32,0,0,0-9.33,1.06c-.57.24-3.83,1.73-3.6,2.49S247.49,168,248.14,167.94Z"/><path class="cls-9" d="M292.32,166.57a18.68,18.68,0,0,0-3.42.32l-6,.94c-.66.1-1.5.13-1.84-.46a1.17,1.17,0,0,1,0-1c.4-1.2,1.81-1.7,3.05-2a18.31,18.31,0,0,1,9.38.37c.59.2,3.95,1.44,3.78,2.22S293,166.59,292.32,166.57Z"/><path class="cls-10" d="M288.72,219.84c-2.27,5.91-6.45,10-11.52,10.41-4.88.4-9.5-2.69-12.71-7.8a30.12,30.12,0,0,1-4.21-12.92l1-.08,28.21-2.32,1.05-.09A30.23,30.23,0,0,1,288.72,219.84Z"/><path class="cls-11" d="M289.45,207.13a17.42,17.42,0,0,1-28.21,2.32Z"/><path class="cls-12" d="M288.72,219.84c-2.27,5.91-6.45,10-11.52,10.41-4.88.4-9.5-2.69-12.71-7.8a29.81,29.81,0,0,1,4.33-2.37,23.58,23.58,0,0,1,19.9-.24Z"/><path class="cls-9" d="M259.32,186.21c.11,3.85-2,7-4.71,7.11s-5-3-5.12-6.81,2-7,4.71-7.11S259.2,182.37,259.32,186.21Z"/><path class="cls-11" d="M255.76,184a1.23,1.23,0,0,0,.07,2.46A1.23,1.23,0,0,0,255.76,184Z"/><path class="cls-9" d="M285.53,185.42c.11,3.85,2.41,6.9,5.12,6.82s4.82-3.27,4.71-7.11-2.41-6.9-5.13-6.82S285.41,181.58,285.53,185.42Z"/><path class="cls-11" d="M291.9,182.16a1.23,1.23,0,0,0,.07,2.46A1.23,1.23,0,0,0,291.9,182.16Z"/><path class="cls-10" d="M277.13,194.07a4.5,4.5,0,0,0-5.6.15l4.38,7.57a3.33,3.33,0,0,0,2.67-2.23A4.85,4.85,0,0,0,277.13,194.07Z"/><path class="cls-6" d="M238.44,194.49c-7.22.5-12.75,5.67-12.34,11.53s6.59,10.23,13.81,9.72,12.75-5.66,12.35-11.53S245.66,194,238.44,194.49Z"/><path class="cls-6" d="M308,198.05c-.22-3.29-3.7-5.73-7.75-5.45s-7.15,3.18-6.92,6.47,3.69,5.74,7.75,5.46S308.2,201.35,308,198.05Z"/><path class="cls-8" d="M158.8,381.93a474.6,474.6,0,0,0-11.11,71c-9-6.14-19-11.66-29.06-17.09,3-2.08,5.88-4.26,8.69-6.59,10-8.34,18.79-18.55,23.91-30.57C153.73,392.81,154.84,386.94,158.8,381.93Z"/></g><path class="cls-13" d="M240.11,465a1.2,1.2,0,1,1,0-2.39c2.09,0,4.23,0,6.35-.09a1.18,1.18,0,0,1,1.23,1.16,1.2,1.2,0,0,1-1.16,1.23C244.39,465,242.23,465,240.11,465Zm-6.39-.09h0c-2.13-.06-4.28-.15-6.41-.26a1.2,1.2,0,1,1,.13-2.39c2.11.12,4.24.21,6.35.26a1.2,1.2,0,0,1,0,2.39Zm19.16-.27a1.2,1.2,0,0,1-1.19-1.13,1.19,1.19,0,0,1,1.12-1.26c2.11-.12,4.24-.27,6.34-.45a1.19,1.19,0,1,1,.21,2.38c-2.13.18-4.28.33-6.41.45ZM221,464.2h-.1c-2.13-.18-4.28-.39-6.39-.63a1.2,1.2,0,0,1,.26-2.38c2.1.24,4.23.45,6.33.63a1.19,1.19,0,0,1-.1,2.38Zm44.65-.65a1.19,1.19,0,0,1-.13-2.38c2.09-.24,4.21-.51,6.3-.81a1.19,1.19,0,1,1,.34,2.36c-2.11.31-4.26.58-6.37.82Zm-57.35-.78-.17,0c-2.11-.29-4.24-.63-6.35-1a1.19,1.19,0,0,1,.41-2.35c2.08.35,4.19.68,6.28,1a1.2,1.2,0,0,1-.17,2.38Zm70-1a1.19,1.19,0,0,1-.2-2.37c2.07-.36,4.17-.75,6.25-1.17a1.19,1.19,0,1,1,.47,2.34c-2.1.43-4.22.82-6.31,1.18A.75.75,0,0,1,278.26,461.74Zm-82.6-1.13-.23,0c-2.1-.43-4.21-.88-6.28-1.36a1.19,1.19,0,0,1-.9-1.43,1.2,1.2,0,0,1,1.44-.9c2,.47,4.13.93,6.21,1.34a1.2,1.2,0,0,1-.24,2.37Zm95.13-1.4a1.2,1.2,0,0,1-.27-2.36c2-.47,4.12-1,6.17-1.52a1.19,1.19,0,0,1,.61,2.31c-2.07.54-4.17,1.06-6.24,1.54Zm-107.58-1.48a1,1,0,0,1-.3,0c-2.07-.54-4.16-1.12-6.19-1.71a1.2,1.2,0,0,1,.67-2.3c2,.59,4.07,1.17,6.12,1.7a1.19,1.19,0,0,1-.3,2.35ZM303.15,456a1.2,1.2,0,0,1-.33-2.35c2-.59,4.07-1.22,6.07-1.87a1.19,1.19,0,0,1,.74,2.27c-2,.65-4.09,1.29-6.14,1.9A1.33,1.33,0,0,1,303.15,456ZM171,454.14a1.5,1.5,0,0,1-.37-.05c-2-.66-4.09-1.36-6.11-2.08a1.2,1.2,0,1,1,.81-2.25c2,.71,4,1.4,6,2.05a1.19,1.19,0,0,1-.36,2.33ZM315.31,452a1.2,1.2,0,0,1-.41-2.32c2-.7,4-1.45,6-2.22a1.2,1.2,0,0,1,.87,2.23c-2,.78-4,1.53-6,2.25A1.39,1.39,0,0,1,315.31,452Zm-156.44-2.17a1.14,1.14,0,0,1-.44-.08c-2-.77-4-1.59-6-2.42a1.2,1.2,0,0,1-.63-1.57,1.19,1.19,0,0,1,1.56-.63c2,.82,3.94,1.63,5.91,2.39a1.2,1.2,0,0,1,.68,1.55A1.19,1.19,0,0,1,158.87,449.84Zm168.32-2.46a1.2,1.2,0,0,1-.46-2.3c1.92-.81,3.87-1.67,5.8-2.55a1.19,1.19,0,1,1,1,2.17c-1.95.9-3.92,1.76-5.86,2.59A1.27,1.27,0,0,1,327.19,447.38Zm-180.13-2.53a1.09,1.09,0,0,1-.49-.11c-1.94-.88-3.9-1.81-5.82-2.76a1.19,1.19,0,0,1,1.06-2.14c1.89.93,3.83,1.85,5.75,2.73a1.19,1.19,0,0,1-.5,2.28Zm191.72-2.77a1.2,1.2,0,0,1-.53-2.27c1.89-.93,3.79-1.9,5.65-2.88A1.19,1.19,0,0,1,345,439c-1.87,1-3.79,2-5.7,2.91A1.12,1.12,0,0,1,338.78,442.08ZM135.57,439.2a1.21,1.21,0,0,1-.55-.14c-1.88-1-3.78-2-5.65-3.09a1.2,1.2,0,1,1,1.18-2.08c1.85,1.05,3.73,2.07,5.58,3.05a1.2,1.2,0,0,1-.56,2.26Zm214.48-3.08a1.2,1.2,0,0,1-.59-2.24c1.84-1,3.68-2.11,5.48-3.2a1.2,1.2,0,0,1,1.23,2.05c-1.81,1.1-3.68,2.18-5.53,3.23A1.16,1.16,0,0,1,350.05,436.12Zm-225.62-3.23a1.13,1.13,0,0,1-.61-.17c-1.82-1.1-3.66-2.24-5.46-3.4a1.19,1.19,0,1,1,1.29-2c1.78,1.14,3.6,2.28,5.4,3.37a1.19,1.19,0,0,1-.62,2.21ZM361,429.52a1.19,1.19,0,0,1-.65-2.2c1.76-1.13,3.54-2.31,5.29-3.51a1.19,1.19,0,1,1,1.35,2c-1.77,1.21-3.57,2.41-5.34,3.55A1.2,1.2,0,0,1,361,429.52ZM113.67,426a1.17,1.17,0,0,1-.67-.2c-1.75-1.2-3.52-2.45-5.25-3.71a1.19,1.19,0,1,1,1.4-1.93c1.72,1.24,3.47,2.48,5.2,3.66a1.19,1.19,0,0,1-.68,2.18Zm257.83-3.65a1.21,1.21,0,0,1-1-.49,1.19,1.19,0,0,1,.27-1.67c1.7-1.24,3.41-2.52,5.08-3.8a1.18,1.18,0,0,1,1.67.21,1.2,1.2,0,0,1-.21,1.68c-1.68,1.29-3.41,2.59-5.14,3.85A1.21,1.21,0,0,1,371.5,422.31Zm-268.17-3.87a1.19,1.19,0,0,1-.73-.25c-1.69-1.3-3.38-2.65-5-4a1.19,1.19,0,1,1,1.51-1.85c1.64,1.34,3.31,2.67,5,4a1.19,1.19,0,0,1-.73,2.14Zm278.28-3.93a1.22,1.22,0,0,1-.93-.43,1.2,1.2,0,0,1,.17-1.69c1.64-1.33,3.27-2.71,4.86-4.09a1.19,1.19,0,0,1,1.56,1.81c-1.6,1.39-3.25,2.78-4.91,4.13A1.19,1.19,0,0,1,381.61,414.51ZM93.44,410.34a1.24,1.24,0,0,1-.79-.29c-1.61-1.4-3.22-2.84-4.79-4.28A1.2,1.2,0,0,1,89.48,404c1.55,1.42,3.14,2.85,4.74,4.23a1.2,1.2,0,0,1-.78,2.1Zm297.82-4.19a1.2,1.2,0,0,1-.81-2.08c1.55-1.42,3.11-2.88,4.62-4.36a1.2,1.2,0,0,1,1.67,1.72c-1.54,1.49-3.11,3-4.67,4.4A1.2,1.2,0,0,1,391.26,406.15ZM84,401.69a1.2,1.2,0,0,1-.83-.33c-1.52-1.48-3-3-4.54-4.54a1.2,1.2,0,1,1,1.71-1.67c1.48,1.52,3,3,4.5,4.49a1.2,1.2,0,0,1-.84,2.05Zm316.41-4.44a1.25,1.25,0,0,1-.84-.34,1.2,1.2,0,0,1,0-1.69c1.47-1.51,2.94-3.07,4.37-4.62a1.19,1.19,0,0,1,1.69-.07,1.21,1.21,0,0,1,.07,1.69c-1.45,1.57-2.93,3.14-4.42,4.66A1.15,1.15,0,0,1,400.43,397.25ZM75.12,392.53a1.19,1.19,0,0,1-.88-.38c-1.44-1.57-2.87-3.18-4.28-4.79a1.2,1.2,0,1,1,1.81-1.57c1.38,1.6,2.81,3.2,4.23,4.74a1.2,1.2,0,0,1-.08,1.69A1.15,1.15,0,0,1,75.12,392.53Zm334-4.69a1.2,1.2,0,0,1-.91-2c1.39-1.6,2.77-3.23,4.1-4.86a1.19,1.19,0,0,1,1.85,1.51c-1.35,1.65-2.74,3.3-4.14,4.91A1.18,1.18,0,0,1,409.08,387.84Zm-342.33-5a1.22,1.22,0,0,1-.93-.43c-1.35-1.66-2.7-3.35-4-5A1.19,1.19,0,0,1,63.72,376c1.28,1.66,2.61,3.33,4,5a1.2,1.2,0,0,1-.92,1.95ZM417.18,378a1.24,1.24,0,0,1-.73-.25,1.21,1.21,0,0,1-.22-1.68c1.29-1.66,2.58-3.38,3.82-5.09a1.2,1.2,0,1,1,1.93,1.41c-1.26,1.73-2.56,3.46-3.86,5.14A1.16,1.16,0,0,1,417.18,378ZM58.94,372.78a1.18,1.18,0,0,1-1-.49c-1.25-1.71-2.49-3.47-3.71-5.24a1.2,1.2,0,0,1,.31-1.66,1.18,1.18,0,0,1,1.66.31c1.2,1.74,2.44,3.49,3.67,5.18a1.2,1.2,0,0,1-.26,1.67A1.25,1.25,0,0,1,58.94,372.78Zm365.77-5.17a1.2,1.2,0,0,1-1-1.87c1.19-1.74,2.38-3.53,3.52-5.3a1.19,1.19,0,1,1,2,1.29c-1.16,1.8-2.36,3.6-3.56,5.36A1.19,1.19,0,0,1,424.71,367.61Zm-373-5.36a1.2,1.2,0,0,1-1-.55c-1.15-1.78-2.29-3.61-3.39-5.44a1.19,1.19,0,1,1,2-1.23c1.09,1.8,2.22,3.61,3.36,5.38a1.19,1.19,0,0,1-1,1.84Zm379.91-5.4a1.19,1.19,0,0,1-.62-.17,1.2,1.2,0,0,1-.4-1.64c1.09-1.81,2.18-3.66,3.22-5.49a1.19,1.19,0,1,1,2.08,1.17c-1.06,1.86-2.15,3.73-3.26,5.56A1.17,1.17,0,0,1,431.64,356.85ZM45.13,351.34a1.19,1.19,0,0,1-1-.61C43,348.88,42,347,41,345.11A1.19,1.19,0,1,1,43.12,344c1,1.86,2,3.73,3.05,5.56a1.2,1.2,0,0,1-.45,1.63A1.16,1.16,0,0,1,45.13,351.34ZM438,345.71a1.14,1.14,0,0,1-.56-.14,1.19,1.19,0,0,1-.49-1.61c1-1.88,2-3.78,2.89-5.67a1.2,1.2,0,0,1,2.15,1c-.94,1.91-1.93,3.84-2.93,5.74A1.21,1.21,0,0,1,438,345.71ZM39.16,340.07a1.2,1.2,0,0,1-1.07-.67c-.93-1.9-1.86-3.84-2.75-5.78a1.21,1.21,0,0,1,.59-1.59,1.19,1.19,0,0,1,1.58.59c.88,1.92,1.8,3.85,2.73,5.72a1.2,1.2,0,0,1-.55,1.6A1.12,1.12,0,0,1,39.16,340.07Zm404.45-5.85a1.23,1.23,0,0,1-.49-.1,1.2,1.2,0,0,1-.59-1.59c.88-1.93,1.75-3.89,2.57-5.83a1.19,1.19,0,0,1,2.2.93c-.83,2-1.71,3.95-2.6,5.9A1.18,1.18,0,0,1,443.61,334.22ZM33.86,328.48a1.18,1.18,0,0,1-1.1-.73c-.83-1.95-1.64-3.94-2.42-5.93a1.2,1.2,0,0,1,2.23-.86c.76,2,1.57,3.93,2.39,5.86a1.21,1.21,0,0,1-.64,1.57A1.25,1.25,0,0,1,33.86,328.48Zm414.75-6.05a1.15,1.15,0,0,1-.44-.09,1.2,1.2,0,0,1-.68-1.54c.78-2,1.53-4,2.23-6a1.2,1.2,0,0,1,1.53-.72,1.19,1.19,0,0,1,.72,1.53c-.71,2-1.47,4-2.25,6A1.18,1.18,0,0,1,448.61,322.43ZM29.21,316.6a1.19,1.19,0,0,1-1.12-.79c-.72-2-1.42-4.07-2.08-6.08a1.2,1.2,0,0,1,2.28-.74c.64,2,1.34,4,2.05,6a1.2,1.2,0,0,1-.72,1.53A1.18,1.18,0,0,1,29.21,316.6Zm423.71-6.25a1.15,1.15,0,0,1-.37-.06,1.19,1.19,0,0,1-.77-1.5c.65-2,1.28-4.05,1.88-6.08a1.19,1.19,0,0,1,2.29.67c-.6,2.06-1.24,4.12-1.9,6.14A1.18,1.18,0,0,1,452.92,310.35Zm-427.66-5.9a1.21,1.21,0,0,1-1.15-.86c-.6-2-1.18-4.13-1.72-6.19a1.19,1.19,0,1,1,2.31-.61c.53,2,1.11,4.1,1.7,6.13a1.19,1.19,0,0,1-.8,1.48A1.4,1.4,0,0,1,25.26,304.45Zm431.25-6.37-.3,0a1.21,1.21,0,0,1-.86-1.46c.54-2,1-4.11,1.53-6.17a1.19,1.19,0,1,1,2.32.54c-.48,2.08-1,4.18-1.53,6.23A1.19,1.19,0,0,1,456.51,298.08Zm-434.5-6a1.2,1.2,0,0,1-1.17-.93c-.48-2.08-.94-4.19-1.36-6.27a1.19,1.19,0,1,1,2.34-.48c.42,2.07.87,4.15,1.35,6.21a1.2,1.2,0,0,1-.89,1.44Zm437.39-6.46a1,1,0,0,1-.24,0,1.2,1.2,0,0,1-.94-1.41c.42-2.06.81-4.16,1.17-6.24a1.19,1.19,0,1,1,2.35.4c-.36,2.11-.76,4.23-1.17,6.32A1.21,1.21,0,0,1,459.4,285.63ZM19.47,279.56a1.2,1.2,0,0,1-1.18-1c-.36-2.11-.7-4.25-1-6.34a1.2,1.2,0,1,1,2.37-.34c.29,2.07.63,4.19,1,6.27a1.21,1.21,0,0,1-1,1.39ZM461.56,273h-.17a1.21,1.21,0,0,1-1-1.35c.3-2.1.57-4.22.81-6.31a1.19,1.19,0,0,1,2.37.27c-.23,2.11-.51,4.25-.81,6.37A1.19,1.19,0,0,1,461.56,273ZM17.65,266.91a1.2,1.2,0,0,1-1.18-1.06c-.24-2.13-.46-4.28-.64-6.39a1.19,1.19,0,0,1,2.38-.2c.18,2.09.39,4.22.63,6.32a1.19,1.19,0,0,1-1.05,1.33ZM463,260.34h-.1a1.2,1.2,0,0,1-1.09-1.29c.18-2.12.33-4.25.44-6.34a1.22,1.22,0,0,1,1.26-1.13,1.2,1.2,0,0,1,1.13,1.26c-.12,2.12-.27,4.27-.45,6.41A1.2,1.2,0,0,1,463,260.34ZM16.56,254.18a1.2,1.2,0,0,1-1.19-1.13c-.12-2.13-.21-4.29-.27-6.41a1.2,1.2,0,0,1,1.16-1.23h0a1.2,1.2,0,0,1,1.2,1.16c.06,2.1.15,4.24.27,6.35a1.2,1.2,0,0,1-1.13,1.26Zm447.16-6.6h0a1.19,1.19,0,0,1-1.16-1.22c.06-2.12.09-4.26.09-6.36v-.42a1.2,1.2,0,1,1,2.39,0V240c0,2.12,0,4.28-.09,6.42A1.19,1.19,0,0,1,463.72,247.58ZM16.19,241.41a1.2,1.2,0,0,1-1.19-1.2V240c0-2.07,0-4.16.08-6.21a1.2,1.2,0,0,1,2.39.06c0,2-.08,4.1-.08,6.15v.21A1.2,1.2,0,0,1,16.19,241.41Zm447.51-7a1.2,1.2,0,0,1-1.19-1.16c-.06-2.1-.16-4.24-.28-6.36a1.2,1.2,0,1,1,2.39-.13c.12,2.14.22,4.3.28,6.42a1.19,1.19,0,0,1-1.16,1.22ZM16.54,228.63h-.06a1.2,1.2,0,0,1-1.13-1.26c.12-2.12.27-4.28.44-6.41a1.22,1.22,0,0,1,1.29-1.09,1.19,1.19,0,0,1,1.09,1.29c-.17,2.11-.32,4.24-.44,6.34A1.19,1.19,0,0,1,16.54,228.63Zm446.42-7a1.2,1.2,0,0,1-1.19-1.1c-.18-2.1-.4-4.23-.64-6.32a1.2,1.2,0,0,1,2.38-.27c.24,2.11.46,4.26.64,6.39a1.19,1.19,0,0,1-1.08,1.29ZM17.61,215.9h-.14a1.2,1.2,0,0,1-1-1.32c.24-2.12.51-4.26.81-6.37a1.2,1.2,0,0,1,2.37.33c-.3,2.09-.57,4.21-.8,6.31A1.2,1.2,0,0,1,17.61,215.9Zm443.89-7a1.19,1.19,0,0,1-1.18-1c-.31-2.1-.64-4.21-1-6.28a1.19,1.19,0,1,1,2.35-.41c.37,2.1.7,4.23,1,6.35a1.2,1.2,0,0,1-1,1.35ZM19.4,203.24h-.2a1.2,1.2,0,0,1-1-1.38c.36-2.1.75-4.23,1.17-6.32a1.2,1.2,0,0,1,2.35.47c-.42,2.07-.81,4.17-1.16,6.25A1.2,1.2,0,0,1,19.4,203.24Zm439.91-6.9a1.19,1.19,0,0,1-1.17-1c-.42-2-.88-4.14-1.36-6.21a1.2,1.2,0,0,1,2.33-.54c.49,2.09.95,4.2,1.37,6.28a1.2,1.2,0,0,1-.93,1.41Zm-437.4-5.63-.27,0a1.19,1.19,0,0,1-.89-1.43c.47-2.07,1-4.17,1.53-6.24a1.19,1.19,0,1,1,2.31.61c-.53,2-1,4.12-1.51,6.17A1.2,1.2,0,0,1,21.91,190.71ZM456.4,183.9a1.19,1.19,0,0,1-1.15-.89c-.54-2-1.12-4.11-1.71-6.12a1.19,1.19,0,1,1,2.29-.68c.6,2,1.18,4.12,1.73,6.19a1.19,1.19,0,0,1-.85,1.46A1.65,1.65,0,0,1,456.4,183.9ZM25.14,178.35a1.4,1.4,0,0,1-.34,0,1.2,1.2,0,0,1-.81-1.48c.6-2,1.23-4.1,1.89-6.14a1.2,1.2,0,0,1,1.51-.77,1.18,1.18,0,0,1,.76,1.5c-.65,2-1.28,4.06-1.86,6.08A1.21,1.21,0,0,1,25.14,178.35Zm427.65-6.71a1.19,1.19,0,0,1-1.14-.82c-.65-2-1.35-4-2.06-6a1.19,1.19,0,1,1,2.25-.8c.72,2,1.42,4.05,2.08,6.07a1.19,1.19,0,0,1-.76,1.51A1.24,1.24,0,0,1,452.79,171.64ZM29.08,166.17a1.12,1.12,0,0,1-.4-.07,1.2,1.2,0,0,1-.73-1.53c.72-2,1.48-4,2.25-6a1.2,1.2,0,1,1,2.23.87c-.77,2-1.52,4-2.22,6A1.21,1.21,0,0,1,29.08,166.17Zm419.39-6.56a1.19,1.19,0,0,1-1.11-.76c-.76-1.94-1.57-3.92-2.4-5.86a1.21,1.21,0,0,1,.64-1.57,1.19,1.19,0,0,1,1.56.63c.84,2,1.65,4,2.42,5.93a1.2,1.2,0,0,1-.67,1.55A1.41,1.41,0,0,1,448.47,159.61ZM33.72,154.22a1.25,1.25,0,0,1-.46-.09,1.21,1.21,0,0,1-.64-1.57c.83-2,1.71-3.95,2.59-5.9a1.19,1.19,0,1,1,2.17,1c-.87,1.92-1.73,3.88-2.56,5.83A1.18,1.18,0,0,1,33.72,154.22Zm409.77-6.33a1.2,1.2,0,0,1-1.09-.7c-.87-1.9-1.79-3.83-2.73-5.72a1.2,1.2,0,0,1,2.15-1.06c.94,1.91,1.87,3.86,2.75,5.78a1.2,1.2,0,0,1-.58,1.59A1.33,1.33,0,0,1,443.49,147.89ZM39,142.57a1.24,1.24,0,0,1-.53-.12,1.2,1.2,0,0,1-.54-1.6c.94-1.93,1.93-3.86,2.92-5.74A1.2,1.2,0,1,1,43,136.23c-1,1.86-2,3.77-2.9,5.67A1.19,1.19,0,0,1,39,142.57Zm398.8-6.11a1.21,1.21,0,0,1-1.06-.63c-1-1.87-2-3.74-3-5.56a1.2,1.2,0,0,1,2.08-1.18c1,1.84,2.08,3.73,3.08,5.62a1.19,1.19,0,0,1-.49,1.61A1.14,1.14,0,0,1,437.84,136.46ZM45,131.24a1.26,1.26,0,0,1-.59-.15,1.19,1.19,0,0,1-.45-1.63c1.05-1.86,2.14-3.73,3.24-5.55a1.2,1.2,0,1,1,2.05,1.23c-1.09,1.81-2.17,3.66-3.21,5.5A1.19,1.19,0,0,1,45,131.24Zm386.52-5.87a1.17,1.17,0,0,1-1-.58c-1.09-1.8-2.23-3.61-3.37-5.38a1.19,1.19,0,1,1,2-1.29c1.15,1.78,2.3,3.61,3.4,5.44a1.18,1.18,0,0,1-.4,1.64A1.26,1.26,0,0,1,431.54,125.37ZM51.63,120.29a1.16,1.16,0,0,1-.64-.19,1.19,1.19,0,0,1-.36-1.65c1.16-1.8,2.35-3.61,3.55-5.36a1.2,1.2,0,0,1,2,1.35c-1.19,1.73-2.38,3.52-3.52,5.3A1.22,1.22,0,0,1,51.63,120.29Zm373-5.64a1.18,1.18,0,0,1-1-.52c-1.19-1.73-2.43-3.47-3.67-5.18a1.2,1.2,0,1,1,1.93-1.41c1.26,1.73,2.5,3.49,3.71,5.24a1.2,1.2,0,0,1-1,1.87ZM58.86,109.73a1.2,1.2,0,0,1-1-1.9c1.26-1.73,2.56-3.46,3.86-5.14a1.19,1.19,0,1,1,1.89,1.45c-1.29,1.67-2.57,3.38-3.82,5.1A1.18,1.18,0,0,1,58.86,109.73Zm358.24-5.39a1.19,1.19,0,0,1-1-.47c-1.27-1.65-2.61-3.32-4-5A1.2,1.2,0,0,1,414,97.39c1.37,1.66,2.71,3.35,4,5a1.19,1.19,0,0,1-.94,1.93ZM66.67,99.6a1.22,1.22,0,0,1-.76-.27,1.2,1.2,0,0,1-.17-1.68c1.35-1.64,2.74-3.29,4.14-4.92a1.2,1.2,0,0,1,1.81,1.57c-1.39,1.6-2.77,3.24-4.1,4.86A1.18,1.18,0,0,1,66.67,99.6ZM409,94.46a1.19,1.19,0,0,1-.9-.41c-1.39-1.59-2.81-3.18-4.24-4.73a1.21,1.21,0,0,1,.07-1.69,1.19,1.19,0,0,1,1.69.07c1.44,1.57,2.88,3.18,4.28,4.79a1.19,1.19,0,0,1-.12,1.68A1.15,1.15,0,0,1,409,94.46ZM75,89.94a1.19,1.19,0,0,1-.88-2c1.45-1.58,2.93-3.15,4.41-4.67a1.19,1.19,0,1,1,1.71,1.66c-1.46,1.51-2.93,3.06-4.36,4.62A1.18,1.18,0,0,1,75,89.94Zm325.31-4.88a1.21,1.21,0,0,1-.86-.36c-1.48-1.52-3-3-4.49-4.49a1.19,1.19,0,1,1,1.66-1.71c1.52,1.47,3,3,4.55,4.53a1.19,1.19,0,0,1,0,1.69A1.16,1.16,0,0,1,400.35,85.06ZM83.94,80.77a1.17,1.17,0,0,1-.85-.36,1.2,1.2,0,0,1,0-1.69c1.52-1.48,3.09-3,4.67-4.41a1.19,1.19,0,1,1,1.61,1.76c-1.55,1.43-3.11,2.9-4.61,4.36A1.19,1.19,0,0,1,83.94,80.77Zm307.24-4.61a1.19,1.19,0,0,1-.81-.31c-1.55-1.42-3.14-2.84-4.75-4.23a1.19,1.19,0,0,1-.12-1.68,1.2,1.2,0,0,1,1.69-.13c1.62,1.41,3.23,2.85,4.79,4.28a1.2,1.2,0,0,1,.08,1.69A1.22,1.22,0,0,1,391.18,76.16Zm-297.83-4a1.2,1.2,0,0,1-.78-2.1c1.61-1.4,3.26-2.79,4.9-4.14A1.2,1.2,0,0,1,99,67.74c-1.63,1.33-3.26,2.71-4.86,4.09A1.16,1.16,0,0,1,93.35,72.13ZM381.51,67.8a1.22,1.22,0,0,1-.76-.27c-1.63-1.34-3.31-2.67-5-4a1.19,1.19,0,0,1-.22-1.67,1.21,1.21,0,0,1,1.68-.22c1.69,1.3,3.38,2.65,5,4a1.2,1.2,0,0,1-.76,2.12ZM103.23,64a1.21,1.21,0,0,1-1-.46,1.2,1.2,0,0,1,.22-1.68c1.68-1.3,3.41-2.6,5.13-3.85A1.19,1.19,0,1,1,109,60c-1.7,1.24-3.41,2.52-5.07,3.81A1.19,1.19,0,0,1,103.23,64Zm268.15-4a1.15,1.15,0,0,1-.7-.23c-1.7-1.23-3.45-2.46-5.2-3.66a1.2,1.2,0,0,1,1.35-2c1.77,1.22,3.54,2.46,5.25,3.71a1.19,1.19,0,0,1,.27,1.67A1.21,1.21,0,0,1,371.38,60ZM113.54,56.51a1.19,1.19,0,0,1-.67-2.18c1.75-1.2,3.55-2.4,5.34-3.55a1.19,1.19,0,0,1,1.29,2c-1.77,1.14-3.54,2.32-5.28,3.52A1.2,1.2,0,0,1,113.54,56.51Zm247.28-3.74a1.2,1.2,0,0,1-.65-.19c-1.79-1.15-3.6-2.28-5.4-3.36a1.2,1.2,0,0,1,1.23-2c1.82,1.1,3.66,2.24,5.46,3.4a1.19,1.19,0,0,1,.36,1.65A1.17,1.17,0,0,1,360.82,52.77ZM124.27,49.6a1.21,1.21,0,0,1-1-.58,1.19,1.19,0,0,1,.41-1.64c1.82-1.1,3.68-2.19,5.53-3.24a1.2,1.2,0,0,1,1.18,2.08c-1.84,1-3.68,2.12-5.48,3.21A1.22,1.22,0,0,1,124.27,49.6Zm225.59-3.44a1.26,1.26,0,0,1-.59-.15c-1.84-1-3.72-2.07-5.59-3a1.2,1.2,0,0,1,1.12-2.12c1.88,1,3.79,2,5.65,3.09a1.19,1.19,0,0,1-.59,2.23Zm-214.5-2.85a1.19,1.19,0,0,1-.56-2.25c1.89-1,3.81-2,5.7-2.92a1.19,1.19,0,1,1,1.06,2.14c-1.87.93-3.77,1.9-5.64,2.89A1.25,1.25,0,0,1,135.36,43.31Zm203.17-3.12a1.17,1.17,0,0,1-.52-.12c-1.91-.94-3.85-1.86-5.76-2.73a1.19,1.19,0,0,1,1-2.17c1.93.88,3.89,1.81,5.82,2.75a1.2,1.2,0,0,1-.53,2.27ZM146.79,37.66A1.19,1.19,0,0,1,145.7,37a1.21,1.21,0,0,1,.59-1.59c1.94-.89,3.91-1.76,5.86-2.58a1.19,1.19,0,0,1,1.57.63,1.21,1.21,0,0,1-.64,1.57c-1.92.81-3.87,1.67-5.79,2.56A1.31,1.31,0,0,1,146.79,37.66Zm180.09-2.78a1.1,1.1,0,0,1-.47-.1c-2-.82-3.94-1.63-5.91-2.39a1.2,1.2,0,0,1,.87-2.23c2,.77,4,1.59,6,2.42a1.2,1.2,0,0,1-.46,2.3ZM158.51,32.69a1.21,1.21,0,0,1-1.11-.76,1.19,1.19,0,0,1,.68-1.55c2-.78,4-1.54,6-2.25a1.19,1.19,0,1,1,.81,2.24c-2,.72-4,1.47-6,2.23A1.12,1.12,0,0,1,158.51,32.69Zm156.42-2.45a1.09,1.09,0,0,1-.4-.07c-2-.7-4-1.39-6-2.05a1.19,1.19,0,0,1,.73-2.27c2,.66,4.11,1.36,6.11,2.07a1.19,1.19,0,0,1,.72,1.53A1.18,1.18,0,0,1,314.93,30.24ZM170.54,28.38a1.2,1.2,0,0,1-.37-2.33c2-.67,4.1-1.31,6.14-1.91a1.19,1.19,0,1,1,.67,2.29c-2,.6-4.06,1.23-6.07,1.89A1.15,1.15,0,0,1,170.54,28.38ZM302.75,26.3a1.32,1.32,0,0,1-.34,0c-2-.6-4.1-1.17-6.13-1.69a1.2,1.2,0,0,1,.61-2.32c2.05.54,4.13,1.11,6.19,1.71a1.19,1.19,0,0,1-.33,2.34ZM182.8,24.77a1.19,1.19,0,0,1-.3-2.35c2.06-.55,4.16-1.07,6.23-1.55a1.19,1.19,0,1,1,.55,2.32c-2.05.48-4.13,1-6.17,1.54A1.76,1.76,0,0,1,182.8,24.77Zm107.58-1.69a1.24,1.24,0,0,1-.27,0c-2.05-.47-4.14-.92-6.21-1.33a1.2,1.2,0,1,1,.47-2.35c2.09.42,4.2.88,6.28,1.35a1.2,1.2,0,0,1-.27,2.36Zm-95.13-1.22A1.19,1.19,0,0,1,195,19.5c2.08-.42,4.21-.82,6.32-1.19a1.2,1.2,0,1,1,.4,2.36c-2.08.36-4.18.75-6.24,1.17A1,1,0,0,1,195.25,21.86Zm82.6-1.28-.2,0c-2.08-.35-4.19-.68-6.28-1a1.19,1.19,0,1,1,.33-2.36c2.12.29,4.25.63,6.35,1a1.2,1.2,0,0,1-.2,2.38Zm-70-.9a1.19,1.19,0,0,1-.17-2.37c2.13-.31,4.27-.59,6.37-.83a1.2,1.2,0,0,1,.27,2.38c-2.07.23-4.19.51-6.3.81Zm57.35-.89h-.13c-2.09-.23-4.22-.44-6.33-.61a1.19,1.19,0,0,1,.2-2.38c2.13.17,4.29.38,6.4.62a1.19,1.19,0,0,1-.14,2.38Zm-44.66-.57a1.19,1.19,0,0,1-.1-2.38c2.15-.18,4.3-.34,6.41-.46a1.18,1.18,0,0,1,1.26,1.12A1.2,1.2,0,0,1,227,17.77c-2.09.11-4.22.27-6.34.45Zm31.93-.49h-.07c-2.11-.12-4.25-.2-6.35-.26a1.2,1.2,0,0,1,.07-2.39c2.12.06,4.27.15,6.41.26a1.2,1.2,0,0,1-.06,2.39Zm-19.17-.24a1.2,1.2,0,0,1,0-2.39c2.12-.06,4.28-.1,6.42-.1h0a1.2,1.2,0,1,1,0,2.39c-2.11,0-4.25,0-6.35.1Z"/></svg>