<svg width="167" height="70" viewBox="0 0 167 70" fill="none" xmlns="http://www.w3.org/2000/svg">
<g clip-path="url(#clip0)">
<path d="M134.358 4.33C133.188 4.33 132.018 4.41 130.838 4.56L130.158 4.06L130.008 4.11C127.228 2.45 122.948 0.5 117.838 0.17C116.768 0.06 115.718 0 114.638 0C108.748 0 103.458 1.91 99.3483 5.53C95.5683 8.85 93.1883 13.28 92.1883 18.22H10.7983C5.63831 18.22 1.21831 21.95 0.338313 27.04L-4.83169 57.29C-5.94169 63.77 -0.951687 69.69 5.62831 69.69H105.468H127.648H139.248C144.418 69.69 148.838 65.97 149.708 60.87L151.098 52.78C157.528 47.75 161.468 39.98 161.468 31.44C161.458 16.5 149.298 4.33 134.358 4.33Z" fill="white"/>
<path d="M17.9983 28.75L17.2583 32.86C16.8883 34.95 15.2983 36.34 12.4383 36.34C11.5883 36.34 10.8783 36.21 10.3483 35.99L9.80831 39.03C9.71831 39.59 9.17831 40.05 8.60831 40.05C8.04831 40.05 7.67831 39.59 7.77831 39.03L9.59831 28.73C9.98831 26.6 11.5483 25.23 14.4383 25.23C17.2783 25.23 18.3683 26.6 17.9983 28.75ZM15.9383 28.86C16.1383 27.69 15.7883 26.9 14.1183 26.9C12.3983 26.9 11.7983 27.7 11.5983 28.86L10.9083 32.73C10.7083 33.88 11.0183 34.68 12.7383 34.68C14.4283 34.68 15.0383 33.88 15.2383 32.73L15.9383 28.86Z" fill="#231F20"/>
<path d="M27.8383 28.75L26.6683 35.33C26.5783 35.89 26.0383 36.35 25.4783 36.35C24.9183 36.35 24.5383 35.89 24.6483 35.33L25.2383 31.96H20.8983L20.2883 35.33C20.1983 35.89 19.6583 36.35 19.0983 36.35C18.5383 36.35 18.1583 35.89 18.2683 35.33L19.4183 28.73C19.8083 26.6 21.3683 25.23 24.2583 25.23C27.1183 25.23 28.2183 26.6 27.8383 28.75ZM21.1883 30.28H25.5383L25.7783 28.85C25.9783 27.68 25.6283 26.89 23.9583 26.89C22.2383 26.89 21.6383 27.69 21.4383 28.85L21.1883 30.28Z" fill="#231F20"/>
<path d="M31.9883 35.16C31.9883 35.16 31.8383 36.35 30.7483 36.35C29.6783 36.35 29.9283 35.26 29.9283 35.26L30.7083 31.02L28.7783 27.07C28.7783 27.07 28.1083 25.94 28.9783 25.42C29.8483 24.92 30.2383 25.73 30.2383 25.73L32.0083 29.15C32.0083 29.15 34.5083 26.09 34.7183 25.83C34.9983 25.48 35.6983 24.9 36.3883 25.44C37.1083 26 36.3883 26.72 36.3883 26.72L32.7383 31L31.9883 35.16Z" fill="#231F20"/>
<path d="M42.2583 32.82L43.4083 26.24C43.5183 25.67 44.0383 25.22 44.6083 25.22C45.1683 25.22 45.5383 25.66 45.4383 26.24L44.2883 32.71C44.0883 33.88 44.4383 34.67 46.1083 34.67C47.8483 34.67 48.4283 33.87 48.6283 32.71L49.7783 26.24C49.8683 25.67 50.4083 25.22 50.9783 25.22C51.5383 25.22 51.9083 25.66 51.8083 26.24L50.6583 32.71C50.4583 33.88 50.8083 34.67 52.4783 34.67C54.1983 34.67 54.7983 33.87 54.9983 32.71L56.1483 26.24C56.2383 25.67 56.7783 25.22 57.3383 25.22C57.9083 25.22 58.2783 25.66 58.1883 26.24L57.0183 32.82C56.6283 34.97 55.0683 36.34 52.1783 36.34C50.7483 36.34 49.7483 35.99 49.1783 35.38C48.3783 35.99 47.2683 36.34 45.8083 36.34C42.9583 36.34 41.8683 34.97 42.2583 32.82Z" fill="#231F20"/>
<path d="M60.2383 35.32C60.1483 35.88 59.6083 36.34 59.0483 36.34C58.4783 36.34 58.1183 35.86 58.2183 35.3C58.2383 35.3 58.2183 35.3 58.2183 35.3L59.8083 26.24C59.8983 25.67 60.4383 25.22 60.9983 25.22C61.5683 25.22 61.9383 25.66 61.8483 26.24C60.2383 35.3 60.2383 35.32 60.2383 35.32Z" fill="#231F20"/>
<path d="M71.0383 26.06C70.9683 26.52 70.5183 26.89 70.0583 26.89H67.7083C66.2283 35.3 66.2283 35.32 66.2283 35.32C66.1383 35.88 65.5983 36.34 65.0383 36.34C64.4683 36.34 64.0883 35.88 64.1883 35.32C64.1883 35.32 64.2083 35.3 65.6883 26.89H63.3383C62.8783 26.89 62.5583 26.52 62.6483 26.06C62.7183 25.6 63.1683 25.23 63.6283 25.23H70.3583C70.8183 25.23 71.1283 25.6 71.0383 26.06Z" fill="#231F20"/>
<path d="M78.3883 35.32C78.2783 35.88 77.7583 36.34 77.1883 36.34C76.6283 36.34 76.2583 35.88 76.3583 35.32C76.3583 35.32 76.3583 35.3 76.9483 31.95H72.6083C72.0083 35.3 72.0083 35.32 72.0083 35.32C71.9183 35.88 71.3783 36.34 70.8083 36.34C70.2483 36.34 69.8783 35.88 69.9783 35.32C69.9783 35.32 69.9783 35.3 71.5883 26.24C71.6783 25.67 72.2183 25.22 72.7783 25.22C73.3383 25.22 73.7183 25.66 73.6083 26.24L72.9083 30.28H77.2483L77.9683 26.24C78.0583 25.67 78.5983 25.22 79.1583 25.22C79.7183 25.22 80.0983 25.66 79.9883 26.24C78.3883 35.3 78.3883 35.32 78.3883 35.32Z" fill="#231F20"/>
<path d="M4.67831 56.62L6.65831 45.26C6.84831 44.27 7.74831 43.5 8.73831 43.5C9.69831 43.5 10.3383 44.27 10.1783 45.26L8.19831 56.43C7.84831 58.45 8.45831 59.82 11.3383 59.82C14.3483 59.82 15.3383 58.44 15.6883 56.43L17.6683 45.26C17.8283 44.27 18.7583 43.5 19.7483 43.5C20.7083 43.5 21.3483 44.27 21.1883 45.26L19.2083 56.43C18.8583 58.45 19.4683 59.82 22.3483 59.82C25.3283 59.82 26.3483 58.44 26.6983 56.43L28.6783 45.26C28.8383 44.27 29.7683 43.5 30.7283 43.5C31.7183 43.5 32.3583 44.27 32.1983 45.26L30.1783 56.62C29.5083 60.33 26.8183 62.7 21.8283 62.7C19.3683 62.7 17.6383 62.09 16.6483 61.04C15.2683 62.1 13.3483 62.7 10.8283 62.7C5.89831 62.7 4.00831 60.33 4.67831 56.62Z" fill="#231F20"/>
<path d="M48.5983 49.58L46.5783 60.94C46.4183 61.9 45.4883 62.7 44.5283 62.7C43.5683 62.7 42.8983 61.9 43.0883 60.94L44.1083 55.12H36.6183L35.5583 60.94C35.3983 61.9 34.4683 62.7 33.5083 62.7C32.5483 62.7 31.8783 61.9 32.0683 60.94L34.0483 49.55C34.7183 45.87 37.4083 43.5 42.3983 43.5C47.3483 43.5 49.2383 45.87 48.5983 49.58ZM37.1083 52.23H44.6283L45.0483 49.77C45.3983 47.75 44.7883 46.38 41.9083 46.38C38.9283 46.38 37.9083 47.76 37.5583 49.77L37.1083 52.23Z" fill="#231F20"/>
<path d="M64.9183 45.39L57.2083 60.97C57.2083 60.97 56.3483 62.67 54.5483 62.7C52.7883 62.7 52.5283 60.97 52.5283 60.97L50.2883 45.39C50.2883 45.39 50.2583 44.05 51.7283 43.6C53.1983 43.15 53.4583 44.53 53.4583 44.53L55.1583 58.86L61.7183 44.59C61.7183 44.59 62.3883 43.09 64.0183 43.6C65.3383 44.01 64.9183 45.39 64.9183 45.39Z" fill="#231F20"/>
<path d="M79.8383 49.58L79.0983 53.68C78.9683 54.48 78.1983 55.12 77.3983 55.12H67.8583L67.5983 56.46C67.2483 58.44 67.7883 59.82 70.7683 59.82H76.5583C77.3283 59.82 77.8983 60.43 77.7783 61.26C77.6183 62.06 76.8483 62.7 76.0783 62.7C70.2583 62.7 70.2583 62.7 70.2183 62.7C65.2583 62.7 63.3983 60.4 64.0383 56.68L65.2883 49.54C65.9583 45.86 68.6483 43.49 73.6383 43.49C78.5883 43.5 80.4783 45.87 79.8383 49.58ZM75.8683 52.23L76.2883 49.77C76.6383 47.75 76.0283 46.38 73.1483 46.38C70.1683 46.38 69.1483 47.76 68.7983 49.77L68.3483 52.23H75.8683Z" fill="#231F20"/>
<path d="M103.388 44.98C98.9283 39.83 96.2383 33.85 95.3583 28.05C91.2683 32.33 89.2883 38.21 90.5783 45.19C94.8683 68.32 125.628 74.54 136.208 55.69C133.888 56.22 131.098 56.6301 128.018 56.6301C120.528 56.6401 111.368 54.19 103.388 44.98Z" fill="#0091C8"/>
<path d="M134.348 9.33C132.878 9.33 131.398 9.48 129.938 9.77L129.598 9.84L129.318 9.63C129.308 9.63 129.308 9.62 129.298 9.62C119.408 12.91 111.478 23.48 111.878 33.46C112.048 37.83 113.118 41.29 115.028 43.83C114.758 42.99 114.568 42.1 114.498 41.17C114.028 35.46 117.638 30.48 122.548 30.08C124.948 29.88 127.288 30.8 129.128 32.65C130.938 34.47 132.058 36.98 132.278 39.72C132.528 42.75 131.628 45.71 129.818 47.84C128.338 49.58 126.358 50.63 124.238 50.8C124.038 50.82 123.828 50.83 123.608 50.83C121.398 50.83 119.348 49.87 117.748 48.3C117.088 47.94 116.428 47.5 115.768 46.95C112.378 44.09 110.538 39.58 110.288 33.53C109.878 23.28 117.688 12.47 127.668 8.54C125.418 7.17 121.748 5.41 117.418 5.17C116.468 5.05 115.558 5 114.638 5C109.978 5 105.838 6.48 102.648 9.29C93.8583 17.01 94.7283 32.55 104.588 43.92C118.388 59.84 135.908 54.55 140.958 52.55C150.258 49.62 156.468 41.15 156.468 31.45C156.458 19.25 146.538 9.33 134.348 9.33Z" fill="#0091C8"/>
</g>
<defs>
<clipPath id="clip0">
<rect width="166.45" height="69.7" fill="white" transform="translate(0.00830078)"/>
</clipPath>
</defs>
</svg>
