<svg xmlns="http://www.w3.org/2000/svg" viewBox="0 0 500 500"><defs><style>.cls-1{fill:#f5f5f5;}.cls-11,.cls-2{fill:#1d7c99;}.cls-3{fill:#263238;}.cls-4{opacity:0.1;}.cls-5,.cls-6,.cls-7{fill:#fff;}.cls-6{opacity:0.6;}.cls-7{opacity:0.2;}.cls-8{font-size:48px;}.cls-8,.cls-9{fill:#444;font-family:Gilroy-ExtraBold, Gilroy;font-weight:800;}.cls-9{font-size:34px;}.cls-10{fill:#000;}.cls-11{font-size:36px;}</style></defs><g id="Layer_8" data-name="Layer 8"><ellipse id="_Path_" data-name="&lt;Path&gt;" class="cls-1" cx="250" cy="451.02" rx="193.89" ry="11.32"/><path class="cls-2" d="M157.61,282.22l-.92-.39a18,18,0,0,0,1.45-5l1,.11A18.94,18.94,0,0,1,157.61,282.22Zm-.39-11.46A13.33,13.33,0,0,0,146.79,263l.16-1a14.31,14.31,0,0,1,11.18,8.35Z"/><path class="cls-2" d="M152,292.27l-9.84,4.48-.44-1a13.25,13.25,0,0,1-1.29-4.34,10,10,0,0,1,.39-3.63,58.94,58.94,0,0,1,3-6.86q1.32-2.67.67-4.09a3.16,3.16,0,0,0-1.85-1.83,4,4,0,0,0-2.91.37,4.57,4.57,0,0,0-2.49,2.6q-.65,1.77.4,4.95L127,286.27a15,15,0,0,1,0-10.75q2-5,9.22-8.28,5.64-2.57,10.19-1.79a10.76,10.76,0,0,1,8.57,6.35,9,9,0,0,1,.72,4.8,23,23,0,0,1-2.7,7.26,14.49,14.49,0,0,0-1.78,4.83A7.43,7.43,0,0,0,152,292.27Zm-9,7.25,10.54-4.79,4.23,9.29-10.54,4.8Z"/><path class="cls-2" d="M127.64,314.51l-5,6.79-.68-.5a10.44,10.44,0,0,1-2.53-2.46,7.67,7.67,0,0,1-1.11-2.63,42.67,42.67,0,0,1-.57-5.81c-.08-1.55-.45-2.56-1.1-3a2.49,2.49,0,0,0-2-.54,3.08,3.08,0,0,0-1.84,1.36,3.53,3.53,0,0,0-.71,2.72,6.09,6.09,0,0,0,2.15,3.22l-6,6.31a11.79,11.79,0,0,1-4.11-7.32q-.55-4.14,3.14-9.15a13.57,13.57,0,0,1,6.26-5.09,8.39,8.39,0,0,1,8.26,1.06,7,7,0,0,1,2.32,3,18.12,18.12,0,0,1,.92,6,11.4,11.4,0,0,0,.62,4A5.76,5.76,0,0,0,127.64,314.51Zm-3.37,8.36,5.36-7.28,6.42,4.73-5.36,7.28Z"/><path class="cls-2" d="M234.09,447.41a4.49,4.49,0,0,1-4-2.42c-4-7.76-9.07-16.87-18.15-26.73a4.47,4.47,0,0,1-1-4.29c3.37-11.71,8.67-27.71,8.72-27.87a4.49,4.49,0,1,1,8.52,2.82c-.05.14-4.62,13.93-7.93,25.15a126.29,126.29,0,0,1,17.82,26.8,4.48,4.48,0,0,1-4,6.54Z"/><polygon class="cls-3" points="241.56 451.02 206.77 451.02 225.21 440.56 240.66 441.16 241.56 451.02"/><ellipse class="cls-3" cx="230.8" cy="385.11" rx="30.04" ry="24.9" transform="translate(-104.38 86.39) rotate(-17.36)"/><path class="cls-3" d="M151.65,368.76a4.49,4.49,0,0,1-1.72-8.63,5,5,0,0,0,3-3.77,4.49,4.49,0,0,1,3.67-4,30.8,30.8,0,0,0,3.3-.84c6.08-1.78,13.61-4,37.31,2.66,23.38-13.07,23.65-37.6,23.65-38.65a4.49,4.49,0,0,1,4.47-4.5h0a4.48,4.48,0,0,1,4.49,4.45c0,1.3-.14,32.08-30,47.5a4.45,4.45,0,0,1-3.3.32c-22.6-6.52-29-4.66-34.07-3.17l-1.38.4a13.86,13.86,0,0,1-7.64,7.89A4.51,4.51,0,0,1,151.65,368.76Z"/><path class="cls-2" d="M204.08,336.67c-8.51-33.83-31.18-121.06,41.47-126.39,65.18-4.79,83.06,82,87.41,112a351.65,351.65,0,0,1,3.54,45.82,33.31,33.31,0,0,1-26.76,33c-35.51,7.21-69.11,8.24-91.75-.69a14.86,14.86,0,0,1-9.23-15.21C209.63,375.52,209.65,358.81,204.08,336.67Z"/><path class="cls-4" d="M333,322.3c-4.1-28.33-20.22-107-76.66-112a16.39,16.39,0,0,0-16.07,8.52c-2.52,4.88-2.44,10.79,1.33,16.64,12.44,19.29,42.11,86,37.63,122.29-2,16.53-12.41,29.73-3.39,48.31a291.16,291.16,0,0,0,33.94-5,33.29,33.29,0,0,0,26.76-33A351.65,351.65,0,0,0,333,322.3Z"/><path class="cls-3" d="M323.24,368.57a.45.45,0,0,1-.45-.44,348.57,348.57,0,0,0-3.53-45.76c-10.8-74.66-39.87-112.41-84.1-109.16a.44.44,0,0,1-.48-.41.46.46,0,0,1,.42-.48c44.75-3.3,74.17,34.72,85,109.92a352.14,352.14,0,0,1,3.54,45.88.45.45,0,0,1-.45.45Z"/><ellipse class="cls-3" cx="315.12" cy="387.51" rx="30.04" ry="24.9" transform="translate(-101.26 111.66) rotate(-17.36)"/><path class="cls-2" d="M325.3,447.41a4.48,4.48,0,0,1-4-2.42c-4-7.76-9.07-16.87-18.16-26.73a4.52,4.52,0,0,1-1-4.29c3.38-11.71,8.67-27.71,8.73-27.87a4.48,4.48,0,1,1,8.51,2.82c-.05.14-4.61,13.93-7.92,25.15a125.82,125.82,0,0,1,17.81,26.8,4.48,4.48,0,0,1-4,6.54Z"/><path class="cls-3" d="M315.88,310.68a4.48,4.48,0,0,1-2.1-8.45h0c.86-.46,20.39-11.13,25.87-36.77-13-5.44-36.42-17.74-41.54-23.91a4.61,4.61,0,0,1-1-2.09,22.34,22.34,0,0,1,1-11l-2.36-4.56a4.49,4.49,0,0,1,8-4.12l3.39,6.56a4.47,4.47,0,0,1-.17,4.43,11,11,0,0,0-1.12,5.91c5.77,5.2,29,17.54,40.43,21.77a4.48,4.48,0,0,1,2.87,4.89c-5.07,32.77-30.14,46.27-31.2,46.83A4.47,4.47,0,0,1,315.88,310.68Z"/><path class="cls-3" d="M301.57,240.93a2.25,2.25,0,0,1-1.88-3.47c.16-.24,3.86-5.83,9.5-7.34a2.24,2.24,0,1,1,1.16,4.33c-3.93,1.05-6.88,5.42-6.9,5.46A2.24,2.24,0,0,1,301.57,240.93Z"/><polygon class="cls-3" points="332.77 451.02 297.98 451.02 316.42 440.56 331.87 441.16 332.77 451.02"/><ellipse class="cls-5" cx="258.01" cy="295.6" rx="23.92" ry="21.53" transform="translate(-25.05 23.9) rotate(-5.06)"/><ellipse class="cls-3" cx="252.18" cy="297.69" rx="6.57" ry="11.96" transform="translate(-71.93 80.5) rotate(-15.9)"/><path class="cls-3" d="M230.8,299.64c15.1-1.95,45-10.47,49.93-13.91-3.88-11.36-22-21.08-38.12-15.6C228,275.06,230.8,299.64,230.8,299.64Z"/><path class="cls-3" d="M233.73,306.94c18.75-3.56,43.12-9.54,50.09-13.38-.43,12.23-4,24.62-23.12,28.81C245.06,325.79,233.73,306.94,233.73,306.94Z"/><ellipse class="cls-5" cx="208.01" cy="303.14" rx="14.72" ry="18.63" transform="translate(-132.74 165.12) rotate(-33.49)"/><path class="cls-3" d="M208.34,303.46c1.13,5.36.15,9.82-2.2,10s-5.17-4.06-6.31-9.42-.15-9.82,2.19-10S207.2,298.1,208.34,303.46Z"/><path class="cls-3" d="M189.75,301.41c10.13,1.19,30.25-.14,33.59-2-2.47-9.7-14.45-20.67-25.34-19.27C188.18,281.44,189.75,301.41,189.75,301.41Z"/><path class="cls-3" d="M191.63,307.72c12.59.57,29,.25,33.68-1.52-.43,9.6-2.95,18.77-15.81,18.62C199,324.7,191.63,307.72,191.63,307.72Z"/><path class="cls-3" d="M264.09,264.08a56.43,56.43,0,0,1-32.06-9.8,4.49,4.49,0,0,1,5.41-7.16,49,49,0,0,0,35.84,7.12,4.48,4.48,0,1,1,1.67,8.81A58.41,58.41,0,0,1,264.09,264.08Z"/><path class="cls-3" d="M183.88,256.34a4.23,4.23,0,0,1-1.52-.26,4.49,4.49,0,0,1-2.7-5.74c2.37-6.62,6.32-10.92,11.72-12.77,9.78-3.37,20.32,3.18,20.77,3.46a4.48,4.48,0,0,1-4.78,7.59c-2-1.27-8.37-4.2-13.1-2.56-2.72.95-4.74,3.34-6.17,7.32A4.48,4.48,0,0,1,183.88,256.34Z"/><path class="cls-3" d="M219.23,332a1.18,1.18,0,0,1-.37,0,1.33,1.33,0,0,1-.92-1.64,8.74,8.74,0,0,1,4.56-4.93c5.14-2.65,13-2.11,23.31,1.63a1.35,1.35,0,0,1-.92,2.53c-11.83-4.28-18-3.36-21-1.82a6.22,6.22,0,0,0-3.32,3.33A1.34,1.34,0,0,1,219.23,332Z"/><path class="cls-2" d="M176.88,327.1a119.22,119.22,0,0,0-44.78,13.15c7.72-1.46,35.35,32.73,42.45,59.09,13.11-4.86,28.39-8.16,44.68-10.75C209.36,361.42,191.31,330.63,176.88,327.1Z"/><path class="cls-6" d="M176.88,327.1a119.22,119.22,0,0,0-44.78,13.15c7.72-1.46,35.35,32.73,42.45,59.09,13.11-4.86,28.39-8.16,44.68-10.75C209.36,361.42,191.31,330.63,176.88,327.1Z"/><path class="cls-2" d="M176.88,327.1c-17.08-1.93-44.81,12.37-44.81,12.37-4.91,3.13-3.58,9-.9,11.49,2.57-3.69,31.23-13.29,42-14.58C167.82,331.42,172.8,327.82,176.88,327.1Z"/><path class="cls-7" d="M176.88,327.1c-17.08-1.93-44.81,12.37-44.81,12.37-4.91,3.13-3.58,9-.9,11.49,2.57-3.69,31.23-13.29,42-14.58C167.82,331.42,172.8,327.82,176.88,327.1Z"/><path class="cls-3" d="M151.66,368.76a4.5,4.5,0,0,1-3.77-2c-3.25-5-1.22-12.59-.78-14.06a4.49,4.49,0,0,1,8.6,2.56c-.73,2.51-.88,5.72-.3,6.6a4.49,4.49,0,0,1-3.75,6.94Z"/><text class="cls-8" transform="translate(195.26 78.46)">Oop!</text><text class="cls-9" transform="translate(85.95 136.29)">There Is<tspan class="cls-10" x="123.62" y="0"> </tspan><tspan class="cls-2" x="132.12" y="0">No Bookings</tspan><tspan class="cls-11"><tspan x="42.06" y="43.2">For This Route.</tspan></tspan></text></g></svg>