<svg width="24" height="24" viewBox="0 0 24 24" fill="none" xmlns="http://www.w3.org/2000/svg">
<g clip-path="url(#clip0_61_155)">
<path d="M17.0183 3.86614C17.2074 3.57682 17.2915 3.23135 17.2565 2.88747C17.2215 2.54359 17.0696 2.22214 16.826 1.97684L15.182 0.332817C14.9007 0.0515123 14.5192 -0.106523 14.1213 -0.106522C13.7235 -0.106523 13.342 0.051512 13.0607 0.332817L0.332755 13.0607C0.0514503 13.342 -0.106585 13.7236 -0.106585 14.1214C-0.106585 14.5192 0.0514503 14.9008 0.332755 15.1821L1.97678 16.8261C2.22208 17.0696 2.54353 17.2216 2.88741 17.2566C3.23129 17.2916 3.57676 17.2075 3.86608 17.0183C4.29861 16.7344 4.81579 16.6082 5.3305 16.661C5.84521 16.7138 6.32599 16.9424 6.69185 17.3082C7.05771 17.6741 7.2863 18.1549 7.33911 18.6696C7.39192 19.1843 7.26572 19.7015 6.98177 20.134C6.79264 20.4233 6.70854 20.7688 6.74353 21.1127C6.77852 21.4566 6.93048 21.778 7.17401 22.0233L8.81804 23.6673C9.09934 23.9486 9.48087 24.1067 9.8787 24.1067C10.2765 24.1067 10.6581 23.9486 10.9394 23.6673L23.6673 10.9394C23.9486 10.6581 24.1066 10.2766 24.1066 9.87876C24.1066 9.48093 23.9486 9.0994 23.6673 8.8181L22.0233 7.17407C21.778 6.93054 21.4565 6.77858 21.1126 6.74359C20.7687 6.7086 20.4233 6.7927 20.134 6.98183C19.7014 7.26578 19.1842 7.39198 18.6695 7.33917C18.1548 7.28637 17.674 7.05778 17.3082 6.69191C16.9423 6.32605 16.7137 5.84527 16.6609 5.33056C16.6081 4.81585 16.7343 4.29867 17.0183 3.86614ZM8.23467 20.9627C8.71238 20.2415 8.92609 19.3774 8.83959 18.5167C8.75309 17.656 8.37169 16.8517 7.76003 16.2401C7.14837 15.6284 6.34406 15.247 5.48338 15.1605C4.6227 15.074 3.75858 15.2877 3.03744 15.7654L1.39342 14.1214L5.10573 10.4091L13.591 18.8944L9.8787 22.6067L8.23467 20.9627ZM20.9626 8.23473L22.6066 9.87876L14.6517 17.8337L6.16639 9.34843L14.1213 1.39348L15.7654 3.0375C15.2877 3.75865 15.0739 4.62277 15.1604 5.48345C15.2469 6.34413 15.6283 7.14844 16.24 7.7601C16.8517 8.37176 17.656 8.75315 18.5166 8.83965C19.3773 8.92615 20.2414 8.71244 20.9626 8.23473Z" fill="#3182CE"/>
</g>
<defs>
<clipPath id="clip0_61_155">
<rect width="24" height="24" fill="white"/>
</clipPath>
</defs>
</svg>
