<svg id="Layer_1" data-name="Layer 1" xmlns="http://www.w3.org/2000/svg" xmlns:xlink="http://www.w3.org/1999/xlink" viewBox="0 0 480 480"><defs><style>.cls-1{fill:#f7d8ba;}.cls-2,.cls-6{fill:none;stroke-linecap:round;stroke-linejoin:round;}.cls-2{stroke:#f2ba8c;stroke-width:3px;stroke-dasharray:12;}.cls-3{clip-path:url(#clip-path);}.cls-4{fill:#4570b4;}.cls-5{fill:#c67d69;}.cls-6{stroke:#a8523f;stroke-width:2.84px;}.cls-7{fill:#1e0b02;}.cls-8{fill:#fff;}</style><clipPath id="clip-path"><circle class="cls-1" cx="240" cy="240" r="215" transform="translate(-99.41 240) rotate(-45)"/></clipPath></defs><circle class="cls-2" cx="240" cy="240" r="225"/><circle class="cls-1" cx="240" cy="240" r="215" transform="translate(-99.41 240) rotate(-45)"/><g class="cls-3"><path class="cls-4" d="M447.91,466.42H33.09c19.13-85.86,70.46-103,70.46-103l98.94-46.28,37.5-.34h1l37.54.34,98.94,46.28S428.79,380.56,447.91,466.42Z"/><path class="cls-5" d="M198.6,186.59a23.43,23.43,0,1,1-24.08-22.76A23.44,23.44,0,0,1,198.6,186.59Z"/><path class="cls-6" d="M161.88,184s9.31-4.54,18.19,11.64"/><circle class="cls-5" cx="307.56" cy="187.25" r="23.43"/><path class="cls-6" d="M320.76,183.58s-9.44-4.27-17.85,12.16"/><path class="cls-5" d="M271.43,241.23s-13.21,9.33-25.25,11.63-23.74-4.69-23.89-4.78l-14-8.08-5.76,77.11L204,318.4a55.84,55.84,0,0,0,70.46.48l3-2.43Z"/><path class="cls-7" d="M202.48,231.89s13.13,43,43.33,42.49c24.84-.39,28.84-42.49,28.84-42.49Z"/><path class="cls-5" d="M304.63,146.47a291.8,291.8,0,0,1-7.23,65.59c-3.61,15.9-14,27-28.62,36.05l-2.67,1.64a51,51,0,0,1-51.44.83h0c-16-9.11-27.19-21.16-30.71-38.19-6.4-31-7.26-65.28-7.26-65.28s-9-71.63,60-70.68S304.63,146.47,304.63,146.47Z"/><circle class="cls-7" cx="210.9" cy="167.48" r="5.58"/><circle class="cls-7" cx="265.69" cy="167.48" r="5.58"/><polyline class="cls-6" points="233.23 175.63 233.23 191.03 243.18 191.03"/><path d="M190.1,143.88l36.48-3.29s-3.26-9.45-18-7.92C193.47,134.24,190.1,143.88,190.1,143.88Z"/><path d="M284.13,143.88l-36.48-3.29s3.27-9.45,18-7.92C280.76,134.24,284.13,143.88,284.13,143.88Z"/><path class="cls-8" d="M220.74,203.78h36s-1.69,11-18.53,11S220.74,203.78,220.74,203.78Z"/><path class="cls-7" d="M179.05,181s10.21-77.47,5.22-90.24C184.27,90.77,149.52,119.51,179.05,181Z"/><path class="cls-7" d="M302,180.39s-11.5-74-8.31-95.27C293.72,85.12,327.27,114.84,302,180.39Z"/><path class="cls-7" d="M291.32,68.77,259.51,62.5l-2.81-7.17-16.79,3.31-16.79-3.31-2.8,7.17-31.81,6.27-4.24,22.16,1,25.55s5-29,22.56-23.21c4.13,1.36,9.08,3.62,14.87,5.14a61.39,61.39,0,0,0,15.41,2.34c.58,0,1.17,0,1.75,0s1.18,0,1.76,0a61.39,61.39,0,0,0,15.41-2.34A94.7,94.7,0,0,0,272,93.27c16.25-7.36,22.23,21.89,22.23,21.89l1.38-24.23Z"/><path class="cls-5" d="M202.48,317.11l-22.11,10.16s-.24,37.06,59.83,35.14c61.59-2,61.23-34.58,61.23-34.58l-23.91-11.38Z"/><path class="cls-7" d="M177.64,110.45a14,14,0,1,1-14-14A14,14,0,0,1,177.64,110.45Z"/><path class="cls-7" d="M177.9,134.72A11.75,11.75,0,1,1,166.15,123,11.75,11.75,0,0,1,177.9,134.72Z"/><path class="cls-7" d="M325.8,132.75A11.75,11.75,0,1,1,314.05,121,11.75,11.75,0,0,1,325.8,132.75Z"/><path class="cls-7" d="M188,90.77a14,14,0,1,1-14-14A14,14,0,0,1,188,90.77Z"/><path class="cls-7" d="M202,72.23a14,14,0,1,1-14-14A14,14,0,0,1,202,72.23Z"/><path class="cls-7" d="M222.31,61.43a14,14,0,1,1-14-14A14,14,0,0,1,222.31,61.43Z"/><path class="cls-7" d="M242.88,56.75a14,14,0,1,1-14-14A14,14,0,0,1,242.88,56.75Z"/><path class="cls-7" d="M304,110.45a14,14,0,1,0,14-14A14,14,0,0,0,304,110.45Z"/><path class="cls-7" d="M293.64,90.77a14,14,0,1,0,14-14A14,14,0,0,0,293.64,90.77Z"/><path class="cls-7" d="M279.67,72.23a14,14,0,1,0,14-14A14,14,0,0,0,279.67,72.23Z"/><path class="cls-7" d="M259.36,61.43a14,14,0,1,0,14-14A14,14,0,0,0,259.36,61.43Z"/><path class="cls-7" d="M238.79,56.75a14,14,0,1,0,14-14A14,14,0,0,0,238.79,56.75Z"/></g></svg>