<svg id="Layer_1" data-name="Layer 1" xmlns="http://www.w3.org/2000/svg" xmlns:xlink="http://www.w3.org/1999/xlink" viewBox="0 0 480 480"><defs><style>.cls-1{fill:#f7d8ba;}.cls-2,.cls-5,.cls-8{fill:none;}.cls-2{stroke:#f2ba8c;stroke-width:3px;stroke-dasharray:12;}.cls-2,.cls-5{stroke-linecap:round;stroke-linejoin:round;}.cls-3{clip-path:url(#clip-path);}.cls-4{fill:#e8b499;}.cls-5{stroke:#c47268;stroke-width:2.62px;}.cls-6{fill:#1e0b02;}.cls-7{fill:#fff;}.cls-8{stroke:#fff;stroke-miterlimit:10;stroke-width:7.37px;}.cls-9{fill:#a74b22;}</style><clipPath id="clip-path"><circle class="cls-1" cx="240" cy="240" r="215"/></clipPath></defs><circle class="cls-2" cx="240" cy="240" r="225"/><circle class="cls-1" cx="240" cy="240" r="215"/><g class="cls-3"><path class="cls-4" d="M199.32,169.46a23.43,23.43,0,1,1-24.08-22.76A23.43,23.43,0,0,1,199.32,169.46Z"/><path class="cls-5" d="M162.6,166.83s9.32-4.54,18.19,11.64"/><path class="cls-4" d="M284.86,170.12a23.43,23.43,0,1,0,23.42-23.43A23.43,23.43,0,0,0,284.86,170.12Z"/><path class="cls-5" d="M321.49,166.45s-9.44-4.27-17.86,12.16"/><path class="cls-4" d="M272.15,224.1s-13.21,9.33-25.25,11.63S223.16,231,223,231L209,222.87,203.2,300l1.56,1.29a55.84,55.84,0,0,0,70.46.48l3-2.43Z"/><path class="cls-6" d="M203.2,214.76s13.13,43,43.34,42.49c24.83-.39,28.83-42.49,28.83-42.49Z"/><path class="cls-4" d="M307.21,115.37c.13,26.48-5.39,63.32-9.08,79.56-3.62,15.9-17.61,27-32.26,36l-2.67,1.64c-15.51,9.53-28.33,9.85-44.17.83h0c-16-9.11-30.83-21.16-34.35-38.18-6.4-31-11.26-48.33-13-64.75-2.84-27-1.72-85.19,67.59-85.18C308.29,45.35,307.21,115.37,307.21,115.37Z"/><path class="cls-6" d="M217.21,150.35a5.59,5.59,0,1,1-5.58-5.59A5.58,5.58,0,0,1,217.21,150.35Z"/><path class="cls-6" d="M272,150.35a5.58,5.58,0,1,1-5.58-5.59A5.58,5.58,0,0,1,272,150.35Z"/><polyline class="cls-5" points="233.95 164.95 233.95 173.9 241.2 173.9"/><path d="M190.83,126.75l36.48-3.29s-3.27-9.45-18-7.92C194.2,117.11,190.83,126.75,190.83,126.75Z"/><path d="M284.86,126.75l-36.48-3.29s3.26-9.45,18-7.92C281.48,117.11,284.86,126.75,284.86,126.75Z"/><path class="cls-7" d="M421.38,462.56H58.62C65.23,435.1,72,410.69,78.77,391.68c10-28.06,24.3-44.49,36.16-53.85s21.18-11.75,21.18-11.75l25.18-10.53,159.25.15,23.35,10.38s37.41,9.43,57.34,65.6C408,410.69,414.77,435.1,421.38,462.56Z"/><path class="cls-4" d="M242.83,282l77.73,33.69s-79.86,72.16-159.27-.16Z"/><path class="cls-8" d="M161.29,315.54s27.67,32.73,79.43,32.73,79.84-32.57,79.84-32.57"/><path class="cls-9" d="M299.94,163.93s-1.22-.65-5.5,6.19-7.74,25.18-7.74,25.18a34.33,34.33,0,0,0-14.76-14.06c-9.78-5-30.3-2.24-33.8-1.72-5.42-.94-18.24-2.53-26.51,1.72-10.71,5.5-14.76,14.06-14.76,14.06s-3.47-18.34-7.75-25.18-5.5-6.19-5.5-6.19-2.24,35.64,7.34,56.83c8.41,18.61,40.66,26.31,48.33,26.69,0,0,43.74-5.5,53.31-26.69S299.94,163.93,299.94,163.93Z"/><path class="cls-7" d="M221.47,186.65h36s-1.69,11-18.52,11S221.47,186.65,221.47,186.65Z"/></g></svg>